<?xml version="1.0" standalone="no"?>
<!DOCTYPE svg PUBLIC "-//W3C//DTD SVG 1.1//EN" "http://www.w3.org/Graphics/SVG/1.1/DTD/svg11.dtd" >
<svg>
<metadata>
Created by FontForge 20090622 at Tue Apr  7 20:09:10 2020
 By deploy user
Copyright (c) 2020 by Vintage Type Company. All rights reserved.
</metadata>
<defs>
<font id="VTCFellbaumGroteskItalic-Black" horiz-adv-x="805" >
  <font-face 
    font-family="VTC Fellbaum Grotesk Italic"
    font-weight="900"
    font-stretch="normal"
    units-per-em="1000"
    panose-1="0 0 0 0 0 0 0 0 0 0"
    ascent="750"
    descent="-250"
    x-height="474"
    cap-height="677"
    bbox="-155 -209 1384 921"
    underline-thickness="50"
    underline-position="-50"
    unicode-range="U+000D-U+1F10C"
  />
<missing-glyph horiz-adv-x="798" 
d="M181 683h557l-122 -689h-556zM293 465l-45 -253l85 126zM312 109h93l-30 95zM393 568l30 -95l63 95h-93zM505 212l44 253l-84 -127z" />
    <glyph glyph-name="db.01" unicode="&#x3a;&#x29;" horiz-adv-x="794" 
d="M458 686q143 0 226.5 -101.5t58.5 -244.5q-26 -143 -145 -244.5t-262 -101.5t-226.5 101.5t-58.5 244.5q26 143 145 244.5t262 101.5zM659 354q19 108 -41 177q-58 70 -160 70q-51 0 -108 -22q-54 -21 -99 -60q-46 -38 -76 -88q-31 -53 -40 -106q-19 -105 41 -177
q58 -69 160 -69q56 0 108 21q53 21 100 60q44 38 75 89t40 105zM515 334l6 35h95v-85h-27q-21 -59 -72 -104q-69 -58 -151 -58q-85 0 -138 62q-25 32 -34 69q-5 17 -5 31h-16v85h111l-9 -50q-9 -47 19 -80q27 -32 72 -32q50 0 96 38q44 37 53 89zM310 322q-12 15 -13 42
q-2 21 3 59q8 42 23 71q19 35 42 35q13 0 22 -10q12 -15 13 -42q2 -21 -3 -59q-8 4 -14 4q-13 0 -23 -8.5t-12 -20.5q-1 -12 5 -22q7 -9 20 -9q2 0 4.5 0.5t3.5 0.5q-1 -2 -3.5 -7.5t-3.5 -8.5q-20 -36 -42 -36q-13 0 -22 11zM436 322q-12 15 -13 42q-3 27 3 59q8 42 23 71
q19 35 42 35q14 0 21 -10q11 -12 14 -42q2 -29 -4 -59q-8 4 -14 4q-12 0 -22 -8.5t-12 -20.5q-3 -13 5 -22t20 -9q1 0 4 0.5t4 0.5q-3 -8 -8 -16q-18 -36 -41 -36q-13 0 -22 11z" />
    <glyph glyph-name="db.02" unicode="&#x3c;&#x33;" horiz-adv-x="582" 
d="M439 558q49 0 76.5 -34.5t18.5 -84.5q-8 -48 -42 -98.5t-76.5 -88t-83.5 -68.5t-69 -47l-28 -16q-9 6 -23.5 17t-50 45.5t-61.5 70t-43 86.5t-9 99q8 50 48 84.5t89 34.5q86 0 111 -89q58 89 143 89z" />
    <glyph glyph-name="db.03" unicode="&#x3c;&#x3c;&#x33;" horiz-adv-x="568" 
d="M500 519q30 -40 21 -94q-10 -57 -58 -119q-35 -46 -91 -91q-27 -22 -57 -42.5t-45.5 -30t-18.5 -10.5l-20 -11l-16 11q-3 1 -15 10t-34.5 30t-42.5 43q-39 45 -59 91q-26 60 -15 119q9 55 54 94t101 39q47 0 81 -29q5 -5 15 -17q14 12 22 17q43 29 91 29q54 0 87 -39z
M450 425q5 27 -9 45q-15 18 -41 18q-47 0 -82 -53l-43 -67l-20 67q-17 53 -64 53q-27 0 -46 -18q-21 -18 -26 -45q-13 -74 62 -159q26 -30 65 -62q55 35 88 63q105 86 116 158z" />
    <glyph glyph-name="db.04" unicode="db&#x2e;&#x30;&#x31;" horiz-adv-x="779" 
d="M633 461l101 -123l-144 -122l-91 111l-118 -100l92 -111l-144 -122l-101 122l131 111l-83 100l-130 -111l-101 122l144 123l91 -111l118 100l-92 111l144 122l101 -122l-131 -111l83 -100z" />
    <glyph glyph-name="db.05" unicode="db&#x2e;&#x30;&#x32;" horiz-adv-x="779" 
d="M551 183l-78 95l-39 -34l77 -95l-182 -155l-128 155l111 95l-28 34l-111 -95l-128 155l183 156l78 -95l40 34l-78 95l182 155l128 -155l-111 -95l28 -34l111 95l128 -156zM588 391l-62 -53l43 -53l63 53zM191 285l62 53l-43 53l-63 -53zM432 581l-62 -53l44 -53l62 53z
M347 96l62 53l-44 53l-62 -53zM380 285l62 53l-43 53l-62 -53z" />
    <glyph glyph-name="db.06" unicode="db&#x2e;&#x30;&#x33;" horiz-adv-x="663" 
d="M588 409h-158l-24 -141h157l-31 -173h-173l28 157h-141l-28 -157h-173l30 173h158l25 141h-158l31 173h173l-28 -157h141l28 157h173z" />
    <glyph glyph-name="db.07" unicode="db&#x2e;&#x30;&#x34;" horiz-adv-x="663" 
d="M579 362h-133l-9 -48h134l-39 -219h-219l23 134h-48l-23 -134h-220l39 219h133l9 48h-134l39 220h220l-24 -134h48l24 134h219zM205 167l13 75h-75l-13 -75h75zM252 435l13 75h-75l-13 -75h75zM362 301l14 75h-75l-13 -75h74zM486 242h-75l-13 -75h75zM458 510l-13 -75
h75l13 75h-75z" />
    <glyph glyph-name="db.08" unicode="db&#x2e;&#x30;&#x37;" horiz-adv-x="812" 
d="M765 421q-9 -50 -68 -83q48 -32 39 -82q-7 -39 -32.5 -60.5t-61.5 -21.5t-64 20.5t-58.5 58t-47.5 52.5l-45 -39q11 -20 42 -57t46 -68.5t9 -66.5q-7 -36 -32.5 -58t-63.5 -22q-50 0 -74 53q-40 -53 -92 -53q-38 0 -55.5 22.5t-11.5 57.5t32 66.5t70.5 69t62.5 56.5
l-32 39q-22 -15 -66 -52.5t-79 -58t-71 -20.5t-54 21.5t-11 60.5q8 51 68 82q-48 32 -39 83q7 38 33 60t61 22q36 0 64 -20.5t58.5 -58t47.5 -52.5l45 38q-11 20 -42.5 57.5t-46 69t-8.5 66.5q6 36 31.5 58t64.5 22q51 0 73 -53q42 53 92 53q39 0 56.5 -22t11.5 -58
q-6 -35 -32 -66.5t-70.5 -69t-62.5 -57.5l32 -38q22 15 66 52.5t79 58t71 20.5q35 0 53.5 -21.5t11.5 -60.5z" />
    <glyph glyph-name="db.09" unicode="db&#x2e;&#x30;&#x38;" horiz-adv-x="811" 
d="M746 493q26 -31 17 -81q-8 -42 -40 -74q22 -32 14 -73q-9 -52 -46 -81q-36 -30 -82 -30q-37 0 -67 19q13 -34 6 -70q-8 -47 -43 -78q-37 -31 -87 -31q-41 0 -68 27q-38 -27 -79 -27q-50 0 -75 31t-16 78q5 34 31 70q-36 -19 -74 -19q-45 0 -72 30q-26 31 -17 81
q8 41 40 73q-21 34 -14 74q9 50 46 81q36 30 82 30q34 0 67 -19q-13 34 -6 70q8 47 43 77q37 32 87 32q42 0 69 -27q36 27 78 27q51 0 75 -32q25 -30 16 -77q-5 -36 -30 -70q38 19 73 19q47 0 72 -30zM151 230q15 0 34.5 9.5t32.5 19.5l39 31q36 32 61 48q-17 16 -45 48
q-17 21 -27 31.5t-25.5 20t-31.5 9.5q-33 0 -39 -35q-5 -24 21 -41l50 -33l-61 -32q-32 -18 -36 -41q-6 -35 27 -35zM473 103q4 22 -7 43t-37 52q-28 34 -39 53q-12 -13 -57 -53l-37 -33t-25.5 -29t-15.5 -33q-4 -33 30 -33q24 0 46 28l42 56l23 -56q12 -28 36 -28
q35 0 41 33zM365 338l33 -40l48 40l-33 41zM421 426q12 13 57 53q25 21 37.5 32.5t25 29t15.5 33.5q6 33 -29 33q-25 0 -47 -29l-42 -55l-23 55q-12 29 -35 29q-35 0 -41 -33q-3 -16 3.5 -33.5t14 -28.5t25.5 -33q28 -34 39 -53zM687 412q7 35 -27 35q-35 0 -105 -61
q-48 -39 -62 -48q17 -14 45 -48q17 -21 27 -31t26 -19.5t31 -9.5q33 0 40 35q3 23 -22 41l-50 32l61 33q33 16 36 41z" />
    <glyph glyph-name="db.10" unicode="db&#x2e;&#x30;&#x39;" horiz-adv-x="796" 
d="M733 524q22 -28 16.5 -59t-35.5 -56t-68 -33t-90.5 -7.5t-77.5 -3.5l-10 -54q23 -3 77 -2.5t88.5 -7.5t55.5 -33q21 -24 16 -56t-37 -59q-43 -36 -100 -20q5 -60 -38 -97q-33 -27 -63 -26.5t-51 25.5t-22.5 61.5t8 89.5t10.5 78h-54q-7 -23 -16.5 -77t-23.5 -90.5
t-44 -61.5q-29 -25 -60 -25.5t-54 26.5q-30 36 -4 97q-62 -16 -92 20q-22 28 -16.5 59t34.5 56q30 25 67.5 33t91.5 7.5t78 2.5l9 54q-24 4 -76.5 3.5t-88 7.5t-56.5 33q-21 24 -15.5 55.5t37.5 59.5q43 36 100 20q-5 59 37 96q34 28 64 27.5t51 -25.5t22 -61.5t-8.5 -90
t-10.5 -77.5h55q7 23 16.5 77t23.5 90.5t44 61.5t60 25.5t54 -27.5q30 -37 3 -96q63 16 93 -20z" />
    <glyph glyph-name="db.11" unicode="db&#x2e;&#x31;&#x30;" horiz-adv-x="795" 
d="M726 530q30 -35 21 -80q-8 -44 -47 -75q-27 -25 -68 -37q34 -10 56 -36q26 -32 20 -76q-8 -44 -49 -79q-34 -30 -77 -33q-10 -41 -45 -71q-44 -36 -86 -35q-42 0 -70 33q-22 28 -25 63q-18 -37 -48 -63q-39 -33 -81 -33q-44 -2 -74 35q-23 27 -20 71q-41 3 -65 33
q-30 36 -21 79q8 44 47 76q31 26 69 36q-36 11 -56 37q-27 32 -21 75q8 45 49 80q34 28 77 33q11 42 46 71q41 35 85 35q42 0 70 -34q22 -26 25 -62q19 38 48 62q39 34 81 34q45 0 74 -35q25 -29 20 -71q43 -5 65 -33zM308 205q8 44 17 72q-25 -4 -73 -4q-85 0 -114 -24
q-28 -24 -7 -49q14 -17 48 -8l64 16l-27 -62q-14 -33 0 -50q21 -25 48 -1q19 16 28 41.5t16 68.5zM355 472q5 30 7 45t-0.5 34.5t-11.5 30.5q-19 23 -48 -1q-20 -17 -18 -50l5 -62l-59 16q-31 9 -51 -8q-29 -26 -10 -49q9 -11 27.5 -16.5t33.5 -6.5t45 -1q40 0 71 -4
q1 24 9 72zM421 310l10 57h-57l-11 -57h58zM615 200q29 26 10 49q-21 24 -106 24q-48 0 -71 4q-1 -27 -9 -72q-5 -30 -7 -45t0.5 -34.5t11.5 -30.5q19 -23 49 1q19 16 17 50l-5 62l59 -16q31 -9 51 8zM656 428q28 23 8 49q-15 17 -48 8l-65 -16l27 62q13 32 0 50
q-21 25 -48 1q-13 -11 -22 -31t-12.5 -33.5t-9.5 -45.5q-7 -40 -16 -72q32 4 72 4q30 0 45.5 1t35.5 6.5t33 16.5z" />
    <glyph glyph-name="db.12" unicode="db&#x2e;&#x31;&#x31;" horiz-adv-x="704" 
d="M489 382l170 86l-134 -267h-440l-40 267l140 -86l189 210zM64 85l12 69h441l-12 -69h-441z" />
    <glyph glyph-name="db.13" unicode="db&#x2e;&#x31;&#x32;" horiz-adv-x="704" 
d="M613 494l46 -45l-132 -262h-443l-39 262l62 45l97 -60l143 158h60l87 -158zM486 262l60 120l-91 -46l-93 170l-154 -170l-74 46l18 -120h334zM75 85l13 75h425l-13 -75h-425z" />
    <glyph glyph-name="db.14" unicode="db&#x2e;&#x31;&#x33;" horiz-adv-x="623" 
d="M167 683h411l-122 -689l-189 95l-222 -95z" />
    <glyph glyph-name="db.15" unicode="db&#x2e;&#x31;&#x34;" horiz-adv-x="640" 
d="M167 683h428l-122 -689l-196 99l-232 -99zM420 109l88 501h-281l-88 -501l152 65z" />
    <glyph glyph-name="db.16" unicode="db&#x2e;&#x31;&#x35;" horiz-adv-x="1429" 
d="M1264 382h120l-9 -54h-121l-310 -264l-116 140l-165 -140l-115 140l-165 -140l-217 264h-121l9 54h121l311 264l115 -140l165 140l115 -140l165 140zM753 570l-120 -102l84 -102l120 102zM397 140l120 102l-93 113l132 113l-84 102l-252 -215zM500 355l61 -75l89 75
l-62 75zM677 140l120 102l-84 102l-120 -102zM780 355l62 -75l88 75l-62 75zM957 140l253 215l-177 215l-120 -102l93 -113l-133 -113z" />
    <glyph glyph-name="db.17" unicode="db&#x2e;&#x31;&#x36;" horiz-adv-x="1429" 
d="M1264 382h120l-9 -54h-121l-310 -264l-116 140l-165 -140l-115 140l-165 -140l-217 264h-121l9 54h121l311 264l115 -140l165 140l115 -140l165 140zM424 355l132 113l-84 102l-252 -215l177 -215l120 102zM677 140l120 102l-84 102l-120 -102zM717 366l120 102l-84 102
l-120 -102zM957 140l253 215l-177 215l-120 -102l93 -113l-133 -113z" />
    <glyph glyph-name="db.18" unicode="db&#x2e;&#x31;&#x37;" horiz-adv-x="590" 
d="M355 461q-35 23 -60 57t-30 53q-12 40 5 75t44 37q24 3 42.5 -14.5t28.5 -45.5q1 -1 4 -20t10.5 -40.5t19.5 -40.5q18 -31 48 -57t59 -37q8 -3 6 -9t-11 -6q-35 -2 -82 10.5t-84 37.5zM535 351q11 -2 9.5 -12t-13.5 -13q-327 -85 -389 -85q-47 0 -74.5 28.5t-20.5 69.5
q8 41 45.5 70t83.5 29q56 0 359 -87zM494 265q6 0 8.5 -3t0 -7t-7.5 -5q-32 -10 -72 -37t-69 -58q-19 -19 -33.5 -40t-24.5 -39.5t-12 -21.5q-19 -28 -44 -45.5t-48 -14.5q-25 2 -29.5 36.5t20.5 75.5q12 20 49 53.5t80 56.5q90 51 182 49z" />
    <glyph glyph-name="db.19" unicode="db&#x2e;&#x31;&#x38;" horiz-adv-x="590" 
d="M236 216q35 -23 60 -57t29 -53q11 -40 -5.5 -75t-42.5 -37q-48 -5 -71 60q-1 3 -4.5 21.5t-10.5 39.5t-19 40q-18 31 -48.5 58t-58.5 37q-11 3 -5 11q3 4 10 4q94 2 166 -49zM96 413q-6 0 -8 3t0.5 6.5t7.5 5.5q33 11 73 37t68 57q18 19 33 41t24.5 39.5t11.5 20.5
q46 66 92 60q26 -2 30.5 -36.5t-21.5 -75.5q-11 -19 -48 -53t-80 -57q-46 -25 -97.5 -37.5t-85.5 -10.5zM449 438q46 0 73.5 -29.5t20.5 -69.5q-7 -41 -44.5 -69.5t-84.5 -28.5q-60 0 -359 85q-7 2 -8.5 7.5t2 11t10.5 6.5q338 87 390 87z" />
    <glyph glyph-name="db.20" unicode="db&#x2e;&#x30;&#x35;" horiz-adv-x="779" 
d="M566 543l-165 -140l-115 140l164 140zM213 134l165 140l115 -140l-164 -140zM210 478l115 -140l-165 -140l-115 140zM619 478l115 -140l-165 -140l-115 140z" />
    <glyph glyph-name="db.21" unicode="db&#x2e;&#x30;&#x36;" horiz-adv-x="779" 
d="M585 519l-193 -164l-135 164l193 164zM432 577l-69 -58l48 -58l68 58zM194 158l193 164l135 -164l-193 -164zM347 100l69 58l-48 58l-68 -58zM238 502l135 -164l-193 -164l-135 164zM151 338l48 -58l68 58l-48 58zM599 502l135 -164l-193 -164l-135 164zM512 338l48 -58
l68 58l-48 58z" />
    <glyph glyph-name="fi" unicode="fi" horiz-adv-x="650" 
d="M521 169q-4 -23 13 -35.5t41 -12.5l-22 -127q-90 0 -150.5 47.5t-46.5 127.5l32 184h-124l-57 -321q-31 -175 -176 -175q-32 0 -58.5 7.5t-36.5 15.5l-11 7l47 100q8 -3 25 -3q22 0 35.5 35t29.5 122l38 212h-64l23 127h63l4 22q33 181 247 181q43 0 79 -8.5t50 -17.5
l14 -9l-48 -101q-27 9 -70 9q-99 0 -110 -67l-2 -9h289z" />
    <glyph glyph-name="fl" unicode="fl" horiz-adv-x="725" 
d="M591 169q-4 -23 13 -35.5t41 -12.5l-22 -127q-57 0 -104.5 20t-74.5 60.5t-18 94.5l33 184h-135l-57 -321q-31 -175 -176 -175q-32 0 -58.5 7.5t-36.5 15.5l-11 7l47 100q8 -3 25 -3q22 0 35.5 35t29.5 122l38 212h-64l23 127h63l4 22q16 91 81.5 136t156.5 45
q73 0 123 -32l133 26zM481 480l13 70q-22 6 -48 6q-87 0 -98 -67l-2 -9h135z" />
    <glyph glyph-name="ffi" unicode="ffi" horiz-adv-x="975" 
d="M875 169q-4 -24 13 -36t42 -12l-23 -127q-90 0 -150 47.5t-46 127.5l32 184h-125l-56 -321q-31 -175 -177 -175q-32 0 -58.5 7.5t-36.5 15.5l-11 7l48 100q8 -3 24 -3q22 0 36 35t30 122l37 212h-130l-57 -321q-31 -175 -176 -175q-32 0 -58.5 7.5t-36.5 15.5l-11 7
l47 100q8 -3 25 -3q22 0 35.5 35t29.5 122l38 212h-64l23 127h63l4 22q16 90 86 135.5t162 45.5q86 0 144 -29q55 29 150 29q43 0 78.5 -8.5t49.5 -17.5l14 -9l-47 -101q-27 9 -71 9q-97 0 -110 -67l-1 -9h289zM480 502q7 33 13 50q-24 4 -41 4q-93 0 -104 -67l-2 -9h131z
" />
    <glyph glyph-name="ffl" unicode="ffl" horiz-adv-x="1020" 
d="M885 169q-4 -24 13 -36t42 -12l-23 -127q-89 0 -149.5 48t-46.5 127l32 184h-135l-56 -321q-31 -175 -177 -175q-32 0 -58.5 7.5t-36.5 15.5l-11 7l48 100q8 -3 24 -3q22 0 36 35t30 122l37 212h-130l-57 -321q-31 -175 -176 -175q-32 0 -58.5 7.5t-36.5 15.5l-11 7
l47 100q8 -3 25 -3q22 0 35.5 35t29.5 122l38 212h-64l23 127h63l4 22q16 90 86 135.5t162 45.5q88 0 150 -31q58 31 134 31q73 0 123 -32l134 26zM480 502q8 34 15 50q-24 4 -43 4q-93 0 -104 -67l-2 -9h131zM776 480l12 70q-22 6 -48 6q-85 0 -98 -67l-1 -9h135z" />
    <glyph glyph-name="fj" unicode="fj" horiz-adv-x="695" 
d="M346 480h304l-89 -508q-18 -100 -88.5 -140.5t-199.5 -40.5l23 127q55 0 76 18t30 67l61 350h-139l-57 -321q-31 -175 -176 -175q-32 0 -58.5 7.5t-36.5 15.5l-11 7l47 100q8 -3 25 -3q22 0 35.5 35t29.5 122l38 212h-64l23 127h63l4 22q33 181 247 181q43 0 79 -8.5
t50 -17.5l14 -9l-48 -101q-27 9 -70 9q-99 0 -110 -67z" />
    <glyph glyph-name="tt" unicode="tt" horiz-adv-x="754" 
d="M596 347l-24 -137q-7 -42 2 -65.5t30 -23.5q11 0 19.5 3.5t12.5 7.5l3 3l42 -88q-5 -6 -15 -15t-43 -23.5t-69 -14.5q-67 0 -116 54.5t-35 136.5l29 162h-149l-24 -137q-7 -42 1.5 -65.5t29.5 -23.5q11 0 20 3.5t12 7.5l4 3l42 -88l-5.5 -5.5t-16 -13t-26.5 -16.5
t-35.5 -12.5t-44.5 -5.5q-67 0 -115.5 54.5t-34.5 136.5l29 162h-74l22 127q48 0 70.5 20t32.5 79l160 40l-25 -139h76q47 0 69.5 20t33.5 79l159 40l-24 -139h90l-23 -127h-90z" />
    <glyph glyph-name="ft" unicode="ft" horiz-adv-x="741" 
d="M588 353l-25 -143q-7 -42 2 -65.5t30 -23.5q11 0 19.5 3.5t11.5 7.5l4 3l42 -88q-5 -6 -15 -15t-43.5 -23.5t-69.5 -14.5q-67 0 -115.5 54.5t-34.5 136.5l30 168h-135l-57 -321q-31 -175 -176 -175q-32 0 -58.5 7.5t-37.5 15.5l-10 7l47 100q8 -3 25 -3q22 0 35.5 35
t29.5 122l38 212h-64l23 127h63l4 22q16 91 81.5 136t156.5 45q88 0 145 -34l111 28l-35 -197h91l-23 -127h-90zM408 480q27 0 38.5 11.5t20.5 49.5q-26 15 -65 15q-78 0 -89 -67l-2 -9h97z" />
    <glyph glyph-name=".notdef" horiz-adv-x="798" 
d="M181 683h557l-122 -689h-556zM293 465l-45 -253l85 126zM312 109h93l-30 95zM393 568l30 -95l63 95h-93zM505 212l44 253l-84 -127z" />
    <glyph glyph-name=".null" horiz-adv-x="0" 
 />
    <glyph glyph-name="nonmarkingreturn" horiz-adv-x="333" 
 />
    <glyph glyph-name="NULL" horiz-adv-x="200" 
 />
    <glyph glyph-name="CR" unicode="&#xd;" horiz-adv-x="200" 
 />
    <glyph glyph-name="space" unicode=" " horiz-adv-x="200" 
 />
    <glyph glyph-name="exclam" unicode="!" horiz-adv-x="317" 
d="M50 0l30 172h173l-31 -172h-172zM169 677h173l-21 -117l-97 -354h-103l28 354z" />
    <glyph glyph-name="quotedbl" unicode="&#x22;" horiz-adv-x="400" 
d="M40 474l-5 203h153l-77 -203h-71zM212 677h153l-77 -203h-70z" />
    <glyph glyph-name="numbersign" unicode="#" horiz-adv-x="707" 
d="M622 371h-99l-20 -72h87l-21 -115h-99l-53 -184h-128l53 184h-65l-52 -184h-129l53 184h-84l20 115h97l20 72h-94l21 115h106l53 185h128l-53 -185h65l53 185h128l-53 -185h86zM375 299l20 72h-65l-20 -72h65z" />
    <glyph glyph-name="dollar" unicode="$" horiz-adv-x="473" 
d="M257 446q-4 -19 11 -37.5t38.5 -36.5t46 -39t35.5 -51.5t7 -66.5q-9 -53 -47.5 -89.5t-93.5 -48.5l-15 -83h-112l14 82q-32 6 -60 17t-39 19l-12 9l68 105q27 -30 83 -30q52 0 58 35q3 19 -12 38.5t-38 38.5t-45.5 41t-35.5 54t-6 69q8 46 43.5 77t86.5 44l15 84h112
l-14 -82q31 -5 55.5 -15.5t33.5 -18.5l9 -8l-65 -101q-25 23 -71 23q-45 0 -50 -29z" />
    <glyph glyph-name="percent" unicode="%" horiz-adv-x="947" 
d="M437 503q-14 -81 -73 -130.5t-134 -49.5q-77 0 -126.5 50.5t-35.5 129.5q14 81 72.5 130.5t134.5 49.5q77 0 126.5 -50.5t35.5 -129.5zM195 503q-5 -29 8.5 -45.5t38.5 -16.5t44 16.5t24 45.5t-8.5 45.5t-38.5 16.5t-44 -16.5t-24 -45.5zM717 353q77 0 126.5 -50
t35.5 -129q-14 -81 -73 -130.5t-134 -49.5q-77 0 -126.5 50.5t-35.5 129.5q14 81 73 130t134 49zM752 174q5 28 -8 44.5t-38 16.5t-44.5 -16.5t-24.5 -44.5q-5 -29 8.5 -45.5t38.5 -16.5t44 16.5t24 45.5zM583 677h134l-353 -677h-134z" />
    <glyph glyph-name="ampersand" unicode="&#x26;" horiz-adv-x="624" 
d="M537 157l67 -59l-90 -104q-52 47 -63 58q-72 -58 -168 -58q-112 0 -179 58.5t-51 150.5q18 101 133 163q-47 92 -33 169q13 74 67.5 111t134.5 37q100 0 160 -59t44 -145q-6 -34 -26.5 -64t-49 -51t-51 -33.5t-45.5 -22.5q24 -31 58 -65q15 38 25 92h127
q-18 -103 -60 -178zM312 507q-9 -47 13 -100q65 43 75 100q4 22 -5 35.5t-30 13.5t-35 -13.5t-18 -35.5zM293 121q37 0 68 17q-68 70 -111 126q-26 -24 -33 -61t15 -59.5t61 -22.5z" />
    <glyph glyph-name="quotesingle" unicode="'" horiz-adv-x="143" 
d="M35 677h153l-77 -203h-71z" />
    <glyph glyph-name="parenleft" unicode="(" horiz-adv-x="395" 
d="M390 556q-6 -4 -16.5 -12t-38 -37t-51 -62.5t-47.5 -89.5t-35 -118q-9 -60 -5.5 -110t16.5 -89t27.5 -65.5t25.5 -40.5l11 -14l-82 -127q-3 3 -7 7.5l-18 20.5t-25.5 33.5l-29 45t-29.5 55.5t-25.5 66t-18 74.5t-7 82t7.5 89.5q14 81 51 153.5t79.5 118.5t83.5 81t68 50
l27 15z" />
    <glyph glyph-name="parenright" unicode=")" horiz-adv-x="376" 
d="M180 683q3 -2 7.5 -6.5t17.5 -20l26 -32.5t29 -43.5t29.5 -55t25.5 -65.5t18.5 -75t6.5 -84t-8 -92q-11 -60 -33.5 -115.5t-50.5 -96t-59.5 -76t-61 -58.5l-53 -40t-38.5 -25l-14 -7l-37 127q6 4 16.5 12t38 37t51 62.5t47.5 89.5t35 118q10 66 6.5 117.5t-17 89.5
t-28 63t-26.5 37l-11 12z" />
    <glyph glyph-name="asterisk" unicode="*" horiz-adv-x="345" 
d="M300 595l-67 -37l54 -37l-43 -54l-50 34l-11 -62h-63l11 62l-62 -34l-24 54l67 37l-54 37l43 54l50 -34l11 62h63l-11 -62l62 34z" />
    <glyph glyph-name="plus" unicode="+" horiz-adv-x="403" 
d="M276 304h92l-23 -128h-91l-16 -91h-128l16 91h-91l22 128h92l16 92h127z" />
    <glyph glyph-name="comma" unicode="," horiz-adv-x="371" 
d="M163 172h173l-206 -345h-120z" />
    <glyph glyph-name="hyphen" unicode="-" horiz-adv-x="353" 
d="M67 304h241l-23 -128h-240z" />
    <glyph glyph-name="period" unicode="." horiz-adv-x="273" 
d="M65 172h173l-31 -172h-172z" />
    <glyph glyph-name="slash" unicode="/" horiz-adv-x="453" 
d="M298 683h130l-273 -689h-130z" />
    <glyph glyph-name="zero" unicode="0" horiz-adv-x="564" 
d="M315 486q45 0 86 -16t73 -46t46.5 -81.5t3.5 -114.5q-12 -64 -39.5 -111t-66.5 -73t-80.5 -38t-87.5 -12q-45 0 -86 16t-73.5 46t-47 81.5t-3.5 114.5q11 64 39 111t67 73t81 38t88 12zM361 240q10 58 -5.5 88.5t-52.5 30.5q-38 0 -64.5 -30.5t-36.5 -88.5t5.5 -88.5
t53.5 -30.5q37 0 63.5 30.5t36.5 88.5z" />
    <glyph glyph-name="one" unicode="1" horiz-adv-x="326" 
d="M57 430l234 56l-86 -486h-164l56 318l-62 -15z" />
    <glyph glyph-name="two" unicode="2" horiz-adv-x="484" 
d="M446 323q-10 -60 -51 -104t-116 -92h140l-22 -127h-325l-37 127q140 78 176 105q64 47 71 88q2 17 -12 28t-42 11q-23 0 -47 -8.5t-36 -16.5l-12 -8l-30 104q7 6 20 15.5t55.5 25t88.5 15.5q87 0 140 -43.5t39 -119.5z" />
    <glyph glyph-name="three" unicode="3" horiz-adv-x="454" 
d="M416 326q-8 -44 -34 -76t-48 -42l-22 -10q2 -1 5 -3t11.5 -9t15.5 -15.5t16 -22t13 -29t7 -36.5t-3 -44q-8 -47 -48 -90t-91 -70.5t-100.5 -48.5t-83.5 -30l-34 -9l-35 120q9 2 23.5 6.5t52.5 20.5t68 33t57.5 44.5t32.5 56.5q5 28 -14 43.5t-52 4.5l-19 -7l-29 99
q83 34 111 52.5t33 46.5q3 20 -9 34t-38 14q-22 0 -43.5 -8.5t-31.5 -16.5l-10 -8l-30 104q7 6 20 15.5t54.5 25t83.5 15.5q83 0 133 -43.5t38 -116.5z" />
    <glyph glyph-name="four" unicode="4" horiz-adv-x="566" 
d="M460 140h71l-23 -127h-70l-38 -216h-165l38 216h-201l-37 127l271 340h214zM296 140l34 193l-150 -193h116z" />
    <glyph glyph-name="five" unicode="5" horiz-adv-x="469" 
d="M411 353h-183l-27 -119q25 5 46 5q81 0 126 -53.5t30 -138.5q-10 -59 -53.5 -107t-98 -74.5t-107 -44.5t-88.5 -24l-36 -6l-35 120q10 2 26 6t58 18.5t75.5 30.5t62.5 41.5t34 52.5q4 23 -11.5 37.5t-47.5 14.5q-21 0 -40.5 -7t-29.5 -13l-9 -7l-82 99l68 296h345z" />
    <glyph glyph-name="six" unicode="6" horiz-adv-x="538" 
d="M310 399q95 0 150 -62t39 -153q-17 -91 -85 -140.5t-163 -49.5q-108 0 -170 73.5t-40 197.5q11 64 39 121t64 97.5t77 74.5t80 55.5t70.5 36.5t50.5 21l19 6l37 -127q-16 -5 -42 -16t-89.5 -52.5t-106.5 -92.5q35 10 70 10zM337 196q6 36 -11.5 55.5t-47.5 19.5
t-54.5 -19.5t-30.5 -55.5t11.5 -55.5t47.5 -19.5t54.5 19.5t30.5 55.5z" />
    <glyph glyph-name="seven" unicode="7" horiz-adv-x="469" 
d="M59 480h375l-24 -137l-22 -23t-51.5 -68t-69.5 -111.5t-66.5 -152t-51.5 -191.5h-164q18 104 52.5 199t70 155.5t68.5 106t54 65.5l21 20h-216z" />
    <glyph glyph-name="eight" unicode="8" horiz-adv-x="571" 
d="M533 491q-7 -40 -33 -74t-48 -48l-22 -14q2 -1 4.5 -3t11 -9.5t14.5 -16t15 -23t12.5 -30.5t6 -38.5t-3.5 -46.5q-17 -99 -83 -146.5t-160 -47.5q-98 0 -161 56.5t-47 149.5q9 53 38.5 91.5t54.5 50.5l24 13q-8 7 -19 19t-26 51t-8 79q15 86 78 129.5t159 43.5
q94 0 150.5 -52t42.5 -134zM329 206q7 40 -5.5 62.5t-41.5 22.5t-50 -22.5t-28 -62.5t6 -62.5t42 -22.5t49.5 22.5t27.5 62.5zM367 484q5 30 -5 47.5t-35 17.5q-51 0 -63 -65q-5 -30 5 -48t35 -18t41 18t22 48z" />
    <glyph glyph-name="nine" unicode="9" horiz-adv-x="544" 
d="M304 486q101 0 161 -76t38 -201q-11 -65 -37.5 -123.5t-59 -99.5t-69 -75.5t-71 -56t-62.5 -36.5t-45 -21l-17 -6l-38 127q9 2 25 7.5t58 32t76 62.5q-24 -7 -54 -7q-80 0 -134 67t-34 182q20 114 93.5 169t169.5 55zM346 249q9 51 -6.5 80.5t-45.5 29.5t-56 -29.5
t-35 -80.5q-9 -50 6.5 -79.5t45.5 -29.5t56 29.5t35 79.5z" />
    <glyph glyph-name="colon" unicode=":" horiz-adv-x="327" 
d="M35 0l30 172h173l-31 -172h-172zM120 480h172l-30 -173h-173z" />
    <glyph glyph-name="semicolon" unicode=";" horiz-adv-x="390" 
d="M-25 -173l153 345h173l-206 -345h-120zM183 480h172l-30 -173h-173z" />
    <glyph glyph-name="less" unicode="&#x3c;" horiz-adv-x="452" 
d="M407 396l-188 -155l133 -155l-79 -122l-228 277l326 277z" />
    <glyph glyph-name="equal" unicode="=" horiz-adv-x="364" 
d="M35 46l22 128h241l-23 -128h-240zM88 350h241l-23 -127h-240z" />
    <glyph glyph-name="greater" unicode="&#x3e;" horiz-adv-x="452" 
d="M179 518l228 -277l-326 -277l-36 122l188 155l-133 155z" />
    <glyph glyph-name="question" unicode="?" horiz-adv-x="493" 
d="M272 683q79 0 129.5 -38.5t39.5 -103.5q-7 -37 -32.5 -67t-57 -47.5t-63 -31t-53.5 -25t-24 -22.5q-2 -10 9 -15.5t28 -5.5q24 0 48 6t36 12l12 6l26 -91q-6 -7 -18 -17t-54 -26.5t-90 -16.5q-75 0 -120.5 36t-35.5 95q7 39 32 68.5t57 46t63 29.5t53.5 26t25.5 28
q2 13 -12 20t-40 7q-28 0 -54 -6t-39 -12l-12 -6l-29 97q7 6 21 15t60 24t94 15zM73 0l30 172h173l-31 -172h-172z" />
    <glyph glyph-name="at" unicode="@" horiz-adv-x="799" 
d="M460 597q94 0 165.5 -49t102.5 -128t16 -167q-17 -97 -55 -145.5t-104 -48.5q-30 0 -53.5 7t-36.5 17.5t-22 20.5t-11 17l-3 7q-1 -3 -3.5 -7.5t-12.5 -16.5t-22.5 -21t-33.5 -16.5t-46 -7.5q-73 0 -118 52.5t-29 141.5q16 92 80.5 143t160.5 51q40 0 84 -12t68 -24
l24 -12l-33 -190q-19 -105 27 -105q67 0 94 149q22 125 -48.5 215.5t-198.5 90.5q-127 0 -228 -89t-124 -217q-22 -123 51.5 -214.5t193.5 -91.5q33 0 71.5 7t60.5 14l22 7l16 -35q-78 -32 -177 -32q-61 0 -118 27t-97.5 72.5t-60 110.5t-7.5 135q26 151 140.5 247.5
t264.5 96.5zM436 253l11 63q-9 16 -31 16t-44 -21.5t-28 -57.5q-7 -38 2 -58.5t30 -20.5t37 20.5t23 58.5z" />
    <glyph glyph-name="A" unicode="A" horiz-adv-x="579" 
d="M512 677l32 -677h-176l-3 101h-135l-38 -101h-167l271 677h216zM281 234h80l-6 194z" />
    <glyph glyph-name="B" unicode="B" horiz-adv-x="581" 
d="M562 489q-5 -27 -16 -49.5t-23 -36.5t-23.5 -23.5t-19.5 -13.5l-7 -4q3 -1 8.5 -4.5t19.5 -16t21 -29.5t14 -45.5t-2 -63.5q-18 -100 -87 -151.5t-175 -51.5h-247l119 677h205q108 0 169 -46.5t44 -141.5zM363 211q14 77 -60 77h-55l-27 -154h55q73 0 87 77zM388 483
q10 60 -63 60h-32l-21 -121h32q74 0 84 61z" />
    <glyph glyph-name="C" unicode="C" horiz-adv-x="502" 
d="M380 683q32 0 59.5 -6.5t44.5 -15.5t30 -18t18 -15l5 -7l-67 -104q-2 4 -7.5 9t-25.5 14t-46 9q-61 0 -106.5 -53.5t-63.5 -157.5q-19 -105 8.5 -158t95.5 -53q25 0 46.5 7t30.5 14l8 7l31 -104q-2 -2 -5.5 -6t-17 -14t-30 -17.5t-44 -13.5t-58.5 -6q-43 0 -82 10t-75 33
t-58 60t-31.5 90t3.5 123l10 57q30 167 117 241.5t210 74.5z" />
    <glyph glyph-name="D" unicode="D" horiz-adv-x="597" 
d="M409 677q78 0 129.5 -77.5t24.5 -232.5l-10 -57q-28 -160 -95 -235t-150 -75h-283l119 677h265zM386 338q36 205 -53 205h-40l-72 -409h39q90 0 126 204z" />
    <glyph glyph-name="E" unicode="E" horiz-adv-x="434" 
d="M445 543h-152l-20 -114h115l-24 -134h-115l-28 -161h152l-24 -134h-324l119 677h325z" />
    <glyph glyph-name="F" unicode="F" horiz-adv-x="468" 
d="M469 543h-176l-24 -136h146l-23 -133h-146l-49 -274h-172l119 677h349z" />
    <glyph glyph-name="G" unicode="G" horiz-adv-x="571" 
d="M276 276l24 134h233l-51 -288l-8.5 -13.5t-25.5 -31t-44.5 -39t-66 -30.5t-88.5 -14q-49 0 -92 18.5t-77.5 57t-47 98.5t0.5 142l10 57q27 151 114 233.5t213 82.5q52 0 96 -14t62 -28l18 -14l-67 -104q-34 26 -99 26q-60 0 -105.5 -53t-64.5 -158q-37 -211 55 -211
q16 0 29 9.5t18 19.5l5 9l20 111h-61z" />
    <glyph glyph-name="H" unicode="H" horiz-adv-x="578" 
d="M441 677h172l-119 -677h-173l49 278h-124l-49 -278h-172l119 677h173l-47 -266h124z" />
    <glyph glyph-name="I" unicode="I" horiz-adv-x="282" 
d="M144 677h173l-120 -677h-172z" />
    <glyph glyph-name="J" unicode="J" horiz-adv-x="514" 
d="M317 677h172l-82 -465q-19 -108 -76 -163t-140 -55q-53 0 -94.5 11t-56.5 23l-15 11l74 115q21 -27 64 -27q31 0 49.5 31t31.5 109z" />
    <glyph glyph-name="K" unicode="K" horiz-adv-x="617" 
d="M632 677l-172 -233l59 -444h-181l-31 235l-90 -122l-20 -113h-172l119 677h173l-42 -235l178 235h179z" />
    <glyph glyph-name="L" unicode="L" horiz-adv-x="416" 
d="M221 134h150l-24 -134h-322l119 677h173z" />
    <glyph glyph-name="M" unicode="M" horiz-adv-x="796" 
d="M549 677h247l-75 -677h-181l50 414l-151 -420h-140l-2 400l-94 -394h-168l164 677h244l3 -282z" />
    <glyph glyph-name="N" unicode="N" horiz-adv-x="625" 
d="M457 677h168l-120 -683h-168l-94 294l-50 -288h-168l119 677h168l94 -294z" />
    <glyph glyph-name="O" unicode="O" horiz-adv-x="570" 
d="M341 683q113 0 173 -80t32 -236l-10 -57q-28 -159 -106.5 -237.5t-188.5 -78.5q-114 0 -174.5 80t-32.5 236l10 57q28 158 107 237t190 79zM369 338q18 107 6.5 159t-48.5 52q-36 0 -66.5 -53.5t-48.5 -157.5q-18 -107 -7 -159t48 -52q36 0 66.5 53t49.5 158z" />
    <glyph glyph-name="P" unicode="P" horiz-adv-x="563" 
d="M414 677q87 0 136.5 -59.5t32.5 -158.5q-18 -102 -82 -160t-152 -58h-99l-43 -241h-172l119 677h260zM411 459q15 84 -47 84h-61l-30 -169h62q61 0 76 85z" />
    <glyph glyph-name="Q" unicode="Q" horiz-adv-x="569" 
d="M340 683q113 0 173 -80t32 -236l-10 -57q-23 -129 -79 -205t-137 -100q0 -45 41 -45h12l-23 -133h-12q-94 0 -146 49t-45 135q-71 29 -102.5 104t-10.5 195l10 57q28 158 107 237t190 79zM368 338q18 107 6.5 159t-48.5 52q-36 0 -66.5 -53.5t-48.5 -157.5
q-18 -107 -7 -159t48 -52q36 0 66.5 53t49.5 158z" />
    <glyph glyph-name="R" unicode="R" horiz-adv-x="574" 
d="M404 677q85 0 133.5 -57t31.5 -156q-24 -133 -118 -187l37 -277h-168l-33 251h-45l-45 -251h-172l119 677h260zM396 464q15 79 -47 79h-56l-28 -159h56q62 0 75 80z" />
    <glyph glyph-name="S" unicode="S" horiz-adv-x="503" 
d="M281 500q-4 -22 12 -48.5t40.5 -54.5t48 -59.5t36.5 -74.5t5 -88q-16 -87 -82.5 -134t-149.5 -47q-52 0 -96 15t-62 30l-18 15l74 115q44 -42 97 -42q56 0 64 47q4 24 -11.5 51.5t-39.5 55.5t-48 59.5t-36.5 76t-4.5 92.5q13 75 78.5 124.5t144.5 49.5q48 0 88 -13.5
t56 -27.5l16 -13l-67 -104q-31 24 -75 24q-26 0 -46 -13t-24 -36z" />
    <glyph glyph-name="T" unicode="T" horiz-adv-x="431" 
d="M49 677h397l-24 -134h-112l-96 -543h-172l95 543h-112z" />
    <glyph glyph-name="U" unicode="U" horiz-adv-x="551" 
d="M404 677h172l-77 -439q-43 -244 -263 -244q-107 0 -167 60t-38 184l78 439h172l-67 -380q-15 -93 -7.5 -131.5t39.5 -38.5t53.5 39t37.5 131z" />
    <glyph glyph-name="V" unicode="V" horiz-adv-x="569" 
d="M377 677h167l-270 -677h-217l-32 677h176l13 -428z" />
    <glyph glyph-name="W" unicode="W" horiz-adv-x="769" 
d="M646 677h168l-242 -677h-224l3 272l-93 -272h-229l-4 677h181l-5 -414l142 414h12h134h21l-3 -411z" />
    <glyph glyph-name="X" unicode="X" horiz-adv-x="640" 
d="M615 677l-187 -338l68 -339h-184l-30 146l-78 -146h-179l192 346l-67 331h184l28 -138l73 138h180z" />
    <glyph glyph-name="Y" unicode="Y" horiz-adv-x="523" 
d="M379 677h179l-257 -440l-42 -237h-172l41 232l-103 445h184l44 -237z" />
    <glyph glyph-name="Z" unicode="Z" horiz-adv-x="504" 
d="M147 677h332l-25 -140l-228 -403h157l-23 -134h-335v2l25 137l228 404h-154z" />
    <glyph glyph-name="bracketleft" unicode="[" horiz-adv-x="506" 
d="M449 550h-117l-110 -626h117l-23 -127h-281l155 880h281z" />
    <glyph glyph-name="backslash" unicode="\" horiz-adv-x="260" 
d="M180 683l30 -689h-130l-30 689h130z" />
    <glyph glyph-name="bracketright" unicode="]" horiz-adv-x="446" 
d="M130 677h281l-155 -880h-281l22 127h117l111 626h-117z" />
    <glyph glyph-name="asciicircum" unicode="^" horiz-adv-x="398" 
d="M277 649l86 -120h-124l-30 57l-50 -57h-124l128 120h114z" />
    <glyph glyph-name="underscore" unicode="_" horiz-adv-x="380" 
d="M57 121h288l-22 -127h-288z" />
    <glyph glyph-name="grave" unicode="`" horiz-adv-x="256" 
d="M179 649l42 -121h-118l-68 121h144z" />
    <glyph glyph-name="a" unicode="a" horiz-adv-x="571" 
d="M471 169q-4 -23 11.5 -35.5t43.5 -12.5l-22 -127q-35 0 -61.5 8t-39.5 19t-21.5 22.5t-9.5 19.5l-2 8q-1 -3 -4 -8.5t-15.5 -18.5t-28 -23t-44.5 -18.5t-64 -8.5q-74 0 -126.5 49t-39.5 123q27 149 284 149q4 19 -13.5 28.5t-46.5 9.5q-27 0 -54 -6.5t-41 -12.5l-14 -6
l-46 98q8 6 22.5 15t63 24t100.5 15q87 0 147.5 -44t46.5 -124zM307 174l7 36q-95 0 -103 -44q-3 -19 7 -32t32 -13t37.5 15t19.5 38z" />
    <glyph glyph-name="b" unicode="b" horiz-adv-x="546" 
d="M357 480q72 0 114 -60.5t25 -157.5l-10 -58q-37 -210 -241 -210q-30 0 -59.5 6.5t-58 22t-48.5 39t-29 60.5t-1 82l68 386h-61l21 123h226l-48 -270q4 4 12 10t34.5 16.5t55.5 10.5zM330 254q8 45 -3 72t-36 27t-45 -27t-28 -72l-6 -34q-8 -45 3 -72t36 -27q24 0 44.5 27
t28.5 72z" />
    <glyph glyph-name="c" unicode="c" horiz-adv-x="489" 
d="M300 121q16 0 28.5 3.5t17.5 7.5l4 3l48 -102q-4 -4 -13 -10.5t-45 -17.5t-80 -11q-90 0 -159 58t-52 156l10 58q19 109 87 161.5t163 52.5q44 0 77.5 -11t45.5 -23l12 -11l-53 -104q-17 22 -63 22q-38 0 -68.5 -27.5t-41.5 -88.5q-10 -57 16.5 -86.5t65.5 -29.5z" />
    <glyph glyph-name="d" unicode="d" horiz-adv-x="624" 
d="M483 169q-4 -23 10 -35.5t45 -12.5l-22 -127q-35 0 -62.5 8t-41.5 19t-23 22.5t-11 19.5l-3 8q-2 -3 -5 -8.5t-16.5 -18.5t-30 -23t-45.5 -18.5t-62 -8.5q-34 0 -66.5 12.5t-59 37t-38.5 67t-2 97.5l10 58q20 112 73.5 163t122.5 51q31 0 58.5 -9t39.5 -19l13 -9l26 147
h-70l22 123h234zM337 254q9 48 -1 73.5t-36 25.5t-46 -26t-28 -73l-6 -34q-9 -47 2 -73t38 -26q54 0 71 99z" />
    <glyph glyph-name="e" unicode="e" horiz-adv-x="523" 
d="M314 480q84 0 130 -62t30 -156l-14 -80h-253q-5 -28 19 -44.5t53 -16.5q28 0 55.5 9.5t41.5 19.5l13 9l50 -107l-24.5 -16t-62.5 -26t-94 -16q-102 0 -164.5 55t-44.5 155l10 58q18 103 92 160.5t163 57.5zM331 291q10 62 -39 62q-25 0 -43 -17.5t-23 -44.5h105z" />
    <glyph glyph-name="f" unicode="f" horiz-adv-x="516" 
d="M348 489l-2 -9h112l-23 -127h-111l-57 -321q-31 -175 -176 -175q-32 0 -58.5 7.5t-36.5 15.5l-11 7l47 100q8 -3 25 -3q22 0 35.5 35t29.5 122l38 212h-64l23 127h63l4 22q33 181 181 181q33 0 59 -8.5t36 -17.5l9 -9l-48 -101q-8 9 -25 9q-39 0 -50 -67z" />
    <glyph glyph-name="g" unicode="g" horiz-adv-x="625" 
d="M405 474h175l-22 -127h-33l-66 -375q-17 -94 -79 -137.5t-152 -43.5q-79 0 -137 48t-43 131h140q-4 -24 10 -38t37 -14q50 0 59 54l11 59q-31 -37 -86 -37q-75 0 -122.5 55t-29.5 155l10 58q19 105 69.5 161.5t123.5 56.5q33 0 59 -12.5t35 -25.5l10 -12zM352 254
q18 99 -36 99q-26 0 -46 -24.5t-29 -74.5l-6 -34q-18 -99 41 -99q53 0 70 99z" />
    <glyph glyph-name="h" unicode="h" horiz-adv-x="609" 
d="M510 169q-5 -25 10.5 -36.5t43.5 -11.5l-22 -127q-99 0 -156 41t-44 117l18 98q18 103 -36 103q-53 0 -71 -103l-44 -250h-164l104 590h-61l21 123h225l-45 -257q41 24 94 24q74 0 119 -50.5t29 -136.5z" />
    <glyph glyph-name="i" unicode="i" horiz-adv-x="381" 
d="M154 706h182l-29 -163h-182zM232 169q-4 -24 13 -36t42 -12l-23 -127q-89 0 -149.5 48t-46.5 127l32 182h-55l22 123h219z" />
    <glyph glyph-name="j" unicode="j" horiz-adv-x="515" 
d="M289 706h181l-28 -163h-182zM180 351l21 123h220l-89 -502q-17 -100 -87.5 -140.5t-199.5 -40.5l22 127q55 0 76.5 18.5t29.5 66.5l62 348h-55z" />
    <glyph glyph-name="k" unicode="k" horiz-adv-x="605" 
d="M457 175q10 -54 78 -54l-22 -127q-176 0 -201 147l-1 1l-79 -12l-23 -130h-164l104 590h-61l21 123h226l-53 -301q3 3 8 7t21 14.5t34 19t45 15t54 6.5q52 0 84 -33.5t32 -84.5q0 -104 -106 -163zM383 310q3 15 -5 26t-23 11q-29 0 -55 -27t-38 -54l-11 -27h13t29 3.5
t38 10t32.5 21.5t19.5 36z" />
    <glyph glyph-name="l" unicode="l" horiz-adv-x="353" 
d="M213 169q-4 -23 13 -35.5t41 -12.5l-22 -127q-57 0 -104.5 20t-74.5 60.5t-18 94.5l75 421h-62l22 123h225z" />
    <glyph glyph-name="m" unicode="m" horiz-adv-x="884" 
d="M785 169q-5 -25 10.5 -36.5t43.5 -11.5l-22 -127q-98 0 -155.5 41t-44.5 117l18 98q18 103 -35 103q-54 0 -72 -103l-44 -250h-164l44 250q9 50 -1.5 76.5t-35.5 26.5q-56 0 -74 -103l-44 -250h-164l62 352h-49l22 122h146l23 -51q53 57 134 57q90 0 133 -66
q55 66 142 66q74 0 119 -50.5t29 -136.5z" />
    <glyph glyph-name="n" unicode="n" horiz-adv-x="609" 
d="M510 169q-4 -25 11.5 -36.5t42.5 -11.5l-22 -127q-98 0 -155.5 41t-43.5 117l17 98q18 103 -35 103q-54 0 -72 -103l-44 -250h-164l62 352h-49l22 122h146l23 -51q53 57 134 57q74 0 119 -50.5t30 -136.5z" />
    <glyph glyph-name="o" unicode="o" horiz-adv-x="555" 
d="M321 480q94 0 148 -60t37 -158l-11 -58q-17 -101 -90 -155.5t-170 -54.5q-92 0 -147 61t-39 149l10 58q18 98 93 158t169 60zM337 237q9 49 -1 82.5t-38 33.5q-27 0 -48.5 -33t-30.5 -83t1 -83t38 -33q27 0 48.5 33t30.5 83z" />
    <glyph glyph-name="p" unicode="p" horiz-adv-x="611" 
d="M425 480q73 0 113 -57.5t22 -160.5l-10 -58q-21 -115 -68 -162.5t-119 -47.5q-34 0 -62 10t-39 20l-11 10l-42 -237h-164l97 550h-49l22 127h170l21 -44q5 6 14 14t40 22t65 14zM395 254q7 46 -3 72.5t-36 26.5q-55 0 -73 -99l-6 -34q-8 -46 3.5 -72.5t39.5 -26.5
q51 0 69 99z" />
    <glyph glyph-name="q" unicode="q" horiz-adv-x="577" 
d="M532 474l-97 -547h55l-23 -130h-219l42 237l-11 -11t-31.5 -18t-51.5 -11q-75 0 -119.5 55.5t-26.5 158.5l10 58q18 103 72.5 158.5t125.5 55.5q32 0 57.5 -12.5t34.5 -25.5l10 -12l23 44h149zM335 254q9 50 -3 74.5t-36 24.5q-56 0 -74 -99l-6 -34q-8 -50 4.5 -74.5
t38.5 -24.5q52 0 70 99z" />
    <glyph glyph-name="r" unicode="r" horiz-adv-x="468" 
d="M346 480q22 0 41.5 -5t27.5 -11l8 -5l-60 -126q-15 20 -40 20q-52 0 -74 -130l-40 -223h-164l62 352h-49l22 122h146l14 -31q46 37 106 37z" />
    <glyph glyph-name="s" unicode="s" horiz-adv-x="476" 
d="M263 326q-2 -11 21 -30.5t51 -40t48 -57.5t13 -78q-9 -52 -54 -89t-122 -37q-48 0 -91.5 15t-63.5 30l-20 15l67 104q34 -31 89 -31q31 0 36 21q2 10 -13.5 22.5t-37.5 28t-43.5 35t-33.5 51t-5 69.5q10 58 60.5 92t119.5 34q45 0 81.5 -13.5t50.5 -26.5l15 -14l-64 -98
q-23 18 -63 18q-38 0 -41 -20z" />
    <glyph glyph-name="t" unicode="t" horiz-adv-x="441" 
d="M283 347l-24 -137q-7 -42 1.5 -65.5t29.5 -23.5q11 0 20 3.5t12 7.5l4 3l42 -88l-5.5 -5.5t-16 -13t-26.5 -16.5t-35.5 -12.5t-44.5 -5.5q-67 0 -115.5 54.5t-34.5 136.5l29 162h-74l22 127h34q30 0 44.5 21.5t24.5 77.5l160 40l-25 -139h91l-23 -127h-90z" />
    <glyph glyph-name="u" unicode="u" horiz-adv-x="601" 
d="M497 169q-4 -25 13.5 -36.5t45.5 -11.5l-22 -127q-31 0 -57.5 5.5t-41.5 13t-26 15.5t-15 14l-4 5q-1 -2 -4.5 -5.5t-15 -13t-26.5 -16.5t-40.5 -12.5t-54.5 -5.5q-91 0 -145 51t-39 136l29 166h-49l22 127h214l-44 -250q-18 -103 36 -103q51 0 69 103l44 250h165z" />
    <glyph glyph-name="v" unicode="v" horiz-adv-x="579" 
d="M356 510q97 0 143 -51.5t30 -144.5l-23 -130q-34 -190 -244 -190q-54 0 -100.5 20.5t-73.5 64.5t-17 102l29 166h-55l22 127h220l-44 -250q-18 -103 36 -103q52 0 70 103l19 111q4 22 -6.5 35t-28.5 13z" />
    <glyph glyph-name="w" unicode="w" horiz-adv-x="844" 
d="M619 510q90 0 140.5 -47.5t36.5 -124.5l-27 -154q-16 -95 -72 -142.5t-141 -47.5q-33 0 -62 6.5t-46 16t-30 19.5t-18 16l-5 7q-1 -3 -4 -7t-15 -15.5t-27 -20t-42 -15.5t-58 -7q-86 0 -139.5 54t-38.5 136l29 163h-55l22 127h220l-44 -250q-19 -103 31 -103t67 103
l45 250h164l-44 -250q-9 -52 1 -77.5t34 -25.5q52 0 71 103l19 111q4 22 -6.5 35t-28.5 13z" />
    <glyph glyph-name="x" unicode="x" horiz-adv-x="546" 
d="M361 169q11 -48 73 -48l-22 -127q-118 0 -171 84l-44 -78h-152l140 247l-25 100h-73l22 127h176l20 -79l44 79h152l-150 -265z" />
    <glyph glyph-name="y" unicode="y" horiz-adv-x="586" 
d="M366 510q92 0 139.5 -54t31.5 -144l-60 -340q-16 -92 -77 -136.5t-142 -44.5q-85 0 -147 53t-47 142h147q-6 -32 7.5 -50t38.5 -18q46 0 55 54l13 70q-29 -22 -88 -22q-81 0 -129 49t-32 139l24 139h-55l22 127h219l-40 -224q-18 -102 40 -102t76 102l15 85
q4 23 -5.5 35.5t-27.5 12.5z" />
    <glyph glyph-name="z" unicode="z" horiz-adv-x="454" 
d="M409 474l-19 -111l-123 -236h107l-23 -127h-306l17 96l126 251h-101l22 127h300z" />
    <glyph glyph-name="braceleft" unicode="{" horiz-adv-x="494" 
d="M338 683q37 0 67 -14t42 -28l12 -14l-60 -94q-15 16 -44 16q-21 0 -35.5 -14t-18.5 -37q-8 -47 -1 -98t3 -73q-11 -59 -81 -90q59 -31 49 -90q-4 -22 -29 -73t-33 -98q-5 -23 5 -37.5t31 -14.5q13 0 25 4t18 8l6 5l28 -94q-5 -6 -15.5 -15.5t-43.5 -25t-69 -15.5
q-70 0 -119 39t-38 105q7 37 32.5 90.5t33.5 102.5q4 23 -8 34t-39 11h-21l22 127h21q55 0 64 46q8 49 1.5 102.5t0.5 90.5q11 67 67.5 105.5t126.5 38.5z" />
    <glyph glyph-name="bar" unicode="|" horiz-adv-x="409" 
d="M200 677h164l-155 -880h-164z" />
    <glyph glyph-name="braceright" unicode="}" horiz-adv-x="425" 
d="M369 300h20l-22 -127h-21q-56 0 -63 -45q-9 -49 -2.5 -102.5t-0.5 -90.5q-12 -69 -60.5 -106.5t-120.5 -37.5q-40 0 -73.5 14t-47.5 28l-13 14l61 94q14 -17 43 -17q21 0 35.5 14t18.5 38q9 47 2 98t-3 73q10 58 80 90q-59 32 -49 90q4 22 29 73t34 98q4 24 -6 37.5
t-31 13.5q-13 0 -25 -4t-18 -8l-6 -4l-27 94q6 6 17.5 15.5t47 25t71.5 15.5q71 0 115 -38.5t33 -105.5q-7 -37 -32 -90.5t-34 -102.5q-4 -23 8 -34.5t40 -11.5z" />
    <glyph glyph-name="asciitilde" unicode="~" horiz-adv-x="379" 
d="M262 661h82q-11 -58 -43.5 -92.5t-78.5 -34.5q-16 0 -33 4.5t-28 9t-21 7t-15.5 -2.5t-7.5 -18h-82q10 57 43 92t79 35q16 0 33 -4.5t27.5 -9t20.5 -7t15.5 2.5t8.5 18z" />
    <glyph glyph-name="uni00A0" unicode="&#xa0;" horiz-adv-x="200" 
 />
    <glyph glyph-name="exclamdown" unicode="&#xa1;" horiz-adv-x="392" 
d="M169 474h173l-31 -173h-172zM71 -86l97 354h103l-28 -354l-21 -117h-172z" />
    <glyph glyph-name="cent" unicode="&#xa2;" horiz-adv-x="426" 
d="M323 594q24 -6 43.5 -17t27.5 -19l7 -9l-61 -95q-18 21 -54 21q-35 0 -61 -31t-36 -88q-10 -56 9.5 -87t59.5 -31q15 0 27.5 4t18.5 8l5 5l29 -101q-32 -34 -100 -40l-13 -78h-113l18 98q-56 27 -85 84.5t-15 137.5q34 194 180 235l15 86h113z" />
    <glyph glyph-name="sterling" unicode="&#xa3;" horiz-adv-x="535" 
d="M370 559q-60 0 -70 -51q-4 -8 -1 -27.5t4 -27t7 -28.5t8 -30h131l-20 -115h-106q-16 -84 -61 -143q57 -19 76 -19q28 0 54 8t38 16l12 7l-22 -125q-42 -30 -104 -30q-25 0 -70 15t-70 15q-24 0 -71.5 -12t-79.5 -12l22 124q47 0 74.5 38t42.5 118h-81l21 115h57l-8 33.5
t-7 32.5t-3.5 33.5t2.5 35.5q13 74 71.5 113.5t140.5 39.5q48 0 86 -15.5t53 -31.5l14 -15l-60 -92q-31 30 -80 30z" />
    <glyph glyph-name="currency" unicode="&#xa4;" horiz-adv-x="487" 
d="M442 630l-36 -33q14 -36 7 -80q-9 -49 -34 -82l23 -32l-100 -76l-26 37q-27 -8 -55 -8q-30 0 -62 10l-42 -39l-72 76l36 34q-16 35 -7 80q7 45 34 81l-23 32l99 77l27 -38q29 8 56 8q34 0 61 -10l41 40zM286 517q3 19 -6.5 30.5t-28.5 11.5t-32.5 -11.5t-17.5 -30.5
q-3 -19 6.5 -31t28.5 -12t32.5 12t17.5 31z" />
    <glyph glyph-name="yen" unicode="&#xa5;" horiz-adv-x="577" 
d="M552 677l-182 -312h69l-20 -115h-104l-7 -35h104l-20 -115h-104l-17 -100h-160l18 100h-104l20 115h104l7 35h-105l21 115h66l-72 312h171l42 -227l121 227h152z" />
    <glyph glyph-name="brokenbar" unicode="&#xa6;" horiz-adv-x="409" 
d="M200 677h164l-68 -386h-164zM45 -203l68 386h164l-68 -386h-164z" />
    <glyph glyph-name="section" unicode="&#xa7;" horiz-adv-x="543" 
d="M274 529q-3 -16 14 -28.5t44 -21t58 -21.5t57 -28.5t40.5 -43.5t7.5 -65q-12 -70 -96 -91q41 -41 30 -104t-66.5 -97.5t-137.5 -34.5q-49 0 -94 12t-65 24l-21 13l67 105q31 -27 93 -27q59 0 64 27q3 18 -21 34.5t-59 33t-69.5 35.5t-56 49.5t-14.5 67.5q13 71 103 94
q-47 39 -38 96q11 61 66.5 93t137.5 32q51 0 96 -12.5t64 -24.5l20 -13l-68 -104q-36 27 -97 27q-54 0 -59 -27zM334 338q3 19 -12 33t-47 29q-57 -6 -65 -47q-2 -13 8.5 -24t24 -18t38.5 -17q47 11 53 44z" />
    <glyph glyph-name="dieresis" unicode="&#xa8;" horiz-adv-x="425" 
d="M35 529l24 138h138l-24 -138h-138zM252 667h138l-24 -138h-138z" />
    <glyph glyph-name="copyright" unicode="&#xa9;" horiz-adv-x="806" 
d="M428 530q38 0 65.5 -9.5t36.5 -19.5l8 -10l-45 -70q-13 17 -47 17q-31 0 -57 -24.5t-35 -75.5t10 -75t51 -24q14 0 26 3t17 6l5 3l21 -71q-3 -4 -8.5 -9.5t-31.5 -15t-60 -9.5q-72 0 -119 52t-31 140q16 91 70.5 141.5t123.5 50.5zM457 683q143 0 225.5 -101t57.5 -244
q-25 -142 -143.5 -243t-261.5 -101q-142 0 -225.5 100.5t-58.5 243.5q26 143 144.5 244t261.5 101zM696 346q10 62 -3 117q-14 55 -47 92q-69 83 -189 83q-61 0 -123 -24q-59 -24 -110 -66q-51 -44 -83 -99q-34 -55 -45 -118q-12 -61 3 -117q12 -52 46 -92q69 -83 190 -83
q61 0 123 24q57 22 109 66q50 43 84 98q34 57 45 119z" />
    <glyph glyph-name="ordfeminine" unicode="&#xaa;" horiz-adv-x="561" 
d="M324 671q93 0 153.5 -49t44.5 -141l-54 -308h-146l-10 44q-4 -6 -12.5 -14t-38 -22t-63.5 -14q-73 0 -115 44.5t-29 115.5q15 87 96.5 128.5t210.5 41.5q4 23 -17.5 34.5t-58.5 11.5q-32 0 -62 -6t-43 -12l-14 -6l-29 98q7 6 20.5 15t62 24t104.5 15zM337 360l7 40
q-113 0 -123 -59q-4 -22 9.5 -34.5t38.5 -12.5q56 0 68 66zM35 6l20 115h366l-20 -115h-366z" />
    <glyph glyph-name="guillemotleft" unicode="&#xab;" horiz-adv-x="615" 
d="M333 393l-149 -152l96 -152l-113 -80l-122 194l14 77l189 193zM570 393l-149 -152l95 -152l-113 -80l-122 194l14 77l190 193z" />
    <glyph glyph-name="logicalnot" unicode="&#xac;" horiz-adv-x="453" 
d="M57 282h361l-37 -210h-127l14 82h-233z" />
    <glyph glyph-name="uni00AD" unicode="&#xad;" horiz-adv-x="200" 
 />
    <glyph glyph-name="registered" unicode="&#xae;" horiz-adv-x="524" 
d="M297 583q31 0 46.5 -19t10.5 -49q-4 -20 -13 -35.5t-16 -20.5l-7 -5l11 -80h-65l-10 73h-20l-13 -73h-67l37 209h106zM287 515q2 10 -3 14.5t-18 4.5h-17l-7 -38h17q25 0 28 19zM291 683q85 0 134.5 -60t34.5 -145t-86 -145t-156 -60t-134.5 60t-34.5 145t86 145t156 60z
M425 484q12 70 -28 117q-39 47 -106 47q-34 0 -70 -14t-63 -38q-28 -23 -49 -56q-19 -32 -25 -68q-12 -69 27 -118q40 -46 107 -46q37 0 70 13t63 38q32 28 48 57q20 32 26 68z" />
    <glyph glyph-name="macron" unicode="&#xaf;" horiz-adv-x="318" 
d="M53 633h230l-18 -103h-230z" />
    <glyph glyph-name="degree" unicode="&#xb0;" horiz-adv-x="358" 
d="M199 683q62 0 97 -40t24 -101q-11 -62 -55 -101.5t-104 -39.5q-62 0 -97.5 40t-25.5 101q11 62 55.5 101.5t105.5 39.5zM212 542q6 42 -25 42q-34 0 -40 -42q-8 -42 25 -42q32 0 40 42z" />
    <glyph glyph-name="plusminus" unicode="&#xb1;" horiz-adv-x="437" 
d="M310 392h92l-23 -128h-91l-16 -91h-128l16 91h-91l22 128h92l16 91h127zM35 -3l22 127h284l-22 -127h-284z" />
    <glyph glyph-name="twosuperior" unicode="&#xb2;" horiz-adv-x="311" 
d="M283 567q-12 -70 -112 -164h80l-16 -86h-173l-37 71q16 12 39.5 32t65.5 66.5t47 74.5q3 13 -4 23t-24 10q-12 0 -24.5 -6t-18.5 -12l-7 -6l-21 71q4 4 12 10.5t35.5 17.5t58.5 11q57 0 82.5 -32t16.5 -81z" />
    <glyph glyph-name="threesuperior" unicode="&#xb3;" horiz-adv-x="308" 
d="M281 580q-4 -23 -16 -41.5t-21 -25.5l-10 -7q4 -3 9 -9t12 -27.5t2 -47.5q-8 -49 -45.5 -78.5t-91.5 -29.5q-24 0 -47.5 9t-35.5 17l-12 9l47 73q14 -22 46 -22q29 0 36 31q4 31 -24 31h-38l16 86h38q24 0 28 23q2 9 -4.5 16t-19.5 7q-12 0 -23.5 -5t-16.5 -11l-6 -5
l-21 72q44 35 100 35q55 0 80 -28t18 -72z" />
    <glyph glyph-name="acute" unicode="&#xb4;" horiz-adv-x="299" 
d="M120 649h144l-111 -121h-118z" />
    <glyph glyph-name="mu" unicode="&#xb5;" horiz-adv-x="643" 
d="M434 474h164l-83 -474h-149l-8 44q-1 -2 -2 -5.5t-7 -12t-13 -15t-20.5 -12t-28.5 -5.5q-14 0 -24 3t-13 7l-4 3l-37 -210h-164l119 677h165l-37 -207q-14 -81 -7.5 -113.5t34.5 -32.5t46.5 33t32.5 113z" />
    <glyph glyph-name="paragraph" unicode="&#xb6;" horiz-adv-x="695" 
d="M254 677h253l-155 -880h-172l86 489h-67q-70 0 -111 49.5t-23 146.5q17 98 67.5 146.5t121.5 48.5zM549 677h86l-155 -880h-86z" />
    <glyph glyph-name="periodcentered" unicode="&#xb7;" horiz-adv-x="293" 
d="M75 425h173l-31 -173h-172z" />
    <glyph glyph-name="cedilla" unicode="&#xb8;" horiz-adv-x="349" 
d="M214 -48q49 0 77 -18.5t21 -57.5q-8 -44 -52 -64.5t-105 -20.5q-27 0 -57 7t-46 14l-17 7l37 57q34 -17 69 -17q44 0 47 19q2 9 -5.5 13.5t-22.5 4.5q-13 0 -25 -3.5t-17 -6.5l-6 -4h-66l63 97h66l-22 -34q24 7 61 7z" />
    <glyph glyph-name="onesuperior" unicode="&#xb9;" horiz-adv-x="219" 
d="M50 644l144 36l-64 -363h-105l44 249l-34 -9z" />
    <glyph glyph-name="ordmasculine" unicode="&#xba;" horiz-adv-x="579" 
d="M336 671q96 0 154 -57t39 -166l-10 -58q-19 -111 -88.5 -167t-162.5 -56q-45 0 -84 13.5t-68 39.5t-41 70t-2 100l10 58q19 111 89 167t164 56zM360 419q21 124 -37 124q-28 0 -49.5 -31.5t-31.5 -92.5q-21 -125 37 -125t81 125zM45 6l20 115h366l-20 -115h-366z" />
    <glyph glyph-name="guillemotright" unicode="&#xbb;" horiz-adv-x="615" 
d="M448 473l122 -193l-14 -77l-190 -194l-85 80l149 152l-95 152zM333 280l-13 -77l-190 -194l-85 80l149 152l-95 152l113 80z" />
    <glyph glyph-name="onequarter" unicode="&#xbc;" horiz-adv-x="662" 
d="M413 677h135l-353 -677h-135zM602 360l-35 -197h33l-15 -86h-33l-13 -77h-106l14 77h-121l13 79l138 204h125zM466 150l16 93l-55 -93h39zM168 317h-106l44 249l-34 -9l16 87l144 36z" />
    <glyph glyph-name="onehalf" unicode="&#xbd;" horiz-adv-x="671" 
d="M413 677h135l-353 -677h-135zM609 250q-12 -69 -111 -164h79l-15 -86h-174l-37 71q16 12 39.5 32t65.5 66.5t47 74.5q3 13 -4 23t-24 10q-12 0 -24.5 -6t-18.5 -12l-7 -6l-21 71l11 10.5t31.5 17.5t51.5 11q58 0 89 -33t22 -80zM168 317h-106l44 249l-34 -9l16 87l144 36
z" />
    <glyph glyph-name="threequarters" unicode="&#xbe;" horiz-adv-x="734" 
d="M485 677h135l-353 -677h-135zM674 360l-34 -197h32l-15 -86h-32l-14 -77h-105l13 77h-121l14 79l137 204h125zM538 150l17 93l-56 -93h39zM292 422q-8 -49 -45.5 -78.5t-91.5 -29.5q-24 0 -47.5 9t-35.5 17l-12 9l47 73q14 -22 46 -22q29 0 36 31q4 31 -24 31h-38l16 86
h38q24 0 28 23q2 9 -4.5 16t-19.5 7q-12 0 -23.5 -5t-17.5 -11l-5 -5l-21 72q44 35 100 35q55 0 80 -28t18 -72q-4 -23 -16 -41.5t-22 -25.5l-9 -7q4 -3 9 -9t12 -27.5t2 -47.5z" />
    <glyph glyph-name="questiondown" unicode="&#xbf;" horiz-adv-x="473" 
d="M431 134q-7 -37 -31.5 -65t-55 -44t-60.5 -28t-52 -24.5t-24 -27.5q-3 -13 8.5 -20t34.5 -7q28 0 56 6t43 12l14 6l29 -97q-6 -6 -19 -15t-57 -24t-94 -15q-76 0 -129 46t-42 108q8 45 43.5 78t73.5 47t70.5 28.5t34.5 27.5q3 21 -43 21q-24 0 -46.5 -6t-32.5 -12l-11 -6
l-27 90q6 7 18 17t53.5 27t89.5 17q73 0 119.5 -40.5t36.5 -99.5zM412 474l-31 -173h-172l30 173h173z" />
    <glyph glyph-name="Agrave" unicode="&#xc0;" horiz-adv-x="579" 
d="M512 677l32 -677h-176l-3 101h-135l-38 -101h-167l271 677h216zM281 234h80l-6 194zM416 849l42 -121h-118l-68 121h144z" />
    <glyph glyph-name="Aacute" unicode="&#xc1;" horiz-adv-x="579" 
d="M512 677l32 -677h-176l-3 101h-135l-38 -101h-167l271 677h216zM281 234h80l-6 194zM422 849h144l-111 -121h-118z" />
    <glyph glyph-name="Acircumflex" unicode="&#xc2;" horiz-adv-x="579" 
d="M512 677l32 -677h-176l-3 101h-135l-38 -101h-167l271 677h216zM281 234h80l-6 194zM476 849l86 -120h-124l-30 57l-50 -57h-124l128 120h114z" />
    <glyph glyph-name="Atilde" unicode="&#xc3;" horiz-adv-x="579" 
d="M512 677l32 -677h-176l-3 101h-135l-38 -101h-167l271 677h216zM281 234h80l-6 194zM473 861h82q-11 -58 -43.5 -92.5t-78.5 -34.5q-16 0 -33 4.5t-28 9t-21 7t-15.5 -2.5t-7.5 -18h-82q10 57 43 92t79 35q16 0 33 -4.5t27.5 -9t20.5 -7t15.5 2.5t8.5 18z" />
    <glyph glyph-name="Adieresis" unicode="&#xc4;" horiz-adv-x="579" 
d="M512 677l32 -677h-176l-3 101h-135l-38 -101h-167l271 677h216zM281 234h80l-6 194zM235 729l24 138h138l-24 -138h-138zM452 867h138l-24 -138h-138z" />
    <glyph glyph-name="Aring" unicode="&#xc5;" horiz-adv-x="579" 
d="M512 677l32 -677h-176l-3 101h-135l-38 -101h-167l271 677h216zM281 234h80l-6 194zM433 921q50 0 81.5 -32t22.5 -84q-9 -54 -47 -85t-88 -31t-81 31.5t-22 84.5q10 53 47.5 84.5t86.5 31.5zM447 805q3 17 -3.5 26t-19.5 9t-22.5 -9t-12.5 -26q-6 -35 23 -35
q13 0 22.5 9t12.5 26z" />
    <glyph glyph-name="AE" unicode="&#xc6;" horiz-adv-x="778" 
d="M750 543h-152l-20 -114h115l-24 -134h-115l-28 -161h152l-24 -134h-324l19 107h-109l-47 -107h-168l310 677h438zM371 234l50 286l-125 -286h75z" />
    <glyph glyph-name="Ccedilla" unicode="&#xc7;" horiz-adv-x="502" 
d="M380 683q32 0 59.5 -6.5t44.5 -15.5t30 -18t18 -15l5 -7l-67 -104q-2 4 -7.5 9t-25.5 14t-46 9q-61 0 -106.5 -53.5t-63.5 -157.5q-19 -105 8.5 -158t95.5 -53q25 0 46.5 7t30.5 14l8 7l31 -104q-2 -2 -5.5 -6t-17 -14t-30 -17.5t-44 -13.5t-58.5 -6q-43 0 -82 10t-75 33
t-58 60t-31.5 90t3.5 123l10 57q30 167 117 241.5t210 74.5zM272 -48q49 0 77 -18.5t21 -57.5q-8 -44 -52 -64.5t-105 -20.5q-27 0 -57 7t-46 14l-17 7l37 57q34 -17 69 -17q44 0 47 19q2 9 -5.5 13.5t-22.5 4.5q-13 0 -25 -3.5t-17 -6.5l-6 -4h-66l63 97h66l-22 -34
q24 7 61 7z" />
    <glyph glyph-name="Egrave" unicode="&#xc8;" horiz-adv-x="434" 
d="M445 543h-152l-20 -114h115l-24 -134h-115l-28 -161h152l-24 -134h-324l119 677h325zM331 849l42 -121h-118l-68 121h144z" />
    <glyph glyph-name="Eacute" unicode="&#xc9;" horiz-adv-x="434" 
d="M445 543h-152l-20 -114h115l-24 -134h-115l-28 -161h152l-24 -134h-324l119 677h325zM307 849h144l-111 -121h-118z" />
    <glyph glyph-name="Ecircumflex" unicode="&#xca;" horiz-adv-x="434" 
d="M445 543h-152l-20 -114h115l-24 -134h-115l-28 -161h152l-24 -134h-324l119 677h325zM387 849l86 -120h-124l-30 57l-50 -57h-124l128 120h114z" />
    <glyph glyph-name="Edieresis" unicode="&#xcb;" horiz-adv-x="434" 
d="M445 543h-152l-20 -114h115l-24 -134h-115l-28 -161h152l-24 -134h-324l119 677h325zM143 729l24 138h138l-24 -138h-138zM360 867h138l-24 -138h-138z" />
    <glyph glyph-name="Igrave" unicode="&#xcc;" horiz-adv-x="282" 
d="M144 677h173l-120 -677h-172zM245 849l42 -121h-118l-68 121h144z" />
    <glyph glyph-name="Iacute" unicode="&#xcd;" horiz-adv-x="282" 
d="M144 677h173l-120 -677h-172zM258 849h144l-111 -121h-118z" />
    <glyph glyph-name="Icircumflex" unicode="&#xce;" horiz-adv-x="282" 
d="M144 677h173l-120 -677h-172zM305 849l86 -120h-124l-30 57l-50 -57h-124l128 120h114z" />
    <glyph glyph-name="Idieresis" unicode="&#xcf;" horiz-adv-x="282" 
d="M144 677h173l-120 -677h-172zM66 729l24 138h138l-24 -138h-138zM283 867h138l-24 -138h-138z" />
    <glyph glyph-name="Eth" unicode="&#xd0;" horiz-adv-x="597" 
d="M409 677q78 0 129.5 -77.5t24.5 -232.5l-10 -57q-28 -160 -95 -235t-150 -75h-283l49 278h-46l24 133h45l47 266h265zM386 338q36 205 -53 205h-40l-23 -132h64l-23 -133h-65l-25 -144h39q90 0 126 204z" />
    <glyph glyph-name="Ntilde" unicode="&#xd1;" horiz-adv-x="625" 
d="M457 677h168l-120 -683h-168l-94 294l-50 -288h-168l119 677h168l94 -294zM458 861h82q-11 -58 -43.5 -92.5t-78.5 -34.5q-16 0 -33 4.5t-28 9t-21 7t-15.5 -2.5t-7.5 -18h-82q10 57 43 92t79 35q16 0 33 -4.5t27.5 -9t20.5 -7t15.5 2.5t8.5 18z" />
    <glyph glyph-name="Ograve" unicode="&#xd2;" horiz-adv-x="570" 
d="M341 683q113 0 173 -80t32 -236l-10 -57q-28 -159 -106.5 -237.5t-188.5 -78.5q-114 0 -174.5 80t-32.5 236l10 57q28 158 107 237t190 79zM369 338q18 107 6.5 159t-48.5 52q-36 0 -66.5 -53.5t-48.5 -157.5q-18 -107 -7 -159t48 -52q36 0 66.5 53t49.5 158zM357 849
l42 -121h-118l-68 121h144z" />
    <glyph glyph-name="Oacute" unicode="&#xd3;" horiz-adv-x="570" 
d="M341 683q113 0 173 -80t32 -236l-10 -57q-28 -159 -106.5 -237.5t-188.5 -78.5q-114 0 -174.5 80t-32.5 236l10 57q28 158 107 237t190 79zM369 338q18 107 6.5 159t-48.5 52q-36 0 -66.5 -53.5t-48.5 -157.5q-18 -107 -7 -159t48 -52q36 0 66.5 53t49.5 158zM344 849
h144l-111 -121h-118z" />
    <glyph glyph-name="Ocircumflex" unicode="&#xd4;" horiz-adv-x="570" 
d="M341 683q113 0 173 -80t32 -236l-10 -57q-28 -159 -106.5 -237.5t-188.5 -78.5q-114 0 -174.5 80t-32.5 236l10 57q28 158 107 237t190 79zM369 338q18 107 6.5 159t-48.5 52q-36 0 -66.5 -53.5t-48.5 -157.5q-18 -107 -7 -159t48 -52q36 0 66.5 53t49.5 158zM422 849
l86 -120h-124l-30 57l-50 -57h-124l128 120h114z" />
    <glyph glyph-name="Otilde" unicode="&#xd5;" horiz-adv-x="570" 
d="M341 683q113 0 173 -80t32 -236l-10 -57q-28 -159 -106.5 -237.5t-188.5 -78.5q-114 0 -174.5 80t-32.5 236l10 57q28 158 107 237t190 79zM369 338q18 107 6.5 159t-48.5 52q-36 0 -66.5 -53.5t-48.5 -157.5q-18 -107 -7 -159t48 -52q36 0 66.5 53t49.5 158zM414 861h82
q-11 -58 -43.5 -92.5t-78.5 -34.5q-16 0 -33 4.5t-28 9t-21 7t-15.5 -2.5t-7.5 -18h-82q10 57 43 92t79 35q16 0 33 -4.5t27.5 -9t20.5 -7t15.5 2.5t8.5 18z" />
    <glyph glyph-name="Odieresis" unicode="&#xd6;" horiz-adv-x="570" 
d="M341 683q113 0 173 -80t32 -236l-10 -57q-28 -159 -106.5 -237.5t-188.5 -78.5q-114 0 -174.5 80t-32.5 236l10 57q28 158 107 237t190 79zM369 338q18 107 6.5 159t-48.5 52q-36 0 -66.5 -53.5t-48.5 -157.5q-18 -107 -7 -159t48 -52q36 0 66.5 53t49.5 158zM173 729
l24 138h138l-24 -138h-138zM390 867h138l-24 -138h-138z" />
    <glyph glyph-name="multiply" unicode="&#xd7;" horiz-adv-x="400" 
d="M365 316l-86 -95l48 -88l-107 -69l-39 70l-63 -70l-83 69l86 95l-48 88l107 69l39 -70l63 70z" />
    <glyph glyph-name="Oslash" unicode="&#xd8;" horiz-adv-x="580" 
d="M473 645q108 -79 73 -278l-10 -57q-28 -159 -106.5 -237.5t-188.5 -78.5q-43 0 -80 12l-40 -83h-66l53 110q-109 77 -74 277l10 57q28 158 107 237t190 79q42 0 78 -12l40 82h67zM212 338q-13 -65 -11 -115l154 316q-11 10 -28 10q-36 0 -66.5 -53.5t-48.5 -157.5z
M369 338q11 65 11 116l-154 -316q11 -11 27 -11q36 0 66.5 53t49.5 158z" />
    <glyph glyph-name="Ugrave" unicode="&#xd9;" horiz-adv-x="551" 
d="M404 677h172l-77 -439q-43 -244 -263 -244q-107 0 -167 60t-38 184l78 439h172l-67 -380q-15 -93 -7.5 -131.5t39.5 -38.5t53.5 39t37.5 131zM360 849l42 -121h-118l-68 121h144z" />
    <glyph glyph-name="Uacute" unicode="&#xda;" horiz-adv-x="551" 
d="M404 677h172l-77 -439q-43 -244 -263 -244q-107 0 -167 60t-38 184l78 439h172l-67 -380q-15 -93 -7.5 -131.5t39.5 -38.5t53.5 39t37.5 131zM361 849h144l-111 -121h-118z" />
    <glyph glyph-name="Ucircumflex" unicode="&#xdb;" horiz-adv-x="551" 
d="M404 677h172l-77 -439q-43 -244 -263 -244q-107 0 -167 60t-38 184l78 439h172l-67 -380q-15 -93 -7.5 -131.5t39.5 -38.5t53.5 39t37.5 131zM417 849l86 -120h-124l-30 57l-50 -57h-124l128 120h114z" />
    <glyph glyph-name="Udieresis" unicode="&#xdc;" horiz-adv-x="551" 
d="M404 677h172l-77 -439q-43 -244 -263 -244q-107 0 -167 60t-38 184l78 439h172l-67 -380q-15 -93 -7.5 -131.5t39.5 -38.5t53.5 39t37.5 131zM179 729l24 138h138l-24 -138h-138zM396 867h138l-24 -138h-138z" />
    <glyph glyph-name="Yacute" unicode="&#xdd;" horiz-adv-x="523" 
d="M379 677h179l-257 -440l-42 -237h-172l41 232l-103 445h184l44 -237zM298 849h144l-111 -121h-118z" />
    <glyph glyph-name="Thorn" unicode="&#xde;" horiz-adv-x="582" 
d="M383 557q87 0 136.5 -59.5t32.5 -159.5q-18 -101 -80.5 -159.5t-149.5 -58.5h-103l-22 -120h-172l119 677h173l-21 -120h87zM380 338q15 85 -47 85h-61l-30 -169h61q62 0 77 84z" />
    <glyph glyph-name="germandbls" unicode="&#xdf;" horiz-adv-x="580" 
d="M552 495q-8 -43 -34.5 -86.5t-30.5 -67.5t5.5 -48t23.5 -42.5t22 -52.5t1 -76q-10 -58 -59 -93t-113 -35q-38 0 -72.5 10.5t-50.5 21.5l-15 10l68 106q21 -21 49 -21t33 27q4 23 -13 54.5t-33 68t-10 70.5q5 29 31.5 72t33.5 82q4 24 -8.5 42.5t-36.5 18.5
q-56 0 -73 -100l-81 -456h-164l87 495q17 94 81 141t162 47q88 0 150 -52t47 -136z" />
    <glyph glyph-name="agrave" unicode="&#xe0;" horiz-adv-x="571" 
d="M471 169q-4 -23 11.5 -35.5t43.5 -12.5l-22 -127q-35 0 -61.5 8t-39.5 19t-21.5 22.5t-9.5 19.5l-2 8q-1 -3 -4 -8.5t-15.5 -18.5t-28 -23t-44.5 -18.5t-64 -8.5q-74 0 -126.5 49t-39.5 123q27 149 284 149q4 19 -13.5 28.5t-46.5 9.5q-27 0 -54 -6.5t-41 -12.5l-14 -6
l-46 98q8 6 22.5 15t63 24t100.5 15q87 0 147.5 -44t46.5 -124zM307 174l7 36q-95 0 -103 -44q-3 -19 7 -32t32 -13t37.5 15t19.5 38zM341 649l42 -121h-118l-68 121h144z" />
    <glyph glyph-name="aacute" unicode="&#xe1;" horiz-adv-x="571" 
d="M471 169q-4 -23 11.5 -35.5t43.5 -12.5l-22 -127q-35 0 -61.5 8t-39.5 19t-21.5 22.5t-9.5 19.5l-2 8q-1 -3 -4 -8.5t-15.5 -18.5t-28 -23t-44.5 -18.5t-64 -8.5q-74 0 -126.5 49t-39.5 123q27 149 284 149q4 19 -13.5 28.5t-46.5 9.5q-27 0 -54 -6.5t-41 -12.5l-14 -6
l-46 98q8 6 22.5 15t63 24t100.5 15q87 0 147.5 -44t46.5 -124zM307 174l7 36q-95 0 -103 -44q-3 -19 7 -32t32 -13t37.5 15t19.5 38zM316 649h144l-111 -121h-118z" />
    <glyph glyph-name="acircumflex" unicode="&#xe2;" horiz-adv-x="571" 
d="M471 169q-4 -23 11.5 -35.5t43.5 -12.5l-22 -127q-35 0 -61.5 8t-39.5 19t-21.5 22.5t-9.5 19.5l-2 8q-1 -3 -4 -8.5t-15.5 -18.5t-28 -23t-44.5 -18.5t-64 -8.5q-74 0 -126.5 49t-39.5 123q27 149 284 149q4 19 -13.5 28.5t-46.5 9.5q-27 0 -54 -6.5t-41 -12.5l-14 -6
l-46 98q8 6 22.5 15t63 24t100.5 15q87 0 147.5 -44t46.5 -124zM307 174l7 36q-95 0 -103 -44q-3 -19 7 -32t32 -13t37.5 15t19.5 38zM400 649l86 -120h-124l-30 57l-50 -57h-124l128 120h114z" />
    <glyph glyph-name="atilde" unicode="&#xe3;" horiz-adv-x="571" 
d="M471 169q-4 -23 11.5 -35.5t43.5 -12.5l-22 -127q-35 0 -61.5 8t-39.5 19t-21.5 22.5t-9.5 19.5l-2 8q-1 -3 -4 -8.5t-15.5 -18.5t-28 -23t-44.5 -18.5t-64 -8.5q-74 0 -126.5 49t-39.5 123q27 149 284 149q4 19 -13.5 28.5t-46.5 9.5q-27 0 -54 -6.5t-41 -12.5l-14 -6
l-46 98q8 6 22.5 15t63 24t100.5 15q87 0 147.5 -44t46.5 -124zM307 174l7 36q-95 0 -103 -44q-3 -19 7 -32t32 -13t37.5 15t19.5 38zM398 661h82q-11 -58 -43.5 -92.5t-78.5 -34.5q-16 0 -33 4.5t-28 9t-21 7t-15.5 -2.5t-7.5 -18h-82q10 57 43 92t79 35q16 0 33 -4.5
t27.5 -9t20.5 -7t15.5 2.5t8.5 18z" />
    <glyph glyph-name="adieresis" unicode="&#xe4;" horiz-adv-x="571" 
d="M471 169q-4 -23 11.5 -35.5t43.5 -12.5l-22 -127q-35 0 -61.5 8t-39.5 19t-21.5 22.5t-9.5 19.5l-2 8q-1 -3 -4 -8.5t-15.5 -18.5t-28 -23t-44.5 -18.5t-64 -8.5q-74 0 -126.5 49t-39.5 123q27 149 284 149q4 19 -13.5 28.5t-46.5 9.5q-27 0 -54 -6.5t-41 -12.5l-14 -6
l-46 98q8 6 22.5 15t63 24t100.5 15q87 0 147.5 -44t46.5 -124zM307 174l7 36q-95 0 -103 -44q-3 -19 7 -32t32 -13t37.5 15t19.5 38zM159 529l24 138h138l-24 -138h-138zM376 667h138l-24 -138h-138z" />
    <glyph glyph-name="aring" unicode="&#xe5;" horiz-adv-x="571" 
d="M471 169q-4 -23 11.5 -35.5t43.5 -12.5l-22 -127q-35 0 -61.5 8t-39.5 19t-21.5 22.5t-9.5 19.5l-2 8q-1 -3 -4 -8.5t-15.5 -18.5t-28 -23t-44.5 -18.5t-64 -8.5q-74 0 -126.5 49t-39.5 123q27 149 284 149q4 19 -13.5 28.5t-46.5 9.5q-27 0 -54 -6.5t-41 -12.5l-14 -6
l-46 98q8 6 22.5 15t63 24t100.5 15q87 0 147.5 -44t46.5 -124zM307 174l7 36q-95 0 -103 -44q-3 -19 7 -32t32 -13t37.5 15t19.5 38zM349 721q50 0 81.5 -32t22.5 -84q-9 -54 -47 -85t-88 -31t-81 31.5t-22 84.5q10 53 47.5 84.5t86.5 31.5zM363 605q3 17 -3.5 26t-19.5 9
t-22.5 -9t-12.5 -26q-6 -35 23 -35q13 0 22.5 9t12.5 26z" />
    <glyph glyph-name="ae" unicode="&#xe6;" horiz-adv-x="790" 
d="M581 480q84 0 130 -62t30 -156l-14 -80h-253q-5 -28 19 -44.5t53 -16.5q28 0 55.5 9.5t40.5 19.5l14 9l50 -107q-6 -6 -18 -16t-53.5 -26t-88.5 -16q-35 0 -65 8t-49 19t-32.5 22.5t-19.5 19.5l-5 8q-1 -3 -4 -8.5t-15 -18.5t-27.5 -23t-44.5 -18.5t-63 -8.5
q-82 0 -134 48t-39 124q27 149 284 149q4 19 -13.5 28.5t-46.5 9.5q-27 0 -54 -6.5t-41 -12.5l-14 -6l-46 98q8 6 22.5 15t63 24t100.5 15q84 0 141 -39q63 39 137 39zM308 174l6 36q-95 0 -103 -44q-3 -19 7 -32t32 -13t37.5 15t20.5 38zM598 291q10 62 -39 62
q-25 0 -43 -17.5t-23 -44.5h105z" />
    <glyph glyph-name="ccedilla" unicode="&#xe7;" horiz-adv-x="489" 
d="M300 121q16 0 28.5 3.5t17.5 7.5l4 3l48 -102q-4 -4 -13 -10.5t-45 -17.5t-80 -11q-90 0 -159 58t-52 156l10 58q19 109 87 161.5t163 52.5q44 0 77.5 -11t45.5 -23l12 -11l-53 -104q-17 22 -63 22q-38 0 -68.5 -27.5t-41.5 -88.5q-10 -57 16.5 -86.5t65.5 -29.5z
M279 -48q49 0 77 -18.5t21 -57.5q-8 -44 -52 -64.5t-105 -20.5q-27 0 -57 7t-47 14l-16 7l37 57q34 -17 69 -17q44 0 47 19q2 9 -5.5 13.5t-22.5 4.5q-13 0 -25 -3.5t-18 -6.5l-5 -4h-66l63 97h66l-22 -34q24 7 61 7z" />
    <glyph glyph-name="egrave" unicode="&#xe8;" horiz-adv-x="523" 
d="M314 480q84 0 130 -62t30 -156l-14 -80h-253q-5 -28 19 -44.5t53 -16.5q28 0 55.5 9.5t41.5 19.5l13 9l50 -107l-24.5 -16t-62.5 -26t-94 -16q-102 0 -164.5 55t-44.5 155l10 58q18 103 92 160.5t163 57.5zM331 291q10 62 -39 62q-25 0 -43 -17.5t-23 -44.5h105zM318 649
l42 -121h-118l-68 121h144z" />
    <glyph glyph-name="eacute" unicode="&#xe9;" horiz-adv-x="523" 
d="M314 480q84 0 130 -62t30 -156l-14 -80h-253q-5 -28 19 -44.5t53 -16.5q28 0 55.5 9.5t41.5 19.5l13 9l50 -107l-24.5 -16t-62.5 -26t-94 -16q-102 0 -164.5 55t-44.5 155l10 58q18 103 92 160.5t163 57.5zM331 291q10 62 -39 62q-25 0 -43 -17.5t-23 -44.5h105zM311 649
h144l-111 -121h-118z" />
    <glyph glyph-name="ecircumflex" unicode="&#xea;" horiz-adv-x="523" 
d="M314 480q84 0 130 -62t30 -156l-14 -80h-253q-5 -28 19 -44.5t53 -16.5q28 0 55.5 9.5t41.5 19.5l13 9l50 -107l-24.5 -16t-62.5 -26t-94 -16q-102 0 -164.5 55t-44.5 155l10 58q18 103 92 160.5t163 57.5zM331 291q10 62 -39 62q-25 0 -43 -17.5t-23 -44.5h105zM374 649
l86 -120h-124l-30 57l-50 -57h-124l128 120h114z" />
    <glyph glyph-name="edieresis" unicode="&#xeb;" horiz-adv-x="523" 
d="M314 480q84 0 130 -62t30 -156l-14 -80h-253q-5 -28 19 -44.5t53 -16.5q28 0 55.5 9.5t41.5 19.5l13 9l50 -107l-24.5 -16t-62.5 -26t-94 -16q-102 0 -164.5 55t-44.5 155l10 58q18 103 92 160.5t163 57.5zM331 291q10 62 -39 62q-25 0 -43 -17.5t-23 -44.5h105zM130 529
l24 138h138l-24 -138h-138zM347 667h138l-24 -138h-138z" />
    <glyph glyph-name="igrave" unicode="&#xec;" horiz-adv-x="353" 
d="M154 706h182l-29 -163h-182zM232 169q-4 -24 13 -36t42 -12l-23 -127q-89 0 -149.5 48t-46.5 127l32 182h-55l22 123h219zM252 849l42 -121h-118l-68 121h144z" />
    <glyph glyph-name="iacute" unicode="&#xed;" horiz-adv-x="353" 
d="M154 706h182l-29 -163h-182zM232 169q-4 -24 13 -36t42 -12l-23 -127q-89 0 -149.5 48t-46.5 127l32 182h-55l22 123h219zM273 849h144l-111 -121h-118z" />
    <glyph glyph-name="icircumflex" unicode="&#xee;" horiz-adv-x="353" 
d="M154 706h182l-29 -163h-182zM232 169q-4 -24 13 -36t42 -12l-23 -127q-89 0 -149.5 48t-46.5 127l32 182h-55l22 123h219zM317 849l86 -120h-124l-30 57l-50 -57h-124l128 120h114z" />
    <glyph glyph-name="idieresis" unicode="&#xef;" horiz-adv-x="353" 
d="M154 706h182l-29 -163h-182zM232 169q-4 -24 13 -36t42 -12l-23 -127q-89 0 -149.5 48t-46.5 127l32 182h-55l22 123h219zM75 729l24 138h138l-24 -138h-138zM292 867h138l-24 -138h-138z" />
    <glyph glyph-name="eth" unicode="&#xf0;" horiz-adv-x="555" 
d="M457 538q24 -35 36.5 -75t15.5 -106.5t-14 -152.5q-17 -94 -79.5 -152t-157.5 -58q-102 0 -163.5 60t-45.5 150l10 58q18 99 75.5 158.5t140.5 59.5q34 0 60 -14q-10 25 -20 40l-108 -25l-5 79l37 8q-10 5 -25 11t-18 8l62 96q84 -32 139 -79l107 25l5 -79zM337 237
q9 71 -3 94q-10 22 -36 22q-27 0 -48 -31t-31 -85t0 -85t38 -31t49 31t31 85z" />
    <glyph glyph-name="ntilde" unicode="&#xf1;" horiz-adv-x="609" 
d="M510 169q-4 -25 11.5 -36.5t42.5 -11.5l-22 -127q-98 0 -155.5 41t-43.5 117l17 98q18 103 -35 103q-54 0 -72 -103l-44 -250h-164l62 352h-49l22 122h146l23 -51q53 57 134 57q74 0 119 -50.5t30 -136.5zM410 661h82q-11 -58 -43.5 -92.5t-78.5 -34.5q-16 0 -33 4.5
t-28 9t-21 7t-15.5 -2.5t-7.5 -18h-82q10 57 43 92t79 35q16 0 33 -4.5t27.5 -9t20.5 -7t15.5 2.5t8.5 18z" />
    <glyph glyph-name="ograve" unicode="&#xf2;" horiz-adv-x="555" 
d="M321 480q94 0 148 -60t37 -158l-11 -58q-17 -101 -90 -155.5t-170 -54.5q-92 0 -147 61t-39 149l10 58q18 98 93 158t169 60zM337 237q9 49 -1 82.5t-38 33.5q-27 0 -48.5 -33t-30.5 -83t1 -83t38 -33q27 0 48.5 33t30.5 83zM339 649l42 -121h-118l-68 121h144z" />
    <glyph glyph-name="oacute" unicode="&#xf3;" horiz-adv-x="555" 
d="M321 480q94 0 148 -60t37 -158l-11 -58q-17 -101 -90 -155.5t-170 -54.5q-92 0 -147 61t-39 149l10 58q18 98 93 158t169 60zM337 237q9 49 -1 82.5t-38 33.5q-27 0 -48.5 -33t-30.5 -83t1 -83t38 -33q27 0 48.5 33t30.5 83zM311 649h144l-111 -121h-118z" />
    <glyph glyph-name="ocircumflex" unicode="&#xf4;" horiz-adv-x="555" 
d="M321 480q94 0 148 -60t37 -158l-11 -58q-17 -101 -90 -155.5t-170 -54.5q-92 0 -147 61t-39 149l10 58q18 98 93 158t169 60zM337 237q9 49 -1 82.5t-38 33.5q-27 0 -48.5 -33t-30.5 -83t1 -83t38 -33q27 0 48.5 33t30.5 83zM386 649l86 -120h-124l-30 57l-50 -57h-124
l128 120h114z" />
    <glyph glyph-name="otilde" unicode="&#xf5;" horiz-adv-x="555" 
d="M321 480q94 0 148 -60t37 -158l-11 -58q-17 -101 -90 -155.5t-170 -54.5q-92 0 -147 61t-39 149l10 58q18 98 93 158t169 60zM337 237q9 49 -1 82.5t-38 33.5q-27 0 -48.5 -33t-30.5 -83t1 -83t38 -33q27 0 48.5 33t30.5 83zM382 661h82q-11 -58 -43.5 -92.5t-78.5 -34.5
q-16 0 -33 4.5t-28 9t-21 7t-15.5 -2.5t-7.5 -18h-82q10 57 43 92t79 35q16 0 33 -4.5t27.5 -9t20.5 -7t15.5 2.5t8.5 18z" />
    <glyph glyph-name="odieresis" unicode="&#xf6;" horiz-adv-x="555" 
d="M321 480q94 0 148 -60t37 -158l-11 -58q-17 -101 -90 -155.5t-170 -54.5q-92 0 -147 61t-39 149l10 58q18 98 93 158t169 60zM337 237q9 49 -1 82.5t-38 33.5q-27 0 -48.5 -33t-30.5 -83t1 -83t38 -33q27 0 48.5 33t30.5 83zM136 529l24 138h138l-24 -138h-138zM353 667
h138l-24 -138h-138z" />
    <glyph glyph-name="divide" unicode="&#xf7;" horiz-adv-x="464" 
d="M351 484l-26 -147h-147l26 147h147zM113 -34l26 146h146l-26 -146h-146zM57 288h372l-23 -127h-371z" />
    <glyph glyph-name="oslash" unicode="&#xf8;" horiz-adv-x="555" 
d="M419 458q51 -26 75 -76.5t12 -119.5l-11 -58q-17 -101 -90 -155.5t-170 -54.5q-21 0 -40 3l-36 -74h-67l46 94q-51 26 -75.5 76t-13.5 111l10 58q18 98 93 158t169 60q21 0 40 -3l36 73h67zM216 177l85 176h-3q-27 0 -48.5 -33t-30.5 -83q-6 -33 -3 -60zM337 237
q6 32 3 59l-85 -175h3q27 0 48.5 33t30.5 83z" />
    <glyph glyph-name="ugrave" unicode="&#xf9;" horiz-adv-x="601" 
d="M497 169q-4 -25 13.5 -36.5t45.5 -11.5l-22 -127q-31 0 -57.5 5.5t-41.5 13t-26 15.5t-15 14l-4 5q-1 -2 -4.5 -5.5t-15 -13t-26.5 -16.5t-40.5 -12.5t-54.5 -5.5q-91 0 -145 51t-39 136l29 166h-49l22 127h214l-44 -250q-18 -103 36 -103q51 0 69 103l44 250h165z
M354 649l42 -121h-118l-68 121h144z" />
    <glyph glyph-name="uacute" unicode="&#xfa;" horiz-adv-x="601" 
d="M497 169q-4 -25 13.5 -36.5t45.5 -11.5l-22 -127q-31 0 -57.5 5.5t-41.5 13t-26 15.5t-15 14l-4 5q-1 -2 -4.5 -5.5t-15 -13t-26.5 -16.5t-40.5 -12.5t-54.5 -5.5q-91 0 -145 51t-39 136l29 166h-49l22 127h214l-44 -250q-18 -103 36 -103q51 0 69 103l44 250h165z
M341 649h144l-111 -121h-118z" />
    <glyph glyph-name="ucircumflex" unicode="&#xfb;" horiz-adv-x="601" 
d="M497 169q-4 -25 13.5 -36.5t45.5 -11.5l-22 -127q-31 0 -57.5 5.5t-41.5 13t-26 15.5t-15 14l-4 5q-1 -2 -4.5 -5.5t-15 -13t-26.5 -16.5t-40.5 -12.5t-54.5 -5.5q-91 0 -145 51t-39 136l29 166h-49l22 127h214l-44 -250q-18 -103 36 -103q51 0 69 103l44 250h165z
M417 649l86 -120h-124l-30 57l-50 -57h-124l128 120h114z" />
    <glyph glyph-name="udieresis" unicode="&#xfc;" horiz-adv-x="601" 
d="M497 169q-4 -25 13.5 -36.5t45.5 -11.5l-22 -127q-31 0 -57.5 5.5t-41.5 13t-26 15.5t-15 14l-4 5q-1 -2 -4.5 -5.5t-15 -13t-26.5 -16.5t-40.5 -12.5t-54.5 -5.5q-91 0 -145 51t-39 136l29 166h-49l22 127h214l-44 -250q-18 -103 36 -103q51 0 69 103l44 250h165z
M166 529l24 138h138l-24 -138h-138zM383 667h138l-24 -138h-138z" />
    <glyph glyph-name="yacute" unicode="&#xfd;" horiz-adv-x="586" 
d="M366 510q92 0 139.5 -54t31.5 -144l-60 -340q-16 -92 -77 -136.5t-142 -44.5q-85 0 -147 53t-47 142h147q-6 -32 7.5 -50t38.5 -18q46 0 55 54l13 70q-29 -22 -88 -22q-81 0 -129 49t-32 139l24 139h-55l22 127h219l-40 -224q-18 -102 40 -102t76 102l15 85
q4 23 -5.5 35.5t-27.5 12.5zM305 649h144l-111 -121h-118z" />
    <glyph glyph-name="thorn" unicode="&#xfe;" horiz-adv-x="613" 
d="M435 480q69 0 107 -56t20 -158l-10 -58q-19 -103 -70 -158.5t-113 -55.5q-34 0 -63 12.5t-41 25.5l-12 12l-44 -247h-164l155 880l172 42l-51 -289q4 6 12.5 14t38.5 22t63 14zM392 237q20 109 -36 109q-57 0 -75 -109q-20 -110 36 -110q57 0 75 110z" />
    <glyph glyph-name="ydieresis" unicode="&#xff;" horiz-adv-x="586" 
d="M366 510q92 0 139.5 -54t31.5 -144l-60 -340q-16 -92 -77 -136.5t-142 -44.5q-85 0 -147 53t-47 142h147q-6 -32 7.5 -50t38.5 -18q46 0 55 54l13 70q-29 -22 -88 -22q-81 0 -129 49t-32 139l24 139h-55l22 127h219l-40 -224q-18 -102 40 -102t76 102l15 85
q4 23 -5.5 35.5t-27.5 12.5zM135 529l24 138h138l-24 -138h-138zM352 667h138l-24 -138h-138z" />
    <glyph glyph-name="Amacron" unicode="&#x100;" horiz-adv-x="579" 
d="M512 677l32 -677h-176l-3 101h-135l-38 -101h-167l271 677h216zM281 234h80l-6 194zM309 833h230l-18 -103h-230z" />
    <glyph glyph-name="amacron" unicode="&#x101;" horiz-adv-x="571" 
d="M471 169q-4 -23 11.5 -35.5t43.5 -12.5l-22 -127q-35 0 -61.5 8t-39.5 19t-21.5 22.5t-9.5 19.5l-2 8q-1 -3 -4 -8.5t-15.5 -18.5t-28 -23t-44.5 -18.5t-64 -8.5q-74 0 -126.5 49t-39.5 123q27 149 284 149q4 19 -13.5 28.5t-46.5 9.5q-27 0 -54 -6.5t-41 -12.5l-14 -6
l-46 98q8 6 22.5 15t63 24t100.5 15q87 0 147.5 -44t46.5 -124zM307 174l7 36q-95 0 -103 -44q-3 -19 7 -32t32 -13t37.5 15t19.5 38zM220 633h230l-18 -103h-230z" />
    <glyph glyph-name="Abreve" unicode="&#x102;" horiz-adv-x="579" 
d="M512 677l32 -677h-176l-3 101h-135l-38 -101h-167l271 677h216zM281 234h80l-6 194zM483 864h82q-11 -64 -50.5 -102.5t-107.5 -38.5q-69 0 -101.5 39.5t-21.5 101.5h82q-2 -15 11.5 -26.5t40.5 -11.5t45 11.5t20 26.5z" />
    <glyph glyph-name="abreve" unicode="&#x103;" horiz-adv-x="571" 
d="M471 169q-4 -23 11.5 -35.5t43.5 -12.5l-22 -127q-35 0 -61.5 8t-39.5 19t-21.5 22.5t-9.5 19.5l-2 8q-1 -3 -4 -8.5t-15.5 -18.5t-28 -23t-44.5 -18.5t-64 -8.5q-74 0 -126.5 49t-39.5 123q27 149 284 149q4 19 -13.5 28.5t-46.5 9.5q-27 0 -54 -6.5t-41 -12.5l-14 -6
l-46 98q8 6 22.5 15t63 24t100.5 15q87 0 147.5 -44t46.5 -124zM307 174l7 36q-95 0 -103 -44q-3 -19 7 -32t32 -13t37.5 15t19.5 38zM399 664h82q-11 -64 -50.5 -102.5t-107.5 -38.5q-69 0 -101.5 39.5t-21.5 101.5h82q-2 -15 11.5 -26.5t40.5 -11.5t45 11.5t20 26.5z" />
    <glyph glyph-name="Aogonek" unicode="&#x104;" horiz-adv-x="579" 
d="M512 677l32 -677h-176l-3 101h-135l-38 -101h-167l271 677h216zM281 234h80l-6 194zM380 -141q9 0 17.5 4.5t12.5 8.5l5 4l16 -57q-26 -28 -88 -28q-45 0 -78.5 21t-26.5 62q5 30 37.5 56.5t62.5 37.5l30 11h69l-18 -15.5t-31.5 -36t-24.5 -49.5q-3 -19 17 -19z" />
    <glyph glyph-name="aogonek" unicode="&#x105;" horiz-adv-x="571" 
d="M471 169q-4 -23 11.5 -35.5t43.5 -12.5l-22 -127q-35 0 -61.5 8t-39.5 19t-21.5 22.5t-9.5 19.5l-2 8q-1 -3 -4 -8.5t-15.5 -18.5t-28 -23t-44.5 -18.5t-64 -8.5q-74 0 -126.5 49t-39.5 123q27 149 284 149q4 19 -13.5 28.5t-46.5 9.5q-27 0 -54 -6.5t-41 -12.5l-14 -6
l-46 98q8 6 22.5 15t63 24t100.5 15q87 0 147.5 -44t46.5 -124zM307 174l7 36q-95 0 -103 -44q-3 -19 7 -32t32 -13t37.5 15t19.5 38zM442 -141q9 0 17.5 4.5t12.5 8.5l5 4l16 -57q-26 -28 -88 -28q-45 0 -78.5 21t-26.5 62q5 30 37.5 56.5t62.5 37.5l30 11h69l-18 -15.5
t-31.5 -36t-24.5 -49.5q-3 -19 17 -19z" />
    <glyph glyph-name="Cacute" unicode="&#x106;" horiz-adv-x="502" 
d="M380 683q32 0 59.5 -6.5t44.5 -15.5t30 -18t18 -15l5 -7l-67 -104q-2 4 -7.5 9t-25.5 14t-46 9q-61 0 -106.5 -53.5t-63.5 -157.5q-19 -105 8.5 -158t95.5 -53q25 0 46.5 7t30.5 14l8 7l31 -104q-2 -2 -5.5 -6t-17 -14t-30 -17.5t-44 -13.5t-58.5 -6q-43 0 -82 10t-75 33
t-58 60t-31.5 90t3.5 123l10 57q30 167 117 241.5t210 74.5zM355 849h144l-111 -121h-118z" />
    <glyph glyph-name="cacute" unicode="&#x107;" horiz-adv-x="489" 
d="M300 121q16 0 28.5 3.5t17.5 7.5l4 3l48 -102q-4 -4 -13 -10.5t-45 -17.5t-80 -11q-90 0 -159 58t-52 156l10 58q19 109 87 161.5t163 52.5q44 0 77.5 -11t45.5 -23l12 -11l-53 -104q-17 22 -63 22q-38 0 -68.5 -27.5t-41.5 -88.5q-10 -57 16.5 -86.5t65.5 -29.5z
M295 649h144l-111 -121h-118z" />
    <glyph glyph-name="Ccaron" unicode="&#x10c;" horiz-adv-x="502" 
d="M380 683q32 0 59.5 -6.5t44.5 -15.5t30 -18t18 -15l5 -7l-67 -104q-2 4 -7.5 9t-25.5 14t-46 9q-61 0 -106.5 -53.5t-63.5 -157.5q-19 -105 8.5 -158t95.5 -53q25 0 46.5 7t30.5 14l8 7l31 -104q-2 -2 -5.5 -6t-17 -14t-30 -17.5t-44 -13.5t-58.5 -6q-43 0 -82 10t-75 33
t-58 60t-31.5 90t3.5 123l10 57q30 167 117 241.5t210 74.5zM427 847h124l-128 -120h-114l-86 120h124l30 -56z" />
    <glyph glyph-name="ccaron" unicode="&#x10d;" horiz-adv-x="489" 
d="M300 121q16 0 28.5 3.5t17.5 7.5l4 3l48 -102q-4 -4 -13 -10.5t-45 -17.5t-80 -11q-90 0 -159 58t-52 156l10 58q19 109 87 161.5t163 52.5q44 0 77.5 -11t45.5 -23l12 -11l-53 -104q-17 22 -63 22q-38 0 -68.5 -27.5t-41.5 -88.5q-10 -57 16.5 -86.5t65.5 -29.5z
M359 647h124l-128 -120h-114l-86 120h124l30 -56z" />
    <glyph glyph-name="Dcaron" unicode="&#x10e;" horiz-adv-x="597" 
d="M409 677q78 0 129.5 -77.5t24.5 -232.5l-10 -57q-28 -160 -95 -235t-150 -75h-283l119 677h265zM386 338q36 205 -53 205h-40l-72 -409h39q90 0 126 204zM424 847h124l-128 -120h-114l-86 120h124l30 -56z" />
    <glyph glyph-name="dcaron" unicode="&#x10f;" horiz-adv-x="722" 
d="M483 169q-4 -23 10 -35.5t45 -12.5l-22 -127q-35 0 -62.5 8t-41.5 19t-23 22.5t-11 19.5l-3 8q-2 -3 -5 -8.5t-16.5 -18.5t-30 -23t-45.5 -18.5t-62 -8.5q-34 0 -66.5 12.5t-59 37t-38.5 67t-2 97.5l10 58q20 112 73.5 163t122.5 51q31 0 58.5 -9t39.5 -19l13 -9l26 147
h-70l22 123h234zM337 254q9 48 -1 73.5t-36 25.5t-46 -26t-28 -73l-6 -34q-9 -47 2 -73t38 -26q54 0 71 99zM619 677h153l-30 -173l-91 -136h-86l108 136h-84z" />
    <glyph glyph-name="Dcroat" unicode="&#x110;" horiz-adv-x="597" 
d="M409 677q78 0 129.5 -77.5t24.5 -232.5l-10 -57q-28 -160 -95 -235t-150 -75h-283l49 278h-46l24 133h45l47 266h265zM386 338q36 205 -53 205h-40l-23 -132h64l-23 -133h-65l-25 -144h39q90 0 126 204z" />
    <glyph glyph-name="dcroat" unicode="&#x111;" horiz-adv-x="654" 
d="M560 604h49l-19 -109h-49l-58 -326q-4 -23 10 -35.5t45 -12.5l-22 -127q-35 0 -62.5 8t-41.5 19t-23 22.5t-11 19.5l-3 8q-2 -3 -5 -8.5t-16.5 -18.5t-30 -23t-45.5 -18.5t-62 -8.5q-34 0 -66.5 12.5t-59 37t-38.5 67t-2 97.5l10 58q20 112 73.5 163t122.5 51
q31 0 58.5 -9t39.5 -19l13 -9l10 52h-71l19 109h71l12 67l171 42zM337 254q9 48 -1 73.5t-36 25.5t-46 -26t-28 -73l-6 -34q-9 -47 2 -73t38 -26q54 0 71 99z" />
    <glyph glyph-name="Emacron" unicode="&#x112;" horiz-adv-x="434" 
d="M445 543h-152l-20 -114h115l-24 -134h-115l-28 -161h152l-24 -134h-324l119 677h325zM211 833h230l-18 -103h-230z" />
    <glyph glyph-name="emacron" unicode="&#x113;" horiz-adv-x="523" 
d="M314 480q84 0 130 -62t30 -156l-14 -80h-253q-5 -28 19 -44.5t53 -16.5q28 0 55.5 9.5t41.5 19.5l13 9l50 -107l-24.5 -16t-62.5 -26t-94 -16q-102 0 -164.5 55t-44.5 155l10 58q18 103 92 160.5t163 57.5zM331 291q10 62 -39 62q-25 0 -43 -17.5t-23 -44.5h105zM204 633
h230l-18 -103h-230z" />
    <glyph glyph-name="Edotaccent" unicode="&#x116;" horiz-adv-x="434" 
d="M445 543h-152l-20 -114h115l-24 -134h-115l-28 -161h152l-24 -134h-324l119 677h325zM257 873h163l-26 -147h-163z" />
    <glyph glyph-name="edotaccent" unicode="&#x117;" horiz-adv-x="523" 
d="M314 480q84 0 130 -62t30 -156l-14 -80h-253q-5 -28 19 -44.5t53 -16.5q28 0 55.5 9.5t41.5 19.5l13 9l50 -107l-24.5 -16t-62.5 -26t-94 -16q-102 0 -164.5 55t-44.5 155l10 58q18 103 92 160.5t163 57.5zM331 291q10 62 -39 62q-25 0 -43 -17.5t-23 -44.5h105zM245 673
h163l-26 -147h-163z" />
    <glyph glyph-name="Eogonek" unicode="&#x118;" horiz-adv-x="434" 
d="M445 543h-152l-20 -114h115l-24 -134h-115l-28 -161h152l-24 -134h-324l119 677h325zM288 -141q9 0 17.5 4.5t12.5 8.5l5 4l16 -57q-26 -28 -88 -28q-45 0 -78.5 21t-26.5 62q5 30 37.5 56.5t62.5 37.5l30 11h69l-18 -15.5t-31.5 -36t-24.5 -49.5q-3 -19 17 -19z" />
    <glyph glyph-name="eogonek" unicode="&#x119;" horiz-adv-x="523" 
d="M314 480q84 0 130 -62t30 -156l-14 -80h-253q-5 -28 19 -44.5t53 -16.5q28 0 55.5 9.5t41.5 19.5l13 9l50 -107l-24.5 -16t-62.5 -26t-94 -16q-102 0 -164.5 55t-44.5 155l10 58q18 103 92 160.5t163 57.5zM331 291q10 62 -39 62q-25 0 -43 -17.5t-23 -44.5h105z
M236 -141q9 0 17.5 4.5t12.5 8.5l5 4l16 -57q-26 -28 -88 -28q-45 0 -78.5 21t-26.5 62q5 30 37.5 56.5t62.5 37.5l30 11h69l-18 -15.5t-31.5 -36t-24.5 -49.5q-3 -19 17 -19z" />
    <glyph glyph-name="Ecaron" unicode="&#x11a;" horiz-adv-x="434" 
d="M445 543h-152l-20 -114h115l-24 -134h-115l-28 -161h152l-24 -134h-324l119 677h325zM372 847h124l-128 -120h-114l-86 120h124l30 -56z" />
    <glyph glyph-name="ecaron" unicode="&#x11b;" horiz-adv-x="523" 
d="M314 480q84 0 130 -62t30 -156l-14 -80h-253q-5 -28 19 -44.5t53 -16.5q28 0 55.5 9.5t41.5 19.5l13 9l50 -107l-24.5 -16t-62.5 -26t-94 -16q-102 0 -164.5 55t-44.5 155l10 58q18 103 92 160.5t163 57.5zM331 291q10 62 -39 62q-25 0 -43 -17.5t-23 -44.5h105zM365 647
h124l-128 -120h-114l-86 120h124l30 -56z" />
    <glyph glyph-name="Gbreve" unicode="&#x11e;" horiz-adv-x="571" 
d="M276 276l24 134h233l-51 -288l-8.5 -13.5t-25.5 -31t-44.5 -39t-66 -30.5t-88.5 -14q-49 0 -92 18.5t-77.5 57t-47 98.5t0.5 142l10 57q27 151 114 233.5t213 82.5q52 0 96 -14t62 -28l18 -14l-67 -104q-34 26 -99 26q-60 0 -105.5 -53t-64.5 -158q-37 -211 55 -211
q16 0 29 9.5t18 19.5l5 9l20 111h-61zM448 864h82q-11 -64 -50.5 -102.5t-107.5 -38.5q-69 0 -101.5 39.5t-21.5 101.5h82q-2 -15 11.5 -26.5t40.5 -11.5t45 11.5t20 26.5z" />
    <glyph glyph-name="gbreve" unicode="&#x11f;" horiz-adv-x="625" 
d="M405 474h175l-22 -127h-33l-66 -375q-17 -94 -79 -137.5t-152 -43.5q-79 0 -137 48t-43 131h140q-4 -24 10 -38t37 -14q50 0 59 54l11 59q-31 -37 -86 -37q-75 0 -122.5 55t-29.5 155l10 58q19 105 69.5 161.5t123.5 56.5q33 0 59 -12.5t35 -25.5l10 -12zM352 254
q18 99 -36 99q-26 0 -46 -24.5t-29 -74.5l-6 -34q-18 -99 41 -99q53 0 70 99zM431 664h82q-11 -64 -50.5 -102.5t-107.5 -38.5q-69 0 -101.5 39.5t-21.5 101.5h82q-2 -15 11.5 -26.5t40.5 -11.5t45 11.5t20 26.5z" />
    <glyph glyph-name="uni0122" unicode="&#x122;" horiz-adv-x="571" 
d="M276 276l24 134h233l-51 -288l-8.5 -13.5t-25.5 -31t-44.5 -39t-66 -30.5t-88.5 -14q-49 0 -92 18.5t-77.5 57t-47 98.5t0.5 142l10 57q27 151 114 233.5t213 82.5q52 0 96 -14t62 -28l18 -14l-67 -104q-34 26 -99 26q-60 0 -105.5 -53t-64.5 -158q-37 -211 55 -211
q16 0 29 9.5t18 19.5l5 9l20 111h-61zM273 -48q49 0 77 -18.5t21 -57.5q-8 -44 -52 -64.5t-105 -20.5q-27 0 -57 7t-47 14l-16 7l37 57q34 -17 69 -17q44 0 47 19q2 9 -5.5 13.5t-22.5 4.5q-13 0 -25 -3.5t-18 -6.5l-5 -4h-66l63 97h66l-22 -34q24 7 61 7z" />
    <glyph glyph-name="uni0123" unicode="&#x123;" horiz-adv-x="625" 
d="M405 474h175l-22 -127h-33l-66 -375q-17 -94 -79 -137.5t-152 -43.5q-79 0 -137 48t-43 131h140q-4 -24 10 -38t37 -14q50 0 59 54l11 59q-31 -37 -86 -37q-75 0 -122.5 55t-29.5 155l10 58q19 105 69.5 161.5t123.5 56.5q33 0 59 -12.5t35 -25.5l10 -12zM352 254
q18 99 -36 99q-26 0 -46 -24.5t-29 -74.5l-6 -34q-18 -99 41 -99q53 0 70 99zM461 808l-108 -136h84l-30 -173h-153l30 173l91 136h86z" />
    <glyph glyph-name="Imacron" unicode="&#x12a;" horiz-adv-x="282" 
d="M144 677h173l-120 -677h-172zM138 833h230l-18 -103h-230z" />
    <glyph glyph-name="imacron" unicode="&#x12b;" horiz-adv-x="353" 
d="M232 169q-4 -24 13 -36t42 -12l-23 -127q-89 0 -149.5 48t-46.5 127l32 182h-55l22 123h219zM85 633h230l-18 -103h-230z" />
    <glyph glyph-name="Iogonek" unicode="&#x12e;" horiz-adv-x="282" 
d="M144 677h173l-120 -677h-172zM137 -141q9 0 17.5 4.5t13.5 8.5l4 4l16 -57q-26 -28 -88 -28q-45 0 -78.5 21t-26.5 62q5 30 37.5 56.5t62.5 37.5l30 11h69l-18 -15.5t-31.5 -36t-24.5 -49.5q-3 -19 17 -19z" />
    <glyph glyph-name="iogonek" unicode="&#x12f;" horiz-adv-x="353" 
d="M154 706h182l-29 -163h-182zM232 169q-4 -24 13 -36t42 -12l-23 -127q-89 0 -149.5 48t-46.5 127l32 182h-55l22 123h219zM200 -141q9 0 17.5 4.5t12.5 8.5l5 4l16 -57q-26 -28 -88 -28q-45 0 -78.5 21t-26.5 62q5 30 37.5 56.5t62.5 37.5l30 11h69l-18 -15.5t-31.5 -36
t-24.5 -49.5q-3 -19 17 -19z" />
    <glyph glyph-name="Idotaccent" unicode="&#x130;" horiz-adv-x="282" 
d="M144 677h173l-120 -677h-172zM180 873h163l-26 -147h-163z" />
    <glyph glyph-name="dotlessi" unicode="&#x131;" horiz-adv-x="353" 
d="M232 169q-4 -24 13 -36t42 -12l-23 -127q-89 0 -149.5 48t-46.5 127l32 182h-55l22 123h219z" />
    <glyph glyph-name="uni0136" unicode="&#x136;" horiz-adv-x="617" 
d="M632 677l-172 -233l59 -444h-181l-31 235l-90 -122l-20 -113h-172l119 677h173l-42 -235l178 235h179zM445 -48q49 0 77 -18.5t21 -57.5q-8 -44 -52 -64.5t-105 -20.5q-27 0 -57 7t-47 14l-16 7l37 57q34 -17 69 -17q44 0 47 19q2 9 -5.5 13.5t-22.5 4.5q-13 0 -25 -3.5
t-18 -6.5l-5 -4h-66l63 97h66l-22 -34q24 7 61 7z" />
    <glyph glyph-name="uni0137" unicode="&#x137;" horiz-adv-x="605" 
d="M457 175q10 -54 78 -54l-22 -127q-176 0 -201 147l-1 1l-79 -12l-23 -130h-164l104 590h-61l21 123h226l-53 -301q3 3 8 7t21 14.5t34 19t45 15t54 6.5q52 0 84 -33.5t32 -84.5q0 -104 -106 -163zM383 310q3 15 -5 26t-23 11q-29 0 -55 -27t-38 -54l-11 -27h13t29 3.5
t38 10t32.5 21.5t19.5 36zM243 -48q49 0 77 -18.5t21 -57.5q-8 -44 -52 -64.5t-105 -20.5q-27 0 -57 7t-47 14l-16 7l37 57q34 -17 69 -17q44 0 47 19q2 9 -5.5 13.5t-22.5 4.5q-13 0 -25 -3.5t-18 -6.5l-5 -4h-66l63 97h66l-22 -34q24 7 61 7z" />
    <glyph glyph-name="Lacute" unicode="&#x139;" horiz-adv-x="416" 
d="M221 134h150l-24 -134h-322l119 677h173zM256 849h144l-111 -121h-118z" />
    <glyph glyph-name="lacute" unicode="&#x13a;" horiz-adv-x="347" 
d="M213 169q-4 -23 13 -35.5t41 -12.5l-22 -127q-57 0 -104.5 20t-74.5 60.5t-18 94.5l75 421h-62l22 123h225zM211 849h144l-111 -121h-118z" />
    <glyph glyph-name="uni013B" unicode="&#x13b;" horiz-adv-x="416" 
d="M221 134h150l-24 -134h-322l119 677h173zM214 -48q49 0 77 -18.5t21 -57.5q-8 -44 -52 -64.5t-105 -20.5q-27 0 -57 7t-46 14l-17 7l37 57q34 -17 69 -17q44 0 47 19q2 9 -5.5 13.5t-22.5 4.5q-13 0 -25 -3.5t-17 -6.5l-6 -4h-66l63 97h66l-22 -34q24 7 61 7z" />
    <glyph glyph-name="uni013C" unicode="&#x13c;" horiz-adv-x="347" 
d="M213 169q-4 -23 13 -35.5t41 -12.5l-22 -127q-57 0 -104.5 20t-74.5 60.5t-18 94.5l75 421h-62l22 123h225zM209 -48q49 0 77 -18.5t21 -57.5q-8 -44 -52 -64.5t-105 -20.5q-27 0 -57 7t-47 14l-16 7l37 57q34 -17 69 -17q44 0 47 19q2 9 -5.5 13.5t-22.5 4.5
q-13 0 -25 -3.5t-18 -6.5l-5 -4h-66l63 97h66l-22 -34q24 7 61 7z" />
    <glyph glyph-name="Lcaron" unicode="&#x13d;" horiz-adv-x="535" 
d="M221 134h150l-24 -134h-322l119 677h173zM367 677h153l-30 -173l-91 -136h-86l108 136h-84z" />
    <glyph glyph-name="lcaron" unicode="&#x13e;" horiz-adv-x="347" 
d="M213 169q-4 -23 13 -35.5t41 -12.5l-22 -127q-57 0 -104.5 20t-74.5 60.5t-18 94.5l75 421h-62l22 123h225zM348 677h153l-30 -173l-91 -136h-86l108 136h-84z" />
    <glyph glyph-name="Lslash" unicode="&#x141;" horiz-adv-x="416" 
d="M196 134h150l-24 -134h-322l45 257l-61 -12l-2 131l87 17l50 284h173l-44 -251l89 17l2 -131l-115 -22z" />
    <glyph glyph-name="lslash" unicode="&#x142;" horiz-adv-x="393" 
d="M220 169q-4 -23 13 -35.5t41 -12.5l-22 -127q-57 0 -104.5 20t-74.5 60.5t-18 94.5l16 90l-76 -14l-2 131l102 20l35 194h-62l22 123h225l-50 -286l80 15l3 -131l-107 -20z" />
    <glyph glyph-name="Nacute" unicode="&#x143;" horiz-adv-x="625" 
d="M457 677h168l-120 -683h-168l-94 294l-50 -288h-168l119 677h168l94 -294zM397 849h144l-111 -121h-118z" />
    <glyph glyph-name="nacute" unicode="&#x144;" horiz-adv-x="609" 
d="M510 169q-4 -25 11.5 -36.5t42.5 -11.5l-22 -127q-98 0 -155.5 41t-43.5 117l17 98q18 103 -35 103q-54 0 -72 -103l-44 -250h-164l62 352h-49l22 122h146l23 -51q53 57 134 57q74 0 119 -50.5t30 -136.5zM321 649h144l-111 -121h-118z" />
    <glyph glyph-name="uni0145" unicode="&#x145;" horiz-adv-x="625" 
d="M457 677h168l-120 -683h-168l-94 294l-50 -288h-168l119 677h168l94 -294zM443 -48q49 0 77 -18.5t21 -57.5q-8 -44 -52 -64.5t-105 -20.5q-27 0 -57 7t-47 14l-16 7l37 57q34 -17 69 -17q44 0 47 19q2 9 -5.5 13.5t-22.5 4.5q-13 0 -25 -3.5t-18 -6.5l-5 -4h-66l63 97
h66l-22 -34q24 7 61 7z" />
    <glyph glyph-name="uni0146" unicode="&#x146;" horiz-adv-x="609" 
d="M510 169q-4 -25 11.5 -36.5t42.5 -11.5l-22 -127q-98 0 -155.5 41t-43.5 117l17 98q18 103 -35 103q-54 0 -72 -103l-44 -250h-164l62 352h-49l22 122h146l23 -51q53 57 134 57q74 0 119 -50.5t30 -136.5zM243 -48q49 0 77 -18.5t21 -57.5q-8 -44 -52 -64.5t-105 -20.5
q-27 0 -57 7t-47 14l-16 7l37 57q34 -17 69 -17q44 0 47 19q2 9 -5.5 13.5t-22.5 4.5q-13 0 -25 -3.5t-18 -6.5l-5 -4h-66l63 97h66l-22 -34q24 7 61 7z" />
    <glyph glyph-name="Ncaron" unicode="&#x147;" horiz-adv-x="625" 
d="M457 677h168l-120 -683h-168l-94 294l-50 -288h-168l119 677h168l94 -294zM456 847h124l-128 -120h-114l-86 120h124l30 -56z" />
    <glyph glyph-name="ncaron" unicode="&#x148;" horiz-adv-x="609" 
d="M510 169q-4 -25 11.5 -36.5t42.5 -11.5l-22 -127q-98 0 -155.5 41t-43.5 117l17 98q18 103 -35 103q-54 0 -72 -103l-44 -250h-164l62 352h-49l22 122h146l23 -51q53 57 134 57q74 0 119 -50.5t30 -136.5zM393 647h124l-128 -120h-114l-86 120h124l30 -56z" />
    <glyph glyph-name="Omacron" unicode="&#x14c;" horiz-adv-x="570" 
d="M341 683q113 0 173 -80t32 -236l-10 -57q-28 -159 -106.5 -237.5t-188.5 -78.5q-114 0 -174.5 80t-32.5 236l10 57q28 158 107 237t190 79zM369 338q18 107 6.5 159t-48.5 52q-36 0 -66.5 -53.5t-48.5 -157.5q-18 -107 -7 -159t48 -52q36 0 66.5 53t49.5 158zM260 833
h230l-18 -103h-230z" />
    <glyph glyph-name="omacron" unicode="&#x14d;" horiz-adv-x="555" 
d="M321 480q94 0 148 -60t37 -158l-11 -58q-17 -101 -90 -155.5t-170 -54.5q-92 0 -147 61t-39 149l10 58q18 98 93 158t169 60zM337 237q9 49 -1 82.5t-38 33.5q-27 0 -48.5 -33t-30.5 -83t1 -83t38 -33q27 0 48.5 33t30.5 83zM229 633h230l-18 -103h-230z" />
    <glyph glyph-name="Ohungarumlaut" unicode="&#x150;" horiz-adv-x="570" 
d="M341 683q113 0 173 -80t32 -236l-10 -57q-28 -159 -106.5 -237.5t-188.5 -78.5q-114 0 -174.5 80t-32.5 236l10 57q28 158 107 237t190 79zM369 338q18 107 6.5 159t-48.5 52q-36 0 -66.5 -53.5t-48.5 -157.5q-18 -107 -7 -159t48 -52q36 0 66.5 53t49.5 158zM249 849
h143l-85 -121h-118zM427 849h143l-106 -121h-118z" />
    <glyph glyph-name="ohungarumlaut" unicode="&#x151;" horiz-adv-x="555" 
d="M321 480q94 0 148 -60t37 -158l-11 -58q-17 -101 -90 -155.5t-170 -54.5q-92 0 -147 61t-39 149l10 58q18 98 93 158t169 60zM337 237q9 49 -1 82.5t-38 33.5q-27 0 -48.5 -33t-30.5 -83t1 -83t38 -33q27 0 48.5 33t30.5 83zM220 649h143l-85 -121h-118zM398 649h143
l-106 -121h-118z" />
    <glyph glyph-name="OE" unicode="&#x152;" horiz-adv-x="756" 
d="M728 543h-152l-21 -114h115l-23 -134h-115l-29 -161h152l-23 -134h-325l2 7q-32 -13 -71 -13q-107 0 -169.5 81t-35.5 235l10 57q27 158 106 237t187 79q52 0 88 -24l3 18h324zM367 338q18 107 6.5 159t-47.5 52q-37 0 -67.5 -53.5t-48.5 -157.5q-18 -107 -6.5 -159
t47.5 -52q37 0 67.5 53t48.5 158z" />
    <glyph glyph-name="oe" unicode="&#x153;" horiz-adv-x="806" 
d="M597 480q84 0 130 -62t30 -156l-14 -80h-253q-5 -28 19 -44.5t53 -16.5q28 0 55.5 9.5t40.5 19.5l14 9l50 -107l-24.5 -16t-63 -26t-93.5 -16q-95 0 -152 44q-68 -44 -154 -44q-92 0 -147 61t-39 149l10 58q18 98 93 158t169 60q79 0 132 -44q65 44 144 44zM337 237
q9 49 -1 82.5t-38 33.5q-27 0 -48.5 -33t-30.5 -83t1 -83t38 -33q27 0 48.5 33t30.5 83zM614 291q10 62 -39 62q-25 0 -43 -17.5t-23 -44.5h105z" />
    <glyph glyph-name="Racute" unicode="&#x154;" horiz-adv-x="574" 
d="M404 677q85 0 133.5 -57t31.5 -156q-24 -133 -118 -187l37 -277h-168l-33 251h-45l-45 -251h-172l119 677h260zM396 464q15 79 -47 79h-56l-28 -159h56q62 0 75 80zM352 849h144l-111 -121h-118z" />
    <glyph glyph-name="racute" unicode="&#x155;" horiz-adv-x="468" 
d="M346 480q22 0 41.5 -5t27.5 -11l8 -5l-60 -126q-15 20 -40 20q-52 0 -74 -130l-40 -223h-164l62 352h-49l22 122h146l14 -31q46 37 106 37zM255 649h144l-111 -121h-118z" />
    <glyph glyph-name="uni0156" unicode="&#x156;" horiz-adv-x="574" 
d="M404 677q85 0 133.5 -57t31.5 -156q-24 -133 -118 -187l37 -277h-168l-33 251h-45l-45 -251h-172l119 677h260zM396 464q15 79 -47 79h-56l-28 -159h56q62 0 75 80zM426 -48q49 0 77 -18.5t21 -57.5q-8 -44 -52 -64.5t-105 -20.5q-27 0 -57 7t-46 14l-17 7l37 57
q34 -17 69 -17q44 0 47 19q2 9 -5.5 13.5t-22.5 4.5q-13 0 -25 -3.5t-17 -6.5l-6 -4h-66l63 97h66l-22 -34q24 7 61 7z" />
    <glyph glyph-name="uni0157" unicode="&#x157;" horiz-adv-x="468" 
d="M346 480q22 0 41.5 -5t27.5 -11l8 -5l-60 -126q-15 20 -40 20q-52 0 -74 -130l-40 -223h-164l62 352h-49l22 122h146l14 -31q46 37 106 37zM244 -48q49 0 77 -18.5t21 -57.5q-8 -44 -52 -64.5t-105 -20.5q-27 0 -57 7t-46 14l-17 7l37 57q34 -17 69 -17q44 0 47 19
q2 9 -5.5 13.5t-22.5 4.5q-13 0 -25 -3.5t-17 -6.5l-6 -4h-66l63 97h66l-22 -34q24 7 61 7z" />
    <glyph glyph-name="Rcaron" unicode="&#x158;" horiz-adv-x="574" 
d="M404 677q85 0 133.5 -57t31.5 -156q-24 -133 -118 -187l37 -277h-168l-33 251h-45l-45 -251h-172l119 677h260zM396 464q15 79 -47 79h-56l-28 -159h56q62 0 75 80zM420 847h124l-128 -120h-114l-86 120h124l30 -56z" />
    <glyph glyph-name="rcaron" unicode="&#x159;" horiz-adv-x="468" 
d="M346 480q22 0 41.5 -5t27.5 -11l8 -5l-60 -126q-15 20 -40 20q-52 0 -74 -130l-40 -223h-164l62 352h-49l22 122h146l14 -31q46 37 106 37zM323 647h124l-128 -120h-114l-86 120h124l30 -56z" />
    <glyph glyph-name="Sacute" unicode="&#x15a;" horiz-adv-x="503" 
d="M281 500q-4 -22 12 -48.5t40.5 -54.5t48 -59.5t36.5 -74.5t5 -88q-16 -87 -82.5 -134t-149.5 -47q-52 0 -96 15t-62 30l-18 15l74 115q44 -42 97 -42q56 0 64 47q4 24 -11.5 51.5t-39.5 55.5t-48 59.5t-36.5 76t-4.5 92.5q13 75 78.5 124.5t144.5 49.5q48 0 88 -13.5
t56 -27.5l16 -13l-67 -104q-31 24 -75 24q-26 0 -46 -13t-24 -36zM319 849h144l-111 -121h-118z" />
    <glyph glyph-name="sacute" unicode="&#x15b;" horiz-adv-x="482" 
d="M263 326q-2 -11 21 -30.5t51 -40t48 -57.5t13 -78q-9 -52 -54 -89t-122 -37q-48 0 -91.5 15t-63.5 30l-20 15l67 104q34 -31 89 -31q31 0 36 21q2 10 -13.5 22.5t-37.5 28t-43.5 35t-33.5 51t-5 69.5q10 58 60.5 92t119.5 34q45 0 81.5 -13.5t50.5 -26.5l15 -14l-64 -98
q-23 18 -63 18q-38 0 -41 -20zM293 649h144l-111 -121h-118z" />
    <glyph glyph-name="uni015E" unicode="&#x15e;" horiz-adv-x="503" 
d="M281 500q-4 -22 12 -48.5t40.5 -54.5t48 -59.5t36.5 -74.5t5 -88q-16 -87 -82.5 -134t-149.5 -47q-52 0 -96 15t-62 30l-18 15l74 115q44 -42 97 -42q56 0 64 47q4 24 -11.5 51.5t-39.5 55.5t-48 59.5t-36.5 76t-4.5 92.5q13 75 78.5 124.5t144.5 49.5q48 0 88 -13.5
t56 -27.5l16 -13l-67 -104q-31 24 -75 24q-26 0 -46 -13t-24 -36zM233 -48q49 0 77 -18.5t21 -57.5q-8 -44 -52 -64.5t-105 -20.5q-27 0 -57 7t-47 14l-16 7l37 57q34 -17 69 -17q44 0 47 19q2 9 -5.5 13.5t-22.5 4.5q-13 0 -25 -3.5t-18 -6.5l-5 -4h-66l63 97h66l-22 -34
q24 7 61 7z" />
    <glyph glyph-name="uni015F" unicode="&#x15f;" horiz-adv-x="476" 
d="M263 326q-2 -11 21 -30.5t51 -40t48 -57.5t13 -78q-9 -52 -54 -89t-122 -37q-48 0 -91.5 15t-63.5 30l-20 15l67 104q34 -31 89 -31q31 0 36 21q2 10 -13.5 22.5t-37.5 28t-43.5 35t-33.5 51t-5 69.5q10 58 60.5 92t119.5 34q45 0 81.5 -13.5t50.5 -26.5l15 -14l-64 -98
q-23 18 -63 18q-38 0 -41 -20zM250 -48q49 0 77 -18.5t21 -57.5q-8 -44 -52 -64.5t-105 -20.5q-27 0 -57 7t-46 14l-17 7l37 57q34 -17 69 -17q44 0 47 19q2 9 -5.5 13.5t-22.5 4.5q-13 0 -25 -3.5t-17 -6.5l-6 -4h-66l63 97h66l-22 -34q24 7 61 7z" />
    <glyph glyph-name="Scaron" unicode="&#x160;" horiz-adv-x="503" 
d="M281 500q-4 -22 12 -48.5t40.5 -54.5t48 -59.5t36.5 -74.5t5 -88q-16 -87 -82.5 -134t-149.5 -47q-52 0 -96 15t-62 30l-18 15l74 115q44 -42 97 -42q56 0 64 47q4 24 -11.5 51.5t-39.5 55.5t-48 59.5t-36.5 76t-4.5 92.5q13 75 78.5 124.5t144.5 49.5q48 0 88 -13.5
t56 -27.5l16 -13l-67 -104q-31 24 -75 24q-26 0 -46 -13t-24 -36zM384 847h124l-128 -120h-114l-86 120h124l30 -56z" />
    <glyph glyph-name="scaron" unicode="&#x161;" horiz-adv-x="516" 
d="M263 326q-2 -11 21 -30.5t51 -40t48 -57.5t13 -78q-9 -52 -54 -89t-122 -37q-48 0 -91.5 15t-63.5 30l-20 15l67 104q34 -31 89 -31q31 0 36 21q2 10 -13.5 22.5t-37.5 28t-43.5 35t-33.5 51t-5 69.5q10 58 60.5 92t119.5 34q45 0 81.5 -13.5t50.5 -26.5l15 -14l-64 -98
q-23 18 -63 18q-38 0 -41 -20zM346 647h124l-128 -120h-114l-86 120h124l30 -56z" />
    <glyph glyph-name="uni0162" unicode="&#x162;" horiz-adv-x="431" 
d="M49 677h397l-24 -134h-112l-96 -543h-172l95 543h-112zM144 -48q49 0 77 -18.5t21 -57.5q-8 -44 -52 -64.5t-105 -20.5q-27 0 -57 7t-46 14l-17 7l37 57q34 -17 69 -17q44 0 47 19q2 9 -5.5 13.5t-22.5 4.5q-13 0 -25 -3.5t-17 -6.5l-6 -4h-66l63 97h66l-22 -34
q24 7 61 7z" />
    <glyph glyph-name="uni0163" unicode="&#x163;" horiz-adv-x="441" 
d="M283 347l-24 -137q-7 -42 1.5 -65.5t29.5 -23.5q11 0 20 3.5t12 7.5l4 3l42 -88l-5.5 -5.5t-16 -13t-26.5 -16.5t-35.5 -12.5t-44.5 -5.5q-67 0 -115.5 54.5t-34.5 136.5l29 162h-74l22 127h34q30 0 44.5 21.5t24.5 77.5l160 40l-25 -139h91l-23 -127h-90zM254 -48
q49 0 77 -18.5t21 -57.5q-8 -44 -52 -64.5t-105 -20.5q-27 0 -57 7t-46 14l-17 7l37 57q34 -17 69 -17q44 0 47 19q2 9 -5.5 13.5t-22.5 4.5q-13 0 -25 -3.5t-17 -6.5l-6 -4h-66l63 97h66l-22 -34q24 7 61 7z" />
    <glyph glyph-name="Tcaron" unicode="&#x164;" horiz-adv-x="431" 
d="M49 677h397l-24 -134h-112l-96 -543h-172l95 543h-112zM307 847h124l-128 -120h-114l-86 120h124l30 -56z" />
    <glyph glyph-name="tcaron" unicode="&#x165;" horiz-adv-x="441" 
d="M283 347l-24 -137q-7 -42 1.5 -65.5t29.5 -23.5q11 0 20 3.5t12 7.5l4 3l42 -88l-5.5 -5.5t-16 -13t-26.5 -16.5t-35.5 -12.5t-44.5 -5.5q-67 0 -115.5 54.5t-34.5 136.5l29 162h-74l22 127h34q30 0 44.5 21.5t24.5 77.5l160 40l-25 -139h91l-23 -127h-90zM467 677h153
l-30 -173l-91 -136h-86l108 136h-84z" />
    <glyph glyph-name="Umacron" unicode="&#x16a;" horiz-adv-x="551" 
d="M404 677h172l-77 -439q-43 -244 -263 -244q-107 0 -167 60t-38 184l78 439h172l-67 -380q-15 -93 -7.5 -131.5t39.5 -38.5t53.5 39t37.5 131zM252 833h230l-18 -103h-230z" />
    <glyph glyph-name="umacron" unicode="&#x16b;" horiz-adv-x="601" 
d="M497 169q-4 -25 13.5 -36.5t45.5 -11.5l-22 -127q-31 0 -57.5 5.5t-41.5 13t-26 15.5t-15 14l-4 5q-1 -2 -4.5 -5.5t-15 -13t-26.5 -16.5t-40.5 -12.5t-54.5 -5.5q-91 0 -145 51t-39 136l29 166h-49l22 127h214l-44 -250q-18 -103 36 -103q51 0 69 103l44 250h165z
M230 633h230l-18 -103h-230z" />
    <glyph glyph-name="Uring" unicode="&#x16e;" horiz-adv-x="551" 
d="M404 677h172l-77 -439q-43 -244 -263 -244q-107 0 -167 60t-38 184l78 439h172l-67 -380q-15 -93 -7.5 -131.5t39.5 -38.5t53.5 39t37.5 131zM375 921q50 0 81.5 -32t22.5 -84q-9 -54 -47 -85t-88 -31t-81 31.5t-22 84.5q10 53 47.5 84.5t86.5 31.5zM389 805
q3 17 -3.5 26t-19.5 9t-22.5 -9t-12.5 -26q-6 -35 23 -35q13 0 22.5 9t12.5 26z" />
    <glyph glyph-name="uring" unicode="&#x16f;" horiz-adv-x="601" 
d="M497 169q-4 -25 13.5 -36.5t45.5 -11.5l-22 -127q-31 0 -57.5 5.5t-41.5 13t-26 15.5t-15 14l-4 5q-1 -2 -4.5 -5.5t-15 -13t-26.5 -16.5t-40.5 -12.5t-54.5 -5.5q-91 0 -145 51t-39 136l29 166h-49l22 127h214l-44 -250q-18 -103 36 -103q51 0 69 103l44 250h165z
M359 721q50 0 81.5 -32t22.5 -84q-9 -54 -47 -85t-88 -31t-81 31.5t-22 84.5q10 53 47.5 84.5t86.5 31.5zM373 605q3 17 -3.5 26t-19.5 9t-22.5 -9t-12.5 -26q-6 -35 23 -35q13 0 22.5 9t12.5 26z" />
    <glyph glyph-name="Uhungarumlaut" unicode="&#x170;" horiz-adv-x="551" 
d="M404 677h172l-77 -439q-43 -244 -263 -244q-107 0 -167 60t-38 184l78 439h172l-67 -380q-15 -93 -7.5 -131.5t39.5 -38.5t53.5 39t37.5 131zM249 849h143l-85 -121h-118zM427 849h143l-106 -121h-118z" />
    <glyph glyph-name="uhungarumlaut" unicode="&#x171;" horiz-adv-x="601" 
d="M497 169q-4 -25 13.5 -36.5t45.5 -11.5l-22 -127q-31 0 -57.5 5.5t-41.5 13t-26 15.5t-15 14l-4 5q-1 -2 -4.5 -5.5t-15 -13t-26.5 -16.5t-40.5 -12.5t-54.5 -5.5q-91 0 -145 51t-39 136l29 166h-49l22 127h214l-44 -250q-18 -103 36 -103q51 0 69 103l44 250h165z
M231 649h143l-85 -121h-118zM409 649h143l-106 -121h-118z" />
    <glyph glyph-name="Uogonek" unicode="&#x172;" horiz-adv-x="551" 
d="M404 677h172l-77 -439q-43 -244 -263 -244q-107 0 -167 60t-38 184l78 439h172l-67 -380q-15 -93 -7.5 -131.5t39.5 -38.5t53.5 39t37.5 131zM216 -141q9 0 17.5 4.5t12.5 8.5l5 4l16 -57q-26 -28 -88 -28q-45 0 -78.5 21t-26.5 62q5 30 37.5 56.5t62.5 37.5l30 11h69
l-18 -15.5t-31.5 -36t-24.5 -49.5q-3 -19 17 -19z" />
    <glyph glyph-name="uogonek" unicode="&#x173;" horiz-adv-x="601" 
d="M497 169q-4 -25 13.5 -36.5t45.5 -11.5l-22 -127q-31 0 -57.5 5.5t-41.5 13t-26 15.5t-15 14l-4 5q-1 -2 -4.5 -5.5t-15 -13t-26.5 -16.5t-40.5 -12.5t-54.5 -5.5q-91 0 -145 51t-39 136l29 166h-49l22 127h214l-44 -250q-18 -103 36 -103q51 0 69 103l44 250h165z
M472 -141q9 0 17.5 4.5t12.5 8.5l5 4l16 -57q-26 -28 -88 -28q-45 0 -78.5 21t-26.5 62q5 30 37.5 56.5t62.5 37.5l30 11h69l-18 -15.5t-31.5 -36t-24.5 -49.5q-3 -19 17 -19z" />
    <glyph glyph-name="Ydieresis" unicode="&#x178;" horiz-adv-x="523" 
d="M379 677h179l-257 -440l-42 -237h-172l41 232l-103 445h184l44 -237zM136 729l24 138h138l-24 -138h-138zM353 867h138l-24 -138h-138z" />
    <glyph glyph-name="Zacute" unicode="&#x179;" horiz-adv-x="504" 
d="M147 677h332l-25 -140l-228 -403h157l-23 -134h-335v2l25 137l228 404h-154zM309 849h144l-111 -121h-118z" />
    <glyph glyph-name="zacute" unicode="&#x17a;" horiz-adv-x="454" 
d="M409 474l-19 -111l-123 -236h107l-23 -127h-306l17 96l126 251h-101l22 127h300zM263 649h144l-111 -121h-118z" />
    <glyph glyph-name="Zdotaccent" unicode="&#x17b;" horiz-adv-x="504" 
d="M147 677h332l-25 -140l-228 -403h157l-23 -134h-335v2l25 137l228 404h-154zM254 873h163l-26 -147h-163z" />
    <glyph glyph-name="zdotaccent" unicode="&#x17c;" horiz-adv-x="454" 
d="M409 474l-19 -111l-123 -236h107l-23 -127h-306l17 96l126 251h-101l22 127h300zM204 673h163l-26 -147h-163z" />
    <glyph glyph-name="Zcaron" unicode="&#x17d;" horiz-adv-x="504" 
d="M147 677h332l-25 -140l-228 -403h157l-23 -134h-335v2l25 137l228 404h-154zM374 847h124l-128 -120h-114l-86 120h124l30 -56z" />
    <glyph glyph-name="zcaron" unicode="&#x17e;" horiz-adv-x="454" 
d="M409 474l-19 -111l-123 -236h107l-23 -127h-306l17 96l126 251h-101l22 127h300zM317 647h124l-128 -120h-114l-86 120h124l30 -56z" />
    <glyph glyph-name="florin" unicode="&#x192;" horiz-adv-x="613" 
d="M434 502l-12 -42h109l-21 -115h-119l-103 -373q-50 -181 -199 -181q-32 0 -60.5 8t-40.5 16l-13 8l61 94q10 -11 36 -11q20 0 33.5 15t23.5 51l103 373h-55l20 115h66l12 42q49 181 207 181q32 0 58.5 -8.5t37.5 -16.5l10 -8l-61 -94q-15 12 -34 12q-41 0 -59 -66z" />
    <glyph glyph-name="uni0218" unicode="&#x218;" horiz-adv-x="503" 
d="M281 500q-4 -22 12 -48.5t40.5 -54.5t48 -59.5t36.5 -74.5t5 -88q-16 -87 -82.5 -134t-149.5 -47q-52 0 -96 15t-62 30l-18 15l74 115q44 -42 97 -42q56 0 64 47q4 24 -11.5 51.5t-39.5 55.5t-48 59.5t-36.5 76t-4.5 92.5q13 75 78.5 124.5t144.5 49.5q48 0 88 -13.5
t56 -27.5l16 -13l-67 -104q-31 24 -75 24q-26 0 -46 -13t-24 -36zM148 -26h144l-111 -121h-118z" />
    <glyph glyph-name="uni0219" unicode="&#x219;" horiz-adv-x="476" 
d="M263 326q-2 -11 21 -30.5t51 -40t48 -57.5t13 -78q-9 -52 -54 -89t-122 -37q-48 0 -91.5 15t-63.5 30l-20 15l67 104q34 -31 89 -31q31 0 36 21q2 10 -13.5 22.5t-37.5 28t-43.5 35t-33.5 51t-5 69.5q10 58 60.5 92t119.5 34q45 0 81.5 -13.5t50.5 -26.5l15 -14l-64 -98
q-23 18 -63 18q-38 0 -41 -20zM168 -31h144l-111 -121h-118z" />
    <glyph glyph-name="uni021A" unicode="&#x21a;" horiz-adv-x="431" 
d="M49 677h397l-24 -134h-112l-96 -543h-172l95 543h-112zM58 -26h144l-111 -121h-118z" />
    <glyph glyph-name="uni021B" unicode="&#x21b;" horiz-adv-x="441" 
d="M283 347l-24 -137q-7 -42 1.5 -65.5t29.5 -23.5q11 0 20 3.5t12 7.5l4 3l42 -88l-5.5 -5.5t-16 -13t-26.5 -16.5t-35.5 -12.5t-44.5 -5.5q-67 0 -115.5 54.5t-34.5 136.5l29 162h-74l22 127h34q30 0 44.5 21.5t24.5 77.5l160 40l-25 -139h91l-23 -127h-90zM165 -31h144
l-111 -121h-118z" />
    <glyph glyph-name="sc.g" unicode="&#x262;" horiz-adv-x="499" 
d="M262 343h217l-41 -235q-2 -5 -7 -12.5t-23 -27t-40.5 -34.5t-61 -27.5t-82.5 -12.5q-95 0 -157.5 70.5t-41.5 187.5l10 58q22 123 100 190.5t194 67.5q45 0 80.5 -14t48.5 -28l13 -14l-61 -95q-20 17 -70 17q-57 0 -95.5 -41t-50.5 -112q-13 -70 0.5 -112t46.5 -42
q14 0 24 7t13 14l4 7l14 79h-53z" />
    <glyph glyph-name="sc.i" unicode="&#x26a;" horiz-adv-x="278" 
d="M119 562h164l-99 -562h-164z" />
    <glyph glyph-name="sc.n" unicode="&#x274;" horiz-adv-x="538" 
d="M392 562h156l-100 -568h-156l-79 219l-37 -213h-156l99 562h156l79 -220z" />
    <glyph glyph-name="sc.r" unicode="&#x280;" horiz-adv-x="520" 
d="M364 562q78 0 122 -60t30 -141q-9 -54 -36 -99.5t-67 -72.5l25 -189h-156l-21 160h-49l-28 -160h-164l99 562h245zM352 361q13 67 -55 67h-37l-24 -134h38q67 0 78 67z" />
    <glyph glyph-name="sc.x" unicode="&#x28e;" horiz-adv-x="546" 
d="M526 562l-168 -281l69 -281h-179l-27 111l-67 -111h-169l168 281l-69 281h178l28 -112l67 112h169z" />
    <glyph glyph-name="sc.y" unicode="&#x28f;" horiz-adv-x="523" 
d="M338 562h165l-203 -335l-40 -227h-164l38 221l-89 341h174l31 -164z" />
    <glyph glyph-name="sc.b" unicode="&#x299;" horiz-adv-x="543" 
d="M520 413q-8 -42 -30 -72t-40 -39l-18 -10q2 0 5 -1.5t12 -5.5t15.5 -10t16 -16.5t13 -24.5t7 -33t-2.5 -43q-13 -71 -67 -114.5t-127 -43.5h-259l99 562h243q64 0 104 -43.5t29 -105.5zM338 186q5 26 -10.5 39t-50.5 13h-26l-18 -104h26q70 0 79 52zM351 387
q3 16 -8.5 28.5t-44.5 12.5h-13l-15 -81h14q60 0 67 40z" />
    <glyph glyph-name="sc.h" unicode="&#x29c;" horiz-adv-x="542" 
d="M393 562h164l-99 -562h-164l39 223h-109l-40 -223h-164l99 562h164l-36 -205h110z" />
    <glyph glyph-name="sc.l" unicode="&#x29f;" horiz-adv-x="368" 
d="M203 134h135l-24 -134h-299l99 562h164z" />
    <glyph glyph-name="circumflex" unicode="&#x2c6;" horiz-adv-x="398" 
d="M277 649l86 -120h-124l-30 57l-50 -57h-124l128 120h114z" />
    <glyph glyph-name="caron" unicode="&#x2c7;" horiz-adv-x="398" 
d="M239 647h124l-128 -120h-114l-86 120h124l30 -56z" />
    <glyph glyph-name="uni02C9" unicode="&#x2c9;" horiz-adv-x="318" 
d="M53 633h230l-18 -103h-230z" />
    <glyph glyph-name="breve" unicode="&#x2d8;" horiz-adv-x="354" 
d="M237 664h82q-11 -64 -50.5 -102.5t-107.5 -38.5q-69 0 -101.5 39.5t-21.5 101.5h82q-2 -15 11.5 -26.5t40.5 -11.5t45 11.5t20 26.5z" />
    <glyph glyph-name="dotaccent" unicode="&#x2d9;" horiz-adv-x="259" 
d="M61 673h163l-26 -147h-163z" />
    <glyph glyph-name="ring" unicode="&#x2da;" horiz-adv-x="312" 
d="M171 721q50 0 81.5 -32t22.5 -84q-9 -54 -47 -85t-88 -31t-81 31.5t-22 84.5q10 53 47.5 84.5t86.5 31.5zM185 605q3 17 -3.5 26t-19.5 9t-22.5 -9t-12.5 -26q-6 -35 23 -35q13 0 22.5 9t12.5 26z" />
    <glyph glyph-name="ogonek" unicode="&#x2db;" horiz-adv-x="271" 
d="M179 -141q9 0 17.5 4.5t13.5 8.5l4 4l16 -57q-26 -28 -88 -28q-45 0 -78.5 21t-26.5 62q5 30 37.5 56.5t62.5 37.5l30 11h69l-18 -15.5t-31.5 -36t-24.5 -49.5q-3 -19 17 -19z" />
    <glyph glyph-name="tilde" unicode="&#x2dc;" horiz-adv-x="379" 
d="M262 661h82q-11 -58 -43.5 -92.5t-78.5 -34.5q-16 0 -33 4.5t-28 9t-21 7t-15.5 -2.5t-7.5 -18h-82q10 57 43 92t79 35q16 0 33 -4.5t27.5 -9t20.5 -7t15.5 2.5t8.5 18z" />
    <glyph glyph-name="hungarumlaut" unicode="&#x2dd;" horiz-adv-x="451" 
d="M95 649h143l-85 -121h-118zM273 649h143l-106 -121h-118z" />
    <glyph glyph-name="pi" unicode="&#x3c0;" horiz-adv-x="651" 
d="M525 347l-24 -137q-17 -89 30 -89q10 0 18 3.5t11 7.5l3 3l26 -88q-4 -6 -13 -15t-38.5 -23.5t-63.5 -14.5q-72 0 -115.5 47t-28.5 135l31 171h-93l-61 -347h-164l61 347h-69l22 127h559l-22 -127h-69z" />
    <glyph glyph-name="sc.a" unicode="&#x1d00;" horiz-adv-x="507" 
d="M454 562l43 -562h-169l-4 74h-114l-30 -74h-160l241 562h193zM254 183h64l-7 140z" />
    <glyph glyph-name="sc.c" unicode="&#x1d04;" horiz-adv-x="426" 
d="M297 568q27 0 50.5 -6t37 -14t23.5 -16.5t14 -14.5l4 -6l-62 -96q-15 19 -48 19q-95 0 -122 -153q-12 -68 6 -111t59 -43q17 0 30 6t18 12l5 6l30 -104q-5 -6 -14.5 -15t-44.5 -23.5t-75 -14.5q-86 0 -144.5 73t-38.5 185l10 58q20 118 90.5 188t171.5 70z" />
    <glyph glyph-name="sc.d" unicode="&#x1d05;" horiz-adv-x="532" 
d="M372 562q71 0 112 -70t21 -182l-10 -58q-20 -116 -75 -184t-125 -68h-275l99 562h253zM336 281q26 147 -35 147h-41l-52 -294h41q61 0 87 147z" />
    <glyph glyph-name="sc.e" unicode="&#x1d07;" horiz-adv-x="401" 
d="M388 428h-128l-15 -86h102l-19 -109h-103l-17 -99h128l-24 -134h-292l99 562h292z" />
    <glyph glyph-name="sc.j" unicode="&#x1d0a;" horiz-adv-x="399" 
d="M215 562h164l-68 -386q-32 -182 -195 -182q-39 0 -71.5 9t-46.5 18l-13 9l70 109q15 -12 41 -12q42 0 60 102z" />
    <glyph glyph-name="sc.k" unicode="&#x1d0b;" horiz-adv-x="554" 
d="M534 562l-140 -191l49 -371h-156l-25 190l-58 -78l-20 -112h-164l99 562h164l-28 -161l116 161h163z" />
    <glyph glyph-name="sc.m" unicode="&#x1d0d;" horiz-adv-x="632" 
d="M428 562h204l-62 -562h-164l38 280l-90 -286h-132l11 272l-62 -266h-156l136 562h211l-21 -290z" />
    <glyph glyph-name="sc.o" unicode="&#x1d0f;" horiz-adv-x="508" 
d="M300 568q98 0 153.5 -69t33.5 -189l-10 -58q-21 -121 -93.5 -189.5t-168.5 -68.5q-98 0 -154 69t-35 189l10 58q22 121 95 189.5t169 68.5zM318 281q13 76 3.5 114.5t-37.5 38.5q-29 0 -52.5 -39.5t-35.5 -113.5q-27 -154 34 -154q28 0 51.5 39.5t36.5 114.5z" />
    <glyph glyph-name="sc.p" unicode="&#x1d18;" horiz-adv-x="524" 
d="M358 562q79 0 123 -61t29 -143q-15 -84 -72 -144t-133 -60h-89l-27 -154h-164l99 562h234zM346 358q11 70 -55 70h-26l-25 -140h27q66 0 79 70z" />
    <glyph glyph-name="sc.t" unicode="&#x1d1b;" horiz-adv-x="421" 
d="M69 562h342l-24 -134h-89l-75 -428h-165l76 428h-89z" />
    <glyph glyph-name="sc.u" unicode="&#x1d1c;" horiz-adv-x="504" 
d="M350 562h164l-63 -358q-19 -106 -83 -158t-156 -52q-95 0 -150 53t-37 157l63 358h165l-65 -368q-6 -31 4 -49t33 -18t39 18t21 49z" />
    <glyph glyph-name="sc.v" unicode="&#x1d20;" horiz-adv-x="561" 
d="M375 562h161l-241 -562h-208l-42 562h170l18 -350z" />
    <glyph glyph-name="sc.w" unicode="&#x1d21;" horiz-adv-x="667" 
d="M523 562h154l-222 -562h-168l-3 197l-73 -197h-168l-23 562h162l-3 -293l99 293h150l-8 -293z" />
    <glyph glyph-name="sc.z" unicode="&#x1d22;" horiz-adv-x="421" 
d="M401 562l-23 -134l-190 -294h138l-24 -134h-317l24 134l189 294h-130l24 134h309z" />
    <glyph glyph-name="endash" unicode="&#x2013;" horiz-adv-x="416" 
d="M67 399h304l-23 -127h-303z" />
    <glyph glyph-name="emdash" unicode="&#x2014;" horiz-adv-x="561" 
d="M67 399h449l-23 -127h-448z" />
    <glyph glyph-name="quoteleft" unicode="&#x2018;" horiz-adv-x="307" 
d="M257 677l-108 -136h84l-30 -173h-153l30 173l91 136h86z" />
    <glyph glyph-name="quoteright" unicode="&#x2019;" horiz-adv-x="307" 
d="M104 677h153l-30 -173l-91 -136h-86l108 136h-84z" />
    <glyph glyph-name="quotesinglbase" unicode="&#x201a;" horiz-adv-x="252" 
d="M64 172h153l-30 -172l-91 -136h-86l108 136h-84z" />
    <glyph glyph-name="quotedblleft" unicode="&#x201c;" horiz-adv-x="489" 
d="M252 677l-108 -136h84l-30 -173h-153l30 173l91 136h86zM444 677l-108 -136h84l-30 -173h-153l31 173l90 136h86z" />
    <glyph glyph-name="quotedblright" unicode="&#x201d;" horiz-adv-x="489" 
d="M292 677h152l-30 -173l-91 -136h-86l108 136h-84zM99 677h153l-30 -173l-91 -136h-86l108 136h-84z" />
    <glyph glyph-name="quotedblbase" unicode="&#x201e;" horiz-adv-x="444" 
d="M257 172h152l-30 -172l-91 -136h-86l108 136h-84zM64 172h153l-30 -172l-91 -136h-86l108 136h-84z" />
    <glyph glyph-name="dagger" unicode="&#x2020;" horiz-adv-x="459" 
d="M323 472h106l-23 -127h-106l-96 -548h-165l97 548h-106l22 127h106l36 205h165z" />
    <glyph glyph-name="daggerdbl" unicode="&#x2021;" horiz-adv-x="519" 
d="M467 345h-106l-38 -216h106l-23 -128h-106l-36 -204h-164l36 204h-106l22 128h106l39 216h-106l22 127h106l36 205h164l-36 -205h106z" />
    <glyph glyph-name="bullet" unicode="&#x2022;" horiz-adv-x="323" 
d="M71 442h207l-36 -207h-207z" />
    <glyph glyph-name="ellipsis" unicode="&#x2026;" horiz-adv-x="819" 
d="M65 172h173l-31 -172h-172zM338 172h173l-31 -172h-172zM611 172h173l-31 -172h-172z" />
    <glyph glyph-name="perthousand" unicode="&#x2030;" horiz-adv-x="1319" 
d="M422 503q-14 -81 -73 -130.5t-134 -49.5q-77 0 -126.5 50.5t-35.5 129.5q14 81 72.5 130.5t134.5 49.5q77 0 126.5 -50.5t35.5 -129.5zM180 503q-5 -29 8.5 -45.5t38.5 -16.5t44 16.5t24 45.5t-8.5 45.5t-38.5 16.5t-44 -16.5t-24 -45.5zM702 353q77 0 127 -50t36 -129
q-15 -81 -73.5 -130.5t-133.5 -49.5q-77 0 -127 50.5t-36 129.5q15 81 73.5 130t133.5 49zM737 174q5 28 -8 44.5t-38 16.5t-44.5 -16.5t-23.5 -44.5q-5 -29 8 -45.5t38 -16.5t44.5 16.5t23.5 45.5zM1103 353q77 0 127 -50t36 -129q-15 -81 -73.5 -130.5t-133.5 -49.5
q-77 0 -126.5 50.5t-35.5 129.5q14 81 72.5 130t133.5 49zM1139 174q4 28 -9 44.5t-38 16.5t-44 -16.5t-24 -44.5q-5 -29 8 -45.5t38 -16.5t44.5 16.5t24.5 45.5zM568 677h135l-353 -677h-135z" />
    <glyph glyph-name="guilsinglleft" unicode="&#x2039;" horiz-adv-x="378" 
d="M333 393l-149 -152l96 -152l-113 -80l-122 194l14 77l189 193z" />
    <glyph glyph-name="guilsinglright" unicode="&#x203a;" horiz-adv-x="378" 
d="M212 473l121 -193l-13 -77l-190 -194l-85 80l149 152l-95 152z" />
    <glyph glyph-name="fraction" unicode="&#x2044;" horiz-adv-x="133" 
d="M198 677h135l-353 -677h-135z" />
    <glyph glyph-name="Euro" unicode="&#x20ac;" horiz-adv-x="565" 
d="M421 559q-60 0 -102 -83h155l-74 -115h-337l20 115h71q78 207 259 207q37 0 66 -13.5t40 -27.5l11 -13l-60 -93q-15 23 -49 23zM431 316l-73 -115h-85q14 -83 76 -83q16 0 29 6t18 12l5 6l29 -99q-4 -5 -13 -13.5t-41.5 -22t-70.5 -13.5q-76 0 -131 52t-64 155h-75
l20 115h376z" />
    <glyph glyph-name="uni20BA" unicode="&#x20ba;" horiz-adv-x="563" 
d="M379 297h159q-26 -147 -123 -222t-244 -75h-96l42 240l-92 -33l22 123l92 32l8 48l-92 -33l22 123l92 32l26 145h159l-15 -86l127 45l-22 -123l-127 -44l-8 -48l127 45l-22 -123l-127 -44l-30 -169q97 26 122 167z" />
    <glyph glyph-name="uni20BD" unicode="&#x20bd;" horiz-adv-x="580" 
d="M466 677q71 0 110 -55.5t24 -144.5q-16 -90 -69.5 -145t-121.5 -55h-126l-7 -40h145l-20 -115h-146l-21 -122h-159l21 122h-61l20 115h62l77 440h272zM441 477q12 76 -48 76h-62l-26 -151h61q62 0 75 75z" />
    <glyph glyph-name="Bitcoin" unicode="&#x20bf;" horiz-adv-x="592" 
d="M575 467q-6 -36 -29.5 -63.5t-43.5 -37.5l-20 -9l10 -5t20.5 -15t24.5 -27t16 -40t1 -53q-20 -119 -153 -137l-15 -86h-115l15 83h-35l-14 -83h-115l14 83h-111l22 125h67l48 273h-67l22 125h111l15 83h115l-15 -83h35l14 83h115l-16 -95q45 -15 68.5 -46.5t15.5 -74.5z
M400 244q4 24 -13.5 33.5t-61.5 9.5h-37l-15 -85h37q44 0 65 9.5t25 32.5zM412 443q6 32 -54 32h-36l-12 -63h37q59 0 65 31z" />
    <glyph glyph-name="uni2113" unicode="&#x2113;" horiz-adv-x="576" 
d="M397 683q75 0 115.5 -53t22.5 -156q-32 -175 -238 -270q-5 -39 13 -61t49 -22q12 0 23.5 3.5t16.5 7.5l5 3l26 -88q-4 -6 -12.5 -15t-41 -23.5t-73.5 -14.5q-74 0 -123.5 40.5t-51.5 113.5l-63 -11l-30 102q48 9 109 29l36 206q18 102 77.5 155.5t139.5 53.5zM407 474
q15 82 -16 82q-33 0 -46 -82l-21 -120q72 55 83 120z" />
    <glyph glyph-name="Sound" unicode="&#x2117;" horiz-adv-x="806" 
d="M473 527q57 0 89.5 -36.5t22.5 -95.5q-10 -58 -52.5 -94.5t-96.5 -36.5h-63l-20 -114h-120l67 377h173zM465 395q4 21 -7 30t-36 9h-19l-13 -77h19q49 0 56 38zM457 683q143 0 225.5 -101t57.5 -244q-25 -142 -143.5 -243t-261.5 -101q-142 0 -225.5 100.5t-58.5 243.5
q26 143 144.5 244t261.5 101zM696 346q10 62 -3 117q-14 55 -47 92q-69 83 -189 83q-61 0 -123 -24q-59 -24 -110 -66q-51 -44 -83 -99q-34 -55 -45 -118q-12 -61 3 -117q12 -52 46 -92q69 -83 190 -83q61 0 123 24q57 22 109 66q50 43 84 98q34 57 45 119z" />
    <glyph glyph-name="trademark" unicode="&#x2122;" horiz-adv-x="611" 
d="M265 677l-12 -69h-60l-37 -208h-88l36 208h-59l12 69h208zM466 677h120l-23 -277h-88l16 180l-66 -184h-64v184l-50 -180h-76l75 277h116l1 -107z" />
    <glyph glyph-name="uni2126" unicode="&#x2126;" horiz-adv-x="749" 
d="M708 395q-30 -164 -135 -261h80l-24 -134h-263l23 134q4 2 12 6.5t28.5 23.5t38 44t36.5 71t29 101q14 79 -14 124t-90 45t-106 -45t-57 -124q-10 -59 -8 -101.5t12.5 -70.5t22 -44.5t20.5 -23.5l9 -6l-24 -134h-263l24 134h79q-71 99 -42 261q24 138 120 213t228 75
q87 0 151 -31.5t96.5 -98t16.5 -158.5z" />
    <glyph glyph-name="estimated" unicode="&#x212e;" horiz-adv-x="727" 
d="M414 674q140 0 219.5 -89t51.5 -250l-5 -23h-446l-39 -217q51 -30 121 -30q38 0 76 9.5t65 23t48.5 27t32.5 23.5l10 9l44 -46q-5 -5 -13.5 -12.5t-37 -27.5t-59 -35t-76 -27.5t-91.5 -12.5q-67 0 -122.5 22t-94.5 63t-55 107t-1 147q28 163 131.5 251t240.5 88zM484 380
l36 203q-46 23 -109 23q-71 0 -131 -29l-34 -197h238z" />
    <glyph glyph-name="oneseventh" unicode="&#x2150;" horiz-adv-x="659" 
d="M398 677h135l-353 -677h-135zM408 360h216l-15 -84l-10 -10.5t-23.5 -32t-32.5 -54.5t-31.5 -77.5t-26.5 -101.5h-105q13 76 41.5 143.5t50.5 96.5l21 29h-101zM153 317h-106l44 249l-34 -9l16 87l144 36z" />
    <glyph glyph-name="oneninth" unicode="&#x2151;" horiz-adv-x="661" 
d="M398 677h135l-353 -677h-135zM509 363q57 0 91 -38.5t23 -105.5q-8 -47 -32.5 -88t-52.5 -66t-55.5 -43.5t-45.5 -25.5l-18 -8l-25 84q37 9 65 31q-46 0 -75 32q-33 35 -22 98q10 59 51 94.5t96 35.5zM520 233q7 44 -19 44t-34 -44t19 -44q26 0 34 44zM153 317h-106
l44 249l-34 -9l16 87l144 36z" />
    <glyph glyph-name="onetenth" unicode="&#x2152;" horiz-adv-x="843" 
d="M398 677h135l-353 -677h-135zM700 363q56 0 87 -49.5t16 -133.5q-15 -86 -57.5 -134.5t-97.5 -48.5q-56 0 -86 49.5t-16 133.5q15 86 57.5 134.5t96.5 48.5zM698 180q18 97 -6 97q-23 0 -41 -97q-16 -97 7 -97t40 97zM375 240l16 87l144 36l-64 -363h-106l44 249z
M153 317h-106l44 249l-34 -9l16 87l144 36z" />
    <glyph glyph-name="onethird" unicode="&#x2153;" horiz-adv-x="619" 
d="M398 677h135l-353 -677h-135zM153 317h-106l44 249l-34 -9l16 87l144 36zM582 264q-4 -24 -15.5 -42.5t-20.5 -25.5l-10 -7q4 -3 9 -9t11.5 -27.5t2.5 -47.5q-9 -49 -44.5 -78.5t-84.5 -29.5q-28 0 -54 8.5t-38 17.5l-11 9l47 73q14 -22 45 -22t36 31q6 31 -23 31h-38
l15 86h38q25 0 28 23q2 9 -4 16t-19 7q-12 0 -23.5 -5.5t-16.5 -10.5l-6 -5l-21 72q42 35 94 35q53 0 82 -28.5t21 -70.5z" />
    <glyph glyph-name="twothirds" unicode="&#x2154;" horiz-adv-x="703" 
d="M482 677h135l-353 -677h-135zM666 264q-4 -24 -15.5 -42.5t-20.5 -25.5l-10 -7q4 -3 9 -9t12 -27.5t2 -47.5q-8 -49 -44 -78.5t-85 -29.5q-28 0 -54 8.5t-38 17.5l-11 9l47 73q14 -22 46 -22q29 0 36 31q4 31 -24 31h-38l16 86h38q24 0 27 23q2 9 -4 16t-19 7
q-12 0 -23.5 -5.5t-16.5 -10.5l-6 -5l-21 72q42 35 94 35q53 0 82 -28.5t21 -70.5zM271 403l-16 -86h-173l-37 71q16 12 39.5 32t65.5 66.5t47 74.5q3 13 -4 23t-24 10q-12 0 -24.5 -6t-18.5 -12l-7 -6l-21 71q4 4 11.5 10.5t33 17.5t53.5 11q58 0 87 -32.5t20 -80.5
q-12 -70 -112 -164h80z" />
    <glyph glyph-name="onefifth" unicode="&#x2155;" horiz-adv-x="641" 
d="M398 677h135l-353 -677h-135zM591 274h-98l-9 -40q4 1 12 1q48 0 74.5 -34t16.5 -85q-9 -56 -50.5 -87.5t-93.5 -31.5q-34 0 -61.5 8.5t-37.5 17.5l-10 9l46 71q16 -20 58 -20q38 0 44 33q2 14 -7 23.5t-26 9.5q-9 0 -19 -3.5t-16 -6.5l-5 -3l-41 54l39 170h199zM153 317
h-106l44 249l-34 -9l16 87l144 36z" />
    <glyph glyph-name="twofifths" unicode="&#x2156;" horiz-adv-x="725" 
d="M482 677h135l-353 -677h-135zM675 274h-98l-9 -40q4 1 12 1q52 0 76 -33q25 -31 16 -86q-10 -56 -52 -87.5t-94 -31.5q-34 0 -61 8.5t-37 17.5l-10 9l46 71q16 -20 58 -20q39 0 44 33q3 14 -6.5 23.5t-26.5 9.5q-9 0 -19 -3.5t-16 -6.5l-5 -3l-41 54l39 170h199zM271 403
l-16 -86h-173l-37 71q16 12 39.5 32t65.5 66.5t47 74.5q3 13 -4 23t-24 10q-12 0 -24.5 -6t-18.5 -12l-7 -6l-21 71q4 4 11.5 10.5t33 17.5t53.5 11q58 0 87 -32.5t20 -80.5q-12 -70 -112 -164h80z" />
    <glyph glyph-name="threefifths" unicode="&#x2157;" horiz-adv-x="712" 
d="M470 677h135l-353 -677h-135zM662 274h-98l-9 -40q4 1 12 1q51 0 77 -33q24 -32 15 -86q-10 -55 -54.5 -87t-97.5 -32q-34 0 -59.5 8.5t-33.5 17.5l-9 9l46 71q16 -20 58 -20q39 0 44 33q3 14 -6.5 23.5t-26.5 9.5q-9 0 -19 -3.5t-15 -6.5l-6 -3l-41 54l39 170h199z
M277 422q-8 -49 -45.5 -78.5t-91.5 -29.5q-24 0 -47.5 9t-35.5 17l-12 9l47 73q14 -22 46 -22q29 0 36 31q4 31 -24 31h-38l16 86h38q24 0 28 23q2 9 -4.5 16t-19.5 7q-12 0 -23.5 -5t-16.5 -11l-6 -5l-21 72q44 35 100 35q55 0 80 -28t18 -72q-4 -23 -16 -41.5t-21 -25.5
l-10 -7q4 -3 9 -9t12 -27.5t2 -47.5z" />
    <glyph glyph-name="fourfifths" unicode="&#x2158;" horiz-adv-x="736" 
d="M495 677h134l-353 -677h-134zM686 274h-98l-9 -40q5 1 13 1q52 0 76 -33q24 -32 15 -86q-10 -55 -54.5 -87t-97.5 -32q-34 0 -59.5 8.5t-33.5 17.5l-8 9l45 71q16 -20 58 -20q39 0 45 33q2 14 -7 23.5t-26 9.5q-9 0 -19.5 -3.5t-15.5 -6.5l-6 -3l-40 54l39 170h198z
M153 317l13 77h-121l14 79l138 204h125l-35 -197h33l-16 -86h-32l-14 -77h-105zM146 467h40l16 93z" />
    <glyph glyph-name="onesixth" unicode="&#x2159;" horiz-adv-x="627" 
d="M398 677h135l-353 -677h-135zM492 257q50 0 79 -30t17 -100q-11 -61 -50.5 -95.5t-92.5 -34.5q-56 0 -93 38t-24 106q9 53 34.5 96t54.5 66.5t57 40t46 22.5l19 5l24 -83q-42 -9 -71 -31zM483 127q4 19 -1.5 31.5t-17.5 12.5q-26 0 -34 -44q-7 -44 19 -44t34 44zM153 317
h-106l44 249l-34 -9l16 87l144 36z" />
    <glyph glyph-name="fivesixths" unicode="&#x215a;" horiz-adv-x="705" 
d="M476 677h135l-353 -677h-135zM570 257q50 0 79 -30t17 -100q-11 -61 -52 -95.5t-94 -34.5q-56 0 -91.5 37.5t-22.5 106.5q9 53 34.5 96t54.5 66.5t57 40t46 22.5l19 5l24 -83q-42 -9 -71 -31zM561 127q4 19 -1.5 31.5t-17.5 12.5q-26 0 -34 -44q-7 -44 19 -44t34 44z
M298 433q-10 -55 -54.5 -87t-97.5 -32q-34 0 -59.5 9t-33.5 17l-8 9l46 71q16 -20 57 -20q39 0 45 33q2 14 -7 23t-26 9q-9 0 -19.5 -3t-16.5 -6l-5 -3l-40 54l39 170h199l-15 -86h-98l-9 -40q2 0 6 0.5t6 0.5q49 0 74 -33.5t17 -85.5z" />
    <glyph glyph-name="oneeigth" unicode="&#x215b;" horiz-adv-x="670" 
d="M398 677h135l-353 -677h-135zM633 263q-9 -48 -54 -76q40 -28 31 -82q-8 -47 -50.5 -77.5t-100.5 -30.5t-89.5 30.5t-23.5 77.5q11 55 61 82q-36 28 -27 76q8 46 50.5 73t93.5 27t84 -27t25 -73zM506 113q2 13 -4 21.5t-17 8.5t-20.5 -8.5t-11.5 -21.5t4 -21.5t17 -8.5
q12 0 21 8.5t11 21.5zM526 253q3 24 -17 24q-21 0 -26 -24q-3 -24 17 -24q21 0 26 24zM153 317h-106l44 249l-34 -9l16 87l144 36z" />
    <glyph glyph-name="threeeigths" unicode="&#x215c;" horiz-adv-x="739" 
d="M467 677h135l-353 -677h-135zM702 263q-9 -48 -54 -76q42 -28 31 -82q-8 -47 -50.5 -77.5t-100.5 -30.5q-57 0 -89 30.5t-23 77.5q9 54 60 82q-36 28 -27 76q8 46 50.5 73t93.5 27t84 -27t25 -73zM576 113q2 13 -4 21.5t-18 8.5q-11 0 -20.5 -8.5t-11.5 -21.5t4 -21.5
t18 -8.5q11 0 20.5 8.5t11.5 21.5zM595 253q3 24 -17 24q-22 0 -25 -24q-2 -10 2.5 -17t13.5 -7q21 0 26 24zM277 422q-8 -49 -45.5 -78.5t-91.5 -29.5q-24 0 -47.5 9t-35.5 17l-12 9l47 73q14 -22 46 -22q29 0 36 31q4 31 -24 31h-38l16 86h38q24 0 28 23q2 9 -4.5 16
t-19.5 7q-12 0 -23.5 -5t-16.5 -11l-6 -5l-21 72q44 35 100 35q55 0 80 -28t18 -72q-4 -23 -16 -41.5t-21 -25.5l-10 -7q4 -3 9 -9t12 -27.5t2 -47.5z" />
    <glyph glyph-name="fiveeigths" unicode="&#x215d;" horiz-adv-x="750" 
d="M478 677h135l-353 -677h-135zM713 263q-9 -48 -54 -76q40 -28 31 -82q-8 -47 -50.5 -77.5t-100.5 -30.5t-89.5 30.5t-23.5 77.5q11 55 61 82q-36 28 -27 76q8 46 50.5 73t93.5 27t84 -27t25 -73zM586 113q2 13 -4 21.5t-17 8.5t-20.5 -8.5t-11.5 -21.5t4 -21.5t17 -8.5
q12 0 21 8.5t11 21.5zM606 253q3 24 -17 24q-21 0 -26 -24q-3 -24 17 -24q21 0 26 24zM298 433q-10 -55 -54.5 -87t-97.5 -32q-34 0 -59.5 9t-33.5 17l-8 9l46 71q16 -20 57 -20q39 0 45 33q2 14 -7 23t-26 9q-9 0 -19.5 -3t-16.5 -6l-5 -3l-40 54l39 170h199l-15 -86h-98
l-9 -40q2 0 6 0.5t6 0.5q49 0 74 -33.5t17 -85.5z" />
    <glyph glyph-name="seveneigths" unicode="&#x215e;" horiz-adv-x="670" 
d="M398 677h135l-353 -677h-135zM633 263q-9 -48 -54 -76q40 -28 31 -82q-8 -47 -50.5 -77.5t-100.5 -30.5t-89.5 30.5t-23.5 77.5q11 55 61 82q-36 28 -27 76q8 46 50.5 73t93.5 27t84 -27t25 -73zM506 113q2 13 -4 21.5t-17 8.5t-20.5 -8.5t-11.5 -21.5t4 -21.5t17 -8.5
q12 0 21 8.5t11 21.5zM526 253q3 24 -17 24q-21 0 -26 -24q-3 -24 17 -24q21 0 26 24zM158 317h-105q13 76 41.5 143t49.5 96l22 30h-101l16 91h216l-15 -85q-4 -3 -10 -10t-23.5 -32t-32.5 -54t-31.5 -77.5t-26.5 -101.5z" />
    <glyph glyph-name="numeratorone" unicode="&#x215f;" horiz-adv-x="568" 
d="M398 677h135l-353 -677h-135zM153 317h-106l44 249l-34 -9l16 87l144 36z" />
    <glyph glyph-name="zerothirds" unicode="&#x2189;" horiz-adv-x="689" 
d="M468 677h134l-353 -677h-134zM308 497q-15 -85 -60.5 -134t-100.5 -49t-83 49t-13 134t60 134t101 49q55 0 83 -49t13 -134zM156 497q-17 -97 6 -97q24 0 41 97q18 97 -6 97q-23 0 -41 -97zM652 264q-4 -24 -15.5 -42.5t-20.5 -25.5l-10 -7q4 -3 9 -9t11.5 -27.5
t2.5 -47.5q-9 -49 -46.5 -78.5t-90.5 -29.5q-24 0 -48 8.5t-36 17.5l-12 9l47 73q15 -22 46 -22t36 31q6 31 -23 31h-38l15 86h38q24 0 28 23q2 9 -4 16t-19 7q-12 0 -23.5 -5.5t-16.5 -10.5l-6 -5l-21 72q44 35 99 35q56 0 81 -28t17 -71z" />
    <glyph glyph-name="ArrowL" unicode="&#x2190;" horiz-adv-x="564" 
d="M504 405l-24 -133h-221l51 -127h-173l-77 193l146 194h172l-95 -127h221z" />
    <glyph glyph-name="ArrowU" unicode="&#x2191;" horiz-adv-x="537" 
d="M303 559l174 -111l-31 -173l-113 73l-39 -221h-134l39 221l-139 -73l30 173z" />
    <glyph glyph-name="ArrowR" unicode="&#x2192;" horiz-adv-x="564" 
d="M426 532l78 -194l-146 -193h-172l95 127h-221l24 133h221l-51 127h172z" />
    <glyph glyph-name="ArrowD" unicode="&#x2193;" horiz-adv-x="537" 
d="M337 328l140 73l-31 -172l-213 -112l-173 112l30 172l114 -73l39 221h133z" />
    <glyph glyph-name="ArrowNW" unicode="&#x2196;" horiz-adv-x="542" 
d="M482 427l-148 -38l129 -156l-111 -95l-129 156l-63 -140l-100 122l96 215l225 58z" />
    <glyph glyph-name="ArrowNE" unicode="&#x2197;" horiz-adv-x="538" 
d="M458 491l20 -215l-143 -122l-13 140l-184 -156l-78 95l184 156l-134 38l143 122z" />
    <glyph glyph-name="ArrowSE" unicode="&#x2198;" horiz-adv-x="542" 
d="M381 523l101 -122l-96 -215l-226 -58l-100 122l148 38l-129 156l111 95l129 -157z" />
    <glyph glyph-name="ArrowSW" unicode="&#x2199;" horiz-adv-x="538" 
d="M478 444l-184 -156l134 -38l-143 -122l-205 58l-20 215l143 122l13 -141l184 157z" />
    <glyph glyph-name="WhiteArrowL" unicode="&#x21e6;" 
d="M447 683q144 0 230.5 -101.5t61.5 -243.5q-25 -143 -140 -243.5t-257 -100.5q-143 0 -230 101t-62 243q26 144 140.5 244.5t256.5 100.5zM694 338q10 62 -3 117q-13 54 -47 95t-84 64q-51 24 -113 24q-61 0 -120 -24q-58 -22 -107 -64q-47 -40 -81 -95q-34 -57 -44 -117
q-11 -60 3 -116q13 -54 47 -95q35 -43 84 -65q54 -23 113 -23q60 0 121 23q58 23 106 65q50 43 81 95q34 56 44 116zM492 532l-96 -127h221l-23 -133h-221l50 -127h-172l-77 193l145 194h173z" />
    <glyph glyph-name="WhiteArrowUp" unicode="&#x21e7;" 
d="M447 683q144 0 230.5 -101.5t61.5 -243.5q-25 -143 -140 -243.5t-257 -100.5q-143 0 -230 101t-62 243q26 144 140.5 244.5t256.5 100.5zM694 338q10 62 -3 117q-13 54 -47 95t-84 64q-51 24 -113 24q-61 0 -120 -24q-58 -22 -107 -64q-47 -40 -81 -95q-34 -57 -44 -117
q-11 -60 3 -116q13 -54 47 -95q35 -43 84 -65q54 -23 113 -23q60 0 121 23q58 23 106 65q50 43 81 95q34 56 44 116zM221 448l213 111l173 -111l-30 -173l-114 73l-39 -221h-133l39 221l-140 -73z" />
    <glyph glyph-name="WhiteArrowR" unicode="&#x21e8;" 
d="M447 683q144 0 230.5 -101.5t61.5 -243.5q-25 -143 -140 -243.5t-257 -100.5q-143 0 -230 101t-62 243q26 144 140.5 244.5t256.5 100.5zM694 338q10 62 -3 117q-13 54 -47 95t-84 64q-51 24 -113 24q-61 0 -120 -24q-58 -22 -107 -64q-47 -40 -81 -95q-34 -57 -44 -117
q-11 -60 3 -116q13 -54 47 -95q35 -43 84 -65q54 -23 113 -23q60 0 121 23q58 23 106 65q50 43 81 95q34 56 44 116zM366 532h172l78 -194l-146 -193h-172l95 127h-221l23 133h221z" />
    <glyph glyph-name="WhiteArrowD" unicode="&#x21e9;" 
d="M447 683q144 0 230.5 -101.5t61.5 -243.5q-25 -143 -140 -243.5t-257 -100.5q-143 0 -230 101t-62 243q26 144 140.5 244.5t256.5 100.5zM694 338q10 62 -3 117q-13 54 -47 95t-84 64q-51 24 -113 24q-61 0 -120 -24q-58 -22 -107 -64q-47 -40 -81 -95q-34 -57 -44 -117
q-11 -60 3 -116q13 -54 47 -95q35 -43 84 -65q54 -23 113 -23q60 0 121 23q58 23 106 65q50 43 81 95q34 56 44 116zM499 549l-39 -221l139 73l-31 -172l-212 -112l-174 112l31 172l113 -73l39 221h134z" />
    <glyph glyph-name="partialdiff" unicode="&#x2202;" horiz-adv-x="559" 
d="M290 677l29.5 -16.5t63 -48.5t76.5 -80.5t52 -112t7 -143.5q-27 -152 -95.5 -217t-183.5 -65q-96 0 -155 55.5t-46 133.5q11 61 57 105t100.5 63t107.5 19q37 0 63 -6q-1 32 -17.5 63t-39.5 52.5t-45.5 38t-38.5 24.5l-16 8zM249 121q65 0 100 142q-16 2 -25 2
q-51 0 -83 -22.5t-38 -59.5q-5 -26 7 -44t39 -18z" />
    <glyph glyph-name="uni2206" unicode="&#x2206;" horiz-adv-x="619" 
d="M495 474l89 -347l-23 -127h-526l22 127l211 347h227zM224 127h184l-57 196z" />
    <glyph glyph-name="product" unicode="&#x220f;" horiz-adv-x="658" 
d="M154 677h469l-119 -677h-173l96 543h-124l-96 -543h-172z" />
    <glyph glyph-name="summation" unicode="&#x2211;" horiz-adv-x="572" 
d="M537 677l-24 -134h-193l90 -205l-162 -204h193l-24 -134h-382l24 134l159 204l-87 205l23 134h383z" />
    <glyph glyph-name="minus" unicode="&#x2212;" horiz-adv-x="353" 
d="M67 304h241l-23 -128h-240z" />
    <glyph glyph-name="uni2215" unicode="&#x2215;" horiz-adv-x="548" 
d="M383 677h135l-353 -677h-135z" />
    <glyph glyph-name="uni2219" unicode="&#x2219;" horiz-adv-x="333" 
d="M81 442h207l-36 -207h-207z" />
    <glyph glyph-name="radical" unicode="&#x221a;" horiz-adv-x="750" 
d="M528 677h187l-24 -134h-85l-215 -543h-226l-50 247h-80l24 133h210l46 -243z" />
    <glyph glyph-name="infinity" unicode="&#x221e;" horiz-adv-x="787" 
d="M579 549q87 0 136 -60.5t33 -150.5q-16 -91 -82.5 -150.5t-151.5 -59.5q-27 0 -52 8t-41 19t-28 22.5t-17 19.5l-6 8l-5.5 -8.5t-17.5 -18.5t-30.5 -23t-44.5 -18.5t-59 -8.5q-87 0 -138.5 60t-35.5 150q17 92 80 151.5t148 59.5q44 0 81.5 -19.5t53.5 -38.5l15 -19
q2 3 6.5 8.5t20 18.5t33 23t45.5 18.5t57 8.5zM330 338q7 36 -6 60t-42 24t-50.5 -24t-27.5 -60q-7 -36 6 -59.5t42 -23.5t50.5 23.5t27.5 59.5zM584 338q6 36 -7 60t-42 24t-50 -23.5t-28 -60.5q-6 -36 7 -59.5t42 -23.5t50.5 23.5t27.5 59.5z" />
    <glyph glyph-name="integral" unicode="&#x222b;" horiz-adv-x="683" 
d="M542 683q32 0 58.5 -8.5t37.5 -16.5l10 -8l-61 -94q-15 12 -34 12q-41 0 -59 -66l-146 -530q-50 -181 -199 -181q-32 0 -60.5 8t-40.5 16l-13 8l61 94q10 -11 36 -11q20 0 33.5 15t23.5 51l146 530q49 181 207 181z" />
    <glyph glyph-name="approxequal" unicode="&#x2248;" horiz-adv-x="430" 
d="M157 195q22 0 54 -16t55 -16q20 0 42 8t34 16l13 8l-22 -127q-45 -32 -90 -32q-22 0 -54 16t-55 16q-20 0 -42 -8t-34 -16l-13 -8l22 127q45 32 90 32zM296 332q20 0 42 8t34 16l13 8l-22 -127q-45 -32 -90 -32q-22 0 -54 16t-55 16q-20 0 -42 -8t-34 -16l-13 -8l22 127
q45 32 90 32q22 0 54 -16t55 -16z" />
    <glyph glyph-name="notequal" unicode="&#x2260;" horiz-adv-x="393" 
d="M348 440l-44 -90h40l-22 -127h-80l-24 -49h95l-22 -128h-135l-44 -91h-67l45 91h-39l22 128h79l24 49h-94l22 127h134l44 90h66z" />
    <glyph glyph-name="lessequal" unicode="&#x2264;" horiz-adv-x="515" 
d="M480 488l-185 -102l149 -103l-75 -116l-305 219l382 219zM35 4l22 127h322l-22 -127h-322z" />
    <glyph glyph-name="greaterequal" unicode="&#x2265;" horiz-adv-x="497" 
d="M80 167l-34 116l186 103l-150 102l76 117l304 -219zM35 4l22 127h322l-22 -127h-322z" />
    <glyph glyph-name="COne" unicode="&#x2460;" 
d="M331 420l13 76l141 34l-69 -389h-98l51 288zM447 683q144 0 230.5 -101.5t61.5 -243.5q-25 -143 -140 -243.5t-257 -100.5q-143 0 -230 101t-62 243q26 144 140.5 244.5t256.5 100.5zM694 338q10 62 -3 117q-13 54 -47 95t-84 64q-51 24 -113 24q-61 0 -120 -24
q-58 -22 -107 -64q-47 -40 -81 -95q-34 -57 -44 -117q-11 -60 3 -116q13 -54 47 -95q35 -43 84 -65q54 -23 113 -23q60 0 121 23q58 23 106 65q50 43 81 95q34 56 44 116z" />
    <glyph glyph-name="CTwo" unicode="&#x2461;" 
d="M417 534q56 0 87 -33t22 -85q-6 -37 -33 -77t-49.5 -62.5t-62.5 -59.5h105l-13 -76h-182l-35 69q7 7 34.5 32l39 36t33 33.5t32 37t20.5 32.5t13 33q6 44 -36 44q-15 0 -29.5 -5t-22.5 -11l-7 -5l-18 61q40 36 102 36zM447 683q144 0 230.5 -101.5t61.5 -243.5
q-25 -143 -140 -243.5t-257 -100.5q-143 0 -230 101t-62 243q26 144 140.5 244.5t256.5 100.5zM694 338q10 62 -3 117q-13 54 -47 95t-84 64q-51 24 -113 24q-61 0 -120 -24q-58 -22 -107 -64q-47 -40 -81 -95q-34 -57 -44 -117q-11 -60 3 -116q13 -54 47 -95q35 -43 84 -65
q54 -23 113 -23q60 0 121 23q58 23 106 65q50 43 81 95q34 56 44 116z" />
    <glyph glyph-name="CThree" unicode="&#x2462;" 
d="M421 534q51 0 83.5 -30t23.5 -80q-5 -27 -20.5 -47t-28.5 -26l-13 -6q5 -3 13 -9t18.5 -32.5t4.5 -60.5q-10 -52 -46.5 -79t-91.5 -27q-28 0 -53.5 8.5t-36.5 16.5l-11 8l40 61q18 -18 49 -18q47 0 55 47t-36 47h-32l13 76h33q39 0 45 38q6 37 -34 37q-12 0 -24.5 -4
t-19.5 -8l-6 -5l-17 60q36 33 92 33zM447 683q144 0 230.5 -101.5t61.5 -243.5q-25 -143 -140 -243.5t-257 -100.5q-143 0 -230 101t-62 243q26 144 140.5 244.5t256.5 100.5zM694 338q10 62 -3 117q-13 54 -47 95t-84 64q-51 24 -113 24q-61 0 -120 -24q-58 -22 -107 -64
q-47 -40 -81 -95q-34 -57 -44 -117q-11 -60 3 -116q13 -54 47 -95q35 -43 84 -65q54 -23 113 -23q60 0 121 23q58 23 106 65q50 43 81 95q34 56 44 116z" />
    <glyph glyph-name="CFour" unicode="&#x2463;" 
d="M394 530h124l-39 -225h37l-13 -76h-38l-15 -88h-98l15 88h-139l14 76zM381 305l21 123l-82 -123h61zM447 683q144 0 230.5 -101.5t61.5 -243.5q-25 -143 -140 -243.5t-257 -100.5q-143 0 -230 101t-62 243q26 144 140.5 244.5t256.5 100.5zM694 338q10 62 -3 117
q-13 54 -47 95t-84 64q-51 24 -113 24q-61 0 -120 -24q-58 -22 -107 -64q-47 -40 -81 -95q-34 -57 -44 -117q-11 -60 3 -116q13 -54 47 -95q35 -43 84 -65q54 -23 113 -23q60 0 121 23q58 23 106 65q50 43 81 95q34 56 44 116z" />
    <glyph glyph-name="CFive" unicode="&#x2464;" 
d="M331 530h205l-13 -75h-111l-16 -69q6 1 19 1q54 0 82.5 -37t18.5 -95t-53.5 -88t-99.5 -30q-34 0 -61.5 8.5t-37.5 16.5l-11 8l40 61q26 -18 62 -18q55 0 65 49q4 24 -9 36.5t-42 12.5q-23 0 -39 -6l-40 44zM447 683q144 0 230.5 -101.5t61.5 -243.5
q-25 -143 -140 -243.5t-257 -100.5q-143 0 -230 101t-62 243q26 144 140.5 244.5t256.5 100.5zM694 338q10 62 -3 117q-13 54 -47 95t-84 64q-51 24 -113 24q-61 0 -120 -24q-58 -22 -107 -64q-47 -40 -81 -95q-34 -57 -44 -117q-11 -60 3 -116q13 -54 47 -95q35 -43 84 -65
q54 -23 113 -23q60 0 121 23q58 23 106 65q50 43 81 95q34 56 44 116z" />
    <glyph glyph-name="CSix" unicode="&#x2465;" 
d="M418 412q47 0 80 -35.5t21 -101.5q-12 -68 -54.5 -103t-97.5 -35q-62 0 -98.5 44.5t-23.5 116.5q10 55 36 100.5t56.5 71t59.5 42.5t49 23l19 6l22 -74q-56 -12 -101 -59q13 4 32 4zM421 275q6 29 -3 45t-27 16t-33 -16t-20 -45t4 -45.5t27 -16.5t32.5 16.5t19.5 45.5z
M447 683q144 0 230.5 -101.5t61.5 -243.5q-25 -143 -140 -243.5t-257 -100.5q-143 0 -230 101t-62 243q26 144 140.5 244.5t256.5 100.5zM694 338q10 62 -3 117q-13 54 -47 95t-84 64q-51 24 -113 24q-61 0 -120 -24q-58 -22 -107 -64q-47 -40 -81 -95q-34 -57 -44 -117
q-11 -60 3 -116q13 -54 47 -95q35 -43 84 -65q54 -23 113 -23q60 0 121 23q58 23 106 65q50 43 81 95q34 56 44 116z" />
    <glyph glyph-name="CSeven" unicode="&#x2466;" 
d="M308 449l14 81h225l-14 -81q-4 -4 -11.5 -12.5t-27.5 -37.5t-37 -61.5t-36 -86t-29 -110.5h-98q11 60 29.5 114t37 88t35.5 59t28 36l11 11h-127zM447 683q144 0 230.5 -101.5t61.5 -243.5q-25 -143 -140 -243.5t-257 -100.5q-143 0 -230 101t-62 243q26 144 140.5 244.5
t256.5 100.5zM694 338q10 62 -3 117q-13 54 -47 95t-84 64q-51 24 -113 24q-61 0 -120 -24q-58 -22 -107 -64q-47 -40 -81 -95q-34 -57 -44 -117q-11 -60 3 -116q13 -54 47 -95q35 -43 84 -65q54 -23 113 -23q60 0 121 23q58 23 106 65q50 43 81 95q34 56 44 116z" />
    <glyph glyph-name="CEight" unicode="&#x2467;" 
d="M430 534q59 0 94.5 -28t26.5 -75q-10 -58 -74 -88q60 -28 49 -94q-9 -53 -53 -82.5t-102 -29.5q-59 0 -96.5 30t-28.5 82q11 66 82 94q-54 29 -44 88q9 48 49 75.5t97 27.5zM429 259q4 20 -6 33t-27 13q-18 0 -32.5 -13t-17.5 -33q-4 -20 6 -33t27 -13q18 0 32.5 13
t17.5 33zM452 420q3 17 -5.5 27.5t-23.5 10.5q-16 0 -28 -10.5t-15 -27.5q-3 -18 5.5 -29t23.5 -11t27 11t16 29zM447 683q144 0 230.5 -101.5t61.5 -243.5q-25 -143 -140 -243.5t-257 -100.5q-143 0 -230 101t-62 243q26 144 140.5 244.5t256.5 100.5zM694 338
q10 62 -3 117q-13 54 -47 95t-84 64q-51 24 -113 24q-61 0 -120 -24q-58 -22 -107 -64q-47 -40 -81 -95q-34 -57 -44 -117q-11 -60 3 -116q13 -54 47 -95q35 -43 84 -65q54 -23 113 -23q60 0 121 23q58 23 106 65q50 43 81 95q34 56 44 116z" />
    <glyph glyph-name="CNine" unicode="&#x2468;" 
d="M427 534q60 0 95.5 -42t22.5 -119q-9 -52 -34.5 -96t-55 -70t-58 -44.5t-47.5 -25.5l-18 -7l-21 74q47 12 92 60q-17 -5 -32 -5q-46 0 -78.5 39.5t-21.5 104.5q11 64 56 97.5t100 33.5zM451 396q5 29 -4 45.5t-27 16.5t-32.5 -16.5t-19.5 -45.5q-5 -30 4 -45.5t27 -15.5
t32.5 16t19.5 45zM447 683q144 0 230.5 -101.5t61.5 -243.5q-25 -143 -140 -243.5t-257 -100.5q-143 0 -230 101t-62 243q26 144 140.5 244.5t256.5 100.5zM694 338q10 62 -3 117q-13 54 -47 95t-84 64q-51 24 -113 24q-61 0 -120 -24q-58 -22 -107 -64q-47 -40 -81 -95
q-34 -57 -44 -117q-11 -60 3 -116q13 -54 47 -95q35 -43 84 -65q54 -23 113 -23q60 0 121 23q58 23 106 65q50 43 81 95q34 56 44 116z" />
    <glyph glyph-name="CZero" unicode="&#x24ea;" 
d="M447 683q144 0 230.5 -101.5t61.5 -243.5q-25 -143 -140 -243.5t-257 -100.5q-143 0 -230 101t-62 243q26 144 140.5 244.5t256.5 100.5zM694 338q10 62 -3 117q-13 54 -47 95t-84 64q-51 24 -113 24q-61 0 -120 -24q-58 -22 -107 -64q-47 -40 -81 -95q-34 -57 -44 -117
q-11 -60 3 -116q13 -54 47 -95q35 -43 84 -65q54 -23 113 -23q60 0 121 23q58 23 106 65q50 43 81 95q34 56 44 116zM423 534q60 0 92 -47.5t14 -150.5q-19 -105 -62 -152t-100 -47q-60 0 -92 48t-14 151q18 104 61 151t101 47zM436 336q4 21 6 39l-96 -135q6 -32 26 -32
q42 0 64 128zM348 301l94 133q-4 30 -25 30q-42 0 -64 -128z" />
    <glyph glyph-name="lozenge" unicode="&#x25ca;" horiz-adv-x="577" 
d="M435 677l107 -339l-226 -338h-174l-107 338l226 339h174zM263 190l93 148l-41 149l-94 -149z" />
    <glyph glyph-name="BCOne" unicode="&#x278a;" 
d="M447 683q144 0 230.5 -101.5t61.5 -243.5q-25 -143 -140 -243.5t-257 -100.5q-143 0 -230 101t-62 243q26 144 140.5 244.5t256.5 100.5zM416 141l69 389l-141 -34l-13 -76l38 9l-51 -288h98z" />
    <glyph glyph-name="BCTwo" unicode="&#x278b;" 
d="M447 683q144 0 230.5 -101.5t61.5 -243.5q-25 -143 -140 -243.5t-257 -100.5q-143 0 -230 101t-62 243q26 144 140.5 244.5t256.5 100.5zM526 416q9 52 -22 85t-87 33q-28 0 -53.5 -9t-37.5 -18l-11 -9l18 -61q26 21 59 21q42 0 36 -44q-3 -15 -13 -33t-20.5 -32.5
t-32 -37t-33 -33.5l-39 -36t-34.5 -32l35 -69h182l13 76h-105q40 37 62.5 59.5t49.5 62.5t33 77z" />
    <glyph glyph-name="BCThree" unicode="&#x278c;" 
d="M447 683q144 0 230.5 -101.5t61.5 -243.5q-25 -143 -140 -243.5t-257 -100.5q-143 0 -230 101t-62 243q26 144 140.5 244.5t256.5 100.5zM528 424q9 50 -23.5 80t-83.5 30q-25 0 -48 -8t-33 -16l-11 -9l17 -60q23 17 50 17q40 0 34 -37q-6 -38 -45 -38h-33l-13 -76h32
q44 0 36 -47t-55 -47q-14 0 -26 4.5t-18 8.5l-5 5l-40 -61q37 -33 101 -33q55 0 91.5 27t46.5 79q6 34 -3 59.5t-21 33.5l-12 9q6 2 14.5 6.5t25.5 25t22 47.5z" />
    <glyph glyph-name="BCFour" unicode="&#x278d;" 
d="M381 305h-61l82 123zM447 683q144 0 230.5 -101.5t61.5 -243.5q-25 -143 -140 -243.5t-257 -100.5q-143 0 -230 101t-62 243q26 144 140.5 244.5t256.5 100.5zM516 305h-37l39 225h-124l-152 -225l-14 -76h139l-15 -88h98l15 88h38z" />
    <glyph glyph-name="BCFive" unicode="&#x278e;" 
d="M447 683q144 0 230.5 -101.5t61.5 -243.5q-25 -143 -140 -243.5t-257 -100.5q-143 0 -230 101t-62 243q26 144 140.5 244.5t256.5 100.5zM523 455l13 75h-205l-41 -181l40 -44q16 6 39 6q29 0 42 -12.5t9 -36.5q-10 -49 -65 -49q-16 0 -31.5 4.5t-23.5 8.5l-7 5l-40 -61
q33 -33 110 -33q56 0 99.5 30t53.5 88t-18.5 95t-82.5 37q-13 0 -19 -1l16 69h111z" />
    <glyph glyph-name="BCSix" unicode="&#x278f;" 
d="M391 336q18 0 27 -16t3 -45q-5 -29 -19.5 -45.5t-32.5 -16.5t-27 16.5t-4 45.5t20 45t33 16zM447 683q144 0 230.5 -101.5t61.5 -243.5q-25 -143 -140 -243.5t-257 -100.5q-143 0 -230 101t-62 243q26 144 140.5 244.5t256.5 100.5zM519 275q12 66 -21 101.5t-80 35.5
q-19 0 -32 -4q20 21 45 35.5t41 18.5l15 5l-22 74q-8 -2 -20.5 -6t-46.5 -22.5t-61.5 -43t-54.5 -70.5t-37 -101q-13 -72 23.5 -116.5t98.5 -44.5q55 0 97.5 35t54.5 103z" />
    <glyph glyph-name="BCSeven" unicode="&#x2790;" 
d="M447 683q144 0 230.5 -101.5t61.5 -243.5q-25 -143 -140 -243.5t-257 -100.5q-143 0 -230 101t-62 243q26 144 140.5 244.5t256.5 100.5zM533 449l14 81h-225l-14 -81h127l-11.5 -11.5t-27 -35t-36.5 -60t-36 -87t-30 -114.5h98q10 57 28.5 110t37 87.5t36 60.5t28.5 38z
" />
    <glyph glyph-name="BCEight" unicode="&#x2791;" 
d="M423 458q15 0 23.5 -10.5t5.5 -27.5q-4 -18 -16 -29t-27 -11t-23.5 11t-5.5 29q3 17 15 27.5t28 10.5zM396 305q17 0 27 -13t6 -33q-3 -20 -17.5 -33t-32.5 -13q-17 0 -27 13t-6 33q3 20 17.5 33t32.5 13zM447 683q144 0 230.5 -101.5t61.5 -243.5q-25 -143 -140 -243.5
t-257 -100.5q-143 0 -230 101t-62 243q26 144 140.5 244.5t256.5 100.5zM551 431q9 47 -26.5 75t-94.5 28q-57 0 -97 -27.5t-49 -75.5q-10 -59 44 -88q-71 -28 -82 -94q-9 -52 28.5 -82t96.5 -30q58 0 102 29.5t53 82.5q11 66 -49 94q64 30 74 88z" />
    <glyph glyph-name="BCNine" unicode="&#x2792;" 
d="M420 458q18 0 27 -16.5t4 -45.5t-19.5 -45t-32.5 -16t-27 15.5t-4 45.5q5 29 19.5 45.5t32.5 16.5zM447 683q144 0 230.5 -101.5t61.5 -243.5q-25 -143 -140 -243.5t-257 -100.5q-143 0 -230 101t-62 243q26 144 140.5 244.5t256.5 100.5zM545 373q13 77 -22.5 119
t-95.5 42q-55 0 -100 -33.5t-56 -97.5q-11 -65 21.5 -104.5t78.5 -39.5q15 0 32 5q-20 -21 -43 -36t-36 -20l-13 -4l21 -74q7 2 19.5 7t45.5 25t59.5 45t53 69.5t35.5 96.5z" />
    <glyph glyph-name="BlackArrowR" unicode="&#x27a1;" 
d="M447 683q144 0 230.5 -101.5t61.5 -243.5q-25 -143 -140 -243.5t-257 -100.5q-143 0 -230 101t-62 243q26 144 140.5 244.5t256.5 100.5zM470 145l146 193l-78 194h-172l50 -127h-221l-23 -133h221l-95 -127h172z" />
    <glyph glyph-name="WhiteArrowNE" unicode="&#x2b00;" 
d="M447 683q144 0 230.5 -101.5t61.5 -243.5q-25 -143 -140 -243.5t-257 -100.5q-143 0 -230 101t-62 243q26 144 140.5 244.5t256.5 100.5zM694 338q10 62 -3 117q-13 54 -47 95t-84 64q-51 24 -113 24q-61 0 -120 -24q-58 -22 -107 -64q-47 -40 -81 -95q-34 -57 -44 -117
q-11 -60 3 -116q13 -54 47 -95q35 -43 84 -65q54 -23 113 -23q60 0 121 23q58 23 106 65q50 43 81 95q34 56 44 116zM369 549l205 -58l20 -215l-144 -122l-13 140l-183 -156l-78 95l184 156l-135 38z" />
    <glyph glyph-name="WhiteArrowNW" unicode="&#x2b01;" 
d="M447 683q144 0 230.5 -101.5t61.5 -243.5q-25 -143 -140 -243.5t-257 -100.5q-143 0 -230 101t-62 243q26 144 140.5 244.5t256.5 100.5zM694 338q10 62 -3 117q-13 54 -47 95t-84 64q-51 24 -113 24q-61 0 -120 -24q-58 -22 -107 -64q-47 -40 -81 -95q-34 -57 -44 -117
q-11 -60 3 -116q13 -54 47 -95q35 -43 84 -65q54 -23 113 -23q60 0 121 23q58 23 106 65q50 43 81 95q34 56 44 116zM269 491l226 58l100 -122l-148 -38l129 -156l-111 -95l-129 156l-62 -140l-101 122z" />
    <glyph glyph-name="WhiteArrowSE" unicode="&#x2b02;" 
d="M447 683q144 0 230.5 -101.5t61.5 -243.5q-25 -143 -140 -243.5t-257 -100.5q-143 0 -230 101t-62 243q26 144 140.5 244.5t256.5 100.5zM694 338q10 62 -3 117q-13 54 -47 95t-84 64q-51 24 -113 24q-61 0 -120 -24q-58 -22 -107 -64q-47 -40 -81 -95q-34 -57 -44 -117
q-11 -60 3 -116q13 -54 47 -95q35 -43 84 -65q54 -23 113 -23q60 0 121 23q58 23 106 65q50 43 81 95q34 56 44 116zM453 382l63 141l100 -122l-96 -215l-225 -58l-101 122l148 38l-129 156l111 95z" />
    <glyph glyph-name="WhiteArrowSW" unicode="&#x2b03;" 
d="M447 683q144 0 230.5 -101.5t61.5 -243.5q-25 -143 -140 -243.5t-257 -100.5q-143 0 -230 101t-62 243q26 144 140.5 244.5t256.5 100.5zM694 338q10 62 -3 117q-13 54 -47 95t-84 64q-51 24 -113 24q-61 0 -120 -24q-58 -22 -107 -64q-47 -40 -81 -95q-34 -57 -44 -117
q-11 -60 3 -116q13 -54 47 -95q35 -43 84 -65q54 -23 113 -23q60 0 121 23q58 23 106 65q50 43 81 95q34 56 44 116zM352 382l184 157l78 -95l-184 -156l134 -38l-144 -122l-205 58l-20 215l144 122z" />
    <glyph glyph-name="BlackArrowL" unicode="&#x2b05;" 
d="M447 683q144 0 230.5 -101.5t61.5 -243.5q-25 -143 -140 -243.5t-257 -100.5q-143 0 -230 101t-62 243q26 144 140.5 244.5t256.5 100.5zM594 272l23 133h-221l96 127h-173l-145 -194l77 -193h172l-50 127h221z" />
    <glyph glyph-name="BlackArrowU" unicode="&#x2b06;" 
d="M447 683q144 0 230.5 -101.5t61.5 -243.5q-25 -143 -140 -243.5t-257 -100.5q-143 0 -230 101t-62 243q26 144 140.5 244.5t256.5 100.5zM577 275l30 173l-173 111l-213 -111l-31 -173l140 73l-39 -221h133l39 221z" />
    <glyph glyph-name="BlackArrowD" unicode="&#x2b07;" 
d="M447 683q144 0 230.5 -101.5t61.5 -243.5q-25 -143 -140 -243.5t-257 -100.5q-143 0 -230 101t-62 243q26 144 140.5 244.5t256.5 100.5zM568 229l31 172l-139 -73l39 221h-134l-39 -221l-113 73l-31 -172l174 -112z" />
    <glyph glyph-name="BlackArrowNE" unicode="&#x2b08;" 
d="M447 683q144 0 230.5 -101.5t61.5 -243.5q-25 -143 -140 -243.5t-257 -100.5q-143 0 -230 101t-62 243q26 144 140.5 244.5t256.5 100.5zM450 154l144 122l-20 215l-205 58l-144 -122l135 -38l-184 -156l78 -95l183 156z" />
    <glyph glyph-name="BlackArrowNW" unicode="&#x2b09;" 
d="M447 683q144 0 230.5 -101.5t61.5 -243.5q-25 -143 -140 -243.5t-257 -100.5q-143 0 -230 101t-62 243q26 144 140.5 244.5t256.5 100.5zM576 233l-129 156l148 38l-100 122l-226 -58l-96 -215l101 -122l62 140l129 -156z" />
    <glyph glyph-name="BlackArrowSE" unicode="&#x2b0a;" 
d="M447 683q144 0 230.5 -101.5t61.5 -243.5q-25 -143 -140 -243.5t-257 -100.5q-143 0 -230 101t-62 243q26 144 140.5 244.5t256.5 100.5zM520 186l96 215l-100 122l-63 -141l-129 157l-111 -95l129 -156l-148 -38l101 -122z" />
    <glyph glyph-name="BlackArrowSW" unicode="&#x2b0b;" 
d="M447 683q144 0 230.5 -101.5t61.5 -243.5q-25 -143 -140 -243.5t-257 -100.5q-143 0 -230 101t-62 243q26 144 140.5 244.5t256.5 100.5zM564 250l-134 38l184 156l-78 95l-184 -157l-13 141l-144 -122l20 -215l205 -58z" />
    <glyph glyph-name="sc.f" unicode="&#xa730;" horiz-adv-x="438" 
d="M394 428h-134l-16 -86h98l-24 -134h-97l-37 -208h-164l99 562h299z" />
    <glyph glyph-name="sc.s" unicode="&#xa731;" horiz-adv-x="381" 
d="M243 401q-3 -19 17.5 -46t46 -52t43.5 -66t11 -84q-12 -69 -69.5 -114t-130.5 -45q-46 0 -86 14t-57 28l-18 14l67 104q35 -27 79 -27q45 0 52 32q3 19 -10 40t-33 42t-39.5 44.5t-30.5 57t-4 71.5q12 66 69.5 110t127.5 44q27 0 50.5 -6t37 -14t23.5 -16.5t13 -14.5
l4 -6l-62 -96q-12 19 -48 19q-46 0 -53 -33z" />
    <glyph glyph-name="sc.q" unicode="&#xa7af;" horiz-adv-x="513" 
d="M300 568q98 0 153.5 -69t33.5 -189l-10 -58q-17 -101 -71 -165.5t-129 -84.5q-1 -42 32 -42h11l-19 -109h-12q-158 0 -146 154q-68 24 -101 88t-16 159l10 58q22 121 95 189.5t169 68.5zM318 281q13 76 3.5 114.5t-37.5 38.5q-29 0 -52.5 -39.5t-35.5 -113.5
q-27 -154 34 -154q28 0 51.5 39.5t36.5 114.5z" />
    <glyph glyph-name="BCZero" unicode="&#x1f10c;" 
d="M417 464q21 0 25 -30l-94 -133l5 35q22 128 64 128zM447 683q144 0 230.5 -101.5t61.5 -243.5q-25 -143 -140 -243.5t-257 -100.5q-143 0 -230 101t-62 243q26 144 140.5 244.5t256.5 100.5zM529 336q18 103 -14 150.5t-92 47.5q-58 0 -101 -47t-61 -151
q-18 -103 14 -151t92 -48q57 0 100 47t62 152zM372 208q-20 0 -26 32l96 135q-2 -18 -6 -39q-22 -128 -64 -128z" />
    <glyph glyph-name="a.ss01" horiz-adv-x="576" 
d="M383 474h148l-83 -474h-147l-10 44q-4 -6 -12.5 -14t-37.5 -22t-63 -14q-71 0 -108.5 55.5t-18.5 158.5l10 58q18 105 68 159.5t123 54.5q34 0 61 -12.5t37 -25.5l9 -12zM332 237q9 49 -0.5 79t-36.5 30t-46.5 -30t-28.5 -79t0 -79.5t36 -30.5t47 30t29 80z" />
    <glyph glyph-name="f.ss01" horiz-adv-x="391" 
d="M254 549q-36 0 -52 -69h103l-24 -134h-104l-91 -516l-171 -39l98 555h-56l24 134h55l4 22q16 89 67.5 135t118.5 46q35 0 65 -10.5t43 -21.5l12 -11l-65 -100q-9 9 -27 9z" />
    <glyph glyph-name="g.ss01" horiz-adv-x="678" 
d="M633 557l-20 -110q-57 0 -80 -10q65 -49 50 -133q-26 -151 -238 -151q-37 0 -72 8q2 -30 73 -30h20q99 0 151 -48.5t37 -133.5q-14 -81 -87.5 -119.5t-185.5 -38.5q-106 0 -175.5 43t-58.5 109q11 60 86 95q-16 28 -11 62q11 57 72 98q-60 50 -45 131q13 76 75.5 113.5
t160.5 37.5q37 0 65 -7q30 37 84 60.5t99 23.5zM278 -27q-27 0 -54 5q-9 -12 -10 -23q-4 -20 18 -28.5t64 -8.5q88 0 93 27q3 17 -17 22.5t-67 5.5h-27zM421 317q4 22 -8.5 33.5t-38.5 11.5q-55 0 -63 -45q-4 -22 8.5 -34t38.5 -12q55 0 63 46z" />
    <glyph glyph-name="t.ss01" horiz-adv-x="368" 
d="M211 347l-24 -137q-7 -42 1.5 -65.5t29.5 -23.5q11 0 20 3.5t12 7.5l4 3l42 -88l-5.5 -5.5t-16 -13t-26.5 -16.5t-35.5 -12.5t-44.5 -5.5q-67 0 -115.5 54.5t-34.5 136.5l68 385l172 43l-25 -139h90l-22 -127h-90z" />
    <glyph glyph-name="y.ss01" horiz-adv-x="671" 
d="M626 474l-220 -501q-45 -101 -134 -141.5t-227 -40.5l22 127q75 0 113.5 15.5t63.5 60.5h-51l-36 480h169l15 -286l115 286h170z" />
    <glyph glyph-name="sc.ae" horiz-adv-x="776" 
d="M707 428h-127l-16 -86h103l-20 -109h-102l-17 -99h127l-23 -134h-292l13 74h-102l-39 -74h-167l313 562h373zM372 183l31 176l-94 -176h63z" />
    <glyph glyph-name="sc.oe" horiz-adv-x="730" 
d="M661 428h-128l-15 -86h102l-19 -109h-102l-18 -99h128l-23 -134h-292q-27 -6 -54 -6q-98 0 -154 69t-35 189l10 58q22 122 94.5 190t168.5 68q28 0 53 -6h308zM343 281q13 76 3.5 114.5t-37.5 38.5q-29 0 -52.5 -39.5t-35.5 -113.5q-27 -154 34 -154q28 0 51.5 39.5
t36.5 114.5z" />
    <glyph glyph-name="sc.eth" horiz-adv-x="582" 
d="M397 562q71 0 112 -70t21 -182l-10 -58q-20 -116 -75 -184t-125 -68h-275l38 217h-30l22 128h31l38 217h253zM361 281q26 147 -35 147h-41l-15 -83h38l-23 -128h-37l-15 -83h41q61 0 87 147z" />
    <glyph glyph-name="sc.oslash" horiz-adv-x="563" 
d="M439 535q47 -31 67 -88.5t6 -136.5l-10 -58q-21 -121 -93.5 -189.5t-168.5 -68.5q-31 0 -61 8l-17 -35h-66l29 60q-47 31 -67.5 89t-6.5 136l10 58q22 121 95 189.5t169 68.5q30 0 60 -8l16 34h67zM213 208l109 224q-8 2 -13 2q-29 0 -52.5 -39.5t-35.5 -113.5
q-8 -45 -8 -73zM343 281q7 39 7 72l-108 -223q6 -3 13 -3q28 0 51.5 39.5t36.5 114.5z" />
    <glyph glyph-name="sc.germandbls" horiz-adv-x="586" 
d="M538 407q-6 -33 -26.5 -67t-23.5 -49q-5 -28 20.5 -85.5t18.5 -100.5q-9 -52 -49.5 -81.5t-105.5 -29.5q-29 0 -61.5 9t-50.5 19l-17 9l61 94q2 -1 6 -2t14.5 -2t19 1t16.5 10t11 21q4 23 -17.5 65t-16.5 73q3 18 16 44.5t17 50.5q9 55 -37 55q-45 0 -56 -55l-68 -386
h-164l68 386q15 87 78.5 134.5t153.5 47.5q91 0 148 -45t45 -116z" />
    <glyph glyph-name="sc.thorn" horiz-adv-x="570" 
d="M389 457q69 0 108 -46.5t24 -129.5q-15 -85 -62.5 -130.5t-116.5 -45.5h-114l-19 -105h-164l99 562h164l-18 -105h99zM357 281q5 25 -8 37t-44 12h-38l-17 -98h37q61 0 70 49z" />
    <glyph glyph-name="ampersand.ss01" horiz-adv-x="487" 
d="M63 31l16 87h268l-15 -87h-269zM391 267l46 -41l-62 -73l-45 41q-52 -41 -117 -41q-78 0 -125 41t-35 105q12 69 93 114q-33 63 -23 118q9 51 47 77t94 26q70 0 111 -41t31 -101q-8 -44 -44.5 -74t-75.5 -46q24 -28 40 -44q12 28 18 64h89q-14 -73 -42 -125zM234 511
q-6 -34 8 -69q46 28 53 69q5 34 -25 34q-31 0 -36 -34zM220 242q27 0 48 12q-42 42 -77 88q-19 -19 -23 -43q-5 -26 10 -41.5t42 -15.5z" />
    <glyph glyph-name="ln.zero" horiz-adv-x="535" 
d="M330 677q46 0 84 -17.5t68.5 -57.5t38 -105.5t-6.5 -161.5q-16 -92 -46.5 -160t-69.5 -106.5t-80.5 -56.5t-87.5 -18t-84 17.5t-68.5 57.5t-38 105t6.5 161q16 92 46.5 160.5t69.5 107t80.5 56.5t87.5 18zM346 335q36 211 -29 211t-103 -211q-36 -211 29 -211t103 211z
" />
    <glyph glyph-name="ln.one" horiz-adv-x="307" 
d="M79 611l243 60l-119 -671h-168l87 496l-66 -16z" />
    <glyph glyph-name="ln.two" horiz-adv-x="489" 
d="M500 474q-9 -48 -32.5 -95t-66.5 -96.5t-69 -76t-80 -76.5h180l-23 -130h-313l-61 119l60 55.5l66.5 62t56.5 57.5t55 63.5t35.5 55.5t22.5 57q6 32 -9 54t-52 22q-26 0 -51.5 -9t-38.5 -17l-12 -9l-30 104q8 7 22 17.5t59.5 27.5t92.5 17q98 0 151 -57t37 -146z" />
    <glyph glyph-name="ln.three" horiz-adv-x="505" 
d="M491 488q-8 -47 -35 -81t-50 -45l-23 -10q2 -1 5 -3t11.5 -9t15.5 -15.5t16 -23.5t12.5 -32t6 -41t-3.5 -52q-16 -90 -79.5 -136t-158.5 -46q-49 0 -92 14t-62 28l-19 13l68 106q32 -31 85 -31q81 0 95 82q7 39 -9.5 60t-52.5 21h-55l23 130h55q66 0 78 65q6 31 -10 47.5
t-48 16.5q-21 0 -42.5 -7t-32.5 -15l-11 -7l-30 104q7 6 20 15.5t54.5 25t84.5 15.5q88 0 144 -51.5t40 -137.5z" />
    <glyph glyph-name="ln.four" horiz-adv-x="544" 
d="M534 671l-68 -388h65l-23 -131h-65l-27 -152h-168l27 152h-240l23 131l262 388h214zM298 283l37 212l-142 -212h105z" />
    <glyph glyph-name="ln.five" horiz-adv-x="533" 
d="M500 540h-192l-27 -118q20 2 33 2q93 0 142 -64t32 -164q-18 -100 -92 -151t-171 -51q-59 0 -106.5 14t-65.5 28l-18 13l68 106q44 -31 108 -31q45 0 74 22.5t37 62.5q7 40 -15 62t-72 22q-36 0 -68 -10l-69 75l71 313h354z" />
    <glyph glyph-name="ln.six" horiz-adv-x="529" 
d="M340 467q81 0 137.5 -62t36.5 -175q-21 -116 -94 -176t-167 -60q-107 0 -170.5 76t-41.5 201q12 69 39.5 129.5t62 102t73 75.5t75 54t65.5 33.5t47 18.5l18 5l37 -127q-11 -2 -29 -7.5t-63.5 -32t-79.5 -63.5q27 8 54 8zM346 230q9 51 -7 78.5t-46 27.5t-55.5 -27.5
t-34.5 -78.5q-9 -50 6.5 -78t45.5 -28q31 0 56.5 28t34.5 78z" />
    <glyph glyph-name="ln.seven" horiz-adv-x="436" 
d="M84 671h387l-25 -140q-7 -7 -20 -21.5t-47.5 -64.5t-64 -106.5t-62 -148.5t-49.5 -190h-168q18 104 50 197.5t64.5 151.5t62 101.5t48.5 61.5l18 19h-219z" />
    <glyph glyph-name="ln.eight" horiz-adv-x="577" 
d="M564 499q-17 -101 -128 -150q104 -48 84 -162q-16 -91 -91 -142t-175 -51q-102 0 -166.5 51.5t-48.5 141.5q20 114 141 162q-93 48 -75 150q15 83 84 130.5t167 47.5q100 0 161 -48t47 -130zM355 203q6 35 -11 57t-48 22t-55.5 -22t-30.5 -57t11 -57t47 -22t55 22t32 57z
M393 480q5 30 -9 48t-41 18t-47.5 -18t-25.5 -48q-6 -30 8 -49t41 -19t47.5 19t26.5 49z" />
    <glyph glyph-name="ln.nine" horiz-adv-x="527" 
d="M308 677q104 0 164.5 -72t37.5 -205q-11 -65 -37.5 -123.5t-59.5 -99.5t-70 -76t-72 -56.5t-63.5 -36.5t-45.5 -21l-17 -6l-38 128q9 2 25 7.5t58 32t76 62.5q-27 -8 -54 -8q-80 0 -136 67.5t-36 181.5q19 109 96 167t172 58zM349 440q9 51 -7 78.5t-46 27.5t-55.5 -27.5
t-34.5 -78.5t7 -78.5t46 -27.5t55.5 27.5t34.5 78.5z" />
    <glyph glyph-name="ln.zeroalt" horiz-adv-x="529" 
d="M326 677q102 0 157.5 -82t24.5 -260q-32 -180 -106 -260.5t-173 -80.5q-102 0 -158 82t-25 259q32 180 106.5 261t173.5 81zM349 335q9 55 10 67l-165 -231q9 -56 44 -56q72 0 111 220zM197 276l162 229q-9 51 -43 51q-72 0 -110 -221q-6 -31 -9 -59z" />
    <glyph glyph-name="zero.zero" horiz-adv-x="557" 
d="M313 486q44 0 84.5 -16t72 -46t45 -81t2.5 -115t-38.5 -111t-65.5 -73t-79 -38t-86 -12q-44 0 -85 16t-73 46t-46.5 81.5t-3.5 114.5q11 64 39 111t67 73t80.5 38t86.5 12zM192 240q-5 -29 -3 -52l155 163q-17 17 -43 17q-37 0 -67.5 -34.5t-41.5 -93.5zM364 240
q6 27 4 51l-155 -163q19 -16 43 -16q37 0 67.5 34.5t40.5 93.5z" />
    <glyph glyph-name="braceleft.uc" horiz-adv-x="494" 
d="M338 752q37 0 67 -14t42 -28l12 -14l-60 -94q-15 16 -44 16q-21 0 -35.5 -14t-18.5 -37q-8 -47 -1 -98.5t3 -73.5q-11 -58 -81 -89q59 -33 49 -90q-4 -22 -29 -73t-33 -98q-5 -23 5 -37.5t31 -14.5q13 0 25 4t18 8l6 4l28 -94q-5 -6 -15.5 -15t-43.5 -24.5t-69 -15.5
q-70 0 -119 39t-38 104q7 37 32.5 91t33.5 103q4 23 -8 34t-39 11h-21l22 127h21q55 0 64 45q8 49 1.5 103t0.5 91q12 66 68 105t126 39z" />
    <glyph glyph-name="braceright.uc" horiz-adv-x="405" 
d="M349 369h20l-22 -127h-21q-56 0 -63 -45q-9 -49 -2.5 -102.5t-0.5 -91.5q-12 -68 -60.5 -105.5t-120.5 -37.5q-40 0 -73.5 14t-47.5 28l-13 13l61 94q14 -16 43 -16q21 0 35.5 14t18.5 38q9 47 2 98t-3 73q10 56 80 90q-59 32 -49 89q4 23 29 74t34 98q4 24 -6 37.5
t-31 13.5q-13 0 -25 -4t-18 -8l-6 -4l-27 94q6 6 17.5 15.5t47 25t71.5 15.5q71 0 115 -39t33 -105q-7 -37 -32 -90.5t-34 -103.5q-4 -22 8 -33.5t40 -11.5z" />
    <glyph glyph-name="parenleft.uc" horiz-adv-x="440" 
d="M395 625q-6 -4 -16 -12t-38 -37t-51 -62.5t-47 -89.5t-35 -118q-11 -66 -7.5 -118t17 -90t28 -62.5t26.5 -36.5l11 -12l-82 -127q-3 2 -7 6l-18.5 18.5t-26.5 30l-30 40.5t-30 51t-26.5 61t-19 71t-7.5 80t7 88q11 64 35 123.5t52.5 102.5t60 81t61 62.5t53.5 42.5t39 26
l14 8z" />
    <glyph glyph-name="parenright.uc" horiz-adv-x="340" 
d="M140 752q3 -2 7 -6.5t18 -19t26 -30.5l30 -42t30 -52t26 -61.5t19 -70.5t8 -78.5t-7 -85.5q-16 -88 -54 -166.5t-81.5 -127.5t-84.5 -85t-68 -51l-27 -16l-37 127q6 4 16.5 12t38 37t51 62.5t47.5 89.5t35 118q10 66 6.5 117.5t-17 89.5t-28 63t-26.5 37l-11 12z" />
    <glyph glyph-name="bracketleft.uc" horiz-adv-x="516" 
d="M449 618h-117l-110 -625h117l-23 -127h-281l155 880h281z" />
    <glyph glyph-name="bracketright.uc" horiz-adv-x="416" 
d="M100 746h281l-155 -880h-281l22 127h117l111 625h-117z" />
    <glyph glyph-name="exclamdown.uc" horiz-adv-x="362" 
d="M174 671h173l-31 -173h-172zM76 111l97 354h103l-28 -354l-21 -117h-172z" />
    <glyph glyph-name="questiondown.uc" horiz-adv-x="468" 
d="M431 331q-7 -37 -31.5 -65t-55 -44t-60.5 -28t-52 -24.5t-24 -27.5q-3 -13 8.5 -20t34.5 -7q28 0 56 6t43 12l14 6l29 -97q-6 -6 -19 -15t-57 -24t-94 -15q-76 0 -129 46t-42 108q8 45 43.5 78t73.5 47t70.5 28.5t34.5 27.5q3 20 -43 20q-24 0 -46.5 -5.5t-32.5 -11.5
l-11 -6l-27 90q6 7 18 17t53.5 27t89.5 17q73 0 119.5 -40.5t36.5 -99.5zM412 671l-31 -173h-172l30 173h173z" />
    <glyph glyph-name="colon.uc" horiz-adv-x="327" 
d="M35 66l30 172h173l-31 -172h-172zM120 546h172l-30 -173h-173z" />
    <glyph glyph-name="semicolon.uc" horiz-adv-x="390" 
d="M-25 -107l153 345h173l-206 -345h-120zM183 546h172l-30 -173h-173z" />
    <glyph glyph-name="plus.uc" horiz-adv-x="403" 
d="M276 399h92l-23 -127h-91l-16 -92h-128l16 92h-91l22 127h92l16 92h127z" />
    <glyph glyph-name="minus.uc" horiz-adv-x="353" 
d="M67 399h241l-23 -127h-240z" />
    <glyph glyph-name="equal.uc" horiz-adv-x="364" 
d="M35 142l22 127h241l-23 -127h-240zM88 445h241l-23 -127h-240z" />
    <glyph glyph-name="divide.uc" horiz-adv-x="464" 
d="M351 579l-26 -146h-147l26 146h147zM113 61l26 147h146l-26 -147h-146zM57 384h372l-23 -128h-371z" />
    <glyph glyph-name="multiply.uc" horiz-adv-x="400" 
d="M365 411l-86 -95l48 -87l-107 -69l-39 69l-63 -69l-83 69l86 95l-48 87l107 70l39 -70l63 70z" />
    <glyph glyph-name="guilsinglleft.uc" horiz-adv-x="378" 
d="M333 488l-149 -151l96 -152l-113 -80l-122 193l14 77l189 193z" />
    <glyph glyph-name="guilsinglright.uc" horiz-adv-x="378" 
d="M212 568l121 -193l-13 -77l-190 -193l-85 80l149 152l-95 151z" />
    <glyph glyph-name="guillemotleft.uc" horiz-adv-x="615" 
d="M333 488l-149 -151l96 -152l-113 -80l-122 193l14 77l189 193zM570 488l-149 -151l95 -152l-113 -80l-122 193l14 77l190 193z" />
    <glyph glyph-name="guillemotright.uc" horiz-adv-x="615" 
d="M448 568l122 -193l-14 -77l-190 -193l-85 80l149 152l-95 151zM333 375l-13 -77l-190 -193l-85 80l149 152l-95 151l113 80z" />
    <glyph glyph-name="less.uc" horiz-adv-x="452" 
d="M407 491l-188 -154l133 -155l-79 -123l-228 278l326 277z" />
    <glyph glyph-name="greater.uc" horiz-adv-x="452" 
d="M179 614l228 -277l-326 -278l-36 123l188 155l-133 154z" />
    <glyph glyph-name="emdash.uc" horiz-adv-x="561" 
d="M67 399h449l-23 -127h-448z" />
    <glyph glyph-name="endash.uc" horiz-adv-x="416" 
d="M67 399h304l-23 -127h-303z" />
    <glyph glyph-name="logicalnot.uc" horiz-adv-x="473" 
d="M67 377h361l-37 -210h-127l14 83h-233z" />
    <glyph glyph-name="hyphen.uc" horiz-adv-x="353" 
d="M67 399h241l-23 -127h-240z" />
    <glyph glyph-name="plusminus.uc" horiz-adv-x="437" 
d="M310 487h92l-23 -127h-91l-16 -92h-128l16 92h-91l22 127h92l16 92h127zM35 92l22 127h284l-22 -127h-284z" />
    <glyph glyph-name="notequal.uc" horiz-adv-x="393" 
d="M348 535l-44 -90h40l-22 -127h-80l-24 -49h95l-22 -127h-135l-44 -92h-67l45 92h-39l22 127h79l24 49h-94l22 127h134l44 90h66z" />
    <glyph glyph-name="approxequal.uc" horiz-adv-x="430" 
d="M157 291q22 0 54 -16.5t55 -16.5q20 0 42 8t34 16l13 9l-22 -128q-45 -32 -90 -32q-22 0 -54 16t-55 16q-20 0 -42 -8t-34 -16l-13 -8l22 127q45 33 90 33zM296 428q20 0 42 8t34 16l13 8l-22 -127q-45 -32 -90 -32q-22 0 -54 16t-55 16q-20 0 -42 -8t-34 -16l-13 -8
l22 127q45 32 90 32q22 0 54 -16t55 -16z" />
    <glyph glyph-name="lessequal.uc" horiz-adv-x="515" 
d="M480 584l-185 -103l149 -102l-75 -117l-305 219l382 219zM35 100l22 127h322l-22 -127h-322z" />
    <glyph glyph-name="greaterequal.uc" horiz-adv-x="497" 
d="M80 262l-34 117l186 102l-150 103l76 116l304 -219zM35 100l22 127h322l-22 -127h-322z" />
    <glyph glyph-name="at.uc" horiz-adv-x="829" 
d="M475 683q142 0 225 -105t59 -240q-34 -194 -159 -194q-30 0 -53.5 7t-36.5 17t-22 20.5t-12 17.5l-2 7q-1 -3 -3.5 -7.5t-12.5 -16.5t-22.5 -21t-33.5 -16.5t-46 -7.5q-73 0 -118 52.5t-29 141.5q16 92 80.5 143t160.5 51q40 0 84 -12t68 -24l24 -12l-33 -190
q-19 -105 27 -105q67 0 94 149q22 126 -48.5 216t-198.5 90q-127 0 -228 -89t-124 -217q-22 -123 51.5 -214t193.5 -91q33 0 71.5 6.5t60.5 13.5l22 7l16 -34q-78 -32 -177 -32q-61 0 -118 27t-97.5 72t-60 110t-7.5 135q26 151 141 248t264 97zM451 338l11 64q-9 15 -31 15
t-44 -21.5t-28 -57.5q-7 -38 2 -58t30 -20t37 20t23 58z" />
    <glyph glyph-name="zero.numr" horiz-adv-x="319" 
d="M202 680q55 0 83 -49t13 -134t-60.5 -134t-100.5 -49t-83 49t-13 134t60 134t101 49zM193 497q18 97 -6 97q-23 0 -41 -97q-17 -97 6 -97q24 0 41 97z" />
    <glyph glyph-name="one.numr" horiz-adv-x="169" 
d="M60 644l144 36l-64 -363h-105l44 249l-34 -9z" />
    <glyph glyph-name="two.numr" horiz-adv-x="271" 
d="M293 567q-12 -70 -112 -164h80l-16 -86h-173l-37 71q16 12 39.5 32t65.5 66.5t47 74.5q3 13 -4 23t-24 10q-12 0 -24.5 -6t-18.5 -12l-7 -6l-21 71q4 4 12 10.5t35.5 17.5t58.5 11q57 0 82.5 -32t16.5 -81z" />
    <glyph glyph-name="three.numr" horiz-adv-x="278" 
d="M291 580q-4 -23 -16 -41.5t-21 -25.5l-10 -7q4 -3 9 -9t12 -27.5t2 -47.5q-8 -49 -45.5 -78.5t-91.5 -29.5q-24 0 -47.5 9t-35.5 17l-12 9l47 73q14 -22 46 -22q29 0 36 31q4 31 -24 31h-38l16 86h38q24 0 28 23q2 9 -4.5 16t-19.5 7q-12 0 -23.5 -5t-16.5 -11l-6 -5
l-21 72q44 35 100 35q55 0 80 -28t18 -72z" />
    <glyph glyph-name="four.numr" horiz-adv-x="297" 
d="M312 677l-35 -197h33l-16 -86h-32l-14 -77h-105l13 77h-121l14 79l138 204h125zM176 467l16 93l-56 -93h40z" />
    <glyph glyph-name="five.numr" horiz-adv-x="292" 
d="M292 591h-98l-9 -40q2 0 6 0.5t6 0.5q48 0 74.5 -34.5t16.5 -84.5q-10 -55 -54.5 -87t-97.5 -32q-34 0 -59.5 9t-33.5 17l-8 9l46 71q16 -20 57 -20q39 0 45 33q2 14 -7 23t-26 9q-9 0 -19.5 -3t-16.5 -6l-5 -3l-40 54l39 170h199z" />
    <glyph glyph-name="six.numr" horiz-adv-x="288" 
d="M202 574q51 0 80 -29.5t17 -100.5q-11 -60 -55 -95t-98 -35q-55 0 -87.5 37.5t-20.5 106.5q9 53 34.5 96t54.5 66.5t57 40t46 21.5l19 6l25 -83q-42 -10 -72 -31zM193 444q8 43 -18 43t-34 -43q-8 -44 18 -44q27 0 34 44z" />
    <glyph glyph-name="seven.numr" horiz-adv-x="244" 
d="M63 677h216l-15 -85q-4 -3 -10 -10t-23.5 -32t-32.5 -54t-31.5 -77.5t-26.5 -101.5h-105q13 76 41.5 143t49.5 96l22 30h-101z" />
    <glyph glyph-name="eight.numr" horiz-adv-x="310" 
d="M323 580q-9 -48 -54 -76q42 -28 31 -82q-8 -47 -50.5 -77.5t-100.5 -30.5q-57 0 -88.5 30.5t-23.5 77.5q9 54 60 82q-36 28 -27 76q8 46 50.5 73t93.5 27t84 -27t25 -73zM197 430q2 13 -4 21.5t-18 8.5q-11 0 -20.5 -8.5t-11.5 -21.5t4 -21.5t18 -8.5q11 0 20.5 8.5
t11.5 21.5zM216 570q3 24 -17 24q-22 0 -25 -24q-5 -24 16 -24t26 24z" />
    <glyph glyph-name="nine.numr" horiz-adv-x="287" 
d="M190 680q57 0 88.5 -38.5t19.5 -105.5q-8 -47 -32 -88t-52.5 -66t-56 -43.5t-45.5 -26.5l-18 -7l-24 84q37 9 65 31q-46 0 -75 32q-33 35 -22 98q10 58 53.5 94t98.5 36zM195 550q8 44 -18 44t-34 -44t18 -44q27 0 34 44z" />
    <glyph glyph-name="zero.dnom" horiz-adv-x="319" 
d="M202 363q55 0 83 -49t13 -134t-60.5 -134t-100.5 -49t-83 49t-13 134t60 134t101 49zM193 180q18 97 -6 97q-23 0 -41 -97q-17 -97 6 -97q24 0 41 97z" />
    <glyph glyph-name="one.dnom" horiz-adv-x="169" 
d="M60 327l144 36l-64 -363h-105l44 249l-34 -9z" />
    <glyph glyph-name="two.dnom" horiz-adv-x="271" 
d="M293 250q-12 -70 -112 -164h80l-16 -86h-173l-37 71q16 12 39.5 32t65.5 66.5t47 74.5q3 13 -4 23t-24 10q-12 0 -24.5 -6t-18.5 -12l-7 -6l-21 71q4 4 12 10.5t35.5 17.5t58.5 11q57 0 82.5 -32t16.5 -81z" />
    <glyph glyph-name="three.dnom" horiz-adv-x="278" 
d="M291 264q-4 -24 -16 -42.5t-21 -25.5l-10 -7q4 -3 9 -9t12 -27.5t2 -47.5q-8 -49 -45.5 -78.5t-91.5 -29.5q-24 0 -48 8.5t-36 17.5l-11 9l47 73q14 -22 46 -22q29 0 36 31q4 31 -24 31h-38l16 86h38q24 0 28 23q2 9 -4.5 16t-19.5 7q-12 0 -23.5 -5.5t-16.5 -10.5l-6 -5
l-21 72q44 35 100 35q55 0 80 -28t18 -71z" />
    <glyph glyph-name="four.dnom" horiz-adv-x="297" 
d="M312 360l-35 -197h33l-16 -86h-32l-14 -77h-105l13 77h-121l14 79l138 204h125zM176 150l16 93l-56 -93h40z" />
    <glyph glyph-name="five.dnom" horiz-adv-x="292" 
d="M292 274h-98l-9 -40q4 1 12 1q48 0 74.5 -34t16.5 -85q-10 -55 -54.5 -87t-97.5 -32q-34 0 -59.5 8.5t-33.5 17.5l-8 9l46 71q16 -20 57 -20q39 0 45 33q2 14 -7.5 23.5t-25.5 9.5q-9 0 -19.5 -3.5t-16.5 -6.5l-5 -3l-40 54l39 170h199z" />
    <glyph glyph-name="six.dnom" horiz-adv-x="288" 
d="M202 257q51 0 80 -29.5t17 -100.5q-11 -60 -55 -95t-98 -35q-55 0 -87.5 37.5t-20.5 106.5q9 53 34.5 96t54.5 66.5t57 40t46 22.5l19 5l25 -83q-42 -9 -72 -31zM193 127q8 44 -18 44t-34 -44t18 -44q27 0 34 44z" />
    <glyph glyph-name="seven.dnom" horiz-adv-x="244" 
d="M63 360h216l-15 -84l-10 -10.5t-23.5 -32t-32.5 -54.5t-31.5 -77.5t-26.5 -101.5h-105q13 76 41.5 143t49.5 97l22 29h-101z" />
    <glyph glyph-name="eight.dnom" horiz-adv-x="310" 
d="M323 263q-9 -48 -54 -76q42 -28 31 -82q-8 -47 -50.5 -77.5t-100.5 -30.5q-57 0 -88.5 30.5t-23.5 77.5q9 54 60 82q-36 28 -27 76q8 46 50.5 73t93.5 27t84 -27t25 -73zM197 113q2 13 -4 21.5t-18 8.5q-11 0 -20.5 -8.5t-11.5 -21.5t4 -21.5t18 -8.5q11 0 20.5 8.5
t11.5 21.5zM216 253q3 24 -17 24q-22 0 -25 -24q-2 -10 2.5 -17t13.5 -7q21 0 26 24z" />
    <glyph glyph-name="nine.dnom" horiz-adv-x="287" 
d="M190 363q57 0 88.5 -38t19.5 -106q-8 -47 -32 -88t-52.5 -66t-56 -43.5t-45.5 -25.5l-18 -8l-24 84q37 9 65 31q-46 0 -75 32q-33 35 -22 98q10 59 53.5 94.5t98.5 35.5zM195 233q8 44 -18 44t-34 -44t18 -44q27 0 34 44z" />
    </font>
</defs>
</svg>
