<?xml version="1.0" standalone="no"?>
<!DOCTYPE svg PUBLIC "-//W3C//DTD SVG 20010904//EN"
 "http://www.w3.org/TR/2001/REC-SVG-20010904/DTD/svg10.dtd">
<svg version="1.0" xmlns="http://www.w3.org/2000/svg"
 width="700.000000pt" height="700.000000pt" viewBox="0 0 700.000000 700.000000"
 preserveAspectRatio="xMidYMid meet">
<metadata>
Created by potrace 1.11, written by Peter Selinger 2001-2013
</metadata>
<g transform="translate(0.000000,700.000000) scale(0.100000,-0.100000)"
fill="#000000" stroke="none">
<path d="M3300 6994 c-445 -38 -739 -103 -1085 -241 -820 -325 -1481 -941
-1864 -1735 -476 -985 -465 -2119 29 -3098 180 -356 388 -639 681 -925 393
-385 851 -660 1378 -829 515 -166 1087 -208 1619 -121 1387 228 2495 1245
2837 2605 76 303 100 504 100 850 0 279 -7 373 -46 600 -161 935 -711 1782
-1499 2307 -473 315 -994 505 -1575 573 -93 11 -496 21 -575 14z m645 -78
c668 -96 1257 -354 1755 -766 121 -101 338 -317 439 -438 386 -463 644 -1014
750 -1603 69 -377 69 -841 0 -1218 -195 -1080 -892 -2002 -1874 -2481 -385
-188 -739 -290 -1165 -335 -174 -19 -526 -19 -700 0 -674 72 -1277 320 -1810
743 -123 98 -426 400 -522 522 -431 543 -678 1154 -748 1849 -15 149 -12 503
5 665 172 1622 1431 2886 3058 3071 164 19 657 13 812 -9z"/>
<path d="M3317 6702 c-60 -11 -81 -19 -92 -36 -20 -31 -34 -359 -16 -371 23
-14 44 22 50 86 7 68 11 72 79 89 36 9 42 15 42 36 0 25 -2 26 -52 22 l-53 -3
0 50 c0 55 8 62 95 87 44 13 65 41 38 50 -7 2 -48 -2 -91 -10z"/>
<path d="M2970 6663 c-41 -14 -80 -29 -87 -35 -9 -7 -11 -50 -7 -161 7 -204 9
-219 37 -215 20 3 22 10 27 78 5 72 6 75 35 88 82 35 92 45 75 72 -8 12 -16
13 -56 2 -26 -7 -49 -11 -51 -8 -3 2 -5 26 -6 53 -2 47 -1 48 39 68 22 11 51
25 65 30 24 10 34 46 14 51 -5 1 -44 -9 -85 -23z"/>
<path d="M3883 6648 c-19 -23 -76 -231 -76 -276 0 -77 63 -116 149 -92 65 19
107 70 138 172 44 145 52 188 36 198 -22 14 -39 -7 -56 -69 -27 -98 -56 -185
-71 -207 -32 -50 -114 -55 -135 -10 -8 19 -4 46 21 136 18 61 31 121 29 132
-4 26 -21 33 -35 16z"/>
<path d="M2646 6583 c-4 -9 1 -53 10 -97 9 -45 17 -111 18 -148 1 -57 -2 -70
-23 -92 -24 -26 -63 -34 -88 -18 -19 12 -30 50 -48 162 -17 110 -24 126 -49
117 -20 -8 -20 -27 3 -158 21 -119 34 -154 72 -181 57 -43 164 20 189 110 11
43 -2 157 -32 280 -11 44 -40 58 -52 25z"/>
<path d="M4319 6563 c-20 -24 -139 -303 -139 -326 0 -32 43 -16 62 22 22 44
33 51 86 51 92 0 172 72 172 154 0 70 -30 99 -115 110 -42 6 -53 4 -66 -11z
m99 -59 c33 -23 30 -73 -6 -108 -32 -29 -95 -46 -107 -27 -9 15 24 106 48 131
22 24 36 25 65 4z"/>
<path d="M2203 6420 c-85 -52 -101 -71 -77 -91 11 -9 20 -9 41 0 14 6 28 9 31
6 3 -3 24 -66 47 -141 47 -149 57 -167 81 -143 14 15 11 29 -25 157 -23 77
-41 147 -41 156 0 8 14 28 31 44 21 19 30 36 26 46 -10 25 -27 20 -114 -34z"/>
<path d="M4950 6310 c-48 -12 -90 -61 -90 -106 0 -30 8 -43 40 -73 44 -40 49
-60 22 -84 -31 -28 -79 -22 -112 14 -31 35 -60 34 -60 -1 0 -50 53 -90 117
-90 47 0 114 39 129 76 21 50 18 62 -31 110 -25 24 -45 48 -45 53 0 5 12 19
27 31 33 26 79 21 105 -10 24 -30 58 -26 58 5 0 28 -43 75 -69 75 -9 0 -25 2
-36 4 -11 3 -36 1 -55 -4z"/>
<path d="M1928 6290 c-76 -59 -75 -188 2 -220 25 -11 37 -10 73 4 54 20 54 20
72 -7 12 -19 13 -30 4 -56 -13 -36 -35 -51 -78 -51 -26 0 -31 -4 -31 -24 0
-44 63 -49 111 -9 57 48 75 128 42 184 -20 33 -49 44 -93 35 -17 -3 -43 -9
-59 -12 -23 -5 -32 -2 -40 15 -24 44 22 111 75 111 19 0 24 5 24 25 0 22 -4
25 -39 25 -23 0 -48 -8 -63 -20z"/>
<path d="M5274 6142 c-15 -9 -172 -187 -207 -234 -30 -39 -29 -58 3 -58 23 0
252 258 248 280 -4 17 -28 24 -44 12z"/>
<path d="M3325 6129 c-927 -59 -1762 -614 -2179 -1447 -373 -744 -375 -1608
-5 -2351 130 -261 269 -459 474 -670 413 -427 925 -691 1520 -783 179 -27 548
-30 720 -5 485 70 941 265 1315 563 108 86 305 283 394 394 225 282 415 659
500 998 200 788 38 1601 -448 2246 -108 143 -305 349 -441 461 -435 356 -940
556 -1502 595 -162 11 -173 11 -348 -1z m549 -79 c1409 -208 2381 -1514 2175
-2924 -40 -275 -108 -493 -238 -761 -342 -703 -999 -1219 -1762 -1383 -449
-97 -910 -74 -1344 67 -930 301 -1614 1112 -1754 2077 -103 706 83 1399 527
1974 91 117 326 350 448 442 258 196 550 344 852 432 172 50 319 76 557 100
93 9 407 -5 539 -24z"/>
<path d="M4306 5795 c-48 -17 -93 -59 -105 -99 -34 -112 -89 -588 -111 -966
-14 -244 -14 -860 0 -1078 6 -96 9 -176 7 -179 -3 -2 -47 -20 -98 -39 -67 -26
-94 -32 -100 -23 -13 21 -22 418 -15 674 12 488 65 949 156 1365 17 74 30 143
30 153 0 31 -45 67 -83 67 -66 0 -77 -20 -103 -180 -64 -391 -88 -740 -89
-1275 0 -357 13 -747 29 -839 0 -4 -28 -19 -64 -31 -36 -12 -188 -70 -339
-129 l-274 -106 -321 25 c-550 43 -742 71 -853 122 -61 28 -53 66 33 146 159
146 361 227 568 227 122 0 203 -18 310 -68 96 -45 141 -91 130 -131 -12 -44
-5 -75 21 -98 55 -48 131 -11 154 73 41 154 -179 300 -509 335 -313 34 -633
-77 -830 -287 -100 -107 -113 -213 -36 -280 81 -70 231 -95 741 -124 197 -12
361 -23 363 -25 3 -2 -6 -9 -19 -14 -212 -82 -820 -355 -1054 -474 -212 -108
-275 -159 -275 -221 0 -85 46 -120 182 -137 245 -31 985 78 1443 213 402 118
626 259 643 404 13 120 -53 174 -320 259 l-117 38 -101 -44 -100 -43 83 -22
c151 -41 333 -120 372 -164 16 -18 16 -21 -16 -50 -45 -41 -210 -121 -339
-164 -266 -89 -671 -173 -1085 -225 -175 -22 -452 -45 -480 -39 -40 8 537 317
845 452 211 93 703 290 1000 402 l245 91 7 -26 c4 -14 14 -91 23 -171 34 -311
112 -729 197 -1065 78 -308 224 -771 255 -807 34 -39 113 -29 113 13 0 11 -24
77 -54 147 -160 376 -271 743 -356 1171 -59 301 -118 755 -99 767 13 8 193 74
195 71 1 -1 9 -78 18 -172 51 -512 154 -1053 297 -1555 66 -234 103 -346 121
-367 32 -39 104 -38 114 2 3 13 -9 57 -31 111 -223 546 -353 1106 -404 1744
-6 69 -11 159 -13 200 l-2 75 185 62 c361 121 616 183 757 183 64 0 85 -5 121
-25 56 -32 110 -33 139 -2 54 57 2 148 -93 162 -107 17 -376 -48 -815 -195
-146 -49 -274 -92 -284 -96 -18 -7 -19 1 -13 322 11 603 80 1141 218 1686 16
64 29 133 29 153 0 47 -22 98 -51 119 -28 19 -42 19 -93 1z"/>
<path d="M5330 5869 c-72 -67 -130 -125 -130 -129 0 -4 7 -13 15 -20 18 -15
25 -11 124 78 38 34 72 59 75 54 3 -5 -9 -54 -25 -111 -25 -81 -28 -105 -19
-116 7 -8 19 -15 28 -15 12 0 96 72 239 206 40 38 43 64 8 64 -16 0 -50 -23
-101 -69 -43 -39 -81 -68 -85 -66 -4 3 7 51 24 108 52 179 25 182 -153 16z"/>
<path d="M1398 5925 c-15 -8 -38 -39 -53 -70 -25 -51 -26 -59 -16 -102 15 -57
104 -189 142 -209 54 -27 101 -13 138 42 49 71 22 219 -39 219 -34 0 -89 -77
-70 -99 11 -14 15 -14 41 1 33 19 37 17 44 -23 4 -19 -1 -40 -14 -61 -39 -62
-87 -37 -163 81 -36 55 -40 101 -13 142 16 24 20 26 71 19 49 -6 54 -5 54 13
0 44 -74 73 -122 47z"/>
<path d="M1133 5673 c-25 -9 -12 -33 58 -113 39 -44 69 -84 65 -87 -6 -6 -33
0 -174 39 -36 10 -44 10 -58 -4 -11 -11 -13 -21 -7 -32 22 -39 240 -266 255
-266 37 0 18 44 -50 119 -37 41 -67 79 -67 85 0 13 3 12 109 -20 44 -13 87
-24 97 -24 23 0 42 26 32 44 -13 24 -234 266 -241 265 -4 0 -13 -3 -19 -6z"/>
<path d="M5711 5669 c-37 -15 -147 -96 -170 -125 -61 -77 14 -174 134 -174 56
0 85 14 85 41 0 19 -4 20 -63 14 -54 -6 -65 -4 -90 15 -50 40 -32 77 75 149
57 38 98 47 138 31 35 -15 44 -37 35 -90 -9 -53 17 -66 52 -26 31 36 29 77 -4
117 -45 53 -128 74 -192 48z"/>
<path d="M6015 5387 c-11 -8 -69 -40 -129 -71 -133 -70 -156 -85 -156 -100 0
-7 26 -41 58 -75 41 -44 64 -62 77 -60 32 7 28 33 -10 79 -34 40 -35 44 -19
61 27 30 66 24 102 -17 34 -38 65 -42 70 -9 2 12 -8 31 -23 45 -35 33 -32 46
16 71 49 24 71 17 120 -39 30 -34 62 -40 66 -12 4 21 -110 140 -133 140 -11 0
-28 -6 -39 -13z"/>
<path d="M859 5314 c-12 -15 -4 -26 66 -92 121 -114 195 -173 214 -170 28 6
23 34 -11 66 -75 69 -243 212 -249 212 -4 0 -13 -7 -20 -16z"/>
<path d="M728 5132 c-3 -10 8 -53 25 -95 17 -42 27 -80 24 -83 -3 -3 -20 4
-36 16 -36 25 -66 23 -66 -5 0 -20 64 -72 208 -171 76 -53 101 -59 105 -28 2
16 -8 30 -37 50 -22 16 -41 34 -41 41 0 7 21 14 48 18 65 9 92 21 92 44 0 26
-10 28 -102 18 -55 -5 -84 -5 -93 3 -7 6 -32 56 -55 110 -40 96 -62 121 -72
82z"/>
<path d="M6287 4873 c-15 -14 -6 -30 24 -44 l32 -15 -119 -48 c-138 -56 -156
-68 -132 -92 14 -14 29 -10 169 47 85 34 161 68 169 75 13 12 12 16 -5 33 -20
19 -95 51 -119 51 -7 0 -16 -3 -19 -7z"/>
<path d="M542 4748 c-30 -30 -9 -58 180 -230 52 -49 103 -88 112 -88 35 0 29
31 -14 75 -43 44 -43 45 -34 92 l9 48 47 0 c26 0 53 6 60 13 24 24 -15 41
-167 71 -170 35 -177 35 -193 19z m169 -78 c21 -12 26 -45 8 -56 -11 -6 -69
42 -69 58 0 11 38 10 61 -2z"/>
<path d="M6335 4671 c-48 -20 -70 -75 -51 -129 8 -23 7 -23 -56 -16 -34 3 -67
7 -73 8 -5 0 -11 -9 -13 -21 -4 -29 16 -38 139 -57 146 -24 173 -22 215 17 61
56 48 141 -29 187 -33 21 -96 25 -132 11z m120 -76 c30 -29 32 -58 5 -85 -24
-24 -41 -25 -79 -5 -65 33 -50 115 20 115 18 0 39 -9 54 -25z"/>
<path d="M417 4443 c-20 -19 3 -49 98 -133 58 -51 103 -96 100 -100 -2 -4 -51
-10 -107 -14 -108 -7 -138 -21 -119 -54 10 -17 303 -132 338 -132 29 0 39 18
21 36 -8 8 -48 28 -88 44 -88 33 -100 50 -38 51 115 3 127 35 42 114 -32 30
-56 56 -53 59 3 3 39 -5 79 -19 75 -26 95 -23 88 11 -2 13 -48 35 -163 80
-159 62 -186 70 -198 57z"/>
<path d="M6524 4405 c-4 -9 3 -38 15 -65 26 -61 27 -83 4 -76 -10 3 -54 10
-98 16 -44 6 -108 15 -142 21 -76 13 -98 8 -83 -20 5 -11 18 -22 27 -25 42
-13 359 -56 375 -50 26 8 23 31 -18 128 -28 66 -41 86 -55 86 -11 0 -22 -7
-25 -15z"/>
<path d="M6590 4109 c0 -6 7 -38 16 -71 8 -33 13 -62 12 -64 -4 -3 -171 39
-258 65 -55 17 -80 14 -80 -9 0 -24 17 -33 110 -58 41 -11 119 -33 172 -48 53
-14 104 -24 114 -20 20 8 17 36 -16 144 -19 63 -25 72 -46 72 -13 0 -24 -5
-24 -11z"/>
<path d="M396 3655 c-12 -33 26 -71 58 -59 19 7 21 45 4 62 -17 17 -55 15 -62
-3z"/>
<path d="M6537 3543 c-17 -16 -6 -54 18 -65 27 -12 55 2 55 28 0 25 -57 54
-73 37z"/>
<path d="M293 3363 c-11 -28 17 -38 125 -43 64 -3 106 -9 104 -15 -1 -5 -44
-33 -95 -61 -95 -53 -118 -82 -80 -102 10 -5 97 -11 193 -13 165 -4 175 -3
178 15 6 29 -15 36 -108 36 -85 0 -130 7 -130 19 0 3 40 27 89 53 97 53 114
67 105 92 -8 22 -24 24 -212 29 -138 4 -164 3 -169 -10z"/>
<path d="M6280 3101 c0 -12 20 -34 51 -55 49 -36 50 -38 47 -84 l-3 -47 -42
-3 c-49 -4 -72 -24 -53 -47 11 -13 41 -15 189 -13 l176 3 3 26 c4 31 -6 39
-138 121 -205 127 -230 138 -230 99z m227 -165 l28 -24 -27 -7 c-33 -8 -68 10
-68 35 0 28 32 26 67 -4z"/>
<path d="M547 2979 c-12 -7 -16 -17 -12 -32 24 -84 75 -119 75 -52 0 29 4 35
21 35 29 0 79 -53 79 -84 0 -39 -35 -55 -137 -62 -89 -7 -90 -7 -123 23 -41
37 -43 75 -6 110 15 14 25 30 23 36 -7 23 -54 19 -83 -6 -38 -33 -39 -88 -2
-144 46 -70 124 -89 282 -68 141 20 141 167 -1 239 -36 18 -89 20 -116 5z"/>
<path d="M6216 2782 c-17 -16 -2 -43 37 -64 51 -29 57 -58 12 -71 -55 -16 -80
-32 -80 -52 0 -18 6 -20 56 -17 l56 3 37 -51 c59 -82 143 -105 195 -52 35 34
53 135 28 159 -14 14 -258 127 -309 143 -14 4 -29 6 -32 2z m224 -149 c70 -28
88 -65 50 -103 -28 -28 -64 -25 -98 10 -30 30 -40 58 -34 98 4 25 11 24 82 -5z"/>
<path d="M605 2576 c-137 -28 -150 -33 -153 -53 -3 -20 1 -23 30 -23 47 0 329
57 341 69 5 5 7 17 4 25 -9 22 -45 19 -222 -18z"/>
<path d="M6094 2438 c-10 -16 27 -45 155 -123 115 -69 121 -77 118 -140 -2
-24 2 -31 20 -33 18 -3 24 5 37 50 35 124 39 147 26 163 -18 22 -28 19 -45
-15 -9 -16 -20 -30 -25 -30 -6 0 -43 19 -83 43 -172 103 -188 110 -203 85z"/>
<path d="M753 2400 c-39 -23 -48 -53 -33 -109 14 -52 2 -71 -45 -71 -40 0 -75
38 -75 80 0 31 -25 47 -46 29 -38 -31 3 -119 69 -149 53 -25 84 -25 123 -1 38
23 48 58 34 112 -13 49 -1 69 40 69 43 0 72 -30 75 -76 1 -21 3 -42 4 -46 2
-13 29 -9 45 8 39 38 2 123 -67 154 -54 25 -84 25 -124 0z"/>
<path d="M973 2124 c-3 -9 8 -33 26 -59 36 -51 38 -61 12 -75 -35 -18 -59 -11
-91 30 -52 66 -106 41 -55 -26 14 -18 25 -37 25 -42 0 -10 -71 -42 -94 -42 -8
0 -33 23 -56 50 -42 51 -66 62 -76 35 -8 -21 95 -155 120 -155 10 0 184 70
279 112 26 12 52 27 57 33 14 17 -95 155 -121 155 -11 0 -22 -7 -26 -16z"/>
<path d="M6072 1898 c-7 -7 -12 -19 -12 -28 0 -24 34 -52 54 -44 31 12 15 84
-19 84 -6 0 -16 -5 -23 -12z"/>
<path d="M1075 1812 c-64 -30 -154 -91 -165 -111 -23 -44 -12 -87 35 -139 25
-28 55 -54 66 -57 14 -5 61 17 159 75 77 45 150 90 163 100 l22 19 -35 36
c-78 82 -172 111 -245 77z m136 -55 c48 -32 49 -59 2 -87 -182 -109 -194 -113
-233 -63 -27 35 -25 59 8 90 32 31 138 83 168 83 12 0 36 -10 55 -23z"/>
<path d="M5622 1678 c-19 -19 -15 -32 33 -128 65 -130 63 -134 -39 -60 -76 55
-90 59 -106 30 -9 -17 4 -48 77 -193 70 -136 92 -172 108 -172 35 0 28 40 -25
145 -29 56 -50 104 -46 107 3 3 37 -18 75 -47 114 -84 139 -54 72 86 -23 47
-41 87 -41 90 0 14 31 -1 79 -39 76 -59 95 -69 109 -55 22 22 12 36 -60 95
-76 61 -93 73 -167 123 -51 34 -53 34 -69 18z"/>
<path d="M5314 1355 c-4 -9 3 -34 15 -55 37 -66 20 -91 -43 -65 -43 18 -70 19
-84 2 -14 -17 -4 -30 38 -52 46 -23 50 -30 50 -93 0 -89 49 -152 118 -152 28
0 44 9 83 49 27 26 49 54 49 62 -1 24 -186 314 -204 317 -9 2 -19 -4 -22 -13z
m131 -256 c22 -42 23 -48 9 -68 -19 -27 -67 -28 -94 -1 -28 28 -27 98 2 135
l22 28 19 -24 c10 -13 30 -45 42 -70z"/>
<path d="M1417 1244 c-4 -4 -7 -18 -7 -30 0 -29 42 -43 66 -23 25 21 13 54
-21 57 -17 2 -34 0 -38 -4z"/>
<path d="M1887 1143 c-17 -16 -3 -35 42 -58 27 -13 53 -30 57 -36 3 -6 -5 -23
-20 -37 l-26 -26 -47 17 c-66 24 -83 22 -83 -7 0 -17 9 -27 30 -36 52 -22 55
-35 16 -77 l-35 -38 -48 18 c-73 28 -94 31 -103 16 -5 -7 -6 -17 -4 -21 9 -14
142 -78 163 -78 13 0 52 39 113 113 115 137 138 167 138 178 0 11 -145 79
-169 79 -10 0 -21 -3 -24 -7z"/>
<path d="M5037 1143 c-14 -14 -5 -40 70 -194 55 -113 82 -159 94 -159 36 0 28
35 -50 196 -73 151 -93 178 -114 157z"/>
<path d="M4836 1025 c-3 -8 17 -76 44 -151 28 -75 50 -144 50 -153 0 -10 -11
-28 -25 -41 -29 -27 -33 -60 -7 -60 30 1 172 108 172 131 0 25 -22 34 -50 19
-26 -14 -45 -1 -55 38 -3 15 -25 73 -47 130 -30 77 -44 102 -58 102 -10 0 -20
-7 -24 -15z"/>
<path d="M2170 937 c-36 -18 -56 -41 -97 -107 -80 -127 -72 -178 35 -220 66
-25 94 -25 116 -1 27 30 186 284 186 297 0 16 -80 43 -145 50 -40 4 -59 0 -95
-19z m125 -41 c43 -18 42 -20 -42 -149 -63 -97 -64 -98 -96 -92 -95 21 -98 61
-14 183 27 40 72 71 105 72 7 0 28 -7 47 -14z"/>
<path d="M4604 895 c-4 -8 -4 -23 -1 -33 49 -174 91 -309 99 -319 5 -6 16 -9
25 -6 19 8 14 54 -22 178 -14 50 -32 114 -41 143 -11 40 -19 52 -35 52 -11 0
-22 -7 -25 -15z"/>
<path d="M4403 843 c-4 -9 1 -62 10 -117 9 -56 12 -105 8 -109 -4 -4 -36 27
-71 68 -74 88 -90 100 -115 82 -16 -12 -16 -20 4 -143 36 -221 40 -234 62
-234 30 0 32 21 14 130 -9 56 -14 104 -11 108 4 3 26 -16 49 -43 110 -132 147
-151 147 -76 0 39 -47 328 -56 342 -9 15 -34 10 -41 -8z"/>
<path d="M2562 818 c-18 -6 -47 -27 -65 -48 -37 -40 -97 -174 -97 -215 0 -63
53 -100 132 -93 71 7 114 45 166 147 51 101 56 154 17 191 -28 27 -101 35
-153 18z m96 -54 c32 -22 28 -53 -18 -145 -32 -63 -48 -83 -75 -96 -44 -21
-86 -9 -99 28 -7 21 -1 42 32 112 34 72 47 90 74 102 43 18 59 18 86 -1z"/>
<path d="M2925 721 c-38 -17 -95 -72 -95 -91 0 -4 6 -13 14 -19 12 -10 23 -5
57 28 33 33 49 41 78 41 69 0 76 -31 35 -152 -19 -57 -33 -83 -54 -98 -51 -37
-112 -19 -122 35 -2 12 -13 21 -25 23 -47 7 -38 -93 10 -116 42 -20 66 -23
109 -11 66 17 108 68 141 170 30 95 32 116 15 154 -24 53 -92 68 -163 36z"/>
<path d="M3965 728 c-57 -20 -101 -73 -116 -138 -12 -53 -2 -80 30 -80 37 1
95 32 99 53 3 14 -4 17 -32 17 -31 0 -36 3 -36 24 0 28 51 76 81 76 10 0 28
-9 39 -20 17 -17 20 -33 20 -117 -1 -102 -5 -115 -50 -146 -34 -24 -48 -21
-81 14 -32 35 -59 33 -59 -3 0 -13 7 -34 16 -46 49 -70 171 -35 215 62 34 75
21 253 -21 291 -22 20 -69 26 -105 13z"/>
<path d="M3462 458 c-26 -26 -9 -68 29 -68 15 0 40 46 33 64 -7 19 -45 21 -62
4z"/>
</g>
</svg>
