<?xml version="1.0" standalone="no"?>
<!DOCTYPE svg PUBLIC "-//W3C//DTD SVG 1.1//EN" "http://www.w3.org/Graphics/SVG/1.1/DTD/svg11.dtd" >
<svg>
<metadata>
Created by FontForge 20090622 at Tue Apr  7 05:27:00 2020
 By deploy user
Copyright (c) 2020 by Vintage Type Company. All rights reserved.
</metadata>
<defs>
<font id="VTCFellbaumGrotesk-Heavy" horiz-adv-x="809" >
  <font-face 
    font-family="VTC Fellbaum Grotesk"
    font-weight="800"
    font-stretch="normal"
    units-per-em="1000"
    panose-1="0 0 0 0 0 0 0 0 0 0"
    ascent="750"
    descent="-250"
    x-height="474"
    cap-height="677"
    bbox="-110 -210 1448 900"
    underline-thickness="50"
    underline-position="-50"
    unicode-range="U+000D-U+1F10C"
  />
<missing-glyph horiz-adv-x="637" 
d="M60 683h517v-689h-517v689zM190 155l73 183l-73 184v-367zM277 94h83l-41 104zM319 478l41 105h-83zM447 155v367l-73 -184z" />
    <glyph glyph-name="db.01" unicode="&#x3a;&#x29;" horiz-adv-x="802" 
d="M401 686q143 0 244.5 -101.5t101.5 -244.5t-101.5 -244.5t-244.5 -101.5t-244.5 101.5t-101.5 244.5t101.5 244.5t244.5 101.5zM589 152q35 35 57 84q21 50 21 104q0 53 -21 103q-21 47 -57 85q-38 36 -85 57q-52 21 -103 21t-104 -21q-49 -22 -84 -57q-38 -38 -57 -85
q-21 -50 -21 -103q0 -54 21 -104q21 -49 57 -84q35 -36 84 -57t104 -21t103 21q47 19 85 57zM531 327v40h93v-80h-16q-14 -73 -72.5 -121.5t-134.5 -48.5q-77 0 -135 48.5t-72 121.5h-17v80h93v-40q0 -54 38.5 -92t92.5 -38t92 38t38 92zM334 315q-22 0 -35 34.5t-13 80.5
q0 47 13 81.5t35 34.5t34.5 -34.5t12.5 -81.5v-3q-3 1 -9 1q-12 0 -21 -8.5t-9 -21.5q0 -12 9 -21t21 -9q2 0 3 1q-13 -54 -41 -54zM468 315q-22 0 -35 34.5t-13 80.5q0 47 13 81.5t35 34.5t34.5 -34.5t12.5 -81.5v-3q-3 1 -9 1q-12 0 -21 -8.5t-9 -21.5q0 -12 9 -21t21 -9
q2 0 2 1q-12 -54 -40 -54z" />
    <glyph glyph-name="db.02" unicode="&#x3c;&#x33;" horiz-adv-x="596" 
d="M425 558q49 0 82.5 -34.5t33.5 -84.5q0 -48 -25 -98.5t-61 -88t-71.5 -68.5t-60.5 -47l-25 -16q-10 6 -26.5 17t-58 45.5t-73.5 70t-58.5 86.5t-26.5 99q0 50 33.5 84.5t82.5 34.5q85 0 127 -89q42 89 127 89z" />
    <glyph glyph-name="db.03" unicode="&#x3c;&#x3c;&#x33;" horiz-adv-x="582" 
d="M490 519q37 -39 37 -93q0 -58 -36 -120q-26 -44 -75 -91q-24 -22 -50.5 -42.5t-40.5 -30t-17 -10.5l-17 -11l-17 11q-43 22 -107 83q-45 42 -76 91q-36 62 -36 120q0 54 37 93q39 39 94 39q47 0 85 -29q12 -8 20 -18q8 10 20 18q38 29 86 29q56 0 93 -39zM370 264
q91 87 91 162q0 26 -19 47q-18 18 -45 18q-25 0 -45 -15q-18 -13 -31 -40l-30 -63l-30 63q-25 55 -75 55q-28 0 -46 -18q-18 -19 -18 -47q0 -76 91 -163q41 -39 78 -63q44 30 79 64z" />
    <glyph glyph-name="db.04" unicode="db&#x2e;&#x30;&#x31;" horiz-adv-x="799" 
d="M622 216l-111 111l-100 -100l111 -111l-122 -122l-123 122l111 111l-100 100l-111 -111l-122 122l122 123l111 -111l100 100l-111 111l123 122l122 -122l-111 -111l100 -100l111 111l122 -123z" />
    <glyph glyph-name="db.05" unicode="db&#x2e;&#x30;&#x32;" horiz-adv-x="799" 
d="M590 185l-95 95l-37 -37l95 -96l-153 -153l-154 153l95 96l-37 37l-95 -95l-154 153l154 154l95 -95l37 37l-95 95l154 154l153 -154l-95 -95l37 -37l95 95l154 -154zM590 395l-56 -57l56 -56l57 56zM209 282l56 56l-56 57l-57 -57zM400 91l56 56l-56 57l-57 -57z
M343 338l57 -56l56 56l-56 57zM400 473l56 56l-56 57l-57 -57z" />
    <glyph glyph-name="db.06" unicode="db&#x2e;&#x30;&#x33;" horiz-adv-x="597" 
d="M385 268h157v-173h-173v157h-141v-157h-173v173h157v141h-157v173h173v-157h141v157h173v-173h-157v-141z" />
    <glyph glyph-name="db.07" unicode="db&#x2e;&#x30;&#x34;" horiz-adv-x="597" 
d="M407 312h135v-217h-217v135h-53v-135h-217v217h135v53h-135v217h217v-135h53v135h217v-217h-135v-53zM124 433h80v80h-80v-80zM204 163v80h-80v-80h80zM259 298h80v80h-80v-80zM474 513h-80v-80h80v80zM394 163h80v80h-80v-80z" />
    <glyph glyph-name="db.08" unicode="db&#x2e;&#x30;&#x37;" horiz-adv-x="799" 
d="M691 338q53 -31 53 -82q0 -39 -22 -60.5t-58 -21.5q-35 0 -66.5 20.5t-69 58t-57.5 52.5l-38 -39q14 -19 52 -56.5t58.5 -69t20.5 -66.5q0 -36 -21.5 -58t-60.5 -22q-51 0 -82 53q-33 -53 -83 -53q-39 0 -60.5 22t-21.5 58q0 35 20.5 66.5t58.5 69t52 56.5l-38 39
q-20 -15 -57.5 -52.5t-69 -58t-66.5 -20.5q-36 0 -58 21.5t-22 60.5q0 51 53 82q-53 33 -53 83q0 38 22.5 60t57.5 22t66.5 -20.5t69 -58t57.5 -52.5l38 38q-15 20 -52.5 57.5t-58 69t-20.5 66.5q0 36 21.5 58t60.5 22q51 0 82 -53q33 53 83 53q39 0 60.5 -22t21.5 -58
q0 -35 -20.5 -66.5t-58 -69t-52.5 -57.5l38 -38q20 15 57.5 52.5t69 58t66.5 20.5q36 0 58 -21.5t22 -60.5q0 -50 -53 -83z" />
    <glyph glyph-name="db.09" unicode="db&#x2e;&#x30;&#x38;" horiz-adv-x="799" 
d="M744 412q0 -40 -28 -74q28 -33 28 -74q0 -49 -31 -80q-31 -29 -76 -29q-39 0 -77 23q23 -38 23 -77q0 -46 -30 -76q-29 -31 -79 -31q-41 0 -74 28q-34 -28 -74 -28q-51 0 -80 31q-30 30 -30 76q0 39 23 77q-38 -23 -77 -23q-45 0 -76 29q-31 31 -31 80q0 41 28 74
q-28 34 -28 74q0 49 31 80q30 30 76 30q39 0 77 -23q-23 38 -23 77q0 46 30 76q29 31 80 31q40 0 73 -28q34 28 74 28q51 0 80 -31q30 -30 30 -76q0 -39 -23 -77q38 23 77 23q46 0 76 -30q31 -31 31 -80zM326 611q-38 0 -38 -35q0 -24 15 -45t47 -53q37 -39 48 -54h3
q11 15 48 54q21 21 32 33.5t20.5 30.5t9.5 34q0 35 -38 35q-25 0 -43 -30l-30 -52l-31 52q-18 30 -43 30zM443 338l-43 44l-44 -44l44 -43zM162 227q16 0 34 9.5t30 20t34 31.5q27 29 54 49v3q-20 14 -54 48l-34 32t-29.5 20t-34.5 10q-35 0 -35 -38q0 -25 30 -43l52 -31
l-52 -30q-30 -18 -30 -44q0 -37 35 -37zM474 66q37 0 37 35q0 24 -15.5 45t-46.5 52q-33 35 -48 55h-3q-15 -20 -48 -55q-21 -20 -32 -32.5t-20.5 -30t-9.5 -34.5q0 -35 38 -35q25 0 43 30l31 52l30 -52q18 -30 44 -30zM642 308l-52 30l52 31q30 18 30 43q0 38 -35 38
q-16 0 -34.5 -10t-29.5 -20l-34 -32q-34 -34 -54 -48v-3q27 -20 54 -49q22 -21 34 -31.5t30 -20t34 -9.5q35 0 35 37q0 26 -30 44z" />
    <glyph glyph-name="db.10" unicode="db&#x2e;&#x30;&#x39;" horiz-adv-x="768" 
d="M687 268q25 -25 25.5 -56t-26.5 -59q-36 -36 -96 -20q15 -61 -21 -97q-28 -27 -58.5 -26.5t-55.5 25.5t-33 61.5t-8 90.5t-3 77h-54q-4 -25 -3.5 -78t-7.5 -89.5t-33 -61.5t-55.5 -25.5t-58.5 26.5q-36 36 -21 97q-60 -16 -96 20q-27 28 -27 59t25 56q26 25 62.5 33
t89.5 7.5t77 2.5v54q-24 4 -77 3.5t-90 7.5t-62 33t-25 55.5t27 59.5q36 36 96 20q-15 60 21 96q29 28 58.5 27.5t55.5 -25.5q25 -25 33 -61.5t7.5 -89.5t3.5 -78h54q3 23 3 77t8 90.5t33 61.5t55 25.5t59 -27.5q36 -36 21 -96q60 16 96 -20q27 -28 26.5 -59t-25.5 -56
t-61.5 -33t-89.5 -7.5t-78 -3.5v-54q24 -3 77.5 -2.5t90 -7.5t61.5 -33z" />
    <glyph glyph-name="db.11" unicode="db&#x2e;&#x31;&#x30;" horiz-adv-x="771" 
d="M683 300q33 -33 33 -74q0 -44 -35 -79q-29 -29 -72 -32q-3 -43 -32 -73q-36 -34 -79 -34q-41 0 -74 33q-28 28 -38 70q-12 -43 -39 -70q-33 -33 -74 -33q-43 0 -79 34q-29 30 -32 72q-44 5 -72 33q-35 35 -35 79q0 41 33 74q28 28 70 38q-43 12 -70 39q-33 33 -33 74
q0 44 35 79q29 29 72 32q3 43 32 72q35 35 79 35q41 0 74 -33q27 -27 39 -70q10 42 38 70q33 33 74 33q44 0 79 -35q29 -29 32 -72q43 -3 72 -32q35 -35 35 -79q0 -41 -33 -74q-27 -27 -70 -39q42 -10 70 -38zM326 277l-2 2q-24 -4 -73 -4q-32 -1 -46.5 -1.5t-34.5 -6.5
t-31 -17q-25 -26 1 -52q18 -18 52 -9l59 15l-15 -59q-9 -34 9 -52q27 -27 52 -1q25 25 25 112q0 48 4 73zM324 398l2 2q-4 24 -4 73q0 86 -25 112q-25 25 -52 -1q-18 -18 -9 -52l15 -59l-59 15q-34 9 -52 -9q-26 -27 -1 -52t112 -25q49 0 73 -4zM417 307v62h-63v-62h63z
M445 400l2 -2q24 4 73 4q87 0 112 25t-1 52q-18 18 -52 9l-59 -15l15 59q9 34 -9 52q-26 26 -52 1q-25 -26 -25 -112q0 -49 -4 -73zM631 198q27 26 1 52q-11 11 -31 17t-34.5 6.5t-46.5 1.5q-49 0 -73 4l-2 -2q4 -25 4 -73q0 -87 25 -112q26 -26 52 1q18 18 9 52l-15 59
l59 -15q34 -9 52 9z" />
    <glyph glyph-name="db.12" unicode="db&#x2e;&#x31;&#x31;" horiz-adv-x="724" 
d="M514 382l155 86l-87 -267h-440l-87 267l155 -86l152 210zM142 85v69h440v-69h-440z" />
    <glyph glyph-name="db.13" unicode="db&#x2e;&#x31;&#x32;" horiz-adv-x="724" 
d="M618 492l51 -42l-86 -262h-443l-85 262l51 42l110 -61l117 161h58l116 -161zM532 259l41 127l-86 -48l-125 173l-125 -173l-86 48l41 -127h340zM151 85v71h422v-71h-422z" />
    <glyph glyph-name="db.14" unicode="db&#x2e;&#x31;&#x33;" horiz-adv-x="521" 
d="M55 683h411v-689l-206 95l-205 -95v689z" />
    <glyph glyph-name="db.15" unicode="db&#x2e;&#x31;&#x34;" horiz-adv-x="537" 
d="M55 683h427v-689l-213 99l-214 -99v689zM413 103v511h-288v-511l144 67z" />
    <glyph glyph-name="db.16" unicode="db&#x2e;&#x31;&#x35;" horiz-adv-x="1440" 
d="M1264 382h121v-54h-121l-264 -264l-140 140l-140 -140l-140 140l-140 -140l-264 264h-121v54h121l264 264l140 -140l140 140l140 -140l140 140zM720 570l-102 -102l102 -102l102 102zM440 140l102 102l-113 113l113 113l-102 102l-215 -215zM505 355l75 -75l75 75l-75 75
zM720 140l102 102l-102 102l-102 -102zM785 355l75 -75l75 75l-75 75zM1000 140l215 215l-215 215l-102 -102l113 -113l-113 -113z" />
    <glyph glyph-name="db.17" unicode="db&#x2e;&#x31;&#x36;" horiz-adv-x="1440" 
d="M1264 382h121v-54h-121l-264 -264l-140 140l-140 -140l-140 140l-140 -140l-264 264h-121v54h121l264 264l140 -140l140 140l140 -140l140 140zM542 242l-113 113l113 113l-102 102l-215 -215l215 -215zM720 140l102 102l-102 102l-102 -102zM720 366l102 102l-102 102
l-102 -102zM1000 140l215 215l-215 215l-102 -102l113 -113l-113 -113z" />
    <glyph glyph-name="db.18" unicode="db&#x2e;&#x31;&#x37;" horiz-adv-x="608" 
d="M341 461q-39 23 -70 57t-39 53q-18 41 -7.5 75.5t35.5 36.5q47 5 82 -60q2 -3 8.5 -20.5t17.5 -39.5t26 -41q23 -31 58 -57t66 -37q5 -2 6.5 -5.5t-1 -6.5t-8.5 -3q-35 -2 -84 10.5t-90 37.5zM515 265q4 0 7 -2t3.5 -4.5t-1.5 -5t-6 -3.5q-30 -10 -65.5 -37t-58.5 -58
q-15 -19 -26 -40t-18 -40t-8 -21q-35 -65 -82 -60q-25 2 -35.5 36.5t7.5 75.5q8 19 38.5 53t70.5 57q40 25 88.5 37.5t85.5 11.5zM541 351q11 -2 11 -12t-11 -13q-312 -85 -374 -85q-47 0 -79.5 28.5t-32.5 69.5t33 70t79 29q55 0 374 -87z" />
    <glyph glyph-name="db.19" unicode="db&#x2e;&#x31;&#x38;" horiz-adv-x="608" 
d="M93 413q-4 0 -7 2t-3.5 4t1.5 5t6 4q31 11 66 37t58 57q15 19 26 41t17.5 39.5t8.5 20.5q35 66 82 60q25 -2 35.5 -36.5t-7.5 -75.5q-8 -19 -39 -53t-70 -57q-41 -25 -90 -37.5t-84 -10.5zM442 438q46 0 78.5 -29t32.5 -70t-32.5 -69.5t-78.5 -28.5q-60 0 -375 85
q-11 3 -11 13t11 12q322 87 375 87zM267 216q40 -23 70.5 -57t38.5 -53q18 -41 7.5 -75.5t-35.5 -36.5q-47 -6 -82 60q-1 2 -8 21t-18 40t-26 40q-23 31 -58.5 58t-65.5 37q-5 1 -6.5 5t1 7t8.5 3q37 1 85.5 -11.5t88.5 -37.5z" />
    <glyph glyph-name="db.20" unicode="db&#x2e;&#x30;&#x35;" horiz-adv-x="799" 
d="M539 543l-139 -140l-140 140l140 140zM260 134l140 140l139 -140l-139 -140zM195 478l140 -140l-140 -140l-140 140zM604 478l140 -140l-140 -140l-140 140z" />
    <glyph glyph-name="db.21" unicode="db&#x2e;&#x30;&#x36;" horiz-adv-x="799" 
d="M562 521l-162 -163l-163 163l163 162zM400 582l-62 -61l62 -62l61 62zM237 156l163 163l162 -163l-162 -162zM400 95l61 61l-61 62l-62 -62zM217 501l163 -163l-163 -162l-162 162zM156 338l61 -61l62 61l-62 62zM582 501l162 -163l-162 -162l-163 162zM520 338l62 -61
l61 61l-61 62z" />
    <glyph glyph-name="fi" unicode="fi" horiz-adv-x="609" 
d="M244 480h290v-480h-143v364h-147v-364h-143v364h-56v116h56q0 97 58.5 150t147.5 53q38 0 72 -10t49 -20l14 -10l-42 -90q-25 14 -70 14q-38 0 -62 -23.5t-24 -63.5z" />
    <glyph glyph-name="fl" unicode="fl" horiz-adv-x="624" 
d="M431 653l118 30v-683h-143v364h-162v-364h-143v364h-56v116h56q0 96 62.5 149.5t155.5 53.5q61 0 112 -30zM406 480v71q-26 16 -73 16q-39 0 -64 -24t-25 -63h162z" />
    <glyph glyph-name="ffi" unicode="ffi" horiz-adv-x="839" 
d="M522 480h272v-480h-143v364h-129v-364h-142v364h-136v-364h-143v364h-56v116h56q0 97 61 150t151 53q80 0 138 -42q54 42 135 42q38 0 71.5 -10t48.5 -20l14 -10l-42 -90q-24 14 -69 14q-38 0 -62.5 -23.5t-24.5 -63.5zM380 480q0 42 12 77q-28 10 -59 10
q-38 0 -63.5 -23.5t-25.5 -63.5h136z" />
    <glyph glyph-name="ffl" unicode="ffl" horiz-adv-x="859" 
d="M697 653l117 30v-683h-143v364h-162v-364h-143v364h-122v-364h-143v364h-56v116h56q0 97 61 150t151 53q75 0 133 -39q56 39 132 39q65 0 119 -30zM366 480q0 44 14 81q-24 6 -47 6q-38 0 -63.5 -23.5t-25.5 -63.5h122zM671 480v72q-35 15 -73 15t-63.5 -23.5
t-25.5 -63.5h162z" />
    <glyph glyph-name="fj" unicode="fj" horiz-adv-x="579" 
d="M244 480h290v-509q0 -95 -65 -138t-169 -43v116q91 0 91 98v360h-147v-364h-143v364h-56v116h56q0 97 58.5 150t147.5 53q38 0 72 -10t49 -20l14 -10l-42 -90q-25 14 -70 14q-38 0 -62 -23.5t-24 -63.5z" />
    <glyph glyph-name="tt" unicode="tt" horiz-adv-x="703" 
d="M573 480h85v-116h-85v-364h-143v364h-158v-364h-143v364h-84v116h84v202l143 37v-239h158v202l143 37v-239z" />
    <glyph glyph-name="ft" unicode="ft" horiz-adv-x="676" 
d="M547 480h84v-116h-84v-364h-143v364h-160v-364h-143v364h-56v116h56q0 99 42 151t116 52q29 0 55.5 -8.5t38.5 -16.5l12 -8l-42 -89q-8 6 -28 6q-51 0 -51 -87h160v103l143 36v-139z" />
    <glyph glyph-name="cw.the" unicode="cw&#x2e;the" horiz-adv-x="1074" 
d="M906 450q58 0 92.5 -44.5t21.5 -119.5l-11 -63h-184q-4 -26 11 -40.5t43 -14.5q21 0 42.5 5.5t32.5 10.5l11 6l29 -61q-5 -5 -14.5 -12.5t-43 -19.5t-72.5 -12q-60 0 -107 42.5t-34 115.5l7 43q14 80 64 122t112 42zM916 294q12 73 -24 73q-41 0 -55 -73h79zM277 550
l-18 -100h68l-15 -83h-67l-24 -132q-5 -31 2 -49t23 -18q11 0 19 4t11 8l2 3l27 -58q-3 -4 -10 -11t-30 -18t-49 -11q-46 0 -80 34t-25 85l29 163h-55l15 83q35 0 51.5 15t24.5 59zM649 204q-3 -16 9.5 -26t31.5 -10l-15 -83q-60 0 -102.5 27.5t-32.5 80.5l22 127
q4 21 -5 34t-26 13q-18 0 -31.5 -13t-16.5 -34l-41 -230h-107l75 428h-46l15 79h152l-28 -158q28 11 58 11q48 0 83.5 -37t23.5 -104z" />
    <glyph glyph-name="cw.of" unicode="cw&#x2e;of" horiz-adv-x="686" 
d="M569 457l-1 -7h83l-14 -83h-84l-36 -203q-23 -136 -175 -136l15 83q24 0 37 15.5t20 57.5l32 183h-47l14 83h48l3 17q11 66 44.5 100.5t84.5 34.5q20 0 37 -6.5t24 -13.5l7 -6l-31 -66q-7 10 -21 10q-28 0 -40 -63zM359 290l-8 -43q-28 -161 -179 -161q-57 0 -96.5 44
t-26.5 117l7 43q15 81 63.5 120.5t116.5 39.5q61 0 98.5 -41t24.5 -119zM248 268q17 99 -27 99t-61 -99q-18 -99 26 -99q45 0 62 99z" />
    <glyph glyph-name="cw.for" unicode="cw&#x2e;for" horiz-adv-x="979" 
d="M394 450l-14 -83h-84l-36 -203q-24 -136 -175 -136l15 83q24 0 36.5 15.5t20.5 57.5l32 183h-47l14 83h48l3 17q11 66 44 100.5t84 34.5q20 0 37.5 -6.5t24.5 -13.5l7 -6l-31 -66q-7 10 -21 10q-30 0 -40 -63l-1 -7h83zM558 450q61 0 98.5 -41t24.5 -119l-8 -43
q-28 -161 -179 -161q-57 0 -96.5 44t-26.5 117l7 43q15 81 63.5 120.5t116.5 39.5zM570 268q17 99 -27 99t-61 -99q-18 -99 26 -99t62 99zM922 450q14 0 28.5 -4t21.5 -8l7 -3l-38 -82q-10 14 -32 14q-18 0 -32.5 -17t-20.5 -50l-37 -209h-107l49 276h-37l14 79h94l12 -27
q36 31 78 31z" />
    <glyph glyph-name="cw.by" unicode="cw&#x2e;by" horiz-adv-x="795" 
d="M303 450q54 0 83.5 -45.5t16.5 -118.5l-7 -43q-13 -76 -59.5 -116.5t-114.5 -40.5q-59 0 -103 42.5t-31 114.5l48 275h-41l14 79h148l-31 -177q31 30 77 30zM292 268q18 99 -32 99q-47 0 -64 -99t29 -99q50 0 67 99zM653 473q61 0 92.5 -37.5t21.5 -99.5l-47 -267
q-12 -70 -54 -103t-102 -33q-57 0 -96.5 34t-27.5 100h94q-4 -24 7 -37.5t29 -13.5q19 0 28 12.5t14 41.5l10 52q-22 -16 -67 -16q-47 0 -81.5 37t-22.5 103l21 120h-41l14 79h147l-29 -167q-16 -90 28 -90q43 0 59 90l13 76q6 36 -25 36z" />
    <glyph glyph-name="cw.and" unicode="cw&#x2e;and" horiz-adv-x="1259" 
d="M1129 203q-3 -16 10 -26t32 -10l-15 -83q-36 0 -65 19.5t-26 37.5q-1 -2 -2.5 -6t-10 -14t-19.5 -17.5t-31.5 -13.5t-45.5 -6q-57 0 -94 45t-24 116l8 43q28 162 143 162q21 0 38.5 -9t24.5 -19l7 -9l19 105h-53l14 80h160zM1036 267q16 99 -24 99q-44 0 -60 -99
q-18 -100 25 -100q41 0 59 100zM761 203q-3 -16 9.5 -26t31.5 -10l-14 -83q-38 0 -70 10t-52.5 35.5t-13.5 62.5l22 127q4 21 -5 34t-26 13q-18 0 -31.5 -13t-17.5 -34l-41 -231h-107l49 278h-37l14 79h94l13 -28q41 33 94 33q48 0 83.5 -37t23.5 -104zM381 205
q-3 -17 9 -27.5t32 -10.5l-15 -83q-44 0 -74 19.5t-27 37.5q-1 -2 -2.5 -6t-9 -14t-18 -17.5t-29.5 -13.5t-43 -6q-55 0 -91 39.5t-26 92.5q7 40 41 65.5t75.5 35t91.5 9.5q4 23 -7.5 31.5t-35.5 8.5q-15 0 -33 -5t-29 -11l-11 -5l-30 64q5 5 15.5 11.5t45.5 18t73 11.5
q55 0 92 -33t27 -94zM276 219l7 38q-82 0 -90 -49q-3 -17 8 -29t28 -12q38 0 47 52z" />
    <glyph glyph-name="cw.with" unicode="cw&#x2e;with" horiz-adv-x="1498" 
d="M1036 550l-17 -100h67l-14 -83h-68l-23 -132q-6 -31 1.5 -49t23.5 -18q11 0 19 4t11 8l2 3l27 -58q-3 -4 -10 -11t-30 -18t-49 -11q-47 0 -80.5 34t-24.5 85l29 163h-56l15 83q36 0 52.5 15t24.5 59zM699 496l18 106h119l-19 -106h-118zM789 366l-29 -162q-3 -16 9.5 -26
t31.5 -10l-14 -83q-67 0 -105.5 32.5t-29.5 83.5l29 165h-41l14 79h149zM480 473q59 0 92.5 -39t23.5 -96l-20 -110q-24 -143 -145 -143q-32 0 -56 12.5t-32 24.5l-8 12q-4 -5 -12 -13.5t-38 -22t-66 -13.5q-56 0 -92 40.5t-25 102.5l24 138h-41l14 79h148l-33 -187
q-6 -33 -5.5 -53t7 -28.5t19.5 -8.5q19 0 31.5 20t21.5 70l33 187h107l-33 -187q-16 -90 24 -90t55 90l17 96q3 16 -4 26t-22 10zM1407 204q-3 -16 9.5 -26t31.5 -10l-14 -83q-60 0 -102.5 27.5t-33.5 80.5l23 127q4 21 -5 34t-27 13t-31 -13t-17 -34l-41 -230h-107l76 428
h-46l14 80h153l-28 -159q28 11 58 11q48 0 83 -36.5t23 -104.5z" />
    <glyph glyph-name="cw.in" unicode="cw&#x2e;in" horiz-adv-x="663" 
d="M162 602h119l-18 -106h-119zM248 445l-43 -242q-3 -16 10 -26t32 -10l-15 -83q-67 0 -105.5 32.5t-29.5 83.5l29 166h-41l14 79h149zM597 203q-3 -16 9.5 -26t31.5 -10l-15 -83q-60 0 -102.5 27t-32.5 81l22 127q4 21 -5 34t-27 13t-31 -13t-17 -34l-41 -231h-108l49 278
h-37l14 79h94l13 -28q41 33 95 33q48 0 83.5 -37t23.5 -104z" />
    <glyph glyph-name=".notdef" horiz-adv-x="637" 
d="M60 683h517v-689h-517v689zM190 155l73 183l-73 184v-367zM277 94h83l-41 104zM319 478l41 105h-83zM447 155v367l-73 -184z" />
    <glyph glyph-name=".null" horiz-adv-x="0" 
 />
    <glyph glyph-name="nonmarkingreturn" horiz-adv-x="333" 
 />
    <glyph glyph-name="NULL" horiz-adv-x="200" 
 />
    <glyph glyph-name="CR" unicode="&#xd;" horiz-adv-x="200" 
 />
    <glyph glyph-name="space" unicode=" " horiz-adv-x="200" 
 />
    <glyph glyph-name="exclam" unicode="!" horiz-adv-x="280" 
d="M75 0v150h150v-150h-150zM75 677h150v-117l-30 -362h-90l-30 362v117z" />
    <glyph glyph-name="quotedbl" unicode="&#x22;" horiz-adv-x="340" 
d="M52 474l-27 203h133l-27 -203h-79zM182 677h133l-27 -203h-79z" />
    <glyph glyph-name="numbersign" unicode="#" horiz-adv-x="611" 
d="M551 379h-98l-10 -87h88v-100h-99l-21 -192h-111l21 192h-65l-21 -192h-111l21 192h-85v100h96l9 87h-95v100h106l21 192h111l-21 -192h65l21 192h111l-20 -192h87v-100zM332 292l9 87h-64l-10 -87h65z" />
    <glyph glyph-name="dollar" unicode="$" horiz-adv-x="448" 
d="M200 457q0 -18 29.5 -43.5t64.5 -49t64.5 -65t29.5 -89.5q0 -50 -29 -84.5t-78 -47.5v-84h-97v80q-34 4 -65 16t-45 22l-14 9l43 91q50 -33 101 -33q20 0 33 10t13 24q0 16 -19.5 35.5t-47 40t-55 44.5t-47 57.5t-19.5 70.5q0 51 33.5 86t88.5 47v83h97v-83
q26 -5 47.5 -15t30.5 -18l9 -8l-41 -88q-34 26 -80 26q-47 0 -47 -34z" />
    <glyph glyph-name="percent" unicode="%" horiz-adv-x="926" 
d="M396 503q0 -83 -47.5 -131.5t-120.5 -48.5t-120.5 48.5t-47.5 131.5t47.5 131.5t120.5 48.5t120.5 -48.5t47.5 -131.5zM228 426q25 0 41 20t16 57t-16 57t-41 20t-41 -20t-16 -57t16 -57t41 -20zM698 353q73 0 120.5 -48t47.5 -131t-47.5 -131.5t-120.5 -48.5
t-120.5 48.5t-47.5 131.5t47.5 131t120.5 48zM698 96q25 0 41 20t16 58q0 37 -16 57t-41 20t-41 -20t-16 -57q0 -38 16 -58t41 -20zM522 677h117l-234 -677h-117z" />
    <glyph glyph-name="ampersand" unicode="&#x26;" horiz-adv-x="637" 
d="M511 147l66 -75l-90 -80l-15.5 17l-18.5 19t-15 16q-59 -50 -149 -50q-92 0 -160.5 53.5t-68.5 147.5q0 114 104 168q-52 86 -52 144q0 86 55.5 131t131.5 45t131 -45t55 -131q0 -42 -25.5 -79t-54 -56.5t-58.5 -31.5q29 -39 76 -92q4 21 5.5 42.5t1.5 33.5v11h115
q0 -109 -34 -188zM299 572q-44 0 -44 -54q0 -38 31 -92q57 33 57 92q0 26 -12 40t-32 14zM294 104q37 0 67 22q-83 88 -129 144q-29 -29 -29 -75q0 -40 26 -65.5t65 -25.5z" />
    <glyph glyph-name="quotesingle" unicode="'" horiz-adv-x="183" 
d="M25 677h133l-27 -203h-79z" />
    <glyph glyph-name="parenleft" unicode="(" horiz-adv-x="396" 
d="M208 237q0 -62 12.5 -119t31 -95t36.5 -66.5t30 -42.5l13 -13l-52 -110q-9 5 -23.5 16t-51 50.5t-65 86.5t-51.5 126t-23 167t22 166t53.5 127t63 85.5t53.5 52.5l22 15l52 -111l-13.5 -14t-29.5 -40.5t-37 -67.5t-29.5 -93.5t-13.5 -119.5z" />
    <glyph glyph-name="parenright" unicode=")" horiz-adv-x="396" 
d="M117 683q9 -5 23.5 -16t51 -50.5t65 -86.5t51.5 -126t23 -167t-22 -166t-53.5 -127t-63 -85.5t-53.5 -52.5l-22 -15l-52 110l13.5 14t30 41t37.5 68t29.5 93.5t13.5 119.5t-13 119t-31 94.5t-36 66.5t-31 42l-13 13z" />
    <glyph glyph-name="asterisk" unicode="*" horiz-adv-x="327" 
d="M216 558l66 -41l-29 -47l-62 38v-69h-55v69l-62 -38l-29 47l66 41l-66 42l29 46l62 -38v69h55v-69l62 38l29 -46z" />
    <glyph glyph-name="plus" unicode="+" horiz-adv-x="414" 
d="M262 295h92v-110h-92v-92h-111v92h-91v110h91v92h111v-92z" />
    <glyph glyph-name="comma" unicode="," horiz-adv-x="300" 
d="M106 130h149l-125 -300h-105z" />
    <glyph glyph-name="hyphen" unicode="-" horiz-adv-x="360" 
d="M60 295h240v-110h-240v110z" />
    <glyph glyph-name="period" unicode="." horiz-adv-x="240" 
d="M45 150h150v-150h-150v150z" />
    <glyph glyph-name="slash" unicode="/" horiz-adv-x="385" 
d="M211 683h114l-152 -689h-113z" />
    <glyph glyph-name="zero" unicode="0" horiz-adv-x="535" 
d="M268 486q41 0 79 -14t71 -42t52.5 -77t19.5 -113t-19.5 -113t-52.5 -77t-71 -42t-79 -14t-79.5 14t-71 42t-52.5 77t-20 113t20 113t52.5 77t71 42t79.5 14zM268 104q36 0 57.5 36t21.5 100t-21.5 99.5t-57.5 35.5q-37 0 -58.5 -35.5t-21.5 -99.5q0 -65 21.5 -100.5
t58.5 -35.5z" />
    <glyph glyph-name="one" unicode="1" horiz-adv-x="292" 
d="M45 435l202 51v-486h-143v334l-59 -15v116z" />
    <glyph glyph-name="two" unicode="2" horiz-adv-x="460" 
d="M215 111h200v-111h-318l-52 111q135 104 174 145q46 49 46 81q0 38 -54 38q-22 0 -46 -8.5t-37 -17.5l-12 -9l-43 90q8 6 22.5 15.5t57 25t82.5 15.5q73 0 123 -39t50 -109q0 -24 -10 -48t-22.5 -41.5t-36.5 -40t-39.5 -34.5l-45 -33.5t-39.5 -29.5z" />
    <glyph glyph-name="three" unicode="3" horiz-adv-x="431" 
d="M292 198q4 -1 10 -3t22.5 -11.5t29 -22.5t22.5 -37.5t10 -54.5q0 -41 -16 -79t-42 -65t-57 -50.5t-62 -38.5t-57 -25.5t-42 -14.5l-16 -5l-49 104l21.5 8t47.5 22t60 37t47.5 52t21.5 66q0 30 -17 49.5t-41 10.5l-40 -14l-40 86q72 32 99 57.5t27 60.5q0 45 -52 45
q-22 0 -44 -8.5t-33 -17.5l-12 -9l-42 90q7 6 20 15.5t52.5 25t78.5 15.5q71 0 123 -41.5t52 -111.5q0 -44 -20.5 -77.5t-41.5 -45.5z" />
    <glyph glyph-name="four" unicode="4" horiz-adv-x="545" 
d="M430 140h70v-111h-70v-232h-143v232h-190l-52 111l211 340h174v-340zM287 140v193l-116 -193h116z" />
    <glyph glyph-name="five" unicode="5" horiz-adv-x="459" 
d="M251 239q70 0 116.5 -43.5t46.5 -112.5q0 -45 -17.5 -85.5t-46 -69t-62.5 -53t-68 -39.5t-62.5 -25.5t-45.5 -14.5l-18 -5l-49 104l24.5 8.5t54.5 23t68.5 36.5t54 48t24.5 58q0 26 -17 42.5t-48 16.5q-21 0 -42 -4t-32 -8l-10 -3l-71 71l16 296h317v-111h-176l-8 -137
q26 7 51 7z" />
    <glyph glyph-name="six" unicode="6" horiz-adv-x="519" 
d="M275 399q82 0 140.5 -57t58.5 -146q0 -90 -62 -146t-145 -56q-97 0 -159.5 61t-62.5 172q0 67 15.5 128t40.5 104.5t55.5 81.5t61 62t55.5 41.5t41 25.5l15 7l52 -111q-13 -6 -33.5 -18t-67.5 -57.5t-75 -101.5q35 10 70 10zM259 104q33 0 52.5 24.5t19.5 67.5
t-19.5 67.5t-52.5 24.5q-32 0 -51.5 -24.5t-19.5 -67.5t19.5 -67.5t51.5 -24.5z" />
    <glyph glyph-name="seven" unicode="7" horiz-adv-x="444" 
d="M399 480v-112q-7 -9 -18 -26t-39 -74t-50 -119t-39.5 -158t-17.5 -194h-143q0 104 17.5 201.5t42 161.5t49.5 113.5t43 72.5l17 22h-216v112h354z" />
    <glyph glyph-name="eight" unicode="8" horiz-adv-x="525" 
d="M381 355q99 -51 99 -168q0 -95 -66.5 -144t-150.5 -49q-85 0 -151.5 49t-66.5 144q0 117 99 168q-88 50 -88 140q0 82 61 132t146 50t146 -50t61 -132q0 -89 -89 -140zM263 566q-29 0 -46.5 -21t-17.5 -57t17.5 -57t46.5 -21q28 0 46 21.5t18 56.5t-18 56.5t-46 21.5z
M263 104q34 0 54.5 26t20.5 72t-20.5 71.5t-54.5 25.5t-54.5 -25.5t-20.5 -71.5t20.5 -72t54.5 -26z" />
    <glyph glyph-name="nine" unicode="9" horiz-adv-x="519" 
d="M251 486q91 0 157 -64.5t66 -187.5q0 -72 -15.5 -136t-41 -107.5t-55.5 -79.5t-60.5 -57.5t-56 -36.5t-41.5 -21l-15 -5l-52 110q11 3 29.5 11t62 42.5t72.5 82.5q-27 -8 -53 -8q-85 0 -144 64t-59 165q0 108 61 168t145 60zM259 140q33 0 52.5 31t19.5 87q0 55 -19.5 86
t-52.5 31t-52 -31t-19 -86q0 -56 19 -87t52 -31z" />
    <glyph glyph-name="colon" unicode=":" horiz-adv-x="270" 
d="M60 0v150h150v-150h-150zM60 479h150v-150h-150v150z" />
    <glyph glyph-name="semicolon" unicode=";" horiz-adv-x="300" 
d="M25 -170l81 300h149l-125 -300h-105zM106 479h149v-150h-149v150z" />
    <glyph glyph-name="less" unicode="&#x3c;" horiz-adv-x="420" 
d="M370 405l-170 -164l170 -164l-50 -106l-270 270l270 271z" />
    <glyph glyph-name="equal" unicode="=" horiz-adv-x="385" 
d="M85 63v111h240v-111h-240zM85 333h240v-110h-240v110z" />
    <glyph glyph-name="greater" unicode="&#x3e;" horiz-adv-x="420" 
d="M100 512l270 -271l-270 -270l-50 106l171 164l-171 164z" />
    <glyph glyph-name="question" unicode="?" horiz-adv-x="423" 
d="M127 0v150h150v-150h-150zM230 303q20 0 38 5.5t26 11.5l8 5l37 -79q-5 -6 -15 -15t-45.5 -24t-76.5 -15q-57 0 -102 36t-45 90q0 35 18 65.5t44.5 51.5t52.5 38.5t44 35t18 33.5q0 13 -10.5 21.5t-29.5 8.5q-23 0 -47 -7t-37 -14l-13 -7l-40 85q7 6 19.5 15t53 24
t81.5 15q67 0 113 -36t46 -92q0 -40 -27.5 -76t-61 -58t-61 -47t-27.5 -44q0 -27 39 -27z" />
    <glyph glyph-name="at" unicode="@" horiz-adv-x="819" 
d="M470 597q94 0 165.5 -49t102.5 -128t16 -167q-17 -97 -55 -145.5t-104 -48.5q-30 0 -53.5 7t-36.5 17.5t-22 20.5t-11 17l-3 7q-1 -3 -3 -7.5t-11.5 -16.5t-21.5 -21t-34 -16.5t-48 -7.5q-60 0 -101.5 53.5t-26.5 140.5q16 95 78.5 144.5t143.5 49.5q40 0 79 -12t58 -24
l20 -12l-26 -146l-8 -44q-8 -47 7.5 -76t39.5 -29q67 0 94 149q22 125 -48.5 215.5t-198.5 90.5q-127 0 -228 -89t-124 -217q-22 -123 51.5 -214.5t193.5 -91.5q33 0 71.5 7t60.5 14l22 7l16 -35q-78 -32 -177 -32q-61 0 -118 27t-97.5 72.5t-60 110.5t-7.5 135
q26 151 140.5 247.5t264.5 96.5zM446 253l14 78q-10 16 -31 16q-25 0 -46.5 -27.5t-28.5 -66.5q-17 -94 29 -94t63 94z" />
    <glyph glyph-name="A" unicode="A" horiz-adv-x="602" 
d="M395 677l152 -677h-154l-24 118h-145l-24 -118h-145l151 677h189zM248 234h97l-48 235z" />
    <glyph glyph-name="B" unicode="B" horiz-adv-x="538" 
d="M394 362q4 -2 10 -5.5t21 -17t27 -30.5t21.5 -47t9.5 -64q0 -98 -56.5 -148t-147.5 -50h-224v677h201q92 0 148.5 -44t56.5 -139q0 -27 -7 -50t-16.5 -37.5t-19.5 -25t-17 -15.5zM205 561v-148h32q74 0 74 74t-74 74h-32zM260 116q74 0 74 91q0 90 -74 90h-55v-181h55z
" />
    <glyph glyph-name="C" unicode="C" horiz-adv-x="488" 
d="M414 145l44 -94q-5 -6 -14 -15.5t-45.5 -25.5t-81.5 -16q-111 0 -186.5 78t-75.5 238v57q0 161 70.5 238.5t182.5 77.5q47 0 83.5 -15.5t50.5 -31.5l13 -15l-45 -95q-4 5 -10.5 11.5t-28.5 18t-45 11.5q-55 0 -88 -55.5t-33 -173.5q0 -117 36 -172.5t95 -55.5
q23 0 42.5 8.5t27.5 17.5z" />
    <glyph glyph-name="D" unicode="D" horiz-adv-x="538" 
d="M279 677q92 0 148 -74.5t56 -235.5v-57q0 -161 -56 -235.5t-149 -74.5h-223v677h224zM334 321v35q0 205 -89 205h-40v-445h39q44 0 67 47.5t23 157.5z" />
    <glyph glyph-name="E" unicode="E" horiz-adv-x="412" 
d="M357 561h-152v-155h115v-117h-115v-173h152v-116h-302v677h302v-116z" />
    <glyph glyph-name="F" unicode="F" horiz-adv-x="412" 
d="M357 561h-152v-177h122v-116h-122v-268h-150v677h302v-116z" />
    <glyph glyph-name="G" unicode="G" horiz-adv-x="547" 
d="M282 410h210v-271q-1 -6 -4.5 -15.5t-18 -34.5t-35 -44.5t-59 -35t-85.5 -15.5q-99 0 -167 80t-68 236v57q0 150 73.5 233t182.5 83q47 0 86 -14t55 -28l16 -14l-43 -91q-33 31 -90 31q-56 0 -93 -51.5t-37 -159.5v-35q0 -103 23 -157t62 -54q16 0 29 9.5t18 18.5l5 10
v145h-60v117z" />
    <glyph glyph-name="H" unicode="H" horiz-adv-x="534" 
d="M329 677h150v-677h-150v286h-124v-286h-150v677h150v-275h124v275z" />
    <glyph glyph-name="I" unicode="I" horiz-adv-x="260" 
d="M55 677h150v-677h-150v677z" />
    <glyph glyph-name="J" unicode="J" horiz-adv-x="439" 
d="M234 677h150v-465q0 -218 -190 -218q-37 0 -72 11t-51 23l-16 11l47 100q33 -29 71 -29q34 0 47.5 24.5t13.5 99.5v443z" />
    <glyph glyph-name="K" unicode="K" horiz-adv-x="558" 
d="M366 443l137 -443h-157l-81 261l-60 -107v-154h-150v677h150v-245l137 245h155z" />
    <glyph glyph-name="L" unicode="L" horiz-adv-x="410" 
d="M205 116h150v-116h-300v677h150v-561z" />
    <glyph glyph-name="M" unicode="M" horiz-adv-x="699" 
d="M599 677l45 -677h-145l-22 389l-72 -395h-122l-71 389l-21 -383h-136l45 677h187l62 -334l63 334h187z" />
    <glyph glyph-name="N" unicode="N" horiz-adv-x="547" 
d="M346 677h146v-683h-146l-145 320v-314h-146v677h146l145 -320v320z" />
    <glyph glyph-name="O" unicode="O" horiz-adv-x="567" 
d="M283 683q101 0 165 -75.5t64 -240.5v-57q0 -165 -64 -240.5t-165 -75.5q-100 0 -164 75.5t-64 240.5v57q0 165 64 240.5t164 75.5zM362 321v35q0 211 -79 211q-78 0 -78 -211v-35q0 -211 78 -211q79 0 79 211z" />
    <glyph glyph-name="P" unicode="P" horiz-adv-x="532" 
d="M291 677q79 0 132.5 -55.5t53.5 -154.5t-53.5 -154t-132.5 -55h-86v-258h-150v677h236zM248 374q79 0 79 93q0 94 -79 94h-43v-187h43z" />
    <glyph glyph-name="Q" unicode="Q" horiz-adv-x="567" 
d="M283 683q101 0 165 -75.5t64 -240.5v-57q0 -249 -151 -303q11 -47 49 -47h12v-116h-12q-83 0 -137 41t-63 120q-71 23 -113 98t-42 207v57q0 165 64 240.5t164 75.5zM362 321v35q0 211 -79 211q-78 0 -78 -211v-35q0 -211 78 -211q79 0 79 211z" />
    <glyph glyph-name="R" unicode="R" horiz-adv-x="529" 
d="M384 291l90 -291h-146l-83 268h-40v-268h-150v677h231q86 0 136 -52t50 -152q0 -134 -88 -182zM261 384q61 0 61 89q0 88 -61 88h-56v-177h56z" />
    <glyph glyph-name="S" unicode="S" horiz-adv-x="491" 
d="M217 512q0 -26 22.5 -57t54.5 -62.5l64.5 -65.5t55 -77.5t22.5 -86.5q0 -84 -56 -126.5t-138 -42.5q-52 0 -99 15t-67 30l-21 15l47 100q53 -44 120 -44q64 0 64 59q0 24 -22.5 54t-54.5 62l-64 67t-54.5 79.5t-22.5 89.5q0 74 57.5 118t136.5 44q47 0 87.5 -13.5
t57.5 -27.5l17 -13l-43 -90q-46 28 -101 28q-31 0 -47 -15t-16 -40z" />
    <glyph glyph-name="T" unicode="T" horiz-adv-x="485" 
d="M55 677h375v-116h-113v-561h-150v561h-112v116z" />
    <glyph glyph-name="U" unicode="U" horiz-adv-x="532" 
d="M327 677h150v-465q0 -110 -59 -164t-152 -54t-152 54t-59 164v465h150v-398q0 -91 14.5 -130t46.5 -39t46.5 39t14.5 130v398z" />
    <glyph glyph-name="V" unicode="V" horiz-adv-x="606" 
d="M410 677h141l-158 -677h-180l-158 677h149l103 -478z" />
    <glyph glyph-name="W" unicode="W" horiz-adv-x="818" 
d="M623 677h140l-123 -677h-178l-53 297l-53 -297h-178l-123 677h148l71 -430l67 430h145l67 -430z" />
    <glyph glyph-name="X" unicode="X" horiz-adv-x="553" 
d="M498 677l-129 -342l126 -335h-150l-69 183l-65 -183h-156l131 345l-126 332h150l68 -180l64 180h156z" />
    <glyph glyph-name="Y" unicode="Y" horiz-adv-x="596" 
d="M385 677h156l-168 -443v-234h-150v231l-168 446h160l86 -237z" />
    <glyph glyph-name="Z" unicode="Z" horiz-adv-x="438" 
d="M383 677v-122l-172 -439h172v-116h-328v122l172 439h-169v116h325z" />
    <glyph glyph-name="bracketleft" unicode="[" horiz-adv-x="380" 
d="M320 566h-117v-658h117v-111h-260v880h260v-111z" />
    <glyph glyph-name="backslash" unicode="\" horiz-adv-x="385" 
d="M173 683l152 -689h-114l-151 689h113z" />
    <glyph glyph-name="bracketright" unicode="]" horiz-adv-x="380" 
d="M60 677h260v-880h-260v111h117v658h-117v111z" />
    <glyph glyph-name="asciicircum" unicode="^" horiz-adv-x="72" 
 />
    <glyph glyph-name="underscore" unicode="_" horiz-adv-x="398" 
d="M55 104h288v-110h-288v110z" />
    <glyph glyph-name="grave" unicode="`" horiz-adv-x="261" 
d="M163 648l63 -120h-103l-88 120h128z" />
    <glyph glyph-name="a" unicode="a" horiz-adv-x="481" 
d="M309 474h127v-474h-125l-18 44q-4 -6 -11 -14t-35.5 -22t-62.5 -14q-61 0 -100 53.5t-39 156.5v58q0 104 39 161t100 57q34 0 61.5 -12.5t37.5 -25.5l10 -12zM244 110q55 0 55 127t-55 127q-56 0 -56 -127t56 -127z" />
    <glyph glyph-name="b" unicode="b" horiz-adv-x="481" 
d="M282 480q64 0 109 -54t45 -160v-58q0 -106 -45 -160t-109 -54q-28 0 -51.5 12.5t-32.5 25.5l-10 12l-18 -44h-125v682l143 37v-274q31 35 94 35zM237 110q56 0 56 127t-56 127q-55 0 -55 -127t55 -127z" />
    <glyph glyph-name="c" unicode="c" horiz-adv-x="408" 
d="M265 110q18 0 31.5 7t18.5 14l5 7l43 -91q-5 -6 -14 -15t-42.5 -23.5t-73.5 -14.5q-79 0 -133.5 58t-54.5 156v58q0 102 53.5 158t131.5 56q40 0 73 -15t47 -30l13 -15l-39 -83q-20 27 -63 27q-34 0 -53.5 -35t-19.5 -92t21 -92t56 -35z" />
    <glyph glyph-name="d" unicode="d" horiz-adv-x="481" 
d="M293 682l143 37v-719h-125l-18 44q-3 -6 -10 -14t-31.5 -22t-52.5 -14q-65 0 -109.5 53t-44.5 161v58q0 109 44.5 161.5t109.5 52.5q28 0 51.5 -9t33.5 -17l9 -9v237zM244 110q27 0 41.5 34.5t14.5 92.5t-14.5 92.5t-41.5 34.5t-41.5 -34.5t-14.5 -92.5t14.5 -92.5
t41.5 -34.5z" />
    <glyph glyph-name="e" unicode="e" horiz-adv-x="464" 
d="M419 262v-84h-231q1 -30 27 -49t63 -19q24 0 48 8.5t36 17.5l12 9l43 -93q-6 -6 -18.5 -16t-56.5 -26t-96 -16q-77 0 -139 57t-62 157v58q0 102 56 158t139 56q81 0 130 -56.5t49 -161.5zM188 273h105q0 43 -14 67t-39 24q-52 0 -52 -91z" />
    <glyph glyph-name="f" unicode="f" horiz-adv-x="410" 
d="M295 567q-51 0 -51 -87h104v-116h-104v-364h-143v364h-56v116h56q0 98 44 150.5t114 52.5q29 0 55.5 -8.5t38.5 -16.5l12 -8l-42 -89q-8 6 -28 6z" />
    <glyph glyph-name="g" unicode="g" horiz-adv-x="481" 
d="M309 474h127v-502q0 -93 -53.5 -137t-132.5 -44q-78 0 -131.5 42.5t-53.5 127.5h114q0 -26 16 -40t41 -14q57 0 57 65v57q-3 -4 -10 -10t-32.5 -15.5t-54.5 -9.5q-62 0 -106.5 56t-44.5 158v58q0 102 44.5 158t106.5 56q30 0 54.5 -12.5t33.5 -25.5l9 -12zM244 110
q55 0 55 127t-55 127q-56 0 -56 -127t56 -127z" />
    <glyph glyph-name="h" unicode="h" horiz-adv-x="481" 
d="M293 480q66 0 104.5 -46t38.5 -141v-293h-143v218q0 78 -12.5 112t-39.5 34t-40 -34t-13 -112v-218h-143v682l143 37v-279q43 40 105 40z" />
    <glyph glyph-name="i" unicode="i" horiz-adv-x="248" 
d="M53 0v474h142v-474h-142zM45 685h158v-142h-158v142z" />
    <glyph glyph-name="j" unicode="j" horiz-adv-x="331" 
d="M136 4v470h143v-502q0 -95 -65 -138t-169 -43v116q91 0 91 97zM128 685h158v-142h-158v142z" />
    <glyph glyph-name="k" unicode="k" horiz-adv-x="479" 
d="M337 312l97 -312h-139l-45 158l-62 -110v-48h-143v682l143 37v-429l93 184h148z" />
    <glyph glyph-name="l" unicode="l" horiz-adv-x="238" 
d="M45 682l143 37v-719h-143v682z" />
    <glyph glyph-name="m" unicode="m" horiz-adv-x="729" 
d="M542 480q65 0 103.5 -46t38.5 -141v-293h-142v218q0 78 -13 112t-40 34t-40 -34t-13 -112v-218h-143v218q0 78 -12.5 112t-39.5 34t-40 -34t-13 -112v-218h-143v474h127l13 -37q43 43 108 43q83 0 119 -69q47 69 130 69z" />
    <glyph glyph-name="n" unicode="n" horiz-adv-x="481" 
d="M293 480q66 0 104.5 -46t38.5 -141v-293h-143v218q0 78 -12.5 112t-39.5 34t-40 -34t-13 -112v-218h-143v474h127l13 -37q43 43 108 43z" />
    <glyph glyph-name="o" unicode="o" horiz-adv-x="493" 
d="M247 480q88 0 144.5 -57t56.5 -157v-58q0 -100 -56.5 -157t-144.5 -57t-145 57t-57 157v58q0 100 57 157t145 57zM247 110q59 0 59 127t-59 127t-59 -127t59 -127z" />
    <glyph glyph-name="p" unicode="p" horiz-adv-x="481" 
d="M288 480q70 0 109 -54.5t39 -159.5v-58q0 -106 -39 -160t-109 -54q-27 0 -52 9t-36 19l-12 9v-234h-143v677h127l16 -44q4 6 12.5 14t34.5 22t53 14zM237 110q56 0 56 127t-56 127q-55 0 -55 -127t55 -127z" />
    <glyph glyph-name="q" unicode="q" horiz-adv-x="481" 
d="M309 474h127v-677h-143v234q-39 -37 -99 -37q-71 0 -110 54t-39 160v58q0 106 39 160t110 54q27 0 51.5 -12.5t36.5 -25.5l11 -12zM244 110q55 0 55 127t-55 127q-56 0 -56 -127t56 -127z" />
    <glyph glyph-name="r" unicode="r" horiz-adv-x="397" 
d="M275 480q22 0 41 -5t28 -11l8 -5l-51 -109q-17 14 -44 14q-29 0 -49 -28t-20 -79v-257h-143v474h127l13 -37q40 43 90 43z" />
    <glyph glyph-name="s" unicode="s" horiz-adv-x="414" 
d="M200 336q0 -15 26.5 -37t58 -44t58 -58t26.5 -75q0 -61 -46 -94.5t-119 -33.5q-44 0 -84 15t-58 30l-17 15l42 90q41 -34 93 -34q47 0 47 28q0 16 -26.5 38.5t-58 44t-58 57.5t-26.5 76q0 55 47.5 90.5t109.5 35.5q40 0 75.5 -13.5t51.5 -26.5l15 -14l-40 -85
q-23 23 -70 23q-21 0 -34 -7.5t-13 -20.5z" />
    <glyph glyph-name="t" unicode="t" horiz-adv-x="402" 
d="M272 480h85v-116h-85v-364h-143v364h-84v116h84v202l143 37v-239z" />
    <glyph glyph-name="u" unicode="u" horiz-adv-x="476" 
d="M288 474h143v-474h-127l-13 37q-43 -43 -108 -43q-66 0 -104.5 46t-38.5 141v293h143v-218q0 -78 13 -112t40 -34t39.5 34t12.5 112v218z" />
    <glyph glyph-name="v" unicode="v" horiz-adv-x="490" 
d="M308 474h137l-124 -474h-153l-123 474h146l60 -245z" />
    <glyph glyph-name="w" unicode="w" horiz-adv-x="721" 
d="M542 474h134l-106 -474h-156l-53 277l-54 -277h-157l-105 474h146l53 -276l51 276h143l49 -276z" />
    <glyph glyph-name="x" unicode="x" horiz-adv-x="471" 
d="M319 252l107 -252h-142l-52 120l-56 -120h-131l110 235l-101 239h143l45 -107l50 107h131z" />
    <glyph glyph-name="y" unicode="y" horiz-adv-x="519" 
d="M332 474h142l-208 -677h-143l65 212l-143 465h149l70 -247z" />
    <glyph glyph-name="z" unicode="z" horiz-adv-x="389" 
d="M344 474v-116l-139 -242h139v-116h-299v116l139 242h-131v116h291z" />
    <glyph glyph-name="braceleft" unicode="{" horiz-adv-x="449" 
d="M309 -93q13 0 23.5 2t14.5 4l4 2l38 -82q-55 -42 -128 -42q-62 0 -109.5 40t-47.5 104q0 54 16 113.5t16 83.5q0 50 -55 50h-21v110h21q55 0 55 50q0 24 -16 83t-16 114q0 64 47.5 104t109.5 40q32 0 64 -10.5t48 -20.5l16 -11l-38 -82q-12 8 -42 8q-26 0 -44 -21.5
t-18 -60.5q0 -53 16 -100.5t16 -78.5q0 -41 -52 -69q52 -28 52 -69q0 -31 -16 -79t-16 -101q0 -38 18 -59.5t44 -21.5z" />
    <glyph glyph-name="bar" unicode="|" horiz-adv-x="253" 
d="M55 677h143v-880h-143v880z" />
    <glyph glyph-name="braceright" unicode="}" horiz-adv-x="449" 
d="M369 292h20v-110h-20q-56 0 -56 -50q0 -24 16 -83.5t16 -113.5q0 -64 -47.5 -104t-109.5 -40q-32 0 -64 10.5t-48 20.5l-16 11l38 82q13 -8 42 -8q26 0 44 21.5t18 59.5q0 53 -16 101t-16 79q0 41 52 69q-52 28 -52 69q0 31 16 78.5t16 100.5q0 39 -18 60.5t-44 21.5
q-13 0 -23.5 -2t-14.5 -4l-4 -2l-38 82q55 42 128 42q62 0 109.5 -40t47.5 -104q0 -55 -16 -114t-16 -83q0 -50 56 -50z" />
    <glyph glyph-name="asciitilde" unicode="~" horiz-adv-x="335" 
d="M228 644h72q0 -49 -19.5 -79.5t-54.5 -30.5q-15 0 -34 5t-33 9.5t-26.5 7.5t-19.5 -2.5t-7 -19.5h-71q0 49 19 79.5t55 30.5q15 0 33.5 -5t32.5 -9.5t27 -7.5t19.5 2.5t6.5 19.5z" />
    <glyph glyph-name="uni00A0" unicode="&#xa0;" horiz-adv-x="200" 
 />
    <glyph glyph-name="exclamdown" unicode="&#xa1;" horiz-adv-x="280" 
d="M55 474h150v-150h-150v150zM85 275h90l30 -361v-117h-150v117z" />
    <glyph glyph-name="cent" unicode="&#xa2;" horiz-adv-x="445" 
d="M344 236l41 -88q-24 -27 -92 -33v-79h-97v90q-60 22 -98 80.5t-38 149.5q0 93 38 151.5t98 80.5v89h97v-80q25 -4 46.5 -14.5t30.5 -18.5l9 -9l-39 -83q-20 19 -57 19t-61 -35t-24 -100q0 -67 25 -101t65 -34q18 0 32 3.5t19 7.5z" />
    <glyph glyph-name="sterling" unicode="&#xa3;" horiz-adv-x="490" 
d="M346 101q22 0 43 7.5t31 15.5l10 8v-108q-34 -30 -84 -30q-25 0 -63 15t-63 15q-24 0 -76 -12t-84 -12v107q89 0 89 159q0 20 -2 29h-78v100h49q-31 83 -31 121q0 77 54 122t130 45q42 0 78 -15.5t51 -31.5l15 -15l-38 -80q-30 34 -82 34q-31 0 -50.5 -20.5t-19.5 -52.5
q0 -12 1.5 -22.5t6 -23.5l6.5 -18.5t10 -22.5t9 -20h136v-100h-108q2 -18 2 -29q0 -84 -31 -140q9 -3 26.5 -10t32 -11t30.5 -4z" />
    <glyph glyph-name="currency" unicode="&#xa4;" horiz-adv-x="466" 
d="M369 439l37 -41l-75 -66l-35 38q-30 -14 -63 -14t-64 14l-34 -38l-75 66l36 41q-19 35 -19 78q0 42 19 78l-36 40l75 67l34 -39q31 14 64 14t63 -14l35 39l75 -67l-37 -40q19 -36 19 -78q0 -43 -19 -78zM233 459q19 0 32 16t13 42t-13 41.5t-32 15.5t-32 -15.5t-13 -41.5
t13 -42t32 -16z" />
    <glyph glyph-name="yen" unicode="&#xa5;" horiz-adv-x="564" 
d="M504 677l-119 -336h85v-100h-117v-33h117v-100h-117v-108h-138v108h-117v100h117v33h-117v100h81l-119 336h149l81 -236l81 236h133z" />
    <glyph glyph-name="brokenbar" unicode="&#xa6;" horiz-adv-x="253" 
d="M55 677h143v-386h-143v386zM55 -203v386h143v-386h-143z" />
    <glyph glyph-name="section" unicode="&#xa7;" horiz-adv-x="522" 
d="M368 238q72 -50 72 -110q0 -62 -49.5 -98t-123.5 -36q-46 0 -88.5 15t-62.5 30l-20 15l44 94q6 -5 16 -12.5t40.5 -20.5t59.5 -13q45 0 45 32q0 19 -25 37.5t-60.5 36t-70.5 37.5t-60 50.5t-25 66.5q0 63 85 93q-52 42 -52 99q0 61 50.5 95t126.5 34q45 0 82.5 -13.5
t52.5 -27.5l15 -13l-43 -90q-39 36 -97 36q-22 0 -35.5 -8t-13.5 -21q0 -15 24 -30t57.5 -30.5t67.5 -34t58 -47t24 -62.5q0 -70 -94 -104zM279 290q44 21 44 48q0 10 -6 18.5t-21 17.5t-25 14t-35 16q-38 -13 -38 -39q0 -20 20 -36.5t61 -38.5z" />
    <glyph glyph-name="dieresis" unicode="&#xa8;" horiz-adv-x="365" 
d="M35 529v120h120v-120h-120zM210 649h120v-120h-120v120z" />
    <glyph glyph-name="copyright" unicode="&#xa9;" 
d="M430 450q-28 0 -50 -28t-22 -84q0 -57 22 -84t57 -27q14 0 26.5 3.5t18.5 7.5l5 4l29 -62q-3 -4 -10 -9.5t-31.5 -15t-53.5 -9.5q-70 0 -119 51t-49 141t47.5 141t116.5 51q28 0 53 -9.5t36 -19.5l10 -10l-29 -61q-21 20 -57 20zM405 683q143 0 243.5 -101t100.5 -244
q0 -142 -100.5 -243t-243.5 -101t-244 100.5t-101 243.5t101 244t244 101zM616 127q40 38 65 95q23 57 23 116q0 60 -23 117q-25 57 -65 95q-39 41 -95 64q-55 24 -116 24t-117 -24q-56 -23 -95 -64q-40 -38 -65 -95q-23 -57 -23 -117q0 -59 23 -116q25 -57 65 -95
q41 -42 95 -65q57 -23 117 -23q59 0 116 23q54 23 95 65z" />
    <glyph glyph-name="ordfeminine" unicode="&#xaa;" horiz-adv-x="488" 
d="M244 671q80 0 139.5 -43.5t59.5 -124.5v-330h-125l-18 44q-3 -6 -9 -14t-32.5 -22t-62.5 -14q-60 0 -105.5 42t-45.5 110q0 88 73.5 133t181.5 45q0 63 -81 63q-23 0 -48.5 -7t-39.5 -14l-14 -7l-40 85q8 6 21.5 15t57.5 24t88 15zM300 347v59q-112 0 -112 -77
q0 -23 16 -37t40 -14q56 0 56 69zM82 -6v110h324v-110h-324z" />
    <glyph glyph-name="guillemotleft" unicode="&#xab;" horiz-adv-x="521" 
d="M471 376l-109 -135l109 -135l-86 -69l-134 166v77l134 165zM270 376l-109 -135l109 -135l-86 -69l-134 166v77l134 165z" />
    <glyph glyph-name="logicalnot" unicode="&#xac;" horiz-adv-x="464" 
d="M60 295h344v-180h-111v70h-233v110z" />
    <glyph glyph-name="uni00AD" unicode="&#xad;" horiz-adv-x="200" 
 />
    <glyph glyph-name="registered" unicode="&#xae;" horiz-adv-x="510" 
d="M341 518q0 -17 -7 -31.5t-14 -20.5l-7 -5l27 -87h-56l-25 79h-18v-79h-58v209h82q33 0 54.5 -17.5t21.5 -47.5zM257 496q25 0 25 22q0 23 -25 23h-16v-45h16zM255 683q85 0 145 -60t60 -145t-60 -145t-145 -60t-145 60t-60 145t60 145t145 60zM375 357q50 50 50 121
q0 72 -50 120q-50 50 -120 50t-120 -50t-50 -120q0 -69 50 -121q49 -49 120 -49t120 49z" />
    <glyph glyph-name="macron" unicode="&#xaf;" horiz-adv-x="280" 
d="M35 625h210v-90h-210v90z" />
    <glyph glyph-name="degree" unicode="&#xb0;" horiz-adv-x="404" 
d="M202 683q65 0 108.5 -42t43.5 -104t-43.5 -104t-108.5 -42t-108.5 42t-43.5 104t43.5 104t108.5 42zM202 478q25 0 41 16.5t16 42.5t-16 43t-41 17q-26 0 -42 -17t-16 -43t16 -42.5t42 -16.5z" />
    <glyph glyph-name="plusminus" unicode="&#xb1;" horiz-adv-x="414" 
d="M262 361h92v-110h-92v-92h-111v92h-91v110h91v92h111v-92zM79 0v110h255v-110h-255z" />
    <glyph glyph-name="twosuperior" unicode="&#xb2;" horiz-adv-x="352" 
d="M209 430h98v-94h-223l-39 82q8 6 24 16t24.5 16l22 15t21 15.5l17.5 15t15.5 15.5t11 15t8 15.5t2.5 15.5q0 31 -45 31q-16 0 -31.5 -4t-22.5 -8l-7 -5l-35 74q45 38 118 38q57 0 95.5 -31t38.5 -81q0 -28 -16.5 -56.5t-31 -42.5z" />
    <glyph glyph-name="threesuperior" unicode="&#xb3;" horiz-adv-x="343" 
d="M236 507q7 -2 17.5 -6t27.5 -25.5t17 -51.5q0 -45 -38 -69.5t-96 -24.5q-33 0 -62.5 8t-43.5 16l-13 9l35 75q26 -14 62 -14q45 0 45 21q0 20 -51 20h-45v85h26q34 0 47 4t13 15q0 19 -40 19q-15 0 -29 -3t-21 -5l-7 -3l-23 74q36 32 110 32q51 0 86.5 -28.5t35.5 -70.5
q0 -27 -13.5 -46t-26.5 -25z" />
    <glyph glyph-name="acute" unicode="&#xb4;" horiz-adv-x="261" 
d="M98 648h128l-88 -120h-103z" />
    <glyph glyph-name="mu" unicode="&#xb5;" horiz-adv-x="481" 
d="M293 474h143v-474h-127l-16 44q-2 -6 -7.5 -14t-26 -22t-47.5 -14l-24 6v-203h-143v677h143v-238q0 -132 53 -132q52 0 52 132v238z" />
    <glyph glyph-name="paragraph" unicode="&#xb6;" horiz-adv-x="608" 
d="M45 482q0 92 46 143.5t123 51.5h217v-880h-150v489h-67q-77 0 -123 51.5t-46 144.5zM473 677h75v-880h-75v880z" />
    <glyph glyph-name="periodcentered" unicode="&#xb7;" horiz-adv-x="250" 
d="M50 413h150v-150h-150v150z" />
    <glyph glyph-name="cedilla" unicode="&#xb8;" horiz-adv-x="313" 
d="M168 -48q47 0 78.5 -21.5t31.5 -58.5q0 -38 -34.5 -59.5t-86.5 -21.5q-36 0 -66.5 6.5t-42.5 12.5l-13 7l23 49q36 -16 71 -16q41 0 41 27q0 26 -34 26q-11 0 -20.5 -2.5t-13.5 -4.5l-3 -2h-57l40 85h57l-16 -33q19 6 45 6z" />
    <glyph glyph-name="onesuperior" unicode="&#xb9;" horiz-adv-x="243" 
d="M45 644l153 39v-347h-111v224l-42 -11v95z" />
    <glyph glyph-name="ordmasculine" unicode="&#xba;" horiz-adv-x="493" 
d="M247 671q85 0 143 -57t58 -166v-58q0 -109 -58 -166t-143 -57t-143.5 57t-58.5 166v58q0 109 58.5 166t143.5 57zM247 278q59 0 59 141t-59 141t-59 -141t59 -141zM85 -6v110h323v-110h-323z" />
    <glyph glyph-name="guillemotright" unicode="&#xbb;" horiz-adv-x="521" 
d="M270 280v-77l-134 -166l-86 69l109 135l-109 135l86 69zM337 445l134 -165v-77l-134 -166l-86 69l109 135l-109 135z" />
    <glyph glyph-name="onequarter" unicode="&#xbc;" horiz-adv-x="658" 
d="M571 163h32v-77h-32v-86h-94v86h-113v70l102 204h105v-197zM482 153v85l-37 -85h37zM181 317h-94v260l-32 -8v78l126 33v-363zM363 677h117l-233 -677h-117z" />
    <glyph glyph-name="onehalf" unicode="&#xbd;" horiz-adv-x="669" 
d="M614 259q0 -19 -4.5 -37.5t-9.5 -31t-17.5 -31.5t-18 -26.5t-23.5 -29l-22 -26.5h92v-77h-174l-43 63q36 38 57.5 63t45 64t23.5 66q0 13 -8.5 21.5t-23.5 8.5q-12 0 -24 -5.5t-18 -10.5l-6 -6l-30 64q39 35 97 35q49 0 78 -29t29 -75zM181 317h-94v260l-32 -8v78l126 33
v-363zM363 677h117l-233 -677h-117z" />
    <glyph glyph-name="threequarters" unicode="&#xbe;" horiz-adv-x="706" 
d="M618 163h33v-77h-33v-86h-94v86h-112v70l101 204h105v-197zM529 153v85l-37 -85h37zM263 421q0 -47 -30.5 -77t-81.5 -30q-30 0 -54 9t-33 17l-9 9l31 65q20 -23 52 -23q14 0 22.5 10.5t8.5 27.5q0 38 -29 38h-38v77h30q32 0 32 29t-27 29q-12 0 -23 -6t-16 -12l-6 -5
l-31 65q42 36 90 36q49 0 78 -28t29 -74q0 -47 -33 -73q38 -28 38 -84zM411 677h117l-234 -677h-117z" />
    <glyph glyph-name="questiondown" unicode="&#xbf;" horiz-adv-x="423" 
d="M296 474v-150h-150v150h150zM231 -99q22 0 46.5 7t37.5 14l13 7l40 -84q-7 -6 -19.5 -15t-53 -24t-81.5 -15q-68 0 -113.5 36t-45.5 92q0 32 18 61.5t44.5 51t52.5 40t44 37t18 34.5q0 28 -40 28q-20 0 -37.5 -5.5t-25.5 -11.5l-8 -5l-37 78q5 6 14.5 15t45 24.5
t77.5 15.5q56 0 101.5 -36t45.5 -90q0 -35 -18 -65.5t-44 -51.5t-52.5 -38.5t-44.5 -35t-18 -33.5q0 -13 10.5 -22t29.5 -9z" />
    <glyph glyph-name="Agrave" unicode="&#xc0;" horiz-adv-x="602" 
d="M395 677l152 -677h-154l-24 118h-145l-24 -118h-145l151 677h189zM248 234h97l-48 235zM292 848l63 -120h-103l-88 120h128z" />
    <glyph glyph-name="Aacute" unicode="&#xc1;" horiz-adv-x="602" 
d="M395 677l152 -677h-154l-24 118h-145l-24 -118h-145l151 677h189zM248 234h97l-48 235zM304 848h128l-88 -120h-103z" />
    <glyph glyph-name="Acircumflex" unicode="&#xc2;" horiz-adv-x="602" 
d="M395 677l152 -677h-154l-24 118h-145l-24 -118h-145l151 677h189zM248 234h97l-48 235zM342 849l107 -120h-104l-44 63l-44 -63h-103l107 120h81z" />
    <glyph glyph-name="Atilde" unicode="&#xc3;" horiz-adv-x="602" 
d="M395 677l152 -677h-154l-24 118h-145l-24 -118h-145l151 677h189zM248 234h97l-48 235zM362 844h72q0 -49 -19.5 -79.5t-54.5 -30.5q-15 0 -34 5t-33 9.5t-26.5 7.5t-19.5 -2.5t-7 -19.5h-71q0 49 19 79.5t55 30.5q15 0 33.5 -5t32.5 -9.5t27 -7.5t19.5 2.5t6.5 19.5z
" />
    <glyph glyph-name="Adieresis" unicode="&#xc4;" horiz-adv-x="602" 
d="M395 677l152 -677h-154l-24 118h-145l-24 -118h-145l151 677h189zM248 234h97l-48 235zM154 729v120h120v-120h-120zM329 849h120v-120h-120v120z" />
    <glyph glyph-name="Aring" unicode="&#xc5;" horiz-adv-x="602" 
d="M395 677l152 -677h-154l-24 118h-145l-24 -118h-145l151 677h189zM248 234h97l-48 235zM301 900q45 0 76 -29.5t31 -75.5q0 -47 -31 -76t-76 -29t-76 29t-31 76q0 46 31 75.5t76 29.5zM301 760q14 0 21.5 10t7.5 25t-7.5 25t-21.5 10t-21.5 -10t-7.5 -25t7.5 -25
t21.5 -10z" />
    <glyph glyph-name="AE" unicode="&#xc6;" horiz-adv-x="700" 
d="M645 561h-152v-155h115v-117h-115v-173h152v-116h-302v124h-104l-33 -124h-151l190 677h400v-116zM343 234v286l-75 -286h75z" />
    <glyph glyph-name="Ccedilla" unicode="&#xc7;" horiz-adv-x="488" 
d="M414 145l44 -94q-5 -6 -14 -15.5t-45.5 -25.5t-81.5 -16q-111 0 -186.5 78t-75.5 238v57q0 161 70.5 238.5t182.5 77.5q47 0 83.5 -15.5t50.5 -31.5l13 -15l-45 -95q-4 5 -10.5 11.5t-28.5 18t-45 11.5q-55 0 -88 -55.5t-33 -173.5q0 -117 36 -172.5t95 -55.5
q23 0 42.5 8.5t27.5 17.5zM285 -48q47 0 78.5 -21.5t31.5 -58.5q0 -38 -34.5 -59.5t-86.5 -21.5q-36 0 -66.5 6.5t-43.5 12.5l-12 7l23 49q36 -16 71 -16q41 0 41 27q0 26 -34 26q-11 0 -20.5 -2.5t-12.5 -4.5l-4 -2h-57l40 85h57l-16 -33q20 6 45 6z" />
    <glyph glyph-name="Egrave" unicode="&#xc8;" horiz-adv-x="412" 
d="M357 561h-152v-155h115v-117h-115v-173h152v-116h-302v677h302v-116zM208 848l63 -120h-103l-88 120h128z" />
    <glyph glyph-name="Eacute" unicode="&#xc9;" horiz-adv-x="412" 
d="M357 561h-152v-155h115v-117h-115v-173h152v-116h-302v677h302v-116zM203 848h128l-88 -120h-103z" />
    <glyph glyph-name="Ecircumflex" unicode="&#xca;" horiz-adv-x="412" 
d="M357 561h-152v-155h115v-117h-115v-173h152v-116h-302v677h302v-116zM247 849l107 -120h-104l-44 63l-44 -63h-103l107 120h81z" />
    <glyph glyph-name="Edieresis" unicode="&#xcb;" horiz-adv-x="412" 
d="M357 561h-152v-155h115v-117h-115v-173h152v-116h-302v677h302v-116zM59 729v120h120v-120h-120zM234 849h120v-120h-120v120z" />
    <glyph glyph-name="Igrave" unicode="&#xcc;" horiz-adv-x="260" 
d="M55 677h150v-677h-150v677zM120 848l63 -120h-103l-88 120h128z" />
    <glyph glyph-name="Iacute" unicode="&#xcd;" horiz-adv-x="260" 
d="M55 677h150v-677h-150v677zM139 848h128l-88 -120h-103z" />
    <glyph glyph-name="Icircumflex" unicode="&#xce;" horiz-adv-x="260" 
d="M55 677h150v-677h-150v677zM171 849l107 -120h-104l-44 63l-44 -63h-103l107 120h81z" />
    <glyph glyph-name="Idieresis" unicode="&#xcf;" horiz-adv-x="260" 
d="M55 677h150v-677h-150v677zM-17 729v120h120v-120h-120zM158 849h120v-120h-120v120z" />
    <glyph glyph-name="Eth" unicode="&#xd0;" horiz-adv-x="534" 
d="M275 677q92 0 148 -74.5t56 -235.5v-57q0 -161 -56 -235.5t-149 -74.5h-223v286h-46v116h46v275h224zM330 321v35q0 205 -89 205h-40v-159h64v-116h-64v-170h39q44 0 67 47.5t23 157.5z" />
    <glyph glyph-name="Ntilde" unicode="&#xd1;" horiz-adv-x="547" 
d="M346 677h146v-683h-146l-145 320v-314h-146v677h146l145 -320v320zM334 844h72q0 -49 -19.5 -79.5t-54.5 -30.5q-15 0 -34 5t-33 9.5t-26.5 7.5t-19.5 -2.5t-7 -19.5h-71q0 49 19 79.5t55 30.5q15 0 33.5 -5t32.5 -9.5t27 -7.5t19.5 2.5t6.5 19.5z" />
    <glyph glyph-name="Ograve" unicode="&#xd2;" horiz-adv-x="567" 
d="M283 683q101 0 165 -75.5t64 -240.5v-57q0 -165 -64 -240.5t-165 -75.5q-100 0 -164 75.5t-64 240.5v57q0 165 64 240.5t164 75.5zM362 321v35q0 211 -79 211q-78 0 -78 -211v-35q0 -211 78 -211q79 0 79 211zM273 848l63 -120h-103l-88 120h128z" />
    <glyph glyph-name="Oacute" unicode="&#xd3;" horiz-adv-x="567" 
d="M283 683q101 0 165 -75.5t64 -240.5v-57q0 -165 -64 -240.5t-165 -75.5q-100 0 -164 75.5t-64 240.5v57q0 165 64 240.5t164 75.5zM362 321v35q0 211 -79 211q-78 0 -78 -211v-35q0 -211 78 -211q79 0 79 211zM286 848h128l-88 -120h-103z" />
    <glyph glyph-name="Ocircumflex" unicode="&#xd4;" horiz-adv-x="567" 
d="M283 683q101 0 165 -75.5t64 -240.5v-57q0 -165 -64 -240.5t-165 -75.5q-100 0 -164 75.5t-64 240.5v57q0 165 64 240.5t164 75.5zM362 321v35q0 211 -79 211q-78 0 -78 -211v-35q0 -211 78 -211q79 0 79 211zM324 849l107 -120h-104l-44 63l-44 -63h-103l107 120h81z
" />
    <glyph glyph-name="Otilde" unicode="&#xd5;" horiz-adv-x="567" 
d="M283 683q101 0 165 -75.5t64 -240.5v-57q0 -165 -64 -240.5t-165 -75.5q-100 0 -164 75.5t-64 240.5v57q0 165 64 240.5t164 75.5zM362 321v35q0 211 -79 211q-78 0 -78 -211v-35q0 -211 78 -211q79 0 79 211zM344 844h72q0 -49 -19.5 -79.5t-54.5 -30.5q-15 0 -34 5
t-33 9.5t-26.5 7.5t-19.5 -2.5t-7 -19.5h-71q0 49 19 79.5t55 30.5q15 0 33.5 -5t32.5 -9.5t27 -7.5t19.5 2.5t6.5 19.5z" />
    <glyph glyph-name="Odieresis" unicode="&#xd6;" horiz-adv-x="567" 
d="M283 683q101 0 165 -75.5t64 -240.5v-57q0 -165 -64 -240.5t-165 -75.5q-100 0 -164 75.5t-64 240.5v57q0 165 64 240.5t164 75.5zM362 321v35q0 211 -79 211q-78 0 -78 -211v-35q0 -211 78 -211q79 0 79 211zM136 729v120h120v-120h-120zM311 849h120v-120h-120v120z
" />
    <glyph glyph-name="multiply" unicode="&#xd7;" horiz-adv-x="385" 
d="M325 320l-69 -95l69 -96l-83 -60l-49 68l-50 -68l-83 60l69 96l-69 95l83 61l50 -69l49 69z" />
    <glyph glyph-name="Oslash" unicode="&#xd8;" horiz-adv-x="567" 
d="M408 646q104 -75 104 -279v-57q0 -165 -64 -240.5t-165 -75.5q-38 0 -74 12l-26 -83h-58l34 108q-104 74 -104 279v57q0 165 64 240.5t164 75.5q39 0 75 -12l26 82h57zM205 321q0 -67 9 -114l106 343q-15 17 -37 17q-78 0 -78 -211v-35zM362 321v35q0 68 -9 114
l-106 -343q15 -17 36 -17q79 0 79 211z" />
    <glyph glyph-name="Ugrave" unicode="&#xd9;" horiz-adv-x="532" 
d="M327 677h150v-465q0 -110 -59 -164t-152 -54t-152 54t-59 164v465h150v-398q0 -91 14.5 -130t46.5 -39t46.5 39t14.5 130v398zM257 848l63 -120h-103l-88 120h128z" />
    <glyph glyph-name="Uacute" unicode="&#xda;" horiz-adv-x="532" 
d="M327 677h150v-465q0 -110 -59 -164t-152 -54t-152 54t-59 164v465h150v-398q0 -91 14.5 -130t46.5 -39t46.5 39t14.5 130v398zM268 848h128l-88 -120h-103z" />
    <glyph glyph-name="Ucircumflex" unicode="&#xdb;" horiz-adv-x="532" 
d="M327 677h150v-465q0 -110 -59 -164t-152 -54t-152 54t-59 164v465h150v-398q0 -91 14.5 -130t46.5 -39t46.5 39t14.5 130v398zM307 849l107 -120h-104l-44 63l-44 -63h-103l107 120h81z" />
    <glyph glyph-name="Udieresis" unicode="&#xdc;" horiz-adv-x="532" 
d="M327 677h150v-465q0 -110 -59 -164t-152 -54t-152 54t-59 164v465h150v-398q0 -91 14.5 -130t46.5 -39t46.5 39t14.5 130v398zM119 729v120h120v-120h-120zM294 849h120v-120h-120v120z" />
    <glyph glyph-name="Yacute" unicode="&#xdd;" horiz-adv-x="596" 
d="M385 677h156l-168 -443v-234h-150v231l-168 446h160l86 -237zM298 848h128l-88 -120h-103z" />
    <glyph glyph-name="Thorn" unicode="&#xde;" horiz-adv-x="532" 
d="M291 534q81 0 133.5 -49t52.5 -147q0 -97 -52.5 -146t-133.5 -49h-86v-143h-150v677h150v-143h86zM266 259q61 0 61 79t-61 79h-61v-158h61z" />
    <glyph glyph-name="germandbls" unicode="&#xdf;" horiz-adv-x="559" 
d="M397 341q0 -25 16.5 -52t37 -48.5t37 -57.5t16.5 -75q0 -51 -39 -82.5t-98 -31.5q-36 0 -70 10.5t-50 21.5l-16 10l43 92q27 -24 57 -24t30 35q0 26 -53.5 95.5t-53.5 106.5q0 24 27.5 66t27.5 82q0 83 -56 83q-26 0 -40.5 -21.5t-14.5 -61.5v-489h-143v501
q0 93 56.5 137.5t141.5 44.5q86 0 142.5 -44.5t56.5 -137.5q0 -43 -27.5 -89.5t-27.5 -70.5z" />
    <glyph glyph-name="agrave" unicode="&#xe0;" horiz-adv-x="481" 
d="M309 474h127v-474h-125l-18 44q-4 -6 -11 -14t-35.5 -22t-62.5 -14q-61 0 -100 53.5t-39 156.5v58q0 104 39 161t100 57q34 0 61.5 -12.5t37.5 -25.5l10 -12zM244 110q55 0 55 127t-55 127q-56 0 -56 -127t56 -127zM254 648l63 -120h-103l-88 120h128z" />
    <glyph glyph-name="aacute" unicode="&#xe1;" horiz-adv-x="481" 
d="M309 474h127v-474h-125l-18 44q-4 -6 -11 -14t-35.5 -22t-62.5 -14q-61 0 -100 53.5t-39 156.5v58q0 104 39 161t100 57q34 0 61.5 -12.5t37.5 -25.5l10 -12zM244 110q55 0 55 127t-55 127q-56 0 -56 -127t56 -127zM228 648h128l-88 -120h-103z" />
    <glyph glyph-name="acircumflex" unicode="&#xe2;" horiz-adv-x="481" 
d="M309 474h127v-474h-125l-18 44q-4 -6 -11 -14t-35.5 -22t-62.5 -14q-61 0 -100 53.5t-39 156.5v58q0 104 39 161t100 57q34 0 61.5 -12.5t37.5 -25.5l10 -12zM244 110q55 0 55 127t-55 127q-56 0 -56 -127t56 -127zM288 649l107 -120h-104l-44 63l-44 -63h-103l107 120
h81z" />
    <glyph glyph-name="atilde" unicode="&#xe3;" horiz-adv-x="481" 
d="M309 474h127v-474h-125l-18 44q-4 -6 -11 -14t-35.5 -22t-62.5 -14q-61 0 -100 53.5t-39 156.5v58q0 104 39 161t100 57q34 0 61.5 -12.5t37.5 -25.5l10 -12zM244 110q55 0 55 127t-55 127q-56 0 -56 -127t56 -127zM306 644h72q0 -49 -19.5 -79.5t-54.5 -30.5
q-15 0 -34 5t-33 9.5t-26.5 7.5t-19.5 -2.5t-7 -19.5h-71q0 49 19 79.5t55 30.5q15 0 33.5 -5t32.5 -9.5t27 -7.5t19.5 2.5t6.5 19.5z" />
    <glyph glyph-name="adieresis" unicode="&#xe4;" horiz-adv-x="481" 
d="M309 474h127v-474h-125l-18 44q-4 -6 -11 -14t-35.5 -22t-62.5 -14q-61 0 -100 53.5t-39 156.5v58q0 104 39 161t100 57q34 0 61.5 -12.5t37.5 -25.5l10 -12zM244 110q55 0 55 127t-55 127q-56 0 -56 -127t56 -127zM103 529v120h120v-120h-120zM278 649h120v-120h-120
v120z" />
    <glyph glyph-name="aring" unicode="&#xe5;" horiz-adv-x="481" 
d="M309 474h127v-474h-125l-18 44q-4 -6 -11 -14t-35.5 -22t-62.5 -14q-61 0 -100 53.5t-39 156.5v58q0 104 39 161t100 57q34 0 61.5 -12.5t37.5 -25.5l10 -12zM244 110q55 0 55 127t-55 127q-56 0 -56 -127t56 -127zM253 700q45 0 76 -29.5t31 -75.5q0 -47 -31 -76
t-76 -29t-76 29t-31 76q0 46 31 75.5t76 29.5zM253 560q14 0 21.5 10t7.5 25t-7.5 25t-21.5 10t-21.5 -10t-7.5 -25t7.5 -25t21.5 -10z" />
    <glyph glyph-name="ae" unicode="&#xe6;" horiz-adv-x="720" 
d="M675 262v-84h-232q2 -30 28 -49t63 -19q24 0 48 8.5t36 17.5l11 9l44 -93q-6 -6 -18.5 -16t-57 -26t-96.5 -16q-46 0 -89 22l-5 -16h-89l-18 44q-1 -2 -3.5 -5.5t-11.5 -12t-20 -15t-31 -12t-43 -5.5q-63 0 -104.5 40t-41.5 104q0 83 70.5 130t184.5 47q0 49 -82 49
q-27 0 -52.5 -6t-37.5 -12l-11 -5l-40 85q7 6 20 15t58 24t96 15q73 0 126 -38q50 38 119 38q81 0 130 -56.5t49 -161.5zM300 172v52q-54 0 -83 -17.5t-29 -45.5q0 -23 16 -37t40 -14q27 0 41.5 17t14.5 45zM443 273h105q0 43 -13.5 67t-38.5 24t-39 -24t-14 -67z" />
    <glyph glyph-name="ccedilla" unicode="&#xe7;" horiz-adv-x="408" 
d="M265 110q18 0 31.5 7t18.5 14l5 7l43 -91q-5 -6 -14 -15t-42.5 -23.5t-73.5 -14.5q-79 0 -133.5 58t-54.5 156v58q0 102 53.5 158t131.5 56q40 0 73 -15t47 -30l13 -15l-39 -83q-20 27 -63 27q-34 0 -53.5 -35t-19.5 -92t21 -92t56 -35zM238 -48q47 0 78.5 -21.5
t31.5 -58.5q0 -38 -34.5 -59.5t-86.5 -21.5q-36 0 -66.5 6.5t-42.5 12.5l-13 7l23 49q36 -16 71 -16q41 0 41 27q0 26 -34 26q-11 0 -20.5 -2.5t-13.5 -4.5l-3 -2h-57l40 85h57l-16 -33q19 6 45 6z" />
    <glyph glyph-name="egrave" unicode="&#xe8;" horiz-adv-x="464" 
d="M419 262v-84h-231q1 -30 27 -49t63 -19q24 0 48 8.5t36 17.5l12 9l43 -93q-6 -6 -18.5 -16t-56.5 -26t-96 -16q-77 0 -139 57t-62 157v58q0 102 56 158t139 56q81 0 130 -56.5t49 -161.5zM188 273h105q0 43 -14 67t-39 24q-52 0 -52 -91zM238 648l63 -120h-103l-88 120
h128z" />
    <glyph glyph-name="eacute" unicode="&#xe9;" horiz-adv-x="464" 
d="M419 262v-84h-231q1 -30 27 -49t63 -19q24 0 48 8.5t36 17.5l12 9l43 -93q-6 -6 -18.5 -16t-56.5 -26t-96 -16q-77 0 -139 57t-62 157v58q0 102 56 158t139 56q81 0 130 -56.5t49 -161.5zM188 273h105q0 43 -14 67t-39 24q-52 0 -52 -91zM233 648h128l-88 -120h-103z" />
    <glyph glyph-name="ecircumflex" unicode="&#xea;" horiz-adv-x="464" 
d="M419 262v-84h-231q1 -30 27 -49t63 -19q24 0 48 8.5t36 17.5l12 9l43 -93q-6 -6 -18.5 -16t-56.5 -26t-96 -16q-77 0 -139 57t-62 157v58q0 102 56 158t139 56q81 0 130 -56.5t49 -161.5zM188 273h105q0 43 -14 67t-39 24q-52 0 -52 -91zM277 649l107 -120h-104l-44 63
l-44 -63h-103l107 120h81z" />
    <glyph glyph-name="edieresis" unicode="&#xeb;" horiz-adv-x="464" 
d="M419 262v-84h-231q1 -30 27 -49t63 -19q24 0 48 8.5t36 17.5l12 9l43 -93q-6 -6 -18.5 -16t-56.5 -26t-96 -16q-77 0 -139 57t-62 157v58q0 102 56 158t139 56q81 0 130 -56.5t49 -161.5zM188 273h105q0 43 -14 67t-39 24q-52 0 -52 -91zM84 529v120h120v-120h-120z
M259 649h120v-120h-120v120z" />
    <glyph glyph-name="igrave" unicode="&#xec;" horiz-adv-x="248" 
d="M53 0v474h142v-474h-142zM45 685h158v-142h-158v142zM114 848l63 -120h-103l-88 120h128z" />
    <glyph glyph-name="iacute" unicode="&#xed;" horiz-adv-x="248" 
d="M53 0v474h142v-474h-142zM45 685h158v-142h-158v142zM129 848h128l-88 -120h-103z" />
    <glyph glyph-name="icircumflex" unicode="&#xee;" horiz-adv-x="248" 
d="M53 0v474h142v-474h-142zM45 685h158v-142h-158v142zM165 849l107 -120h-104l-44 63l-44 -63h-103l107 120h81z" />
    <glyph glyph-name="idieresis" unicode="&#xef;" horiz-adv-x="248" 
d="M53 0v474h142v-474h-142zM45 685h158v-142h-158v142zM-23 729v120h120v-120h-120zM152 849h120v-120h-120v120z" />
    <glyph glyph-name="eth" unicode="&#xf0;" horiz-adv-x="503" 
d="M458 510l-69 -6q59 -110 59 -260q0 -121 -57 -185.5t-144 -64.5q-84 0 -143 55t-59 153v57q0 95 52.5 152t128.5 57q26 0 53 -10q-4 12 -14 34l-124 -13l-8 91l60 6q-18 11 -47 24l39 83q80 -28 142 -94l122 12zM247 110q59 0 59 121q0 120 -59 120t-59 -120
q0 -121 59 -121z" />
    <glyph glyph-name="ntilde" unicode="&#xf1;" horiz-adv-x="481" 
d="M293 480q66 0 104.5 -46t38.5 -141v-293h-143v218q0 78 -12.5 112t-39.5 34t-40 -34t-13 -112v-218h-143v474h127l13 -37q43 43 108 43zM301 644h72q0 -49 -19.5 -79.5t-54.5 -30.5q-15 0 -34 5t-33 9.5t-26.5 7.5t-19.5 -2.5t-7 -19.5h-71q0 49 19 79.5t55 30.5
q15 0 33.5 -5t32.5 -9.5t27 -7.5t19.5 2.5t6.5 19.5z" />
    <glyph glyph-name="ograve" unicode="&#xf2;" horiz-adv-x="493" 
d="M247 480q88 0 144.5 -57t56.5 -157v-58q0 -100 -56.5 -157t-144.5 -57t-145 57t-57 157v58q0 100 57 157t145 57zM247 110q59 0 59 127t-59 127t-59 -127t59 -127zM246 648l63 -120h-103l-88 120h128z" />
    <glyph glyph-name="oacute" unicode="&#xf3;" horiz-adv-x="493" 
d="M247 480q88 0 144.5 -57t56.5 -157v-58q0 -100 -56.5 -157t-144.5 -57t-145 57t-57 157v58q0 100 57 157t145 57zM247 110q59 0 59 127t-59 127t-59 -127t59 -127zM243 648h128l-88 -120h-103z" />
    <glyph glyph-name="ocircumflex" unicode="&#xf4;" horiz-adv-x="493" 
d="M247 480q88 0 144.5 -57t56.5 -157v-58q0 -100 -56.5 -157t-144.5 -57t-145 57t-57 157v58q0 100 57 157t145 57zM247 110q59 0 59 127t-59 127t-59 -127t59 -127zM287 649l107 -120h-104l-44 63l-44 -63h-103l107 120h81z" />
    <glyph glyph-name="otilde" unicode="&#xf5;" horiz-adv-x="493" 
d="M247 480q88 0 144.5 -57t56.5 -157v-58q0 -100 -56.5 -157t-144.5 -57t-145 57t-57 157v58q0 100 57 157t145 57zM247 110q59 0 59 127t-59 127t-59 -127t59 -127zM307 644h72q0 -49 -19.5 -79.5t-54.5 -30.5q-15 0 -34 5t-33 9.5t-26.5 7.5t-19.5 -2.5t-7 -19.5h-71
q0 49 19 79.5t55 30.5q15 0 33.5 -5t32.5 -9.5t27 -7.5t19.5 2.5t6.5 19.5z" />
    <glyph glyph-name="odieresis" unicode="&#xf6;" horiz-adv-x="493" 
d="M247 480q88 0 144.5 -57t56.5 -157v-58q0 -100 -56.5 -157t-144.5 -57t-145 57t-57 157v58q0 100 57 157t145 57zM247 110q59 0 59 127t-59 127t-59 -127t59 -127zM99 529v120h120v-120h-120zM274 649h120v-120h-120v120z" />
    <glyph glyph-name="divide" unicode="&#xf7;" horiz-adv-x="441" 
d="M284 456v-127h-127v127h127zM157 -7v127h127v-127h-127zM60 280h321v-111h-321v111z" />
    <glyph glyph-name="oslash" unicode="&#xf8;" horiz-adv-x="493" 
d="M344 458q104 -53 104 -192v-58q0 -100 -56.5 -157t-144.5 -57q-26 0 -46 4l-23 -75h-58l29 93q-104 53 -104 192v58q0 100 57 157t145 57q15 0 45 -4l23 74h58zM195 165l62 198q-2 0 -5.5 0.5t-4.5 0.5q-59 0 -59 -127q0 -45 7 -72zM247 110q59 0 59 127q0 42 -8 72
l-61 -198q3 -1 10 -1z" />
    <glyph glyph-name="ugrave" unicode="&#xf9;" horiz-adv-x="476" 
d="M288 474h143v-474h-127l-13 37q-43 -43 -108 -43q-66 0 -104.5 46t-38.5 141v293h143v-218q0 -78 13 -112t40 -34t39.5 34t12.5 112v218zM230 648l63 -120h-103l-88 120h128z" />
    <glyph glyph-name="uacute" unicode="&#xfa;" horiz-adv-x="476" 
d="M288 474h143v-474h-127l-13 37q-43 -43 -108 -43q-66 0 -104.5 46t-38.5 141v293h143v-218q0 -78 13 -112t40 -34t39.5 34t12.5 112v218zM235 648h128l-88 -120h-103z" />
    <glyph glyph-name="ucircumflex" unicode="&#xfb;" horiz-adv-x="476" 
d="M288 474h143v-474h-127l-13 37q-43 -43 -108 -43q-66 0 -104.5 46t-38.5 141v293h143v-218q0 -78 13 -112t40 -34t39.5 34t12.5 112v218zM279 649l107 -120h-104l-44 63l-44 -63h-103l107 120h81z" />
    <glyph glyph-name="udieresis" unicode="&#xfc;" horiz-adv-x="476" 
d="M288 474h143v-474h-127l-13 37q-43 -43 -108 -43q-66 0 -104.5 46t-38.5 141v293h143v-218q0 -78 13 -112t40 -34t39.5 34t12.5 112v218zM91 529v120h120v-120h-120zM266 649h120v-120h-120v120z" />
    <glyph glyph-name="yacute" unicode="&#xfd;" horiz-adv-x="519" 
d="M332 474h142l-208 -677h-143l65 212l-143 465h149l70 -247zM266 648h128l-88 -120h-103z" />
    <glyph glyph-name="thorn" unicode="&#xfe;" horiz-adv-x="481" 
d="M276 480q69 0 114.5 -55.5t45.5 -158.5v-58q0 -103 -45.5 -158.5t-114.5 -55.5q-24 0 -46 9t-32 19l-10 9v-234h-143v885l143 37v-276q37 37 88 37zM237 104q56 0 56 133q0 132 -56 132q-55 0 -55 -132q0 -133 55 -133z" />
    <glyph glyph-name="ydieresis" unicode="&#xff;" horiz-adv-x="519" 
d="M332 474h142l-208 -677h-143l65 212l-143 465h149l70 -247zM117 529v120h120v-120h-120zM292 649h120v-120h-120v120z" />
    <glyph glyph-name="Amacron" unicode="&#x100;" horiz-adv-x="602" 
d="M395 677l152 -677h-154l-24 118h-145l-24 -118h-145l151 677h189zM248 234h97l-48 235zM196 825h210v-90h-210v90z" />
    <glyph glyph-name="amacron" unicode="&#x101;" horiz-adv-x="481" 
d="M309 474h127v-474h-125l-18 44q-4 -6 -11 -14t-35.5 -22t-62.5 -14q-61 0 -100 53.5t-39 156.5v58q0 104 39 161t100 57q34 0 61.5 -12.5t37.5 -25.5l10 -12zM244 110q55 0 55 127t-55 127q-56 0 -56 -127t56 -127zM142 625h210v-90h-210v90z" />
    <glyph glyph-name="Abreve" unicode="&#x102;" horiz-adv-x="602" 
d="M395 677l152 -677h-154l-24 118h-145l-24 -118h-145l151 677h189zM248 234h97l-48 235zM359 845h72q0 -57 -34 -92t-96 -35t-96 35t-34 92h71q0 -15 16 -26.5t43 -11.5t42.5 11.5t15.5 26.5z" />
    <glyph glyph-name="abreve" unicode="&#x103;" horiz-adv-x="481" 
d="M309 474h127v-474h-125l-18 44q-4 -6 -11 -14t-35.5 -22t-62.5 -14q-61 0 -100 53.5t-39 156.5v58q0 104 39 161t100 57q34 0 61.5 -12.5t37.5 -25.5l10 -12zM244 110q55 0 55 127t-55 127q-56 0 -56 -127t56 -127zM312 645h72q0 -57 -34 -92t-96 -35t-96 35t-34 92h71
q0 -15 16 -26.5t43 -11.5t42.5 11.5t15.5 26.5z" />
    <glyph glyph-name="Aogonek" unicode="&#x104;" horiz-adv-x="602" 
d="M395 677l152 -677h-154l-24 118h-145l-24 -118h-145l151 677h189zM248 234h97l-48 235zM463 -138l23 -48q-26 -23 -89 -23q-38 0 -69 20t-31 54q0 29 24.5 57.5t48.5 42.5l24 14h67q-6 -4 -15.5 -12t-25 -33.5t-15.5 -52.5q0 -13 7 -22t19 -9q8 0 16 3t12 6z" />
    <glyph glyph-name="aogonek" unicode="&#x105;" horiz-adv-x="481" 
d="M309 474h127v-474h-125l-18 44q-4 -6 -11 -14t-35.5 -22t-62.5 -14q-61 0 -100 53.5t-39 156.5v58q0 104 39 161t100 57q34 0 61.5 -12.5t37.5 -25.5l10 -12zM244 110q55 0 55 127t-55 127q-56 0 -56 -127t56 -127zM384 -138l23 -48q-26 -23 -89 -23q-38 0 -69 20t-31 54
q0 29 24 57.5t48 42.5l25 14h67q-6 -4 -15.5 -12t-25 -33.5t-15.5 -52.5q0 -13 7 -22t19 -9q8 0 16 3t12 6z" />
    <glyph glyph-name="Cacute" unicode="&#x106;" horiz-adv-x="488" 
d="M414 145l44 -94q-5 -6 -14 -15.5t-45.5 -25.5t-81.5 -16q-111 0 -186.5 78t-75.5 238v57q0 161 70.5 238.5t182.5 77.5q47 0 83.5 -15.5t50.5 -31.5l13 -15l-45 -95q-4 5 -10.5 11.5t-28.5 18t-45 11.5q-55 0 -88 -55.5t-33 -173.5q0 -117 36 -172.5t95 -55.5
q23 0 42.5 8.5t27.5 17.5zM292 848h128l-88 -120h-103z" />
    <glyph glyph-name="cacute" unicode="&#x107;" horiz-adv-x="408" 
d="M265 110q18 0 31.5 7t18.5 14l5 7l43 -91q-5 -6 -14 -15t-42.5 -23.5t-73.5 -14.5q-79 0 -133.5 58t-54.5 156v58q0 102 53.5 158t131.5 56q40 0 73 -15t47 -30l13 -15l-39 -83q-20 27 -63 27q-34 0 -53.5 -35t-19.5 -92t21 -92t56 -35zM201 648h128l-88 -120h-103z" />
    <glyph glyph-name="Ccaron" unicode="&#x10c;" horiz-adv-x="488" 
d="M414 145l44 -94q-5 -6 -14 -15.5t-45.5 -25.5t-81.5 -16q-111 0 -186.5 78t-75.5 238v57q0 161 70.5 238.5t182.5 77.5q47 0 83.5 -15.5t50.5 -31.5l13 -15l-45 -95q-4 5 -10.5 11.5t-28.5 18t-45 11.5q-55 0 -88 -55.5t-33 -173.5q0 -117 36 -172.5t95 -55.5
q23 0 42.5 8.5t27.5 17.5zM334 847h104l-107 -120h-81l-107 120h103l44 -62z" />
    <glyph glyph-name="ccaron" unicode="&#x10d;" horiz-adv-x="408" 
d="M265 110q18 0 31.5 7t18.5 14l5 7l43 -91q-5 -6 -14 -15t-42.5 -23.5t-73.5 -14.5q-79 0 -133.5 58t-54.5 156v58q0 102 53.5 158t131.5 56q40 0 73 -15t47 -30l13 -15l-39 -83q-20 27 -63 27q-34 0 -53.5 -35t-19.5 -92t21 -92t56 -35zM248 647h104l-107 -120h-81
l-107 120h103l44 -62z" />
    <glyph glyph-name="Dcaron" unicode="&#x10e;" horiz-adv-x="538" 
d="M279 677q92 0 148 -74.5t56 -235.5v-57q0 -161 -56 -235.5t-149 -74.5h-223v677h224zM334 321v35q0 205 -89 205h-40v-445h39q44 0 67 47.5t23 157.5zM289 847h104l-107 -120h-81l-107 120h103l44 -62z" />
    <glyph glyph-name="dcaron" unicode="&#x10f;" horiz-adv-x="481" 
d="M293 682l143 37v-719h-125l-18 44q-3 -6 -10 -14t-31.5 -22t-52.5 -14q-65 0 -109.5 53t-44.5 161v58q0 109 44.5 161.5t109.5 52.5q28 0 51.5 -9t33.5 -17l9 -9v237zM244 110q27 0 41.5 34.5t14.5 92.5t-14.5 92.5t-41.5 34.5t-41.5 -34.5t-14.5 -92.5t14.5 -92.5
t41.5 -34.5zM481 677h115v-131l-50 -103h-65l64 103h-64v131z" />
    <glyph glyph-name="Dcroat" unicode="&#x110;" horiz-adv-x="534" 
d="M275 677q92 0 148 -74.5t56 -235.5v-57q0 -161 -56 -235.5t-149 -74.5h-223v286h-46v116h46v275h224zM330 321v35q0 205 -89 205h-40v-159h64v-116h-64v-170h39q44 0 67 47.5t23 157.5z" />
    <glyph glyph-name="dcroat" unicode="&#x111;" horiz-adv-x="485" 
d="M436 611h49v-111h-49v-500h-125l-18 44q-3 -6 -10 -14t-31.5 -22t-52.5 -14q-65 0 -109.5 53t-44.5 161v58q0 109 44.5 161.5t109.5 52.5q28 0 51.5 -9t33.5 -17l9 -9v55h-70v111h70v71l143 37v-108zM244 110q27 0 41.5 34.5t14.5 92.5t-14.5 92.5t-41.5 34.5
t-41.5 -34.5t-14.5 -92.5t14.5 -92.5t41.5 -34.5z" />
    <glyph glyph-name="Emacron" unicode="&#x112;" horiz-adv-x="412" 
d="M357 561h-152v-155h115v-117h-115v-173h152v-116h-302v677h302v-116zM101 825h210v-90h-210v90z" />
    <glyph glyph-name="emacron" unicode="&#x113;" horiz-adv-x="464" 
d="M419 262v-84h-231q1 -30 27 -49t63 -19q24 0 48 8.5t36 17.5l12 9l43 -93q-6 -6 -18.5 -16t-56.5 -26t-96 -16q-77 0 -139 57t-62 157v58q0 102 56 158t139 56q81 0 130 -56.5t49 -161.5zM188 273h105q0 43 -14 67t-39 24q-52 0 -52 -91zM127 625h210v-90h-210v90z" />
    <glyph glyph-name="Edotaccent" unicode="&#x116;" horiz-adv-x="412" 
d="M357 561h-152v-155h115v-117h-115v-173h152v-116h-302v677h302v-116zM135 847h142v-128h-142v128z" />
    <glyph glyph-name="edotaccent" unicode="&#x117;" horiz-adv-x="464" 
d="M419 262v-84h-231q1 -30 27 -49t63 -19q24 0 48 8.5t36 17.5l12 9l43 -93q-6 -6 -18.5 -16t-56.5 -26t-96 -16q-77 0 -139 57t-62 157v58q0 102 56 158t139 56q81 0 130 -56.5t49 -161.5zM188 273h105q0 43 -14 67t-39 24q-52 0 -52 -91zM161 647h142v-128h-142v128z" />
    <glyph glyph-name="Eogonek" unicode="&#x118;" horiz-adv-x="412" 
d="M357 561h-152v-155h115v-117h-115v-173h152v-116h-302v677h302v-116zM354 -138l23 -48q-26 -23 -89 -23q-38 0 -69 20t-31 54q0 29 24 57.5t48 42.5l25 14h67q-6 -4 -15.5 -12t-25 -33.5t-15.5 -52.5q0 -13 7 -22t19 -9q8 0 16 3t12 6z" />
    <glyph glyph-name="eogonek" unicode="&#x119;" horiz-adv-x="464" 
d="M419 262v-84h-231q1 -30 27 -49t63 -19q24 0 48 8.5t36 17.5l12 9l43 -93q-6 -6 -18.5 -16t-56.5 -26t-96 -16q-77 0 -139 57t-62 157v58q0 102 56 158t139 56q81 0 130 -56.5t49 -161.5zM188 273h105q0 43 -14 67t-39 24q-52 0 -52 -91zM282 -138l23 -48
q-26 -23 -89 -23q-38 0 -69 20t-31 54q0 29 24 57.5t48 42.5l25 14h67q-6 -4 -15.5 -12t-25 -33.5t-15.5 -52.5q0 -13 7 -22t19 -9q8 0 16 3t12 6z" />
    <glyph glyph-name="Ecaron" unicode="&#x11a;" horiz-adv-x="412" 
d="M357 561h-152v-155h115v-117h-115v-173h152v-116h-302v677h302v-116zM250 847h104l-107 -120h-81l-107 120h103l44 -62z" />
    <glyph glyph-name="ecaron" unicode="&#x11b;" horiz-adv-x="464" 
d="M419 262v-84h-231q1 -30 27 -49t63 -19q24 0 48 8.5t36 17.5l12 9l43 -93q-6 -6 -18.5 -16t-56.5 -26t-96 -16q-77 0 -139 57t-62 157v58q0 102 56 158t139 56q81 0 130 -56.5t49 -161.5zM188 273h105q0 43 -14 67t-39 24q-52 0 -52 -91zM276 647h104l-107 -120h-81
l-107 120h103l44 -62z" />
    <glyph glyph-name="Gbreve" unicode="&#x11e;" horiz-adv-x="547" 
d="M282 410h210v-271q-1 -6 -4.5 -15.5t-18 -34.5t-35 -44.5t-59 -35t-85.5 -15.5q-99 0 -167 80t-68 236v57q0 150 73.5 233t182.5 83q47 0 86 -14t55 -28l16 -14l-43 -91q-33 31 -90 31q-56 0 -93 -51.5t-37 -159.5v-35q0 -103 23 -157t62 -54q16 0 29 9.5t18 18.5l5 10
v145h-60v117zM353 845h72q0 -57 -34 -92t-96 -35t-96 35t-34 92h71q0 -15 16 -26.5t43 -11.5t42.5 11.5t15.5 26.5z" />
    <glyph glyph-name="gbreve" unicode="&#x11f;" horiz-adv-x="481" 
d="M309 474h127v-502q0 -93 -53.5 -137t-132.5 -44q-78 0 -131.5 42.5t-53.5 127.5h114q0 -26 16 -40t41 -14q57 0 57 65v57q-3 -4 -10 -10t-32.5 -15.5t-54.5 -9.5q-62 0 -106.5 56t-44.5 158v58q0 102 44.5 158t106.5 56q30 0 54.5 -12.5t33.5 -25.5l9 -12zM244 110
q55 0 55 127t-55 127q-56 0 -56 -127t56 -127zM298 645h72q0 -57 -34 -92t-96 -35t-96 35t-34 92h71q0 -15 16 -26.5t43 -11.5t42.5 11.5t15.5 26.5z" />
    <glyph glyph-name="uni0122" unicode="&#x122;" horiz-adv-x="547" 
d="M282 410h210v-271q-1 -6 -4.5 -15.5t-18 -34.5t-35 -44.5t-59 -35t-85.5 -15.5q-99 0 -167 80t-68 236v57q0 150 73.5 233t182.5 83q47 0 86 -14t55 -28l16 -14l-43 -91q-33 31 -90 31q-56 0 -93 -51.5t-37 -159.5v-35q0 -103 23 -157t62 -54q16 0 29 9.5t18 18.5l5 10
v145h-60v117zM314 -48q47 0 78.5 -21.5t31.5 -58.5q0 -38 -34.5 -59.5t-86.5 -21.5q-36 0 -66.5 6.5t-42.5 12.5l-13 7l23 49q36 -16 71 -16q41 0 41 27q0 26 -34 26q-11 0 -20.5 -2.5t-13.5 -4.5l-3 -2h-57l40 85h57l-16 -33q19 6 45 6z" />
    <glyph glyph-name="uni0123" unicode="&#x123;" horiz-adv-x="481" 
d="M309 474h127v-502q0 -93 -53.5 -137t-132.5 -44q-78 0 -131.5 42.5t-53.5 127.5h114q0 -26 16 -40t41 -14q57 0 57 65v57q-3 -4 -10 -10t-32.5 -15.5t-54.5 -9.5q-62 0 -106.5 56t-44.5 158v58q0 102 44.5 158t106.5 56q30 0 54.5 -12.5t33.5 -25.5l9 -12zM244 110
q55 0 55 127t-55 127q-56 0 -56 -127t56 -127zM291 782l-63 -103h63v-131h-115v131l50 103h65z" />
    <glyph glyph-name="Imacron" unicode="&#x12a;" horiz-adv-x="260" 
d="M55 677h150v-677h-150v677zM25 825h210v-90h-210v90z" />
    <glyph glyph-name="imacron" unicode="&#x12b;" horiz-adv-x="248" 
d="M53 0v474h142v-474h-142zM19 625h210v-90h-210v90z" />
    <glyph glyph-name="Iogonek" unicode="&#x12e;" horiz-adv-x="260" 
d="M55 677h150v-677h-150v677zM204 -138l23 -48q-26 -23 -89 -23q-38 0 -69 20t-31 54q0 29 24 57.5t48 42.5l25 14h67q-6 -4 -15.5 -12t-25 -33.5t-15.5 -52.5q0 -13 7 -22t19 -9q8 0 16 3t12 6z" />
    <glyph glyph-name="iogonek" unicode="&#x12f;" horiz-adv-x="248" 
d="M53 0v474h142v-474h-142zM45 685h158v-142h-158v142zM195 -138l23 -48q-26 -23 -89 -23q-38 0 -69 20t-31 54q0 29 24.5 57.5t48.5 42.5l24 14h67q-6 -4 -15.5 -12t-25 -33.5t-15.5 -52.5q0 -13 7 -22t19 -9q8 0 16 3t12 6z" />
    <glyph glyph-name="Idotaccent" unicode="&#x130;" horiz-adv-x="260" 
d="M55 677h150v-677h-150v677zM59 847h142v-128h-142v128z" />
    <glyph glyph-name="dotlessi" unicode="&#x131;" horiz-adv-x="248" 
d="M53 0v474h142v-474h-142z" />
    <glyph glyph-name="uni0136" unicode="&#x136;" horiz-adv-x="558" 
d="M366 443l137 -443h-157l-81 261l-60 -107v-154h-150v677h150v-245l137 245h155zM434 -48q47 0 78.5 -21.5t31.5 -58.5q0 -38 -34.5 -59.5t-86.5 -21.5q-36 0 -66.5 6.5t-42.5 12.5l-13 7l23 49q36 -16 71 -16q41 0 41 27q0 26 -34 26q-11 0 -20.5 -2.5t-13.5 -4.5l-3 -2
h-57l40 85h57l-16 -33q19 6 45 6z" />
    <glyph glyph-name="uni0137" unicode="&#x137;" horiz-adv-x="479" 
d="M337 312l97 -312h-139l-45 158l-62 -110v-48h-143v682l143 37v-429l93 184h148zM381 -48q47 0 78.5 -21.5t31.5 -58.5q0 -38 -34.5 -59.5t-86.5 -21.5q-36 0 -66.5 6.5t-43.5 12.5l-12 7l23 49q36 -16 71 -16q41 0 41 27q0 26 -34 26q-11 0 -20.5 -2.5t-12.5 -4.5l-4 -2
h-57l40 85h57l-16 -33q20 6 45 6z" />
    <glyph glyph-name="Lacute" unicode="&#x139;" horiz-adv-x="410" 
d="M205 116h150v-116h-300v677h150v-561zM138 848h128l-88 -120h-103z" />
    <glyph glyph-name="lacute" unicode="&#x13a;" horiz-adv-x="238" 
d="M45 682l143 37v-719h-143v682zM120 848h128l-88 -120h-103z" />
    <glyph glyph-name="uni013B" unicode="&#x13b;" horiz-adv-x="410" 
d="M205 116h150v-116h-300v677h150v-561zM225 -48q47 0 78.5 -21.5t31.5 -58.5q0 -38 -34.5 -59.5t-86.5 -21.5q-36 0 -66.5 6.5t-43.5 12.5l-12 7l23 49q36 -16 71 -16q41 0 41 27q0 26 -34 26q-11 0 -20.5 -2.5t-12.5 -4.5l-4 -2h-57l40 85h57l-16 -33q20 6 45 6z" />
    <glyph glyph-name="uni013C" unicode="&#x13c;" horiz-adv-x="238" 
d="M45 682l143 37v-719h-143v682zM133 -48q47 0 78.5 -21.5t31.5 -58.5q0 -38 -34.5 -59.5t-86.5 -21.5q-36 0 -66.5 6.5t-43.5 12.5l-12 7l23 49q36 -16 71 -16q41 0 41 27q0 26 -34 26q-11 0 -20.5 -2.5t-12.5 -4.5l-4 -2h-57l40 85h57l-16 -33q20 6 45 6z" />
    <glyph glyph-name="Lcaron" unicode="&#x13d;" horiz-adv-x="410" 
d="M205 116h150v-116h-300v677h150v-561zM178 847h104l-107 -120h-81l-107 120h103l44 -62z" />
    <glyph glyph-name="lcaron" unicode="&#x13e;" horiz-adv-x="238" 
d="M45 682l143 37v-719h-143v682zM238 677h115v-131l-50 -103h-65l64 103h-64v131z" />
    <glyph glyph-name="Lslash" unicode="&#x141;" horiz-adv-x="440" 
d="M180 116h150v-116h-300v244l-58 -11l-22 114l80 15v315h150v-286l91 18l22 -114l-113 -22v-157z" />
    <glyph glyph-name="lslash" unicode="&#x142;" horiz-adv-x="275" 
d="M261 409l22 -114l-104 -20v-275h-143v247l-74 -14l-22 114l96 19v316l143 37v-326z" />
    <glyph glyph-name="Nacute" unicode="&#x143;" horiz-adv-x="547" 
d="M346 677h146v-683h-146l-145 320v-314h-146v677h146l145 -320v320zM263 848h128l-88 -120h-103z" />
    <glyph glyph-name="nacute" unicode="&#x144;" horiz-adv-x="481" 
d="M293 480q66 0 104.5 -46t38.5 -141v-293h-143v218q0 78 -12.5 112t-39.5 34t-40 -34t-13 -112v-218h-143v474h127l13 -37q43 43 108 43zM229 648h128l-88 -120h-103z" />
    <glyph glyph-name="uni0145" unicode="&#x145;" horiz-adv-x="547" 
d="M346 677h146v-683h-146l-145 320v-314h-146v677h146l145 -320v320zM433 -48q47 0 78.5 -21.5t31.5 -58.5q0 -38 -34.5 -59.5t-86.5 -21.5q-36 0 -66.5 6.5t-43.5 12.5l-12 7l23 49q36 -16 71 -16q41 0 41 27q0 26 -34 26q-11 0 -20.5 -2.5t-12.5 -4.5l-4 -2h-57l40 85h57
l-16 -33q20 6 45 6z" />
    <glyph glyph-name="uni0146" unicode="&#x146;" horiz-adv-x="481" 
d="M293 480q66 0 104.5 -46t38.5 -141v-293h-143v218q0 78 -12.5 112t-39.5 34t-40 -34t-13 -112v-218h-143v474h127l13 -37q43 43 108 43zM379 -48q47 0 78.5 -21.5t31.5 -58.5q0 -38 -34.5 -59.5t-86.5 -21.5q-36 0 -66.5 6.5t-43.5 12.5l-12 7l23 49q36 -16 71 -16
q41 0 41 27q0 26 -34 26q-11 0 -20.5 -2.5t-12.5 -4.5l-4 -2h-57l40 85h57l-16 -33q20 6 45 6z" />
    <glyph glyph-name="Ncaron" unicode="&#x147;" horiz-adv-x="547" 
d="M346 677h146v-683h-146l-145 320v-314h-146v677h146l145 -320v320zM317 847h104l-107 -120h-81l-107 120h103l44 -62z" />
    <glyph glyph-name="ncaron" unicode="&#x148;" horiz-adv-x="481" 
d="M293 480q66 0 104.5 -46t38.5 -141v-293h-143v218q0 78 -12.5 112t-39.5 34t-40 -34t-13 -112v-218h-143v474h127l13 -37q43 43 108 43zM284 647h104l-107 -120h-81l-107 120h103l44 -62z" />
    <glyph glyph-name="Omacron" unicode="&#x14c;" horiz-adv-x="567" 
d="M283 683q101 0 165 -75.5t64 -240.5v-57q0 -165 -64 -240.5t-165 -75.5q-100 0 -164 75.5t-64 240.5v57q0 165 64 240.5t164 75.5zM362 321v35q0 211 -79 211q-78 0 -78 -211v-35q0 -211 78 -211q79 0 79 211zM178 825h210v-90h-210v90z" />
    <glyph glyph-name="omacron" unicode="&#x14d;" horiz-adv-x="493" 
d="M247 480q88 0 144.5 -57t56.5 -157v-58q0 -100 -56.5 -157t-144.5 -57t-145 57t-57 157v58q0 100 57 157t145 57zM247 110q59 0 59 127t-59 127t-59 -127t59 -127zM141 625h210v-90h-210v90z" />
    <glyph glyph-name="Ohungarumlaut" unicode="&#x150;" horiz-adv-x="567" 
d="M283 683q101 0 165 -75.5t64 -240.5v-57q0 -165 -64 -240.5t-165 -75.5q-100 0 -164 75.5t-64 240.5v57q0 165 64 240.5t164 75.5zM362 321v35q0 211 -79 211q-78 0 -78 -211v-35q0 -211 78 -211q79 0 79 211zM179 849h129l-64 -121h-103zM342 849h128l-85 -121h-103z
" />
    <glyph glyph-name="ohungarumlaut" unicode="&#x151;" horiz-adv-x="493" 
d="M247 480q88 0 144.5 -57t56.5 -157v-58q0 -100 -56.5 -157t-144.5 -57t-145 57t-57 157v58q0 100 57 157t145 57zM247 110q59 0 59 127t-59 127t-59 -127t59 -127zM123 649h129l-64 -121h-103zM286 649h128l-85 -121h-103z" />
    <glyph glyph-name="OE" unicode="&#x152;" horiz-adv-x="719" 
d="M664 561h-152v-155h115v-117h-115v-173h152v-116h-302v24q-36 -30 -93 -30q-90 0 -152 80t-62 236v57q0 156 62 236t152 80q58 0 93 -31v25h302v-116zM368 321v35q0 107 -22 159t-59 52q-82 0 -82 -211v-35q0 -211 82 -211q37 0 59 52t22 159z" />
    <glyph glyph-name="oe" unicode="&#x153;" horiz-adv-x="725" 
d="M680 262v-84h-232q2 -30 28 -49t63 -19q24 0 47.5 8.5t35.5 17.5l12 9l44 -93q-6 -6 -18.5 -16t-56.5 -26t-96 -16q-71 0 -127 46q-54 -46 -133 -46q-88 0 -145 57t-57 157v58q0 100 57 157t145 57q75 0 129 -43q50 43 125 43q81 0 130 -56.5t49 -161.5zM247 110
q59 0 59 127t-59 127t-59 -127t59 -127zM448 273h105q0 91 -52 91q-25 0 -39 -24t-14 -67z" />
    <glyph glyph-name="Racute" unicode="&#x154;" horiz-adv-x="529" 
d="M384 291l90 -291h-146l-83 268h-40v-268h-150v677h231q86 0 136 -52t50 -152q0 -134 -88 -182zM261 384q61 0 61 89q0 88 -61 88h-56v-177h56zM219 848h128l-88 -120h-103z" />
    <glyph glyph-name="racute" unicode="&#x155;" horiz-adv-x="397" 
d="M275 480q22 0 41 -5t28 -11l8 -5l-51 -109q-17 14 -44 14q-29 0 -49 -28t-20 -79v-257h-143v474h127l13 -37q40 43 90 43zM163 648h128l-88 -120h-103z" />
    <glyph glyph-name="uni0156" unicode="&#x156;" horiz-adv-x="529" 
d="M384 291l90 -291h-146l-83 268h-40v-268h-150v677h231q86 0 136 -52t50 -152q0 -134 -88 -182zM261 384q61 0 61 89q0 88 -61 88h-56v-177h56zM168 -48q47 0 78.5 -21.5t31.5 -58.5q0 -38 -34.5 -59.5t-86.5 -21.5q-36 0 -66.5 6.5t-42.5 12.5l-13 7l23 49q36 -16 71 -16
q41 0 41 27q0 26 -34 26q-11 0 -20.5 -2.5t-13.5 -4.5l-3 -2h-57l40 85h57l-16 -33q19 6 45 6z" />
    <glyph glyph-name="uni0157" unicode="&#x157;" horiz-adv-x="397" 
d="M275 480q22 0 41 -5t28 -11l8 -5l-51 -109q-17 14 -44 14q-29 0 -49 -28t-20 -79v-257h-143v474h127l13 -37q40 43 90 43zM133 -48q47 0 78.5 -21.5t31.5 -58.5q0 -38 -34.5 -59.5t-86.5 -21.5q-36 0 -66.5 6.5t-43.5 12.5l-12 7l23 49q36 -16 71 -16q41 0 41 27
q0 26 -34 26q-11 0 -20.5 -2.5t-12.5 -4.5l-4 -2h-57l40 85h57l-16 -33q20 6 45 6z" />
    <glyph glyph-name="Rcaron" unicode="&#x158;" horiz-adv-x="529" 
d="M384 291l90 -291h-146l-83 268h-40v-268h-150v677h231q86 0 136 -52t50 -152q0 -134 -88 -182zM261 384q61 0 61 89q0 88 -61 88h-56v-177h56zM294 847h104l-107 -120h-81l-107 120h103l44 -62z" />
    <glyph glyph-name="rcaron" unicode="&#x159;" horiz-adv-x="397" 
d="M275 480q22 0 41 -5t28 -11l8 -5l-51 -109q-17 14 -44 14q-29 0 -49 -28t-20 -79v-257h-143v474h127l13 -37q40 43 90 43zM237 647h104l-107 -120h-81l-107 120h103l44 -62z" />
    <glyph glyph-name="Sacute" unicode="&#x15a;" horiz-adv-x="491" 
d="M217 512q0 -26 22.5 -57t54.5 -62.5l64.5 -65.5t55 -77.5t22.5 -86.5q0 -84 -56 -126.5t-138 -42.5q-52 0 -99 15t-67 30l-21 15l47 100q53 -44 120 -44q64 0 64 59q0 24 -22.5 54t-54.5 62l-64 67t-54.5 79.5t-22.5 89.5q0 74 57.5 118t136.5 44q47 0 87.5 -13.5
t57.5 -27.5l17 -13l-43 -90q-46 28 -101 28q-31 0 -47 -15t-16 -40zM235 848h128l-88 -120h-103z" />
    <glyph glyph-name="sacute" unicode="&#x15b;" horiz-adv-x="414" 
d="M200 336q0 -15 26.5 -37t58 -44t58 -58t26.5 -75q0 -61 -46 -94.5t-119 -33.5q-44 0 -84 15t-58 30l-17 15l42 90q41 -34 93 -34q47 0 47 28q0 16 -26.5 38.5t-58 44t-58 57.5t-26.5 76q0 55 47.5 90.5t109.5 35.5q40 0 75.5 -13.5t51.5 -26.5l15 -14l-40 -85
q-23 23 -70 23q-21 0 -34 -7.5t-13 -20.5zM173 648h128l-88 -120h-103z" />
    <glyph glyph-name="uni015E" unicode="&#x15e;" horiz-adv-x="491" 
d="M217 512q0 -26 22.5 -57t54.5 -62.5l64.5 -65.5t55 -77.5t22.5 -86.5q0 -84 -56 -126.5t-138 -42.5q-52 0 -99 15t-67 30l-21 15l47 100q53 -44 120 -44q64 0 64 59q0 24 -22.5 54t-54.5 62l-64 67t-54.5 79.5t-22.5 89.5q0 74 57.5 118t136.5 44q47 0 87.5 -13.5
t57.5 -27.5l17 -13l-43 -90q-46 28 -101 28q-31 0 -47 -15t-16 -40zM261 -48q47 0 78.5 -21.5t31.5 -58.5q0 -38 -34.5 -59.5t-86.5 -21.5q-36 0 -66.5 6.5t-43.5 12.5l-12 7l23 49q36 -16 71 -16q41 0 41 27q0 26 -34 26q-11 0 -20.5 -2.5t-12.5 -4.5l-4 -2h-57l40 85h57
l-16 -33q20 6 45 6z" />
    <glyph glyph-name="uni015F" unicode="&#x15f;" horiz-adv-x="414" 
d="M200 336q0 -15 26.5 -37t58 -44t58 -58t26.5 -75q0 -61 -46 -94.5t-119 -33.5q-44 0 -84 15t-58 30l-17 15l42 90q41 -34 93 -34q47 0 47 28q0 16 -26.5 38.5t-58 44t-58 57.5t-26.5 76q0 55 47.5 90.5t109.5 35.5q40 0 75.5 -13.5t51.5 -26.5l15 -14l-40 -85
q-23 23 -70 23q-21 0 -34 -7.5t-13 -20.5zM240 -48q47 0 78.5 -21.5t31.5 -58.5q0 -38 -34.5 -59.5t-86.5 -21.5q-36 0 -66.5 6.5t-42.5 12.5l-13 7l23 49q36 -16 71 -16q41 0 41 27q0 26 -34 26q-11 0 -20.5 -2.5t-13.5 -4.5l-3 -2h-57l40 85h57l-16 -33q19 6 45 6z" />
    <glyph glyph-name="Scaron" unicode="&#x160;" horiz-adv-x="491" 
d="M217 512q0 -26 22.5 -57t54.5 -62.5l64.5 -65.5t55 -77.5t22.5 -86.5q0 -84 -56 -126.5t-138 -42.5q-52 0 -99 15t-67 30l-21 15l47 100q53 -44 120 -44q64 0 64 59q0 24 -22.5 54t-54.5 62l-64 67t-54.5 79.5t-22.5 89.5q0 74 57.5 118t136.5 44q47 0 87.5 -13.5
t57.5 -27.5l17 -13l-43 -90q-46 28 -101 28q-31 0 -47 -15t-16 -40zM285 847h104l-107 -120h-81l-107 120h103l44 -62z" />
    <glyph glyph-name="scaron" unicode="&#x161;" horiz-adv-x="414" 
d="M200 336q0 -15 26.5 -37t58 -44t58 -58t26.5 -75q0 -61 -46 -94.5t-119 -33.5q-44 0 -84 15t-58 30l-17 15l42 90q41 -34 93 -34q47 0 47 28q0 16 -26.5 38.5t-58 44t-58 57.5t-26.5 76q0 55 47.5 90.5t109.5 35.5q40 0 75.5 -13.5t51.5 -26.5l15 -14l-40 -85
q-23 23 -70 23q-21 0 -34 -7.5t-13 -20.5zM250 647h104l-107 -120h-81l-107 120h103l44 -62z" />
    <glyph glyph-name="uni0162" unicode="&#x162;" horiz-adv-x="485" 
d="M55 677h375v-116h-113v-561h-150v561h-112v116zM253 -48q47 0 78.5 -21.5t31.5 -58.5q0 -38 -34.5 -59.5t-86.5 -21.5q-36 0 -66.5 6.5t-43.5 12.5l-12 7l23 49q36 -16 71 -16q41 0 41 27q0 26 -34 26q-11 0 -20.5 -2.5t-12.5 -4.5l-4 -2h-57l40 85h57l-16 -33q20 6 45 6
z" />
    <glyph glyph-name="uni0163" unicode="&#x163;" horiz-adv-x="402" 
d="M272 480h85v-116h-85v-364h-143v364h-84v116h84v202l143 37v-239zM215 -48q47 0 78.5 -21.5t31.5 -58.5q0 -38 -34.5 -59.5t-86.5 -21.5q-36 0 -66.5 6.5t-43.5 12.5l-12 7l23 49q36 -16 71 -16q41 0 41 27q0 26 -34 26q-11 0 -20.5 -2.5t-12.5 -4.5l-4 -2h-57l40 85h57
l-16 -33q20 6 45 6z" />
    <glyph glyph-name="Tcaron" unicode="&#x164;" horiz-adv-x="485" 
d="M55 677h375v-116h-113v-561h-150v561h-112v116zM286 847h104l-107 -120h-81l-107 120h103l44 -62z" />
    <glyph glyph-name="tcaron" unicode="&#x165;" horiz-adv-x="402" 
d="M272 480h85v-116h-85v-364h-143v364h-84v116h84v202l143 37v-239zM392 677h115v-131l-50 -103h-65l64 103h-64v131z" />
    <glyph glyph-name="Umacron" unicode="&#x16a;" horiz-adv-x="532" 
d="M327 677h150v-465q0 -110 -59 -164t-152 -54t-152 54t-59 164v465h150v-398q0 -91 14.5 -130t46.5 -39t46.5 39t14.5 130v398zM161 825h210v-90h-210v90z" />
    <glyph glyph-name="umacron" unicode="&#x16b;" horiz-adv-x="476" 
d="M288 474h143v-474h-127l-13 37q-43 -43 -108 -43q-66 0 -104.5 46t-38.5 141v293h143v-218q0 -78 13 -112t40 -34t39.5 34t12.5 112v218zM133 625h210v-90h-210v90z" />
    <glyph glyph-name="Uring" unicode="&#x16e;" horiz-adv-x="532" 
d="M327 677h150v-465q0 -110 -59 -164t-152 -54t-152 54t-59 164v465h150v-398q0 -91 14.5 -130t46.5 -39t46.5 39t14.5 130v398zM266 900q45 0 76 -29.5t31 -75.5q0 -47 -31 -76t-76 -29t-76 29t-31 76q0 46 31 75.5t76 29.5zM266 760q14 0 21.5 10t7.5 25t-7.5 25
t-21.5 10t-21.5 -10t-7.5 -25t7.5 -25t21.5 -10z" />
    <glyph glyph-name="uring" unicode="&#x16f;" horiz-adv-x="476" 
d="M288 474h143v-474h-127l-13 37q-43 -43 -108 -43q-66 0 -104.5 46t-38.5 141v293h143v-218q0 -78 13 -112t40 -34t39.5 34t12.5 112v218zM238 700q45 0 76 -29.5t31 -75.5q0 -47 -31 -76t-76 -29t-76 29t-31 76q0 46 31 75.5t76 29.5zM238 560q14 0 21.5 10t7.5 25
t-7.5 25t-21.5 10t-21.5 -10t-7.5 -25t7.5 -25t21.5 -10z" />
    <glyph glyph-name="Uhungarumlaut" unicode="&#x170;" horiz-adv-x="532" 
d="M327 677h150v-465q0 -110 -59 -164t-152 -54t-152 54t-59 164v465h150v-398q0 -91 14.5 -130t46.5 -39t46.5 39t14.5 130v398zM162 849h129l-64 -121h-103zM325 849h128l-85 -121h-103z" />
    <glyph glyph-name="uhungarumlaut" unicode="&#x171;" horiz-adv-x="476" 
d="M288 474h143v-474h-127l-13 37q-43 -43 -108 -43q-66 0 -104.5 46t-38.5 141v293h143v-218q0 -78 13 -112t40 -34t39.5 34t12.5 112v218zM111 649h129l-64 -121h-103zM274 649h128l-85 -121h-103z" />
    <glyph glyph-name="Uogonek" unicode="&#x172;" horiz-adv-x="532" 
d="M327 677h150v-465q0 -110 -59 -164t-152 -54t-152 54t-59 164v465h150v-398q0 -91 14.5 -130t46.5 -39t46.5 39t14.5 130v398zM301 -138l23 -48q-26 -23 -89 -23q-38 0 -69 20t-31 54q0 29 24.5 57.5t48.5 42.5l24 14h67q-6 -4 -15.5 -12t-25 -33.5t-15.5 -52.5
q0 -13 7 -22t19 -9q8 0 16 3t12 6z" />
    <glyph glyph-name="uogonek" unicode="&#x173;" horiz-adv-x="476" 
d="M288 474h143v-474h-127l-13 37q-43 -43 -108 -43q-66 0 -104.5 46t-38.5 141v293h143v-218q0 -78 13 -112t40 -34t39.5 34t12.5 112v218zM375 -138l23 -48q-26 -23 -89 -23q-38 0 -69 20t-31 54q0 29 24.5 57.5t48.5 42.5l24 14h67q-6 -4 -15.5 -12t-25 -33.5
t-15.5 -52.5q0 -13 7 -22t19 -9q8 0 16 3t12 6z" />
    <glyph glyph-name="Ydieresis" unicode="&#x178;" horiz-adv-x="596" 
d="M385 677h156l-168 -443v-234h-150v231l-168 446h160l86 -237zM151 729v120h120v-120h-120zM326 849h120v-120h-120v120z" />
    <glyph glyph-name="Zacute" unicode="&#x179;" horiz-adv-x="438" 
d="M383 677v-122l-172 -439h172v-116h-328v122l172 439h-169v116h325zM200 848h128l-88 -120h-103z" />
    <glyph glyph-name="zacute" unicode="&#x17a;" horiz-adv-x="389" 
d="M344 474v-116l-139 -242h139v-116h-299v116l139 242h-131v116h291zM176 648h128l-88 -120h-103z" />
    <glyph glyph-name="Zdotaccent" unicode="&#x17b;" horiz-adv-x="438" 
d="M383 677v-122l-172 -439h172v-116h-328v122l172 439h-169v116h325zM148 847h142v-128h-142v128z" />
    <glyph glyph-name="zdotaccent" unicode="&#x17c;" horiz-adv-x="389" 
d="M344 474v-116l-139 -242h139v-116h-299v116l139 242h-131v116h291zM123 647h142v-128h-142v128z" />
    <glyph glyph-name="Zcaron" unicode="&#x17d;" horiz-adv-x="438" 
d="M383 677v-122l-172 -439h172v-116h-328v122l172 439h-169v116h325zM263 847h104l-107 -120h-81l-107 120h103l44 -62z" />
    <glyph glyph-name="zcaron" unicode="&#x17e;" horiz-adv-x="389" 
d="M344 474v-116l-139 -242h139v-116h-299v116l139 242h-131v116h291zM243 647h104l-107 -120h-81l-107 120h103l44 -62z" />
    <glyph glyph-name="florin" unicode="&#x192;" horiz-adv-x="536" 
d="M348 502l-4 -42h109v-100h-119l-38 -388q-10 -95 -49 -138t-108 -43q-32 0 -59.5 8t-38.5 16l-11 8l38 82q18 -14 44 -14q38 0 46 81l38 388h-57v100h67l4 42q9 92 53.5 136.5t115.5 44.5q28 0 52.5 -8.5t34.5 -16.5l10 -8l-38 -81q-15 14 -38 14q-44 0 -52 -81z" />
    <glyph glyph-name="uni0218" unicode="&#x218;" horiz-adv-x="491" 
d="M217 512q0 -26 22.5 -57t54.5 -62.5l64.5 -65.5t55 -77.5t22.5 -86.5q0 -84 -56 -126.5t-138 -42.5q-52 0 -99 15t-67 30l-21 15l47 100q53 -44 120 -44q64 0 64 59q0 24 -22.5 54t-54.5 62l-64 67t-54.5 79.5t-22.5 89.5q0 74 57.5 118t136.5 44q47 0 87.5 -13.5
t57.5 -27.5l17 -13l-43 -90q-46 28 -101 28q-31 0 -47 -15t-16 -40zM202 -27h128l-88 -120h-103z" />
    <glyph glyph-name="uni0219" unicode="&#x219;" horiz-adv-x="414" 
d="M200 336q0 -15 26.5 -37t58 -44t58 -58t26.5 -75q0 -61 -46 -94.5t-119 -33.5q-44 0 -84 15t-58 30l-17 15l42 90q41 -34 93 -34q47 0 47 28q0 16 -26.5 38.5t-58 44t-58 57.5t-26.5 76q0 55 47.5 90.5t109.5 35.5q40 0 75.5 -13.5t51.5 -26.5l15 -14l-40 -85
q-23 23 -70 23q-21 0 -34 -7.5t-13 -20.5zM164 -27h128l-88 -120h-103z" />
    <glyph glyph-name="uni021A" unicode="&#x21a;" horiz-adv-x="485" 
d="M55 677h375v-116h-113v-561h-150v561h-112v116zM178 -27h128l-88 -120h-103z" />
    <glyph glyph-name="uni021B" unicode="&#x21b;" horiz-adv-x="402" 
d="M272 480h85v-116h-85v-364h-143v364h-84v116h84v202l143 37v-239zM141 -27h128l-88 -120h-103z" />
    <glyph glyph-name="sc.g" unicode="&#x262;" horiz-adv-x="496" 
d="M250 343h196v-232q-2 -5 -6 -13t-19 -28t-34 -35.5t-52.5 -28t-71.5 -12.5q-91 0 -152 67.5t-61 190.5v58q0 118 67 188t159 70q40 0 74.5 -14t48.5 -28l14 -14l-39 -83q-25 28 -75 28q-49 0 -77.5 -44.5t-28.5 -131.5q0 -85 20 -131t50 -46q12 0 22 7t14 14l4 7v101h-53
v110z" />
    <glyph glyph-name="sc.i" unicode="&#x26a;" horiz-adv-x="243" 
d="M50 562h143v-562h-143v562z" />
    <glyph glyph-name="sc.n" unicode="&#x274;" horiz-adv-x="488" 
d="M303 562h135v-568h-135l-117 241v-235h-136v562h135l118 -242v242z" />
    <glyph glyph-name="sc.r" unicode="&#x280;" horiz-adv-x="490" 
d="M440 372q0 -116 -78 -165l64 -207h-136l-56 183h-41v-183h-143v562h220q77 0 123.5 -50.5t46.5 -139.5zM238 294q31 0 45 18.5t14 59.5q0 42 -14 60.5t-45 18.5h-45v-157h45z" />
    <glyph glyph-name="sc.x" unicode="&#x28e;" horiz-adv-x="526" 
d="M356 285l120 -285h-155l-62 147l-62 -147h-147l122 289l-115 273h155l57 -135l57 135h147z" />
    <glyph glyph-name="sc.y" unicode="&#x28f;" horiz-adv-x="544" 
d="M344 562h150l-151 -358v-204h-143v207l-150 355h158l68 -179z" />
    <glyph glyph-name="sc.b" unicode="&#x299;" horiz-adv-x="483" 
d="M352 292q3 -1 8.5 -3.5t19.5 -13t24.5 -23.5t19.5 -37t9 -52q0 -77 -53 -120t-142 -43h-188v562h193q74 0 124.5 -41.5t50.5 -111.5q0 -25 -7 -46t-16.5 -33.5t-19 -21.5t-16.5 -12zM193 451v-104h27q30 0 42.5 13t12.5 39q0 27 -12.5 39.5t-42.5 12.5h-27zM228 111
q34 0 48 15.5t14 47.5t-14 47.5t-48 15.5h-35v-126h35z" />
    <glyph glyph-name="sc.h" unicode="&#x29c;" horiz-adv-x="495" 
d="M302 562h143v-562h-143v226h-109v-226h-143v562h143v-226h109v226z" />
    <glyph glyph-name="sc.l" unicode="&#x29f;" horiz-adv-x="378" 
d="M193 111h135v-111h-278v562h143v-451z" />
    <glyph glyph-name="circumflex" unicode="&#x2c6;" horiz-adv-x="365" 
d="M223 649l107 -120h-104l-44 63l-44 -63h-103l107 120h81z" />
    <glyph glyph-name="caron" unicode="&#x2c7;" horiz-adv-x="365" 
d="M226 647h104l-107 -120h-81l-107 120h103l44 -62z" />
    <glyph glyph-name="uni02C9" unicode="&#x2c9;" horiz-adv-x="280" 
d="M35 625h210v-90h-210v90z" />
    <glyph glyph-name="breve" unicode="&#x2d8;" horiz-adv-x="330" 
d="M223 645h72q0 -57 -34 -92t-96 -35t-96 35t-34 92h71q0 -15 16 -26.5t43 -11.5t42.5 11.5t15.5 26.5z" />
    <glyph glyph-name="dotaccent" unicode="&#x2d9;" horiz-adv-x="212" 
d="M35 647h142v-128h-142v128z" />
    <glyph glyph-name="ring" unicode="&#x2da;" horiz-adv-x="284" 
d="M142 700q45 0 76 -29.5t31 -75.5q0 -47 -31 -76t-76 -29t-76 29t-31 76q0 46 31 75.5t76 29.5zM142 560q14 0 21.5 10t7.5 25t-7.5 25t-21.5 10t-21.5 -10t-7.5 -25t7.5 -25t21.5 -10z" />
    <glyph glyph-name="ogonek" unicode="&#x2db;" horiz-adv-x="259" 
d="M201 -138l23 -48q-26 -23 -89 -23q-38 0 -69 20t-31 54q0 29 24.5 57.5t48.5 42.5l24 14h67q-6 -4 -15.5 -12t-25 -33.5t-15.5 -52.5q0 -13 7 -22t19 -9q8 0 16 3t12 6z" />
    <glyph glyph-name="tilde" unicode="&#x2dc;" horiz-adv-x="335" 
d="M228 644h72q0 -49 -19.5 -79.5t-54.5 -30.5q-15 0 -34 5t-33 9.5t-26.5 7.5t-19.5 -2.5t-7 -19.5h-71q0 49 19 79.5t55 30.5q15 0 33.5 -5t32.5 -9.5t27 -7.5t19.5 2.5t6.5 19.5z" />
    <glyph glyph-name="hungarumlaut" unicode="&#x2dd;" horiz-adv-x="399" 
d="M73 649h129l-64 -121h-103zM236 649h128l-85 -121h-103z" />
    <glyph glyph-name="pi" unicode="&#x3c0;" horiz-adv-x="655" 
d="M574 121l36 -77q-4 -6 -12.5 -14t-37.5 -22t-61 -14q-63 0 -106.5 41.5t-43.5 116.5v211h-92v-363h-143v363h-69v111h516v-111h-69v-169q0 -90 42 -90q11 0 21 4t15 8z" />
    <glyph glyph-name="sc.a" unicode="&#x1d00;" horiz-adv-x="556" 
d="M364 562l142 -562h-147l-19 84h-131l-20 -84h-139l142 562h172zM230 178h89l-45 194z" />
    <glyph glyph-name="sc.c" unicode="&#x1d04;" horiz-adv-x="429" 
d="M296 104q16 0 29.5 3t18.5 6l6 3l39 -83q-4 -4 -11.5 -10.5t-40 -17.5t-73.5 -11q-90 0 -152 69.5t-62 188.5v58q0 121 62 189.5t154 68.5q38 0 69 -11.5t43 -22.5l11 -12l-39 -83q-20 18 -58 18q-42 0 -70.5 -43.5t-28.5 -132.5t29 -133t74 -44z" />
    <glyph glyph-name="sc.d" unicode="&#x1d05;" horiz-adv-x="488" 
d="M258 562q83 0 131.5 -67.5t48.5 -184.5v-58q0 -117 -48.5 -184.5t-131.5 -67.5h-208v562h208zM234 111q33 0 47 36.5t14 133.5q0 96 -14 133t-47 37h-41v-340h41z" />
    <glyph glyph-name="sc.e" unicode="&#x1d07;" horiz-adv-x="371" 
d="M321 451h-128v-104h102v-111h-102v-125h128v-111h-271v562h271v-111z" />
    <glyph glyph-name="sc.j" unicode="&#x1d0a;" horiz-adv-x="379" 
d="M186 562h143v-386q0 -85 -45 -133.5t-125 -48.5q-27 0 -54.5 9t-40.5 18l-14 9l44 94q13 -20 48 -20q44 0 44 126v332z" />
    <glyph glyph-name="sc.k" unicode="&#x1d0b;" horiz-adv-x="500" 
d="M338 365l112 -365h-135l-63 212l-59 -106v-106h-143v562h143v-203l108 203h147z" />
    <glyph glyph-name="sc.m" unicode="&#x1d0d;" horiz-adv-x="620" 
d="M532 562l38 -562h-143l-11 278l-52 -284h-115l-49 269l-15 -263h-135l37 562h182l43 -257l43 257h177z" />
    <glyph glyph-name="sc.o" unicode="&#x1d0f;" horiz-adv-x="508" 
d="M254 568q85 0 144.5 -67t59.5 -191v-58q0 -124 -59.5 -191t-144.5 -67q-86 0 -145 67t-59 191v58q0 124 59 191t145 67zM254 104q30 0 45.5 39.5t15.5 137.5t-15.5 137t-45.5 39t-45.5 -39t-15.5 -137t15.5 -137.5t45.5 -39.5z" />
    <glyph glyph-name="sc.p" unicode="&#x1d18;" horiz-adv-x="479" 
d="M260 562q82 0 125.5 -51t43.5 -142t-43.5 -141.5t-125.5 -50.5h-67v-177h-143v562h210zM229 288q57 0 57 81q0 42 -13 62t-44 20h-36v-163h36z" />
    <glyph glyph-name="sc.t" unicode="&#x1d1b;" horiz-adv-x="421" 
d="M50 562h321v-111h-89v-451h-143v451h-89v111z" />
    <glyph glyph-name="sc.u" unicode="&#x1d1c;" horiz-adv-x="483" 
d="M290 562h143v-408q0 -77 -55.5 -118.5t-136.5 -41.5q-80 0 -135.5 41.5t-55.5 118.5v408h143v-391q0 -31 12.5 -49t35.5 -18t36 17.5t13 49.5v391z" />
    <glyph glyph-name="sc.v" unicode="&#x1d20;" horiz-adv-x="547" 
d="M356 562h141l-133 -562h-181l-133 562h148l79 -372z" />
    <glyph glyph-name="sc.w" unicode="&#x1d21;" horiz-adv-x="791" 
d="M599 562h142l-123 -562h-178l-45 235l-45 -235h-178l-122 562h149l71 -353l63 353h132l63 -353z" />
    <glyph glyph-name="sc.z" unicode="&#x1d22;" horiz-adv-x="389" 
d="M339 451l-138 -338h138v-113h-289v113l138 338h-130v111h281v-111z" />
    <glyph glyph-name="endash" unicode="&#x2013;" horiz-adv-x="403" 
d="M50 295h303v-110h-303v110z" />
    <glyph glyph-name="emdash" unicode="&#x2014;" horiz-adv-x="548" 
d="M50 295h448v-110h-448v110z" />
    <glyph glyph-name="quoteleft" unicode="&#x2018;" horiz-adv-x="185" 
d="M150 677l-63 -103h63v-131h-115v131l50 103h65z" />
    <glyph glyph-name="quoteright" unicode="&#x2019;" horiz-adv-x="185" 
d="M35 677h115v-131l-50 -103h-65l64 103h-64v131z" />
    <glyph glyph-name="quotesinglbase" unicode="&#x201a;" horiz-adv-x="205" 
d="M45 -103l64 103h-64v130h115v-130l-50 -103h-65z" />
    <glyph glyph-name="quotedblleft" unicode="&#x201c;" horiz-adv-x="340" 
d="M85 677h65l-63 -103h63v-131h-115v131zM305 677l-63 -103h63v-131h-115v131l50 103h65z" />
    <glyph glyph-name="quotedblright" unicode="&#x201d;" horiz-adv-x="340" 
d="M190 677h115v-131l-50 -103h-65l64 103h-64v131zM35 546v131h115v-131l-50 -103h-65l64 103h-64z" />
    <glyph glyph-name="quotedblbase" unicode="&#x201e;" horiz-adv-x="360" 
d="M200 130h115v-130l-50 -103h-65l64 103h-64v130zM45 0v130h115v-130l-50 -103h-65l64 103h-64z" />
    <glyph glyph-name="dagger" unicode="&#x2020;" horiz-adv-x="465" 
d="M304 472h106v-110h-106v-565h-143v565h-106v110h106v205h143v-205z" />
    <glyph glyph-name="daggerdbl" unicode="&#x2021;" horiz-adv-x="449" 
d="M394 362h-98v-251h98v-110h-98v-204h-143v204h-98v110h98v251h-98v110h98v205h143v-205h98v-110z" />
    <glyph glyph-name="bullet" unicode="&#x2022;" horiz-adv-x="300" 
d="M60 428h180v-180h-180v180z" />
    <glyph glyph-name="ellipsis" unicode="&#x2026;" horiz-adv-x="720" 
d="M45 150h150v-150h-150v150zM285 150h150v-150h-150v150zM525 150h150v-150h-150v150z" />
    <glyph glyph-name="perthousand" unicode="&#x2030;" horiz-adv-x="1294" 
d="M396 503q0 -80 -48 -130t-120 -50t-120 50t-48 130t48 130t120 50t120 -50t48 -130zM228 426q25 0 41 20t16 57t-16 57t-41 20t-41 -20t-16 -57t16 -57t41 -20zM698 353q72 0 120 -49.5t48 -129.5q0 -81 -48 -130.5t-120 -49.5t-120 49.5t-48 130.5q0 80 48 129.5
t120 49.5zM698 96q25 0 41 20t16 58q0 37 -16 57t-41 20t-41 -20t-16 -57q0 -38 16 -58t41 -20zM1066 353q72 0 120 -49.5t48 -129.5q0 -81 -48 -130.5t-120 -49.5t-120 49.5t-48 130.5q0 80 48 129.5t120 49.5zM1066 96q25 0 41 20t16 58q0 37 -16 57t-41 20t-41 -20
t-16 -57q0 -38 16 -58t41 -20zM522 677h117l-234 -677h-117z" />
    <glyph glyph-name="guilsinglleft" unicode="&#x2039;" horiz-adv-x="320" 
d="M270 376l-109 -135l109 -135l-86 -69l-134 166v77l134 165z" />
    <glyph glyph-name="guilsinglright" unicode="&#x203a;" horiz-adv-x="320" 
d="M136 445l134 -165v-77l-134 -166l-86 69l109 135l-109 135z" />
    <glyph glyph-name="fraction" unicode="&#x2044;" horiz-adv-x="131" 
d="M124 677h117l-234 -677h-117z" />
    <glyph glyph-name="Euro" unicode="&#x20ac;" horiz-adv-x="522" 
d="M421 129l41 -86q-5 -5 -15 -13.5t-42 -22t-65 -13.5q-75 0 -132.5 55t-78.5 167h-69v100h363l-46 -100h-110q22 -114 90 -114q20 0 36 7t22 13zM436 461l-47 -100h-329v100h69q21 111 76 166.5t123 55.5q40 0 72.5 -13.5t45.5 -27.5l12 -13l-37 -81q-19 27 -67 27
q-64 0 -86 -114h168z" />
    <glyph glyph-name="uni20BA" unicode="&#x20ba;" horiz-adv-x="603" 
d="M404 297h139q0 -150 -107 -223.5t-289 -73.5v254l-87 -32v106l87 33v47l-87 -32v106l87 32v163h138v-111l120 44v-106l-120 -45v-47l120 44v-106l-120 -45v-172q119 49 119 164z" />
    <glyph glyph-name="uni20BD" unicode="&#x20bd;" horiz-adv-x="580" 
d="M317 294h-57v-71h179v-100h-179v-123h-139v123h-61v100h61v454h196q88 0 145.5 -48.5t57.5 -143.5q0 -94 -57.5 -142.5t-145.5 -48.5zM260 569v-167h52q70 0 70 83q0 84 -70 84h-52z" />
    <glyph glyph-name="Bitcoin" unicode="&#x20bf;" horiz-adv-x="583" 
d="M427 357q4 -1 10.5 -4t23 -13.5t29 -24t23 -36.5t10.5 -50q0 -56 -33 -92t-90 -50v-93h-100v83h-34v-83h-100v83h-106v108h67v306h-67v109h106v83h100v-83h34v83h100v-98q100 -32 100 -119q0 -37 -18 -64t-36 -36zM266 491v-87h36q60 0 60 43q0 44 -60 44h-36zM302 185
q83 0 83 55t-83 55h-36v-110h36z" />
    <glyph glyph-name="uni2113" unicode="&#x2113;" horiz-adv-x="499" 
d="M345 104q12 0 23.5 4t16.5 8l5 5l36 -77q-4 -6 -12.5 -14t-41 -22t-72.5 -14q-58 0 -106 40t-55 110l-52 -17l-42 89q41 9 93 32v260q0 86 46 130.5t114 44.5t112 -44.5t44 -130.5q0 -172 -173 -290v-24q0 -43 17.5 -66.5t46.5 -23.5zM312 572q-31 0 -31 -77v-151
q62 65 62 151q0 77 -31 77z" />
    <glyph glyph-name="Sound" unicode="&#x2117;" 
d="M441 527q57 0 91.5 -33.5t34.5 -92.5q0 -58 -34.5 -91.5t-91.5 -33.5h-47v-126h-104v377h151zM413 357q50 0 50 44q0 45 -50 45h-19v-89h19zM405 683q143 0 243.5 -101t100.5 -244q0 -142 -100.5 -243t-243.5 -101t-244 100.5t-101 243.5t101 244t244 101zM616 127
q40 38 65 95q23 57 23 116q0 60 -23 117q-25 57 -65 95q-39 41 -95 64q-55 24 -116 24t-117 -24q-56 -23 -95 -64q-40 -38 -65 -95q-23 -57 -23 -117q0 -59 23 -116q25 -57 65 -95q41 -42 95 -65q57 -23 117 -23q59 0 116 23q54 23 95 65z" />
    <glyph glyph-name="trademark" unicode="&#x2122;" horiz-adv-x="646" 
d="M60 617v60h196v-60h-59v-217h-78v217h-59zM560 677l26 -277h-77l-15 172l-34 -176h-68l-33 176l-18 -172h-66l27 277h97l30 -133l31 133h100z" />
    <glyph glyph-name="uni2126" unicode="&#x2126;" horiz-adv-x="667" 
d="M617 406q0 -89 -28 -164.5t-75 -125.5h94v-116h-241v116q4 3 11 9t24 29.5t30 52.5t24 81t11 112q0 77 -37 122t-97 45q-59 0 -96 -45t-37 -122q0 -60 10.5 -111.5t25 -82t29 -52t25.5 -30.5l10 -8v-116h-241v116h94q-47 50 -75 125.5t-28 164.5q0 125 80 201t203 76
q124 0 204 -76t80 -201z" />
    <glyph glyph-name="estimated" unicode="&#x212e;" horiz-adv-x="725" 
d="M675 324h-457v-220q62 -45 144 -45q62 0 115.5 24t76.5 47l23 24l44 -40q-4 -5 -11.5 -12.5t-33 -27.5t-53 -35t-71.5 -27.5t-90 -12.5q-135 0 -223.5 92t-88.5 247q0 156 88.5 247.5t223.5 91.5q136 0 224.5 -91.5t88.5 -247.5v-14zM218 573v-190h289v190
q-64 45 -145 45q-80 0 -144 -45z" />
    <glyph glyph-name="oneseventh" unicode="&#x2150;" horiz-adv-x="662" 
d="M412 360h195v-75q-20 -29 -34 -70q-32 -87 -32 -205v-10h-94v10q0 121 33 213q13 36 25 55h-93v82zM181 317h-94v260l-32 -8v78l126 33v-363zM363 677h117l-233 -677h-117z" />
    <glyph glyph-name="oneninth" unicode="&#x2151;" horiz-adv-x="680" 
d="M625 220v-1q-5 -109 -75 -175q-39 -38 -84 -56l-35 74l10 4q34 14 63 47h-5q-49 0 -80 36.5t-31 88.5q0 51 33 88t85 37q47 0 81.5 -36t37.5 -107zM506 189q27 0 27 49t-27 49q-26 0 -26 -49t26 -49zM181 317h-94v260l-32 -8v78l126 33v-363zM363 677h117l-233 -677h-117
z" />
    <glyph glyph-name="onetenth" unicode="&#x2152;" horiz-adv-x="864" 
d="M690 363q33 0 57.5 -17t37 -45t18.5 -58t6 -63q0 -43 -9 -81t-37 -70t-73 -32q-33 0 -57.5 17t-37 45t-18.5 58t-6 63q0 43 9 81t37 70t73 32zM705 97q8 30 8 83t-8 83q-7 23 -15 23t-15 -23q-8 -25 -8 -83t8 -83q7 -23 15 -23t15 23zM400 252v78l127 33v-363h-95v260z
M181 317h-94v260l-32 -8v78l126 33v-363zM363 677h117l-233 -677h-117z" />
    <glyph glyph-name="onethird" unicode="&#x2153;" horiz-adv-x="651" 
d="M181 317h-94v260l-32 -8v78l126 33v-363zM363 677h117l-233 -677h-117zM558 188q38 -28 38 -84q0 -45 -32 -76t-79 -31q-30 0 -54.5 8.5t-33.5 17.5l-9 9l31 66q20 -24 52 -24q14 0 22.5 10.5t8.5 27.5q0 38 -29 38h-38v77h31q31 0 31 29q0 30 -26 30q-12 0 -23.5 -6
t-17.5 -12l-5 -6l-31 65q42 36 90 36q45 0 76 -28.5t31 -73.5q0 -47 -33 -73z" />
    <glyph glyph-name="twothirds" unicode="&#x2154;" horiz-adv-x="723" 
d="M630 188q38 -28 38 -84q0 -45 -32 -76t-79 -31q-30 0 -54.5 8.5t-33.5 17.5l-9 9l31 66q20 -24 52 -24q14 0 22.5 10.5t8.5 27.5q0 38 -29 38h-38v77h31q31 0 31 29q0 30 -26 30q-12 0 -23.5 -6t-17.5 -12l-5 -6l-31 65q42 36 90 36q45 0 76 -28.5t31 -73.5
q0 -47 -33 -73zM272 394v-77h-174l-43 62q37 39 58.5 64t45 64t23.5 66q0 12 -8.5 20.5t-23.5 8.5q-12 0 -24 -5.5t-18 -10.5l-7 -6l-30 65q39 35 97 35q48 0 78 -29t30 -75q0 -19 -4.5 -37.5t-9 -31t-18 -31.5l-18.5 -26t-23.5 -29l-22.5 -27h92zM435 677h117l-233 -677
h-117z" />
    <glyph glyph-name="onefifth" unicode="&#x2155;" horiz-adv-x="667" 
d="M498 235q46 -1 80 -31.5t34 -87.5q0 -58 -38 -90q-32 -29 -80 -29q-52 0 -99 35l31 65q29 -23 56 -23q36 0 36 42q0 41 -39 41q-9 0 -19 -1.5t-15 -3.5l-5 -2l-38 38l9 172h185v-78h-95zM181 317h-94v260l-32 -8v78l126 33v-363zM363 677h117l-233 -677h-117z" />
    <glyph glyph-name="twofifths" unicode="&#x2156;" horiz-adv-x="739" 
d="M570 235q46 -1 80 -31.5t34 -87.5q0 -58 -37 -90q-34 -29 -81 -29q-52 0 -99 35l31 65q29 -23 56 -23q36 0 36 42q0 41 -39 41q-12 0 -39 -7l-38 38l9 172h185v-78h-95zM272 394v-77h-174l-43 62q37 39 58.5 64t45 64t23.5 66q0 12 -8.5 20.5t-23.5 8.5q-12 0 -24 -5.5
t-18 -10.5l-7 -6l-30 65q39 35 97 35q49 0 78.5 -28.5t29.5 -75.5q0 -14 -2.5 -28.5t-5 -24.5t-11 -25t-11.5 -21.5t-15.5 -22l-15.5 -19l-18 -21.5t-17 -20h92zM435 677h117l-233 -677h-117z" />
    <glyph glyph-name="threefifths" unicode="&#x2157;" horiz-adv-x="715" 
d="M546 235q46 -1 80 -31.5t34 -87.5q0 -52 -31.5 -85.5t-87.5 -33.5q-51 0 -98 35l31 65q29 -23 56 -23q35 0 35 42q0 41 -38 41q-14 0 -39 -7l-39 38l10 172h185v-78h-95zM263 421q0 -45 -32.5 -76t-79.5 -31q-30 0 -54 9t-33 17l-9 9l31 65q20 -23 52 -23q14 0 22.5 10.5
t8.5 27.5q0 38 -29 38h-38v77h30q32 0 32 29t-27 29q-12 0 -23 -6t-16 -12l-6 -5l-31 65q42 36 90 36q45 0 76 -28.5t31 -73.5q0 -47 -33 -73q38 -28 38 -84zM411 677h117l-234 -677h-117z" />
    <glyph glyph-name="fourfifths" unicode="&#x2158;" horiz-adv-x="738" 
d="M570 235q46 -1 79.5 -31.5t33.5 -87.5q0 -52 -31 -85.5t-87 -33.5q-57 0 -98 35l30 65q29 -23 57 -23q35 0 35 42q0 41 -39 41q-13 0 -38 -7l-39 38l9 172h186v-78h-96zM262 317h-95v86h-112v70l102 204h105v-197h32v-77h-32v-86zM136 470h37v85zM435 677h117l-234 -677
h-117z" />
    <glyph glyph-name="onesixth" unicode="&#x2159;" horiz-adv-x="661" 
d="M572 221q34 -37 34 -94q0 -50 -32 -90t-83 -40q-56 0 -89 42.5t-33 101.5q0 76 46.5 138t119.5 93l35 -75q-36 -10 -68 -41q40 -2 70 -35zM487 73q12 0 19.5 15t7.5 39t-7.5 39t-19.5 15q-11 0 -18.5 -15t-7.5 -39t7.5 -39t18.5 -15zM181 317h-94v260l-32 -8v78l126 33
v-363zM363 677h117l-233 -677h-118z" />
    <glyph glyph-name="fivesixths" unicode="&#x215a;" horiz-adv-x="705" 
d="M616 221q34 -37 34 -94q0 -55 -31.5 -92.5t-83.5 -37.5q-57 0 -89.5 41t-32.5 103q0 73 45 137t121 94l35 -75q-36 -10 -68 -41q40 -2 70 -35zM531 73q12 0 19.5 15t7.5 39t-7.5 39t-19.5 15q-11 0 -18.5 -15t-7.5 -39t7.5 -39t18.5 -15zM271 433q0 -52 -30.5 -85.5
t-87.5 -33.5q-51 0 -98 35l30 65q32 -23 57 -23q35 0 35 42q0 41 -38 41q-14 0 -39 -7l-39 38l9 172h186v-78h-95l-3 -47q46 -1 79.5 -31.5t33.5 -87.5zM406 677h117l-233 -677h-118z" />
    <glyph glyph-name="oneeigth" unicode="&#x215b;" horiz-adv-x="690" 
d="M593 191q42 -30 42 -83q0 -51 -34.5 -81t-85.5 -30q-49 0 -84.5 29.5t-35.5 81.5t42 83q-37 28 -37 74q0 43 34.5 70.5t80.5 27.5q44 0 79.5 -27t35.5 -71q0 -46 -37 -74zM515 287q-22 0 -22 -30q0 -29 22 -29q23 0 23 29q0 30 -23 30zM515 73q28 0 28 39q0 18 -7.5 29
t-20.5 11t-20.5 -11t-7.5 -29q0 -39 28 -39zM181 317h-94v260l-32 -8v78l126 33v-363zM363 677h117l-233 -677h-118z" />
    <glyph glyph-name="threeeigths" unicode="&#x215c;" horiz-adv-x="735" 
d="M638 191q42 -31 42 -83q0 -51 -34.5 -81t-85.5 -30q-49 0 -84.5 29.5t-35.5 81.5q0 53 42 83q-37 28 -37 74q0 43 34.5 70.5t80.5 27.5q44 0 79.5 -27t35.5 -71q0 -46 -37 -74zM560 287q-23 0 -23 -30q0 -29 23 -29q22 0 22 29q0 30 -22 30zM560 73q28 0 28 39
q0 18 -7.5 29t-20.5 11t-20.5 -11t-7.5 -29q0 -39 28 -39zM263 421q0 -45 -32.5 -76t-79.5 -31q-30 0 -54 9t-33 17l-9 9l31 65q20 -23 52 -23q14 0 22.5 10.5t8.5 27.5q0 38 -29 38h-38v77h30q32 0 32 29t-27 29q-12 0 -23 -6t-16 -12l-6 -5l-31 65q42 36 90 36
q45 0 76 -28.5t31 -73.5q0 -47 -33 -73q38 -28 38 -84zM408 677h117l-234 -677h-117z" />
    <glyph glyph-name="fiveeigths" unicode="&#x215d;" horiz-adv-x="735" 
d="M638 191q42 -30 42 -83q0 -52 -34.5 -81.5t-85.5 -29.5q-49 0 -84.5 29.5t-35.5 81.5t42 83q-37 28 -37 74q0 43 34.5 70.5t80.5 27.5q44 0 79.5 -27t35.5 -71q0 -46 -37 -74zM560 287q-22 0 -22 -30q0 -29 22 -29q23 0 23 29q0 30 -23 30zM560 73q28 0 28 39
q0 18 -7.5 29t-20.5 11t-20.5 -11t-7.5 -29q0 -39 28 -39zM271 433q0 -51 -31.5 -85t-86.5 -34q-51 0 -98 35l30 65q32 -23 57 -23q35 0 35 42q0 41 -38 41q-14 0 -39 -7l-39 38l9 172h186v-78h-95l-3 -47q46 -1 79.5 -31.5t33.5 -87.5zM408 677h117l-233 -677h-118z" />
    <glyph glyph-name="seveneigths" unicode="&#x215e;" horiz-adv-x="678" 
d="M580 191q43 -31 43 -83q0 -51 -35 -81t-86 -30q-48 0 -84 29.5t-36 81.5t42 83q-37 29 -37 74q0 43 34.5 70.5t80.5 27.5q45 0 80 -26.5t35 -71.5q0 -46 -37 -74zM502 287q-22 0 -22 -30q0 -29 22 -29q23 0 23 29q0 30 -23 30zM502 73q28 0 28 39q0 18 -7.5 29t-20.5 11
t-20.5 -11t-7.5 -29q0 -39 28 -39zM90 327q0 121 33 213q13 36 25 55h-93v82h195v-75q-20 -29 -34 -70q-32 -94 -32 -205v-10h-94v10zM350 677h118l-234 -677h-117z" />
    <glyph glyph-name="numeratorone" unicode="&#x215f;" horiz-adv-x="535" 
d="M181 317h-94v260l-32 -8v78l126 33v-363zM363 677h117l-233 -677h-118z" />
    <glyph glyph-name="zerothirds" unicode="&#x2189;" horiz-adv-x="709" 
d="M615 188q39 -29 39 -84q0 -46 -30.5 -76.5t-81.5 -30.5q-30 0 -54.5 8.5t-33.5 17.5l-9 9l31 66q20 -24 52 -24q14 0 22.5 10.5t8.5 27.5q0 38 -28 38h-38v77h30q32 0 32 29q0 30 -27 30q-12 0 -23.5 -6t-16.5 -12l-6 -6l-31 65q42 36 91 36q44 0 75.5 -28.5t31.5 -73.5
q0 -48 -34 -73zM257 356q-30 -42 -83 -42t-83 42q-36 46 -36 141q0 93 36 141q31 42 83 42t83 -42q36 -48 36 -141q0 -95 -36 -141zM189 414q8 30 8 83t-8 83q-6 22 -15 22t-15 -22q-8 -25 -8 -83t8 -83q7 -23 15 -23t15 23zM421 677h117l-234 -677h-117z" />
    <glyph glyph-name="ArrowL" unicode="&#x2190;" horiz-adv-x="554" 
d="M494 397v-116h-226l78 -135h-175l-111 193l111 193h175l-78 -135h226z" />
    <glyph glyph-name="ArrowU" unicode="&#x2191;" horiz-adv-x="506" 
d="M253 560l193 -111v-174l-135 78v-226h-116v226l-135 -78v174z" />
    <glyph glyph-name="ArrowR" unicode="&#x2192;" horiz-adv-x="554" 
d="M382 532l112 -193l-112 -193h-174l78 135h-226v116h226l-78 135h174z" />
    <glyph glyph-name="ArrowD" unicode="&#x2193;" horiz-adv-x="506" 
d="M311 326l135 78v-174l-193 -112l-193 112v174l135 -78v226h116v-226z" />
    <glyph glyph-name="ArrowNW" unicode="&#x2196;" horiz-adv-x="525" 
d="M306 388l159 -160l-82 -82l-160 160l-40 -151l-123 123l58 215l215 58l123 -123z" />
    <glyph glyph-name="ArrowNE" unicode="&#x2197;" horiz-adv-x="525" 
d="M408 493l57 -215l-123 -123l-40 151l-160 -160l-82 82l160 160l-151 40l123 123z" />
    <glyph glyph-name="ArrowSE" unicode="&#x2198;" horiz-adv-x="525" 
d="M342 520l123 -123l-57 -215l-216 -58l-123 123l151 41l-160 160l82 82l160 -160z" />
    <glyph glyph-name="ArrowSW" unicode="&#x2199;" horiz-adv-x="525" 
d="M465 448l-159 -160l150 -41l-123 -123l-215 58l-58 215l123 123l40 -150l160 160z" />
    <glyph glyph-name="WhiteArrowL" unicode="&#x21e6;" 
d="M405 683q143 0 243.5 -101t100.5 -244q0 -142 -100.5 -243t-243.5 -101t-244 100.5t-101 243.5t101 244t244 101zM616 127q40 38 65 95q23 57 23 116q0 60 -23 117q-25 57 -65 95q-39 41 -95 64q-55 24 -116 24t-117 -24q-56 -23 -95 -64q-40 -38 -65 -95
q-23 -57 -23 -117q0 -59 23 -116q25 -57 65 -95q41 -42 95 -65q57 -23 117 -23q59 0 116 23q54 23 95 65zM473 532l-78 -135h226v-116h-226l78 -135h-174l-111 193l111 193h174z" />
    <glyph glyph-name="WhiteArrowUp" unicode="&#x21e7;" 
d="M405 683q143 0 243.5 -101t100.5 -244q0 -142 -100.5 -243t-243.5 -101t-244 100.5t-101 243.5t101 244t244 101zM616 127q40 38 65 95q23 57 23 116q0 60 -23 117q-25 57 -65 95q-39 41 -95 64q-55 24 -116 24t-117 -24q-56 -23 -95 -64q-40 -38 -65 -95
q-23 -57 -23 -117q0 -59 23 -116q25 -57 65 -95q41 -42 95 -65q57 -23 117 -23q59 0 116 23q54 23 95 65zM211 449l194 111l193 -111v-174l-135 78v-226h-117v226l-135 -78v174z" />
    <glyph glyph-name="WhiteArrowR" unicode="&#x21e8;" 
d="M405 683q143 0 243.5 -101t100.5 -244q0 -142 -100.5 -243t-243.5 -101t-244 100.5t-101 243.5t101 244t244 101zM616 127q40 38 65 95q23 57 23 116q0 60 -23 117q-25 57 -65 95q-39 41 -95 64q-55 24 -116 24t-117 -24q-56 -23 -95 -64q-40 -38 -65 -95
q-23 -57 -23 -117q0 -59 23 -116q25 -57 65 -95q41 -42 95 -65q57 -23 117 -23q59 0 116 23q54 23 95 65zM336 532h174l111 -193l-111 -193h-174l78 135h-226v116h226z" />
    <glyph glyph-name="WhiteArrowD" unicode="&#x21e9;" 
d="M405 683q143 0 243.5 -101t100.5 -244q0 -142 -100.5 -243t-243.5 -101t-244 100.5t-101 243.5t101 244t244 101zM616 127q40 38 65 95q23 57 23 116q0 60 -23 117q-25 57 -65 95q-39 41 -95 64q-55 24 -116 24t-117 -24q-56 -23 -95 -64q-40 -38 -65 -95
q-23 -57 -23 -117q0 -59 23 -116q25 -57 65 -95q41 -42 95 -65q57 -23 117 -23q59 0 116 23q54 23 95 65zM463 552v-226l135 78v-174l-193 -112l-194 112v174l135 -78v226h117z" />
    <glyph glyph-name="partialdiff" unicode="&#x2202;" horiz-adv-x="510" 
d="M169 683q6 -2 16.5 -6.5t41.5 -20.5t59 -35t62 -52.5t58.5 -71t41.5 -91t17 -112.5q0 -155 -54 -227.5t-160 -72.5q-81 0 -143.5 50t-62.5 132q0 93 70.5 143.5t176.5 50.5h24q-10 41 -34 77.5t-51 58t-53 37.5t-43 23l-17 6zM255 104q32 0 48.5 35.5t18.5 138.5
q-61 -1 -97.5 -30t-36.5 -72q0 -33 18 -52.5t49 -19.5z" />
    <glyph glyph-name="uni2206" unicode="&#x2206;" horiz-adv-x="580" 
d="M385 474l150 -363v-111h-490v111l150 363h190zM198 111h184l-92 212z" />
    <glyph glyph-name="product" unicode="&#x220f;" horiz-adv-x="514" 
d="M45 677h424v-677h-150v561h-124v-561h-150v677z" />
    <glyph glyph-name="summation" unicode="&#x2211;" horiz-adv-x="446" 
d="M401 677v-116h-193l126 -223l-126 -222h193v-116h-356v116l126 222l-126 223v116h356z" />
    <glyph glyph-name="minus" unicode="&#x2212;" horiz-adv-x="360" 
d="M60 295h240v-110h-240v110z" />
    <glyph glyph-name="uni2215" unicode="&#x2215;" horiz-adv-x="131" 
d="M124 677h117l-234 -677h-117z" />
    <glyph glyph-name="uni2219" unicode="&#x2219;" horiz-adv-x="300" 
d="M60 428h180v-180h-180v180z" />
    <glyph glyph-name="radical" unicode="&#x221a;" horiz-adv-x="664" 
d="M445 677h169v-116h-81l-124 -561h-186l-99 264h-74v116h188l88 -243z" />
    <glyph glyph-name="infinity" unicode="&#x221e;" horiz-adv-x="772" 
d="M528 520q83 0 138.5 -51.5t55.5 -130.5q0 -78 -55.5 -129.5t-138.5 -51.5q-87 0 -142 63q-56 -63 -142 -63q-83 0 -138.5 51.5t-55.5 129.5q0 79 55.5 130.5t138.5 51.5q86 0 142 -63q55 63 142 63zM256 268q28 0 45.5 20t17.5 50t-17.5 50.5t-45.5 20.5t-45.5 -20.5
t-17.5 -50.5t17.5 -50t45.5 -20zM516 268q28 0 45.5 20t17.5 50t-17.5 50.5t-45.5 20.5t-46 -20.5t-18 -50.5t18 -50t46 -20z" />
    <glyph glyph-name="integral" unicode="&#x222b;" horiz-adv-x="546" 
d="M399 683q28 0 52.5 -8.5t34.5 -16.5l10 -8l-38 -81q-15 14 -38 14q-44 0 -52 -81l-52 -530q-10 -95 -49 -138t-108 -43q-32 0 -59.5 8t-38.5 16l-11 8l38 82q18 -14 44 -14q38 0 46 81l52 530q9 92 53.5 136.5t115.5 44.5z" />
    <glyph glyph-name="approxequal" unicode="&#x2248;" horiz-adv-x="402" 
d="M144 195q22 0 57 -16t57 -16q20 0 41 8t32 16l11 8v-111q-39 -32 -84 -32q-22 0 -57 16t-57 16q-20 0 -41 -8t-32 -16l-11 -8v111q39 32 84 32zM258 316q20 0 41 8t32 16l11 8v-111q-39 -32 -84 -32q-22 0 -57 16t-57 16q-20 0 -41 -8t-32 -16l-11 -8v111q39 32 84 32
q22 0 57 -16t57 -16z" />
    <glyph glyph-name="notequal" unicode="&#x2260;" horiz-adv-x="360" 
d="M300 223h-84l-15 -49h99v-111h-134l-20 -65h-58l20 65h-48v111h83l15 49h-98v110h133l19 63h58l-20 -63h50v-110z" />
    <glyph glyph-name="lessequal" unicode="&#x2264;" horiz-adv-x="473" 
d="M101 21v110h271v-110h-271zM413 454l-154 -93l154 -93l-48 -101l-305 194l305 195z" />
    <glyph glyph-name="greaterequal" unicode="&#x2265;" horiz-adv-x="473" 
d="M101 21v110h271v-110h-271zM108 167l-48 101l154 93l-154 93l48 102l305 -195z" />
    <glyph glyph-name="COne" unicode="&#x2460;" 
d="M405 683q143 0 243.5 -101t100.5 -244q0 -142 -100.5 -243t-243.5 -101t-244 100.5t-101 243.5t101 244t244 101zM616 127q40 38 65 95q23 57 23 116q0 60 -23 117q-25 57 -65 95q-39 41 -95 64q-55 24 -116 24t-117 -24q-56 -23 -95 -64q-40 -38 -65 -95
q-23 -57 -23 -117q0 -59 23 -116q25 -57 65 -95q38 -40 95 -65q57 -23 117 -23q59 0 116 23q57 25 95 65zM331 435v65l120 30v-384h-84v298z" />
    <glyph glyph-name="CTwo" unicode="&#x2461;" 
d="M405 683q143 0 243.5 -101t100.5 -244q0 -142 -100.5 -243t-243.5 -101t-244 100.5t-101 243.5t101 244t244 101zM616 127q40 38 65 95q23 57 23 116q0 60 -23 117q-25 57 -65 95q-39 41 -95 64q-55 24 -116 24t-117 -24q-56 -23 -95 -64q-40 -38 -65 -95
q-23 -57 -23 -117q0 -59 23 -116q25 -57 65 -95q38 -40 95 -65q57 -23 117 -23q59 0 116 23q57 25 95 65zM401 534q48 0 79 -30t31 -77q0 -25 -6 -48t-23 -49.5t-26 -39t-35.5 -43.5t-30.5 -36h117v-65h-179l-40 58l63.5 69.5t49 71.5t27.5 80q0 20 -11 32t-31 12
q-13 0 -27 -4.5t-21 -9.5l-8 -5l-25 52q45 32 96 32z" />
    <glyph glyph-name="CThree" unicode="&#x2462;" 
d="M405 683q143 0 243.5 -101t100.5 -244q0 -142 -100.5 -243t-243.5 -101t-244 100.5t-101 243.5t101 244t244 101zM616 127q40 38 65 95q23 57 23 116q0 60 -23 117q-25 57 -65 95q-39 41 -95 64q-55 24 -116 24t-117 -24q-56 -23 -95 -64q-40 -38 -65 -95
q-23 -57 -23 -117q0 -59 23 -116q25 -57 65 -95q38 -40 95 -65q57 -23 117 -23q59 0 116 23q57 25 95 65zM459 348q6 -3 15 -8.5t24 -30t15 -56.5q0 -49 -33.5 -80t-81.5 -31q-26 0 -50 8t-35 16l-11 8l25 53q24 -20 55 -20q21 0 34 15t13 39q0 25 -12 39.5t-32 14.5h-32v65
h23q47 0 47 45q0 19 -11 31.5t-30 12.5q-12 0 -24 -4.5t-18 -9.5l-6 -5l-25 52q36 32 88 32q48 0 79 -28.5t31 -75.5q0 -28 -12 -48.5t-24 -27.5z" />
    <glyph glyph-name="CFour" unicode="&#x2463;" 
d="M405 683q143 0 243.5 -101t100.5 -244q0 -142 -100.5 -243t-243.5 -101t-244 100.5t-101 243.5t101 244t244 101zM616 127q40 38 65 95q23 57 23 116q0 60 -23 117q-25 57 -65 95q-39 41 -95 64q-55 24 -116 24t-117 -24q-56 -23 -95 -64q-40 -38 -65 -95
q-23 -57 -23 -117q0 -59 23 -116q25 -57 65 -95q38 -40 95 -65q57 -23 117 -23q59 0 116 23q57 25 95 65zM475 530v-222h37v-65h-37v-97h-84v97h-127v65l111 222h100zM391 308v122l-59 -122h59z" />
    <glyph glyph-name="CFive" unicode="&#x2464;" 
d="M405 683q143 0 243.5 -101t100.5 -244q0 -142 -100.5 -243t-243.5 -101t-244 100.5t-101 243.5t101 244t244 101zM616 127q40 38 65 95q23 57 23 116q0 60 -23 117q-25 57 -65 95q-39 41 -95 64q-55 24 -116 24t-117 -24q-56 -23 -95 -64q-40 -38 -65 -95
q-23 -57 -23 -117q0 -59 23 -116q25 -57 65 -95q38 -40 95 -65q57 -23 117 -23q59 0 116 23q57 25 95 65zM400 389q47 0 82.5 -32t35.5 -91q0 -60 -36.5 -92t-85.5 -32q-26 0 -50.5 8t-35.5 16l-12 8l25 53q26 -20 60 -20q25 0 38 16t13 43q0 26 -14 42t-41 16q-18 0 -41 -7
l-35 35l10 178h187v-65h-107l-4 -77q3 1 11 1z" />
    <glyph glyph-name="CSix" unicode="&#x2465;" 
d="M405 683q143 0 243.5 -101t100.5 -244q0 -142 -100.5 -243t-243.5 -101t-244 100.5t-101 243.5t101 244t244 101zM616 127q40 38 65 95q23 57 23 116q0 60 -23 117q-25 57 -65 95q-39 41 -95 64q-55 24 -116 24t-117 -24q-56 -23 -95 -64q-40 -38 -65 -95
q-23 -57 -23 -117q0 -59 23 -116q25 -57 65 -95q38 -40 95 -65q57 -23 117 -23q59 0 116 23q57 25 95 65zM405 414q46 0 80 -37.5t34 -98.5q0 -60 -35.5 -98t-82.5 -38q-53 0 -90 40t-37 112q0 36 9.5 69t24.5 57t33.5 45t36.5 34.5t33 23t25 13.5l9 5l30 -63
q-51 -18 -90 -67q9 3 20 3zM397 206q18 0 29.5 19.5t11.5 52.5t-11.5 52.5t-29.5 19.5q-19 0 -30.5 -19.5t-11.5 -52.5t11.5 -52.5t30.5 -19.5z" />
    <glyph glyph-name="CSeven" unicode="&#x2466;" 
d="M405 683q143 0 243.5 -101t100.5 -244q0 -142 -100.5 -243t-243.5 -101t-244 100.5t-101 243.5t101 244t244 101zM616 127q40 38 65 95q23 57 23 116q0 60 -23 117q-25 57 -65 95q-39 41 -95 64q-55 24 -116 24t-117 -24q-56 -23 -95 -64q-40 -38 -65 -95
q-23 -57 -23 -117q0 -59 23 -116q25 -57 65 -95q38 -40 95 -65q57 -23 117 -23q59 0 116 23q57 25 95 65zM306 461v69h197v-69q-3 -4 -8 -12t-18 -37.5t-22.5 -63t-17.5 -88t-8 -114.5h-84q0 60 7.5 114.5t18.5 89.5t22 61.5t19 38.5l7 11h-113z" />
    <glyph glyph-name="CEight" unicode="&#x2467;" 
d="M405 683q143 0 243.5 -101t100.5 -244q0 -142 -100.5 -243t-243.5 -101t-244 100.5t-101 243.5t101 244t244 101zM616 127q40 38 65 95q23 57 23 116q0 60 -23 117q-25 57 -65 95q-39 41 -95 64q-55 24 -116 24t-117 -24q-56 -23 -95 -64q-40 -38 -65 -95
q-23 -57 -23 -117q0 -59 23 -116q25 -57 65 -95q38 -40 95 -65q57 -23 117 -23q59 0 116 23q57 25 95 65zM472 350q57 -30 57 -93q0 -55 -38 -85t-86 -30q-49 0 -87 30t-38 85q0 63 57 93q-51 29 -51 84q0 46 35.5 73t83.5 27t83 -27t35 -73q0 -55 -51 -84zM405 470
q-17 0 -27 -12t-10 -32t10 -32.5t27 -12.5q16 0 26 12.5t10 32.5t-10 32t-26 12zM405 206q19 0 30.5 15t11.5 41q0 25 -11.5 40.5t-30.5 15.5q-20 0 -31.5 -15.5t-11.5 -40.5q0 -26 11.5 -41t31.5 -15z" />
    <glyph glyph-name="CNine" unicode="&#x2468;" 
d="M405 683q143 0 243.5 -101t100.5 -244q0 -142 -100.5 -243t-243.5 -101t-244 100.5t-101 243.5t101 244t244 101zM616 127q40 38 65 95q23 57 23 116q0 60 -23 117q-25 57 -65 95q-39 41 -95 64q-55 24 -116 24t-117 -24q-56 -23 -95 -64q-40 -38 -65 -95
q-23 -57 -23 -117q0 -59 23 -116q25 -57 65 -95q38 -40 95 -65q57 -23 117 -23q59 0 116 23q57 25 95 65zM407 534q50 0 86.5 -40t36.5 -112q0 -49 -17 -92.5t-40.5 -70.5t-47.5 -47t-41 -28l-17 -9l-30 64q6 2 16.5 7.5t36 26t41.5 46.5q-17 -5 -32 -5q-49 0 -82 34.5
t-33 95.5t36.5 95.5t86.5 34.5zM407 337q41 0 41 67q0 66 -41 66t-41 -66q0 -67 41 -67z" />
    <glyph glyph-name="CZero" unicode="&#x24ea;" 
d="M405 683q143 0 243.5 -101t100.5 -244q0 -142 -100.5 -243t-243.5 -101t-244 100.5t-101 243.5t101 244t244 101zM616 127q40 38 65 95q23 57 23 116q0 60 -23 117q-25 57 -65 95q-39 41 -95 64q-55 24 -116 24t-117 -24q-56 -23 -95 -64q-40 -38 -65 -95
q-23 -57 -23 -117q0 -59 23 -116q25 -57 65 -95q38 -40 95 -65q57 -23 117 -23q59 0 116 23q57 25 95 65zM405 534q53 0 88 -47t35 -149t-35.5 -149t-87.5 -47q-53 0 -88.5 47t-35.5 149t35.5 149t88.5 47zM405 207q37 0 37 131t-37 131q-38 0 -38 -131t38 -131z" />
    <glyph glyph-name="lozenge" unicode="&#x25ca;" horiz-adv-x="642" 
d="M415 677l167 -339l-167 -338h-188l-167 338l167 339h188zM321 125l97 213l-97 214l-98 -214z" />
    <glyph glyph-name="BCOne" unicode="&#x278a;" 
d="M405 683q143 0 243.5 -101t100.5 -244q0 -142 -100.5 -243t-243.5 -101t-244 100.5t-101 243.5t101 244t244 101zM451 146v384l-120 -30v-65l36 9v-298h84z" />
    <glyph glyph-name="BCTwo" unicode="&#x278b;" 
d="M405 683q143 0 243.5 -101t100.5 -244q0 -142 -100.5 -243t-243.5 -101t-244 100.5t-101 243.5t101 244t244 101zM507 211h-117q4 5 30.5 36t35.5 43.5t26 39t23 49.5t6 48q0 47 -31 77t-79 30q-23 0 -47 -8t-36 -16l-13 -8l25 -52q26 19 56 19q20 0 31 -12t11 -32
q0 -33 -27.5 -80t-49 -71.5l-63.5 -69.5l40 -58h179v65z" />
    <glyph glyph-name="BCThree" unicode="&#x278c;" 
d="M405 683q143 0 243.5 -101t100.5 -244q0 -142 -100.5 -243t-243.5 -101t-244 100.5t-101 243.5t101 244t244 101zM398 142q48 0 81.5 31t33.5 80q0 32 -13.5 55.5t-27.5 31.5l-13 8l5 2.5t11.5 8t15 15t11.5 23.5t5 33q0 47 -31 75.5t-79 28.5q-23 0 -45 -8t-32 -16
l-11 -8l25 -52q20 19 48 19q19 0 30 -12.5t11 -31.5q0 -45 -47 -45h-23v-65h32q20 0 32 -14.5t12 -39.5q0 -24 -13 -39t-34 -15q-14 0 -27.5 5t-20.5 10l-7 5l-25 -53q37 -32 96 -32z" />
    <glyph glyph-name="BCFour" unicode="&#x278d;" 
d="M391 308h-59l59 122v-122zM405 683q143 0 243.5 -101t100.5 -244q0 -142 -100.5 -243t-243.5 -101t-244 100.5t-101 243.5t101 244t244 101zM512 243v65h-37v222h-100l-111 -222v-65h127v-97h84v97h37z" />
    <glyph glyph-name="BCFive" unicode="&#x278e;" 
d="M405 683q143 0 243.5 -101t100.5 -244q0 -142 -100.5 -243t-243.5 -101t-244 100.5t-101 243.5t101 244t244 101zM396 142q49 0 85.5 32t36.5 92q0 59 -35.5 91t-82.5 32q-8 0 -11 -1l4 77h107v65h-187l-10 -178l35 -35q23 7 41 7q27 0 41 -16t14 -42q0 -27 -13 -43
t-38 -16q-15 0 -30 5t-23 10l-7 5l-25 -53q39 -32 98 -32z" />
    <glyph glyph-name="BCSix" unicode="&#x278f;" 
d="M397 350q18 0 29.5 -19.5t11.5 -52.5t-11.5 -52.5t-29.5 -19.5q-19 0 -30.5 19.5t-11.5 52.5t11.5 52.5t30.5 19.5zM405 683q143 0 243.5 -101t100.5 -244q0 -142 -100.5 -243t-243.5 -101t-244 100.5t-101 243.5t101 244t244 101zM401 142q47 0 82.5 37.5t35.5 98.5
t-34 98.5t-80 37.5q-11 0 -20 -3q17 22 39.5 38.5t36.5 22.5l14 6l-30 63q-7 -3 -18.5 -9t-41 -27.5t-52 -47.5t-41 -70t-18.5 -93q0 -72 37 -112t90 -40z" />
    <glyph glyph-name="BCSeven" unicode="&#x2790;" 
d="M405 683q143 0 243.5 -101t100.5 -244q0 -142 -100.5 -243t-243.5 -101t-244 100.5t-101 243.5t101 244t244 101zM503 461v69h-197v-69h113q-3 -4 -8 -12t-18 -37t-22.5 -62.5t-17.5 -88.5t-8 -115h84q0 95 18.5 173.5t36.5 110.5z" />
    <glyph glyph-name="BCEight" unicode="&#x2791;" 
d="M405 381q-17 0 -27 12.5t-10 32.5t10 32t27 12q16 0 26 -12t10 -32t-10 -32.5t-26 -12.5zM405 318q19 0 30.5 -15.5t11.5 -40.5q0 -26 -11.5 -41t-30.5 -15q-20 0 -31.5 15t-11.5 41q0 25 11.5 40.5t31.5 15.5zM405 683q143 0 243.5 -101t100.5 -244q0 -142 -100.5 -243
t-243.5 -101t-244 100.5t-101 243.5t101 244t244 101zM405 142q48 0 86 30t38 85q0 63 -57 93q51 29 51 84q0 46 -35 73t-83 27t-83.5 -27t-35.5 -73q0 -55 51 -84q-57 -30 -57 -93q0 -55 38 -85t87 -30z" />
    <glyph glyph-name="BCNine" unicode="&#x2792;" 
d="M407 470q41 0 41 -66q0 -67 -41 -67t-41 67q0 66 41 66zM405 683q143 0 243.5 -101t100.5 -244q0 -142 -100.5 -243t-243.5 -101t-244 100.5t-101 243.5t101 244t244 101zM367 135q7 3 18 9t39 27.5t49.5 47.5t39 70t17.5 93q0 72 -36.5 112t-86.5 40t-86.5 -34.5
t-36.5 -95.5t33 -95.5t82 -34.5q15 0 32 5q-16 -26 -39.5 -46t-39.5 -27l-15 -7z" />
    <glyph glyph-name="BlackArrowR" unicode="&#x27a1;" 
d="M405 683q143 0 243.5 -101t100.5 -244q0 -142 -100.5 -243t-243.5 -101t-244 100.5t-101 243.5t101 244t244 101zM510 146l111 193l-111 193h-174l78 -135h-226v-116h226l-78 -135h174z" />
    <glyph glyph-name="WhiteArrowNE" unicode="&#x2b00;" 
d="M405 683q143 0 243.5 -101t100.5 -244q0 -142 -100.5 -243t-243.5 -101t-244 100.5t-101 243.5t101 244t244 101zM616 127q40 38 65 95q23 57 23 116q0 60 -23 117q-25 57 -65 95q-39 41 -95 64q-55 24 -116 24t-117 -24q-56 -23 -95 -64q-40 -38 -65 -95
q-23 -57 -23 -117q0 -59 23 -116q25 -57 65 -95q41 -42 95 -65q57 -23 117 -23q59 0 116 23q54 23 95 65zM344 551l216 -58l57 -215l-123 -123l-40 151l-160 -160l-82 82l160 160l-151 40z" />
    <glyph glyph-name="WhiteArrowNW" unicode="&#x2b01;" 
d="M405 683q143 0 243.5 -101t100.5 -244q0 -142 -100.5 -243t-243.5 -101t-244 100.5t-101 243.5t101 244t244 101zM616 127q40 38 65 95q23 57 23 116q0 60 -23 117q-25 57 -65 95q-39 41 -95 64q-55 24 -116 24t-117 -24q-56 -23 -95 -64q-40 -38 -65 -95
q-23 -57 -23 -117q0 -59 23 -116q25 -57 65 -95q41 -42 95 -65q57 -23 117 -23q59 0 116 23q54 23 95 65zM588 428l-150 -40l160 -160l-82 -82l-160 160l-41 -151l-123 123l58 215l215 58z" />
    <glyph glyph-name="WhiteArrowSE" unicode="&#x2b02;" 
d="M405 683q143 0 243.5 -101t100.5 -244q0 -142 -100.5 -243t-243.5 -101t-244 100.5t-101 243.5t101 244t244 101zM616 127q40 38 65 95q23 57 23 116q0 60 -23 117q-25 57 -65 95q-39 41 -95 64q-55 24 -116 24t-117 -24q-56 -23 -95 -64q-40 -38 -65 -95
q-23 -57 -23 -117q0 -59 23 -116q25 -57 65 -95q41 -42 95 -65q57 -23 117 -23q59 0 116 23q54 23 95 65zM455 370l41 150l123 -123l-58 -215l-215 -58l-123 123l150 41l-160 160l82 82z" />
    <glyph glyph-name="WhiteArrowSW" unicode="&#x2b03;" 
d="M405 683q143 0 243.5 -101t100.5 -244q0 -142 -100.5 -243t-243.5 -101t-244 100.5t-101 243.5t101 244t244 101zM616 127q40 38 65 95q23 57 23 116q0 60 -23 117q-25 57 -65 95q-39 41 -95 64q-55 24 -116 24t-117 -24q-56 -23 -95 -64q-40 -38 -65 -95
q-23 -57 -23 -117q0 -59 23 -116q25 -57 65 -95q41 -42 95 -65q57 -23 117 -23q59 0 116 23q54 23 95 65zM515 530l82 -82l-160 -160l151 -41l-123 -123l-216 58l-57 215l123 123l40 -150z" />
    <glyph glyph-name="BlackArrowL" unicode="&#x2b05;" 
d="M405 683q143 0 243.5 -101t100.5 -244q0 -142 -100.5 -243t-243.5 -101t-244 100.5t-101 243.5t101 244t244 101zM621 281v116h-226l78 135h-174l-111 -193l111 -193h174l-78 135h226z" />
    <glyph glyph-name="BlackArrowU" unicode="&#x2b06;" 
d="M405 683q143 0 243.5 -101t100.5 -244q0 -142 -100.5 -243t-243.5 -101t-244 100.5t-101 243.5t101 244t244 101zM598 275v174l-193 111l-194 -111v-174l135 78v-226h117v226z" />
    <glyph glyph-name="BlackArrowD" unicode="&#x2b07;" 
d="M405 683q143 0 243.5 -101t100.5 -244q0 -142 -100.5 -243t-243.5 -101t-244 100.5t-101 243.5t101 244t244 101zM598 230v174l-135 -78v226h-117v-226l-135 78v-174l194 -112z" />
    <glyph glyph-name="BlackArrowNE" unicode="&#x2b08;" 
d="M405 683q143 0 243.5 -101t100.5 -244q0 -142 -100.5 -243t-243.5 -101t-244 100.5t-101 243.5t101 244t244 101zM494 155l123 123l-57 215l-216 58l-123 -123l151 -40l-160 -160l82 -82l160 160z" />
    <glyph glyph-name="BlackArrowNW" unicode="&#x2b09;" 
d="M405 683q143 0 243.5 -101t100.5 -244q0 -142 -100.5 -243t-243.5 -101t-244 100.5t-101 243.5t101 244t244 101zM516 146l82 82l-160 160l150 40l-123 123l-215 -58l-58 -215l123 -123l41 151z" />
    <glyph glyph-name="BlackArrowSE" unicode="&#x2b0a;" 
d="M405 683q143 0 243.5 -101t100.5 -244q0 -142 -100.5 -243t-243.5 -101t-244 100.5t-101 243.5t101 244t244 101zM561 182l58 215l-123 123l-41 -150l-160 160l-82 -82l160 -160l-150 -41l123 -123z" />
    <glyph glyph-name="BlackArrowSW" unicode="&#x2b0b;" 
d="M405 683q143 0 243.5 -101t100.5 -244q0 -142 -100.5 -243t-243.5 -101t-244 100.5t-101 243.5t101 244t244 101zM588 247l-151 41l160 160l-82 82l-160 -160l-40 150l-123 -123l57 -215l216 -58z" />
    <glyph glyph-name="sc.f" unicode="&#xa730;" horiz-adv-x="377" 
d="M327 451h-134v-121h97v-111h-97v-219h-143v562h277v-111z" />
    <glyph glyph-name="sc.s" unicode="&#xa731;" horiz-adv-x="421" 
d="M199 425q0 -28 27 -63.5t59 -65.5t59 -74.5t27 -87.5q0 -61 -47 -100.5t-113 -39.5q-46 0 -86 14t-57 28l-18 14l43 91q40 -37 88 -37q47 0 47 36q0 26 -27 61t-59 65.5t-59 77t-27 93.5q0 56 45 93.5t110 37.5q44 0 80 -13.5t49 -26.5l14 -14l-37 -79q-25 22 -73 22
q-45 0 -45 -32z" />
    <glyph glyph-name="sc.q" unicode="&#xa7af;" horiz-adv-x="508" 
d="M254 568q85 0 144.5 -67t59.5 -191v-58q0 -97 -37 -159.5t-97 -85.5q5 -47 38 -47h12v-105h-12q-161 0 -174 150q-62 23 -100 86t-38 161v58q0 124 59 191t145 67zM254 104q30 0 45.5 39.5t15.5 137.5t-15.5 137t-45.5 39t-45.5 -39t-15.5 -137t15.5 -137.5t45.5 -39.5z
" />
    <glyph glyph-name="BCZero" unicode="&#x1f10c;" 
d="M405 469q37 0 37 -131t-37 -131q-38 0 -38 131t38 131zM405 683q143 0 243.5 -101t100.5 -244q0 -142 -100.5 -243t-243.5 -101t-244 100.5t-101 243.5t101 244t244 101zM405 142q52 0 87.5 47t35.5 149t-35 149t-88 47t-88.5 -47t-35.5 -149t35.5 -149t88.5 -47z" />
    <glyph glyph-name="a.ss01" horiz-adv-x="488" 
d="M251 480q76 0 134 -43.5t58 -124.5v-312h-125l-18 44q-1 -2 -3.5 -5.5t-12 -12t-21 -15t-31 -12t-42.5 -5.5q-63 0 -104 40t-41 104q0 84 68 130.5t187 46.5q0 49 -82 49q-27 0 -52.5 -6t-37.5 -12l-11 -5l-40 85q7 6 20 15t58 24t96 15zM300 172v52q-54 0 -83 -17.5
t-29 -45.5q0 -23 16 -37t40 -14q27 0 41.5 17t14.5 45z" />
    <glyph glyph-name="f.ss01" horiz-adv-x="410" 
d="M296 567q-52 0 -52 -87h104v-116h-104v-537l-143 -36v573h-56v116h56v22q0 81 46.5 131t112.5 50q32 0 58 -8.5t36 -16.5l11 -8l-42 -89q-11 6 -27 6z" />
    <glyph glyph-name="g.ss01" horiz-adv-x="515" 
d="M280 121q85 0 137.5 -42t52.5 -123q0 -83 -60.5 -124t-151.5 -41t-152 39t-61 115q0 65 63 100q-18 24 -18 55q0 50 42 88q-72 46 -72 129q0 77 60 120t138 43q26 0 53 -6q18 40 56.5 61.5t87.5 21.5v-96q-44 0 -63 -22q64 -45 64 -122t-60 -120.5t-138 -43.5
q-16 0 -46 4q-2 -15 8.5 -25.5t39.5 -10.5h20zM258 377q-25 0 -40.5 -16t-15.5 -44q0 -29 15.5 -45t40.5 -16t40 16t15 45q0 28 -15 44t-40 16zM258 -99q88 0 88 41t-88 41h-28q-23 0 -49 8q-12 -17 -12 -35q0 -55 89 -55z" />
    <glyph glyph-name="t.ss01" horiz-adv-x="415" 
d="M334 116l36 -77q-4 -5 -12 -12.5t-37 -20t-62 -12.5q-63 0 -107.5 47t-44.5 123v205h-62v111q39 0 53.5 21t14.5 77l137 35v-133h84v-111h-84v-175q0 -90 42 -90q13 0 23.5 3t14.5 6z" />
    <glyph glyph-name="y.ss01" horiz-adv-x="473" 
d="M286 474h142v-502q0 -91 -55 -136t-130 -45q-76 0 -131 45.5t-55 138.5h118q0 -68 55 -68q56 0 56 65v85q-2 -4 -7 -10t-26 -16.5t-49 -10.5q-66 0 -112.5 49.5t-46.5 138.5v266h143v-191q0 -77 11 -111.5t38 -34.5t38 34.5t11 111.5v191z" />
    <glyph glyph-name="y.ss02" horiz-adv-x="515" 
d="M322 474h148l-132 -501q-27 -104 -94 -143t-174 -39v110q76 0 107 47l-132 526h147l65 -286z" />
    <glyph glyph-name="sc.ae" horiz-adv-x="634" 
d="M589 451h-128v-104h102v-111h-102v-125h128v-111h-271v83h-98l-30 -83h-145l214 562h330v-111zM318 178v181l-65 -181h65z" />
    <glyph glyph-name="sc.oe" horiz-adv-x="632" 
d="M587 451h-128v-104h102v-111h-102v-125h128v-111h-271v21q-36 -27 -84 -27q-82 0 -134.5 68.5t-52.5 189.5v58q0 121 52.5 189.5t134.5 68.5q48 0 84 -27v21h271v-111zM255 104q67 0 67 177q0 176 -67 176t-67 -176q0 -177 67 -177z" />
    <glyph glyph-name="sc.eth" horiz-adv-x="508" 
d="M283 562q84 0 132 -67.5t48 -184.5v-58q0 -117 -48 -184.5t-132 -67.5h-208v226h-30v110h30v226h208zM259 111q33 0 47.5 37t14.5 133t-14.5 133t-47.5 37h-41v-115h38v-110h-38v-115h41z" />
    <glyph glyph-name="sc.oslash" horiz-adv-x="498" 
d="M357 535q96 -69 96 -225v-58q0 -124 -59.5 -191t-144.5 -67q-28 0 -58 8l-18 -59h-58l26 84q-96 67 -96 225v58q0 124 59 191t145 67q29 0 58 -9l18 60h58zM188 281q0 -57 4 -89l81 258q-11 7 -24 7q-30 0 -45.5 -39t-15.5 -137zM249 104q30 0 45.5 39.5t15.5 137.5
q0 59 -5 88l-80 -258q12 -7 24 -7z" />
    <glyph glyph-name="sc.germandbls" horiz-adv-x="510" 
d="M385 283q0 -24 40 -86.5t40 -103.5q0 -46 -38 -72.5t-95 -26.5q-28 0 -57 9t-43 19l-15 9l38 82q19 -9 39 -9q29 0 29 28q0 18 -34 68.5t-34 78.5q0 17 13 49t13 56q0 73 -47 73q-46 0 -46 -83v-374h-143v386q0 85 55 133.5t134 48.5q76 0 132.5 -43t56.5 -104
q0 -33 -19 -78t-19 -60z" />
    <glyph glyph-name="sc.thorn" horiz-adv-x="474" 
d="M265 457q76 0 120 -45.5t44 -130.5t-44 -130.5t-120 -45.5h-77v-105h-143v562h143v-105h77zM225 216q61 0 61 65t-61 65h-37v-130h37z" />
    <glyph glyph-name="ampersand.ss01" horiz-adv-x="458" 
d="M97 33v76h269v-76h-269zM318 189q-40 -34 -102 -34q-63 0 -109.5 36.5t-46.5 100.5q0 76 71 115q-36 59 -36 98q0 59 38 89.5t90 30.5t89.5 -30.5t37.5 -89.5q0 -44 -29 -72t-65 -42q25 -33 52 -63l5 60h78q0 -74 -23 -129l45 -51l-62 -54zM223 549q-30 0 -30 -37
q0 -24 22 -62q38 21 38 62q0 37 -30 37zM157 292q0 -27 17.5 -44.5t44.5 -17.5q26 0 46 15q-56 59 -87 98q-21 -19 -21 -51z" />
    <glyph glyph-name="ln.zero" horiz-adv-x="500" 
d="M250 677q92 0 153.5 -82t61.5 -260q0 -177 -61.5 -259t-153.5 -82q-93 0 -154 81.5t-61 259.5t61 260t154 82zM250 107q65 0 65 228t-65 228q-66 0 -66 -228t66 -228z" />
    <glyph glyph-name="ln.one" horiz-adv-x="280" 
d="M35 617l210 54v-671h-146v520l-64 -17v114z" />
    <glyph glyph-name="ln.two" horiz-adv-x="460" 
d="M425 491q0 -37 -10.5 -75t-23 -66t-40 -66.5t-42.5 -57.5t-50 -59.5l-46 -53.5h205v-113h-312l-71 102q52 55 80 87t73.5 91t68 110.5t22.5 95.5q0 35 -18.5 56t-54.5 21q-23 0 -47.5 -8.5t-36.5 -16.5l-13 -8l-43 91q9 6 24.5 15.5t59 25t83.5 15.5q83 0 137.5 -53
t54.5 -133z" />
    <glyph glyph-name="ln.three" horiz-adv-x="437" 
d="M308 352q4 -2 10 -5.5t22.5 -17t29 -30.5t22.5 -47.5t10 -65.5q0 -84 -59 -138t-142 -54q-46 0 -87.5 14t-59.5 28l-19 13l43 92q42 -34 96 -34q37 0 59 25.5t22 68.5t-20 68.5t-56 25.5h-55v114h40q82 0 82 77q0 34 -19.5 55.5t-52.5 21.5q-22 0 -43 -8.5t-31 -16.5
l-11 -8l-42 91q7 6 20 15.5t53 25t81 15.5q84 0 137.5 -50t53.5 -132q0 -31 -8.5 -57.5t-21 -41.5t-25 -25.5t-21.5 -14.5z" />
    <glyph glyph-name="ln.four" horiz-adv-x="503" 
d="M403 283h65v-114h-65v-169h-146v169h-222v114l193 388h175v-388zM257 283v212l-104 -212h104z" />
    <glyph glyph-name="ln.five" horiz-adv-x="453" 
d="M211 424q84 0 145.5 -55.5t61.5 -159.5t-63.5 -159.5t-150.5 -55.5q-45 0 -87 14t-62 28l-20 13l43 92q45 -34 104 -34q44 0 66.5 27.5t22.5 74.5t-24.5 74t-71.5 27q-29 0 -71 -11l-61 61l11 197l6 114h327v-114h-187l-7 -135q12 2 18 2z" />
    <glyph glyph-name="ln.six" horiz-adv-x="499" 
d="M265 467q80 0 139.5 -65.5t59.5 -171.5t-62 -171t-145 -65q-93 0 -157.5 69.5t-64.5 194.5q0 49 10 95.5t27.5 83t40 69.5t47.5 58t49.5 46t47 35.5t40 24.5t27.5 14l10 5l52 -111q-10 -3 -26.5 -10.5t-58.5 -37.5t-72 -67q15 4 36 4zM249 104q33 0 52.5 34.5t19.5 91.5
q0 58 -19.5 92t-52.5 34q-32 0 -51.5 -34t-19.5 -92q0 -57 19.5 -91.5t51.5 -34.5z" />
    <glyph glyph-name="ln.seven" horiz-adv-x="415" 
d="M35 671h345v-122q-5 -7 -14 -21.5t-31 -65t-39 -109t-31 -154t-14 -199.5h-147q0 104 13.5 199t32 156t37.5 107t33 66l13 21h-198v122z" />
    <glyph glyph-name="ln.eight" horiz-adv-x="505" 
d="M370 356q100 -53 100 -162q0 -96 -66.5 -148t-150.5 -52q-85 0 -151.5 52t-66.5 148q0 108 100 162q-89 51 -89 147q0 80 61.5 127t145.5 47q83 0 145 -47t62 -127q0 -96 -90 -147zM253 566q-29 0 -46.5 -21.5t-17.5 -56.5t17.5 -56.5t46.5 -21.5q28 0 46 21.5t18 56.5
t-18 56.5t-46 21.5zM253 104q33 0 54 26.5t21 71.5q0 44 -21 70.5t-54 26.5t-54 -26.5t-21 -70.5q0 -45 21 -71.5t54 -26.5z" />
    <glyph glyph-name="ln.nine" horiz-adv-x="499" 
d="M249 677q88 0 151.5 -69t63.5 -196q0 -86 -29.5 -162t-71 -123t-83.5 -82t-72 -49l-29 -15l-52 111q4 2 11 5t27.5 15t40 26.5t43.5 39.5t42 54q-25 -9 -57 -9q-84 0 -141.5 60.5t-57.5 166.5t63.5 166.5t150.5 60.5zM249 334q34 0 53 30t19 86t-19 86t-53 30
q-33 0 -52 -30t-19 -86t19 -86t52 -30z" />
    <glyph glyph-name="ln.zeroalt" horiz-adv-x="488" 
d="M244 677q91 0 150 -81.5t59 -260.5q0 -178 -59 -259.5t-150 -81.5t-150 81.5t-59 259.5q0 179 59 260.5t150 81.5zM166 335q0 -42 3 -78l135 253q-20 69 -60 69q-78 0 -78 -244zM244 92q78 0 78 243q0 47 -3 86l-136 -255q20 -74 61 -74z" />
    <glyph glyph-name="zero.zero" horiz-adv-x="531" 
d="M266 486q41 0 78.5 -14t70 -42t52 -77t19.5 -113t-19.5 -113t-52 -77t-70 -42t-78.5 -14q-89 0 -155 61.5t-66 184.5t66 184.5t155 61.5zM180 240q0 -66 24 -106l77 248q-5 1 -15 1q-38 0 -62 -38t-24 -105zM266 96q37 0 61.5 38t24.5 106q0 65 -25 105l-77 -247
q10 -2 16 -2z" />
    <glyph glyph-name="braceleft.uc" horiz-adv-x="449" 
d="M309 -24q13 0 23.5 2t14.5 4l4 2l38 -82q-55 -42 -128 -42q-62 0 -109.5 39.5t-47.5 103.5q0 54 16 113.5t16 84.5q0 49 -55 49h-21v111h21q55 0 55 49q0 25 -16 84.5t-16 113.5q0 64 47.5 104t109.5 40q32 0 64 -10.5t48 -21.5l16 -10l-38 -82q-12 8 -42 8
q-26 0 -44 -21.5t-18 -60.5q0 -53 16 -100.5t16 -78.5q0 -41 -52 -69q52 -28 52 -70q0 -30 -16 -78t-16 -101q0 -38 18 -59.5t44 -21.5z" />
    <glyph glyph-name="braceright.uc" horiz-adv-x="449" 
d="M369 361h20v-111h-20q-56 0 -56 -49q0 -25 16 -84.5t16 -113.5q0 -64 -47.5 -103.5t-109.5 -39.5q-32 0 -64 10.5t-48 21.5l-16 10l38 82q13 -8 42 -8q26 0 44 21.5t18 59.5q0 53 -16 101t-16 78q0 42 52 70q-52 28 -52 69q0 31 16 78.5t16 100.5q0 39 -18 60.5t-44 21.5
q-13 0 -23.5 -2t-14.5 -4l-4 -2l-38 82q55 42 128 42q62 0 109.5 -40t47.5 -104q0 -54 -16 -113.5t-16 -84.5q0 -49 56 -49z" />
    <glyph glyph-name="parenleft.uc" horiz-adv-x="396" 
d="M208 306q0 -62 12.5 -119.5t31 -95t36.5 -66.5t30 -42l13 -13l-52 -110q-9 5 -23.5 16t-51 50.5t-65 86.5t-51.5 126t-23 167t22 166t53.5 127t63 85.5t53.5 51.5l22 16l52 -111l-13.5 -14t-29.5 -40.5t-37 -67.5t-29.5 -93.5t-13.5 -119.5z" />
    <glyph glyph-name="parenright.uc" horiz-adv-x="396" 
d="M117 752q9 -5 23.5 -16t51 -50.5t65 -86.5t51.5 -126t23 -167t-22 -166.5t-53.5 -127.5t-63 -85t-53.5 -51l-22 -16l-52 110l13.5 14t30 40.5t37.5 67.5t29.5 94t13.5 120t-13 119t-31 94.5t-36 66.5t-31 42l-13 13z" />
    <glyph glyph-name="bracketleft.uc" horiz-adv-x="380" 
d="M320 635h-117v-659h117v-110h-260v880h260v-111z" />
    <glyph glyph-name="bracketright.uc" horiz-adv-x="380" 
d="M60 746h260v-880h-260v110h117v659h-117v111z" />
    <glyph glyph-name="exclamdown.uc" horiz-adv-x="280" 
d="M55 671h150v-150h-150v150zM85 472h90l30 -361v-117h-150v117z" />
    <glyph glyph-name="questiondown.uc" horiz-adv-x="423" 
d="M296 671v-150h-150v150h150zM231 98q22 0 46.5 7t37.5 14l13 7l40 -84q-7 -6 -19.5 -15t-53 -24t-81.5 -15q-68 0 -113.5 36t-45.5 92q0 32 18 61.5t44.5 51t52.5 40t44 37t18 34.5q0 28 -40 28q-20 0 -37.5 -5.5t-25.5 -10.5l-8 -6l-37 78q5 6 14.5 15t45 24t77.5 15
q56 0 101.5 -35.5t45.5 -89.5q0 -35 -18 -65.5t-44 -51.5t-52.5 -38.5t-44.5 -35t-18 -33.5q0 -13 10.5 -22t29.5 -9z" />
    <glyph glyph-name="colon.uc" horiz-adv-x="270" 
d="M60 69v150h150v-150h-150zM60 547h150v-150h-150v150z" />
    <glyph glyph-name="semicolon.uc" horiz-adv-x="300" 
d="M25 -101l81 300h149l-125 -300h-105zM106 547h149v-150h-149v150z" />
    <glyph glyph-name="plus.uc" horiz-adv-x="414" 
d="M262 389h92v-110h-92v-92h-111v92h-91v110h91v92h111v-92z" />
    <glyph glyph-name="minus.uc" horiz-adv-x="360" 
d="M60 389h240v-110h-240v110z" />
    <glyph glyph-name="equal.uc" horiz-adv-x="360" 
d="M60 157v111h240v-111h-240zM60 427h240v-110h-240v110z" />
    <glyph glyph-name="divide.uc" horiz-adv-x="441" 
d="M284 550v-127h-127v127h127zM157 87v128h127v-128h-127zM60 374h321v-111h-321v111z" />
    <glyph glyph-name="multiply.uc" horiz-adv-x="385" 
d="M325 415l-69 -96l69 -96l-83 -60l-49 68l-50 -68l-83 60l69 96l-69 96l83 60l50 -69l49 69z" />
    <glyph glyph-name="guilsinglleft.uc" horiz-adv-x="320" 
d="M270 470l-109 -135l109 -135l-86 -69l-134 166v77l134 166z" />
    <glyph glyph-name="guilsinglright.uc" horiz-adv-x="320" 
d="M136 540l134 -166v-77l-134 -166l-86 69l109 135l-109 135z" />
    <glyph glyph-name="guillemotleft.uc" horiz-adv-x="521" 
d="M471 470l-109 -135l109 -135l-86 -69l-134 166v77l134 166zM270 470l-109 -135l109 -135l-86 -69l-134 166v77l134 166z" />
    <glyph glyph-name="guillemotright.uc" horiz-adv-x="521" 
d="M270 374v-77l-134 -166l-86 69l109 135l-109 135l86 70zM337 540l134 -166v-77l-134 -166l-86 69l109 135l-109 135z" />
    <glyph glyph-name="less.uc" horiz-adv-x="420" 
d="M370 499l-170 -164l170 -164l-50 -106l-270 270l270 271z" />
    <glyph glyph-name="greater.uc" horiz-adv-x="420" 
d="M100 606l270 -271l-270 -270l-50 106l171 164l-171 164z" />
    <glyph glyph-name="emdash.uc" horiz-adv-x="568" 
d="M60 389h448v-110h-448v110z" />
    <glyph glyph-name="endash.uc" horiz-adv-x="423" 
d="M60 389h303v-110h-303v110z" />
    <glyph glyph-name="hyphen.uc" horiz-adv-x="360" 
d="M60 389h240v-110h-240v110z" />
    <glyph glyph-name="logicalnot.uc" horiz-adv-x="464" 
d="M60 389h344v-180h-111v70h-233v110z" />
    <glyph glyph-name="plusminus.uc" horiz-adv-x="414" 
d="M262 456h92v-111h-92v-92h-111v92h-91v111h91v91h111v-91zM79 94v111h255v-111h-255z" />
    <glyph glyph-name="notequal.uc" horiz-adv-x="360" 
d="M300 317h-84l-15 -49h99v-111h-134l-20 -64h-58l20 64h-48v111h83l15 49h-98v110h133l19 64h58l-20 -64h50v-110z" />
    <glyph glyph-name="approxequal.uc" horiz-adv-x="402" 
d="M144 289q22 0 57 -16t57 -16q20 0 41 8t32 16l11 8v-110q-39 -32 -84 -32q-22 0 -57 16t-57 16q-20 0 -41 -8t-32 -16l-11 -8v110q39 32 84 32zM258 410q20 0 41 8t32 16l11 8v-111q-39 -32 -84 -32q-22 0 -57 16t-57 16q-20 0 -41 -8t-32 -16l-11 -8v111q39 32 84 32
q22 0 57 -16t57 -16z" />
    <glyph glyph-name="lessequal.uc" horiz-adv-x="473" 
d="M101 115v111h271v-111h-271zM413 549l-154 -94l154 -93l-48 -101l-305 194l305 195z" />
    <glyph glyph-name="greaterequal.uc" horiz-adv-x="473" 
d="M101 115v111h271v-111h-271zM108 261l-48 101l154 93l-154 94l48 101l305 -195z" />
    <glyph glyph-name="at.uc" horiz-adv-x="819" 
d="M470 683q142 0 225 -105t59 -240q-34 -194 -159 -194q-30 0 -53.5 7t-36.5 17t-22 20.5t-11 17.5l-3 7q-1 -3 -3 -7.5t-11.5 -16.5t-21.5 -21t-34 -16.5t-48 -7.5q-60 0 -101.5 53.5t-26.5 140.5q16 95 78.5 144.5t143.5 49.5q40 0 79 -12t58 -24l20 -12l-34 -190
q-8 -46 7.5 -75.5t39.5 -29.5q67 0 94 149q22 126 -48.5 216t-198.5 90q-127 0 -228 -89t-124 -217q-22 -123 51.5 -214t193.5 -91q33 0 71.5 6.5t60.5 13.5l22 7l16 -34q-78 -32 -177 -32q-61 0 -118 27t-97.5 72t-60 110t-7.5 135q26 151 141 248t264 97zM446 338l14 79
q-10 15 -31 15q-25 0 -46.5 -27.5t-28.5 -66.5q-17 -94 29 -94t63 94z" />
    <glyph glyph-name="zero.numr" horiz-adv-x="308" 
d="M237 638q36 -48 36 -141q0 -95 -36 -141q-30 -42 -83 -42t-83 42q-36 46 -36 141q0 93 36 141q31 42 83 42t83 -42zM169 414q8 30 8 83t-8 83q-6 22 -15 22t-15 -22q-8 -25 -8 -83t8 -83q7 -23 15 -23t15 23z" />
    <glyph glyph-name="one.numr" horiz-adv-x="196" 
d="M35 647l126 33v-363h-94v260l-32 -8v78z" />
    <glyph glyph-name="two.numr" horiz-adv-x="291" 
d="M256 576q0 -16 -2.5 -31t-9 -30.5t-11 -24.5t-17 -26l-16.5 -22.5t-20.5 -24.5t-19.5 -23h92v-77h-174l-43 62q37 39 58.5 64t45 64t23.5 66q0 12 -8.5 20.5t-23.5 8.5q-12 0 -24 -5.5t-18 -10.5l-7 -6l-30 65q39 35 97 35q45 0 77 -30q31 -29 31 -74z" />
    <glyph glyph-name="three.numr" horiz-adv-x="278" 
d="M205 505q38 -28 38 -84q0 -47 -33 -78q-32 -29 -79 -29q-30 0 -54 9t-33 17l-9 9l31 65q20 -23 52 -23q14 0 22.5 10.5t8.5 27.5q0 38 -29 38h-38v77h30q32 0 32 29t-27 29q-12 0 -23 -6t-16 -12l-6 -5l-31 65q42 36 90 36q47 0 77 -28q30 -27 30 -74t-33 -73z" />
    <glyph glyph-name="four.numr" horiz-adv-x="309" 
d="M242 480h32v-77h-32v-86h-95v86h-112v70l102 204h105v-197zM153 470v85l-37 -85h37z" />
    <glyph glyph-name="five.numr" horiz-adv-x="286" 
d="M138 552q46 -1 79.5 -31.5t33.5 -87.5q0 -58 -37 -90q-32 -29 -81 -29q-51 0 -98 35l30 65q32 -23 57 -23q35 0 35 42q0 41 -38 41q-14 0 -39 -7l-39 38l9 172h186v-78h-95z" />
    <glyph glyph-name="six.numr" horiz-adv-x="307" 
d="M238 538q34 -37 34 -94q0 -58 -35 -95q-33 -35 -79 -35q-52 0 -86 37q-37 40 -37 107q0 75 46 136.5t120 94.5l36 -75q-37 -10 -69 -41q41 -2 70 -35zM154 390q11 0 18.5 15t7.5 39t-7.5 39t-18.5 15q-12 0 -19.5 -15t-7.5 -39q0 -25 7.5 -39.5t19.5 -14.5z" />
    <glyph glyph-name="seven.numr" horiz-adv-x="265" 
d="M35 677h195v-75q-20 -29 -34 -70q-32 -94 -32 -205v-10h-94v10q0 121 33 213q13 36 25 55h-93v82z" />
    <glyph glyph-name="eight.numr" horiz-adv-x="311" 
d="M233 508q43 -31 43 -83q0 -53 -40 -85q-34 -26 -81 -26q-49 0 -84.5 29.5t-35.5 81.5t42 83q-37 29 -37 74t37 73q33 25 78 25q47 0 78 -25q37 -28 37 -73q0 -46 -37 -74zM155 604q-22 0 -22 -30q0 -29 22 -29q23 0 23 29q0 30 -23 30zM155 390q28 0 28 39q0 18 -7.5 29
t-20.5 11t-20.5 -11t-7.5 -29q0 -39 28 -39z" />
    <glyph glyph-name="nine.numr" horiz-adv-x="307" 
d="M272 537v-1q-3 -106 -75 -175q-10 -10 -21.5 -19t-20.5 -15t-16.5 -10t-12.5 -7l-4 -2l-9 -4l-35 75l10 4q34 14 63 47h-5q-47 0 -78 33q-33 33 -33 92q0 58 37 93q34 32 82 32q46 0 80.5 -36t37.5 -107zM154 506q26 0 26 49t-26 49q-27 0 -27 -49t27 -49z" />
    <glyph glyph-name="zero.dnom" horiz-adv-x="308" 
d="M237 321q36 -47 36 -141t-36 -141q-30 -42 -83 -42t-83 42q-36 47 -36 141t36 141q30 42 83 42t83 -42zM169 97q8 30 8 83t-8 83q-7 23 -15 23t-15 -23q-8 -25 -8 -83t8 -83q7 -23 15 -23t15 23z" />
    <glyph glyph-name="one.dnom" horiz-adv-x="196" 
d="M35 330l126 33v-363h-94v260l-32 -8v78z" />
    <glyph glyph-name="two.dnom" horiz-adv-x="291" 
d="M256 259q0 -22 -5.5 -43t-18.5 -42.5t-21 -33.5t-27.5 -35l-23.5 -28h92v-77h-174l-43 63q127 132 127 193q0 12 -9 21t-23 9q-12 0 -24 -5.5t-18 -10.5l-7 -6l-30 64q39 35 97 35q47 0 77 -30q31 -29 31 -74z" />
    <glyph glyph-name="three.dnom" horiz-adv-x="278" 
d="M205 188q38 -28 38 -84q0 -47 -33 -78q-32 -29 -79 -29q-30 0 -54 8.5t-33 17.5l-9 9l31 66q20 -24 52 -24q14 0 22.5 10.5t8.5 27.5q0 38 -29 38h-38v77h30q32 0 32 29q0 30 -27 30q-12 0 -23 -6t-16 -12l-6 -6l-31 65q42 36 90 36q47 0 77 -28q30 -27 30 -74t-33 -73z
" />
    <glyph glyph-name="four.dnom" horiz-adv-x="309" 
d="M242 163h32v-77h-32v-86h-95v86h-112v70l102 204h105v-197zM153 153v85l-37 -85h37z" />
    <glyph glyph-name="five.dnom" horiz-adv-x="286" 
d="M138 235q46 -1 79.5 -31.5t33.5 -87.5q0 -58 -37 -90q-32 -29 -81 -29q-51 0 -98 35l30 65q32 -23 57 -23q35 0 35 42q0 41 -38 41q-14 0 -39 -7l-39 38l9 172h186v-78h-95z" />
    <glyph glyph-name="six.dnom" horiz-adv-x="307" 
d="M238 221q34 -37 34 -94q0 -58 -35 -95q-33 -35 -79 -35q-52 0 -86 37q-37 40 -37 107q0 75 46 136.5t120 94.5l36 -75q-37 -10 -69 -41q41 -2 70 -35zM154 73q11 0 18.5 15t7.5 39t-7.5 39t-18.5 15q-12 0 -19.5 -15t-7.5 -39t7.5 -39t19.5 -15z" />
    <glyph glyph-name="seven.dnom" horiz-adv-x="265" 
d="M35 360h195v-75q-20 -29 -34 -70q-32 -94 -32 -205v-10h-94v10q0 121 33 213q13 36 25 55h-93v82z" />
    <glyph glyph-name="eight.dnom" horiz-adv-x="311" 
d="M233 191q43 -31 43 -83q0 -53 -40 -85q-36 -26 -81 -26q-49 0 -84.5 29.5t-35.5 81.5t42 83q-37 29 -37 74t37 73q33 25 78 25q47 0 78 -25q37 -28 37 -73q0 -46 -37 -74zM155 287q-22 0 -22 -30q0 -29 22 -29q23 0 23 29q0 30 -23 30zM155 73q28 0 28 39q0 18 -7.5 29
t-20.5 11t-20.5 -11t-7.5 -29q0 -39 28 -39z" />
    <glyph glyph-name="nine.dnom" horiz-adv-x="307" 
d="M272 220v-1q0 -155 -159 -231l-35 74l10 4q34 14 63 47h-5q-47 0 -78 33q-33 33 -33 92t37 93q34 32 82 32q50 0 82.5 -35.5t35.5 -107.5zM154 189q26 0 26 49t-26 49q-27 0 -27 -49t27 -49z" />
    </font>
</defs>
</svg>
