<?xml version="1.0" standalone="no"?>
<!DOCTYPE svg PUBLIC "-//W3C//DTD SVG 1.1//EN" "http://www.w3.org/Graphics/SVG/1.1/DTD/svg11.dtd" >
<svg>
<metadata>
Created by FontForge 20090622 at Tue Apr  7 05:20:42 2020
 By deploy user
Copyright (c) 2020 by Vintage Type Company. All rights reserved.
</metadata>
<defs>
<font id="VTCFellbaumGrotesk-Light" horiz-adv-x="809" >
  <font-face 
    font-family="VTC Fellbaum Grotesk"
    font-weight="300"
    font-stretch="normal"
    units-per-em="1000"
    panose-1="0 0 0 0 0 0 0 0 0 0"
    ascent="750"
    descent="-250"
    x-height="474"
    cap-height="677"
    bbox="-110 -210 1385 883"
    underline-thickness="50"
    underline-position="-50"
    unicode-range="U+000D-U+1F10C"
  />
<missing-glyph horiz-adv-x="525" 
d="M60 683h405v-689h-405v689zM345 626h-165l83 -208zM134 582v-487l97 243zM180 51h165l-82 207zM391 95v487l-97 -244z" />
    <glyph glyph-name="db.01" unicode="&#x3a;&#x29;" horiz-adv-x="802" 
d="M401 686q143 0 244.5 -101.5t101.5 -244.5t-101.5 -244.5t-244.5 -101.5t-244.5 101.5t-101.5 244.5t101.5 244.5t244.5 101.5zM603 138q41 41 61 90q23 55 23 112t-23 111q-21 51 -61 91t-91 61q-54 23 -111 23t-111 -23q-51 -21 -91 -61q-38 -37 -62 -91
q-22 -51 -22 -111q0 -59 22 -112q23 -53 62 -90q37 -38 91 -62q51 -22 111 -22t111 22q54 24 91 62zM553 325v30h86v-60h-28q-11 -78 -71 -130t-139 -52q-80 0 -139.5 52t-70.5 130h-29v60h87v-30q0 -63 44.5 -107.5t107.5 -44.5t107.5 44.5t44.5 107.5zM322 315
q-22 0 -34.5 34.5t-12.5 80.5q0 47 12.5 81.5t34.5 34.5t35 -34.5t13 -81.5v-3q-3 1 -9 1q-13 0 -21.5 -8.5t-8.5 -21.5q0 -12 8.5 -21t21.5 -9q1 0 2 1q-13 -54 -41 -54zM479 315q-22 0 -34.5 34.5t-12.5 80.5q0 47 12.5 81.5t34.5 34.5t35 -34.5t13 -81.5v-3q-3 1 -9 1
q-13 0 -21.5 -8.5t-8.5 -21.5q0 -12 8.5 -21t21.5 -9q1 0 2 1q-14 -54 -41 -54z" />
    <glyph glyph-name="db.02" unicode="&#x3c;&#x33;" horiz-adv-x="596" 
d="M425 558q49 0 82.5 -34.5t33.5 -84.5q0 -48 -25 -98.5t-61 -88t-71.5 -68.5t-60.5 -47l-25 -16q-10 6 -26.5 17t-58 45.5t-73.5 70t-58.5 86.5t-26.5 99q0 50 33.5 84.5t82.5 34.5q85 0 127 -89q42 89 127 89z" />
    <glyph glyph-name="db.03" unicode="&#x3c;&#x3c;&#x33;" horiz-adv-x="585" 
d="M402 558q54 0 91 -37.5t37 -91.5q0 -57 -37 -120q-28 -45 -77 -93q-24 -23 -51.5 -44.5t-41.5 -30.5l-17 -11l-14 -8l-13 8l-17 11t-41.5 30.5t-51.5 44.5q-51 48 -77 93q-37 61 -37 120q0 54 37 91.5t90 37.5q67 0 110 -54q43 54 110 54zM381 254q97 93 97 175
q0 31 -22 55q-22 22 -54 22q-29 0 -52 -17q-21 -18 -34 -45l-24 -50l-23 50q-13 28 -35 45q-23 17 -52 17q-31 0 -53 -22q-22 -24 -22 -55q0 -82 97 -175q34 -32 88 -71q50 34 89 71z" />
    <glyph glyph-name="db.04" unicode="db&#x2e;&#x30;&#x31;" horiz-adv-x="799" 
d="M622 216l-111 111l-100 -100l111 -111l-122 -122l-123 122l111 111l-100 100l-111 -111l-122 122l122 123l111 -111l100 100l-111 111l123 122l122 -122l-111 -111l100 -100l111 111l122 -123z" />
    <glyph glyph-name="db.05" unicode="db&#x2e;&#x30;&#x32;" horiz-adv-x="799" 
d="M597 192l-99 99l-51 -52l99 -98l-146 -147l-147 147l99 98l-51 52l-99 -99l-147 146l147 147l99 -99l51 51l-99 99l147 147l146 -147l-99 -99l51 -51l99 99l147 -147zM597 410l-71 -72l71 -71l72 71zM202 267l71 71l-71 72l-71 -72zM328 536l72 -71l71 71l-71 71z
M471 141l-71 71l-72 -71l72 -72zM400 267l71 71l-71 72l-72 -72z" />
    <glyph glyph-name="db.06" unicode="db&#x2e;&#x30;&#x33;" horiz-adv-x="597" 
d="M385 268h157v-173h-173v157h-141v-157h-173v173h157v141h-157v173h173v-157h141v157h173v-173h-157v-141z" />
    <glyph glyph-name="db.07" unicode="db&#x2e;&#x30;&#x34;" horiz-adv-x="597" 
d="M542 302v-207h-207v140h-73v-140h-207v207h140v73h-140v207h207v-140h73v140h207v-207h-140v-73h140zM388 529v-101h101v101h-101zM108 428h101v101h-101v-101zM209 148v101h-101v-101h101zM349 288v101h-101v-101h101zM489 148v101h-101v-101h101z" />
    <glyph glyph-name="db.08" unicode="db&#x2e;&#x30;&#x37;" horiz-adv-x="799" 
d="M691 338q53 -31 53 -82q0 -39 -22 -60.5t-58 -21.5q-35 0 -66.5 20.5t-69 58t-57.5 52.5l-38 -39q14 -19 52 -56.5t58.5 -69t20.5 -66.5q0 -36 -21.5 -58t-60.5 -22q-51 0 -82 53q-33 -53 -83 -53q-39 0 -60.5 22t-21.5 58q0 35 20.5 66.5t58.5 69t52 56.5l-38 39
q-20 -15 -57.5 -52.5t-69 -58t-66.5 -20.5q-36 0 -58 21.5t-22 60.5q0 51 53 82q-53 33 -53 83q0 38 22.5 60t57.5 22t66.5 -20.5t69 -58t57.5 -52.5l38 38q-15 20 -52.5 57.5t-58 69t-20.5 66.5q0 36 21.5 58t60.5 22q51 0 82 -53q33 53 83 53q39 0 60.5 -22t21.5 -58
q0 -35 -20.5 -66.5t-58 -69t-52.5 -57.5l38 -38q20 15 57.5 52.5t69 58t66.5 20.5q36 0 58 -21.5t22 -60.5q0 -50 -53 -83z" />
    <glyph glyph-name="db.09" unicode="db&#x2e;&#x30;&#x38;" horiz-adv-x="799" 
d="M744 414q0 -42 -32 -76q32 -32 32 -76q0 -46 -29 -75q-28 -28 -72 -28q-41 0 -83 28q-23 15 -62 54q-20 20 -29 28q8 -9 28 -29q33 -33 54 -62q27 -40 27 -83q0 -45 -27 -72q-29 -29 -76 -29q-43 0 -75 32q-34 -32 -76 -32q-47 0 -76 29q-27 27 -27 72q0 43 27 83
q21 29 54 62q20 20 28 29q-9 -8 -29 -28q-39 -39 -62 -54q-42 -28 -83 -28q-44 0 -72 28q-29 29 -29 75q0 44 32 76q-32 34 -32 76q0 47 29 76q27 27 72 27q43 0 83 -27q26 -18 62 -54l29 -29q-8 10 -28 30q-36 36 -54 62q-27 41 -27 83q0 45 27 72q29 29 76 29q43 0 75 -32
q34 32 76 32q47 0 76 -29q27 -27 27 -72q0 -42 -27 -83q-18 -26 -54 -62q-20 -20 -28 -30l29 29q36 36 62 54q40 27 83 27q45 0 72 -27q29 -29 29 -76zM317 330l12 8l-12 9q-24 18 -55 49q-23 23 -36 34.5t-32.5 21.5t-37.5 10q-46 0 -46 -48q0 -31 36 -52l40 -24l-40 -23
q-36 -21 -36 -53q0 -47 46 -47q18 0 37.5 10t32.5 21.5t36 34.5q41 38 55 49zM523 95q0 18 -10 37.5t-21.5 32.5t-34.5 36q-31 31 -49 55l-9 12l-8 -12q-18 -24 -49 -55q-23 -23 -34.5 -36t-21.5 -32.5t-10 -37.5q0 -46 48 -46q31 0 52 36l24 40l23 -40q21 -36 52 -36
q48 0 48 46zM341 338l59 -58l58 58l-58 58zM457 476q23 23 34.5 36t21.5 32.5t10 37.5q0 46 -48 46q-31 0 -52 -36l-23 -40l-24 40q-21 36 -52 36q-48 0 -48 -46q0 -18 10 -37.5t21.5 -32.5t34.5 -36q38 -40 49 -55l9 -12l8 12q11 15 49 55zM653 315l-40 23l40 24
q36 21 36 52q0 48 -46 48q-18 0 -37.5 -10t-32.5 -21.5t-36 -34.5q-31 -31 -55 -49l-12 -9l12 -8q14 -11 55 -49q23 -23 36 -34.5t32.5 -21.5t37.5 -10q46 0 46 47q0 32 -36 53z" />
    <glyph glyph-name="db.10" unicode="db&#x2e;&#x30;&#x39;" horiz-adv-x="768" 
d="M687 268q25 -25 25.5 -56t-26.5 -59q-36 -36 -96 -20q15 -61 -21 -97q-28 -27 -58.5 -26.5t-55.5 25.5t-33 61.5t-8 90.5t-3 77h-54q-4 -25 -3.5 -78t-7.5 -89.5t-33 -61.5t-55.5 -25.5t-58.5 26.5q-36 36 -21 97q-60 -16 -96 20q-27 28 -27 59t25 56q26 25 62.5 33
t89.5 7.5t77 2.5v54q-24 4 -77 3.5t-90 7.5t-62 33t-25 55.5t27 59.5q36 36 96 20q-15 60 21 96q29 28 58.5 27.5t55.5 -25.5q25 -25 33 -61.5t7.5 -89.5t3.5 -78h54q3 23 3 77t8 90.5t33 61.5t55 25.5t59 -27.5q36 -36 21 -96q60 16 96 -20q27 -28 26.5 -59t-25.5 -56
t-61.5 -33t-89.5 -7.5t-78 -3.5v-54q24 -3 77.5 -2.5t90 -7.5t61.5 -33z" />
    <glyph glyph-name="db.11" unicode="db&#x2e;&#x31;&#x30;" horiz-adv-x="771" 
d="M684 293q31 -33 31 -71q2 -39 -33 -74q-29 -29 -76 -31q0 -45 -31 -76q-33 -33 -74 -33q-40 0 -70 32q-30 30 -39 78q-6 27 -6 82q0 28 -1 41q-1 -13 -1 -41q0 -55 -5 -82q-11 -50 -40 -78q-30 -32 -70 -32q-41 0 -74 33q-31 31 -31 76q-47 2 -76 31q-33 33 -33 74
q0 38 31 71q32 30 79 39q26 5 82 5q14 1 40 1q-13 1 -40 1q-63 2 -82 6q-47 9 -79 39q-31 31 -31 70q0 42 33 74q30 31 76 31q0 46 31 77q35 33 74 33q40 -2 70 -32q29 -28 40 -78q5 -27 5 -82q0 -28 1 -41q1 13 1 41q0 55 6 82q9 48 39 78t70 32q39 0 74 -33q31 -31 31 -77
q46 0 76 -31q35 -33 33 -74q0 -39 -31 -70q-30 -30 -79 -39q-20 -4 -82 -6q-27 0 -40 -1q26 0 40 -1q56 0 82 -5q49 -9 79 -39zM333 274l2 14l-15 -2q-32 -4 -73 -4q-33 0 -49.5 -1t-38 -7.5t-34.5 -19.5q-33 -32 2 -67q21 -21 62 -11l45 11l-12 -45q-9 -39 12 -62
q34 -33 66 -1q19 19 24 46.5t5 74.5q0 49 4 74zM320 391l15 -2l-2 14q-4 24 -4 73q0 32 -1 49.5t-8 38.5t-20 34q-32 32 -66 -1q-21 -23 -12 -62l12 -46l-45 12q-41 11 -62 -12q-35 -33 -2 -66q13 -13 34.5 -19.5t38 -7.5t49.5 -1q62 -3 73 -4zM426 297v82h-82v-82h82z
M437 403l-2 -14l15 2q12 1 73 4q33 0 49.5 1t38 7.5t34.5 19.5q33 33 -2 66q-21 23 -62 12l-45 -12l12 46q11 39 -12 62q-34 33 -66 1q-13 -13 -19.5 -34.5t-7.5 -37t-2 -50.5q0 -49 -4 -73zM643 188q35 33 2 66q-13 13 -34.5 19.5t-38 7.5t-49.5 1q-41 0 -73 4l-15 2l2 -14
q4 -25 4 -74q1 -34 2 -49.5t7.5 -37t19.5 -34.5q32 -33 66 1q23 23 12 62l-12 45l45 -11q41 -11 62 12z" />
    <glyph glyph-name="db.12" unicode="db&#x2e;&#x31;&#x31;" horiz-adv-x="724" 
d="M514 382l155 86l-87 -267h-440l-87 267l155 -86l152 210zM142 85v69h440v-69h-440z" />
    <glyph glyph-name="db.13" unicode="db&#x2e;&#x31;&#x32;" horiz-adv-x="724" 
d="M629 487l40 -33l-86 -263h-442l-86 263l39 33l121 -67l125 172h44l125 -172zM543 245l52 160l-102 -57l-131 181l-131 -181l-102 57l52 -160h362zM157 85v54h410v-54h-410z" />
    <glyph glyph-name="db.14" unicode="db&#x2e;&#x31;&#x33;" horiz-adv-x="521" 
d="M55 683h411v-689l-206 95l-205 -95v689z" />
    <glyph glyph-name="db.15" unicode="db&#x2e;&#x31;&#x34;" horiz-adv-x="534" 
d="M55 683h424v-689l-212 98l-212 -98v689zM425 78v551h-316v-551l158 74z" />
    <glyph glyph-name="db.16" unicode="db&#x2e;&#x31;&#x35;" horiz-adv-x="1440" 
d="M1264 365h121v-53h-121l-264 -264l-140 140l-140 -140l-140 140l-140 -140l-264 264h-121v53h121l264 265l140 -140l140 140l140 -140l140 140zM720 554l-102 -102l102 -103l102 103zM440 124l102 102l-113 113l113 113l-102 102l-215 -215zM505 339l75 -75l75 75l-75 75
zM720 124l102 102l-102 102l-102 -102zM785 339l75 -75l75 75l-75 75zM1000 124l215 215l-215 215l-102 -102l113 -113l-113 -113z" />
    <glyph glyph-name="db.17" unicode="db&#x2e;&#x31;&#x36;" horiz-adv-x="1440" 
d="M1264 365h121v-53h-121l-264 -264l-140 140l-140 -140l-140 140l-140 -140l-264 264h-121v53h121l264 265l140 -140l140 140l140 -140l140 140zM542 226l-113 113l113 113l-102 102l-215 -215l215 -215zM720 124l102 102l-102 102l-102 -102zM720 349l102 103l-102 102
l-102 -102zM1000 124l215 215l-215 215l-102 -102l113 -113l-113 -113z" />
    <glyph glyph-name="db.18" unicode="db&#x2e;&#x31;&#x37;" horiz-adv-x="608" 
d="M341 461q-39 23 -70 57t-39 53q-18 41 -7.5 75.5t35.5 36.5q47 5 82 -60q2 -3 8.5 -20.5t17.5 -39.5t26 -41q23 -31 58 -57t66 -37q5 -2 6.5 -5.5t-1 -6.5t-8.5 -3q-35 -2 -84 10.5t-90 37.5zM515 265q4 0 7 -2t3.5 -4.5t-1.5 -5t-6 -3.5q-30 -10 -65.5 -37t-58.5 -58
q-15 -19 -26 -40t-18 -40t-8 -21q-35 -65 -82 -60q-25 2 -35.5 36.5t7.5 75.5q8 19 38.5 53t70.5 57q40 25 88.5 37.5t85.5 11.5zM541 351q11 -2 11 -12t-11 -13q-312 -85 -374 -85q-47 0 -79.5 28.5t-32.5 69.5t33 70t79 29q55 0 374 -87z" />
    <glyph glyph-name="db.19" unicode="db&#x2e;&#x31;&#x38;" horiz-adv-x="608" 
d="M93 413q-4 0 -7 2t-3.5 4t1.5 5t6 4q31 11 66 37t58 57q15 19 26 41t17.5 39.5t8.5 20.5q35 66 82 60q25 -2 35.5 -36.5t-7.5 -75.5q-8 -19 -39 -53t-70 -57q-41 -25 -90 -37.5t-84 -10.5zM442 438q46 0 78.5 -29t32.5 -70t-32.5 -69.5t-78.5 -28.5q-60 0 -375 85
q-11 3 -11 13t11 12q322 87 375 87zM267 216q40 -23 70.5 -57t38.5 -53q18 -41 7.5 -75.5t-35.5 -36.5q-47 -6 -82 60q-1 2 -8 21t-18 40t-26 40q-23 31 -58.5 58t-65.5 37q-5 1 -6.5 5t1 7t8.5 3q37 1 85.5 -11.5t88.5 -37.5z" />
    <glyph glyph-name="db.20" unicode="db&#x2e;&#x30;&#x35;" horiz-adv-x="799" 
d="M539 543l-139 -140l-140 140l140 140zM260 134l140 140l139 -140l-139 -140zM195 478l140 -140l-140 -140l-140 140zM604 478l140 -140l-140 -140l-140 140z" />
    <glyph glyph-name="db.21" unicode="db&#x2e;&#x30;&#x36;" horiz-adv-x="799" 
d="M555 527l-155 -155l-156 155l156 156zM322 527l78 -77l77 77l-77 78zM244 149l156 156l155 -156l-155 -155zM400 72l77 77l-77 77l-78 -77zM210 494l156 -156l-156 -155l-155 155zM210 261l77 77l-77 77l-77 -77zM589 494l155 -156l-155 -155l-156 155zM512 338l77 -77
l77 77l-77 77z" />
    <glyph glyph-name="fi" unicode="fi" horiz-adv-x="486" 
d="M182 480h229v-480h-81v417h-148v-417h-81v417h-56v63h56v36q0 79 48 123t114 44q32 0 59.5 -8.5t39.5 -16.5l11 -8l-24 -51q-26 21 -77 21q-41 0 -65.5 -27.5t-24.5 -76.5v-36z" />
    <glyph glyph-name="fl" unicode="fl" horiz-adv-x="501" 
d="M351 664l75 19v-683h-82v417h-162v-417h-81v417h-56v63h56v36q0 79 48 123t114 44q50 0 88 -19zM344 480v122q-27 18 -72 18q-41 0 -65.5 -27.5t-24.5 -76.5v-36h162z" />
    <glyph glyph-name="ffi" unicode="ffi" horiz-adv-x="674" 
d="M400 480h229v-480h-82v417h-147v-417h-82v417h-136v-417h-81v417h-56v63h56v36q0 79 48 123t114 44q59 0 115 -32q41 32 102 32q32 0 60 -8.5t40 -16.5l11 -8l-24 -51q-27 21 -78 21q-40 0 -64.5 -27.5t-24.5 -76.5v-36zM318 480v36q0 52 22 91q-39 13 -68 13
q-41 0 -65.5 -27.5t-24.5 -76.5v-36h136z" />
    <glyph glyph-name="ffl" unicode="ffl" horiz-adv-x="688" 
d="M569 664l74 19v-683h-81v417h-162v-417h-82v417h-136v-417h-81v417h-56v63h56v36q0 79 48 123t114 44q59 0 115 -32q41 32 102 32q49 0 89 -19zM318 480v36q0 52 22 91q-39 13 -68 13q-41 0 -65.5 -27.5t-24.5 -76.5v-36h136zM562 480v122q-30 18 -73 18
q-40 0 -64.5 -27.5t-24.5 -76.5v-36h162z" />
    <glyph glyph-name="fj" unicode="fj" horiz-adv-x="456" 
d="M182 480h229v-509q0 -96 -43.5 -138.5t-128.5 -42.5v63q91 0 91 107v457h-148v-417h-81v417h-56v63h56v36q0 79 48 123t114 44q32 0 59.5 -8.5t39.5 -16.5l11 -8l-24 -51q-26 21 -77 21q-41 0 -65.5 -27.5t-24.5 -76.5v-36z" />
    <glyph glyph-name="tt" unicode="tt" horiz-adv-x="580" 
d="M451 480h84v-63h-84v-417h-82v417h-158v-417h-82v417h-84v63h84v218l82 21v-239h158v218l82 21v-239z" />
    <glyph glyph-name="ft" unicode="ft" horiz-adv-x="534" 
d="M405 480h84v-63h-84v-417h-82v417h-141v-417h-81v417h-56v63h56v36q0 81 33.5 124t86.5 43q24 0 44.5 -8.5t29.5 -16.5l9 -8l-24 -51q-17 21 -44 21q-54 0 -54 -104v-36h141v103l82 20v-123z" />
    <glyph glyph-name="cw.the" unicode="cw&#x2e;the" horiz-adv-x="813" 
d="M689 450q46 0 63.5 -45.5t4.5 -118.5l-5 -32h-138q-10 -56 1 -88.5t41 -32.5q16 0 31 9t23 18l7 9l19 -40q-3 -5 -9 -12.5t-29 -19.5t-51 -12q-50 0 -78 45t-16 113l8 43q29 164 128 164zM699 294q20 108 -18 108q-19 0 -35.5 -29.5t-24.5 -78.5h78zM207 550l-17 -100h67
l-8 -48h-68l-32 -185q-7 -38 1.5 -61t28.5 -23q11 0 21.5 6.5t15.5 12.5l4 6l16 -33q-2 -4 -6.5 -11t-22.5 -18t-42 -11q-41 0 -64.5 36t-13.5 93l33 188h-55l8 48q34 0 51.5 19.5t25.5 65.5zM480 169q-3 -16 8.5 -26t32.5 -10l-9 -48q-48 0 -73 28.5t-16 79.5l22 127
q7 37 0 59.5t-25 22.5t-33 -22.5t-21 -59.5l-41 -230h-61l81 462h-46l8 45h107l-29 -165q21 18 51 18q42 0 61.5 -36.5t7.5 -104.5z" />
    <glyph glyph-name="cw.of" unicode="cw&#x2e;of" horiz-adv-x="551" 
d="M433 457l-2 -7h84l-8 -47h-84l-44 -247q-13 -77 -40.5 -102.5t-87.5 -25.5l9 47q25 0 38 20t22 71l42 237h-48l9 47h47l3 17q25 135 99 135q15 0 28.5 -6t19.5 -12l6 -6l-18 -37q-11 14 -27 14q-32 0 -48 -98zM268 290l-8 -44q-27 -160 -130 -160q-46 0 -70 41t-10 119
l7 44q15 80 49.5 120t81.5 40q46 0 70 -41t10 -119zM203 268q25 135 -20 135t-68 -135q-25 -135 20 -135q43 0 68 135z" />
    <glyph glyph-name="cw.for" unicode="cw&#x2e;for" horiz-adv-x="780" 
d="M329 450l-9 -47h-83l-44 -247q-14 -77 -41.5 -102.5t-86.5 -25.5l8 47q26 0 39 20t22 71l41 237h-47l8 47h48l3 17q23 135 99 135q15 0 28 -6t19 -12l6 -6l-17 -37q-11 14 -27 14q-31 0 -49 -98l-1 -7h84zM446 450q46 0 70 -41t10 -119l-7 -44q-29 -160 -131 -160
q-46 0 -70 41t-10 119l8 44q14 80 48 120t82 40zM461 268q25 135 -20 135q-43 0 -68 -135t20 -135t68 135zM727 450q15 0 28 -4t19 -8l6 -3l-22 -47q-17 15 -40 15q-21 0 -37 -29.5t-24 -73.5l-37 -210h-61l55 310h-37l8 46h48l21 -47q28 51 73 51z" />
    <glyph glyph-name="cw.by" unicode="cw&#x2e;by" horiz-adv-x="600" 
d="M224 450q42 0 62 -45t7 -119l-8 -43q-13 -72 -45.5 -114.5t-83.5 -42.5q-53 0 -76 40.5t-10 116.5l54 309h-41l8 45h102l-31 -176q20 29 62 29zM229 268q11 66 4 100.5t-30 34.5q-46 0 -71 -135q-23 -135 23 -135q49 0 74 135zM497 473q92 0 75 -101l-53 -303
q-24 -136 -117 -136q-42 0 -63 34t-11 90h48q-6 -34 2 -55t27 -21q37 0 52 89l12 66q-15 -30 -57 -30q-40 0 -61.5 38t-9.5 102l27 154h-42l8 45h103l-30 -167q-21 -125 22 -125t65 125l20 112q6 35 -25 35z" />
    <glyph glyph-name="cw.and" unicode="cw&#x2e;and" horiz-adv-x="959" 
d="M274 171q-3 -18 9 -28t32 -10l-8 -47q-33 0 -51.5 17t-14.5 40q-1 -2 -2.5 -6t-9 -14t-16 -17.5t-24 -13.5t-33.5 -6q-44 0 -71 32t-18 83q10 59 57.5 92t116.5 33q6 31 -5.5 53.5t-37.5 22.5q-17 0 -33 -7t-23 -15l-8 -7l-17 37l11.5 11t31 18t47.5 11q47 0 76.5 -33
t18.5 -93zM222 221l12 66q-39 0 -69 -24t-36 -60q-5 -28 5 -45.5t33 -17.5q41 0 55 81zM824 169q-4 -17 7.5 -26.5t33.5 -9.5l-9 -47q-36 0 -56 17t-16 40l-3 -6t-8.5 -14t-14.5 -17.5t-22 -13.5t-30 -6q-43 0 -64 44t-8 116l7 43q15 84 45.5 122.5t67.5 38.5q16 0 29 -8.5
t18 -17.5l5 -8l24 136h-53l8 45h114zM782 268q23 134 -17 134q-21 0 -38 -36t-28 -98q-12 -61 -7 -98t26 -37q41 0 64 135zM560 169q-3 -16 9 -26t32 -10l-8 -47q-49 0 -73.5 28t-15.5 79l22 127q7 37 -0.5 59.5t-25.5 22.5q-17 0 -32 -22.5t-22 -59.5l-41 -230h-61l55 310
h-37l8 45h48l21 -45q30 50 77 50q42 0 61.5 -36.5t7.5 -104.5z" />
    <glyph glyph-name="cw.with" unicode="cw&#x2e;with" horiz-adv-x="1144" 
d="M538 497l10 61h68l-11 -61h-67zM780 550l-17 -100h67l-8 -47h-68l-32 -186q-7 -38 1.5 -61t29.5 -23q11 0 21 6.5t14 12.5l5 6l16 -33q-2 -4 -6.5 -11t-22.5 -18t-42 -11q-41 0 -64.5 36t-13.5 93l33 189h-55l8 47q34 0 51.5 19.5t25.5 65.5zM585 400l-41 -231
q-3 -17 8.5 -26.5t32.5 -9.5l-8 -48q-54 0 -77 25.5t-14 73.5l38 216h-42l8 45h103zM362 473q94 0 76 -99l-26 -146q-25 -143 -112 -143q-23 0 -40 12.5t-22 24.5l-5 12q-2 -5 -7 -13.5t-26.5 -22t-50.5 -13.5q-42 0 -63 42t-10 101l30 172h-41l8 45h102l-33 -187
q-22 -125 15 -125t59 125l33 187h61l-33 -187q-22 -125 18 -125q39 0 61 125l24 132q3 16 -5 26t-21 10zM1053 169q-3 -16 9 -26t32 -10l-8 -48q-49 0 -74 28.5t-16 79.5l23 127q7 38 -0.5 60.5t-25.5 22.5q-17 0 -32 -22.5t-22 -60.5l-41 -230h-61l82 462h-46l8 46h107
l-8 -46l-21 -119q22 17 50 17q42 0 61.5 -36t7.5 -104z" />
    <glyph glyph-name="cw.in" unicode="cw&#x2e;in" horiz-adv-x="489" 
d="M120 497l10 61h68l-10 -61h-68zM175 445l-48 -276q-4 -17 7.5 -26.5t33.5 -9.5l-9 -47q-53 0 -76 25t-15 73l38 216h-41l8 45h102zM423 169q-3 -16 8.5 -26t32.5 -10l-9 -47q-48 0 -73 28.5t-16 79.5l22 126q7 38 0 60.5t-25 22.5t-33 -22.5t-22 -60.5l-40 -230h-61
l54 310h-36l8 45h47l21 -45q30 50 78 50q42 0 61 -36t7 -104z" />
    <glyph glyph-name=".notdef" horiz-adv-x="525" 
d="M60 683h405v-689h-405v689zM345 626h-165l83 -208zM134 582v-487l97 243zM180 51h165l-82 207zM391 95v487l-97 -244z" />
    <glyph glyph-name=".null" horiz-adv-x="0" 
 />
    <glyph glyph-name="nonmarkingreturn" horiz-adv-x="333" 
 />
    <glyph glyph-name="NULL" horiz-adv-x="200" 
 />
    <glyph glyph-name="CR" unicode="&#xd;" horiz-adv-x="200" 
 />
    <glyph glyph-name="space" unicode=" " horiz-adv-x="200" 
 />
    <glyph glyph-name="exclam" unicode="!" horiz-adv-x="216" 
d="M75 0v86h86v-86h-86zM75 677h86v-117l-20 -362h-46l-20 362v117z" />
    <glyph glyph-name="quotedbl" unicode="&#x22;" horiz-adv-x="226" 
d="M52 474l-27 203h76l-27 -203h-22zM125 677h76l-27 -203h-22z" />
    <glyph glyph-name="numbersign" unicode="#" horiz-adv-x="515" 
d="M455 396h-96l-13 -121h90v-66h-97l-23 -209h-64l23 209h-65l-22 -209h-64l23 209h-87v66h94l13 121h-97v66h104l23 209h64l-23 -209h65l22 209h64l-23 -209h89v-66zM282 275l13 121h-64l-13 -121h64z" />
    <glyph glyph-name="dollar" unicode="$" horiz-adv-x="389" 
d="M155 471q0 -24 18 -49.5t43.5 -49.5l51 -49t43.5 -57.5t18 -66.5q0 -45 -30.5 -80.5t-76.5 -44.5v-80h-56v79q-30 4 -56.5 16t-37.5 22l-12 10l24 52q42 -40 99 -40q33 0 50 19.5t17 53.5q0 23 -18 47.5t-43.5 47.5l-51 48t-43.5 59t-18 70q0 41 25 73t65 43v83h56v-79
q29 -3 54 -14t36 -21l10 -10l-23 -50q-36 35 -84 35q-29 0 -44.5 -19t-15.5 -48z" />
    <glyph glyph-name="percent" unicode="%" horiz-adv-x="686" 
d="M301 503q0 -84 -33 -132t-87 -48q-55 0 -88 48t-33 132t33 132t88 48q54 0 87 -48t33 -132zM181 382q25 0 41 35.5t16 85.5t-15.5 85.5t-41.5 35.5t-42 -35t-16 -86q0 -50 16 -85.5t42 -35.5zM505 353q55 0 88 -47.5t33 -131.5t-33 -132t-88 -48q-54 0 -87 48t-33 132
q0 83 33 131t87 48zM505 52q26 0 42 35.5t16 86.5q0 50 -16 85.5t-42 35.5q-25 0 -41 -35.5t-16 -85.5q0 -51 16 -86.5t41 -35.5zM427 677h66l-233 -677h-67z" />
    <glyph glyph-name="ampersand" unicode="&#x26;" horiz-adv-x="522" 
d="M391 148l71 -86l-41 -59l-58 70q-44 -79 -135 -79q-74 0 -121 49.5t-47 130.5q0 105 93 180q-52 91 -52 166q0 78 36.5 120.5t94.5 42.5t94.5 -42.5t36.5 -120.5q0 -55 -37.5 -106.5t-76.5 -78.5q29 -46 89 -123q6 44 6 123h63q0 -118 -16 -187zM232 620q-22 0 -35.5 -30
t-13.5 -70q0 -64 36 -134q62 52 62 134q0 40 -13.5 70t-35.5 30zM232 57q59 0 87 68q-86 104 -130 170q-47 -55 -47 -121q0 -43 26.5 -80t63.5 -37z" />
    <glyph glyph-name="quotesingle" unicode="'" horiz-adv-x="126" 
d="M52 474l-27 203h76l-27 -203h-22z" />
    <glyph glyph-name="parenleft" unicode="(" horiz-adv-x="313" 
d="M248 620l-11 -19t-24.5 -52t-30.5 -82.5t-24 -105t-11 -124.5q0 -98 25.5 -193.5t50.5 -142.5l25 -47l-30 -63q-6 6 -16.5 18t-37 54t-46.5 90t-36.5 125t-16.5 159t16 158.5t38.5 126.5t44.5 88t38 56l16 17z" />
    <glyph glyph-name="parenright" unicode=")" horiz-adv-x="313" 
d="M65 620l30 63q6 -6 16.5 -18t37 -54t46.5 -90t36.5 -125t16.5 -159t-16 -158.5t-38 -126.5t-44.5 -88t-38.5 -56l-16 -17l-30 63l11 19t24.5 52t30.5 82.5t24 105t11 124.5t-10.5 124t-25 106.5t-29.5 80.5t-25 54z" />
    <glyph glyph-name="asterisk" unicode="*" horiz-adv-x="315" 
d="M270 610l-83 -52l83 -51l-17 -27l-80 50v-91h-32v91l-79 -50l-17 27l82 51l-82 52l17 26l79 -49v90h32v-90l80 49z" />
    <glyph glyph-name="plus" unicode="+" horiz-adv-x="366" 
d="M215 272h91v-64h-91v-91h-64v91h-91v64h91v91h64v-91z" />
    <glyph glyph-name="comma" unicode="," horiz-adv-x="202" 
d="M71 113h86l-72 -171h-60z" />
    <glyph glyph-name="hyphen" unicode="-" horiz-adv-x="360" 
d="M60 272h240v-64h-240v64z" />
    <glyph glyph-name="period" unicode="." horiz-adv-x="176" 
d="M45 86h86v-86h-86v86z" />
    <glyph glyph-name="slash" unicode="/" horiz-adv-x="336" 
d="M211 683h65l-151 -689h-65z" />
    <glyph glyph-name="zero" unicode="0" horiz-adv-x="413" 
d="M206 486q74 0 118 -64.5t44 -181.5t-44 -181.5t-118 -64.5q-73 0 -117 64.5t-44 181.5t44 181.5t117 64.5zM206 57q36 0 58 50.5t22 132.5t-22 132.5t-58 50.5t-57.5 -50.5t-21.5 -132.5t21.5 -132.5t57.5 -50.5z" />
    <glyph glyph-name="one" unicode="1" horiz-adv-x="231" 
d="M45 451l141 35v-486h-82v401l-59 -15v65z" />
    <glyph glyph-name="two" unicode="2" horiz-adv-x="327" 
d="M127 63h155v-63h-207l-30 63q85 109 117 167t32 121q0 29 -15 50.5t-43 21.5q-17 0 -33.5 -8.5t-24.5 -16.5l-8 -9l-24 52q4 5 12.5 12.5t35 20t53.5 12.5q55 0 91.5 -35t36.5 -100q0 -70 -37.5 -135.5t-110.5 -152.5z" />
    <glyph glyph-name="three" unicode="3" horiz-adv-x="353" 
d="M224 205q3 -2 9 -5t20.5 -15.5t25.5 -27.5t20 -41t9 -55q0 -50 -24 -96t-58 -76.5t-67.5 -53.5t-57.5 -33l-24 -11l-28 59q7 3 19 9.5t42.5 27.5t54 44t42.5 59t19 73q0 52 -23.5 88t-51.5 26l-40 -14l-23 49q73 26 99.5 60t26.5 79q0 30 -17.5 51t-50.5 21
q-21 0 -40 -8.5t-28 -16.5l-9 -9l-24 52q5 5 13.5 12.5t37.5 20t60 12.5q62 0 101 -38.5t39 -100.5q0 -29 -7.5 -54.5t-18 -41t-21 -26.5t-17.5 -15z" />
    <glyph glyph-name="four" unicode="4" horiz-adv-x="430" 
d="M315 140h70v-63h-70v-280h-82v280h-158l-30 63l211 340h59v-340zM233 140v193l-116 -193h116z" />
    <glyph glyph-name="five" unicode="5" horiz-adv-x="379" 
d="M190 239q61 0 102.5 -45t41.5 -117q0 -49 -27 -96t-65 -80t-76.5 -59t-65.5 -38l-27 -13l-28 59l22.5 11.5t50 31.5t63 49t50 62t22.5 73q0 41 -21.5 70t-58.5 29q-20 0 -37 -7t-24 -15l-7 -7l-37 37l16 296h205v-63h-125l-10 -184q15 6 36 6z" />
    <glyph glyph-name="six" unicode="6" horiz-adv-x="396" 
d="M207 399q63 0 103.5 -53t40.5 -150t-42 -149.5t-111 -52.5t-111 56.5t-42 158.5q0 97 22.5 181t54.5 134.5t64 87t54 50.5l23 15l30 -63l-13.5 -11t-31.5 -31.5t-43.5 -52t-44 -71.5t-37.5 -91q31 42 84 42zM198 57q34 0 53 38t19 101t-19 101t-53 38t-52.5 -37.5
t-18.5 -101.5t18.5 -101.5t52.5 -37.5z" />
    <glyph glyph-name="seven" unicode="7" horiz-adv-x="383" 
d="M338 480v-68q-7 -11 -18 -31t-39.5 -84t-50 -132t-39.5 -169t-18 -199h-81q0 104 17.5 206t42 172.5t49.5 126.5t43 83l17 27h-216v68h293z" />
    <glyph glyph-name="eight" unicode="8" horiz-adv-x="413" 
d="M295 353q73 -56 73 -166q0 -94 -44.5 -143.5t-116.5 -49.5t-117 49.5t-45 143.5q0 110 73 166q-62 46 -62 145q0 82 42 130.5t109 48.5t109 -48.5t42 -130.5q0 -98 -63 -145zM207 614q-29 0 -49.5 -32t-20.5 -84q0 -53 20 -82.5t50 -29.5q29 0 49 29.5t20 82.5
q0 52 -20 84t-49 32zM207 57q36 0 58 36.5t22 96.5t-22 96.5t-58 36.5q-37 0 -58.5 -36.5t-21.5 -96.5t21.5 -96.5t58.5 -36.5z" />
    <glyph glyph-name="nine" unicode="9" horiz-adv-x="409" 
d="M198 486q75 0 120.5 -66.5t45.5 -185.5q0 -72 -12.5 -136t-32 -107.5t-43.5 -79.5t-48 -57.5t-43.5 -36.5t-32.5 -21l-12 -5l-30 63q5 2 13.5 7.5t32.5 26t44.5 46.5t43 72t34.5 99q-33 -38 -85 -38q-64 0 -106 55t-42 155q0 91 43 150t110 59zM198 130q33 0 52.5 40.5
t19.5 106.5t-19.5 106t-52.5 40q-32 0 -51.5 -40t-19.5 -106t19.5 -106.5t51.5 -40.5z" />
    <glyph glyph-name="colon" unicode=":" horiz-adv-x="206" 
d="M60 0v86h86v-86h-86zM60 480h86v-86h-86v86z" />
    <glyph glyph-name="semicolon" unicode=";" horiz-adv-x="202" 
d="M25 -58l46 171h86l-72 -171h-60zM71 480h86v-86h-86v86z" />
    <glyph glyph-name="less" unicode="&#x3c;" horiz-adv-x="333" 
d="M283 385l-150 -144l150 -143l-29 -61l-204 204l204 205z" />
    <glyph glyph-name="equal" unicode="=" horiz-adv-x="385" 
d="M85 110v64h240v-64h-240zM85 286h240v-63h-240v63z" />
    <glyph glyph-name="greater" unicode="&#x3e;" horiz-adv-x="333" 
d="M79 446l204 -205l-204 -204l-29 61l149 143l-149 144z" />
    <glyph glyph-name="question" unicode="?" horiz-adv-x="342" 
d="M181 255q17 0 32 6.5t22 13.5l7 7l21 -45q-3 -5 -10 -12.5t-31.5 -20t-53.5 -12.5q-46 0 -77.5 31t-31.5 78q0 37 23.5 74.5t51.5 64t51.5 59.5t23.5 61q0 26 -15.5 43t-44.5 17q-20 0 -38 -8.5t-25 -17.5l-8 -8l-23 49q4 5 12 13t35 21.5t55 13.5q58 0 94 -34t36 -89
q0 -36 -23.5 -73.5t-52 -64.5t-52 -60.5t-23.5 -61.5q0 -20 12.5 -32.5t32.5 -12.5zM115 0v86h85v-86h-85z" />
    <glyph glyph-name="at" unicode="@" horiz-adv-x="819" 
d="M470 597q94 0 165.5 -49t102.5 -128t16 -167q-34 -194 -169 -194q-42 0 -73.5 17.5t-41.5 34.5l-11 17q-1 -3 -3.5 -7.5t-10.5 -16.5t-18 -21t-27 -16.5t-35 -7.5q-54 0 -83 52.5t-13 141.5q17 94 60.5 144t112.5 50q30 0 53 -15.5t31 -30.5l8 -15l-32 -177
q-19 -111 90 -111q41 0 72 39.5t45 115.5q22 125 -48.5 215.5t-198.5 90.5q-127 0 -228 -89t-124 -217q-22 -123 51.5 -214.5t193.5 -91.5q33 0 71.5 7t60.5 14l22 7l16 -35q-78 -32 -177 -32q-61 0 -118 27t-97.5 72.5t-60 110.5t-7.5 135q26 151 140.5 247.5t264.5 96.5z
M436 253l18 103q0 4 -0.5 9.5t-7.5 15t-19 9.5q-24 0 -48.5 -39.5t-34.5 -97.5q-11 -63 -5 -100t27 -37q20 0 39.5 37.5t30.5 99.5z" />
    <glyph glyph-name="A" unicode="A" horiz-adv-x="474" 
d="M267 677l152 -677h-88l-35 171h-123l-35 -171h-83l151 677h61zM186 234h97l-49 235z" />
    <glyph glyph-name="B" unicode="B" horiz-adv-x="410" 
d="M265 362q4 -2 10 -5.5t21.5 -17t27.5 -30.5t21.5 -47t9.5 -64q0 -94 -41.5 -146t-118.5 -52h-140v677h117q160 0 160 -183q0 -42 -17 -75t-33 -45zM141 610v-222h31q36 0 55 29.5t19 79.5t-19 81.5t-55 31.5h-31zM195 66q34 0 54 37t20 94q0 54 -20 89.5t-54 35.5h-54
v-256h54z" />
    <glyph glyph-name="C" unicode="C" horiz-adv-x="379" 
d="M327 95l22 -47q-3 -6 -9.5 -15t-32 -24t-57.5 -15q-87 0 -141 80.5t-54 235.5v57q0 156 50.5 236t132.5 80q21 0 40 -6t31 -14.5t20.5 -17.5t12.5 -15l4 -6l-22 -47q-3 5 -9 13t-27 21.5t-44 13.5q-57 0 -86 -77.5t-29 -209.5q0 -125 34 -206t93 -81q22 0 40 11t24 22z
" />
    <glyph glyph-name="D" unicode="D" horiz-adv-x="410" 
d="M181 677q84 0 129 -73t45 -237v-57q0 -164 -45 -237t-130 -73h-125v677h126zM180 66q89 0 89 272t-88 272h-40v-544h39z" />
    <glyph glyph-name="E" unicode="E" horiz-adv-x="348" 
d="M293 610h-152v-204h115v-67h-115v-273h152v-66h-238v677h238v-67z" />
    <glyph glyph-name="F" unicode="F" horiz-adv-x="348" 
d="M293 610h-152v-226h122v-66h-122v-318h-86v677h238v-67z" />
    <glyph glyph-name="G" unicode="G" horiz-adv-x="412" 
d="M217 410h140v-294q-1 -5 -3 -13t-12 -29t-23 -37.5t-37 -29.5t-53 -13q-174 0 -174 316v57q0 153 47.5 234.5t135.5 81.5q30 0 55 -14t35 -28l10 -14l-25 -52q-1 2 -2.5 4.5t-7.5 10t-13 13t-19.5 10t-26.5 4.5q-50 0 -76.5 -68t-26.5 -193v-35q0 -261 84 -261
q19 0 32.5 15t16.5 30l4 15v223h-61v67z" />
    <glyph glyph-name="H" unicode="H" horiz-adv-x="405" 
d="M264 677h86v-677h-86v311h-123v-311h-86v677h86v-299h123v299z" />
    <glyph glyph-name="I" unicode="I" horiz-adv-x="196" 
d="M55 677h86v-677h-86v677z" />
    <glyph glyph-name="J" unicode="J" horiz-adv-x="375" 
d="M234 677h86v-465q0 -218 -143 -218q-35 0 -65.5 11t-43.5 23l-13 11l27 58q39 -37 85 -37q36 0 51.5 37t15.5 124v456z" />
    <glyph glyph-name="K" unicode="K" horiz-adv-x="426" 
d="M235 442l136 -442h-90l-104 338l-36 -64v-274h-86v677h86v-245l136 245h89z" />
    <glyph glyph-name="L" unicode="L" horiz-adv-x="345" 
d="M141 66h149v-66h-235v677h86v-611z" />
    <glyph glyph-name="M" unicode="M" horiz-adv-x="573" 
d="M473 677l45 -677h-86l-28 457l-84 -463h-70l-83 458l-29 -452h-83l45 677h96l93 -419l91 419h93z" />
    <glyph glyph-name="N" unicode="N" horiz-adv-x="422" 
d="M284 677h83v-683h-83l-146 430v-424h-83v677h83l146 -431v431z" />
    <glyph glyph-name="O" unicode="O" horiz-adv-x="438" 
d="M219 683q73 0 118.5 -75.5t45.5 -240.5v-57q0 -165 -45.5 -240.5t-118.5 -75.5t-118.5 75.5t-45.5 240.5v57q0 165 45.5 240.5t118.5 75.5zM298 321v35q0 129 -21 195t-58 66q-36 0 -57 -65.5t-21 -195.5v-35q0 -130 21 -195.5t57 -65.5q37 0 58 66t21 195z" />
    <glyph glyph-name="P" unicode="P" horiz-adv-x="404" 
d="M179 677q78 0 124 -47.5t46 -137.5t-46 -137t-124 -47h-38v-308h-86v677h124zM184 374q35 0 57 31.5t22 86.5t-22 86.5t-57 31.5h-43v-236h43z" />
    <glyph glyph-name="Q" unicode="Q" horiz-adv-x="438" 
d="M383 310q0 -260 -117 -308q12 -42 55 -42h4v-66h-4q-60 0 -96 29t-45 77q-57 18 -91 93.5t-34 216.5v57q0 165 45.5 240.5t118.5 75.5t118.5 -75.5t45.5 -240.5v-57zM298 321v35q0 129 -21 195t-58 66q-36 0 -57 -65.5t-21 -195.5v-35q0 -130 21 -195.5t57 -65.5
q37 0 58 66t21 195z" />
    <glyph glyph-name="R" unicode="R" horiz-adv-x="402" 
d="M245 329l102 -329h-84l-98 318h-24v-318h-86v677h119q79 0 124 -43.5t45 -136.5q0 -134 -98 -168zM180 384q37 0 57.5 29t20.5 84q0 56 -20.5 84.5t-57.5 28.5h-39v-226h39z" />
    <glyph glyph-name="S" unicode="S" horiz-adv-x="410" 
d="M156 526q0 -34 20.5 -74.5t50 -78.5l58.5 -76t49.5 -79.5t20.5 -77.5q0 -66 -41 -109t-107 -43q-40 0 -78 15t-56 30l-18 15l27 57q6 -6 16.5 -14.5t40 -22.5t55.5 -14q75 0 75 86q0 35 -31 86.5t-68 96t-68 101.5t-31 102q0 65 39 108t107 43q36 0 68 -13.5t46 -27.5
l14 -13l-24 -52q-39 39 -92 39q-34 0 -53.5 -24t-19.5 -60z" />
    <glyph glyph-name="T" unicode="T" horiz-adv-x="421" 
d="M55 677h311v-67h-113v-610h-86v610h-112v67z" />
    <glyph glyph-name="U" unicode="U" horiz-adv-x="404" 
d="M263 677h86v-465q0 -112 -40 -165t-107 -53q-68 0 -107.5 53t-39.5 165v465h86v-448q0 -91 14.5 -130t46.5 -39t46.5 39t14.5 130v448z" />
    <glyph glyph-name="V" unicode="V" horiz-adv-x="486" 
d="M348 677h83l-158 -677h-61l-157 677h88l102 -478z" />
    <glyph glyph-name="W" unicode="W" horiz-adv-x="641" 
d="M503 677h83l-123 -677h-61l-82 452l-81 -452h-61l-123 677h88l68 -442l69 442h86l69 -442z" />
    <glyph glyph-name="X" unicode="X" horiz-adv-x="456" 
d="M270 347l131 -347h-92l-85 225l-80 -225h-89l129 341l-127 336h92l81 -214l76 214h89z" />
    <glyph glyph-name="Y" unicode="Y" horiz-adv-x="460" 
d="M316 677h89l-133 -351v-326h-85v328l-132 349h92l85 -237z" />
    <glyph glyph-name="Z" unicode="Z" horiz-adv-x="373" 
d="M58 677h260v-67v-5l-177 -539h177v-66h-263v66v6l177 538h-174v67z" />
    <glyph glyph-name="bracketleft" unicode="[" horiz-adv-x="318" 
d="M258 614h-116v-754h116v-63h-198v880h198v-63z" />
    <glyph glyph-name="backslash" unicode="\" horiz-adv-x="336" 
d="M125 683l151 -689h-65l-151 689h65z" />
    <glyph glyph-name="bracketright" unicode="]" horiz-adv-x="318" 
d="M60 677h198v-880h-198v63h117v754h-117v63z" />
    <glyph glyph-name="asciicircum" unicode="^" horiz-adv-x="289" 
d="M172 621l82 -93h-59l-50 60l-50 -60h-60l82 93h55z" />
    <glyph glyph-name="underscore" unicode="_" horiz-adv-x="398" 
d="M55 57h288v-63h-288v63z" />
    <glyph glyph-name="grave" unicode="`" horiz-adv-x="194" 
d="M111 621l48 -93h-56l-68 93h76z" />
    <glyph glyph-name="a" unicode="a" horiz-adv-x="359" 
d="M248 474h66v-474h-64l-18 44q-1 -2 -2.5 -5.5t-8.5 -12t-14.5 -15t-21.5 -12t-29 -5.5q-58 0 -84.5 51t-26.5 159v58q0 218 111 218q23 0 42 -12.5t26 -25.5l8 -12zM238 216v34q0 71 -14.5 119t-41.5 48t-41.5 -48t-14.5 -119v-34q0 -70 14.5 -114.5t41.5 -44.5
t41.5 44.5t14.5 114.5z" />
    <glyph glyph-name="b" unicode="b" horiz-adv-x="359" 
d="M202 480q112 0 112 -218v-58q0 -108 -27 -159t-85 -51q-24 0 -43 12.5t-25 25.5l-7 12l-18 -44h-64v698l82 21v-289q3 6 8 14t24.5 22t42.5 14zM232 216v34q0 71 -14.5 119t-41.5 48t-41.5 -48t-14.5 -119v-34q0 -70 14.5 -114.5t41.5 -44.5t41.5 44.5t14.5 114.5z" />
    <glyph glyph-name="c" unicode="c" horiz-adv-x="339" 
d="M212 57q17 0 31.5 7.5t20.5 15.5l5 8l25 -52q-3 -5 -9 -12t-30.5 -18.5t-56.5 -11.5q-64 0 -108.5 60t-44.5 150v58q0 96 42.5 157t109.5 61q31 0 55.5 -12.5t33.5 -25.5l8 -12l-24 -52l-7.5 10.5t-21 17.5t-34.5 11q-39 0 -59.5 -51t-20.5 -129q0 -83 22 -131.5
t63 -48.5z" />
    <glyph glyph-name="d" unicode="d" horiz-adv-x="359" 
d="M232 698l82 21v-719h-64l-18 44q-1 -2 -2.5 -5.5t-8 -12t-14.5 -15t-21.5 -12t-28.5 -5.5q-58 0 -85 51t-27 159v58q0 218 112 218q23 0 41.5 -12.5t25.5 -25.5l8 -12v268zM238 216v34q0 71 -14.5 119t-41.5 48q-26 0 -40.5 -47.5t-14.5 -119.5v-34q0 -71 14 -115t41 -44
t41.5 44.5t14.5 114.5z" />
    <glyph glyph-name="e" unicode="e" horiz-adv-x="349" 
d="M304 262v-43h-177q0 -162 76 -162q21 0 39.5 12t26.5 24l8 12l25 -53q-3 -6 -10.5 -16t-35 -26t-61.5 -16q-68 0 -109 57t-41 153v58q0 100 34 159t100 59q125 0 125 -218zM127 273h105q0 144 -53 144q-52 0 -52 -144z" />
    <glyph glyph-name="f" unicode="f" horiz-adv-x="349" 
d="M182 516v-36h105v-63h-105v-417h-81v417h-56v63h56v36q0 81 33.5 124t86.5 43q24 0 44.5 -8.5t29.5 -16.5l9 -8l-24 -51q-17 21 -44 21q-54 0 -54 -104z" />
    <glyph glyph-name="g" unicode="g" horiz-adv-x="359" 
d="M248 474h66v-502q0 -91 -34.5 -136t-90.5 -45q-55 0 -89.5 38t-34.5 103h57q0 -33 14.5 -55.5t40.5 -22.5q55 0 55 118v72q-1 -2 -2.5 -5.5t-8 -12t-14.5 -15t-21.5 -12t-28.5 -5.5q-50 0 -81 53t-31 157v58q0 218 112 218q23 0 41.5 -12.5t25.5 -25.5l8 -12zM238 216v34
q0 71 -14.5 119t-41.5 48q-26 0 -40.5 -47.5t-14.5 -119.5v-34q0 -71 14 -115t41 -44t41.5 44.5t14.5 114.5z" />
    <glyph glyph-name="h" unicode="h" horiz-adv-x="359" 
d="M210 480q48 0 76 -46t28 -141v-293h-82v267q0 150 -53 150q-52 0 -52 -150v-267h-82v698l82 21v-295q28 56 83 56z" />
    <glyph glyph-name="i" unicode="i" horiz-adv-x="180" 
d="M49 0v474h82v-474h-82zM45 624h90v-81h-90v81z" />
    <glyph glyph-name="j" unicode="j" horiz-adv-x="267" 
d="M132 624h90v-81h-90v81zM136 -39v513h81v-502q0 -96 -43.5 -138.5t-128.5 -42.5v63q91 0 91 107z" />
    <glyph glyph-name="k" unicode="k" horiz-adv-x="358" 
d="M215 316l98 -316h-79l-69 228l-38 -68v-160h-82v698l82 21v-420l93 175h84z" />
    <glyph glyph-name="l" unicode="l" horiz-adv-x="177" 
d="M45 698l82 21v-719h-82v698z" />
    <glyph glyph-name="m" unicode="m" horiz-adv-x="545" 
d="M397 480q47 0 75 -46t28 -141v-293h-81v267q0 150 -53 150q-50 0 -52 -132v-285h-82v267q0 150 -53 150q-52 0 -52 -150v-267h-82v474h66l15 -43q27 49 84 49q68 0 92 -85q27 85 95 85z" />
    <glyph glyph-name="n" unicode="n" horiz-adv-x="359" 
d="M210 480q48 0 76 -46t28 -141v-293h-82v267q0 150 -53 150q-52 0 -52 -150v-267h-82v474h66l15 -43q27 49 84 49z" />
    <glyph glyph-name="o" unicode="o" horiz-adv-x="371" 
d="M185 480q67 0 104 -59.5t37 -158.5v-58q0 -99 -36.5 -154.5t-104.5 -55.5q-67 0 -103.5 55.5t-36.5 154.5v58q0 100 36.5 159t103.5 59zM185 57q59 0 59 180q0 81 -15 130.5t-44 49.5t-43.5 -49.5t-14.5 -130.5q0 -82 14.5 -131t43.5 -49z" />
    <glyph glyph-name="p" unicode="p" horiz-adv-x="359" 
d="M202 480q112 0 112 -218v-58q0 -108 -27 -159t-85 -51q-24 0 -43 12.5t-25 25.5l-7 12v-247h-82v677h66l16 -44q3 6 8 14t24.5 22t42.5 14zM232 216v34q0 71 -14.5 119t-41.5 48t-41.5 -48t-14.5 -119v-34q0 -70 14.5 -114.5t41.5 -44.5t41.5 44.5t14.5 114.5z" />
    <glyph glyph-name="q" unicode="q" horiz-adv-x="359" 
d="M248 474h66v-677h-82v247q-1 -2 -2.5 -5.5t-8 -12t-14.5 -15t-21.5 -12t-28.5 -5.5q-58 0 -85 51t-27 159v58q0 218 112 218q23 0 41.5 -12.5t25.5 -25.5l8 -12zM238 216v34q0 71 -14.5 119t-41.5 48q-26 0 -40.5 -47.5t-14.5 -119.5v-34q0 -71 14 -115t41 -44t41.5 44.5
t14.5 114.5z" />
    <glyph glyph-name="r" unicode="r" horiz-adv-x="318" 
d="M207 480q19 0 35.5 -5t23.5 -11l7 -5l-29 -62q-19 20 -49 20q-32 0 -50 -40t-18 -110v-267h-82v474h66l14 -41q31 47 82 47z" />
    <glyph glyph-name="s" unicode="s" horiz-adv-x="349" 
d="M138 363q0 -26 26 -56.5t57 -55t57 -60.5t26 -73q0 -53 -35 -88.5t-95 -35.5q-36 0 -68 15t-46 30l-15 15l24 52q5 -5 14.5 -13.5t36 -22t50.5 -13.5q26 0 41.5 14.5t15.5 40.5q0 30 -26 62.5t-57 57t-57 60.5t-26 72q0 49 34 82.5t83 33.5q34 0 63.5 -13.5t41.5 -26.5
l12 -14l-23 -48q-30 39 -76 39q-58 0 -58 -54z" />
    <glyph glyph-name="t" unicode="t" horiz-adv-x="340" 
d="M211 480h84v-63h-84v-417h-82v417h-84v63h84v218l82 21v-239z" />
    <glyph glyph-name="u" unicode="u" horiz-adv-x="354" 
d="M227 474h82v-474h-66l-16 43q-27 -49 -83 -49q-48 0 -76 46t-28 141v293h82v-268q0 -149 52 -149q53 0 53 149v268z" />
    <glyph glyph-name="v" unicode="v" horiz-adv-x="394" 
d="M269 474h80l-123 -474h-58l-123 474h84l72 -292z" />
    <glyph glyph-name="w" unicode="w" horiz-adv-x="516" 
d="M394 474h77l-107 -474h-61l-45 277l-47 -277h-61l-105 474h83l53 -277l52 277h57l49 -277z" />
    <glyph glyph-name="x" unicode="x" horiz-adv-x="388" 
d="M234 255l109 -255h-79l-69 161l-75 -161h-75l115 244l-98 230h79l58 -135l63 135h75z" />
    <glyph glyph-name="y" unicode="y" horiz-adv-x="398" 
d="M267 474h86l-209 -677h-85l97 316l-111 361h85l70 -247z" />
    <glyph glyph-name="z" unicode="z" horiz-adv-x="312" 
d="M267 474v-63l-139 -348h139v-63h-222v63l139 348h-131v63h214z" />
    <glyph glyph-name="braceleft" unicode="{" horiz-adv-x="382" 
d="M240 -143q16 0 31 9t22 18l7 9l22 -46q-3 -6 -9.5 -15.5t-32.5 -25t-59 -15.5q-54 0 -85.5 42t-31.5 102q0 54 16 116.5t16 86.5q0 27 -14.5 47t-40.5 20h-21v63h21q26 0 40.5 20t14.5 47q0 25 -16 87.5t-16 116.5q0 60 31.5 102t85.5 42q33 0 58 -14t34 -28l9 -14
l-22 -47q-23 37 -60 37q-25 0 -39.5 -26.5t-14.5 -76.5q0 -53 16 -115t16 -93q0 -24 -11.5 -41t-22.5 -23l-12 -5q2 -1 5 -2t11 -7t14 -13t11 -19.5t5 -27.5q0 -31 -16 -93t-16 -115q0 -50 14.5 -76.5t39.5 -26.5z" />
    <glyph glyph-name="bar" unicode="|" horiz-adv-x="192" 
d="M55 677h82v-880h-82v880z" />
    <glyph glyph-name="braceright" unicode="}" horiz-adv-x="382" 
d="M301 268h21v-63h-21q-26 0 -41 -20t-15 -47q0 -24 16 -86.5t16 -116.5q0 -60 -31 -102t-86 -42q-32 0 -57 14t-34 28l-9 14l22 46q23 -36 60 -36q24 0 39 26.5t15 76.5q0 53 -16 115t-16 93q0 24 11.5 41t22.5 23l12 5q-2 1 -5 2t-11 7t-14 13t-11 19.5t-5 27.5
q0 31 16 93t16 115q0 50 -15 76.5t-39 26.5q-16 0 -31 -9.5t-22 -18.5l-7 -9l-22 47q3 6 9.5 15.5t32.5 25t58 15.5q55 0 86 -42t31 -102q0 -54 -16 -116.5t-16 -87.5q0 -27 15 -47t41 -20z" />
    <glyph glyph-name="asciitilde" unicode="~" horiz-adv-x="274" 
d="M198 607h41q0 -31 -13 -47t-45 -16q-13 0 -30 5t-29 10t-23 7.5t-17 -2.5t-6 -20h-41q0 31 13 47t45 16q13 0 29.5 -5t29 -9.5t23.5 -7.5t17 2.5t6 19.5z" />
    <glyph glyph-name="uni00A0" unicode="&#xa0;" horiz-adv-x="200" 
 />
    <glyph glyph-name="exclamdown" unicode="&#xa1;" horiz-adv-x="216" 
d="M55 474h86v-86h-86v86zM75 275h46l20 -361v-117h-86v117z" />
    <glyph glyph-name="cent" unicode="&#xa2;" horiz-adv-x="380" 
d="M236 175q16 0 31 6.5t21 12.5l7 6l24 -50q-29 -33 -91 -36v-78h-55v87q-50 21 -81.5 82.5t-31.5 150.5q0 92 30.5 153.5t82.5 81.5v86h55v-78q25 -2 48 -12.5t34 -20.5l10 -10l-24 -50q-27 32 -67 32q-44 0 -67 -49.5t-23 -132.5q0 -82 24.5 -131.5t72.5 -49.5z" />
    <glyph glyph-name="sterling" unicode="&#xa3;" horiz-adv-x="431" 
d="M285 56q19 0 40.5 8t33.5 16l12 7v-63q-44 -30 -86 -30q-21 0 -55 15t-56 15q-19 0 -50 -12t-64 -12v62q48 0 68.5 50t20.5 160q0 36 -6 66h-74v57h58q-4 11 -13.5 35t-14 36.5t-8.5 32t-4 37.5q0 68 42.5 107.5t109.5 39.5q33 0 62.5 -14.5t42.5 -28.5l13 -14l-21 -46
q-38 41 -90 41q-37 0 -58.5 -23t-21.5 -62q0 -17 4 -36.5t8.5 -32.5t14 -36.5t13.5 -35.5h128v-57h-112q6 -30 6 -66q0 -95 -42 -186q16 -2 47 -16t52 -14z" />
    <glyph glyph-name="currency" unicode="&#xa4;" horiz-adv-x="434" 
d="M337 517q0 -45 -13 -78l50 -55l-43 -38l-38 43q-33 -33 -76 -33t-76 33l-38 -43l-43 38l49 55q-13 37 -13 78t13 77l-49 55l43 38l38 -43q33 33 76 33t76 -33l38 43l43 -38l-50 -55q13 -32 13 -77zM217 415q26 0 41.5 29t15.5 73q0 43 -15.5 72t-41.5 29t-42 -29t-16 -72
q0 -44 16 -73t42 -29z" />
    <glyph glyph-name="yen" unicode="&#xa5;" horiz-adv-x="443" 
d="M383 677l-117 -330h105v-58h-111v-44h111v-57h-111v-188h-79v188h-111v57h111v44h-111v58h108l-118 330h85l81 -236l82 236h75z" />
    <glyph glyph-name="brokenbar" unicode="&#xa6;" horiz-adv-x="192" 
d="M55 677h82v-386h-82v386zM55 -203v386h82v-386h-82z" />
    <glyph glyph-name="section" unicode="&#xa7;" horiz-adv-x="403" 
d="M265 232q73 -62 73 -120q0 -55 -39.5 -86.5t-101.5 -31.5q-39 0 -72.5 12t-47.5 24l-14 13l25 54q44 -41 105 -41q66 0 66 59q0 21 -20.5 44.5t-49.5 46l-58.5 47t-50 55.5t-20.5 63q0 64 80 91q-66 59 -66 112q0 47 39.5 78t98.5 31q34 0 64 -12.5t42 -24.5l13 -13
l-24 -51q-35 39 -87 39q-32 0 -49.5 -14t-17.5 -38q0 -19 19.5 -41.5t47.5 -44l56 -44t47.5 -49t19.5 -52.5q0 -71 -78 -106zM227 263q37 29 37 68q0 16 -14 34.5t-27.5 30t-43.5 34.5q-40 -23 -40 -59q0 -18 14.5 -38t28.5 -32.5t45 -37.5z" />
    <glyph glyph-name="dieresis" unicode="&#xa8;" horiz-adv-x="262" 
d="M35 529v69h68v-69h-68zM158 598h69v-69h-69v69z" />
    <glyph glyph-name="copyright" unicode="&#xa9;" 
d="M416 484q-36 0 -59 -40t-23 -106t23.5 -106t63.5 -40q14 0 27.5 6t19.5 12l7 5l17 -35q-26 -34 -81 -34t-96 51.5t-41 140.5q0 90 40 141t97 51q24 0 44 -9.5t29 -19.5l8 -10l-17 -35q-22 28 -59 28zM405 683q143 0 243.5 -101t100.5 -244q0 -142 -100.5 -243
t-243.5 -101t-244 100.5t-101 243.5t101 244t244 101zM616 127q40 38 65 95q23 57 23 116q0 60 -23 117q-25 57 -65 95q-39 41 -95 64q-55 24 -116 24t-117 -24q-56 -23 -95 -64q-40 -38 -65 -95q-23 -57 -23 -117q0 -59 23 -116q25 -57 65 -95q41 -42 95 -65
q57 -23 117 -23q59 0 116 23q54 23 95 65z" />
    <glyph glyph-name="ordfeminine" unicode="&#xaa;" horiz-adv-x="366" 
d="M82 17v63h201v-63h-201zM176 671q62 0 103.5 -45.5t41.5 -122.5v-330h-64l-18 44q-1 -2 -2 -5.5t-7.5 -12t-14.5 -15t-23.5 -12t-34.5 -5.5q-48 0 -80 40.5t-32 105.5q0 74 56 129t138 55q0 49 -19 80t-54 31q-20 0 -37 -8t-25 -16l-7 -8l-23 48q4 5 12.5 13t35 21
t54.5 13zM239 347v98q-49 0 -80.5 -39.5t-31.5 -92.5q0 -36 15.5 -59.5t40.5 -23.5q56 0 56 117z" />
    <glyph glyph-name="guillemotleft" unicode="&#xab;" horiz-adv-x="412" 
d="M215 384l-115 -143l115 -143l-49 -39l-116 144v77l116 144zM362 384l-115 -143l115 -143l-49 -39l-117 144v77l117 144z" />
    <glyph glyph-name="logicalnot" unicode="&#xac;" horiz-adv-x="427" 
d="M60 282h307v-167h-63v104h-244v63z" />
    <glyph glyph-name="uni00AD" unicode="&#xad;" horiz-adv-x="200" 
 />
    <glyph glyph-name="registered" unicode="&#xae;" horiz-adv-x="510" 
d="M314 527q0 -17 -8 -29t-16 -16l-9 -3l32 -105h-31l-29 97h-14v-97h-33v209h49q27 0 43 -15t16 -41zM255 496q25 0 25 31q0 32 -25 32h-16v-63h16zM255 683q85 0 145 -60t60 -145t-60 -145t-145 -60t-145 60t-60 145t60 145t145 60zM375 357q50 50 50 121q0 72 -50 120
q-50 50 -120 50t-120 -50t-50 -120q0 -69 50 -121q49 -49 120 -49t120 49z" />
    <glyph glyph-name="macron" unicode="&#xaf;" horiz-adv-x="280" 
d="M35 600h210v-51h-210v51z" />
    <glyph glyph-name="degree" unicode="&#xb0;" horiz-adv-x="347" 
d="M174 683q52 0 87.5 -40t35.5 -101t-35.5 -101t-87.5 -40q-53 0 -88.5 40t-35.5 101t35.5 101t88.5 40zM174 450q32 0 50.5 26.5t18.5 65.5t-18.5 65.5t-50.5 26.5q-33 0 -51.5 -26.5t-18.5 -65.5t18.5 -65.5t51.5 -26.5z" />
    <glyph glyph-name="plusminus" unicode="&#xb1;" horiz-adv-x="366" 
d="M215 338h91v-63h-91v-92h-64v92h-91v63h91v91h64v-91zM73 71v63h220v-63h-220z" />
    <glyph glyph-name="twosuperior" unicode="&#xb2;" horiz-adv-x="246" 
d="M201 577q0 -89 -82 -207h78v-53h-126l-26 37q11 14 26.5 37.5t41.5 83t26 102.5q0 20 -7.5 34.5t-22.5 14.5q-10 0 -20.5 -6t-16.5 -12l-5 -5l-20 43q27 34 71 34q38 0 60.5 -28.5t22.5 -74.5z" />
    <glyph glyph-name="threesuperior" unicode="&#xb3;" horiz-adv-x="260" 
d="M177 506q38 -28 38 -84q0 -47 -26.5 -77.5t-70.5 -30.5q-20 0 -38 8t-26 16l-9 8l19 41q20 -20 46 -20q21 0 31.5 16t10.5 41q0 55 -28 55h-30v53h27q27 0 27 49q0 17 -10.5 31.5t-26.5 14.5q-11 0 -21.5 -5t-15.5 -10l-4 -5l-18 39q23 34 68 34q39 0 64.5 -28.5
t25.5 -71.5q0 -48 -33 -74z" />
    <glyph glyph-name="acute" unicode="&#xb4;" horiz-adv-x="194" 
d="M84 621h75l-68 -93h-56z" />
    <glyph glyph-name="mu" unicode="&#xb5;" horiz-adv-x="359" 
d="M232 474h82v-474h-66l-16 44q-1 -2 -2.5 -5.5t-7.5 -12t-13.5 -15t-19 -12t-24.5 -5.5q-11 0 -20.5 4.5t-13.5 9.5l-4 5v-216h-82v677h82v-271q0 -146 52 -146q53 0 53 146v271z" />
    <glyph glyph-name="paragraph" unicode="&#xb6;" horiz-adv-x="511" 
d="M45 482q0 89 46.5 142t122.5 53h152v-880h-85v489h-67q-76 0 -122.5 53.5t-46.5 142.5zM408 677h43v-880h-43v880z" />
    <glyph glyph-name="periodcentered" unicode="&#xb7;" horiz-adv-x="186" 
d="M50 381h86v-85h-86v85z" />
    <glyph glyph-name="cedilla" unicode="&#xb8;" horiz-adv-x="245" 
d="M128 -48q32 0 57 -21t25 -56q0 -37 -26.5 -60.5t-70.5 -23.5q-22 0 -41.5 7t-27.5 14l-9 7l13 28q26 -22 57 -22q43 0 43 50q0 20 -9.5 34.5t-27.5 14.5q-9 0 -17 -5t-12 -9l-3 -5h-33l35 74h32l-15 -31q11 4 30 4z" />
    <glyph glyph-name="onesuperior" unicode="&#xb9;" horiz-adv-x="185" 
d="M45 659l95 24v-366h-63v296l-32 -8v54z" />
    <glyph glyph-name="ordmasculine" unicode="&#xba;" horiz-adv-x="371" 
d="M185 671q67 0 104 -59t37 -164v-58q0 -105 -37 -164t-104 -59t-103.5 59t-36.5 164v58q0 105 36.5 164t103.5 59zM185 230q28 0 43.5 49.5t15.5 139.5t-15.5 139.5t-43.5 49.5q-58 0 -58 -189t58 -189zM85 17v63h201v-63h-201z" />
    <glyph glyph-name="guillemotright" unicode="&#xbb;" horiz-adv-x="412" 
d="M246 424l116 -144v-77l-116 -144l-50 39l116 143l-116 143zM215 280v-77l-116 -144l-49 39l115 143l-115 143l49 40z" />
    <glyph glyph-name="onequarter" unicode="&#xbc;" horiz-adv-x="539" 
d="M451 163h33v-53h-33v-110h-62v110h-107v46l122 204h47v-197zM389 163v76l-45 -76h45zM150 317h-63v296l-32 -8v54l95 24v-366zM331 677h67l-233 -677h-67z" />
    <glyph glyph-name="onehalf" unicode="&#xbd;" horiz-adv-x="529" 
d="M474 260q0 -91 -83 -207h79v-53h-127l-25 37l25.5 37.5t41.5 83t26 102.5q0 20 -7.5 34.5t-22.5 14.5q-10 0 -20.5 -5.5t-15.5 -11.5l-5 -6l-20 43q27 34 71 34q38 0 60.5 -28.5t22.5 -74.5zM150 317h-63v296l-32 -8v54l95 24v-366zM331 677h67l-233 -677h-67z" />
    <glyph glyph-name="threequarters" unicode="&#xbe;" horiz-adv-x="580" 
d="M225 422q0 -47 -26.5 -77.5t-70.5 -30.5q-20 0 -38 8t-26 16l-9 8l19 41q20 -20 46 -20q21 0 31.5 16t10.5 41q0 55 -28 55h-30v53h27q27 0 27 49q0 17 -10.5 31.5t-26.5 14.5q-11 0 -21.5 -5t-15.5 -10l-4 -5l-18 39q23 34 68 34q39 0 64.5 -28.5t25.5 -71.5
q0 -48 -33 -74q38 -28 38 -84zM492 163h33v-53h-33v-110h-62v110h-107v46l122 204h47v-197zM430 163v76l-45 -76h45zM373 677h67l-234 -677h-67z" />
    <glyph glyph-name="questiondown" unicode="&#xbf;" horiz-adv-x="342" 
d="M264 -113l23 -48q-4 -5 -12 -13t-35 -21.5t-55 -13.5q-58 0 -94 34t-36 89q0 36 23.5 73.5t52 64t52 60t23.5 61.5q0 20 -12.5 32.5t-32.5 12.5q-17 0 -32 -7t-22 -13l-7 -7l-21 45q3 5 10 12.5t31.5 20.5t53.5 13q46 0 77.5 -31.5t31.5 -78.5q0 -37 -23.5 -74.5
t-52 -63.5t-52 -59t-23.5 -61q0 -26 16 -43t45 -17q20 0 38 8t25 16zM227 474v-86h-85v86h85z" />
    <glyph glyph-name="Agrave" unicode="&#xc0;" horiz-adv-x="474" 
d="M267 677l152 -677h-88l-35 171h-123l-35 -171h-83l151 677h61zM186 234h97l-49 235zM219 821l48 -93h-56l-68 93h76z" />
    <glyph glyph-name="Aacute" unicode="&#xc1;" horiz-adv-x="474" 
d="M267 677l152 -677h-88l-35 171h-123l-35 -171h-83l151 677h61zM186 234h97l-49 235zM258 821h75l-68 -93h-56z" />
    <glyph glyph-name="Acircumflex" unicode="&#xc2;" horiz-adv-x="474" 
d="M267 677l152 -677h-88l-35 171h-123l-35 -171h-83l151 677h61zM186 234h97l-49 235zM265 821l82 -93h-59l-50 60l-50 -60h-60l82 93h55z" />
    <glyph glyph-name="Atilde" unicode="&#xc3;" horiz-adv-x="474" 
d="M267 677l152 -677h-88l-35 171h-123l-35 -171h-83l151 677h61zM186 234h97l-49 235zM298 807h41q0 -31 -13 -47t-45 -16q-13 0 -30 5t-29 10t-23 7.5t-17 -2.5t-6 -20h-41q0 31 13 47t45 16q13 0 29.5 -5t29 -9.5t23.5 -7.5t17 2.5t6 19.5z" />
    <glyph glyph-name="Adieresis" unicode="&#xc4;" horiz-adv-x="474" 
d="M267 677l152 -677h-88l-35 171h-123l-35 -171h-83l151 677h61zM186 234h97l-49 235zM141 729v69h68v-69h-68zM264 798h69v-69h-69v69z" />
    <glyph glyph-name="Aring" unicode="&#xc5;" horiz-adv-x="474" 
d="M267 677l152 -677h-88l-35 171h-123l-35 -171h-83l151 677h61zM186 234h97l-49 235zM238 883q33 0 53 -25t20 -63t-20 -63t-53 -25q-34 0 -54 25t-20 63t20 63t54 25zM238 747q13 0 21 13t8 35t-8 35t-21 13t-21.5 -13t-8.5 -35t8.5 -35t21.5 -13z" />
    <glyph glyph-name="AE" unicode="&#xc6;" horiz-adv-x="571" 
d="M516 610h-152v-204h115v-67h-115v-273h152v-66h-238v171h-92l-45 -171h-86l190 677h271v-67zM278 234v286l-75 -286h75z" />
    <glyph glyph-name="Ccedilla" unicode="&#xc7;" horiz-adv-x="379" 
d="M327 95l22 -47q-3 -6 -9.5 -15t-32 -24t-57.5 -15q-87 0 -141 80.5t-54 235.5v57q0 156 50.5 236t132.5 80q21 0 40 -6t31 -14.5t20.5 -17.5t12.5 -15l4 -6l-22 -47q-3 5 -9 13t-27 21.5t-44 13.5q-57 0 -86 -77.5t-29 -209.5q0 -125 34 -206t93 -81q22 0 40 11t24 22z
M236 -48q32 0 57 -21t25 -56q0 -37 -26.5 -60.5t-70.5 -23.5q-22 0 -41.5 7t-27.5 14l-9 7l13 28q26 -22 57 -22q43 0 43 50q0 20 -9.5 34.5t-27.5 14.5q-9 0 -17 -5t-12 -9l-3 -5h-33l35 74h32l-15 -31q11 4 30 4z" />
    <glyph glyph-name="Egrave" unicode="&#xc8;" horiz-adv-x="348" 
d="M293 610h-152v-204h115v-67h-115v-273h152v-66h-238v677h238v-67zM165 821l48 -93h-56l-68 93h76z" />
    <glyph glyph-name="Eacute" unicode="&#xc9;" horiz-adv-x="348" 
d="M293 610h-152v-204h115v-67h-115v-273h152v-66h-238v677h238v-67zM189 821h75l-68 -93h-56z" />
    <glyph glyph-name="Ecircumflex" unicode="&#xca;" horiz-adv-x="348" 
d="M293 610h-152v-204h115v-67h-115v-273h152v-66h-238v677h238v-67zM202 821l82 -93h-59l-50 60l-50 -60h-60l82 93h55z" />
    <glyph glyph-name="Edieresis" unicode="&#xcb;" horiz-adv-x="348" 
d="M293 610h-152v-204h115v-67h-115v-273h152v-66h-238v677h238v-67zM78 729v69h68v-69h-68zM201 798h69v-69h-69v69z" />
    <glyph glyph-name="Igrave" unicode="&#xcc;" horiz-adv-x="196" 
d="M55 677h86v-677h-86v677zM81 821l48 -93h-56l-68 93h76z" />
    <glyph glyph-name="Iacute" unicode="&#xcd;" horiz-adv-x="196" 
d="M55 677h86v-677h-86v677zM119 821h75l-68 -93h-56z" />
    <glyph glyph-name="Icircumflex" unicode="&#xce;" horiz-adv-x="196" 
d="M55 677h86v-677h-86v677zM126 821l82 -93h-59l-50 60l-50 -60h-60l82 93h55z" />
    <glyph glyph-name="Idieresis" unicode="&#xcf;" horiz-adv-x="196" 
d="M55 677h86v-677h-86v677zM2 729v69h68v-69h-68zM125 798h69v-69h-69v69z" />
    <glyph glyph-name="Eth" unicode="&#xd0;" horiz-adv-x="461" 
d="M177 677q84 0 129 -73t45 -237v-57q0 -164 -45 -237t-130 -73h-125v311h-46v67h46v299h126zM176 66q89 0 89 272t-88 272h-40v-232h64v-67h-64v-245h39z" />
    <glyph glyph-name="Ntilde" unicode="&#xd1;" horiz-adv-x="422" 
d="M284 677h83v-683h-83l-146 430v-424h-83v677h83l146 -431v431zM272 807h41q0 -31 -13 -47t-45 -16q-13 0 -30 5t-29 10t-23 7.5t-17 -2.5t-6 -20h-41q0 31 13 47t45 16q13 0 29.5 -5t29 -9.5t23.5 -7.5t17 2.5t6 19.5z" />
    <glyph glyph-name="Ograve" unicode="&#xd2;" horiz-adv-x="438" 
d="M219 683q73 0 118.5 -75.5t45.5 -240.5v-57q0 -165 -45.5 -240.5t-118.5 -75.5t-118.5 75.5t-45.5 240.5v57q0 165 45.5 240.5t118.5 75.5zM298 321v35q0 129 -21 195t-58 66q-36 0 -57 -65.5t-21 -195.5v-35q0 -130 21 -195.5t57 -65.5q37 0 58 66t21 195zM205 821
l48 -93h-56l-68 93h76z" />
    <glyph glyph-name="Oacute" unicode="&#xd3;" horiz-adv-x="438" 
d="M219 683q73 0 118.5 -75.5t45.5 -240.5v-57q0 -165 -45.5 -240.5t-118.5 -75.5t-118.5 75.5t-45.5 240.5v57q0 165 45.5 240.5t118.5 75.5zM298 321v35q0 129 -21 195t-58 66q-36 0 -57 -65.5t-21 -195.5v-35q0 -130 21 -195.5t57 -65.5q37 0 58 66t21 195zM230 821h75
l-68 -93h-56z" />
    <glyph glyph-name="Ocircumflex" unicode="&#xd4;" horiz-adv-x="438" 
d="M219 683q73 0 118.5 -75.5t45.5 -240.5v-57q0 -165 -45.5 -240.5t-118.5 -75.5t-118.5 75.5t-45.5 240.5v57q0 165 45.5 240.5t118.5 75.5zM298 321v35q0 129 -21 195t-58 66q-36 0 -57 -65.5t-21 -195.5v-35q0 -130 21 -195.5t57 -65.5q37 0 58 66t21 195zM247 821
l82 -93h-59l-50 60l-50 -60h-60l82 93h55z" />
    <glyph glyph-name="Otilde" unicode="&#xd5;" horiz-adv-x="438" 
d="M219 683q73 0 118.5 -75.5t45.5 -240.5v-57q0 -165 -45.5 -240.5t-118.5 -75.5t-118.5 75.5t-45.5 240.5v57q0 165 45.5 240.5t118.5 75.5zM298 321v35q0 129 -21 195t-58 66q-36 0 -57 -65.5t-21 -195.5v-35q0 -130 21 -195.5t57 -65.5q37 0 58 66t21 195zM280 807h41
q0 -31 -13 -47t-45 -16q-13 0 -30 5t-29 10t-23 7.5t-17 -2.5t-6 -20h-41q0 31 13 47t45 16q13 0 29.5 -5t29 -9.5t23.5 -7.5t17 2.5t6 19.5z" />
    <glyph glyph-name="Odieresis" unicode="&#xd6;" horiz-adv-x="438" 
d="M219 683q73 0 118.5 -75.5t45.5 -240.5v-57q0 -165 -45.5 -240.5t-118.5 -75.5t-118.5 75.5t-45.5 240.5v57q0 165 45.5 240.5t118.5 75.5zM298 321v35q0 129 -21 195t-58 66q-36 0 -57 -65.5t-21 -195.5v-35q0 -130 21 -195.5t57 -65.5q37 0 58 66t21 195zM123 729v69
h68v-69h-68zM246 798h69v-69h-69v69z" />
    <glyph glyph-name="multiply" unicode="&#xd7;" horiz-adv-x="350" 
d="M290 333l-79 -108l79 -109l-48 -34l-67 93l-68 -93l-47 34l79 109l-79 108l47 35l68 -93l67 93z" />
    <glyph glyph-name="Oslash" unicode="&#xd8;" horiz-adv-x="438" 
d="M325 627q58 -81 58 -260v-57q0 -165 -45.5 -240.5t-118.5 -75.5q-46 0 -81 29l-31 -100h-33l39 127q-58 81 -58 260v57q0 165 45.5 240.5t118.5 75.5q47 0 81 -30l32 100h33zM141 321q0 -93 10 -149l122 391q-21 54 -54 54q-36 0 -57 -65.5t-21 -195.5v-35zM298 321v35
q0 88 -11 149l-121 -392q19 -53 53 -53q37 0 58 66t21 195z" />
    <glyph glyph-name="Ugrave" unicode="&#xd9;" horiz-adv-x="404" 
d="M263 677h86v-465q0 -112 -40 -165t-107 -53q-68 0 -107.5 53t-39.5 165v465h86v-448q0 -91 14.5 -130t46.5 -39t46.5 39t14.5 130v448zM189 821l48 -93h-56l-68 93h76z" />
    <glyph glyph-name="Uacute" unicode="&#xda;" horiz-adv-x="404" 
d="M263 677h86v-465q0 -112 -40 -165t-107 -53q-68 0 -107.5 53t-39.5 165v465h86v-448q0 -91 14.5 -130t46.5 -39t46.5 39t14.5 130v448zM216 821h75l-68 -93h-56z" />
    <glyph glyph-name="Ucircumflex" unicode="&#xdb;" horiz-adv-x="404" 
d="M263 677h86v-465q0 -112 -40 -165t-107 -53q-68 0 -107.5 53t-39.5 165v465h86v-448q0 -91 14.5 -130t46.5 -39t46.5 39t14.5 130v448zM230 821l82 -93h-59l-50 60l-50 -60h-60l82 93h55z" />
    <glyph glyph-name="Udieresis" unicode="&#xdc;" horiz-adv-x="404" 
d="M263 677h86v-465q0 -112 -40 -165t-107 -53q-68 0 -107.5 53t-39.5 165v465h86v-448q0 -91 14.5 -130t46.5 -39t46.5 39t14.5 130v448zM106 729v69h68v-69h-68zM229 798h69v-69h-69v69z" />
    <glyph glyph-name="Yacute" unicode="&#xdd;" horiz-adv-x="460" 
d="M316 677h89l-133 -351v-326h-85v328l-132 349h92l85 -237zM240 821h75l-68 -93h-56z" />
    <glyph glyph-name="Thorn" unicode="&#xde;" horiz-adv-x="404" 
d="M192 534q71 0 114 -51t43 -145t-43 -144.5t-114 -50.5h-51v-143h-86v677h86v-143h51zM182 209q38 0 59.5 33t21.5 96q0 64 -21.5 96.5t-59.5 32.5h-41v-258h41z" />
    <glyph glyph-name="germandbls" unicode="&#xdf;" horiz-adv-x="437" 
d="M275 327q0 -25 16.5 -54t37 -52.5t37 -56t16.5 -63.5q0 -49 -28.5 -78t-79.5 -29q-28 0 -55 9t-39 18l-13 9l25 53q31 -26 66 -26q42 0 42 48q0 20 -16.5 49t-37 54.5t-37 58.5t-16.5 60q0 28 27.5 78.5t27.5 89.5q0 125 -56 125q-55 0 -55 -125v-495h-82v495
q0 90 35.5 139t101.5 49t101.5 -49t35.5 -139q0 -43 -27 -93.5t-27 -74.5z" />
    <glyph glyph-name="agrave" unicode="&#xe0;" horiz-adv-x="359" 
d="M248 474h66v-474h-64l-18 44q-1 -2 -2.5 -5.5t-8.5 -12t-14.5 -15t-21.5 -12t-29 -5.5q-58 0 -84.5 51t-26.5 159v58q0 218 111 218q23 0 42 -12.5t26 -25.5l8 -12zM238 216v34q0 71 -14.5 119t-41.5 48t-41.5 -48t-14.5 -119v-34q0 -70 14.5 -114.5t41.5 -44.5
t41.5 44.5t14.5 114.5zM182 621l48 -93h-56l-68 93h76z" />
    <glyph glyph-name="aacute" unicode="&#xe1;" horiz-adv-x="359" 
d="M248 474h66v-474h-64l-18 44q-1 -2 -2.5 -5.5t-8.5 -12t-14.5 -15t-21.5 -12t-29 -5.5q-58 0 -84.5 51t-26.5 159v58q0 218 111 218q23 0 42 -12.5t26 -25.5l8 -12zM238 216v34q0 71 -14.5 119t-41.5 48t-41.5 -48t-14.5 -119v-34q0 -70 14.5 -114.5t41.5 -44.5
t41.5 44.5t14.5 114.5zM201 621h75l-68 -93h-56z" />
    <glyph glyph-name="acircumflex" unicode="&#xe2;" horiz-adv-x="359" 
d="M248 474h66v-474h-64l-18 44q-1 -2 -2.5 -5.5t-8.5 -12t-14.5 -15t-21.5 -12t-29 -5.5q-58 0 -84.5 51t-26.5 159v58q0 218 111 218q23 0 42 -12.5t26 -25.5l8 -12zM238 216v34q0 71 -14.5 119t-41.5 48t-41.5 -48t-14.5 -119v-34q0 -70 14.5 -114.5t41.5 -44.5
t41.5 44.5t14.5 114.5zM220 621l82 -93h-59l-50 60l-50 -60h-60l82 93h55z" />
    <glyph glyph-name="atilde" unicode="&#xe3;" horiz-adv-x="359" 
d="M248 474h66v-474h-64l-18 44q-1 -2 -2.5 -5.5t-8.5 -12t-14.5 -15t-21.5 -12t-29 -5.5q-58 0 -84.5 51t-26.5 159v58q0 218 111 218q23 0 42 -12.5t26 -25.5l8 -12zM238 216v34q0 71 -14.5 119t-41.5 48t-41.5 -48t-14.5 -119v-34q0 -70 14.5 -114.5t41.5 -44.5
t41.5 44.5t14.5 114.5zM248 607h41q0 -31 -13 -47t-45 -16q-13 0 -30 5t-29 10t-23 7.5t-17 -2.5t-6 -20h-41q0 31 13 47t45 16q13 0 29.5 -5t29 -9.5t23.5 -7.5t17 2.5t6 19.5z" />
    <glyph glyph-name="adieresis" unicode="&#xe4;" horiz-adv-x="359" 
d="M248 474h66v-474h-64l-18 44q-1 -2 -2.5 -5.5t-8.5 -12t-14.5 -15t-21.5 -12t-29 -5.5q-58 0 -84.5 51t-26.5 159v58q0 218 111 218q23 0 42 -12.5t26 -25.5l8 -12zM238 216v34q0 71 -14.5 119t-41.5 48t-41.5 -48t-14.5 -119v-34q0 -70 14.5 -114.5t41.5 -44.5
t41.5 44.5t14.5 114.5zM90 529v69h68v-69h-68zM213 598h69v-69h-69v69z" />
    <glyph glyph-name="aring" unicode="&#xe5;" horiz-adv-x="359" 
d="M248 474h66v-474h-64l-18 44q-1 -2 -2.5 -5.5t-8.5 -12t-14.5 -15t-21.5 -12t-29 -5.5q-58 0 -84.5 51t-26.5 159v58q0 218 111 218q23 0 42 -12.5t26 -25.5l8 -12zM238 216v34q0 71 -14.5 119t-41.5 48t-41.5 -48t-14.5 -119v-34q0 -70 14.5 -114.5t41.5 -44.5
t41.5 44.5t14.5 114.5zM189 683q33 0 53 -25t20 -63t-20 -63t-53 -25q-34 0 -54 25t-20 63t20 63t54 25zM189 547q13 0 21 13t8 35t-8 35t-21 13t-21.5 -13t-8.5 -35t8.5 -35t21.5 -13z" />
    <glyph glyph-name="ae" unicode="&#xe6;" horiz-adv-x="543" 
d="M498 262v-43h-177q0 -162 76 -162q21 0 39.5 12t26.5 24l8 12l25 -53q-3 -6 -10.5 -16t-35 -26t-61.5 -16q-44 0 -77 24l-5 -18h-50l-18 44q-2 -6 -7.5 -14t-26.5 -22t-49 -14q-47 0 -79 38.5t-32 101.5q0 81 52 131t142 50q0 42 -18 72t-49 30q-21 0 -39.5 -8.5
t-26.5 -16.5l-9 -9l-22 49q4 5 12.5 13t36.5 21.5t59 13.5q63 0 100 -44q35 44 90 44q125 0 125 -218zM239 174v89q-54 0 -83 -34t-29 -79q0 -40 15 -66.5t41 -26.5q56 0 56 117zM321 273h105q0 144 -53 144q-52 0 -52 -144z" />
    <glyph glyph-name="ccedilla" unicode="&#xe7;" horiz-adv-x="339" 
d="M212 57q17 0 31.5 7.5t20.5 15.5l5 8l25 -52q-3 -5 -9 -12t-30.5 -18.5t-56.5 -11.5q-64 0 -108.5 60t-44.5 150v58q0 96 42.5 157t109.5 61q31 0 55.5 -12.5t33.5 -25.5l8 -12l-24 -52l-7.5 10.5t-21 17.5t-34.5 11q-39 0 -59.5 -51t-20.5 -129q0 -83 22 -131.5
t63 -48.5zM200 -48q32 0 57 -21t25 -56q0 -37 -26.5 -60.5t-70.5 -23.5q-22 0 -41.5 7t-27.5 14l-9 7l13 28q26 -22 57 -22q43 0 43 50q0 20 -9.5 34.5t-27.5 14.5q-9 0 -17 -5t-12 -9l-3 -5h-33l35 74h32l-15 -31q11 4 30 4z" />
    <glyph glyph-name="egrave" unicode="&#xe8;" horiz-adv-x="349" 
d="M304 262v-43h-177q0 -162 76 -162q21 0 39.5 12t26.5 24l8 12l25 -53q-3 -6 -10.5 -16t-35 -26t-61.5 -16q-68 0 -109 57t-41 153v58q0 100 34 159t100 59q125 0 125 -218zM127 273h105q0 144 -53 144q-52 0 -52 -144zM163 621l48 -93h-56l-68 93h76z" />
    <glyph glyph-name="eacute" unicode="&#xe9;" horiz-adv-x="349" 
d="M304 262v-43h-177q0 -162 76 -162q21 0 39.5 12t26.5 24l8 12l25 -53q-3 -6 -10.5 -16t-35 -26t-61.5 -16q-68 0 -109 57t-41 153v58q0 100 34 159t100 59q125 0 125 -218zM127 273h105q0 144 -53 144q-52 0 -52 -144zM189 621h75l-68 -93h-56z" />
    <glyph glyph-name="ecircumflex" unicode="&#xea;" horiz-adv-x="349" 
d="M304 262v-43h-177q0 -162 76 -162q21 0 39.5 12t26.5 24l8 12l25 -53q-3 -6 -10.5 -16t-35 -26t-61.5 -16q-68 0 -109 57t-41 153v58q0 100 34 159t100 59q125 0 125 -218zM127 273h105q0 144 -53 144q-52 0 -52 -144zM202 621l82 -93h-59l-50 60l-50 -60h-60l82 93h55z
" />
    <glyph glyph-name="edieresis" unicode="&#xeb;" horiz-adv-x="349" 
d="M304 262v-43h-177q0 -162 76 -162q21 0 39.5 12t26.5 24l8 12l25 -53q-3 -6 -10.5 -16t-35 -26t-61.5 -16q-68 0 -109 57t-41 153v58q0 100 34 159t100 59q125 0 125 -218zM127 273h105q0 144 -53 144q-52 0 -52 -144zM78 529v69h68v-69h-68zM201 598h69v-69h-69v69z" />
    <glyph glyph-name="igrave" unicode="&#xec;" horiz-adv-x="180" 
d="M49 0v474h82v-474h-82zM45 624h90v-81h-90v81zM74 771l48 -93h-56l-68 93h76z" />
    <glyph glyph-name="iacute" unicode="&#xed;" horiz-adv-x="180" 
d="M49 0v474h82v-474h-82zM45 624h90v-81h-90v81zM111 771h75l-68 -93h-56z" />
    <glyph glyph-name="icircumflex" unicode="&#xee;" horiz-adv-x="180" 
d="M49 0v474h82v-474h-82zM45 624h90v-81h-90v81zM118 771l82 -93h-59l-50 60l-50 -60h-60l82 93h55z" />
    <glyph glyph-name="idieresis" unicode="&#xef;" horiz-adv-x="180" 
d="M49 0v474h82v-474h-82zM45 624h90v-81h-90v81zM-6 679v69h68v-69h-68zM117 748h69v-69h-69v69z" />
    <glyph glyph-name="eth" unicode="&#xf0;" horiz-adv-x="378" 
d="M285 526q41 -109 41 -264v-58q0 -94 -37 -152t-104 -58t-103.5 58t-36.5 152v58q0 98 33.5 158t90.5 60q32 0 56 -22q-7 33 -17 61l-96 -9l-6 59l75 8q-12 19 -24.5 31.5t-18.5 15.5l-7 4l26 55q6 -2 16.5 -7t37 -30.5t47.5 -61.5l69 7l6 -60zM185 57q27 0 43 49t16 131
v25q0 57 -16 106t-43 49t-42.5 -49t-15.5 -131t15.5 -131t42.5 -49z" />
    <glyph glyph-name="ntilde" unicode="&#xf1;" horiz-adv-x="359" 
d="M210 480q48 0 76 -46t28 -141v-293h-82v267q0 150 -53 150q-52 0 -52 -150v-267h-82v474h66l15 -43q27 49 84 49zM245 607h41q0 -31 -13 -47t-45 -16q-13 0 -30 5t-29 10t-23 7.5t-17 -2.5t-6 -20h-41q0 31 13 47t45 16q13 0 29.5 -5t29 -9.5t23.5 -7.5t17 2.5t6 19.5z
" />
    <glyph glyph-name="ograve" unicode="&#xf2;" horiz-adv-x="371" 
d="M185 480q67 0 104 -59.5t37 -158.5v-58q0 -99 -36.5 -154.5t-104.5 -55.5q-67 0 -103.5 55.5t-36.5 154.5v58q0 100 36.5 159t103.5 59zM185 57q59 0 59 180q0 81 -15 130.5t-44 49.5t-43.5 -49.5t-14.5 -130.5q0 -82 14.5 -131t43.5 -49zM173 621l48 -93h-56l-68 93h76z
" />
    <glyph glyph-name="oacute" unicode="&#xf3;" horiz-adv-x="371" 
d="M185 480q67 0 104 -59.5t37 -158.5v-58q0 -99 -36.5 -154.5t-104.5 -55.5q-67 0 -103.5 55.5t-36.5 154.5v58q0 100 36.5 159t103.5 59zM185 57q59 0 59 180q0 81 -15 130.5t-44 49.5t-43.5 -49.5t-14.5 -130.5q0 -82 14.5 -131t43.5 -49zM194 621h75l-68 -93h-56z" />
    <glyph glyph-name="ocircumflex" unicode="&#xf4;" horiz-adv-x="371" 
d="M185 480q67 0 104 -59.5t37 -158.5v-58q0 -99 -36.5 -154.5t-104.5 -55.5q-67 0 -103.5 55.5t-36.5 154.5v58q0 100 36.5 159t103.5 59zM185 57q59 0 59 180q0 81 -15 130.5t-44 49.5t-43.5 -49.5t-14.5 -130.5q0 -82 14.5 -131t43.5 -49zM213 621l82 -93h-59l-50 60
l-50 -60h-60l82 93h55z" />
    <glyph glyph-name="otilde" unicode="&#xf5;" horiz-adv-x="371" 
d="M185 480q67 0 104 -59.5t37 -158.5v-58q0 -99 -36.5 -154.5t-104.5 -55.5q-67 0 -103.5 55.5t-36.5 154.5v58q0 100 36.5 159t103.5 59zM185 57q59 0 59 180q0 81 -15 130.5t-44 49.5t-43.5 -49.5t-14.5 -130.5q0 -82 14.5 -131t43.5 -49zM246 607h41q0 -31 -13 -47
t-45 -16q-13 0 -30 5t-29 10t-23 7.5t-17 -2.5t-6 -20h-41q0 31 13 47t45 16q13 0 29.5 -5t29 -9.5t23.5 -7.5t17 2.5t6 19.5z" />
    <glyph glyph-name="odieresis" unicode="&#xf6;" horiz-adv-x="371" 
d="M185 480q67 0 104 -59.5t37 -158.5v-58q0 -99 -36.5 -154.5t-104.5 -55.5q-67 0 -103.5 55.5t-36.5 154.5v58q0 100 36.5 159t103.5 59zM185 57q59 0 59 180q0 81 -15 130.5t-44 49.5t-43.5 -49.5t-14.5 -130.5q0 -82 14.5 -131t43.5 -49zM89 529v69h68v-69h-68zM212 598
h69v-69h-69v69z" />
    <glyph glyph-name="divide" unicode="&#xf7;" horiz-adv-x="441" 
d="M257 378v-73h-73v73h73zM184 71v73h73v-73h-73zM60 256h321v-63h-321v63z" />
    <glyph glyph-name="oslash" unicode="&#xf8;" horiz-adv-x="371" 
d="M267 448q59 -56 59 -186v-58q0 -99 -36.5 -154.5t-104.5 -55.5q-31 0 -55 12l-26 -83h-33l32 101q-58 53 -58 180v58q0 100 36.5 159t103.5 59q29 0 55 -13l26 83h33zM127 237q0 -68 8 -108l83 266q-14 22 -33 22q-29 0 -43.5 -49.5t-14.5 -130.5zM185 57q59 0 59 180
q0 63 -9 107l-82 -265q13 -22 32 -22z" />
    <glyph glyph-name="ugrave" unicode="&#xf9;" horiz-adv-x="354" 
d="M227 474h82v-474h-66l-16 43q-27 -49 -83 -49q-48 0 -76 46t-28 141v293h82v-268q0 -149 52 -149q53 0 53 149v268zM163 621l48 -93h-56l-68 93h76z" />
    <glyph glyph-name="uacute" unicode="&#xfa;" horiz-adv-x="354" 
d="M227 474h82v-474h-66l-16 43q-27 -49 -83 -49q-48 0 -76 46t-28 141v293h82v-268q0 -149 52 -149q53 0 53 149v268zM190 621h75l-68 -93h-56z" />
    <glyph glyph-name="ucircumflex" unicode="&#xfb;" horiz-adv-x="354" 
d="M227 474h82v-474h-66l-16 43q-27 -49 -83 -49q-48 0 -76 46t-28 141v293h82v-268q0 -149 52 -149q53 0 53 149v268zM205 621l82 -93h-59l-50 60l-50 -60h-60l82 93h55z" />
    <glyph glyph-name="udieresis" unicode="&#xfc;" horiz-adv-x="354" 
d="M227 474h82v-474h-66l-16 43q-27 -49 -83 -49q-48 0 -76 46t-28 141v293h82v-268q0 -149 52 -149q53 0 53 149v268zM81 529v69h68v-69h-68zM204 598h69v-69h-69v69z" />
    <glyph glyph-name="yacute" unicode="&#xfd;" horiz-adv-x="398" 
d="M267 474h86l-209 -677h-85l97 316l-111 361h85l70 -247zM212 621h75l-68 -93h-56z" />
    <glyph glyph-name="thorn" unicode="&#xfe;" horiz-adv-x="359" 
d="M200 480q114 0 114 -218v-58q0 -108 -27.5 -159t-86.5 -51q-22 0 -40 9t-26 19l-7 9v-234h-82v901l81 21l1 -277l8 10.5t24 17t41 10.5zM232 216v34q0 71 -14.5 119t-41.5 48t-41.5 -48t-14.5 -119v-34q0 -70 14.5 -114.5t41.5 -44.5t41.5 44.5t14.5 114.5z" />
    <glyph glyph-name="ydieresis" unicode="&#xff;" horiz-adv-x="398" 
d="M267 474h86l-209 -677h-85l97 316l-111 361h85l70 -247zM103 529v69h68v-69h-68zM226 598h69v-69h-69v69z" />
    <glyph glyph-name="Amacron" unicode="&#x100;" horiz-adv-x="474" 
d="M267 677l152 -677h-88l-35 171h-123l-35 -171h-83l151 677h61zM186 234h97l-49 235zM132 800h210v-51h-210v51z" />
    <glyph glyph-name="amacron" unicode="&#x101;" horiz-adv-x="359" 
d="M248 474h66v-474h-64l-18 44q-1 -2 -2.5 -5.5t-8.5 -12t-14.5 -15t-21.5 -12t-29 -5.5q-58 0 -84.5 51t-26.5 159v58q0 218 111 218q23 0 42 -12.5t26 -25.5l8 -12zM238 216v34q0 71 -14.5 119t-41.5 48t-41.5 -48t-14.5 -119v-34q0 -70 14.5 -114.5t41.5 -44.5
t41.5 44.5t14.5 114.5zM74 600h210v-51h-210v51z" />
    <glyph glyph-name="Abreve" unicode="&#x102;" horiz-adv-x="474" 
d="M267 677l152 -677h-88l-35 171h-123l-35 -171h-83l151 677h61zM186 234h97l-49 235zM296 818h40q0 -43 -26.5 -66t-72.5 -23t-72.5 23t-26.5 66h41q0 -38 58 -38q59 0 59 38z" />
    <glyph glyph-name="abreve" unicode="&#x103;" horiz-adv-x="359" 
d="M248 474h66v-474h-64l-18 44q-1 -2 -2.5 -5.5t-8.5 -12t-14.5 -15t-21.5 -12t-29 -5.5q-58 0 -84.5 51t-26.5 159v58q0 218 111 218q23 0 42 -12.5t26 -25.5l8 -12zM238 216v34q0 71 -14.5 119t-41.5 48t-41.5 -48t-14.5 -119v-34q0 -70 14.5 -114.5t41.5 -44.5
t41.5 44.5t14.5 114.5zM247 618h40q0 -43 -26.5 -66t-72.5 -23t-72.5 23t-26.5 66h41q0 -38 58 -38q59 0 59 38z" />
    <glyph glyph-name="Aogonek" unicode="&#x104;" horiz-adv-x="474" 
d="M267 677l152 -677h-88l-35 171h-123l-35 -171h-83l151 677h61zM186 234h97l-49 235zM377 -156l14 -28q-15 -25 -62 -25q-32 0 -56 20.5t-24 55.5q0 31 21.5 59t43.5 40l22 13h30q-6 -6 -15 -16t-24.5 -39t-15.5 -56q0 -43 31 -43q10 0 18.5 4.5t12.5 9.5z" />
    <glyph glyph-name="aogonek" unicode="&#x105;" horiz-adv-x="359" 
d="M248 474h66v-474h-64l-18 44q-1 -2 -2.5 -5.5t-8.5 -12t-14.5 -15t-21.5 -12t-29 -5.5q-58 0 -84.5 51t-26.5 159v58q0 218 111 218q23 0 42 -12.5t26 -25.5l8 -12zM238 216v34q0 71 -14.5 119t-41.5 48t-41.5 -48t-14.5 -119v-34q0 -70 14.5 -114.5t41.5 -44.5
t41.5 44.5t14.5 114.5zM292 -156l14 -28q-15 -25 -62 -25q-32 0 -56 20.5t-24 55.5q0 31 22 59t44 40l21 13h30q-6 -6 -15 -16t-24.5 -39t-15.5 -56q0 -43 31 -43q10 0 18.5 4.5t12.5 9.5z" />
    <glyph glyph-name="Cacute" unicode="&#x106;" horiz-adv-x="379" 
d="M327 95l22 -47q-3 -6 -9.5 -15t-32 -24t-57.5 -15q-87 0 -141 80.5t-54 235.5v57q0 156 50.5 236t132.5 80q21 0 40 -6t31 -14.5t20.5 -17.5t12.5 -15l4 -6l-22 -47q-3 5 -9 13t-27 21.5t-44 13.5q-57 0 -86 -77.5t-29 -209.5q0 -125 34 -206t93 -81q22 0 40 11t24 22z
M223 821h75l-68 -93h-56z" />
    <glyph glyph-name="cacute" unicode="&#x107;" horiz-adv-x="339" 
d="M212 57q17 0 31.5 7.5t20.5 15.5l5 8l25 -52q-3 -5 -9 -12t-30.5 -18.5t-56.5 -11.5q-64 0 -108.5 60t-44.5 150v58q0 96 42.5 157t109.5 61q31 0 55.5 -12.5t33.5 -25.5l8 -12l-24 -52l-7.5 10.5t-21 17.5t-34.5 11q-39 0 -59.5 -51t-20.5 -129q0 -83 22 -131.5
t63 -48.5zM173 621h75l-68 -93h-56z" />
    <glyph glyph-name="Ccaron" unicode="&#x10c;" horiz-adv-x="379" 
d="M327 95l22 -47q-3 -6 -9.5 -15t-32 -24t-57.5 -15q-87 0 -141 80.5t-54 235.5v57q0 156 50.5 236t132.5 80q21 0 40 -6t31 -14.5t20.5 -17.5t12.5 -15l4 -6l-22 -47q-3 5 -9 13t-27 21.5t-44 13.5q-57 0 -86 -77.5t-29 -209.5q0 -125 34 -206t93 -81q22 0 40 11t24 22z
M274 820h59l-82 -93h-55l-82 93h60l50 -60z" />
    <glyph glyph-name="ccaron" unicode="&#x10d;" horiz-adv-x="339" 
d="M212 57q17 0 31.5 7.5t20.5 15.5l5 8l25 -52q-3 -5 -9 -12t-30.5 -18.5t-56.5 -11.5q-64 0 -108.5 60t-44.5 150v58q0 96 42.5 157t109.5 61q31 0 55.5 -12.5t33.5 -25.5l8 -12l-24 -52l-7.5 10.5t-21 17.5t-34.5 11q-39 0 -59.5 -51t-20.5 -129q0 -83 22 -131.5
t63 -48.5zM229 620h59l-82 -93h-55l-82 93h60l50 -60z" />
    <glyph glyph-name="Dcaron" unicode="&#x10e;" horiz-adv-x="410" 
d="M181 677q84 0 129 -73t45 -237v-57q0 -164 -45 -237t-130 -73h-125v677h126zM180 66q89 0 89 272t-88 272h-40v-544h39zM235 820h59l-82 -93h-55l-82 93h60l50 -60z" />
    <glyph glyph-name="dcaron" unicode="&#x10f;" horiz-adv-x="359" 
d="M232 698l82 21v-719h-64l-18 44q-1 -2 -2.5 -5.5t-8 -12t-14.5 -15t-21.5 -12t-28.5 -5.5q-58 0 -85 51t-27 159v58q0 218 112 218q23 0 41.5 -12.5t25.5 -25.5l8 -12v268zM238 216v34q0 71 -14.5 119t-41.5 48q-26 0 -40.5 -47.5t-14.5 -119.5v-34q0 -71 14 -115t41 -44
t41.5 44.5t14.5 114.5zM359 677h76v-99l-38 -89h-38l48 89h-48v99z" />
    <glyph glyph-name="Dcroat" unicode="&#x110;" horiz-adv-x="461" 
d="M177 677q84 0 129 -73t45 -237v-57q0 -164 -45 -237t-130 -73h-125v311h-46v67h46v299h126zM176 66q89 0 89 272t-88 272h-40v-232h64v-67h-64v-245h39z" />
    <glyph glyph-name="dcroat" unicode="&#x111;" horiz-adv-x="362" 
d="M314 604h48v-63h-48v-541h-64l-18 44q-1 -2 -2.5 -5.5t-8 -12t-14.5 -15t-21.5 -12t-28.5 -5.5q-58 0 -85 51t-27 159v58q0 218 112 218q23 0 41.5 -12.5t25.5 -25.5l8 -12v111h-71v63h71v94l82 21v-115zM238 216v34q0 71 -14.5 119t-41.5 48q-26 0 -40.5 -47.5
t-14.5 -119.5v-34q0 -71 14 -115t41 -44t41.5 44.5t14.5 114.5z" />
    <glyph glyph-name="Emacron" unicode="&#x112;" horiz-adv-x="348" 
d="M293 610h-152v-204h115v-67h-115v-273h152v-66h-238v677h238v-67zM69 800h210v-51h-210v51z" />
    <glyph glyph-name="emacron" unicode="&#x113;" horiz-adv-x="349" 
d="M304 262v-43h-177q0 -162 76 -162q21 0 39.5 12t26.5 24l8 12l25 -53q-3 -6 -10.5 -16t-35 -26t-61.5 -16q-68 0 -109 57t-41 153v58q0 100 34 159t100 59q125 0 125 -218zM127 273h105q0 144 -53 144q-52 0 -52 -144zM69 600h210v-51h-210v51z" />
    <glyph glyph-name="Edotaccent" unicode="&#x116;" horiz-adv-x="348" 
d="M293 610h-152v-204h115v-67h-115v-273h152v-66h-238v677h238v-67zM134 811h81v-73h-81v73z" />
    <glyph glyph-name="edotaccent" unicode="&#x117;" horiz-adv-x="349" 
d="M304 262v-43h-177q0 -162 76 -162q21 0 39.5 12t26.5 24l8 12l25 -53q-3 -6 -10.5 -16t-35 -26t-61.5 -16q-68 0 -109 57t-41 153v58q0 100 34 159t100 59q125 0 125 -218zM127 273h105q0 144 -53 144q-52 0 -52 -144zM134 611h81v-73h-81v73z" />
    <glyph glyph-name="Eogonek" unicode="&#x118;" horiz-adv-x="348" 
d="M293 610h-152v-204h115v-67h-115v-273h152v-66h-238v677h238v-67zM301 -156l14 -28q-15 -25 -62 -25q-32 0 -56 20.5t-24 55.5q0 31 21.5 59t43.5 40l22 13h30q-6 -6 -15 -16t-24.5 -39t-15.5 -56q0 -43 31 -43q10 0 18.5 4.5t12.5 9.5z" />
    <glyph glyph-name="eogonek" unicode="&#x119;" horiz-adv-x="349" 
d="M304 262v-43h-177q0 -162 76 -162q21 0 39.5 12t26.5 24l8 12l25 -53q-3 -6 -10.5 -16t-35 -26t-61.5 -16q-68 0 -109 57t-41 153v58q0 100 34 159t100 59q125 0 125 -218zM127 273h105q0 144 -53 144q-52 0 -52 -144zM225 -156l14 -28q-15 -25 -62 -25q-32 0 -56 20.5
t-24 55.5q0 31 21.5 59t43.5 40l22 13h30q-6 -6 -15 -16t-24.5 -39t-15.5 -56q0 -43 31 -43q10 0 18.5 4.5t12.5 9.5z" />
    <glyph glyph-name="Ecaron" unicode="&#x11a;" horiz-adv-x="348" 
d="M293 610h-152v-204h115v-67h-115v-273h152v-66h-238v677h238v-67zM225 820h59l-82 -93h-55l-82 93h60l50 -60z" />
    <glyph glyph-name="ecaron" unicode="&#x11b;" horiz-adv-x="349" 
d="M304 262v-43h-177q0 -162 76 -162q21 0 39.5 12t26.5 24l8 12l25 -53q-3 -6 -10.5 -16t-35 -26t-61.5 -16q-68 0 -109 57t-41 153v58q0 100 34 159t100 59q125 0 125 -218zM127 273h105q0 144 -53 144q-52 0 -52 -144zM225 620h59l-82 -93h-55l-82 93h60l50 -60z" />
    <glyph glyph-name="Gbreve" unicode="&#x11e;" horiz-adv-x="412" 
d="M217 410h140v-294q-1 -5 -3 -13t-12 -29t-23 -37.5t-37 -29.5t-53 -13q-174 0 -174 316v57q0 153 47.5 234.5t135.5 81.5q30 0 55 -14t35 -28l10 -14l-25 -52q-1 2 -2.5 4.5t-7.5 10t-13 13t-19.5 10t-26.5 4.5q-50 0 -76.5 -68t-26.5 -193v-35q0 -261 84 -261
q19 0 32.5 15t16.5 30l4 15v223h-61v67zM283 818h40q0 -43 -26.5 -66t-72.5 -23t-72.5 23t-26.5 66h41q0 -38 58 -38q59 0 59 38z" />
    <glyph glyph-name="gbreve" unicode="&#x11f;" horiz-adv-x="359" 
d="M248 474h66v-502q0 -91 -34.5 -136t-90.5 -45q-55 0 -89.5 38t-34.5 103h57q0 -33 14.5 -55.5t40.5 -22.5q55 0 55 118v72q-1 -2 -2.5 -5.5t-8 -12t-14.5 -15t-21.5 -12t-28.5 -5.5q-50 0 -81 53t-31 157v58q0 218 112 218q23 0 41.5 -12.5t25.5 -25.5l8 -12zM238 216v34
q0 71 -14.5 119t-41.5 48q-26 0 -40.5 -47.5t-14.5 -119.5v-34q0 -71 14 -115t41 -44t41.5 44.5t14.5 114.5zM248 618h40q0 -43 -26.5 -66t-72.5 -23t-72.5 23t-26.5 66h41q0 -38 58 -38q59 0 59 38z" />
    <glyph glyph-name="uni0122" unicode="&#x122;" horiz-adv-x="412" 
d="M217 410h140v-294q-1 -5 -3 -13t-12 -29t-23 -37.5t-37 -29.5t-53 -13q-174 0 -174 316v57q0 153 47.5 234.5t135.5 81.5q30 0 55 -14t35 -28l10 -14l-25 -52q-1 2 -2.5 4.5t-7.5 10t-13 13t-19.5 10t-26.5 4.5q-50 0 -76.5 -68t-26.5 -193v-35q0 -261 84 -261
q19 0 32.5 15t16.5 30l4 15v223h-61v67zM223 -48q32 0 57 -21t25 -56q0 -37 -26.5 -60.5t-70.5 -23.5q-22 0 -41.5 7t-28.5 14l-8 7l13 28q26 -22 57 -22q43 0 43 50q0 20 -9.5 34.5t-27.5 14.5q-9 0 -17 -5t-11 -9l-4 -5h-33l35 74h32l-15 -31q11 4 30 4z" />
    <glyph glyph-name="uni0123" unicode="&#x123;" horiz-adv-x="359" 
d="M248 474h66v-502q0 -91 -34.5 -136t-90.5 -45q-55 0 -89.5 38t-34.5 103h57q0 -33 14.5 -55.5t40.5 -22.5q55 0 55 118v72q-1 -2 -2.5 -5.5t-8 -12t-14.5 -15t-21.5 -12t-28.5 -5.5q-50 0 -81 53t-31 157v58q0 218 112 218q23 0 41.5 -12.5t25.5 -25.5l8 -12zM238 216v34
q0 71 -14.5 119t-41.5 48q-26 0 -40.5 -47.5t-14.5 -119.5v-34q0 -71 14 -115t41 -44t41.5 44.5t14.5 114.5zM190 688h38l-48 -90h48v-98h-76v98z" />
    <glyph glyph-name="Imacron" unicode="&#x12a;" horiz-adv-x="196" 
d="M55 677h86v-677h-86v677zM-7 800h210v-51h-210v51z" />
    <glyph glyph-name="imacron" unicode="&#x12b;" horiz-adv-x="180" 
d="M49 0v474h82v-474h-82zM-15 600h210v-51h-210v51z" />
    <glyph glyph-name="Iogonek" unicode="&#x12e;" horiz-adv-x="196" 
d="M55 677h86v-677h-86v677zM150 -156l14 -28q-15 -25 -62 -25q-32 0 -56 20.5t-24 55.5q0 31 22 59t44 40l21 13h30q-6 -6 -15 -16t-24.5 -39t-15.5 -56q0 -43 31 -43q10 0 18.5 4.5t12.5 9.5z" />
    <glyph glyph-name="iogonek" unicode="&#x12f;" horiz-adv-x="180" 
d="M49 0v474h82v-474h-82zM45 624h90v-81h-90v81zM141 -156l14 -28q-15 -25 -62 -25q-32 0 -56 20.5t-24 55.5q0 31 21.5 59t43.5 40l22 13h30q-6 -6 -15 -16t-24.5 -39t-15.5 -56q0 -43 31 -43q10 0 18.5 4.5t12.5 9.5z" />
    <glyph glyph-name="Idotaccent" unicode="&#x130;" horiz-adv-x="196" 
d="M55 677h86v-677h-86v677zM58 811h81v-73h-81v73z" />
    <glyph glyph-name="dotlessi" unicode="&#x131;" horiz-adv-x="180" 
d="M49 0v474h82v-474h-82z" />
    <glyph glyph-name="uni0136" unicode="&#x136;" horiz-adv-x="426" 
d="M235 442l136 -442h-90l-104 338l-36 -64v-274h-86v677h86v-245l136 245h89zM330 -48q32 0 57 -21t25 -56q0 -37 -26.5 -60.5t-70.5 -23.5q-22 0 -41.5 7t-27.5 14l-9 7l13 28q26 -22 57 -22q43 0 43 50q0 20 -9.5 34.5t-27.5 14.5q-9 0 -17 -5t-12 -9l-3 -5h-33l35 74h32
l-15 -31q11 4 30 4z" />
    <glyph glyph-name="uni0137" unicode="&#x137;" horiz-adv-x="358" 
d="M215 316l98 -316h-79l-69 228l-38 -68v-160h-82v698l82 21v-420l93 175h84zM280 -48q32 0 57 -21t25 -56q0 -37 -26.5 -60.5t-70.5 -23.5q-22 0 -41.5 7t-27.5 14l-9 7l13 28q26 -22 57 -22q43 0 43 50q0 20 -9.5 34.5t-27.5 14.5q-9 0 -17 -5t-12 -9l-3 -5h-33l35 74h32
l-15 -31q11 4 30 4z" />
    <glyph glyph-name="Lacute" unicode="&#x139;" horiz-adv-x="345" 
d="M141 66h149v-66h-235v677h86v-611zM117 821h75l-68 -93h-56z" />
    <glyph glyph-name="lacute" unicode="&#x13a;" horiz-adv-x="177" 
d="M45 698l82 21v-719h-82v698zM105 821h75l-68 -93h-56z" />
    <glyph glyph-name="uni013B" unicode="&#x13b;" horiz-adv-x="345" 
d="M141 66h149v-66h-235v677h86v-611zM182 -48q32 0 57 -21t25 -56q0 -37 -26.5 -60.5t-70.5 -23.5q-22 0 -41.5 7t-27.5 14l-9 7l13 28q26 -22 57 -22q43 0 43 50q0 20 -9.5 34.5t-27.5 14.5q-9 0 -17 -5t-12 -9l-3 -5h-33l35 74h32l-15 -31q11 4 30 4z" />
    <glyph glyph-name="uni013C" unicode="&#x13c;" horiz-adv-x="177" 
d="M45 698l82 21v-719h-82v698zM92 -48q32 0 57 -21t25 -56q0 -37 -26.5 -60.5t-70.5 -23.5q-22 0 -41.5 7t-27.5 14l-9 7l13 28q26 -22 57 -22q43 0 43 50q0 20 -9.5 34.5t-27.5 14.5q-9 0 -17 -5t-12 -9l-3 -5h-33l35 74h32l-15 -31q11 4 30 4z" />
    <glyph glyph-name="Lcaron" unicode="&#x13d;" horiz-adv-x="345" 
d="M141 66h149v-66h-235v677h86v-611zM149 820h59l-82 -93h-55l-82 93h60l50 -60z" />
    <glyph glyph-name="lcaron" unicode="&#x13e;" horiz-adv-x="177" 
d="M45 698l82 21v-719h-82v698zM177 677h76v-99l-38 -89h-38l48 89h-48v99z" />
    <glyph glyph-name="Lslash" unicode="&#x141;" horiz-adv-x="374" 
d="M115 66h149v-66h-235v302l-66 -13l-13 65l79 16v307h86v-291l92 18l12 -65l-104 -20v-253z" />
    <glyph glyph-name="lslash" unicode="&#x142;" horiz-adv-x="201" 
d="M197 403l12 -65l-95 -19v-319h-81v304l-80 -16l-13 65l93 18v327l81 21v-332z" />
    <glyph glyph-name="Nacute" unicode="&#x143;" horiz-adv-x="422" 
d="M284 677h83v-683h-83l-146 430v-424h-83v677h83l146 -431v431zM207 821h75l-68 -93h-56z" />
    <glyph glyph-name="nacute" unicode="&#x144;" horiz-adv-x="359" 
d="M210 480q48 0 76 -46t28 -141v-293h-82v267q0 150 -53 150q-52 0 -52 -150v-267h-82v474h66l15 -43q27 49 84 49zM172 621h75l-68 -93h-56z" />
    <glyph glyph-name="uni0145" unicode="&#x145;" horiz-adv-x="422" 
d="M284 677h83v-683h-83l-146 430v-424h-83v677h83l146 -431v431zM332 -48q32 0 57 -21t25 -56q0 -37 -26.5 -60.5t-70.5 -23.5q-22 0 -41.5 7t-27.5 14l-9 7l13 28q26 -22 57 -22q43 0 43 50q0 20 -9.5 34.5t-27.5 14.5q-9 0 -17 -5t-12 -9l-3 -5h-33l35 74h32l-15 -31
q11 4 30 4z" />
    <glyph glyph-name="uni0146" unicode="&#x146;" horiz-adv-x="359" 
d="M210 480q48 0 76 -46t28 -141v-293h-82v267q0 150 -53 150q-52 0 -52 -150v-267h-82v474h66l15 -43q27 49 84 49zM278 -48q32 0 57 -21t25 -56q0 -37 -26.5 -60.5t-70.5 -23.5q-22 0 -41.5 7t-27.5 14l-9 7l13 28q26 -22 57 -22q43 0 43 50q0 20 -9.5 34.5t-27.5 14.5
q-9 0 -17 -5t-12 -9l-3 -5h-33l35 74h32l-15 -31q11 4 30 4z" />
    <glyph glyph-name="Ncaron" unicode="&#x147;" horiz-adv-x="422" 
d="M284 677h83v-683h-83l-146 430v-424h-83v677h83l146 -431v431zM262 820h59l-82 -93h-55l-82 93h60l50 -60z" />
    <glyph glyph-name="ncaron" unicode="&#x148;" horiz-adv-x="359" 
d="M210 480q48 0 76 -46t28 -141v-293h-82v267q0 150 -53 150q-52 0 -52 -150v-267h-82v474h66l15 -43q27 49 84 49zM235 620h59l-82 -93h-55l-82 93h60l50 -60z" />
    <glyph glyph-name="Omacron" unicode="&#x14c;" horiz-adv-x="438" 
d="M219 683q73 0 118.5 -75.5t45.5 -240.5v-57q0 -165 -45.5 -240.5t-118.5 -75.5t-118.5 75.5t-45.5 240.5v57q0 165 45.5 240.5t118.5 75.5zM298 321v35q0 129 -21 195t-58 66q-36 0 -57 -65.5t-21 -195.5v-35q0 -130 21 -195.5t57 -65.5q37 0 58 66t21 195zM114 800h210
v-51h-210v51z" />
    <glyph glyph-name="omacron" unicode="&#x14d;" horiz-adv-x="371" 
d="M185 480q67 0 104 -59.5t37 -158.5v-58q0 -99 -36.5 -154.5t-104.5 -55.5q-67 0 -103.5 55.5t-36.5 154.5v58q0 100 36.5 159t103.5 59zM185 57q59 0 59 180q0 81 -15 130.5t-44 49.5t-43.5 -49.5t-14.5 -130.5q0 -82 14.5 -131t43.5 -49zM80 600h210v-51h-210v51z" />
    <glyph glyph-name="Ohungarumlaut" unicode="&#x150;" horiz-adv-x="438" 
d="M219 683q73 0 118.5 -75.5t45.5 -240.5v-57q0 -165 -45.5 -240.5t-118.5 -75.5t-118.5 75.5t-45.5 240.5v57q0 165 45.5 240.5t118.5 75.5zM298 321v35q0 129 -21 195t-58 66q-36 0 -57 -65.5t-21 -195.5v-35q0 -130 21 -195.5t57 -65.5q37 0 58 66t21 195zM145 821h76
l-49 -93h-56zM256 821h76l-65 -93h-56z" />
    <glyph glyph-name="ohungarumlaut" unicode="&#x151;" horiz-adv-x="371" 
d="M185 480q67 0 104 -59.5t37 -158.5v-58q0 -99 -36.5 -154.5t-104.5 -55.5q-67 0 -103.5 55.5t-36.5 154.5v58q0 100 36.5 159t103.5 59zM185 57q59 0 59 180q0 81 -15 130.5t-44 49.5t-43.5 -49.5t-14.5 -130.5q0 -82 14.5 -131t43.5 -49zM120 621h76l-49 -93h-56z
M231 621h76l-65 -93h-56z" />
    <glyph glyph-name="OE" unicode="&#x152;" horiz-adv-x="590" 
d="M535 610h-152v-204h115v-67h-115v-273h152v-66h-237v52q-33 -58 -92 -58q-64 0 -107.5 79.5t-43.5 236.5v57q0 157 43.5 236.5t107.5 79.5q59 0 92 -58v52h237v-67zM304 321v35q0 118 -23 189.5t-59 71.5t-58.5 -71.5t-22.5 -189.5v-35q0 -118 22.5 -189.5t58.5 -71.5
t59 71.5t23 189.5z" />
    <glyph glyph-name="oe" unicode="&#x153;" horiz-adv-x="548" 
d="M503 262v-43h-177q0 -162 76 -162q22 0 40.5 12t26.5 24l8 12l24 -53q-3 -6 -10.5 -16t-35 -26t-61.5 -16q-65 0 -106 53q-37 -53 -103 -53q-67 0 -103.5 55.5t-36.5 154.5v58q0 100 36.5 159t103.5 59q61 0 98 -51q37 51 96 51q64 0 94 -59t30 -159zM185 57q59 0 59 180
q0 81 -15 130.5t-44 49.5t-43.5 -49.5t-14.5 -130.5q0 -82 14.5 -131t43.5 -49zM326 273h105q0 144 -52 144q-53 0 -53 -144z" />
    <glyph glyph-name="Racute" unicode="&#x154;" horiz-adv-x="402" 
d="M245 329l102 -329h-84l-98 318h-24v-318h-86v677h119q79 0 124 -43.5t45 -136.5q0 -134 -98 -168zM180 384q37 0 57.5 29t20.5 84q0 56 -20.5 84.5t-57.5 28.5h-39v-226h39zM177 821h75l-68 -93h-56z" />
    <glyph glyph-name="racute" unicode="&#x155;" horiz-adv-x="318" 
d="M207 480q19 0 35.5 -5t23.5 -11l7 -5l-29 -62q-19 20 -49 20q-32 0 -50 -40t-18 -110v-267h-82v474h66l14 -41q31 47 82 47zM155 621h75l-68 -93h-56z" />
    <glyph glyph-name="uni0156" unicode="&#x156;" horiz-adv-x="402" 
d="M245 329l102 -329h-84l-98 318h-24v-318h-86v677h119q79 0 124 -43.5t45 -136.5q0 -134 -98 -168zM180 384q37 0 57.5 29t20.5 84q0 56 -20.5 84.5t-57.5 28.5h-39v-226h39zM311 -48q32 0 57 -21t25 -56q0 -37 -26.5 -60.5t-70.5 -23.5q-22 0 -41.5 7t-28.5 14l-8 7
l13 28q26 -22 57 -22q43 0 43 50q0 20 -9.5 34.5t-27.5 14.5q-9 0 -17 -5t-11 -9l-4 -5h-33l35 74h32l-15 -31q11 4 30 4z" />
    <glyph glyph-name="uni0157" unicode="&#x157;" horiz-adv-x="318" 
d="M207 480q19 0 35.5 -5t23.5 -11l7 -5l-29 -62q-19 20 -49 20q-32 0 -50 -40t-18 -110v-267h-82v474h66l14 -41q31 47 82 47zM94 -48q32 0 57 -21t25 -56q0 -37 -26.5 -60.5t-70.5 -23.5q-22 0 -41.5 7t-27.5 14l-9 7l13 28q26 -22 57 -22q43 0 43 50q0 20 -9.5 34.5
t-27.5 14.5q-9 0 -17 -5t-12 -9l-3 -5h-33l35 74h32l-15 -31q11 4 30 4z" />
    <glyph glyph-name="Rcaron" unicode="&#x158;" horiz-adv-x="402" 
d="M245 329l102 -329h-84l-98 318h-24v-318h-86v677h119q79 0 124 -43.5t45 -136.5q0 -134 -98 -168zM180 384q37 0 57.5 29t20.5 84q0 56 -20.5 84.5t-57.5 28.5h-39v-226h39zM224 820h59l-82 -93h-55l-82 93h60l50 -60z" />
    <glyph glyph-name="rcaron" unicode="&#x159;" horiz-adv-x="318" 
d="M207 480q19 0 35.5 -5t23.5 -11l7 -5l-29 -62q-19 20 -49 20q-32 0 -50 -40t-18 -110v-267h-82v474h66l14 -41q31 47 82 47zM210 620h59l-82 -93h-55l-82 93h60l50 -60z" />
    <glyph glyph-name="Sacute" unicode="&#x15a;" horiz-adv-x="410" 
d="M156 526q0 -34 20.5 -74.5t50 -78.5l58.5 -76t49.5 -79.5t20.5 -77.5q0 -66 -41 -109t-107 -43q-40 0 -78 15t-56 30l-18 15l27 57q6 -6 16.5 -14.5t40 -22.5t55.5 -14q75 0 75 86q0 35 -31 86.5t-68 96t-68 101.5t-31 102q0 65 39 108t107 43q36 0 68 -13.5t46 -27.5
l14 -13l-24 -52q-39 39 -92 39q-34 0 -53.5 -24t-19.5 -60zM203 821h75l-68 -93h-56z" />
    <glyph glyph-name="sacute" unicode="&#x15b;" horiz-adv-x="349" 
d="M138 363q0 -26 26 -56.5t57 -55t57 -60.5t26 -73q0 -53 -35 -88.5t-95 -35.5q-36 0 -68 15t-46 30l-15 15l24 52q5 -5 14.5 -13.5t36 -22t50.5 -13.5q26 0 41.5 14.5t15.5 40.5q0 30 -26 62.5t-57 57t-57 60.5t-26 72q0 49 34 82.5t83 33.5q34 0 63.5 -13.5t41.5 -26.5
l12 -14l-23 -48q-30 39 -76 39q-58 0 -58 -54zM169 621h75l-68 -93h-56z" />
    <glyph glyph-name="uni015E" unicode="&#x15e;" horiz-adv-x="410" 
d="M156 526q0 -34 20.5 -74.5t50 -78.5l58.5 -76t49.5 -79.5t20.5 -77.5q0 -66 -41 -109t-107 -43q-40 0 -78 15t-56 30l-18 15l27 57q6 -6 16.5 -14.5t40 -22.5t55.5 -14q75 0 75 86q0 35 -31 86.5t-68 96t-68 101.5t-31 102q0 65 39 108t107 43q36 0 68 -13.5t46 -27.5
l14 -13l-24 -52q-39 39 -92 39q-34 0 -53.5 -24t-19.5 -60zM214 -48q32 0 57 -21t25 -56q0 -37 -26.5 -60.5t-70.5 -23.5q-22 0 -41.5 7t-27.5 14l-9 7l13 28q26 -22 57 -22q43 0 43 50q0 20 -9.5 34.5t-27.5 14.5q-9 0 -17 -5t-12 -9l-3 -5h-33l35 74h32l-15 -31q11 4 30 4
z" />
    <glyph glyph-name="uni015F" unicode="&#x15f;" horiz-adv-x="349" 
d="M138 363q0 -26 26 -56.5t57 -55t57 -60.5t26 -73q0 -53 -35 -88.5t-95 -35.5q-36 0 -68 15t-46 30l-15 15l24 52q5 -5 14.5 -13.5t36 -22t50.5 -13.5q26 0 41.5 14.5t15.5 40.5q0 30 -26 62.5t-57 57t-57 60.5t-26 72q0 49 34 82.5t83 33.5q34 0 63.5 -13.5t41.5 -26.5
l12 -14l-23 -48q-30 39 -76 39q-58 0 -58 -54zM199 -48q32 0 57 -21t25 -56q0 -37 -26.5 -60.5t-70.5 -23.5q-22 0 -41.5 7t-28.5 14l-8 7l13 28q26 -22 57 -22q43 0 43 50q0 20 -9.5 34.5t-27.5 14.5q-9 0 -17 -5t-11 -9l-4 -5h-33l35 74h32l-15 -31q11 4 30 4z" />
    <glyph glyph-name="Scaron" unicode="&#x160;" horiz-adv-x="410" 
d="M156 526q0 -34 20.5 -74.5t50 -78.5l58.5 -76t49.5 -79.5t20.5 -77.5q0 -66 -41 -109t-107 -43q-40 0 -78 15t-56 30l-18 15l27 57q6 -6 16.5 -14.5t40 -22.5t55.5 -14q75 0 75 86q0 35 -31 86.5t-68 96t-68 101.5t-31 102q0 65 39 108t107 43q36 0 68 -13.5t46 -27.5
l14 -13l-24 -52q-39 39 -92 39q-34 0 -53.5 -24t-19.5 -60zM255 820h59l-82 -93h-55l-82 93h60l50 -60z" />
    <glyph glyph-name="scaron" unicode="&#x161;" horiz-adv-x="349" 
d="M138 363q0 -26 26 -56.5t57 -55t57 -60.5t26 -73q0 -53 -35 -88.5t-95 -35.5q-36 0 -68 15t-46 30l-15 15l24 52q5 -5 14.5 -13.5t36 -22t50.5 -13.5q26 0 41.5 14.5t15.5 40.5q0 30 -26 62.5t-57 57t-57 60.5t-26 72q0 49 34 82.5t83 33.5q34 0 63.5 -13.5t41.5 -26.5
l12 -14l-23 -48q-30 39 -76 39q-58 0 -58 -54zM225 620h59l-82 -93h-55l-82 93h60l50 -60z" />
    <glyph glyph-name="uni0162" unicode="&#x162;" horiz-adv-x="421" 
d="M55 677h311v-67h-113v-610h-86v610h-112v67zM214 -48q32 0 57 -21t25 -56q0 -37 -26.5 -60.5t-70.5 -23.5q-22 0 -41.5 7t-27.5 14l-9 7l13 28q26 -22 57 -22q43 0 43 50q0 20 -9.5 34.5t-27.5 14.5q-9 0 -17 -5t-12 -9l-3 -5h-33l35 74h32l-15 -31q11 4 30 4z" />
    <glyph glyph-name="uni0163" unicode="&#x163;" horiz-adv-x="340" 
d="M211 480h84v-63h-84v-417h-82v417h-84v63h84v218l82 21v-239zM175 -48q32 0 57 -21t25 -56q0 -37 -26.5 -60.5t-70.5 -23.5q-22 0 -41.5 7t-28.5 14l-8 7l13 28q26 -22 57 -22q43 0 43 50q0 20 -9.5 34.5t-27.5 14.5q-9 0 -17 -5t-11 -9l-4 -5h-33l35 74h32l-15 -31
q11 4 30 4z" />
    <glyph glyph-name="Tcaron" unicode="&#x164;" horiz-adv-x="421" 
d="M55 677h311v-67h-113v-610h-86v610h-112v67zM261 820h59l-82 -93h-55l-82 93h60l50 -60z" />
    <glyph glyph-name="tcaron" unicode="&#x165;" horiz-adv-x="340" 
d="M211 480h84v-63h-84v-417h-82v417h-84v63h84v218l82 21v-239zM277 700h76v-99l-38 -89h-38l48 89h-48v99z" />
    <glyph glyph-name="Umacron" unicode="&#x16a;" horiz-adv-x="404" 
d="M263 677h86v-465q0 -112 -40 -165t-107 -53q-68 0 -107.5 53t-39.5 165v465h86v-448q0 -91 14.5 -130t46.5 -39t46.5 39t14.5 130v448zM97 800h210v-51h-210v51z" />
    <glyph glyph-name="umacron" unicode="&#x16b;" horiz-adv-x="354" 
d="M227 474h82v-474h-66l-16 43q-27 -49 -83 -49q-48 0 -76 46t-28 141v293h82v-268q0 -149 52 -149q53 0 53 149v268zM72 600h210v-51h-210v51z" />
    <glyph glyph-name="Uring" unicode="&#x16e;" horiz-adv-x="404" 
d="M263 677h86v-465q0 -112 -40 -165t-107 -53q-68 0 -107.5 53t-39.5 165v465h86v-448q0 -91 14.5 -130t46.5 -39t46.5 39t14.5 130v448zM203 883q33 0 53 -25t20 -63t-20 -63t-53 -25q-34 0 -54 25t-20 63t20 63t54 25zM203 747q13 0 21 13t8 35t-8 35t-21 13t-21.5 -13
t-8.5 -35t8.5 -35t21.5 -13z" />
    <glyph glyph-name="uring" unicode="&#x16f;" horiz-adv-x="354" 
d="M227 474h82v-474h-66l-16 43q-27 -49 -83 -49q-48 0 -76 46t-28 141v293h82v-268q0 -149 52 -149q53 0 53 149v268zM178 683q33 0 53 -25t20 -63t-20 -63t-53 -25q-34 0 -54 25t-20 63t20 63t54 25zM178 547q13 0 21 13t8 35t-8 35t-21 13t-21.5 -13t-8.5 -35t8.5 -35
t21.5 -13z" />
    <glyph glyph-name="Uhungarumlaut" unicode="&#x170;" horiz-adv-x="404" 
d="M263 677h86v-465q0 -112 -40 -165t-107 -53q-68 0 -107.5 53t-39.5 165v465h86v-448q0 -91 14.5 -130t46.5 -39t46.5 39t14.5 130v448zM133 821h76l-49 -93h-56zM244 821h76l-65 -93h-56z" />
    <glyph glyph-name="uhungarumlaut" unicode="&#x171;" horiz-adv-x="354" 
d="M227 474h82v-474h-66l-16 43q-27 -49 -83 -49q-48 0 -76 46t-28 141v293h82v-268q0 -149 52 -149q53 0 53 149v268zM102 621h76l-49 -93h-56zM213 621h76l-65 -93h-56z" />
    <glyph glyph-name="Uogonek" unicode="&#x172;" horiz-adv-x="404" 
d="M263 677h86v-465q0 -112 -40 -165t-107 -53q-68 0 -107.5 53t-39.5 165v465h86v-448q0 -91 14.5 -130t46.5 -39t46.5 39t14.5 130v448zM233 -156l14 -28q-15 -25 -62 -25q-32 0 -56 20.5t-24 55.5q0 31 21.5 59t43.5 40l22 13h30q-6 -6 -15 -16t-24.5 -39t-15.5 -56
q0 -43 31 -43q10 0 18.5 4.5t12.5 9.5z" />
    <glyph glyph-name="uogonek" unicode="&#x173;" horiz-adv-x="354" 
d="M227 474h82v-474h-66l-16 43q-27 -49 -83 -49q-48 0 -76 46t-28 141v293h82v-268q0 -149 52 -149q53 0 53 149v268zM284 -156l14 -28q-15 -25 -62 -25q-32 0 -56 20.5t-24 55.5q0 31 22 59t44 40l21 13h30q-6 -6 -15 -16t-24.5 -39t-15.5 -56q0 -43 31 -43q10 0 18.5 4.5
t12.5 9.5z" />
    <glyph glyph-name="Ydieresis" unicode="&#x178;" horiz-adv-x="460" 
d="M316 677h89l-133 -351v-326h-85v328l-132 349h92l85 -237zM134 729v69h68v-69h-68zM257 798h69v-69h-69v69z" />
    <glyph glyph-name="Zacute" unicode="&#x179;" horiz-adv-x="373" 
d="M58 677h260v-67v-5l-177 -539h177v-66h-263v66v6l177 538h-174v67zM182 821h75l-68 -93h-56z" />
    <glyph glyph-name="zacute" unicode="&#x17a;" horiz-adv-x="312" 
d="M267 474v-63l-139 -348h139v-63h-222v63l139 348h-131v63h214zM159 621h75l-68 -93h-56z" />
    <glyph glyph-name="Zdotaccent" unicode="&#x17b;" horiz-adv-x="373" 
d="M58 677h260v-67v-5l-177 -539h177v-66h-263v66v6l177 538h-174v67zM146 811h81v-73h-81v73z" />
    <glyph glyph-name="zdotaccent" unicode="&#x17c;" horiz-adv-x="312" 
d="M267 474v-63l-139 -348h139v-63h-222v63l139 348h-131v63h214zM116 611h81v-73h-81v73z" />
    <glyph glyph-name="Zcaron" unicode="&#x17d;" horiz-adv-x="373" 
d="M58 677h260v-67v-5l-177 -539h177v-66h-263v66v6l177 538h-174v67zM241 820h59l-82 -93h-55l-82 93h60l50 -60z" />
    <glyph glyph-name="zcaron" unicode="&#x17e;" horiz-adv-x="316" 
d="M267 474v-63l-139 -348h139v-63h-222v63l139 348h-131v63h214zM212 620h59l-82 -93h-55l-82 93h60l50 -60z" />
    <glyph glyph-name="florin" unicode="&#x192;" horiz-adv-x="479" 
d="M351 626q-48 0 -61 -124l-4 -42h108v-57h-114l-42 -431q-18 -181 -124 -181q-22 0 -43 7.5t-31 15.5l-10 7l22 47q22 -20 49 -20q45 0 58 124l42 431h-60v57h66l4 42q9 89 42 135t88 46q22 0 41.5 -7.5t27.5 -15.5l9 -7l-22 -47q-21 20 -46 20z" />
    <glyph glyph-name="uni0218" unicode="&#x218;" horiz-adv-x="410" 
d="M156 526q0 -34 20.5 -74.5t50 -78.5l58.5 -76t49.5 -79.5t20.5 -77.5q0 -66 -41 -109t-107 -43q-40 0 -78 15t-56 30l-18 15l27 57q6 -6 16.5 -14.5t40 -22.5t55.5 -14q75 0 75 86q0 35 -31 86.5t-68 96t-68 101.5t-31 102q0 65 39 108t107 43q36 0 68 -13.5t46 -27.5
l14 -13l-24 -52q-39 39 -92 39q-34 0 -53.5 -24t-19.5 -60zM184 -39h75l-68 -93h-56z" />
    <glyph glyph-name="uni0219" unicode="&#x219;" horiz-adv-x="349" 
d="M138 363q0 -26 26 -56.5t57 -55t57 -60.5t26 -73q0 -53 -35 -88.5t-95 -35.5q-36 0 -68 15t-46 30l-15 15l24 52q5 -5 14.5 -13.5t36 -22t50.5 -13.5q26 0 41.5 14.5t15.5 40.5q0 30 -26 62.5t-57 57t-57 60.5t-26 72q0 49 34 82.5t83 33.5q34 0 63.5 -13.5t41.5 -26.5
l12 -14l-23 -48q-30 39 -76 39q-58 0 -58 -54zM159 -39h75l-68 -93h-56z" />
    <glyph glyph-name="uni021A" unicode="&#x21a;" horiz-adv-x="421" 
d="M55 677h311v-67h-113v-610h-86v610h-112v67zM176 -39h75l-68 -93h-56z" />
    <glyph glyph-name="uni021B" unicode="&#x21b;" horiz-adv-x="340" 
d="M211 480h84v-63h-84v-417h-82v417h-84v63h84v218l82 21v-239zM133 -39h75l-68 -93h-56z" />
    <glyph glyph-name="sc.g" unicode="&#x262;" horiz-adv-x="369" 
d="M188 343h131v-238l-2.5 -12t-10 -26.5t-20 -34t-34 -26.5t-50.5 -12q-69 0 -110.5 68t-41.5 190v58q0 118 49.5 188t118.5 70q29 0 52.5 -10t32.5 -20l9 -11l-22 -47q-21 25 -61 25q-48 0 -72.5 -63.5t-24.5 -160.5q0 -98 16.5 -161t52.5 -63q14 0 24.5 12t13.5 24l3 12
v175h-54v63z" />
    <glyph glyph-name="sc.i" unicode="&#x26a;" horiz-adv-x="182" 
d="M50 562h82v-562h-82v562z" />
    <glyph glyph-name="sc.n" unicode="&#x274;" horiz-adv-x="372" 
d="M245 562h77v-568h-77l-118 334v-328h-77v562h77l118 -334v334z" />
    <glyph glyph-name="sc.r" unicode="&#x280;" horiz-adv-x="367" 
d="M317 396q0 -124 -85 -154l75 -242h-78l-71 231h-26v-231h-82v562h110q157 0 157 -166zM172 294q31 0 47.5 27.5t16.5 74.5q0 48 -16.5 75.5t-47.5 27.5h-40v-205h40z" />
    <glyph glyph-name="sc.x" unicode="&#x28e;" horiz-adv-x="433" 
d="M261 288l122 -288h-88l-81 190l-80 -190h-84l122 290l-115 272h89l73 -174l74 174h84z" />
    <glyph glyph-name="sc.y" unicode="&#x28f;" horiz-adv-x="436" 
d="M300 562h86l-128 -303v-259h-82v263l-126 299h90l80 -211z" />
    <glyph glyph-name="sc.b" unicode="&#x299;" horiz-adv-x="361" 
d="M229 292q3 -1 8.5 -4t20 -14t25 -25t19.5 -39.5t9 -54.5q0 -155 -153 -155h-108v562h113q133 0 133 -150q0 -39 -17 -69t-33 -41zM132 499v-175h27q55 0 55 85q0 37 -13 63.5t-42 26.5h-27zM167 63q32 0 47 28.5t15 72.5q0 96 -62 96h-35v-197h35z" />
    <glyph glyph-name="sc.h" unicode="&#x29c;" horiz-adv-x="373" 
d="M241 562h82v-562h-82v249h-109v-249h-82v562h82v-250h109v250z" />
    <glyph glyph-name="sc.l" unicode="&#x29f;" horiz-adv-x="317" 
d="M132 63h135v-63h-217v562h82v-499z" />
    <glyph glyph-name="circumflex" unicode="&#x2c6;" horiz-adv-x="289" 
d="M172 621l82 -93h-59l-50 60l-50 -60h-60l82 93h55z" />
    <glyph glyph-name="caron" unicode="&#x2c7;" horiz-adv-x="289" 
d="M195 620h59l-82 -93h-55l-82 93h60l50 -60z" />
    <glyph glyph-name="uni02C9" unicode="&#x2c9;" horiz-adv-x="280" 
d="M35 600h210v-51h-210v51z" />
    <glyph glyph-name="breve" unicode="&#x2d8;" horiz-adv-x="268" 
d="M193 618h40q0 -43 -26.5 -66t-72.5 -23t-72.5 23t-26.5 66h41q0 -38 58 -38q59 0 59 38z" />
    <glyph glyph-name="dotaccent" unicode="&#x2d9;" horiz-adv-x="151" 
d="M35 611h81v-73h-81v73z" />
    <glyph glyph-name="ring" unicode="&#x2da;" horiz-adv-x="217" 
d="M109 683q33 0 53 -25t20 -63t-20 -63t-53 -25q-34 0 -54 25t-20 63t20 63t54 25zM109 547q13 0 21 13t8 35t-8 35t-21 13t-21.5 -13t-8.5 -35t8.5 -35t21.5 -13z" />
    <glyph glyph-name="ogonek" unicode="&#x2db;" horiz-adv-x="212" 
d="M163 -156l14 -28q-15 -25 -62 -25q-32 0 -56 20.5t-24 55.5q0 31 21.5 59t43.5 40l22 13h30q-6 -6 -15 -16t-24.5 -39t-15.5 -56q0 -43 31 -43q10 0 18.5 4.5t12.5 9.5z" />
    <glyph glyph-name="tilde" unicode="&#x2dc;" horiz-adv-x="274" 
d="M198 607h41q0 -31 -13 -47t-45 -16q-13 0 -30 5t-29 10t-23 7.5t-17 -2.5t-6 -20h-41q0 31 13 47t45 16q13 0 29.5 -5t29 -9.5t23.5 -7.5t17 2.5t6 19.5z" />
    <glyph glyph-name="hungarumlaut" unicode="&#x2dd;" horiz-adv-x="286" 
d="M64 621h76l-49 -93h-56zM175 621h76l-65 -93h-56z" />
    <glyph glyph-name="pi" unicode="&#x3c0;" horiz-adv-x="524" 
d="M459 82l20 -44l-2.5 -5t-8.5 -10.5t-15 -13t-21.5 -10.5t-29.5 -5q-48 0 -81 40.5t-33 108.5v268h-92v-411h-82v411h-69v63h394v-63h-70v-268q0 -86 48 -86q13 0 23.5 6.5t14.5 12.5z" />
    <glyph glyph-name="sc.a" unicode="&#x1d00;" horiz-adv-x="440" 
d="M249 562l141 -562h-84l-28 124h-120l-29 -124h-79l142 562h57zM170 178h96l-48 209z" />
    <glyph glyph-name="sc.c" unicode="&#x1d04;" horiz-adv-x="368" 
d="M242 57q17 0 32.5 5.5t23.5 11.5l7 6l23 -47l-11 -10.5t-32 -17.5t-53 -11q-79 0 -130.5 68.5t-51.5 189.5v58q0 121 50 189.5t126 68.5q30 0 55.5 -11.5t36.5 -22.5l10 -12l-22 -48q-24 31 -67 31q-50 0 -78.5 -60t-28.5 -164q0 -102 31 -163t79 -61z" />
    <glyph glyph-name="sc.d" unicode="&#x1d05;" horiz-adv-x="365" 
d="M164 562q78 0 114.5 -59.5t36.5 -192.5v-58q0 -133 -36.5 -192.5t-114.5 -59.5h-114v562h114zM173 63q61 0 61 218t-61 218h-41v-436h41z" />
    <glyph glyph-name="sc.e" unicode="&#x1d07;" horiz-adv-x="309" 
d="M259 499h-127v-152h102v-63h-102v-221h127v-63h-209v562h209v-63z" />
    <glyph glyph-name="sc.j" unicode="&#x1d0a;" horiz-adv-x="318" 
d="M186 562h82v-411q0 -157 -117 -157q-27 0 -52.5 9t-36.5 18l-12 9l25 54q32 -27 67 -27q44 0 44 97v408z" />
    <glyph glyph-name="sc.k" unicode="&#x1d0b;" horiz-adv-x="381" 
d="M216 370l115 -370h-77l-85 285l-37 -67v-218h-82v562h82v-203l108 203h83z" />
    <glyph glyph-name="sc.m" unicode="&#x1d0d;" horiz-adv-x="487" 
d="M400 562l37 -562h-82l-14 359l-66 -365h-66l-62 345l-20 -339h-77l37 562h92l67 -333l65 333h89z" />
    <glyph glyph-name="sc.o" unicode="&#x1d0f;" horiz-adv-x="385" 
d="M192 568q67 0 105 -67t38 -191v-58q0 -124 -38 -191t-105 -67t-104.5 67.5t-37.5 190.5v58q0 123 37.5 190.5t104.5 67.5zM192 57q62 0 62 224t-62 224q-60 0 -60 -224t60 -224z" />
    <glyph glyph-name="sc.p" unicode="&#x1d18;" horiz-adv-x="356" 
d="M164 562q142 0 142 -169t-142 -169h-32v-224h-82v562h114zM168 288q57 0 57 105q0 106 -57 106h-36v-211h36z" />
    <glyph glyph-name="sc.t" unicode="&#x1d1b;" horiz-adv-x="359" 
d="M50 562h259v-63h-89v-499h-81v499h-89v63z" />
    <glyph glyph-name="sc.u" unicode="&#x1d1c;" horiz-adv-x="360" 
d="M229 562h81v-408q0 -73 -34 -116.5t-96 -43.5q-61 0 -95.5 43.5t-34.5 116.5v408h82v-418q0 -43 13.5 -65t34.5 -22q22 0 35.5 22t13.5 65v418z" />
    <glyph glyph-name="sc.v" unicode="&#x1d20;" horiz-adv-x="423" 
d="M293 562h80l-133 -562h-57l-133 562h85l79 -372z" />
    <glyph glyph-name="sc.w" unicode="&#x1d21;" horiz-adv-x="609" 
d="M478 562h81l-122 -562h-61l-72 375l-72 -375h-60l-122 562h85l70 -362l64 362h76l63 -362z" />
    <glyph glyph-name="sc.z" unicode="&#x1d22;" horiz-adv-x="324" 
d="M274 499l-138 -436h138v-63h-224v63l138 436h-130v63h216v-63z" />
    <glyph glyph-name="endash" unicode="&#x2013;" horiz-adv-x="403" 
d="M50 272h303v-64h-303v64z" />
    <glyph glyph-name="emdash" unicode="&#x2014;" horiz-adv-x="548" 
d="M50 272h448v-64h-448v64z" />
    <glyph glyph-name="quoteleft" unicode="&#x2018;" horiz-adv-x="146" 
d="M73 677h38l-48 -90h48v-98h-76v98z" />
    <glyph glyph-name="quoteright" unicode="&#x2019;" horiz-adv-x="146" 
d="M35 677h76v-99l-38 -89h-38l48 89h-48v99z" />
    <glyph glyph-name="quotesinglbase" unicode="&#x201a;" horiz-adv-x="166" 
d="M45 99h76v-99l-38 -90h-38l48 90h-48v99z" />
    <glyph glyph-name="quotedblleft" unicode="&#x201c;" horiz-adv-x="261" 
d="M73 677h38l-48 -90h48v-98h-76v98zM226 677l-48 -90h48v-98h-76v98l38 90h38z" />
    <glyph glyph-name="quotedblright" unicode="&#x201d;" horiz-adv-x="261" 
d="M150 677h76v-99l-38 -89h-38l48 89h-48v99zM35 578v99h76v-99l-38 -89h-38l48 89h-48z" />
    <glyph glyph-name="quotedblbase" unicode="&#x201e;" horiz-adv-x="281" 
d="M160 99h76v-99l-38 -90h-38l48 90h-48v99zM45 0v99h76v-99l-38 -90h-38l48 90h-48z" />
    <glyph glyph-name="dagger" unicode="&#x2020;" horiz-adv-x="416" 
d="M249 472h112v-63h-112v-612h-82v612h-112v63h112v205h82v-205z" />
    <glyph glyph-name="daggerdbl" unicode="&#x2021;" horiz-adv-x="416" 
d="M361 409h-112v-345h112v-63h-112v-204h-82v204h-112v63h112v345h-112v63h112v205h82v-205h112v-63z" />
    <glyph glyph-name="bullet" unicode="&#x2022;" horiz-adv-x="223" 
d="M60 390h103v-103h-103v103z" />
    <glyph glyph-name="ellipsis" unicode="&#x2026;" horiz-adv-x="528" 
d="M45 86h86v-86h-86v86zM221 86h86v-86h-86v86zM397 86h86v-86h-86v86z" />
    <glyph glyph-name="perthousand" unicode="&#x2030;" horiz-adv-x="959" 
d="M301 503q0 -84 -33 -132t-87 -48q-55 0 -88 48t-33 132t33 132t88 48q54 0 87 -48t33 -132zM181 382q25 0 41 35.5t16 85.5t-15.5 85.5t-41.5 35.5t-42 -35t-16 -86q0 -50 16 -85.5t42 -35.5zM505 353q55 0 88 -47.5t33 -131.5t-33 -132t-88 -48q-54 0 -87 48t-33 132
q0 83 33 131t87 48zM505 52q26 0 42 35.5t16 86.5q0 50 -16 85.5t-42 35.5q-25 0 -41 -35.5t-16 -85.5q0 -51 16 -86.5t41 -35.5zM778 353q55 0 88 -47.5t33 -131.5t-33 -132t-88 -48q-54 0 -87 48t-33 132q0 83 33 131t87 48zM778 52q26 0 42 35.5t16 86.5q0 50 -16 85.5
t-42 35.5q-25 0 -41 -35.5t-16 -85.5q0 -51 16 -86.5t41 -35.5zM427 677h66l-233 -677h-67z" />
    <glyph glyph-name="guilsinglleft" unicode="&#x2039;" horiz-adv-x="265" 
d="M215 384l-115 -143l115 -143l-49 -39l-116 144v77l116 144z" />
    <glyph glyph-name="guilsinglright" unicode="&#x203a;" horiz-adv-x="265" 
d="M99 424l116 -144v-77l-116 -144l-49 39l115 143l-115 143z" />
    <glyph glyph-name="fraction" unicode="&#x2044;" horiz-adv-x="81" 
d="M124 677h67l-234 -677h-67z" />
    <glyph glyph-name="Euro" unicode="&#x20ac;" horiz-adv-x="462" 
d="M379 92l23 -49q-4 -5 -12.5 -13.5t-36 -22t-57.5 -13.5q-67 0 -114.5 67t-59.5 198h-62v57h284l-27 -57h-115q8 -93 35.5 -148t69.5 -55q19 0 37 9t26 18zM356 418l-27 -57h-269v57h62q12 130 60.5 197.5t113.5 67.5q30 0 56.5 -12.5t37.5 -24.5l11 -12l-23 -50
q-26 37 -71 37q-41 0 -69 -55.5t-36 -147.5h154z" />
    <glyph glyph-name="uni20BA" unicode="&#x20ba;" horiz-adv-x="484" 
d="M345 297h79q0 -155 -74 -226t-203 -71v348l-87 -32v60l87 33v47l-87 -32v61l87 32v160h78v-131l120 44v-60l-120 -45v-47l120 44v-61l-120 -44v-303q120 41 120 223z" />
    <glyph glyph-name="uni20BD" unicode="&#x20bd;" horiz-adv-x="462" 
d="M254 340h-54v-103h146v-57h-146v-180h-79v180h-61v57h61v440h133q71 0 109.5 -42t38.5 -127q0 -84 -38.5 -126t-109.5 -42zM200 615v-213h52q71 0 71 106q0 107 -71 107h-52z" />
    <glyph glyph-name="Bitcoin" unicode="&#x20bf;" horiz-adv-x="464" 
d="M308 357q4 -1 10.5 -3.5t23 -13t29 -24t23 -38.5t10.5 -55q0 -112 -106 -140v-89h-57v83h-35v-83h-57v83h-89v62h67v399h-67v62h89v83h57v-83h35v83h57v-91q84 -24 84 -122q0 -24 -7.5 -44t-18.5 -32t-22 -21t-18 -13zM206 538v-158h37q26 0 43 22t17 57t-17 57t-43 22
h-37zM248 139q35 0 56 24t21 66t-21 66t-56 24h-42v-180h42z" />
    <glyph glyph-name="uni2113" unicode="&#x2113;" horiz-adv-x="377" 
d="M250 57q13 0 25 5.5t17 11.5l6 6l20 -44q-2 -5 -7 -12t-24.5 -18.5t-44.5 -11.5q-53 0 -85 42.5t-32 115.5v24l-56 -39l-24 51q36 22 80 61v259q0 86 28.5 130.5t77.5 44.5q101 0 101 -175q0 -128 -126 -258v-83q0 -110 44 -110zM238 620q-32 0 -32 -112v-170
q63 86 63 170q0 112 -31 112z" />
    <glyph glyph-name="Sound" unicode="&#x2117;" 
d="M412 527q107 0 107 -108t-107 -108h-21v-161h-60v377h81zM412 357q23 0 35.5 17t12.5 45t-12.5 45t-35.5 17h-21v-124h21zM405 683q143 0 243.5 -101t100.5 -244q0 -142 -100.5 -243t-243.5 -101t-244 100.5t-101 243.5t101 244t244 101zM616 127q40 38 65 95
q23 57 23 116q0 60 -23 117q-25 57 -65 95q-39 41 -95 64q-55 24 -116 24t-117 -24q-56 -23 -95 -64q-40 -38 -65 -95q-23 -57 -23 -117q0 -59 23 -116q25 -57 65 -95q41 -42 95 -65q57 -23 117 -23q59 0 116 23q54 23 95 65z" />
    <glyph glyph-name="trademark" unicode="&#x2122;" horiz-adv-x="504" 
d="M60 643v34h163v-34h-59v-243h-45v243h-59zM417 677l27 -277h-44l-15 175l-34 -179h-20l-34 179l-17 -175h-38l27 277h43l31 -154l30 154h44z" />
    <glyph glyph-name="uni2126" unicode="&#x2126;" horiz-adv-x="538" 
d="M488 419q0 -106 -33.5 -205.5t-84.5 -147.5h109v-66h-176v66l11 13.5t24 41.5t30 71t24 101t11 133q0 91 -37 141t-97 50t-96.5 -50t-36.5 -141q0 -70 10 -132.5t25 -102.5t29.5 -69.5t24.5 -42.5l10 -13v-66h-176v66h109q-50 49 -84 148.5t-34 204.5q0 124 59 194
t160 70t160 -70t59 -194z" />
    <glyph glyph-name="estimated" unicode="&#x212e;" horiz-adv-x="674" 
d="M337 34q38 0 73.5 10.5t59 26t41.5 30.5t26 25l8 11l25 -22q-3 -5 -9 -12.5t-27.5 -27.5t-46 -35t-65.5 -27.5t-85 -12.5q-123 0 -205 99.5t-82 239.5q0 144 81.5 241.5t205.5 97.5q125 0 206 -92.5t81 -235.5h-497v-183q33 -61 87 -97t123 -36zM127 514v-130h420v137
q-33 57 -87 90t-123 33t-123 -35t-87 -95z" />
    <glyph glyph-name="oneseventh" unicode="&#x2150;" horiz-adv-x="548" 
d="M330 360h163v-48q-17 -25 -39 -87q-37 -104 -37 -215v-10h-62v10q0 117 38 227q10 28 30 68h-93v55zM150 317h-63v296l-32 -8v54l95 24v-366zM331 677h67l-233 -677h-67z" />
    <glyph glyph-name="oneninth" unicode="&#x2151;" horiz-adv-x="537" 
d="M460 325q22 -38 22 -106q0 -48 -11.5 -89.5t-28 -66.5t-33 -43t-27.5 -25l-12 -7l-23 49q39 21 62 69q-9 -3 -18 -3q-41 0 -64 37q-21 33 -21 93t23 94q23 36 65 36q43 0 66 -38zM394 155q27 0 27 78t-27 78q-26 0 -26 -78t26 -78zM150 317h-63v296l-32 -8v54l95 24v-366
zM331 677h67l-233 -677h-67z" />
    <glyph glyph-name="onetenth" unicode="&#x2152;" horiz-adv-x="693" 
d="M615 316q23 -45 23 -136t-23 -136q-25 -47 -67 -47q-43 0 -68 47q-23 48 -23 136t23 136q25 47 68 47q42 0 67 -47zM548 50q12 0 20 35t8 95t-8 95t-20 35q-29 0 -29 -130t29 -130zM318 288v54l95 24v-366h-63v296zM150 317h-63v296l-32 -8v54l95 24v-366zM331 677h67
l-233 -677h-67z" />
    <glyph glyph-name="onethird" unicode="&#x2153;" horiz-adv-x="531" 
d="M150 317h-63v296l-32 -8v54l95 24v-366zM331 677h67l-233 -677h-67zM438 189q38 -29 38 -84q0 -47 -26.5 -77.5t-70.5 -30.5q-20 0 -38.5 8t-26.5 16l-8 8l19 41q20 -20 46 -20q21 0 31.5 16t10.5 41q0 55 -28 55h-30v53h27q27 0 27 49q0 18 -10.5 32t-26.5 14
q-11 0 -21.5 -5t-14.5 -10l-5 -5l-18 39q24 34 69 34q39 0 64 -28.5t25 -70.5q0 -49 -33 -75z" />
    <glyph glyph-name="twothirds" unicode="&#x2154;" horiz-adv-x="570" 
d="M207 370v-53h-126l-26 37q11 14 26.5 37.5t41.5 83t26 102.5q0 20 -7.5 34.5t-22.5 14.5q-10 0 -20.5 -6t-16.5 -12l-5 -5l-20 43q27 34 71 34q38 0 60.5 -28.5t22.5 -74.5q0 -89 -82 -207h78zM477 189q38 -29 38 -84q0 -47 -26.5 -77.5t-70.5 -30.5q-20 0 -38 8t-26 16
l-9 8l19 41q20 -20 46 -20q21 0 32 16t11 41q0 55 -29 55h-30v53h27q27 0 27 49q0 18 -10 32t-27 14q-11 0 -21.5 -5t-15.5 -10l-4 -5l-18 39q24 34 69 34q39 0 64 -28.5t25 -70.5q0 -51 -33 -75zM371 677h66l-233 -677h-67z" />
    <glyph glyph-name="onefifth" unicode="&#x2155;" horiz-adv-x="531" 
d="M391 235q39 -1 62 -32.5t23 -86.5q0 -54 -27 -87q-24 -32 -64 -32q-32 0 -72 30l22 46q23 -23 45 -23q33 0 33 66q0 26 -9 46t-25 20q-8 0 -25 -14l-27 29l9 163h121v-53h-62zM150 317h-63v296l-32 -8v54l95 24v-366zM331 677h67l-233 -677h-67z" />
    <glyph glyph-name="twofifths" unicode="&#x2156;" horiz-adv-x="567" 
d="M207 370v-53h-126l-26 37q11 14 26.5 37.5t41.5 83t26 102.5q0 20 -7.5 34.5t-22.5 14.5q-10 0 -20.5 -6t-16.5 -12l-5 -5l-20 43q27 34 71 34q38 0 60.5 -28.5t22.5 -74.5q0 -89 -82 -207h78zM428 235q39 -1 61.5 -32.5t22.5 -86.5q0 -56 -27 -87q-24 -32 -64 -32
q-36 0 -71 30l21 46q23 -23 45 -23q33 0 33 66q0 27 -8.5 46.5t-25.5 19.5q-8 0 -25 -14l-27 29l9 163h122v-53h-63zM368 677h67l-234 -677h-67z" />
    <glyph glyph-name="threefifths" unicode="&#x2157;" horiz-adv-x="570" 
d="M225 422q0 -47 -26.5 -77.5t-70.5 -30.5q-20 0 -38 8t-26 16l-9 8l19 41q20 -20 46 -20q21 0 31.5 16t10.5 41q0 55 -28 55h-30v53h27q27 0 27 49q0 17 -10.5 31.5t-26.5 14.5q-11 0 -21.5 -5t-15.5 -10l-4 -5l-18 39q23 34 68 34q39 0 64.5 -28.5t25.5 -71.5
q0 -48 -33 -74q38 -28 38 -84zM430 235q39 -1 62 -32.5t23 -86.5q0 -54 -27 -87q-24 -32 -64 -32q-32 0 -72 30l22 46q23 -23 45 -23q33 0 33 66q0 26 -9 46t-25 20q-8 0 -25 -14l-27 29l9 163h121v-53h-62zM371 677h66l-233 -677h-67z" />
    <glyph glyph-name="fourfifths" unicode="&#x2158;" horiz-adv-x="596" 
d="M224 317h-62v110h-107v46l122 204h47v-197h33v-53h-33v-110zM117 480h45v75zM457 235q39 -1 61.5 -32.5t22.5 -86.5t-26 -87q-24 -32 -64 -32q-32 0 -72 30l22 46q23 -23 44 -23q34 0 34 66q0 26 -9 46t-25 20q-10 0 -25 -14l-27 29l9 163h121v-53h-62zM397 677h67
l-234 -677h-66z" />
    <glyph glyph-name="onesixth" unicode="&#x2159;" horiz-adv-x="518" 
d="M441 220q22 -36 22 -93t-23 -94q-23 -36 -62 -36q-43 0 -66 38q-24 39 -24 106q0 48 11.5 90t28 67t33 43.5t27.5 25.5l12 7l23 -50q-34 -27 -56 -69q8 2 14 2q37 0 60 -37zM375 49q27 0 27 78t-27 78q-11 0 -18.5 -20.5t-7.5 -57.5t7.5 -57.5t18.5 -20.5zM150 317h-63
v296l-32 -8v54l95 24v-366zM331 677h67l-233 -677h-67z" />
    <glyph glyph-name="fivesixths" unicode="&#x215a;" horiz-adv-x="538" 
d="M461 220q22 -34 22 -93q0 -57 -23 -94q-23 -36 -62 -36q-42 0 -66 38q-24 39 -24 106q0 48 11.5 90t28 67t33 43.5t27.5 25.5l12 7l24 -50q-34 -27 -57 -69q8 2 14 2q37 0 60 -37zM396 49q11 0 18.5 20.5t7.5 57.5t-7.5 57.5t-18.5 20.5q-27 0 -27 -78t27 -78zM191 346
q-26 -32 -64 -32q-37 0 -72 30l22 46q23 -23 44 -23q34 0 34 66q0 26 -9 46t-26 20q-8 0 -25 -14l-26 29l8 163h122v-53h-62l-4 -72q39 -1 61.5 -33t22.5 -86q0 -55 -26 -87zM352 677h67l-234 -677h-67z" />
    <glyph glyph-name="oneeigth" unicode="&#x215b;" horiz-adv-x="548" 
d="M463 191q30 -28 30 -86q0 -52 -25 -80q-24 -28 -65 -28q-40 0 -65 28q-25 30 -25 80q0 56 30 86q-25 28 -25 74q0 42 23 70t62 28t62 -28t23 -70q0 -46 -25 -74zM403 310q-22 0 -22 -47t22 -47q23 0 23 47t-23 47zM403 50q13 0 20.5 17.5t7.5 41.5q0 23 -8 38.5t-20 15.5
t-20 -15.5t-8 -38.5q0 -24 7.5 -41.5t20.5 -17.5zM150 317h-63v296l-32 -8v54l95 24v-366zM331 677h67l-233 -677h-67z" />
    <glyph glyph-name="threeeigths" unicode="&#x215c;" horiz-adv-x="587" 
d="M225 422q0 -47 -26.5 -77.5t-70.5 -30.5q-20 0 -38 8t-26 16l-9 8l19 41q20 -20 46 -20q21 0 31.5 16t10.5 41q0 55 -28 55h-30v53h27q27 0 27 49q0 17 -10.5 31.5t-26.5 14.5q-11 0 -21.5 -5t-15.5 -10l-4 -5l-18 39q23 34 68 34q39 0 64.5 -28.5t25.5 -71.5
q0 -48 -33 -74q38 -28 38 -84zM501 191q31 -29 31 -86q0 -51 -26 -80q-24 -28 -65 -28q-40 0 -64 28q-26 29 -26 80q0 56 30 86q-25 28 -25 74q0 42 23 70q25 28 62 28q39 0 62 -28t23 -70q0 -46 -25 -74zM441 310q-22 0 -22 -47t22 -47q23 0 23 47t-23 47zM441 50
q28 0 28 59q0 23 -8 38.5t-20 15.5q-11 0 -19.5 -15.5t-8.5 -38.5q0 -24 7.5 -41.5t20.5 -17.5zM370 677h67l-234 -677h-67z" />
    <glyph glyph-name="fiveeigths" unicode="&#x215d;" horiz-adv-x="571" 
d="M191 346q-26 -32 -64 -32q-37 0 -72 30l22 46q23 -23 44 -23q34 0 34 66q0 26 -9 46t-26 20q-8 0 -25 -14l-26 29l8 163h122v-53h-62l-4 -72q39 -1 61.5 -33t22.5 -86q0 -55 -26 -87zM486 191q30 -30 30 -86q0 -51 -26 -80q-24 -28 -64 -28q-41 0 -65 28q-26 29 -26 80
q0 56 30 86q-24 27 -24 74q0 42 22 70q25 28 63 28q37 0 62 -28q22 -26 22 -70q0 -47 -24 -74zM426 310q-23 0 -23 -47t23 -47q22 0 22 47t-22 47zM426 50q27 0 27 59q0 23 -8 38.5t-19 15.5q-12 0 -20 -15.5t-8 -38.5q0 -59 28 -59zM354 677h67l-234 -677h-67z" />
    <glyph glyph-name="seveneigths" unicode="&#x215e;" horiz-adv-x="540" 
d="M80 327q0 117 38 227q10 28 30 68h-93v55h163v-48q-17 -25 -39 -87q-37 -104 -37 -215v-10h-62v10zM454 191q31 -29 31 -86q0 -51 -26 -80q-24 -28 -65 -28q-40 0 -64 28q-26 29 -26 80q0 56 30 86q-25 28 -25 74q0 42 23 70q25 28 62 28q39 0 62 -28t23 -70
q0 -46 -25 -74zM394 310q-22 0 -22 -47t22 -47q23 0 23 47t-23 47zM394 50q13 0 20.5 17.5t7.5 41.5q0 23 -8 38.5t-20 15.5q-11 0 -19.5 -15.5t-8.5 -38.5q0 -24 7.5 -41.5t20.5 -17.5zM323 677h66l-233 -677h-67z" />
    <glyph glyph-name="numeratorone" unicode="&#x215f;" horiz-adv-x="453" 
d="M150 317h-63v296l-32 -8v54l95 24v-366zM331 677h67l-233 -677h-67z" />
    <glyph glyph-name="zerothirds" unicode="&#x2189;" horiz-adv-x="563" 
d="M213 361q-25 -47 -67 -47q-43 0 -68 47q-23 48 -23 136q0 87 23 135q24 48 68 48q43 0 67 -48q23 -48 23 -135q0 -88 -23 -136zM117 497q0 -130 29 -130q12 0 20 35t8 95t-8 95t-20 35q-13 0 -21 -35t-8 -95zM471 189q37 -37 37 -84t-26 -77.5t-70 -30.5q-20 0 -38.5 8
t-26.5 16l-8 8l19 41q19 -20 45 -20q21 0 32 16t11 41q0 55 -29 55h-30v53h27q27 0 27 49q0 18 -10 32t-26 14q-11 0 -21.5 -5t-15.5 -10l-4 -5l-19 39q24 34 69 34q39 0 64.5 -28.5t25.5 -70.5q0 -49 -33 -75zM364 677h67l-234 -677h-67z" />
    <glyph glyph-name="ArrowL" unicode="&#x2190;" horiz-adv-x="478" 
d="M418 372v-67h-240l92 -160h-99l-111 193l111 194h99l-92 -160h240z" />
    <glyph glyph-name="ArrowU" unicode="&#x2191;" horiz-adv-x="506" 
d="M253 518l193 -112v-99l-160 93v-241h-66v241l-160 -93v99z" />
    <glyph glyph-name="ArrowR" unicode="&#x2192;" horiz-adv-x="478" 
d="M307 532l111 -194l-111 -193h-99l92 160h-240v67h240l-92 160h99z" />
    <glyph glyph-name="ArrowD" unicode="&#x2193;" horiz-adv-x="506" 
d="M286 277l160 93v-99l-193 -112l-193 112v99l160 -93v241h66v-241z" />
    <glyph glyph-name="ArrowNW" unicode="&#x2196;" horiz-adv-x="463" 
d="M403 453l-178 -48l170 -170l-47 -47l-170 170l-48 -178l-70 70l58 215l215 58z" />
    <glyph glyph-name="ArrowNE" unicode="&#x2197;" horiz-adv-x="463" 
d="M345 465l58 -215l-70 -70l-48 178l-170 -170l-47 47l170 170l-178 48l70 70z" />
    <glyph glyph-name="ArrowSE" unicode="&#x2198;" horiz-adv-x="463" 
d="M333 497l70 -70l-58 -215l-215 -58l-70 70l178 48l-170 170l47 47l170 -170z" />
    <glyph glyph-name="ArrowSW" unicode="&#x2199;" horiz-adv-x="463" 
d="M225 272l178 -48l-70 -70l-215 58l-58 215l70 70l48 -178l170 170l47 -47z" />
    <glyph glyph-name="WhiteArrowL" unicode="&#x21e6;" 
d="M405 683q143 0 243.5 -101t100.5 -244q0 -142 -100.5 -243t-243.5 -101t-244 100.5t-101 243.5t101 244t244 101zM616 127q40 38 65 95q23 57 23 116q0 60 -23 117q-25 57 -65 95q-39 41 -95 64q-55 24 -116 24t-117 -24q-56 -23 -95 -64q-40 -38 -65 -95
q-23 -57 -23 -117q0 -59 23 -116q25 -57 65 -95q41 -42 95 -65q57 -23 117 -23q59 0 116 23q54 23 95 65zM436 532l-93 -160h241v-67h-241l93 -160h-99l-112 193l112 194h99z" />
    <glyph glyph-name="WhiteArrowUp" unicode="&#x21e7;" 
d="M405 683q143 0 243.5 -101t100.5 -244q0 -142 -100.5 -243t-243.5 -101t-244 100.5t-101 243.5t101 244t244 101zM616 127q40 38 65 95q23 57 23 116q0 60 -23 117q-25 57 -65 95q-39 41 -95 64q-55 24 -116 24t-117 -24q-56 -23 -95 -64q-40 -38 -65 -95
q-23 -57 -23 -117q0 -59 23 -116q25 -57 65 -95q41 -42 95 -65q57 -23 117 -23q59 0 116 23q54 23 95 65zM211 406l194 112l193 -112v-99l-160 93v-241h-67v241l-160 -93v99z" />
    <glyph glyph-name="WhiteArrowR" unicode="&#x21e8;" 
d="M405 683q143 0 243.5 -101t100.5 -244q0 -142 -100.5 -243t-243.5 -101t-244 100.5t-101 243.5t101 244t244 101zM616 127q40 38 65 95q23 57 23 116q0 60 -23 117q-25 57 -65 95q-39 41 -95 64q-55 24 -116 24t-117 -24q-56 -23 -95 -64q-40 -38 -65 -95
q-23 -57 -23 -117q0 -59 23 -116q25 -57 65 -95q41 -42 95 -65q57 -23 117 -23q59 0 116 23q54 23 95 65zM373 532h99l112 -194l-112 -193h-99l93 160h-241v67h241z" />
    <glyph glyph-name="WhiteArrowD" unicode="&#x21e9;" 
d="M405 683q143 0 243.5 -101t100.5 -244q0 -142 -100.5 -243t-243.5 -101t-244 100.5t-101 243.5t101 244t244 101zM616 127q40 38 65 95q23 57 23 116q0 60 -23 117q-25 57 -65 95q-39 41 -95 64q-55 24 -116 24t-117 -24q-56 -23 -95 -64q-40 -38 -65 -95
q-23 -57 -23 -117q0 -59 23 -116q25 -57 65 -95q41 -42 95 -65q57 -23 117 -23q59 0 116 23q54 23 95 65zM438 518v-241l160 93v-99l-193 -112l-194 112v99l160 -93v241h67z" />
    <glyph glyph-name="partialdiff" unicode="&#x2202;" horiz-adv-x="388" 
d="M153 677q8 -4 20.5 -12.5t45.5 -39.5t58 -68t45.5 -100t20.5 -134q0 -179 -36.5 -254t-122.5 -75q-62 0 -100.5 41t-38.5 108q0 94 63 158.5t151 68.5q-5 48 -21 90.5t-35 69.5t-37 47t-30 29l-12 8zM186 57q38 0 56.5 60.5t18.5 200.5q-61 -4 -97.5 -54t-36.5 -118
q0 -41 16 -65t43 -24z" />
    <glyph glyph-name="uni2206" unicode="&#x2206;" horiz-adv-x="439" 
d="M245 474l149 -411v-63h-349v63l150 411h50zM128 63h183l-91 260z" />
    <glyph glyph-name="product" unicode="&#x220f;" horiz-adv-x="385" 
d="M45 677h295v-677h-86v610h-123v-610h-86v677z" />
    <glyph glyph-name="summation" unicode="&#x2211;" horiz-adv-x="376" 
d="M331 677v-67h-193l126 -272l-126 -272h193v-66h-286v66l126 272l-126 272v67h286z" />
    <glyph glyph-name="minus" unicode="&#x2212;" horiz-adv-x="360" 
d="M60 272h240v-64h-240v64z" />
    <glyph glyph-name="uni2215" unicode="&#x2215;" horiz-adv-x="421" 
d="M294 677h67l-234 -677h-67z" />
    <glyph glyph-name="uni2219" unicode="&#x2219;" horiz-adv-x="223" 
d="M60 390h103v-103h-103v103z" />
    <glyph glyph-name="radical" unicode="&#x221a;" horiz-adv-x="549" 
d="M379 677h120v-67h-70l-134 -610h-72l-118 314h-55v66h122l88 -243z" />
    <glyph glyph-name="infinity" unicode="&#x221e;" horiz-adv-x="624" 
d="M435 494q58 0 98.5 -43t40.5 -113q0 -69 -41 -112.5t-98 -43.5q-78 0 -123 64q-45 -64 -122 -64q-58 0 -99 43.5t-41 112.5q0 70 41 113t99 43q78 0 122 -63q44 63 123 63zM201 246q31 0 50.5 24.5t19.5 67.5t-19.5 68t-50.5 25t-50 -25t-19 -68t19 -67.5t50 -24.5z
M423 246q31 0 50.5 24.5t19.5 67.5t-19.5 68t-50.5 25t-50.5 -25t-19.5 -68t19.5 -67.5t50.5 -24.5z" />
    <glyph glyph-name="integral" unicode="&#x222b;" horiz-adv-x="489" 
d="M361 683q22 0 41.5 -7.5t27.5 -15.5l9 -7l-22 -47q-21 20 -46 20q-48 0 -61 -124l-52 -530q-18 -181 -124 -181q-22 0 -43 7.5t-31 15.5l-10 7l22 47q22 -20 49 -20q45 0 58 124l52 530q9 89 42 135t88 46z" />
    <glyph glyph-name="approxequal" unicode="&#x2248;" horiz-adv-x="402" 
d="M144 195q22 0 57 -16t57 -16q20 0 41 8t32 16l11 8v-63q-39 -32 -84 -32q-22 0 -57 16t-57 16q-20 0 -41 -8t-32 -16l-11 -8v63q39 32 84 32zM258 268q20 0 41 8t32 16l11 8v-63q-39 -32 -84 -32q-22 0 -57 16t-57 16q-20 0 -41 -8t-32 -16l-11 -8v63q39 32 84 32
q22 0 57 -16t57 -16z" />
    <glyph glyph-name="notequal" unicode="&#x2260;" horiz-adv-x="360" 
d="M300 223h-96l-16 -49h112v-64h-131l-35 -112h-33l35 112h-76v64h95l15 49h-110v63h130l35 110h33l-35 -110h77v-63z" />
    <glyph glyph-name="lessequal" unicode="&#x2264;" horiz-adv-x="427" 
d="M367 444l-198 -121l198 -122l-27 -58l-280 180l280 179zM98 45v63h240v-63h-240z" />
    <glyph glyph-name="greaterequal" unicode="&#x2265;" horiz-adv-x="427" 
d="M87 502l280 -179l-280 -180l-27 58l198 122l-198 121zM89 45v63h240v-63h-240z" />
    <glyph glyph-name="COne" unicode="&#x2460;" 
d="M405 683q143 0 243.5 -101t100.5 -244q0 -142 -100.5 -243t-243.5 -101t-244 100.5t-101 243.5t101 244t244 101zM616 127q40 38 65 95q23 57 23 116q0 60 -23 117q-25 57 -65 95q-39 41 -95 64q-55 24 -116 24t-117 -24q-56 -23 -95 -64q-40 -38 -65 -95
q-23 -57 -23 -117q0 -59 23 -116q25 -57 65 -95q41 -42 95 -65q57 -23 117 -23q59 0 116 23q54 23 95 65zM342 475v37l85 22v-388h-48v338z" />
    <glyph glyph-name="CTwo" unicode="&#x2461;" 
d="M405 683q143 0 243.5 -101t100.5 -244q0 -142 -100.5 -243t-243.5 -101t-244 100.5t-101 243.5t101 244t244 101zM616 127q40 38 65 95q23 57 23 116q0 60 -23 117q-25 57 -65 95q-39 41 -95 64q-55 24 -116 24t-117 -24q-56 -23 -95 -64q-40 -38 -65 -95
q-23 -57 -23 -117q0 -59 23 -116q25 -57 65 -95q41 -42 95 -65q57 -23 117 -23q59 0 116 23q54 23 95 65zM389 534q40 0 63.5 -29t23.5 -77q0 -99 -103 -245h99v-37h-126l-21 30q103 153 103 252q0 28 -12 48t-32 20q-12 0 -22.5 -5t-15.5 -11l-5 -5l-14 30q25 29 62 29z
" />
    <glyph glyph-name="CThree" unicode="&#x2462;" 
d="M405 683q143 0 243.5 -101t100.5 -244q0 -142 -100.5 -243t-243.5 -101t-244 100.5t-101 243.5t101 244t244 101zM616 127q40 38 65 95q23 57 23 116q0 60 -23 117q-25 57 -65 95q-39 41 -95 64q-55 24 -116 24t-117 -24q-56 -23 -95 -64q-40 -38 -65 -95
q-23 -57 -23 -117q0 -59 23 -116q25 -57 65 -95q41 -42 95 -65q57 -23 117 -23q59 0 116 23q54 23 95 65zM436 348q2 -1 5.5 -2.5t13 -8.5t16.5 -17t13 -27.5t6 -38.5q0 -52 -26 -82t-66 -30q-20 0 -38.5 8t-26.5 16l-8 8l14 30q27 -25 57 -25q46 0 46 77q0 34 -12 53.5
t-32 19.5h-27v37h27q18 0 28 18.5t10 48.5q0 27 -12 45.5t-33 18.5q-12 0 -23.5 -5.5t-17.5 -11.5l-5 -5l-14 30q25 29 66 29q39 0 63 -29t24 -72q0 -27 -12 -48.5t-24 -28.5z" />
    <glyph glyph-name="CFour" unicode="&#x2463;" 
d="M405 683q143 0 243.5 -101t100.5 -244q0 -142 -100.5 -243t-243.5 -101t-244 100.5t-101 243.5t101 244t244 101zM616 127q40 38 65 95q23 57 23 116q0 60 -23 117q-25 57 -65 95q-39 41 -95 64q-55 24 -116 24t-117 -24q-56 -23 -95 -64q-40 -38 -65 -95
q-23 -57 -23 -117q0 -59 23 -116q25 -57 65 -95q41 -42 95 -65q57 -23 117 -23q59 0 116 23q54 23 95 65zM449 530v-222h37v-37h-37v-125h-48v125h-98v37l111 222h35zM401 308v121l-60 -121h60z" />
    <glyph glyph-name="CFive" unicode="&#x2464;" 
d="M405 683q143 0 243.5 -101t100.5 -244q0 -142 -100.5 -243t-243.5 -101t-244 100.5t-101 243.5t101 244t244 101zM616 127q40 38 65 95q23 57 23 116q0 60 -23 117q-25 57 -65 95q-39 41 -95 64q-55 24 -116 24t-117 -24q-56 -23 -95 -64q-40 -38 -65 -95
q-23 -57 -23 -117q0 -59 23 -116q25 -57 65 -95q41 -42 95 -65q57 -23 117 -23q59 0 116 23q54 23 95 65zM399 389q39 0 62.5 -32.5t23.5 -91.5q0 -57 -26.5 -90t-64.5 -33q-16 0 -33 6.5t-26 13.5l-9 6l15 30q20 -19 46 -19q23 0 36.5 23t13.5 63q0 37 -13.5 62t-37.5 25
q-14 0 -27 -11l-20 21l9 168h116v-37h-70l-5 -105q1 0 5 0.5t5 0.5z" />
    <glyph glyph-name="CSix" unicode="&#x2465;" 
d="M405 683q143 0 243.5 -101t100.5 -244q0 -142 -100.5 -243t-243.5 -101t-244 100.5t-101 243.5t101 244t244 101zM616 127q40 38 65 95q23 57 23 116q0 60 -23 117q-25 57 -65 95q-39 41 -95 64q-55 24 -116 24t-117 -24q-56 -23 -95 -64q-40 -38 -65 -95
q-23 -57 -23 -117q0 -59 23 -116q25 -57 65 -95q41 -42 95 -65q57 -23 117 -23q59 0 116 23q54 23 95 65zM406 414q35 0 58 -37t23 -99t-23.5 -99t-61.5 -37q-41 0 -65.5 39.5t-24.5 112.5q0 49 11.5 92.5t28 70.5t32.5 47t28 28l11 9l17 -36q-47 -37 -75 -109q16 18 41 18z
M400 178q18 0 29.5 29t11.5 71t-11.5 70.5t-29.5 28.5t-30 -28.5t-12 -70.5t12 -71t30 -29z" />
    <glyph glyph-name="CSeven" unicode="&#x2466;" 
d="M405 683q143 0 243.5 -101t100.5 -244q0 -142 -100.5 -243t-243.5 -101t-244 100.5t-101 243.5t101 244t244 101zM616 127q40 38 65 95q23 57 23 116q0 60 -23 117q-25 57 -65 95q-39 41 -95 64q-55 24 -116 24t-117 -24q-56 -23 -95 -64q-40 -38 -65 -95
q-23 -57 -23 -117q0 -59 23 -116q25 -57 65 -95q41 -42 95 -65q57 -23 117 -23q59 0 116 23q54 23 95 65zM330 491v39h161v-39q-3 -6 -9 -17t-20.5 -46.5t-26 -73.5t-20.5 -95t-9 -113h-48q0 60 9 117.5t21 97t24.5 70t21.5 45.5l9 15h-113z" />
    <glyph glyph-name="CEight" unicode="&#x2467;" 
d="M405 683q143 0 243.5 -101t100.5 -244q0 -142 -100.5 -243t-243.5 -101t-244 100.5t-101 243.5t101 244t244 101zM616 127q40 38 65 95q23 57 23 116q0 60 -23 117q-25 57 -65 95q-39 41 -95 64q-55 24 -116 24t-117 -24q-56 -23 -95 -64q-40 -38 -65 -95
q-23 -57 -23 -117q0 -59 23 -116q25 -57 65 -95q41 -42 95 -65q57 -23 117 -23q59 0 116 23q54 23 95 65zM456 350q39 -29 39 -97q0 -54 -25 -82.5t-65 -28.5q-41 0 -66 28.5t-25 82.5q0 68 39 97q-33 27 -33 84q0 45 23 72.5t62 27.5q38 0 61 -27.5t23 -72.5q0 -57 -33 -84
zM405 497q-37 0 -37 -65q0 -30 10 -47t27 -17q16 0 26 17t10 47q0 65 -36 65zM405 179q21 0 31.5 23t10.5 56q0 31 -11.5 52t-30.5 21t-31 -21t-12 -52q0 -33 11 -56t32 -23z" />
    <glyph glyph-name="CNine" unicode="&#x2468;" 
d="M405 683q143 0 243.5 -101t100.5 -244q0 -142 -100.5 -243t-243.5 -101t-244 100.5t-101 243.5t101 244t244 101zM616 127q40 38 65 95q23 57 23 116q0 60 -23 117q-25 57 -65 95q-39 41 -95 64q-55 24 -116 24t-117 -24q-56 -23 -95 -64q-40 -38 -65 -95
q-23 -57 -23 -117q0 -59 23 -116q25 -57 65 -95q41 -42 95 -65q57 -23 117 -23q59 0 116 23q54 23 95 65zM408 534q41 0 64.5 -38.5t23.5 -113.5q0 -55 -11.5 -101t-27.5 -72t-32 -44t-27 -24l-12 -6l-17 36q2 1 5.5 3.5t14 12t20 21t20.5 32t19 44.5q-16 -21 -44 -21
q-40 0 -62.5 36t-22.5 99q0 64 24 100t65 36zM408 299q18 0 29.5 30t11.5 69t-11.5 69.5t-29.5 30.5t-29.5 -30.5t-11.5 -69.5t11.5 -69t29.5 -30z" />
    <glyph glyph-name="CZero" unicode="&#x24ea;" 
d="M405 683q143 0 243.5 -101t100.5 -244q0 -142 -100.5 -243t-243.5 -101t-244 100.5t-101 243.5t101 244t244 101zM616 127q40 38 65 95q23 57 23 116q0 60 -23 117q-25 57 -65 95q-39 41 -95 64q-55 24 -116 24t-117 -24q-56 -23 -95 -64q-40 -38 -65 -95
q-23 -57 -23 -117q0 -59 23 -116q25 -57 65 -95q41 -42 95 -65q57 -23 117 -23q59 0 116 23q54 23 95 65zM405 534q85 0 85 -196t-85 -196q-86 0 -86 196t86 196zM405 179q18 0 27.5 44t9.5 115q0 72 -9.5 115.5t-27.5 43.5q-38 0 -38 -159q0 -71 10 -115t28 -44z" />
    <glyph glyph-name="lozenge" unicode="&#x25ca;" horiz-adv-x="540" 
d="M313 677l167 -339l-167 -338h-86l-167 338l167 339h86zM270 87l124 251l-124 251l-124 -251z" />
    <glyph glyph-name="BCOne" unicode="&#x278a;" 
d="M405 683q143 0 243.5 -101t100.5 -244q0 -142 -100.5 -243t-243.5 -101t-244 100.5t-101 243.5t101 244t244 101zM427 146v388l-85 -22v-37l37 9v-338h48z" />
    <glyph glyph-name="BCTwo" unicode="&#x278b;" 
d="M405 683q143 0 243.5 -101t100.5 -244q0 -142 -100.5 -243t-243.5 -101t-244 100.5t-101 243.5t101 244t244 101zM472 183h-99q103 146 103 245q0 48 -23.5 77t-63.5 29q-16 0 -31.5 -7t-23.5 -15l-7 -7l14 -30q17 21 43 21q20 0 32 -20t12 -48q0 -99 -103 -252l21 -30
h126v37z" />
    <glyph glyph-name="BCThree" unicode="&#x278c;" 
d="M405 683q143 0 243.5 -101t100.5 -244q0 -142 -100.5 -243t-243.5 -101t-244 100.5t-101 243.5t101 244t244 101zM398 142q40 0 66 30t26 82q0 21 -5.5 38.5t-13.5 27.5t-16 16.5t-13 9.5l-6 2q5 3 13 8.5t21.5 27.5t13.5 49q0 43 -24 72t-63 29q-18 0 -34.5 -7
t-24.5 -15l-7 -7l14 -30q19 22 46 22q21 0 33 -18.5t12 -45.5q0 -30 -10 -48.5t-28 -18.5h-27v-37h27q20 0 32 -19.5t12 -53.5q0 -77 -46 -77q-13 0 -27.5 6.5t-22.5 12.5l-7 6l-14 -30q27 -32 73 -32z" />
    <glyph glyph-name="BCFour" unicode="&#x278d;" 
d="M401 308h-60l60 121v-121zM405 683q143 0 243.5 -101t100.5 -244q0 -142 -100.5 -243t-243.5 -101t-244 100.5t-101 243.5t101 244t244 101zM486 271v37h-37v222h-35l-111 -222v-37h98v-125h48v125h37z" />
    <glyph glyph-name="BCFive" unicode="&#x278e;" 
d="M405 683q143 0 243.5 -101t100.5 -244q0 -142 -100.5 -243t-243.5 -101t-244 100.5t-101 243.5t101 244t244 101zM394 142q38 0 64.5 33t26.5 90q0 59 -23.5 91.5t-62.5 32.5q-1 0 -5 -0.5t-5 -0.5l5 105h70v37h-116l-9 -168l20 -21q13 11 27 11q24 0 37.5 -25t13.5 -62
q0 -40 -13.5 -63t-36.5 -23q-12 0 -23.5 4.5t-17.5 9.5l-5 5l-15 -30q32 -26 68 -26z" />
    <glyph glyph-name="BCSix" unicode="&#x278f;" 
d="M400 377q18 0 29.5 -28.5t11.5 -70.5t-11.5 -71t-29.5 -29t-30 29t-12 71t12 70.5t30 28.5zM405 683q143 0 243.5 -101t100.5 -244q0 -142 -100.5 -243t-243.5 -101t-244 100.5t-101 243.5t101 244t244 101zM402 142q38 0 61.5 37t23.5 99t-23 99t-58 37q-25 0 -41 -18
q12 32 31 59t32 39l12 11l-17 36q-5 -3 -12 -9t-26.5 -27.5t-34 -47.5t-26.5 -70t-12 -93q0 -73 24.5 -112.5t65.5 -39.5z" />
    <glyph glyph-name="BCSeven" unicode="&#x2790;" 
d="M405 683q143 0 243.5 -101t100.5 -244q0 -142 -100.5 -243t-243.5 -101t-244 100.5t-101 243.5t101 244t244 101zM491 491v39h-161v-39h113l-9 -15.5t-20.5 -44.5t-26 -71.5t-20.5 -95.5t-9 -118h48q0 56 9 112.5t21 96.5t24.5 72t21.5 48z" />
    <glyph glyph-name="BCEight" unicode="&#x2791;" 
d="M405 683q143 0 243.5 -101t100.5 -244q0 -142 -100.5 -243t-243.5 -101t-244 100.5t-101 243.5t101 244t244 101zM405 142q40 0 65 28.5t25 82.5q0 68 -39 97q33 27 33 84q0 45 -23 72.5t-61 27.5q-39 0 -62 -27.5t-23 -72.5q0 -57 33 -84q-39 -29 -39 -97
q0 -54 25 -82.5t66 -28.5zM405 368q-17 0 -27 17t-10 47q0 65 37 65q36 0 36 -65q0 -30 -10 -47t-26 -17zM405 331q19 0 30.5 -21t11.5 -52q0 -33 -10.5 -56t-31.5 -23t-32 23t-11 56q0 31 12 52t31 21z" />
    <glyph glyph-name="BCNine" unicode="&#x2792;" 
d="M405 683q143 0 243.5 -101t100.5 -244q0 -142 -100.5 -243t-243.5 -101t-244 100.5t-101 243.5t101 244t244 101zM386 135q4 2 11.5 6.5t26.5 23.5t33.5 44t26.5 71.5t12 101.5q0 75 -23.5 113.5t-64.5 38.5t-65 -36t-24 -100q0 -63 22.5 -99t62.5 -36q28 0 44 21
q-12 -38 -32 -66t-34 -38l-13 -9zM408 498q18 0 29.5 -30.5t11.5 -69.5t-11.5 -69t-29.5 -30t-29.5 30t-11.5 69t11.5 69.5t29.5 30.5z" />
    <glyph glyph-name="BlackArrowR" unicode="&#x27a1;" 
d="M405 683q143 0 243.5 -101t100.5 -244q0 -142 -100.5 -243t-243.5 -101t-244 100.5t-101 243.5t101 244t244 101zM472 145l112 193l-112 194h-99l93 -160h-241v-67h241l-93 -160h99z" />
    <glyph glyph-name="WhiteArrowNE" unicode="&#x2b00;" 
d="M405 683q143 0 243.5 -101t100.5 -244q0 -142 -100.5 -243t-243.5 -101t-244 100.5t-101 243.5t101 244t244 101zM616 127q40 38 65 95q23 57 23 116q0 60 -23 117q-25 57 -65 95q-39 41 -95 64q-55 24 -116 24t-117 -24q-56 -23 -95 -64q-40 -38 -65 -95
q-23 -57 -23 -117q0 -59 23 -116q25 -57 65 -95q41 -42 95 -65q57 -23 117 -23q59 0 116 23q54 23 95 65zM316 523l215 -58l58 -215l-70 -70l-48 178l-170 -170l-47 47l170 170l-178 48z" />
    <glyph glyph-name="WhiteArrowNW" unicode="&#x2b01;" 
d="M405 683q143 0 243.5 -101t100.5 -244q0 -142 -100.5 -243t-243.5 -101t-244 100.5t-101 243.5t101 244t244 101zM616 127q40 38 65 95q23 57 23 116q0 60 -23 117q-25 57 -65 95q-39 41 -95 64q-55 24 -116 24t-117 -24q-56 -23 -95 -64q-40 -38 -65 -95
q-23 -57 -23 -117q0 -59 23 -116q25 -57 65 -95q41 -42 95 -65q57 -23 117 -23q59 0 116 23q54 23 95 65zM493 523l70 -70l-178 -48l170 -170l-47 -47l-170 170l-48 -178l-70 70l58 215z" />
    <glyph glyph-name="WhiteArrowSE" unicode="&#x2b02;" 
d="M405 683q143 0 243.5 -101t100.5 -244q0 -142 -100.5 -243t-243.5 -101t-244 100.5t-101 243.5t101 244t244 101zM616 127q40 38 65 95q23 57 23 116q0 60 -23 117q-25 57 -65 95q-39 41 -95 64q-55 24 -116 24t-117 -24q-56 -23 -95 -64q-40 -38 -65 -95
q-23 -57 -23 -117q0 -59 23 -116q25 -57 65 -95q41 -42 95 -65q57 -23 117 -23q59 0 116 23q54 23 95 65zM471 319l48 178l70 -70l-58 -215l-215 -58l-70 70l178 48l-170 170l47 47z" />
    <glyph glyph-name="WhiteArrowSW" unicode="&#x2b03;" 
d="M405 683q143 0 243.5 -101t100.5 -244q0 -142 -100.5 -243t-243.5 -101t-244 100.5t-101 243.5t101 244t244 101zM616 127q40 38 65 95q23 57 23 116q0 60 -23 117q-25 57 -65 95q-39 41 -95 64q-55 24 -116 24t-117 -24q-56 -23 -95 -64q-40 -38 -65 -95
q-23 -57 -23 -117q0 -59 23 -116q25 -57 65 -95q41 -42 95 -65q57 -23 117 -23q59 0 116 23q54 23 95 65zM555 442l-170 -170l178 -48l-70 -70l-215 58l-58 215l70 70l48 -178l170 170z" />
    <glyph glyph-name="BlackArrowL" unicode="&#x2b05;" 
d="M405 683q143 0 243.5 -101t100.5 -244q0 -142 -100.5 -243t-243.5 -101t-244 100.5t-101 243.5t101 244t244 101zM584 305v67h-241l93 160h-99l-112 -194l112 -193h99l-93 160h241z" />
    <glyph glyph-name="BlackArrowU" unicode="&#x2b06;" 
d="M405 683q143 0 243.5 -101t100.5 -244q0 -142 -100.5 -243t-243.5 -101t-244 100.5t-101 243.5t101 244t244 101zM598 307v99l-193 112l-194 -112v-99l160 93v-241h67v241z" />
    <glyph glyph-name="BlackArrowD" unicode="&#x2b07;" 
d="M405 683q143 0 243.5 -101t100.5 -244q0 -142 -100.5 -243t-243.5 -101t-244 100.5t-101 243.5t101 244t244 101zM598 271v99l-160 -93v241h-67v-241l-160 93v-99l194 -112z" />
    <glyph glyph-name="BlackArrowNE" unicode="&#x2b08;" 
d="M405 683q143 0 243.5 -101t100.5 -244q0 -142 -100.5 -243t-243.5 -101t-244 100.5t-101 243.5t101 244t244 101zM519 180l70 70l-58 215l-215 58l-70 -70l178 -48l-170 -170l47 -47l170 170z" />
    <glyph glyph-name="BlackArrowNW" unicode="&#x2b09;" 
d="M405 683q143 0 243.5 -101t100.5 -244q0 -142 -100.5 -243t-243.5 -101t-244 100.5t-101 243.5t101 244t244 101zM555 235l-170 170l178 48l-70 70l-215 -58l-58 -215l70 -70l48 178l170 -170z" />
    <glyph glyph-name="BlackArrowSE" unicode="&#x2b0a;" 
d="M405 683q143 0 243.5 -101t100.5 -244q0 -142 -100.5 -243t-243.5 -101t-244 100.5t-101 243.5t101 244t244 101zM531 212l58 215l-70 70l-48 -178l-170 170l-47 -47l170 -170l-178 -48l70 -70z" />
    <glyph glyph-name="BlackArrowSW" unicode="&#x2b0b;" 
d="M405 683q143 0 243.5 -101t100.5 -244q0 -142 -100.5 -243t-243.5 -101t-244 100.5t-101 243.5t101 244t244 101zM493 154l70 70l-178 48l170 170l-47 47l-170 -170l-48 178l-70 -70l58 -215z" />
    <glyph glyph-name="sc.f" unicode="&#xa730;" horiz-adv-x="316" 
d="M266 499h-134v-169h97v-63h-97v-267h-82v562h216v-63z" />
    <glyph glyph-name="sc.s" unicode="&#xa731;" horiz-adv-x="360" 
d="M149 442q0 -26 16.5 -58t40 -62l47.5 -61.5t40.5 -67.5t16.5 -68q0 -61 -34.5 -96t-95.5 -35q-37 0 -69.5 14t-46.5 28l-14 14l24 52q4 -5 12 -12.5t33.5 -20t50.5 -12.5q58 0 58 68q0 31 -25 71t-55.5 74t-55.5 81.5t-25 90.5q0 57 34 91.5t85 34.5q33 0 60 -13.5
t37 -26.5l10 -14l-21 -45q-26 36 -67 36q-26 0 -41 -18.5t-15 -44.5z" />
    <glyph glyph-name="sc.q" unicode="&#xa7af;" horiz-adv-x="385" 
d="M335 252q0 -207 -99 -250q11 -42 53 -42h5v-60h-5q-49 0 -84.5 26.5t-46.5 72.5q-51 16 -79.5 81.5t-28.5 171.5v58q0 123 37.5 190.5t104.5 67.5t105 -67t38 -191v-58zM192 57q62 0 62 224t-62 224q-60 0 -60 -224t60 -224z" />
    <glyph glyph-name="BCZero" unicode="&#x1f10c;" 
d="M405 497q18 0 27.5 -43.5t9.5 -115.5q0 -71 -9.5 -115t-27.5 -44t-28 44t-10 115q0 159 38 159zM405 683q143 0 243.5 -101t100.5 -244q0 -142 -100.5 -243t-243.5 -101t-244 100.5t-101 243.5t101 244t244 101zM405 142q85 0 85 196t-85 196q-86 0 -86 -196t86 -196z
" />
    <glyph glyph-name="a.ss01" horiz-adv-x="366" 
d="M180 480q63 0 102 -42.5t39 -125.5v-312h-64l-18 44q-2 -6 -7.5 -14t-26.5 -22t-49 -14q-47 0 -79 38.5t-32 101.5q0 81 52 131t142 50v3q0 42 -19 70.5t-53 28.5q-19 0 -36.5 -8.5t-25.5 -16.5l-8 -9l-22 49q4 5 12 13t35 21.5t58 13.5zM239 174v89q-54 0 -83 -34
t-29 -79q0 -40 15 -66.5t41 -26.5q56 0 56 117z" />
    <glyph glyph-name="f.ss01" horiz-adv-x="349" 
d="M182 516v-36h105v-63h-105v-605l-81 -21v626h-56v63h56v36q0 81 33.5 124t86.5 43q24 0 44.5 -8.5t29.5 -16.5l9 -8l-24 -51q-17 21 -44 21q-54 0 -54 -104z" />
    <glyph glyph-name="g.ss01" horiz-adv-x="430" 
d="M235 91q63 0 106.5 -41.5t43.5 -105.5q0 -69 -46 -111t-124 -42t-124 39.5t-46 102.5q0 82 63 126q-16 24 -16 54q0 41 32 75q-46 44 -46 129q0 77 37.5 120t99.5 43q20 0 33 -4q25 81 113 81v-63q-50 0 -62 -42q53 -43 53 -135q0 -77 -38 -120.5t-99 -43.5q-21 0 -45 7
q-28 -69 45 -69h20zM215 421q-29 0 -42 -31.5t-13 -72.5q0 -42 13 -73.5t42 -31.5q28 0 41.5 32t13.5 73t-13.5 72.5t-41.5 31.5zM215 -146q40 0 64 21.5t24 57.5q0 37 -21.5 58.5t-61.5 21.5h-19q-30 0 -55 13q-19 -38 -19 -83q0 -41 24 -65t64 -24z" />
    <glyph glyph-name="t.ss01" horiz-adv-x="334" 
d="M288 83l21 -44q-3 -5 -9 -12.5t-28 -20t-46 -12.5q-55 0 -87 45.5t-32 127.5v250h-62v63q40 0 54 22.5t14 88.5l76 22v-133h84v-63h-84v-250q0 -110 54 -110q13 0 24.5 6.5t16.5 12.5z" />
    <glyph glyph-name="y.ss01" horiz-adv-x="351" 
d="M224 474h82v-502q0 -181 -125 -181q-60 0 -92 41t-32 111h57q0 -40 14.5 -64.5t40.5 -24.5q55 0 55 118v98q-1 -2 -2 -5.5t-7 -12t-13.5 -15t-21.5 -12t-31 -5.5q-51 0 -77.5 50t-26.5 138v266h82v-244q0 -146 48 -146q49 0 49 146v244z" />
    <glyph glyph-name="y.ss02" horiz-adv-x="393" 
d="M263 474h85l-132 -501q-28 -107 -60 -144.5t-111 -37.5v63q45 0 65 49q7 17 22 70l22 84l-105 417h84l65 -286z" />
    <glyph glyph-name="sc.ae" horiz-adv-x="519" 
d="M474 499h-128v-152h103v-63h-103v-221h128v-63h-209v124h-93l-44 -124h-83l214 562h215v-63zM265 178v206l-74 -206h74z" />
    <glyph glyph-name="sc.oe" horiz-adv-x="515" 
d="M470 499h-128v-152h103v-63h-103v-221h128v-63h-209v34q-31 -40 -77 -40q-65 0 -102 67.5t-37 190.5v58q0 123 37 190.5t102 67.5q46 0 77 -40v34h209v-63zM197 57q31 0 50.5 60.5t19.5 163.5t-19.5 163.5t-50.5 60.5t-50.5 -60.5t-19.5 -163.5t19.5 -163.5t50.5 -60.5z
" />
    <glyph glyph-name="sc.eth" horiz-adv-x="386" 
d="M189 562q78 0 115 -60t37 -192v-58q0 -132 -37 -192t-115 -60h-114v249h-30v63h30v250h114zM198 63q61 0 61 218t-61 218h-41v-187h38v-63h-38v-186h41z" />
    <glyph glyph-name="sc.oslash" horiz-adv-x="375" 
d="M279 521q51 -66 51 -211v-58q0 -124 -38 -191t-105 -67q-37 0 -65 21l-23 -72h-33l30 97q-51 66 -51 212v58q0 123 37.5 190.5t104.5 67.5q39 0 67 -22l22 73h33zM127 281q0 -73 6 -122l95 305q-15 41 -41 41q-60 0 -60 -224zM187 57q62 0 62 224q0 74 -7 122l-95 -306
q15 -40 40 -40z" />
    <glyph glyph-name="sc.germandbls" horiz-adv-x="388" 
d="M263 279q0 -25 40 -90t40 -101q0 -42 -25 -68t-68 -26q-25 0 -48.5 9t-35.5 19l-11 9l22 47q24 -21 52 -21q32 0 32 38q0 29 -33.5 94t-33.5 90q0 17 12.5 61.5t12.5 68.5q0 96 -46 96t-46 -106v-399h-82v386q0 85 31.5 133.5t96.5 48.5q63 0 95.5 -43t32.5 -110
q0 -27 -19 -70t-19 -66z" />
    <glyph glyph-name="sc.thorn" horiz-adv-x="352" 
d="M155 457q72 0 112 -46t40 -130t-40 -130t-112 -46h-28v-105h-82v562h82v-105h28zM157 168q32 0 50 29.5t18 83.5t-18 83.5t-50 29.5h-30v-226h30z" />
    <glyph glyph-name="ampersand.ss01" horiz-adv-x="381" 
d="M60 277q0 73 64 123q-36 64 -36 114q0 53 25 82.5t65 29.5t64.5 -29.5t24.5 -82.5q0 -70 -78 -127q25 -38 62 -84q4 35 4 85h43q0 -82 -12 -129l50 -58l-28 -41q-28 32 -41 48q-29 -54 -92 -54q-51 0 -83 33.5t-32 89.5zM178 582q-15 0 -24.5 -20t-9.5 -48q0 -42 25 -92
q43 38 43 92q0 28 -9.5 48t-24.5 20zM148 360q-32 -36 -32 -83q0 -29 18 -54.5t44 -25.5q41 0 59 47q-66 82 -89 116zM64 66v43h268v-43h-268z" />
    <glyph glyph-name="ln.zero" horiz-adv-x="368" 
d="M184 677q149 0 149 -342q0 -341 -149 -341t-149 341q0 342 149 342zM184 59q31 0 48.5 76t17.5 200q0 125 -17.5 201t-48.5 76t-48 -76t-17 -201t17 -200.5t48 -75.5z" />
    <glyph glyph-name="ln.one" horiz-adv-x="217" 
d="M35 639l147 38v-677h-83v591l-64 -17v65z" />
    <glyph glyph-name="ln.two" horiz-adv-x="334" 
d="M299 493q0 -59 -17 -121t-48 -120.5t-56 -98.5t-60 -88h174v-65h-220l-37 53q181 265 181 440q0 48 -21.5 82.5t-56.5 34.5q-20 0 -38.5 -9t-27.5 -18l-9 -9l-25 52q5 6 14 14.5t37.5 22.5t56.5 14q71 0 112 -50.5t41 -133.5z" />
    <glyph glyph-name="ln.three" horiz-adv-x="357" 
d="M228 352q4 -1 10 -4t22.5 -15.5t29 -29t22.5 -47.5t10 -68q0 -91 -45 -142.5t-116 -51.5q-36 0 -67.5 14t-45.5 28l-13 13l25 53q46 -43 98 -43q80 0 80 133q0 59 -20 93.5t-56 34.5h-47v64h47q31 0 49 32t18 85q0 46 -21 78.5t-58 32.5q-21 0 -41 -9.5t-30 -18.5
l-10 -10l-24 52q5 6 14 14.5t39 22.5t62 14q68 0 110 -50.5t42 -126.5q0 -30 -8.5 -56t-21 -42t-25 -28t-21.5 -17z" />
    <glyph glyph-name="ln.four" horiz-adv-x="390" 
d="M290 283h65v-65h-65v-218h-84v218h-171v65l193 388h62v-388zM206 283v212l-104 -212h104z" />
    <glyph glyph-name="ln.five" horiz-adv-x="346" 
d="M162 424q68 0 108.5 -56.5t40.5 -158.5q0 -100 -46 -157.5t-113 -57.5q-33 0 -62.5 11t-41.5 23l-13 11l25 52q35 -32 81 -32q41 0 63.5 39t22.5 111q0 63 -23 106.5t-64 43.5q-27 0 -48 -19l-34 36l15 295h202v-65h-122l-9 -184q10 2 18 2z" />
    <glyph glyph-name="ln.six" horiz-adv-x="376" 
d="M199 467q62 0 102 -64.5t40 -172.5q0 -109 -41 -172.5t-107 -63.5q-72 0 -115 68t-43 196q0 63 10.5 120.5t27.5 99.5t38 78.5t41.5 60t37.5 40.5t28 25l10 7l30 -63q-9 -7 -24 -21t-50 -63.5t-57 -105.5q31 31 72 31zM188 57q32 0 52 50t20 123q0 74 -20 124t-52 50
t-52 -50.5t-20 -123.5t20 -123t52 -50z" />
    <glyph glyph-name="ln.seven" horiz-adv-x="352" 
d="M35 671h282v-70q-6 -10 -16 -29t-36 -81t-45.5 -128t-35.5 -165.5t-16 -197.5h-84q0 104 15.5 204.5t37 169t43.5 122.5t38 80l15 25h-198v70z" />
    <glyph glyph-name="ln.eight" horiz-adv-x="387" 
d="M283 356q69 -51 69 -169q0 -93 -44 -143t-115 -50q-70 0 -114 50t-44 143q0 118 69 169q-58 48 -58 147q0 78 40.5 126t106.5 48q67 0 107.5 -48t40.5 -126q0 -99 -58 -147zM193 612q-30 0 -47 -30t-17 -83q0 -52 18 -82t46 -30q29 0 47 30t18 82q0 53 -17.5 83t-47.5 30
zM193 59q36 0 55.5 39.5t19.5 97.5q0 54 -21 90t-54 36t-53.5 -36t-20.5 -90q0 -58 19 -97.5t55 -39.5z" />
    <glyph glyph-name="ln.nine" horiz-adv-x="378" 
d="M190 677q72 0 112.5 -67t40.5 -198q0 -97 -20 -176.5t-48 -124.5t-56 -76t-48 -42l-20 -11l-29 63q4 2 10.5 6t24.5 20t34.5 36t36 56t32.5 77q-29 -36 -76 -36q-70 0 -109.5 63t-39.5 173q0 112 42 174.5t113 62.5zM190 267q32 0 52 52t20 121t-20 121.5t-52 52.5
q-31 0 -51 -52.5t-20 -121.5q0 -68 20 -120.5t51 -52.5z" />
    <glyph glyph-name="ln.zeroalt" horiz-adv-x="371" 
d="M186 677q150 0 150 -342q0 -341 -150 -341q-151 0 -151 341q0 342 151 342zM114 335q0 -52 3 -94l131 245q-17 131 -62 131q-33 0 -52.5 -75t-19.5 -207zM186 54q33 0 52 75t19 206q0 51 -3 95l-131 -246q17 -130 63 -130z" />
    <glyph glyph-name="zero.zero" horiz-adv-x="416" 
d="M208 486q74 0 118.5 -65t44.5 -181t-44.5 -181t-118.5 -65t-118.5 65t-44.5 181t44.5 181t118.5 65zM122 240q0 -89 26 -139l97 311q-16 15 -37 15q-38 0 -62 -52.5t-24 -134.5zM208 52q38 0 62 53t24 135q0 85 -26 139l-97 -311q18 -16 37 -16z" />
    <glyph glyph-name="braceleft.uc" horiz-adv-x="382" 
d="M240 -74q16 0 31 9t22 18l7 9l22 -47q-3 -6 -9.5 -15t-32.5 -24.5t-59 -15.5q-55 0 -86 41.5t-31 101.5q0 55 16 117t16 87q0 27 -14.5 47t-40.5 20h-21v63h21q26 0 40.5 20t14.5 47q0 25 -16 87.5t-16 116.5q0 60 31.5 102t85.5 42q33 0 58 -14t34 -28l9 -14l-22 -47
q-23 36 -60 36q-54 0 -54 -103q0 -53 16 -114.5t16 -92.5q0 -24 -11.5 -41.5t-22.5 -22.5l-12 -5q2 -1 5 -2t11 -7t14 -13t11 -20t5 -28q0 -30 -16 -92t-16 -115q0 -50 14.5 -76.5t39.5 -26.5z" />
    <glyph glyph-name="braceright.uc" horiz-adv-x="382" 
d="M301 337h21v-63h-21q-26 0 -41 -20t-15 -47q0 -25 16 -87t16 -117q0 -60 -31 -101.5t-86 -41.5q-32 0 -57 14t-34 28l-9 13l22 47q23 -36 60 -36q24 0 39 26.5t15 76.5q0 53 -16 115t-16 92q0 24 11.5 41.5t22.5 22.5l12 6q-2 1 -5 2t-11 6.5t-14 12.5t-11 20t-5 28
q0 31 16 92.5t16 114.5q0 51 -15 77t-39 26q-16 0 -31 -9t-22 -18l-7 -9l-22 47q3 6 9.5 15.5t32.5 25t58 15.5q55 0 86 -42t31 -102q0 -54 -16 -116.5t-16 -87.5q0 -27 15 -47t41 -20z" />
    <glyph glyph-name="parenleft.uc" horiz-adv-x="313" 
d="M248 689l-11 -19t-24.5 -52t-30.5 -82.5t-24 -105t-11 -124.5q0 -98 25.5 -194t50.5 -142l25 -47l-30 -63q-6 6 -16.5 18t-37 54t-46.5 90t-36.5 125t-16.5 159t16 158.5t38.5 126.5t44.5 88t38 55l16 18z" />
    <glyph glyph-name="parenright.uc" horiz-adv-x="313" 
d="M95 752q6 -6 16.5 -18t37 -54t46.5 -90t36.5 -125t16.5 -159t-16 -158.5t-38 -126.5t-44.5 -88t-38.5 -55l-16 -18l-30 63l11 19t24.5 52t30.5 82t24 105t11 125t-10.5 124t-25 106.5t-29.5 80.5t-25 54l-11 18z" />
    <glyph glyph-name="bracketleft.uc" horiz-adv-x="318" 
d="M258 683h-116v-754h116v-63h-198v880h198v-63z" />
    <glyph glyph-name="bracketright.uc" horiz-adv-x="318" 
d="M60 746h198v-880h-198v63h117v754h-117v63z" />
    <glyph glyph-name="exclamdown.uc" horiz-adv-x="216" 
d="M55 671h86v-86h-86v86zM75 472h46l20 -361v-117h-86v117z" />
    <glyph glyph-name="questiondown.uc" horiz-adv-x="342" 
d="M264 84l23 -48q-4 -5 -12 -13t-35 -21.5t-55 -13.5q-58 0 -94 34t-36 89q0 36 23.5 73.5t52 64t52 60t23.5 61.5q0 20 -12.5 32.5t-32.5 12.5q-17 0 -32 -6.5t-22 -13.5l-7 -7l-21 45q3 5 10 12.5t31.5 20t53.5 12.5q46 0 77.5 -31t31.5 -78q0 -37 -23.5 -74.5t-52 -63.5
t-52 -59t-23.5 -61q0 -26 16 -43t45 -17q20 0 38 8.5t25 16.5zM227 671v-86h-85v86h85z" />
    <glyph glyph-name="colon.uc" horiz-adv-x="206" 
d="M60 66v85h86v-85h-86zM60 546h86v-86h-86v86z" />
    <glyph glyph-name="semicolon.uc" horiz-adv-x="202" 
d="M25 8l46 171h86l-72 -171h-60zM71 546h86v-86h-86v86z" />
    <glyph glyph-name="plus.uc" horiz-adv-x="366" 
d="M215 367h91v-63h-91v-92h-64v92h-91v63h91v91h64v-91z" />
    <glyph glyph-name="minus.uc" horiz-adv-x="360" 
d="M60 367h240v-63h-240v63z" />
    <glyph glyph-name="equal.uc" horiz-adv-x="360" 
d="M60 206v63h240v-63h-240zM60 381h240v-63h-240v63z" />
    <glyph glyph-name="divide.uc" horiz-adv-x="441" 
d="M257 473v-72h-73v72h73zM184 167v73h73v-73h-73zM60 352h321v-64h-321v64z" />
    <glyph glyph-name="multiply.uc" horiz-adv-x="350" 
d="M290 429l-79 -109l79 -109l-48 -34l-67 93l-68 -93l-47 34l79 109l-79 109l47 34l68 -93l67 93z" />
    <glyph glyph-name="guilsinglleft.uc" horiz-adv-x="265" 
d="M215 480l-115 -143l115 -143l-49 -40l-116 144v77l116 144z" />
    <glyph glyph-name="guilsinglright.uc" horiz-adv-x="265" 
d="M99 519l116 -144v-77l-116 -144l-49 40l115 143l-115 143z" />
    <glyph glyph-name="guillemotleft.uc" horiz-adv-x="412" 
d="M215 480l-115 -143l115 -143l-49 -40l-116 144v77l116 144zM362 480l-115 -143l115 -143l-49 -40l-117 144v77l117 144z" />
    <glyph glyph-name="guillemotright.uc" horiz-adv-x="412" 
d="M246 519l116 -144v-77l-116 -144l-50 40l116 143l-116 143zM215 375v-77l-116 -144l-49 40l115 143l-115 143l49 39z" />
    <glyph glyph-name="less.uc" horiz-adv-x="333" 
d="M283 480l-150 -143l150 -144l-29 -61l-204 205l204 204z" />
    <glyph glyph-name="greater.uc" horiz-adv-x="333" 
d="M79 541l204 -204l-204 -205l-29 61l149 144l-149 143z" />
    <glyph glyph-name="emdash.uc" horiz-adv-x="568" 
d="M60 367h448v-63h-448v63z" />
    <glyph glyph-name="endash.uc" horiz-adv-x="423" 
d="M60 367h303v-63h-303v63z" />
    <glyph glyph-name="hyphen.uc" horiz-adv-x="360" 
d="M60 367h240v-63h-240v63z" />
    <glyph glyph-name="logicalnot.uc" horiz-adv-x="427" 
d="M60 377h307v-166h-63v103h-244v63z" />
    <glyph glyph-name="plusminus.uc" horiz-adv-x="366" 
d="M215 433h91v-63h-91v-92h-64v92h-91v63h91v92h64v-92zM73 166v64h220v-64h-220z" />
    <glyph glyph-name="notequal.uc" horiz-adv-x="360" 
d="M300 318h-96l-16 -49h112v-63h-131l-35 -112h-33l35 112h-76v63h95l15 49h-110v63h130l35 111h33l-35 -111h77v-63z" />
    <glyph glyph-name="approxequal.uc" horiz-adv-x="402" 
d="M144 291q22 0 57 -16.5t57 -16.5q20 0 41 8t32 16l11 9v-64q-39 -32 -84 -32q-22 0 -57 16t-57 16q-20 0 -41 -8t-32 -16l-11 -8v63q39 33 84 33zM258 364q20 0 41 8t32 16l11 8v-63q-39 -32 -84 -32q-22 0 -57 16t-57 16q-20 0 -41 -8t-32 -16l-11 -8v63q39 32 84 32
q22 0 57 -16t57 -16z" />
    <glyph glyph-name="lessequal.uc" horiz-adv-x="427" 
d="M367 539l-198 -121l198 -121l-27 -58l-280 179l280 179zM98 140v63h240v-63h-240z" />
    <glyph glyph-name="greaterequal.uc" horiz-adv-x="427" 
d="M87 597l280 -179l-280 -179l-27 58l198 121l-198 121zM89 140v63h240v-63h-240z" />
    <glyph glyph-name="at.uc" horiz-adv-x="819" 
d="M470 683q142 0 225 -105t59 -240q-17 -94 -59.5 -144t-109.5 -50q-26 0 -49 7t-36.5 17t-23 20.5t-13.5 17.5l-4 7q-1 -3 -3.5 -7.5t-10.5 -16.5t-18 -21t-27 -16.5t-35 -7.5q-54 0 -83 52.5t-13 141.5q17 94 60.5 144t112.5 50q19 0 35.5 -6t26 -15t17 -18t10.5 -15
l3 -6l-32 -178q-19 -110 90 -110q41 0 72 39t45 115q22 126 -48.5 216t-198.5 90q-127 0 -228 -89t-124 -217q-22 -123 51.5 -214t193.5 -91q33 0 71.5 6.5t60.5 13.5l22 7l16 -34q-78 -32 -177 -32q-61 0 -118 27t-97.5 72t-60 110t-7.5 135q26 151 141 248t264 97z
M436 338l18 103q0 4 -0.5 9.5t-7.5 15t-19 9.5q-25 0 -49 -39.5t-34 -97.5q-11 -62 -5 -99t27 -37q20 0 39.5 37.5t30.5 98.5z" />
    <glyph glyph-name="zero.numr" horiz-adv-x="251" 
d="M193 632q23 -48 23 -135q0 -88 -23 -136q-25 -47 -67 -47q-43 0 -68 47q-23 48 -23 136q0 87 23 135q24 48 68 48q43 0 67 -48zM126 367q6 0 12 11.5t11 42.5t5 76q0 63 -9 98q-8 32 -19 32q-7 0 -13 -12t-11 -43t-5 -75q0 -63 9 -99q9 -31 20 -31z" />
    <glyph glyph-name="one.numr" horiz-adv-x="165" 
d="M35 659l95 24v-366h-63v296l-32 -8v54z" />
    <glyph glyph-name="two.numr" horiz-adv-x="226" 
d="M191 577q0 -89 -82 -207h78v-53h-126l-26 37q11 14 26.5 37.5t41.5 83t26 102.5q0 20 -7.5 34.5t-22.5 14.5q-10 0 -20.5 -6t-16.5 -12l-5 -5l-20 43q27 34 71 34q38 0 60.5 -28.5t22.5 -74.5z" />
    <glyph glyph-name="three.numr" horiz-adv-x="240" 
d="M167 506q38 -28 38 -84q0 -47 -26.5 -77.5t-70.5 -30.5q-20 0 -38 8t-26 16l-9 8l19 41q20 -20 46 -20q21 0 31.5 16t10.5 41q0 55 -28 55h-30v53h27q27 0 27 49q0 17 -10.5 31.5t-26.5 14.5q-11 0 -21.5 -5t-15.5 -10l-4 -5l-18 39q23 34 68 34q39 0 64.5 -28.5
t25.5 -71.5q0 -48 -33 -74z" />
    <glyph glyph-name="four.numr" horiz-adv-x="272" 
d="M204 480h33v-53h-33v-110h-62v110h-107v46l122 204h47v-197zM142 480v75l-45 -75h45z" />
    <glyph glyph-name="five.numr" horiz-adv-x="232" 
d="M113 552q39 -1 61.5 -33t22.5 -86q0 -55 -26 -87t-64 -32q-37 0 -72 30l22 46q23 -23 44 -23q34 0 34 66q0 26 -9 46t-26 20q-8 0 -25 -14l-26 29l8 163h63h59v-53h-62z" />
    <glyph glyph-name="six.numr" horiz-adv-x="245" 
d="M188 537q22 -36 22 -93q0 -59 -23 -94q-23 -36 -62 -36q-42 0 -66 38t-24 106q0 70 28.5 133t83.5 100l23 -50q-35 -29 -56 -69q8 2 14 2q37 0 60 -37zM123 366q6 0 11.5 8.5t10 27t4.5 42.5t-4.5 42.5t-10 27t-11.5 8.5t-12 -8.5t-10.5 -27t-4.5 -42.5t4.5 -42.5
t10.5 -27t12 -8.5z" />
    <glyph glyph-name="seven.numr" horiz-adv-x="233" 
d="M35 677h163v-48q-17 -25 -39 -87q-37 -104 -37 -215v-10h-62v10q0 117 38 227q10 28 30 68h-93v55z" />
    <glyph glyph-name="eight.numr" horiz-adv-x="251" 
d="M185 508q31 -29 31 -86q0 -52 -26 -81q-24 -27 -65 -27q-40 0 -64 27q-26 29 -26 81q0 56 30 86q-25 28 -25 74q0 42 23 70q25 28 62 28q39 0 62 -28t23 -70q0 -46 -25 -74zM125 627q-22 0 -22 -47t22 -47q23 0 23 47t-23 47zM125 367q13 0 20.5 17.5t7.5 41.5
q0 23 -8 38.5t-20 15.5q-11 0 -19.5 -16t-8.5 -38q0 -24 7.5 -41.5t20.5 -17.5z" />
    <glyph glyph-name="nine.numr" horiz-adv-x="246" 
d="M189 642q22 -37 22 -106q0 -171 -112 -232l-23 50q39 22 62 68q-12 -2 -18 -2q-39 0 -64 37q-21 33 -21 93t23 94q24 36 66 36t65 -38zM124 472q5 0 11 9t10.5 27.5t4.5 41.5t-4.5 41.5t-10.5 27.5t-11 9q-9 0 -18 -22.5t-9 -55.5t9 -55.5t18 -22.5z" />
    <glyph glyph-name="zero.dnom" horiz-adv-x="251" 
d="M193 316q23 -48 23 -136t-23 -136q-25 -47 -67 -47q-43 0 -68 47q-23 48 -23 136t23 136q25 47 68 47q42 0 67 -47zM126 50q12 0 20 35t8 95t-8 95t-20 35q-29 0 -29 -130t29 -130z" />
    <glyph glyph-name="one.dnom" horiz-adv-x="165" 
d="M35 342l95 24v-366h-63v296l-32 -8v54z" />
    <glyph glyph-name="two.dnom" horiz-adv-x="226" 
d="M191 260q0 -89 -82 -207h78v-53h-126l-26 37q11 14 26.5 37.5t41.5 83t26 102.5q0 20 -7.5 34.5t-22.5 14.5q-10 0 -20.5 -5.5t-16.5 -11.5l-5 -6l-20 43q27 34 71 34q38 0 60.5 -28.5t22.5 -74.5z" />
    <glyph glyph-name="three.dnom" horiz-adv-x="240" 
d="M167 189q38 -29 38 -84q0 -47 -26.5 -77.5t-70.5 -30.5q-20 0 -38 8t-26 16l-9 8l19 41q20 -20 46 -20q21 0 31.5 16t10.5 41q0 55 -28 55h-30v53h27q27 0 27 49q0 18 -10.5 32t-26.5 14q-11 0 -21.5 -5t-15.5 -10l-4 -5l-18 39q23 34 68 34q39 0 64.5 -28.5t25.5 -70.5
q0 -49 -33 -75z" />
    <glyph glyph-name="four.dnom" horiz-adv-x="272" 
d="M204 163h33v-53h-33v-110h-62v110h-107v46l122 204h47v-197zM142 163v76l-45 -76h45z" />
    <glyph glyph-name="five.dnom" horiz-adv-x="232" 
d="M113 235q39 -1 61.5 -32.5t22.5 -86.5t-26 -87t-64 -32q-37 0 -72 30l22 46q23 -23 44 -23q34 0 34 66q0 27 -9 46.5t-26 19.5q-8 0 -25 -14l-26 29l8 163h122v-53h-62z" />
    <glyph glyph-name="six.dnom" horiz-adv-x="245" 
d="M188 220q22 -36 22 -93t-23 -94q-23 -36 -62 -36q-42 0 -66 38q-24 39 -24 106q0 70 28.5 133t83.5 100l23 -50q-35 -29 -56 -69q8 2 14 2q37 0 60 -37zM123 49q6 0 11.5 8.5t10 27t4.5 42.5t-4.5 42.5t-10 27t-11.5 8.5t-12 -8.5t-10.5 -27t-4.5 -42.5t4.5 -42.5
t10.5 -27t12 -8.5z" />
    <glyph glyph-name="seven.dnom" horiz-adv-x="233" 
d="M35 360h163v-48q-17 -25 -39 -87q-37 -104 -37 -215v-10h-62v10q0 117 38 227q10 28 30 68h-93v55z" />
    <glyph glyph-name="eight.dnom" horiz-adv-x="251" 
d="M185 191q31 -29 31 -86q0 -51 -26 -80q-24 -28 -65 -28q-40 0 -64 28q-26 29 -26 80q0 56 30 86q-25 28 -25 74q0 42 23 70q25 28 62 28q39 0 62 -28t23 -70q0 -46 -25 -74zM125 310q-22 0 -22 -47t22 -47q23 0 23 47t-23 47zM125 50q13 0 20.5 17.5t7.5 41.5
q0 23 -8 38.5t-20 15.5q-11 0 -19.5 -15.5t-8.5 -38.5q0 -24 7.5 -41.5t20.5 -17.5z" />
    <glyph glyph-name="nine.dnom" horiz-adv-x="246" 
d="M189 325q22 -35 22 -106q0 -48 -11.5 -89.5t-28 -66.5t-33 -43t-28.5 -25l-11 -7l-23 49q39 21 62 69q-9 -3 -18 -3q-39 0 -64 37q-21 33 -21 93t23 94q24 36 66 36t65 -38zM124 155q26 0 26 78t-26 78q-27 0 -27 -78t27 -78z" />
    </font>
</defs>
</svg>
