<?xml version="1.0" standalone="no"?>
<!DOCTYPE svg PUBLIC "-//W3C//DTD SVG 1.1//EN" "http://www.w3.org/Graphics/SVG/1.1/DTD/svg11.dtd" >
<svg>
<metadata>
Created by FontForge 20090622 at Tue Apr  7 20:01:26 2020
 By deploy user
Copyright (c) 2020 by Vintage Type Company. All rights reserved.
</metadata>
<defs>
<font id="VTCFellbaumGroteskItalic-Thin" horiz-adv-x="805" >
  <font-face 
    font-family="VTC Fellbaum Grotesk Italic"
    font-weight="250"
    font-stretch="normal"
    units-per-em="1000"
    panose-1="0 0 0 0 0 0 0 0 0 0"
    ascent="750"
    descent="-250"
    x-height="474"
    cap-height="677"
    bbox="-155 -210 1384 878"
    underline-thickness="50"
    underline-position="-50"
    unicode-range="U+000D-U+1F10C"
  />
<missing-glyph horiz-adv-x="627" 
d="M181 683h386l-121 -689h-386zM455 633h-179l50 -225zM230 593l-89 -509l145 254zM172 43h179l-50 226zM397 84l90 509l-146 -255z" />
    <glyph glyph-name="db.01" unicode="&#x3a;&#x29;" horiz-adv-x="794" 
d="M458 686q143 0 226.5 -101.5t58.5 -244.5q-26 -143 -145 -244.5t-262 -101.5t-226.5 101.5t-58.5 244.5q26 143 145 244.5t262 101.5zM688 340q11 59 -3 113q-12 52 -46 92q-33 41 -81 63q-52 23 -110 23q-57 0 -117 -23q-57 -23 -103 -63q-45 -36 -79 -92
q-33 -56 -43 -113q-10 -60 3 -114q14 -53 46 -92q33 -41 82 -62q51 -23 109 -23q59 0 117 23q55 21 104 62q46 40 78 92q32 53 43 114zM549 325l5 28h84l-10 -55h-31q-23 -78 -91.5 -130t-147.5 -52t-129 52t-47 130h-31l10 55h84l-5 -28q-11 -64 26 -109t101 -45t117.5 45
t64.5 109zM315 320q-19 0 -25 34q-6 31 2 76q8 44 25 77q19 34 37 34q19 0 25 -34q6 -31 -2 -77v-2h-4q-13 0 -23 -8.5t-12 -21.5q-2 -11 4 -19.5t17 -9.5q-3 -10 -7 -15q-17 -34 -37 -34zM472 320q-19 0 -25 34q-6 31 2 76q8 44 25 77q19 34 37 34q19 0 25 -34
q6 -31 -2 -77v-2h-4q-13 0 -23 -8.5t-12 -21.5q-2 -11 4 -19.5t17 -9.5q-3 -10 -7 -15q-17 -34 -37 -34z" />
    <glyph glyph-name="db.02" unicode="&#x3c;&#x33;" horiz-adv-x="582" 
d="M439 558q49 0 76.5 -34.5t18.5 -84.5q-8 -48 -42 -98.5t-76.5 -88t-83.5 -68.5t-69 -47l-28 -16q-9 6 -23.5 17t-50 45.5t-61.5 70t-43 86.5t-9 99q8 50 48 84.5t89 34.5q86 0 111 -89q58 89 143 89z" />
    <glyph glyph-name="db.03" unicode="&#x3c;&#x3c;&#x33;" horiz-adv-x="573" 
d="M421 558q53 0 83.5 -37t20.5 -92q-11 -59 -58 -120q-36 -47 -94 -94q-29 -23 -60 -44.5t-47.5 -31t-19.5 -10.5l-13 -8l-11 8q-3 1 -16 10.5t-36.5 31t-43.5 44.5q-40 45 -61 94q-27 61 -16 120q10 55 53 92t96 37q68 0 102 -56q53 56 121 56zM477 429q6 34 -13 58
q-20 23 -51 23q-60 0 -101 -65l-30 -46l-14 46q-20 65 -78 65q-32 0 -60 -23q-27 -24 -33 -58q-15 -84 68 -178q30 -36 78 -73q70 46 103 73q115 93 131 178z" />
    <glyph glyph-name="db.04" unicode="db&#x2e;&#x30;&#x31;" horiz-adv-x="779" 
d="M633 461l101 -123l-144 -122l-91 111l-118 -100l92 -111l-144 -122l-101 122l131 111l-83 100l-130 -111l-101 122l144 123l91 -111l118 100l-92 111l144 122l101 -122l-131 -111l83 -100z" />
    <glyph glyph-name="db.05" unicode="db&#x2e;&#x30;&#x32;" horiz-adv-x="779" 
d="M564 194l-83 99l-64 -54l82 -100l-170 -145l-120 145l118 100l-45 54l-118 -99l-119 144l170 145l83 -100l64 55l-82 100l170 145l120 -145l-118 -100l45 -55l118 100l119 -145zM602 413l-88 -75l62 -75l88 75zM177 263l88 75l-62 75l-88 -75zM350 538l62 -75l88 75
l-62 75zM429 139l-61 75l-89 -75l62 -75zM376 263l88 75l-61 75l-88 -75z" />
    <glyph glyph-name="db.06" unicode="db&#x2e;&#x30;&#x33;" horiz-adv-x="663" 
d="M588 409h-158l-24 -141h157l-31 -173h-173l28 157h-141l-28 -157h-173l30 173h158l25 141h-158l31 173h173l-28 -157h141l28 157h173z" />
    <glyph glyph-name="db.07" unicode="db&#x2e;&#x30;&#x34;" horiz-adv-x="663" 
d="M582 377h-141l-14 -77h141l-36 -205h-205l25 141h-77l-25 -141h-205l36 205h141l14 77h-141l36 205h205l-25 -141h77l25 141h205zM209 144l19 106h-106l-19 -106h106zM153 427h106l19 106h-106zM269 285h106l19 106h-106zM510 250h-106l-18 -106h106zM454 533l-19 -106
h106l19 106h-106z" />
    <glyph glyph-name="db.08" unicode="db&#x2e;&#x30;&#x37;" horiz-adv-x="812" 
d="M765 421q-9 -50 -68 -83q48 -32 39 -82q-7 -39 -32.5 -60.5t-61.5 -21.5t-64 20.5t-58.5 58t-47.5 52.5l-45 -39q11 -20 42 -57t46 -68.5t9 -66.5q-7 -36 -32.5 -58t-63.5 -22q-50 0 -74 53q-40 -53 -92 -53q-38 0 -55.5 22.5t-11.5 57.5t32 66.5t70.5 69t62.5 56.5
l-32 39q-22 -15 -66 -52.5t-79 -58t-71 -20.5t-54 21.5t-11 60.5q8 51 68 82q-48 32 -39 83q7 38 33 60t61 22q36 0 64 -20.5t58.5 -58t47.5 -52.5l45 38q-11 20 -42.5 57.5t-46 69t-8.5 66.5q6 36 31.5 58t64.5 22q51 0 73 -53q42 53 92 53q39 0 56.5 -22t11.5 -58
q-6 -35 -32 -66.5t-70.5 -69t-62.5 -57.5l32 -38q22 15 66 52.5t79 58t71 20.5q35 0 53.5 -21.5t11.5 -60.5z" />
    <glyph glyph-name="db.09" unicode="db&#x2e;&#x30;&#x38;" horiz-adv-x="810" 
d="M763 415q-8 -44 -47 -77q28 -32 20 -76q-8 -46 -42 -74q-31 -27 -75 -27q-42 0 -78 27q-18 13 -52 54q-18 22 -27 31l-4 -3q9 -13 25 -32q32 -40 44 -62q20 -43 13 -83q-8 -43 -40 -71q-33 -28 -79 -28q-44 0 -71 33q-38 -33 -82 -33q-45 0 -70 28q-22 28 -14 71
q7 41 42 83q19 22 65 62l37 32l-3 3q-12 -9 -38 -31q-50 -42 -71 -54q-46 -27 -88 -27q-44 0 -66 27q-23 27 -15 74q8 44 47 76q-27 34 -20 77q8 46 42 74q32 27 75 27q42 0 78 -27q18 -13 52 -54q18 -22 27 -31l4 3q-9 13 -25 32q-32 40 -44 62q-20 42 -13 83q8 42 40 70
q32 29 79 29q43 0 71 -33q39 33 82 33q47 0 70 -29q22 -28 14 -70q-7 -42 -42 -83q-19 -22 -65 -62l-37 -32l3 -3q12 9 38 31q50 42 71 54q46 27 88 27q44 0 66 -27q23 -27 15 -74zM321 584q-3 -19 4.5 -40t16 -33t27.5 -36q26 -31 40 -55l8 -14l13 14q19 21 59 55l40 36
t28.5 33.5t17.5 39.5q5 21 -6 35q-11 13 -36 13q-33 0 -61 -37l-28 -37l-16 37q-15 37 -48 37q-24 0 -40 -13q-14 -13 -19 -35zM321 328l17 10l-13 11q-21 18 -46 49q-19 23 -30 34.5t-29.5 22t-37.5 10.5q-22 0 -37 -12q-15 -14 -20 -38q-6 -33 27 -55l33 -22l-41 -22
q-40 -21 -46 -54q-5 -26 7 -38q9 -12 32 -12q28 0 55 17t66 50q51 41 63 49zM489 93q3 19 -4.5 40t-16 33t-27.5 36q-26 31 -40 55l-8 14l-13 -14q-19 -21 -59 -55l-40 -36t-28.5 -33.5t-17.5 -39.5q-5 -23 6 -35q10 -13 36 -13q33 0 61 37l28 37l16 -37q15 -37 48 -37
q26 0 40 13q14 11 19 35zM394 277l73 61l-51 62l-73 -62zM712 415q5 25 -7 38q-9 12 -32 12q-28 0 -55 -17t-66 -50q-36 -31 -63 -49l-17 -11l13 -10q14 -12 46 -49q19 -23 30 -34.5t29.5 -22t37.5 -10.5q22 0 37 12t20 38q6 33 -27 54l-33 22l41 22q40 22 46 55z" />
    <glyph glyph-name="db.10" unicode="db&#x2e;&#x30;&#x39;" horiz-adv-x="796" 
d="M733 524q22 -28 16.5 -59t-35.5 -56t-68 -33t-90.5 -7.5t-77.5 -3.5l-10 -54q23 -3 77 -2.5t88.5 -7.5t55.5 -33q21 -24 16 -56t-37 -59q-43 -36 -100 -20q5 -60 -38 -97q-33 -27 -63 -26.5t-51 25.5t-22.5 61.5t8 89.5t10.5 78h-54q-7 -23 -16.5 -77t-23.5 -90.5
t-44 -61.5q-29 -25 -60 -25.5t-54 26.5q-30 36 -4 97q-62 -16 -92 20q-22 28 -16.5 59t34.5 56q30 25 67.5 33t91.5 7.5t78 2.5l9 54q-24 4 -76.5 3.5t-88 7.5t-56.5 33q-21 24 -15.5 55.5t37.5 59.5q43 36 100 20q-5 59 37 96q34 28 64 27.5t51 -25.5t22 -61.5t-8.5 -90
t-10.5 -77.5h55q7 23 16.5 77t23.5 90.5t44 61.5t60 25.5t54 -27.5q30 -37 3 -96q63 16 93 -20z" />
    <glyph glyph-name="db.11" unicode="db&#x2e;&#x31;&#x30;" horiz-adv-x="796" 
d="M729 528q28 -32 20 -73q-8 -38 -43 -69q-37 -30 -85 -39q-27 -5 -83 -5q-15 0 -45 -2l-1 -4q15 -1 45 -1q55 0 81 -5q47 -11 71 -39q25 -31 19 -69q-8 -42 -46 -73q-35 -31 -82 -31q-9 -47 -45 -77q-37 -33 -78 -33q-39 2 -64 31q-25 31 -25 78q-1 28 9 82q1 8 3.5 23
t3.5 22h-5q-1 -5 -3 -14t-3.5 -16.5t-2.5 -14.5q-10 -56 -20 -82q-18 -49 -52 -78q-35 -29 -75 -31q-40 0 -67 33q-25 29 -17 77q-47 0 -72 31q-26 31 -20 73q8 39 44 69q32 28 84 39q28 5 83 5q31 0 45 1l1 4q-28 2 -45 2q-55 0 -81 5q-45 9 -71 39q-25 32 -18 69
q6 40 45 73q37 31 83 31q8 47 44 77q38 34 79 32q38 0 63 -31q25 -28 25 -77q1 -28 -9 -82q-1 -5 -3 -21l-3 -24h4q5 21 9 45q10 56 20 82q19 50 53 77q36 31 74 31q41 2 67 -32q26 -31 17 -77q46 0 72 -31zM269 393q61 -3 73 -4l17 -3v18q1 25 9 73q18 95 -7 124
q-13 15 -31 17q-20 0 -39 -18q-27 -23 -24 -65l3 -41l-40 10q-39 10 -66 -12q-21 -18 -24 -36q-3 -19 10 -34q11 -14 32 -20.5t38 -7.5t49 -1zM336 273l6 18l-18 -3q-33 -4 -74 -4q-95 0 -130 -29q-19 -18 -22 -34q-3 -19 11 -36q19 -24 63 -13l44 11l-19 -42q-18 -40 1 -64
q15 -18 34 -18q17 0 36 16q16 14 26.5 36t14.5 39t10 50q11 52 17 73zM347 295h87l15 87h-87zM527 284q-41 0 -72 4l-18 3v-18q-1 -25 -9 -73q-5 -34 -7 -50t0.5 -38.5t13.5 -36.5q14 -16 31 -16q19 0 40 18q28 23 23 64l-3 42l40 -11q39 -10 67 13q21 18 24 36q3 17 -11 34
q-15 19 -43.5 24t-75.5 5zM698 456q3 17 -11 36q-19 22 -63 12l-43 -10l18 41q18 42 -1 65q-15 18 -33 18q-20 -2 -37 -17q-16 -13 -26.5 -35.5t-14.5 -38.5t-10 -50q-12 -59 -17 -73l-6 -18l18 3q13 1 75 4q32 0 49 1t40.5 7.5t39.5 20.5q19 16 22 34z" />
    <glyph glyph-name="db.12" unicode="db&#x2e;&#x31;&#x31;" horiz-adv-x="704" 
d="M489 382l170 86l-134 -267h-440l-40 267l140 -86l189 210zM64 85l12 69h441l-12 -69h-441z" />
    <glyph glyph-name="db.13" unicode="db&#x2e;&#x31;&#x32;" horiz-adv-x="704" 
d="M628 485l31 -30l-132 -264h-443l-39 264l42 30l111 -68l158 175h41l95 -175zM499 242l84 168l-117 -59l-100 183l-165 -183l-96 59l25 -168h369zM84 85l9 50h405l-9 -50h-405z" />
    <glyph glyph-name="db.14" unicode="db&#x2e;&#x31;&#x33;" horiz-adv-x="623" 
d="M167 683h411l-122 -689l-189 95l-222 -95z" />
    <glyph glyph-name="db.15" unicode="db&#x2e;&#x31;&#x34;" horiz-adv-x="634" 
d="M167 683h422l-121 -689l-194 98l-229 -98zM432 72l99 561h-323l-99 -561l174 75z" />
    <glyph glyph-name="db.16" unicode="db&#x2e;&#x31;&#x35;" horiz-adv-x="1429" 
d="M1264 382h120l-9 -54h-121l-310 -264l-116 140l-165 -140l-115 140l-165 -140l-217 264h-121l9 54h121l311 264l115 -140l165 140l115 -140l165 140zM753 570l-120 -102l84 -102l120 102zM397 140l120 102l-93 113l132 113l-84 102l-252 -215zM500 355l61 -75l89 75
l-62 75zM677 140l120 102l-84 102l-120 -102zM780 355l62 -75l88 75l-62 75zM957 140l253 215l-177 215l-120 -102l93 -113l-133 -113z" />
    <glyph glyph-name="db.17" unicode="db&#x2e;&#x31;&#x36;" horiz-adv-x="1429" 
d="M1264 382h120l-9 -54h-121l-310 -264l-116 140l-165 -140l-115 140l-165 -140l-217 264h-121l9 54h121l311 264l115 -140l165 140l115 -140l165 140zM424 355l132 113l-84 102l-252 -215l177 -215l120 102zM677 140l120 102l-84 102l-120 -102zM717 366l120 102l-84 102
l-120 -102zM957 140l253 215l-177 215l-120 -102l93 -113l-133 -113z" />
    <glyph glyph-name="db.18" unicode="db&#x2e;&#x31;&#x37;" horiz-adv-x="590" 
d="M355 461q-35 23 -60 57t-30 53q-12 40 5 75t44 37q24 3 42.5 -14.5t28.5 -45.5q1 -1 4 -20t10.5 -40.5t19.5 -40.5q18 -31 48 -57t59 -37q8 -3 6 -9t-11 -6q-35 -2 -82 10.5t-84 37.5zM535 351q11 -2 9.5 -12t-13.5 -13q-327 -85 -389 -85q-47 0 -74.5 28.5t-20.5 69.5
q8 41 45.5 70t83.5 29q56 0 359 -87zM494 265q6 0 8.5 -3t0 -7t-7.5 -5q-32 -10 -72 -37t-69 -58q-19 -19 -33.5 -40t-24.5 -39.5t-12 -21.5q-19 -28 -44 -45.5t-48 -14.5q-25 2 -29.5 36.5t20.5 75.5q12 20 49 53.5t80 56.5q90 51 182 49z" />
    <glyph glyph-name="db.19" unicode="db&#x2e;&#x31;&#x38;" horiz-adv-x="590" 
d="M236 216q35 -23 60 -57t29 -53q11 -40 -5.5 -75t-42.5 -37q-48 -5 -71 60q-1 3 -4.5 21.5t-10.5 39.5t-19 40q-18 31 -48.5 58t-58.5 37q-11 3 -5 11q3 4 10 4q94 2 166 -49zM96 413q-6 0 -8 3t0.5 6.5t7.5 5.5q33 11 73 37t68 57q18 19 33 41t24.5 39.5t11.5 20.5
q46 66 92 60q26 -2 30.5 -36.5t-21.5 -75.5q-11 -19 -48 -53t-80 -57q-46 -25 -97.5 -37.5t-85.5 -10.5zM449 438q46 0 73.5 -29.5t20.5 -69.5q-7 -41 -44.5 -69.5t-84.5 -28.5q-60 0 -359 85q-7 2 -8.5 7.5t2 11t10.5 6.5q338 87 390 87z" />
    <glyph glyph-name="db.20" unicode="db&#x2e;&#x30;&#x35;" horiz-adv-x="779" 
d="M566 543l-165 -140l-115 140l164 140zM213 134l165 140l115 -140l-164 -140zM210 478l115 -140l-165 -140l-115 140zM619 478l115 -140l-165 -140l-115 140z" />
    <glyph glyph-name="db.21" unicode="db&#x2e;&#x30;&#x36;" horiz-adv-x="779" 
d="M577 529l-181 -153l-126 153l180 154zM437 610l-95 -81l67 -81l95 81zM202 148l181 153l127 -153l-181 -154zM342 66l95 82l-67 81l-95 -81zM226 492l126 -154l-180 -153l-127 153zM118 338l66 -81l96 81l-67 81zM607 492l127 -154l-181 -153l-126 153zM499 338l67 -81
l95 81l-66 81z" />
    <glyph glyph-name="fi" unicode="fi" horiz-adv-x="475" 
d="M391 474l-67 -377q-3 -21 13.5 -34.5t41.5 -13.5l-9 -55q-62 0 -92 34.5t-19 96.5l51 294h-124l-67 -381q-32 -181 -123 -181q-18 0 -36 7.5t-26 15.5l-9 7l20 43q16 -19 42 -19q37 0 61 127l67 381h-63l9 55h64l5 28q14 85 63.5 133t111.5 48q30 0 53.5 -7.5t32.5 -15.5
l9 -7l-21 -43q-20 18 -67 18q-41 0 -71 -34t-40 -92l-5 -28h195z" />
    <glyph glyph-name="fl" unicode="fl" horiz-adv-x="542" 
d="M395 97q-4 -25 11 -36.5t43 -11.5l-9 -55q-135 0 -111 131l52 294h-135l-67 -381q-32 -181 -123 -181q-18 0 -36 7.5t-26 15.5l-9 7l20 43q16 -19 42 -19q37 0 61 127l67 381h-63l9 55h64l5 28q16 89 62.5 135t105.5 46q43 0 73 -19l66 13zM256 474h134l26 142
q-20 12 -52 12q-40 0 -66.5 -33.5t-36.5 -92.5z" />
    <glyph glyph-name="ffi" unicode="ffi" horiz-adv-x="706" 
d="M652 474l-67 -377q-3 -21 13.5 -34.5t41.5 -13.5l-9 -55q-62 0 -92 34.5t-19 96.5l51 294h-124l-67 -381q-32 -181 -123 -181q-18 0 -36 7.5t-27 15.5l-8 7l20 43q16 -19 42 -19q37 0 61 127l67 381h-130l-67 -381q-32 -181 -123 -181q-18 0 -36 7.5t-26 15.5l-9 7l20 43
q16 -19 42 -19q37 0 61 127l67 381h-63l9 55h64l5 28q15 86 68 133.5t127 47.5q61 0 91 -30q40 30 90 30q30 0 53.5 -7.5t32.5 -15.5l9 -7l-21 -43q-20 18 -67 18q-41 0 -71 -34t-40 -92l-5 -28h195zM391 502q11 69 49 116q-24 10 -54 10q-49 0 -82 -33.5t-43 -92.5l-5 -28
h130z" />
    <glyph glyph-name="ffl" unicode="ffl" horiz-adv-x="743" 
d="M596 97q-4 -25 11 -36.5t43 -11.5l-9 -55q-135 0 -111 131l52 294h-135l-67 -381q-32 -181 -123 -181q-18 0 -36 7.5t-27 15.5l-8 7l20 43q16 -19 42 -19q37 0 61 127l67 381h-130l-67 -381q-32 -181 -123 -181q-18 0 -36 7.5t-26 15.5l-9 7l20 43q16 -19 42 -19
q37 0 61 127l67 381h-63l9 55h64l5 28q15 86 68 133.5t127 47.5q57 0 89 -28q38 28 85 28q43 0 73 -19l66 13zM391 502q11 70 47 117q-22 9 -52 9q-49 0 -82 -33.5t-43 -92.5l-5 -28h130zM457 474h134l26 142q-20 12 -52 12q-40 0 -66.5 -33.5t-36.5 -92.5z" />
    <glyph glyph-name="fj" unicode="fj" horiz-adv-x="511" 
d="M256 474h210l-94 -531q-15 -88 -58.5 -120t-129.5 -32l10 55q46 0 72.5 22t35.5 75l83 476h-139l-67 -381q-32 -181 -123 -181q-18 0 -36 7.5t-26 15.5l-9 7l20 43q16 -19 42 -19q37 0 61 127l67 381h-63l9 55h64l5 28q14 85 63.5 133t111.5 48q30 0 53.5 -7.5
t32.5 -15.5l9 -7l-21 -43q-20 18 -67 18q-41 0 -71 -34t-40 -92z" />
    <glyph glyph-name="tt" unicode="tt" horiz-adv-x="579" 
d="M434 425l-46 -264q-9 -52 3.5 -82t41.5 -30q14 0 28.5 7.5t22.5 15.5l7 7l18 -39q-3 -5 -9 -12.5t-29.5 -20.5t-52.5 -13q-54 0 -84 47.5t-16 124.5l46 259h-175l-46 -264q-9 -52 3.5 -82t41.5 -30q14 0 28.5 7.5t21.5 15.5l8 7l18 -39q-3 -5 -9 -12.5t-29.5 -20.5
t-52.5 -13q-54 0 -84 48t-16 124l46 259h-74l10 55q45 0 67.5 27t34.5 89l66 17l-24 -133h101q45 0 67.5 27t34.5 89l66 17l-24 -133h90l-9 -55h-91z" />
    <glyph glyph-name="ft" unicode="ft" horiz-adv-x="557" 
d="M417 419l-46 -258q-9 -52 3.5 -82t41.5 -30q14 0 28.5 7.5t21.5 15.5l8 7l18 -39q-3 -5 -8.5 -12.5t-29 -20.5t-52.5 -13q-54 0 -84 47.5t-17 124.5l45 253h-135l-67 -381q-32 -181 -123 -181q-18 0 -36 7.5t-27 15.5l-8 7l20 43q16 -19 42 -19q37 0 61 127l67 381h-63
l9 55h64l5 28q16 89 62.5 135t105.5 46q46 0 79 -23l60 17l-36 -203h91l-10 -55h-90zM299 474q37 0 54 24.5t34 114.5q-24 15 -58 15q-40 0 -66.5 -33.5t-36.5 -92.5l-5 -28h78z" />
    <glyph glyph-name=".notdef" horiz-adv-x="627" 
d="M181 683h386l-121 -689h-386zM455 633h-179l50 -225zM230 593l-89 -509l145 254zM172 43h179l-50 226zM397 84l90 509l-146 -255z" />
    <glyph glyph-name=".null" horiz-adv-x="0" 
 />
    <glyph glyph-name="nonmarkingreturn" horiz-adv-x="333" 
 />
    <glyph glyph-name="NULL" horiz-adv-x="200" 
 />
    <glyph glyph-name="CR" unicode="&#xd;" horiz-adv-x="200" 
 />
    <glyph glyph-name="space" unicode=" " horiz-adv-x="200" 
 />
    <glyph glyph-name="exclam" unicode="!" horiz-adv-x="219" 
d="M50 0l13 74h74l-13 -74h-74zM169 677h75l-21 -117l-81 -362h-40l47 362z" />
    <glyph glyph-name="quotedbl" unicode="&#x22;" horiz-adv-x="235" 
d="M35 474l9 203h66l-63 -203h-12zM134 677h66l-63 -203h-12z" />
    <glyph glyph-name="numbersign" unicode="#" horiz-adv-x="553" 
d="M479 412h-94l-44 -153h92l-9 -50h-97l-60 -209h-55l60 209h-65l-60 -209h-55l60 209h-87l9 50h92l44 153h-99l9 50h104l59 209h56l-60 -209h65l59 209h56l-60 -209h89zM286 259l44 153h-65l-44 -153h65z" />
    <glyph glyph-name="dollar" unicode="$" horiz-adv-x="382" 
d="M263 599q28 -3 50.5 -13t30.5 -18l8 -9l-28 -44q-25 31 -69 31q-33 0 -54.5 -19t-26.5 -49q-5 -29 15 -68t46.5 -72t45.5 -77t13 -81q-8 -45 -38.5 -73t-76.5 -34l-14 -79h-49l14 78q-29 3 -54 14t-36 20l-10 10l29 45q33 -36 90 -36q66 0 77 61q5 30 -14.5 70.5
t-45.5 74.5t-45 78.5t-13 81.5q7 42 36 69t70 36l15 81h48z" />
    <glyph glyph-name="percent" unicode="%" horiz-adv-x="599" 
d="M151 323q-50 0 -72.5 48.5t-7.5 131.5q15 84 54.5 132t89.5 48t72.5 -48t7.5 -132q-15 -83 -54.5 -131.5t-89.5 -48.5zM125 503q-10 -58 -0.5 -93.5t35.5 -35.5q27 0 48.5 35.5t31.5 93.5q11 59 1.5 94t-35.5 35q-27 0 -48.5 -35t-32.5 -94zM447 353q50 0 73 -48t8 -131
q-15 -84 -54.5 -132t-89.5 -48t-73 48t-8 132q15 83 54.5 131t89.5 48zM473 174q11 58 1.5 93t-36.5 35q-26 0 -47.5 -35t-32.5 -93t-1.5 -93.5t36.5 -35.5q26 0 47.5 35t32.5 94zM443 677h58l-354 -677h-58z" />
    <glyph glyph-name="ampersand" unicode="&#x26;" horiz-adv-x="440" 
d="M364 146l56 -92l-44 -51l-46 75q-54 -84 -141 -84q-69 0 -108.5 49.5t-26.5 124.5q19 106 130 185q-38 103 -24 180q12 73 50 111.5t91 38.5t82 -40t16 -116q-11 -58 -54 -106.5t-88 -78.5q22 -54 71 -137q15 51 29 130h55q-23 -124 -48 -189zM230 527q-12 -65 10 -140
q74 59 88 140q8 46 -0.5 73.5t-30.5 27.5q-23 0 -41 -27.5t-26 -73.5zM195 49q63 0 104 80q-64 107 -95 175q-65 -58 -78 -130q-10 -55 9 -90t60 -35z" />
    <glyph glyph-name="quotesingle" unicode="'" horiz-adv-x="65" 
d="M44 677h66l-63 -203h-12z" />
    <glyph glyph-name="parenleft" unicode="(" horiz-adv-x="291" 
d="M119 237q-16 -112 -9.5 -199t22.5 -140l16 -52l-36 -55q-2 4 -6 10.5t-15 29.5t-20 48.5t-18.5 65.5t-13.5 82.5t-2.5 97.5t11.5 112q14 78 41.5 152t57.5 125t58 91t46 59l18 19l17 -55q-14 -19 -36.5 -53.5t-68 -137t-62.5 -200.5z" />
    <glyph glyph-name="parenright" unicode=")" horiz-adv-x="270" 
d="M158 683q2 -4 6 -10.5t15 -29.5t20 -48.5t18.5 -65.5t13.5 -82.5t2.5 -97.5t-11.5 -112q-14 -78 -41.5 -152t-57.5 -125t-58 -91t-46 -59l-18 -19l-16 55l14 20t33 54t44.5 84.5t42 107t32.5 125.5q16 112 10 199t-22 140l-16 52z" />
    <glyph glyph-name="asterisk" unicode="*" horiz-adv-x="331" 
d="M286 611l-95 -53l76 -53l-18 -23l-74 51l-17 -94h-27l16 94l-92 -51l-10 23l95 53l-76 53l18 24l74 -52l17 94h27l-16 -94l92 52z" />
    <glyph glyph-name="plus" unicode="+" horiz-adv-x="318" 
d="M191 267h92l-10 -55h-92l-16 -91h-55l16 91h-91l10 55h91l16 92h55z" />
    <glyph glyph-name="comma" unicode="," horiz-adv-x="186" 
d="M76 113h75l-89 -148h-52z" />
    <glyph glyph-name="hyphen" unicode="-" horiz-adv-x="340" 
d="M55 267h240l-10 -55h-240z" />
    <glyph glyph-name="period" unicode="." horiz-adv-x="157" 
d="M48 74h74l-13 -74h-74z" />
    <glyph glyph-name="slash" unicode="/" horiz-adv-x="379" 
d="M298 683h56l-273 -689h-56z" />
    <glyph glyph-name="zero" unicode="0" horiz-adv-x="390" 
d="M232 486q73 0 104 -64t10 -182q-21 -120 -69 -183t-120 -63q-73 0 -103.5 64t-9.5 182q21 120 68.5 183t119.5 63zM275 240q15 88 2.5 139.5t-48.5 51.5q-37 0 -67.5 -51.5t-46.5 -139.5q-15 -88 -2.5 -139.5t48.5 -51.5t67 51.5t47 139.5z" />
    <glyph glyph-name="one" unicode="1" horiz-adv-x="227" 
d="M56 453l136 33l-86 -486h-71l73 412l-62 -15z" />
    <glyph glyph-name="two" unicode="2" horiz-adv-x="337" 
d="M299 351q-21 -124 -197 -296h145l-10 -55h-186l-16 55q172 182 193 296q6 33 -5.5 56.5t-40.5 23.5q-16 0 -32 -7.5t-24 -15.5l-7 -8l-13 45q3 5 10 11.5t31 18t52 11.5q50 0 80 -38.5t20 -96.5z" />
    <glyph glyph-name="three" unicode="3" horiz-adv-x="344" 
d="M307 353q-5 -28 -17 -53t-25.5 -40.5t-26.5 -27t-22 -16.5l-8 -5l8 -5.5t18.5 -17t20 -29.5t13.5 -42.5t-1 -55.5q-8 -47 -38.5 -92t-68.5 -76t-74.5 -55t-61.5 -36l-24 -11l-15 52q8 3 20.5 10t46.5 29t61 47t53 65t33 81q8 46 -11 82t-48 26l-42 -14l-13 43
q78 26 110.5 59.5t40.5 79.5q6 33 -7.5 56.5t-47.5 23.5q-18 0 -37 -7.5t-29 -15.5l-10 -8l-13 45q4 5 12 11.5t34 18t54 11.5q57 0 91 -38.5t24 -94.5z" />
    <glyph glyph-name="four" unicode="4" horiz-adv-x="390" 
d="M284 140h71l-10 -55h-70l-51 -288h-71l51 288h-153l-16 55l271 340h38zM214 140l34 193l-151 -193h117z" />
    <glyph glyph-name="five" unicode="5" horiz-adv-x="358" 
d="M313 425h-121l-45 -196q22 10 45 10q55 0 84 -39.5t18 -102.5q-9 -50 -42.5 -100t-75 -85.5t-81.5 -63.5t-67 -42l-28 -15l-15 52l23.5 13.5t52.5 35.5t68.5 55t58.5 69.5t35 80.5q7 38 -7.5 62.5t-45.5 24.5q-20 0 -39.5 -8t-29.5 -16l-10 -8l-27 32l68 296h191z" />
    <glyph glyph-name="six" unicode="6" horiz-adv-x="374" 
d="M227 413q60 0 91.5 -56t13.5 -154q-16 -94 -61.5 -151.5t-110.5 -57.5q-74 0 -105.5 66t-10.5 186q12 70 34.5 132t47.5 105.5t53 80t53.5 59t46 38t32.5 21.5l12 7l16 -55l-14.5 -9t-36 -28.5t-51 -51t-54 -78t-50.5 -106.5q4 6 11 14.5t31.5 23t51.5 14.5zM261 203
q13 66 0.5 110.5t-44.5 44.5t-59.5 -44t-39.5 -111q-7 -45 -5 -79t15 -54.5t35 -20.5q32 0 59.5 43.5t38.5 110.5z" />
    <glyph glyph-name="seven" unicode="7" horiz-adv-x="375" 
d="M59 480h281l-10 -59q-9 -11 -23.5 -31.5t-54.5 -86.5t-73.5 -135t-69.5 -171t-53 -200h-71q18 104 54 207t73.5 175t72 129t57.5 85l22 28h-216z" />
    <glyph glyph-name="eight" unicode="8" horiz-adv-x="427" 
d="M387 503q-18 -101 -89 -148q65 -52 44 -171q-17 -94 -64.5 -142t-114.5 -48q-68 0 -104 49t-19 141q21 119 104 171q-55 47 -37 148q14 81 59 127.5t106 46.5q62 0 96 -47t19 -127zM272 188q11 62 -4 100.5t-52 38.5t-65.5 -38.5t-39.5 -100.5t4 -100.5t52 -38.5
q36 0 65 38.5t40 100.5zM315 498q10 55 -3 89.5t-44 34.5t-56 -34.5t-35 -89.5q-9 -53 5 -84.5t44 -31.5q29 0 54.5 31.5t34.5 84.5z" />
    <glyph glyph-name="nine" unicode="9" horiz-adv-x="374" 
d="M214 486q75 0 106 -66t10 -186q-17 -96 -52 -176.5t-72.5 -127.5t-73 -80.5t-58.5 -45.5l-23 -13l-16 55l14 8.5t35.5 28t50 50t53 75.5t50.5 104q-35 -45 -91 -45q-63 0 -92.5 55t-12.5 155q16 94 61.5 151.5t110.5 57.5zM256 277q11 67 -0.5 110.5t-43.5 43.5
q-33 0 -60.5 -43.5t-38.5 -110.5q-12 -66 0 -110.5t44 -44.5t59.5 43.5t39.5 111.5z" />
    <glyph glyph-name="colon" unicode=":" horiz-adv-x="229" 
d="M35 0l13 74h74l-13 -74h-74zM120 480h74l-13 -75h-75z" />
    <glyph glyph-name="semicolon" unicode=";" horiz-adv-x="215" 
d="M-25 -35l66 148h75l-89 -148h-52zM106 480h74l-13 -75h-74z" />
    <glyph glyph-name="less" unicode="&#x3c;" horiz-adv-x="346" 
d="M301 393l-185 -152l131 -151l-34 -53l-168 204l240 205z" />
    <glyph glyph-name="equal" unicode="=" horiz-adv-x="338" 
d="M35 119l10 55h240l-10 -55h-240zM63 277h240l-9 -54h-241z" />
    <glyph glyph-name="greater" unicode="&#x3e;" horiz-adv-x="346" 
d="M133 446l168 -205l-241 -204l-15 53l184 151l-131 152z" />
    <glyph glyph-name="question" unicode="?" horiz-adv-x="366" 
d="M204 683q51 0 85 -34t24 -89q-5 -26 -25 -55t-46 -54l-52 -49.5t-46 -52t-24 -52.5q-4 -22 7.5 -36t31.5 -14q16 0 30.5 6.5t20.5 12.5l7 6l11 -39q-3 -5 -9.5 -11.5t-28.5 -18t-46 -11.5q-45 0 -72 29.5t-20 72.5q6 35 36 74.5t62.5 68.5t61.5 63t34 60q5 29 -8 48.5
t-40 19.5q-19 0 -37 -7.5t-27 -14.5l-8 -8l-13 42q4 5 11.5 12t31 19t48.5 12zM52 0l13 74h74l-13 -74h-74z" />
    <glyph glyph-name="at" unicode="@" horiz-adv-x="799" 
d="M460 597q94 0 165.5 -49t102.5 -128t16 -167q-34 -194 -169 -194q-42 0 -73.5 17.5t-41.5 34.5l-11 17q-1 -3 -3.5 -7.5t-11.5 -16.5t-19 -21t-26 -16.5t-34 -7.5q-53 0 -77.5 51.5t-8.5 142.5q17 97 58.5 145.5t98.5 48.5q30 0 51.5 -17.5t28.5 -34.5l7 -17l-30 -169
q-11 -58 18 -87t81 -29q46 0 74 39.5t43 120.5q22 125 -48.5 215.5t-198.5 90.5q-127 0 -228 -89t-124 -217q-22 -123 51.5 -214.5t193.5 -91.5q33 0 71.5 7t60.5 14l22 7l16 -35q-78 -32 -177 -32q-61 0 -118 27t-97.5 72.5t-60 110.5t-7.5 135q26 151 140.5 247.5
t264.5 96.5zM444 356q0 5 -0.5 11.5t-7 18t-18.5 11.5q-25 0 -49 -40t-35 -104q-12 -72 -6.5 -108t26.5 -36t40.5 37t31.5 107z" />
    <glyph glyph-name="A" unicode="A" horiz-adv-x="401" 
d="M334 677l32 -677h-76l-5 179h-119l-69 -179h-72l271 677h38zM186 234h97l-7 235z" />
    <glyph glyph-name="B" unicode="B" horiz-adv-x="388" 
d="M367 499q-4 -27 -15 -50.5t-23.5 -39t-24.5 -26.5t-20 -16l-7 -5q2 -1 4.5 -3l11 -9t14.5 -16l15 -23.5t12 -31t5.5 -39t-3.5 -47.5q-16 -93 -60 -143t-109 -50h-142l119 677h107q65 0 98.5 -44t17.5 -134zM262 191q9 55 -4 95t-46 40h-55l-47 -268h54q34 0 61 38t37 95z
M294 502q9 52 -2.5 84.5t-46.5 32.5h-36l-42 -235h37q34 0 57 33t33 85z" />
    <glyph glyph-name="C" unicode="C" horiz-adv-x="357" 
d="M288 683q22 0 41 -6t30 -14.5t19 -17.5t11 -15l3 -6l-31 -47l-2.5 5t-7.5 11.5t-13.5 15t-20 11.5t-27.5 5q-57 0 -100 -77.5t-65 -209.5q-25 -122 -7.5 -204.5t81.5 -82.5q24 0 44.5 11t28.5 22l8 11l13 -47q-1 -2 -3.5 -5.5t-11.5 -13t-20 -16.5t-29.5 -13t-39.5 -6
q-83 0 -127 81.5t-17 234.5l10 57q27 154 92 235t141 81z" />
    <glyph glyph-name="D" unicode="D" horiz-adv-x="405" 
d="M259 677q73 0 104.5 -74.5t3.5 -235.5l-10 -57q-54 -310 -202 -310h-130l119 677h115zM288 338q24 142 13.5 211.5t-52.5 69.5h-40l-99 -561h39q42 0 78 70.5t61 209.5z" />
    <glyph glyph-name="E" unicode="E" horiz-adv-x="336" 
d="M361 619h-152l-38 -213h115l-10 -58h-115l-51 -290h152l-11 -58h-226l119 677h227z" />
    <glyph glyph-name="F" unicode="F" horiz-adv-x="370" 
d="M385 619h-176l-42 -235h146l-10 -57h-146l-58 -327h-74l119 677h251z" />
    <glyph glyph-name="G" unicode="G" horiz-adv-x="387" 
d="M197 352l10 58h129l-52 -294q-1 -5 -3.5 -13t-13.5 -29t-24.5 -37.5t-38 -29.5t-53.5 -13q-74 0 -107.5 79.5t-5.5 236.5l10 57q28 158 85.5 237t134.5 79q30 0 53.5 -11.5t32.5 -23.5l8 -11l-29 -45q-19 33 -57 33q-53 0 -94.5 -79t-64.5 -208q-24 -139 -14 -213t53 -74
q19 0 34 17.5t20 34.5l6 17l41 232h-60z" />
    <glyph glyph-name="H" unicode="H" horiz-adv-x="382" 
d="M343 677h74l-119 -677h-75l56 316h-124l-56 -316h-74l119 677h75l-54 -304h124z" />
    <glyph glyph-name="I" unicode="I" horiz-adv-x="184" 
d="M144 677h75l-120 -677h-74z" />
    <glyph glyph-name="J" unicode="J" horiz-adv-x="416" 
d="M317 677h74l-84 -477q-19 -106 -59.5 -156t-111.5 -50q-32 0 -60 11t-40 23l-11 11l32 50q3 -4 9 -10.5t26 -17t42 -10.5q38 0 61.5 36.5t37.5 112.5z" />
    <glyph glyph-name="K" unicode="K" horiz-adv-x="417" 
d="M432 677l-172 -235l58 -442h-78l-47 351l-42 -57l-52 -294h-74l119 677h75l-43 -245l179 245h77z" />
    <glyph glyph-name="L" unicode="L" horiz-adv-x="304" 
d="M110 58h149l-10 -58h-224l119 677h75z" />
    <glyph glyph-name="M" unicode="M" horiz-adv-x="550" 
d="M475 677h75l-74 -677h-74l54 475l-173 -481h-60l-3 477l-113 -471h-72l164 677h77l27 -419z" />
    <glyph glyph-name="N" unicode="N" horiz-adv-x="434" 
d="M362 677h72l-120 -683h-72l-67 448l-78 -442h-72l119 677h73l66 -449z" />
    <glyph glyph-name="O" unicode="O" horiz-adv-x="384" 
d="M250 683q72 0 103 -75t2 -241l-11 -57q-55 -316 -200 -316q-73 0 -104 75t-1 241l10 57q29 169 79.5 242.5t121.5 73.5zM275 338q24 134 16.5 210.5t-44.5 76.5t-71 -76t-58 -211q-24 -134 -16.5 -210.5t44.5 -76.5t71.5 76.5t57.5 210.5z" />
    <glyph glyph-name="P" unicode="P" horiz-adv-x="374" 
d="M268 677q67 0 104.5 -46t21.5 -134q-16 -90 -64 -135.5t-115 -45.5h-50l-56 -316h-74l119 677h114zM319 497q10 55 -6 88.5t-51 33.5h-43l-44 -245h44q35 0 62.5 33.5t37.5 89.5z" />
    <glyph glyph-name="Q" unicode="Q" horiz-adv-x="384" 
d="M250 683q72 0 103 -75t2 -241l-11 -57q-48 -278 -166 -311q4 -39 42 -39h5l-10 -57h-5q-56 0 -82 25.5t-25 72.5q-112 42 -64 309l10 57q29 169 79.5 242.5t121.5 73.5zM275 338q24 134 16.5 210.5t-44.5 76.5t-71 -76t-58 -211q-24 -134 -16.5 -210.5t44.5 -76.5
t71.5 76.5t57.5 210.5z" />
    <glyph glyph-name="R" unicode="R" horiz-adv-x="384" 
d="M252 677q70 0 106 -44.5t21 -130.5q-25 -139 -129 -169l45 -333h-73l-43 327h-22l-58 -327h-74l119 677h108zM305 502q10 56 -5.5 86.5t-51.5 30.5h-39l-42 -235h40q36 0 62 31t36 87z" />
    <glyph glyph-name="S" unicode="S" horiz-adv-x="400" 
d="M273 683q36 0 65.5 -13.5t40.5 -27.5l11 -13l-29 -45q-4 5 -10.5 11.5t-29 18t-46.5 11.5q-35 0 -59 -23t-31 -60q-5 -31 8.5 -72.5t36.5 -82.5l45.5 -83.5t35.5 -88.5t6 -84q-11 -62 -55 -99.5t-107 -37.5q-43 0 -78 15t-49 30l-13 15l32 50q2 -2 4.5 -5.5t12.5 -13
t21 -16.5t28 -12.5t34 -5.5q82 0 98 91q7 41 -15.5 96.5t-52.5 103t-51.5 105.5t-13.5 103q11 61 54.5 97t106.5 36z" />
    <glyph glyph-name="T" unicode="T" horiz-adv-x="320" 
d="M35 677h300l-11 -58h-112l-109 -619h-75l109 619h-112z" />
    <glyph glyph-name="U" unicode="U" horiz-adv-x="361" 
d="M312 677h74l-82 -465q-38 -218 -168 -218q-62 0 -92 54t-11 164l82 465h75l-81 -456q-16 -93 -8 -131.5t39 -38.5q32 0 54 39.5t38 130.5z" />
    <glyph glyph-name="V" unicode="V" horiz-adv-x="403" 
d="M306 677h72l-276 -677h-39l-38 677h76l18 -478z" />
    <glyph glyph-name="W" unicode="W" horiz-adv-x="470" 
d="M443 677h72l-242 -677h-39l-2 462l-164 -462h-39l-4 677h76l-10 -442l147 442h68l-9 -442z" />
    <glyph glyph-name="X" unicode="X" horiz-adv-x="492" 
d="M467 677l-178 -321l71 -356h-79l-49 243l-130 -243h-77l192 346l-67 331h79l44 -218l116 218h78z" />
    <glyph glyph-name="Y" unicode="Y" horiz-adv-x="317" 
d="M274 677h78l-186 -335l-60 -342h-75l61 345l-67 332h80l44 -237z" />
    <glyph glyph-name="Z" unicode="Z" horiz-adv-x="421" 
d="M147 677h249l-11 -64l-275 -555h177l-10 -58h-252l11 63l275 556h-174z" />
    <glyph glyph-name="bracketleft" unicode="[" horiz-adv-x="413" 
d="M190 677h188l-10 -55h-117l-135 -770h116l-9 -55h-188z" />
    <glyph glyph-name="backslash" unicode="\" horiz-adv-x="186" 
d="M106 683l30 -689h-56l-30 689h56z" />
    <glyph glyph-name="bracketright" unicode="]" horiz-adv-x="353" 
d="M130 677h188l-155 -880h-188l10 55h117l135 770h-117z" />
    <glyph glyph-name="asciicircum" unicode="^" horiz-adv-x="282" 
d="M181 621l66 -93h-52l-43 64l-64 -64h-53l99 93h47z" />
    <glyph glyph-name="underscore" unicode="_" horiz-adv-x="368" 
d="M45 49h288l-10 -55h-288z" />
    <glyph glyph-name="grave" unicode="`" horiz-adv-x="171" 
d="M103 621l33 -93h-49l-52 93h68z" />
    <glyph glyph-name="a" unicode="a" horiz-adv-x="402" 
d="M302 98q-4 -24 11.5 -36.5t43.5 -12.5l-10 -55q-24 0 -42.5 5.5t-28.5 13.5t-16.5 16t-8.5 13l-2 6q-3 -6 -9.5 -15t-31 -24t-54.5 -15q-53 0 -85 43t-20 110q13 75 73.5 125t148.5 50q9 50 -9 76.5t-55 26.5q-22 0 -40.5 -8.5t-26.5 -16.5l-8 -8l-26 42q5 5 13.5 12.5
t37.5 20.5t60 13q63 0 100.5 -42.5t22.5 -125.5zM245 174l16 93q-51 0 -92 -34.5t-49 -82.5q-6 -38 6.5 -65.5t42.5 -27.5q55 0 76 117z" />
    <glyph glyph-name="b" unicode="b" horiz-adv-x="368" 
d="M244 480q49 0 68.5 -59t1.5 -159l-10 -58q-18 -102 -58 -156t-96 -54q-61 0 -88.5 55t-9.5 155l80 457h-55l9 52h129l-50 -281q3 5 9.5 13t27 21.5t42.5 13.5zM239 237q15 91 8.5 139.5t-31.5 48.5t-49 -49t-40 -139q-15 -91 -8.5 -139.5t31.5 -48.5t49 49t40 139z" />
    <glyph glyph-name="c" unicode="c" horiz-adv-x="375" 
d="M240 480q26 0 48.5 -11t31.5 -23l10 -11l-22 -45q-24 35 -64 35q-85 0 -118 -188q-15 -86 4.5 -137t64.5 -51q18 0 33 7t21 14l6 7l20 -44q-3 -4 -10 -10.5t-31 -17.5t-52 -11q-71 0 -109 64t-23 150l10 58q19 103 66 158.5t114 55.5z" />
    <glyph glyph-name="d" unicode="d" horiz-adv-x="436" 
d="M283 97q-4 -23 11 -35.5t44 -12.5l-10 -55q-25 0 -44.5 5.5t-29.5 13t-17 15.5t-9 14l-2 5q-2 -6 -7.5 -15t-25 -23.5t-43.5 -14.5q-59 0 -87 58.5t-11 155.5l10 58q20 112 58.5 163t86.5 51q22 0 38 -12t21 -24l5 -12l40 229h-70l9 52h141zM240 237q32 188 -22 188
q-57 0 -90 -188t24 -188q55 0 88 188z" />
    <glyph glyph-name="e" unicode="e" horiz-adv-x="358" 
d="M224 480q56 0 77.5 -60.5t3.5 -157.5l-6 -36h-175q-31 -177 62 -177q19 0 37.5 10.5t26.5 20.5l9 11l21 -46q-4 -6 -11.5 -14.5t-34.5 -22.5t-58 -14q-66 0 -104.5 57t-21.5 153l10 58q18 106 61.5 162t102.5 56zM237 273q13 65 7.5 108.5t-30.5 43.5q-24 0 -47 -43
t-35 -109h105z" />
    <glyph glyph-name="f" unicode="f" horiz-adv-x="428" 
d="M261 502l-5 -28h111l-10 -55h-111l-67 -381q-32 -181 -123 -181q-18 0 -36 7.5t-26 15.5l-9 7l20 43q16 -19 42 -19q37 0 61 127l67 381h-63l9 55h64l5 28q31 181 131 181q17 0 32.5 -7.5t22.5 -15.5l7 -7l-20 -43q-12 18 -34 18q-47 0 -68 -126z" />
    <glyph glyph-name="g" unicode="g" horiz-adv-x="448" 
d="M322 474h81l-10 -55h-33l-78 -447q-18 -96 -52.5 -138.5t-90.5 -42.5q-43 0 -71.5 34t-19.5 89h47q-5 -29 7 -48.5t37 -19.5q26 0 42 27t29 99l13 72q-2 -6 -5.5 -14t-20 -22t-39.5 -14q-49 0 -73.5 57t-7.5 153l10 58q38 218 135 218q23 0 40 -12.5t22 -25.5l6 -12z
M266 237q33 188 -20 188q-27 0 -51.5 -50.5t-40.5 -137.5q-14 -86 -7 -137t32 -51q54 0 87 188z" />
    <glyph glyph-name="h" unicode="h" horiz-adv-x="410" 
d="M310 97q-4 -25 12.5 -36.5t42.5 -11.5l-10 -55q-63 0 -92.5 32.5t-17.5 101.5l31 179q10 57 1 87.5t-33 30.5t-44 -31t-30 -87l-54 -307h-71l116 661h-55l10 52h125l-46 -262q29 29 66 29q50 0 75 -49t9 -138z" />
    <glyph glyph-name="i" unicode="i" horiz-adv-x="254" 
d="M130 614h79l-12 -71h-79zM181 474l-67 -377q-4 -20 13 -34t42 -14l-10 -55q-61 0 -91.5 34.5t-19.5 96.5l52 294h-55l10 55h126z" />
    <glyph glyph-name="j" unicode="j" horiz-adv-x="401" 
d="M192 419l9 55h126l-93 -531q-16 -88 -59.5 -120t-129.5 -32l10 55q47 0 73 21.5t35 75.5l84 476h-55zM277 614h79l-13 -71h-78z" />
    <glyph glyph-name="k" unicode="k" horiz-adv-x="418" 
d="M371 371q-14 -81 -104 -133l25 -146q8 -43 41 -43l-10 -55q-46 0 -67.5 30t-34.5 101l-15 84l-56 -17l-34 -192h-71l116 661h-60l9 52h132l-56 -314q2 3 5 8t13.5 18t22.5 23t30.5 18t38.5 8q39 0 60.5 -31t14.5 -72zM299 364q9 55 -26 55q-32 0 -68 -59t-47 -121
q5 2 14 6t31.5 16.5t40.5 26.5t34.5 34.5t20.5 41.5z" />
    <glyph glyph-name="l" unicode="l" horiz-adv-x="269" 
d="M115 97q-4 -25 11 -36.5t44 -11.5l-10 -55q-133 0 -111 131l95 536h-55l9 52h126z" />
    <glyph glyph-name="m" unicode="m" horiz-adv-x="591" 
d="M492 97q-4 -24 11 -36t43 -12l-10 -55q-133 0 -108 144l30 169q10 60 1 89t-34 29q-24 0 -44 -30t-30 -88l-54 -307h-71l54 307q10 60 0.5 89t-34.5 29t-45.5 -30t-30.5 -88l-54 -307h-71l74 419h-49l10 55h71l23 -50q36 56 90 56q67 0 87 -64q36 64 94 64q54 0 75.5 -48
t5.5 -139z" />
    <glyph glyph-name="n" unicode="n" horiz-adv-x="410" 
d="M310 97q-4 -24 11.5 -36t43.5 -12l-10 -55q-133 0 -108 144l30 169q10 60 1 89t-34 29q-24 0 -44 -30t-30 -88l-54 -307h-71l74 419h-49l10 55h71l23 -50q36 56 90 56t75.5 -48t5.5 -139z" />
    <glyph glyph-name="o" unicode="o" horiz-adv-x="374" 
d="M225 480q61 0 88 -54t8 -160l-10 -58q-37 -214 -163 -214q-57 0 -85.5 55t-10.5 159l10 58q19 107 62 160.5t101 53.5zM245 237q16 77 10.5 132.5t-35.5 55.5q-59 0 -92 -188t25 -188q59 0 92 188z" />
    <glyph glyph-name="p" unicode="p" horiz-adv-x="426" 
d="M296 480q48 0 71.5 -58.5t6.5 -159.5l-11 -58q-37 -210 -134 -210q-23 0 -40.5 12.5t-23.5 25.5l-6 12l-43 -247h-71l110 622h-45l10 55h72l21 -44q3 6 9.5 14t28 22t45.5 14zM298 237q16 90 10 139t-32 49q-56 0 -89 -188q-15 -91 -9 -139.5t31 -48.5t49.5 49.5
t39.5 138.5z" />
    <glyph glyph-name="q" unicode="q" horiz-adv-x="395" 
d="M350 474l-110 -621h55l-10 -56h-125l43 247q-3 -6 -8.5 -14t-26.5 -22t-45 -14q-45 0 -66 53t-3 157l10 58q18 104 56 161t84 57q23 0 39.5 -12.5t22.5 -25.5l5 -12l24 44h55zM154 49q56 0 89 188t-23 188t-89 -188t23 -188z" />
    <glyph glyph-name="r" unicode="r" horiz-adv-x="374" 
d="M268 480q17 0 32.5 -5t21.5 -11l7 -5l-25 -54q-18 20 -46 20q-67 0 -93 -146l-49 -279h-71l74 419h-49l10 55h71l24 -52q38 58 93 58z" />
    <glyph glyph-name="s" unicode="s" horiz-adv-x="374" 
d="M232 480q28 0 52 -11.5t34 -22.5l11 -12l-27 -42q-22 33 -67 33q-56 0 -65 -51q-5 -25 15 -61t46 -66.5t45 -70.5t13 -73q-9 -52 -43 -80.5t-86 -28.5q-25 0 -45.5 8t-33 19.5t-21 23t-12.5 19.5l-3 8l29 45q1 -3 3 -7.5t10 -16t17 -20.5t24 -16.5t32 -7.5q52 0 62 59
q4 25 -16 60t-45.5 66t-44.5 71t-13 74q9 50 43.5 75.5t85.5 25.5z" />
    <glyph glyph-name="t" unicode="t" horiz-adv-x="334" 
d="M189 425l-46 -264q-9 -52 3.5 -82t41.5 -30q14 0 28.5 7.5t21.5 15.5l8 7l18 -39q-3 -5 -9 -12.5t-29.5 -20.5t-52.5 -13q-54 0 -84 48t-16 124l46 259h-74l10 55q45 0 67.5 27t34.5 89l66 17l-24 -133h90l-9 -55h-91z" />
    <glyph glyph-name="u" unicode="u" horiz-adv-x="396" 
d="M286 108q-4 -29 12 -44t45 -15l-9 -55q-23 0 -42 5.5t-30 13t-18.5 15.5t-10.5 14l-3 5q-1 -2 -3 -5.5t-9 -13t-16 -16.5t-25 -12.5t-34 -5.5q-58 0 -82.5 49t-8.5 138l42 238h-49l10 55h119l-43 -250q-32 -175 23 -175q28 0 47 41.5t35 133.5l44 250h71z" />
    <glyph glyph-name="v" unicode="v" horiz-adv-x="386" 
d="M245 510q52 0 77.5 -32.5t15.5 -91.5l-36 -202q-17 -98 -53.5 -144t-97.5 -46q-53 0 -82 52t-15 135l42 238h-51l10 55h121l-43 -250q-31 -175 23 -175q29 0 47.5 42t34.5 133l33 184q4 21 -5.5 34.5t-29.5 13.5z" />
    <glyph glyph-name="w" unicode="w" horiz-adv-x="559" 
d="M418 510q54 0 78 -34.5t15 -89.5l-36 -202q-16 -93 -48 -141.5t-91 -48.5q-31 0 -53.5 16t-30.5 32l-7 17q-1 -3 -3.5 -7t-11 -15.5t-19 -20t-27.5 -15.5t-36 -7q-52 0 -78.5 51t-10.5 139l41 235h-55l10 55h126l-45 -250q-15 -75 -12 -125t31 -50q49 0 80 175l44 250h71
l-44 -250q-32 -175 22 -175q53 0 83 175l33 184q4 21 -7 34.5t-28 13.5z" />
    <glyph glyph-name="x" unicode="x" horiz-adv-x="442" 
d="M285 125q10 -40 21.5 -58t28.5 -18l-10 -55q-41 0 -67 31.5t-43 99.5l-10 41l-95 -166h-65l140 247l-43 172h-43l10 55h89l41 -165l93 165h65l-138 -245z" />
    <glyph glyph-name="y" unicode="y" horiz-adv-x="405" 
d="M266 510q48 0 74.5 -34t16.5 -92l-72 -412q-31 -181 -145 -181q-51 0 -76.5 43t-14.5 109h54q-7 -45 3.5 -71t36.5 -26q48 0 71 126l15 89q-2 -5 -7 -11.5t-24.5 -18t-44.5 -11.5q-51 0 -75.5 51t-9.5 137l38 211h-55l9 55h126l-39 -224q-32 -175 27 -175q57 0 89 175
l28 158q4 23 -5.5 35.5t-28.5 12.5z" />
    <glyph glyph-name="z" unicode="z" horiz-adv-x="352" 
d="M296 411l-179 -355l-1 -1h143l-10 -55h-204l15 84l169 335h-129l9 55h198z" />
    <glyph glyph-name="braceleft" unicode="{" horiz-adv-x="409" 
d="M286 683q30 0 52 -11.5t29 -22.5l7 -11l-26 -41q-14 28 -51 28q-66 0 -83 -98q-9 -53 -5.5 -121.5t-1.5 -99.5q-4 -24 -18.5 -41t-26.5 -23l-13 -5q5 -2 12 -6t16.5 -21.5t5.5 -41.5q-5 -31 -33.5 -99.5t-37.5 -121.5q-17 -99 48 -99q16 0 31.5 7t22.5 15l7 7l12 -41
q-3 -5 -8.5 -12.5t-27.5 -20t-48 -12.5q-59 0 -90.5 39.5t-19.5 104.5q9 55 36.5 117t31.5 86q5 28 -6.5 49.5t-37.5 21.5h-20l9 55h21q25 0 44.5 22t23.5 49q5 26 0 87.5t4 116.5q12 66 50 105t91 39z" />
    <glyph glyph-name="bar" unicode="|" horiz-adv-x="316" 
d="M200 677h71l-155 -880h-71z" />
    <glyph glyph-name="braceright" unicode="}" horiz-adv-x="339" 
d="M300 539q-9 -55 -36 -117t-32 -87q-4 -28 7 -49.5t37 -21.5h20l-9 -55h-21q-25 0 -44 -21.5t-24 -49.5q-5 -25 0 -86.5t-4 -116.5q-12 -67 -50 -105.5t-93 -38.5q-28 0 -49.5 11.5t-29.5 22.5l-7 11l26 41q14 -29 52 -29q65 0 82 99q9 53 5.5 121.5t1.5 99.5
q4 24 18.5 41t27.5 23l12 5q-5 2 -12 6t-16.5 21.5t-5.5 41.5q6 30 34 98.5t37 122.5q18 98 -47 98q-17 0 -32.5 -7t-22.5 -14l-7 -7l-12 41q3 5 10 12.5t30.5 20t49.5 12.5q56 0 86 -39.5t18 -104.5z" />
    <glyph glyph-name="asciitilde" unicode="~" horiz-adv-x="247" 
d="M177 603h35q-4 -23 -19.5 -39t-42.5 -16q-17 0 -37 10t-29.5 10t-13.5 -20h-35q4 23 19.5 39t42.5 16q12 0 24.5 -4t20.5 -8.5t15.5 -6.5t12.5 2t7 17z" />
    <glyph glyph-name="uni00A0" unicode="&#xa0;" horiz-adv-x="200" 
 />
    <glyph glyph-name="exclamdown" unicode="&#xa1;" horiz-adv-x="294" 
d="M169 474h75l-13 -75h-75zM71 -86l81 361h40l-47 -361l-21 -117h-74z" />
    <glyph glyph-name="cent" unicode="&#xa2;" horiz-adv-x="342" 
d="M237 599q24 -2 44 -13t28 -20l8 -10l-28 -43q-19 33 -59 33q-44 0 -79 -52.5t-50 -137.5q-15 -86 3 -137.5t68 -51.5q17 0 32 6.5t22 12.5l6 7l12 -43q-3 -4 -9 -10t-29 -16.5t-51 -10.5h-3l-14 -77h-48l15 88q-47 22 -68 82t-4 150q17 98 58.5 159.5t96.5 78.5l15 83h48
z" />
    <glyph glyph-name="sterling" unicode="&#xa3;" horiz-adv-x="444" 
d="M308 683q35 0 63 -13t38 -26l10 -13l-26 -40q-3 4 -9 10.5t-27 17t-44 10.5q-35 0 -62.5 -22.5t-34.5 -63.5q-10 -57 4 -148h139l-9 -49h-123q7 -55 -1 -99q-14 -86 -72 -169q20 0 49 -15t50 -15q19 0 40.5 7.5t33.5 14.5l12 8l-9 -54q-44 -30 -87 -30q-21 0 -50 15
t-50 15q-20 0 -55.5 -12t-62.5 -12l9 54q43 0 73.5 42t50.5 151q8 49 5 99h-68l9 49h53q-1 10 -4 31.5l-4.5 32.5t-3 28t-0.5 31t3 27q10 60 54 99t106 39z" />
    <glyph glyph-name="currency" unicode="&#xa4;" horiz-adv-x="446" 
d="M335 517q-8 -45 -24 -76l42 -60l-43 -33l-32 46q-38 -38 -83 -38q-46 0 -70 38l-49 -46l-31 33l63 60q-5 35 2 76q10 46 25 76l-42 59l42 33l33 -45q37 37 83 37t70 -37l48 45l32 -33l-64 -59q6 -32 -2 -76zM280 517q9 49 -1 79t-37 30t-47.5 -30t-29.5 -79q-8 -50 2 -80
t37 -30t47.5 30.5t28.5 79.5z" />
    <glyph glyph-name="yen" unicode="&#xa5;" horiz-adv-x="432" 
d="M407 677l-179 -338h113l-9 -50h-112l-7 -44h111l-8 -50h-112l-35 -195h-68l34 195h-110l9 50h110l8 44h-110l8 50h116l-61 338h74l39 -236l124 236h65z" />
    <glyph glyph-name="brokenbar" unicode="&#xa6;" horiz-adv-x="316" 
d="M200 677h71l-68 -386h-71zM45 -203l68 386h71l-68 -386h-71z" />
    <glyph glyph-name="section" unicode="&#xa7;" horiz-adv-x="416" 
d="M273 629q-61 0 -70 -50q-4 -21 10.5 -46t37 -48.5l45 -48t36 -52t9.5 -52.5q-12 -70 -95 -99q66 -72 56 -131q-10 -53 -47.5 -80.5t-95.5 -27.5q-34 0 -62.5 11.5t-40.5 22.5l-11 12l30 47q3 -4 9 -11t26.5 -18t44.5 -11q68 0 79 63q4 24 -11 50t-39.5 50l-49 48.5
t-39 54.5t-9.5 59q12 67 97 89q-58 65 -48 121q8 46 45 73.5t91 27.5q31 0 56 -11t35 -22l9 -11l-27 -42q-25 32 -71 32zM210 433q-50 -27 -56 -62q-3 -18 7 -38.5t22 -34t36 -37.5q46 28 54 70q3 16 -8 35.5t-20 29.5t-35 37z" />
    <glyph glyph-name="dieresis" unicode="&#xa8;" horiz-adv-x="254" 
d="M35 529l10 60h60l-11 -60h-59zM160 589h59l-10 -60h-60z" />
    <glyph glyph-name="copyright" unicode="&#xa9;" horiz-adv-x="806" 
d="M438 530q23 0 40.5 -9.5t23.5 -19.5l7 -10l-20 -31q-19 30 -55 30t-67.5 -43t-42.5 -109q-12 -67 3.5 -109.5t54.5 -42.5q18 0 33.5 6t22.5 12l7 7l9 -31q-24 -34 -76 -34q-59 0 -90.5 50t-15.5 142q16 93 63 142.5t103 49.5zM457 683q143 0 225.5 -101t57.5 -244
q-25 -142 -143.5 -243t-261.5 -101q-142 0 -225.5 100.5t-58.5 243.5q26 143 144.5 244t261.5 101zM696 346q10 62 -3 117q-14 55 -47 92q-69 83 -189 83q-61 0 -123 -24q-59 -24 -110 -66q-51 -44 -83 -99q-34 -55 -45 -118q-12 -61 3 -117q12 -52 46 -92q69 -83 190 -83
q61 0 123 24q57 22 109 66q50 43 84 98q34 57 45 119z" />
    <glyph glyph-name="ordfeminine" unicode="&#xaa;" horiz-adv-x="375" 
d="M35 25l10 55h179l-10 -55h-179zM226 671q56 0 90 -46.5t20 -121.5l-58 -330h-53l-10 44q-1 -2 -2.5 -5.5t-7.5 -12t-14 -15t-22 -12t-30 -5.5q-46 0 -74.5 37.5t-17.5 99.5q14 79 75 136t142 57q9 49 -4.5 80t-50.5 31q-17 0 -33.5 -6.5t-23.5 -13.5l-8 -6l-14 48
q4 5 12 11.5t33 18t51 11.5zM238 347l18 105q-49 0 -87.5 -40.5t-49.5 -98.5q-7 -40 4.5 -65.5t35.5 -25.5q56 0 79 125z" />
    <glyph glyph-name="guillemotleft" unicode="&#xab;" horiz-adv-x="422" 
d="M237 389l-146 -148l93 -148l-48 -34l-91 144l14 77l141 144zM377 389l-146 -148l94 -148l-49 -34l-91 144l14 77l141 144z" />
    <glyph glyph-name="logicalnot" unicode="&#xac;" horiz-adv-x="379" 
d="M45 282h299l-29 -167h-55l19 112h-244z" />
    <glyph glyph-name="uni00AD" unicode="&#xad;" horiz-adv-x="200" 
 />
    <glyph glyph-name="registered" unicode="&#xae;" horiz-adv-x="524" 
d="M275 583q25 0 37 -14t8 -40q-3 -17 -13.5 -28.5t-18.5 -14.5l-9 -4l12 -108h-26l-12 101h-13l-18 -101h-29l37 209h45zM291 529q5 33 -20 33h-16l-12 -66h17q26 0 31 33zM291 683q85 0 134.5 -60t34.5 -145t-86 -145t-156 -60t-134.5 60t-34.5 145t86 145t156 60z
M425 484q12 70 -28 117q-39 47 -106 47q-34 0 -70 -14t-63 -38q-28 -23 -49 -56q-19 -32 -25 -68q-12 -69 27 -118q40 -46 107 -46q37 0 70 13t63 38q32 28 48 57q20 32 26 68z" />
    <glyph glyph-name="macron" unicode="&#xaf;" horiz-adv-x="260" 
d="M43 593h182l-7 -44h-183z" />
    <glyph glyph-name="degree" unicode="&#xb0;" horiz-adv-x="309" 
d="M179 683q51 0 77 -39.5t15 -101.5q-10 -61 -50.5 -101t-90.5 -40q-51 0 -77 39.5t-15 101.5q10 61 50.5 101t90.5 40zM224 542q7 40 -6.5 69t-45.5 29t-56 -29t-31 -69t6.5 -69t45.5 -29t56 29t31 69z" />
    <glyph glyph-name="plusminus" unicode="&#xb1;" horiz-adv-x="339" 
d="M212 334h92l-10 -55h-91l-17 -92h-54l16 92h-92l10 55h91l17 95h55zM35 83l10 55h211l-10 -55h-211z" />
    <glyph glyph-name="twosuperior" unicode="&#xb2;" horiz-adv-x="240" 
d="M144 680q35 0 56 -26.5t13 -68.5q-13 -79 -122 -220h75l-9 -48h-115l-17 32q13 15 32 39.5t55 87t44 109.5q3 18 -2.5 32t-18.5 14q-10 0 -20.5 -6.5t-16.5 -12.5l-5 -7l-12 42q20 33 63 33z" />
    <glyph glyph-name="threesuperior" unicode="&#xb3;" horiz-adv-x="242" 
d="M215 586q-4 -25 -16.5 -45t-22.5 -28l-10 -8q4 -3 9.5 -9.5t12.5 -29t3 -48.5q-8 -47 -35 -75.5t-63 -28.5q-20 0 -37 8t-24 16l-7 8l25 39q13 -23 37 -23q23 0 37.5 29t12 59t-20.5 31h-31l8 49h32q23 0 33 51q8 50 -22 50q-11 0 -21 -5.5t-15 -11.5l-4 -6l-12 39
q22 33 64 33q34 0 54 -27t13 -67z" />
    <glyph glyph-name="acute" unicode="&#xb4;" horiz-adv-x="203" 
d="M100 621h68l-84 -93h-49z" />
    <glyph glyph-name="mu" unicode="&#xb5;" horiz-adv-x="457" 
d="M341 474h71l-84 -474h-55l-8 44q-1 -2 -2.5 -5.5t-7 -12t-12 -15t-18.5 -12t-25 -5.5q-14 0 -25.5 4.5t-16.5 9.5l-4 5l-38 -216h-71l119 677h71l-49 -279q-26 -146 27 -146t79 146z" />
    <glyph glyph-name="paragraph" unicode="&#xb6;" horiz-adv-x="548" 
d="M250 677h158l-155 -880h-74l86 489h-66q-69 0 -109.5 54.5t-25.5 141.5q16 91 64 143t122 52zM450 677h38l-156 -880h-37z" />
    <glyph glyph-name="periodcentered" unicode="&#xb7;" horiz-adv-x="177" 
d="M58 376h74l-13 -75h-74z" />
    <glyph glyph-name="cedilla" unicode="&#xb8;" horiz-adv-x="242" 
d="M136 -48q32 0 53.5 -24t15.5 -60q-7 -38 -35 -57.5t-67 -19.5q-21 0 -38 6.5t-23 12.5l-7 6l16 25q15 -21 49 -21q21 0 34.5 15t17.5 40q4 23 -4 38t-23 15q-21 0 -33 -17l-4 -6h-28l47 74h29l-20 -30q9 3 20 3z" />
    <glyph glyph-name="onesuperior" unicode="&#xb9;" horiz-adv-x="171" 
d="M53 660l93 23l-64 -366h-57l53 302l-33 -8z" />
    <glyph glyph-name="ordmasculine" unicode="&#xba;" horiz-adv-x="392" 
d="M244 671q61 0 87 -59.5t8 -163.5l-10 -58q-19 -106 -61 -164.5t-103 -58.5t-87.5 60t-8.5 163l10 58q19 106 61.5 164.5t103.5 58.5zM263 419q16 91 10 144t-34 53t-52.5 -52.5t-41.5 -144.5q-16 -91 -10 -144t34 -53t53 52.5t41 144.5zM45 25l10 55h179l-10 -55h-179z
" />
    <glyph glyph-name="guillemotright" unicode="&#xbb;" horiz-adv-x="422" 
d="M286 424l91 -144l-14 -77l-141 -144l-37 34l146 148l-94 148zM237 280l-14 -77l-141 -144l-37 34l145 148l-93 148l49 35z" />
    <glyph glyph-name="onequarter" unicode="&#xbc;" horiz-adv-x="531" 
d="M168 317h-57l53 302l-34 -8l9 49l93 23zM413 677h58l-353 -677h-58zM404 360h45l-35 -197h33l-8 -48h-33l-20 -115h-54l20 115h-96l6 35zM364 163l17 99l-66 -99h49z" />
    <glyph glyph-name="onehalf" unicode="&#xbd;" horiz-adv-x="531" 
d="M400 363q32 0 51.5 -26t12.5 -69q-15 -81 -122 -220h74l-8 -48h-116l-17 32q13 15 32 39.5t55.5 87t44.5 109.5q3 18 -2.5 32t-19.5 14q-10 0 -20.5 -6.5t-16.5 -13.5l-5 -6l-12 42q26 33 69 33zM168 317h-57l53 302l-34 -8l9 49l93 23zM413 677h58l-353 -677h-58z" />
    <glyph glyph-name="threequarters" unicode="&#xbe;" horiz-adv-x="537" 
d="M123 314q-20 0 -35.5 8t-21.5 16l-6 8l25 39q10 -23 37 -23q23 0 37.5 29t12 59t-20.5 31h-31l8 49h32q23 0 33 51q4 23 -3.5 36.5t-22.5 13.5q-8 0 -17 -5.5t-14 -11.5l-5 -6l-12 39q25 33 67 33q35 0 53.5 -26.5t10.5 -67.5q-4 -25 -16 -45t-22 -28l-11 -8
q4 -3 9.5 -9.5t12.5 -29t3 -48.5q-8 -47 -35.5 -75.5t-67.5 -28.5zM419 677h58l-353 -677h-58zM410 360h45l-34 -197h32l-8 -48h-33l-20 -115h-54l20 115h-96l6 35zM370 163l17 99l-66 -99h49z" />
    <glyph glyph-name="questiondown" unicode="&#xbf;" horiz-adv-x="356" 
d="M314 179q-6 -35 -36 -74.5t-62.5 -68t-61.5 -62.5t-34 -60q-5 -30 8 -49t41 -19q19 0 37.5 6t27.5 12l8 7l12 -42q-3 -4 -9.5 -10.5t-30 -17t-50.5 -10.5q-56 0 -88.5 33.5t-22.5 89.5q5 26 25 55t46 54l52 49.5t46 52t24 52.5q4 21 -7 35.5t-31 14.5q-16 0 -30.5 -6.5
t-21.5 -12.5l-6 -6l-12 39q3 5 9.5 11.5t29 18t46.5 11.5q45 0 71.5 -30t19.5 -73zM315 474l-14 -75h-74l13 75h75z" />
    <glyph glyph-name="Agrave" unicode="&#xc0;" horiz-adv-x="401" 
d="M334 677l32 -677h-76l-5 179h-119l-69 -179h-72l271 677h38zM186 234h97l-7 235zM302 821l33 -93h-49l-52 93h68z" />
    <glyph glyph-name="Aacute" unicode="&#xc1;" horiz-adv-x="401" 
d="M334 677l32 -677h-76l-5 179h-119l-69 -179h-72l271 677h38zM186 234h97l-7 235zM355 821h68l-84 -93h-49z" />
    <glyph glyph-name="Acircumflex" unicode="&#xc2;" horiz-adv-x="401" 
d="M334 677l32 -677h-76l-5 179h-119l-69 -179h-72l271 677h38zM186 234h97l-7 235zM350 821l66 -93h-52l-43 64l-64 -64h-53l99 93h47z" />
    <glyph glyph-name="Atilde" unicode="&#xc3;" horiz-adv-x="401" 
d="M334 677l32 -677h-76l-5 179h-119l-69 -179h-72l271 677h38zM186 234h97l-7 235zM373 803h35q-4 -23 -19.5 -39t-42.5 -16q-17 0 -37 10t-29.5 10t-13.5 -20h-35q4 23 19.5 39t42.5 16q12 0 24.5 -4t20.5 -8.5t15.5 -6.5t12.5 2t7 17z" />
    <glyph glyph-name="Adieresis" unicode="&#xc4;" horiz-adv-x="401" 
d="M334 677l32 -677h-76l-5 179h-119l-69 -179h-72l271 677h38zM186 234h97l-7 235zM232 729l10 60h60l-11 -60h-59zM357 789h59l-10 -60h-60z" />
    <glyph glyph-name="Aring" unicode="&#xc5;" horiz-adv-x="401" 
d="M334 677l32 -677h-76l-5 179h-119l-69 -179h-72l271 677h38zM186 234h97l-7 235zM347 878q29 0 44.5 -23.5t8.5 -59.5q-6 -36 -29.5 -59.5t-52.5 -23.5t-44.5 23.5t-8.5 59.5q6 36 29.5 59.5t52.5 23.5zM362 795q4 23 -2.5 35.5t-18.5 12.5t-23 -12.5t-15 -35.5
t2.5 -35.5t18.5 -12.5t23 12.5t15 35.5z" />
    <glyph glyph-name="AE" unicode="&#xc6;" horiz-adv-x="588" 
d="M573 619h-152l-38 -213h115l-10 -58h-115l-51 -290h152l-11 -58h-226l32 179h-90l-79 -179h-75l310 677h248zM278 234l51 286l-126 -286h75z" />
    <glyph glyph-name="Ccedilla" unicode="&#xc7;" horiz-adv-x="357" 
d="M288 683q22 0 41 -6t30 -14.5t19 -17.5t11 -15l3 -6l-31 -47l-2.5 5t-7.5 11.5t-13.5 15t-20 11.5t-27.5 5q-57 0 -100 -77.5t-65 -209.5q-25 -122 -7.5 -204.5t81.5 -82.5q24 0 44.5 11t28.5 22l8 11l13 -47q-1 -2 -3.5 -5.5t-11.5 -13t-20 -16.5t-29.5 -13t-39.5 -6
q-83 0 -127 81.5t-17 234.5l10 57q27 154 92 235t141 81zM163 -48q32 0 53.5 -24t15.5 -60q-7 -38 -35 -57.5t-67 -19.5q-21 0 -38 6.5t-24 12.5l-6 6l16 25q15 -21 49 -21q21 0 34.5 15t17.5 40q4 23 -4 38t-23 15q-21 0 -33 -17l-4 -6h-28l47 74h29l-20 -30q9 3 20 3z" />
    <glyph glyph-name="Egrave" unicode="&#xc8;" horiz-adv-x="336" 
d="M361 619h-152l-38 -213h115l-10 -58h-115l-51 -290h152l-11 -58h-226l119 677h227zM263 821l33 -93h-49l-52 93h68z" />
    <glyph glyph-name="Eacute" unicode="&#xc9;" horiz-adv-x="336" 
d="M361 619h-152l-38 -213h115l-10 -58h-115l-51 -290h152l-11 -58h-226l119 677h227zM293 821h68l-84 -93h-49z" />
    <glyph glyph-name="Ecircumflex" unicode="&#xca;" horiz-adv-x="336" 
d="M361 619h-152l-38 -213h115l-10 -58h-115l-51 -290h152l-11 -58h-226l119 677h227zM310 821l66 -93h-52l-43 64l-64 -64h-53l99 93h47z" />
    <glyph glyph-name="Edieresis" unicode="&#xcb;" horiz-adv-x="336" 
d="M361 619h-152l-38 -213h115l-10 -58h-115l-51 -290h152l-11 -58h-226l119 677h227zM181 729l10 60h60l-11 -60h-59zM306 789h59l-10 -60h-60z" />
    <glyph glyph-name="Igrave" unicode="&#xcc;" horiz-adv-x="184" 
d="M144 677h75l-120 -677h-74zM174 821l33 -93h-49l-52 93h68z" />
    <glyph glyph-name="Iacute" unicode="&#xcd;" horiz-adv-x="184" 
d="M144 677h75l-120 -677h-74zM224 821h68l-84 -93h-49z" />
    <glyph glyph-name="Icircumflex" unicode="&#xce;" horiz-adv-x="184" 
d="M144 677h75l-120 -677h-74zM229 821l66 -93h-52l-43 64l-64 -64h-53l99 93h47z" />
    <glyph glyph-name="Idieresis" unicode="&#xcf;" horiz-adv-x="184" 
d="M144 677h75l-120 -677h-74zM101 729l10 60h60l-11 -60h-59zM226 789h59l-10 -60h-60z" />
    <glyph glyph-name="Eth" unicode="&#xd0;" horiz-adv-x="405" 
d="M259 677q47 0 76.5 -29.5t41 -98.5t-9.5 -182l-10 -57q-29 -165 -80.5 -237.5t-125.5 -72.5h-126l56 316h-46l10 57h46l53 304h115zM288 338q24 142 13.5 211.5t-52.5 69.5h-40l-44 -246h64l-10 -57h-64l-45 -258h39q42 0 78 70.5t61 209.5z" />
    <glyph glyph-name="Ntilde" unicode="&#xd1;" horiz-adv-x="434" 
d="M362 677h72l-120 -683h-72l-67 448l-78 -442h-72l119 677h73l66 -449zM361 803h35q-4 -23 -19.5 -39t-42.5 -16q-17 0 -37 10t-29.5 10t-13.5 -20h-35q4 23 19.5 39t42.5 16q12 0 24.5 -4t20.5 -8.5t15.5 -6.5t12.5 2t7 17z" />
    <glyph glyph-name="Ograve" unicode="&#xd2;" horiz-adv-x="384" 
d="M250 683q72 0 103 -75t2 -241l-11 -57q-55 -316 -200 -316q-73 0 -104 75t-1 241l10 57q29 169 79.5 242.5t121.5 73.5zM275 338q24 134 16.5 210.5t-44.5 76.5t-71 -76t-58 -211q-24 -134 -16.5 -210.5t44.5 -76.5t71.5 76.5t57.5 210.5zM240 821l33 -93h-49l-52 93h68z
" />
    <glyph glyph-name="Oacute" unicode="&#xd3;" horiz-adv-x="384" 
d="M250 683q72 0 103 -75t2 -241l-11 -57q-55 -316 -200 -316q-73 0 -104 75t-1 241l10 57q29 169 79.5 242.5t121.5 73.5zM275 338q24 134 16.5 210.5t-44.5 76.5t-71 -76t-58 -211q-24 -134 -16.5 -210.5t44.5 -76.5t71.5 76.5t57.5 210.5zM278 821h68l-84 -93h-49z" />
    <glyph glyph-name="Ocircumflex" unicode="&#xd4;" horiz-adv-x="384" 
d="M250 683q72 0 103 -75t2 -241l-11 -57q-55 -316 -200 -316q-73 0 -104 75t-1 241l10 57q29 169 79.5 242.5t121.5 73.5zM275 338q24 134 16.5 210.5t-44.5 76.5t-71 -76t-58 -211q-24 -134 -16.5 -210.5t44.5 -76.5t71.5 76.5t57.5 210.5zM299 821l66 -93h-52l-43 64
l-64 -64h-53l99 93h47z" />
    <glyph glyph-name="Otilde" unicode="&#xd5;" horiz-adv-x="384" 
d="M250 683q72 0 103 -75t2 -241l-11 -57q-55 -316 -200 -316q-73 0 -104 75t-1 241l10 57q29 169 79.5 242.5t121.5 73.5zM275 338q24 134 16.5 210.5t-44.5 76.5t-71 -76t-58 -211q-24 -134 -16.5 -210.5t44.5 -76.5t71.5 76.5t57.5 210.5zM323 803h35q-4 -23 -19.5 -39
t-42.5 -16q-17 0 -37 10t-29.5 10t-13.5 -20h-35q4 23 19.5 39t42.5 16q12 0 24.5 -4t20.5 -8.5t15.5 -6.5t12.5 2t7 17z" />
    <glyph glyph-name="Odieresis" unicode="&#xd6;" horiz-adv-x="384" 
d="M250 683q72 0 103 -75t2 -241l-11 -57q-55 -316 -200 -316q-73 0 -104 75t-1 241l10 57q29 169 79.5 242.5t121.5 73.5zM275 338q24 134 16.5 210.5t-44.5 76.5t-71 -76t-58 -211q-24 -134 -16.5 -210.5t44.5 -76.5t71.5 76.5t57.5 210.5zM175 729l10 60h60l-11 -60h-59z
M300 789h59l-10 -60h-60z" />
    <glyph glyph-name="multiply" unicode="&#xd7;" horiz-adv-x="333" 
d="M298 336l-100 -111l60 -111l-46 -30l-53 97l-88 -97l-36 30l100 111l-61 111l47 29l53 -97l88 97z" />
    <glyph glyph-name="Oslash" unicode="&#xd8;" horiz-adv-x="483" 
d="M458 753l-65 -134q37 -78 7 -252l-11 -57q-55 -316 -200 -316q-53 0 -83 37l-52 -108h-29l65 134q-36 83 -6 253l10 57q29 169 79.5 242.5t121.5 73.5q52 0 82 -37l52 107h29zM163 338q-18 -101 -18 -169l190 392q-8 64 -43 64q-37 0 -71 -76t-58 -211zM320 338
q18 101 18 170l-190 -392q9 -65 43 -65q37 0 71.5 76.5t57.5 210.5z" />
    <glyph glyph-name="Ugrave" unicode="&#xd9;" horiz-adv-x="361" 
d="M312 677h74l-82 -465q-38 -218 -168 -218q-62 0 -92 54t-11 164l82 465h75l-81 -456q-16 -93 -8 -131.5t39 -38.5q32 0 54 39.5t38 130.5zM260 821l33 -93h-49l-52 93h68z" />
    <glyph glyph-name="Uacute" unicode="&#xda;" horiz-adv-x="361" 
d="M312 677h74l-82 -465q-38 -218 -168 -218q-62 0 -92 54t-11 164l82 465h75l-81 -456q-16 -93 -8 -131.5t39 -38.5q32 0 54 39.5t38 130.5zM285 821h68l-84 -93h-49z" />
    <glyph glyph-name="Ucircumflex" unicode="&#xdb;" horiz-adv-x="361" 
d="M312 677h74l-82 -465q-38 -218 -168 -218q-62 0 -92 54t-11 164l82 465h75l-81 -456q-16 -93 -8 -131.5t39 -38.5q32 0 54 39.5t38 130.5zM302 821l66 -93h-52l-43 64l-64 -64h-53l99 93h47z" />
    <glyph glyph-name="Udieresis" unicode="&#xdc;" horiz-adv-x="361" 
d="M312 677h74l-82 -465q-38 -218 -168 -218q-62 0 -92 54t-11 164l82 465h75l-81 -456q-16 -93 -8 -131.5t39 -38.5q32 0 54 39.5t38 130.5zM173 729l10 60h60l-11 -60h-59zM298 789h59l-10 -60h-60z" />
    <glyph glyph-name="Yacute" unicode="&#xdd;" horiz-adv-x="317" 
d="M274 677h78l-186 -335l-60 -342h-75l61 345l-67 332h80l44 -237zM223 821h68l-84 -93h-49z" />
    <glyph glyph-name="Thorn" unicode="&#xde;" horiz-adv-x="386" 
d="M233 534q65 0 102 -52t21 -144q-17 -93 -67 -144t-115 -51h-49l-26 -143h-74l119 677h75l-26 -143h40zM282 338q23 138 -57 138h-42l-48 -275h41q81 0 106 137z" />
    <glyph glyph-name="germandbls" unicode="&#xdf;" horiz-adv-x="397" 
d="M367 504q-6 -36 -39 -93.5t-38 -83.5q-5 -31 12.5 -70t34.5 -81t10 -81q-8 -48 -41 -74.5t-82 -26.5q-28 0 -51 9t-32 18l-9 9l29 46q25 -27 60 -27q47 0 57 56q5 27 -30 106t-28 122q7 37 37.5 83t38.5 88q21 124 -34 124t-79 -133l-87 -495h-71l87 495q34 188 152 188
q64 0 90.5 -48t12.5 -131z" />
    <glyph glyph-name="agrave" unicode="&#xe0;" horiz-adv-x="402" 
d="M302 98q-4 -24 11.5 -36.5t43.5 -12.5l-10 -55q-24 0 -42.5 5.5t-28.5 13.5t-16.5 16t-8.5 13l-2 6q-3 -6 -9.5 -15t-31 -24t-54.5 -15q-53 0 -85 43t-20 110q13 75 73.5 125t148.5 50q9 50 -9 76.5t-55 26.5q-22 0 -40.5 -8.5t-26.5 -16.5l-8 -8l-26 42q5 5 13.5 12.5
t37.5 20.5t60 13q63 0 100.5 -42.5t22.5 -125.5zM245 174l16 93q-51 0 -92 -34.5t-49 -82.5q-6 -38 6.5 -65.5t42.5 -27.5q55 0 76 117zM239 621l33 -93h-49l-52 93h68z" />
    <glyph glyph-name="aacute" unicode="&#xe1;" horiz-adv-x="402" 
d="M302 98q-4 -24 11.5 -36.5t43.5 -12.5l-10 -55q-24 0 -42.5 5.5t-28.5 13.5t-16.5 16t-8.5 13l-2 6q-3 -6 -9.5 -15t-31 -24t-54.5 -15q-53 0 -85 43t-20 110q13 75 73.5 125t148.5 50q9 50 -9 76.5t-55 26.5q-22 0 -40.5 -8.5t-26.5 -16.5l-8 -8l-26 42q5 5 13.5 12.5
t37.5 20.5t60 13q63 0 100.5 -42.5t22.5 -125.5zM245 174l16 93q-51 0 -92 -34.5t-49 -82.5q-6 -38 6.5 -65.5t42.5 -27.5q55 0 76 117zM267 621h68l-84 -93h-49z" />
    <glyph glyph-name="acircumflex" unicode="&#xe2;" horiz-adv-x="402" 
d="M302 98q-4 -24 11.5 -36.5t43.5 -12.5l-10 -55q-24 0 -42.5 5.5t-28.5 13.5t-16.5 16t-8.5 13l-2 6q-3 -6 -9.5 -15t-31 -24t-54.5 -15q-53 0 -85 43t-20 110q13 75 73.5 125t148.5 50q9 50 -9 76.5t-55 26.5q-22 0 -40.5 -8.5t-26.5 -16.5l-8 -8l-26 42q5 5 13.5 12.5
t37.5 20.5t60 13q63 0 100.5 -42.5t22.5 -125.5zM245 174l16 93q-51 0 -92 -34.5t-49 -82.5q-6 -38 6.5 -65.5t42.5 -27.5q55 0 76 117zM285 621l66 -93h-52l-43 64l-64 -64h-53l99 93h47z" />
    <glyph glyph-name="atilde" unicode="&#xe3;" horiz-adv-x="402" 
d="M302 98q-4 -24 11.5 -36.5t43.5 -12.5l-10 -55q-24 0 -42.5 5.5t-28.5 13.5t-16.5 16t-8.5 13l-2 6q-3 -6 -9.5 -15t-31 -24t-54.5 -15q-53 0 -85 43t-20 110q13 75 73.5 125t148.5 50q9 50 -9 76.5t-55 26.5q-22 0 -40.5 -8.5t-26.5 -16.5l-8 -8l-26 42q5 5 13.5 12.5
t37.5 20.5t60 13q63 0 100.5 -42.5t22.5 -125.5zM245 174l16 93q-51 0 -92 -34.5t-49 -82.5q-6 -38 6.5 -65.5t42.5 -27.5q55 0 76 117zM303 603h35q-4 -23 -19.5 -39t-42.5 -16q-17 0 -37 10t-29.5 10t-13.5 -20h-35q4 23 19.5 39t42.5 16q12 0 24.5 -4t20.5 -8.5
t15.5 -6.5t12.5 2t7 17z" />
    <glyph glyph-name="adieresis" unicode="&#xe4;" horiz-adv-x="402" 
d="M302 98q-4 -24 11.5 -36.5t43.5 -12.5l-10 -55q-24 0 -42.5 5.5t-28.5 13.5t-16.5 16t-8.5 13l-2 6q-3 -6 -9.5 -15t-31 -24t-54.5 -15q-53 0 -85 43t-20 110q13 75 73.5 125t148.5 50q9 50 -9 76.5t-55 26.5q-22 0 -40.5 -8.5t-26.5 -16.5l-8 -8l-26 42q5 5 13.5 12.5
t37.5 20.5t60 13q63 0 100.5 -42.5t22.5 -125.5zM245 174l16 93q-51 0 -92 -34.5t-49 -82.5q-6 -38 6.5 -65.5t42.5 -27.5q55 0 76 117zM148 529l10 60h60l-11 -60h-59zM273 589h59l-10 -60h-60z" />
    <glyph glyph-name="aring" unicode="&#xe5;" horiz-adv-x="402" 
d="M302 98q-4 -24 11.5 -36.5t43.5 -12.5l-10 -55q-24 0 -42.5 5.5t-28.5 13.5t-16.5 16t-8.5 13l-2 6q-3 -6 -9.5 -15t-31 -24t-54.5 -15q-53 0 -85 43t-20 110q13 75 73.5 125t148.5 50q9 50 -9 76.5t-55 26.5q-22 0 -40.5 -8.5t-26.5 -16.5l-8 -8l-26 42q5 5 13.5 12.5
t37.5 20.5t60 13q63 0 100.5 -42.5t22.5 -125.5zM245 174l16 93q-51 0 -92 -34.5t-49 -82.5q-6 -38 6.5 -65.5t42.5 -27.5q55 0 76 117zM275 678q29 0 44.5 -23.5t8.5 -59.5q-6 -36 -29.5 -59.5t-52.5 -23.5t-44.5 23.5t-8.5 59.5q6 36 29.5 59.5t52.5 23.5zM290 595
q4 23 -2.5 35.5t-18.5 12.5t-23 -12.5t-15 -35.5t2.5 -35.5t18.5 -12.5t23 12.5t15 35.5z" />
    <glyph glyph-name="ae" unicode="&#xe6;" horiz-adv-x="546" 
d="M412 480q56 0 77.5 -57t2.5 -161l-6 -36h-168q-31 -177 54 -177q20 0 38 10t26 20l7 10l13 -46q-3 -5 -10 -13.5t-32.5 -22t-55.5 -13.5q-23 0 -42 6t-30.5 15t-19.5 18t-11 15l-3 6q-1 -2 -3.5 -6.5t-12 -14.5t-20 -18t-28.5 -14.5t-38 -6.5q-54 0 -83.5 39.5
t-18.5 100.5q14 78 73.5 129.5t141.5 51.5q19 110 -48 110q-17 0 -35.5 -7.5t-28.5 -15.5l-10 -8l-13 43q5 5 14 12t36 19t55 12q61 0 88 -46q38 46 91 46zM238 174l17 96q-54 0 -89.5 -35.5t-44.5 -84.5q-8 -45 2.5 -73t36.5 -28q55 0 78 125zM432 273q12 69 5.5 110.5
t-31.5 41.5t-46 -41t-33 -111h105z" />
    <glyph glyph-name="ccedilla" unicode="&#xe7;" horiz-adv-x="375" 
d="M240 480q26 0 48.5 -11t31.5 -23l10 -11l-22 -45q-24 35 -64 35q-85 0 -118 -188q-15 -86 4.5 -137t64.5 -51q18 0 33 7t21 14l6 7l20 -44q-3 -4 -10 -10.5t-31 -17.5t-52 -11q-71 0 -109 64t-23 150l10 58q19 103 66 158.5t114 55.5zM170 -48q32 0 53.5 -24t15.5 -60
q-7 -38 -35 -57.5t-67 -19.5q-21 0 -38 6.5t-23 12.5l-7 6l16 25q15 -21 49 -21q21 0 34.5 15t17.5 40q4 23 -4 38t-23 15q-21 0 -33 -17l-4 -6h-28l47 74h29l-20 -30q9 3 20 3z" />
    <glyph glyph-name="egrave" unicode="&#xe8;" horiz-adv-x="358" 
d="M224 480q56 0 77.5 -60.5t3.5 -157.5l-6 -36h-175q-31 -177 62 -177q19 0 37.5 10.5t26.5 20.5l9 11l21 -46q-4 -6 -11.5 -14.5t-34.5 -22.5t-58 -14q-66 0 -104.5 57t-21.5 153l10 58q18 106 61.5 162t102.5 56zM237 273q13 65 7.5 108.5t-30.5 43.5q-24 0 -47 -43
t-35 -109h105zM229 621l33 -93h-49l-52 93h68z" />
    <glyph glyph-name="eacute" unicode="&#xe9;" horiz-adv-x="358" 
d="M224 480q56 0 77.5 -60.5t3.5 -157.5l-6 -36h-175q-31 -177 62 -177q19 0 37.5 10.5t26.5 20.5l9 11l21 -46q-4 -6 -11.5 -14.5t-34.5 -22.5t-58 -14q-66 0 -104.5 57t-21.5 153l10 58q18 106 61.5 162t102.5 56zM237 273q13 65 7.5 108.5t-30.5 43.5q-24 0 -47 -43
t-35 -109h105zM243 621h68l-84 -93h-49z" />
    <glyph glyph-name="ecircumflex" unicode="&#xea;" horiz-adv-x="358" 
d="M224 480q56 0 77.5 -60.5t3.5 -157.5l-6 -36h-175q-31 -177 62 -177q19 0 37.5 10.5t26.5 20.5l9 11l21 -46q-4 -6 -11.5 -14.5t-34.5 -22.5t-58 -14q-66 0 -104.5 57t-21.5 153l10 58q18 106 61.5 162t102.5 56zM237 273q13 65 7.5 108.5t-30.5 43.5q-24 0 -47 -43
t-35 -109h105zM259 621l66 -93h-52l-43 64l-64 -64h-53l99 93h47z" />
    <glyph glyph-name="edieresis" unicode="&#xeb;" horiz-adv-x="358" 
d="M224 480q56 0 77.5 -60.5t3.5 -157.5l-6 -36h-175q-31 -177 62 -177q19 0 37.5 10.5t26.5 20.5l9 11l21 -46q-4 -6 -11.5 -14.5t-34.5 -22.5t-58 -14q-66 0 -104.5 57t-21.5 153l10 58q18 106 61.5 162t102.5 56zM237 273q13 65 7.5 108.5t-30.5 43.5q-24 0 -47 -43
t-35 -109h105zM133 529l10 60h60l-11 -60h-59zM258 589h59l-10 -60h-60z" />
    <glyph glyph-name="igrave" unicode="&#xec;" horiz-adv-x="254" 
d="M130 614h79l-12 -71h-79zM181 474l-67 -377q-4 -20 13 -34t42 -14l-10 -55q-61 0 -91.5 34.5t-19.5 96.5l52 294h-55l10 55h126zM159 746l33 -93h-49l-52 93h68z" />
    <glyph glyph-name="iacute" unicode="&#xed;" horiz-adv-x="254" 
d="M130 614h79l-12 -71h-79zM181 474l-67 -377q-4 -20 13 -34t42 -14l-10 -55q-61 0 -91.5 34.5t-19.5 96.5l52 294h-55l10 55h126zM211 746h68l-84 -93h-49z" />
    <glyph glyph-name="icircumflex" unicode="&#xee;" horiz-adv-x="254" 
d="M130 614h79l-12 -71h-79zM181 474l-67 -377q-4 -20 13 -34t42 -14l-10 -55q-61 0 -91.5 34.5t-19.5 96.5l52 294h-55l10 55h126zM212 746l66 -93h-52l-43 64l-64 -64h-53l99 93h47z" />
    <glyph glyph-name="idieresis" unicode="&#xef;" horiz-adv-x="254" 
d="M130 614h79l-12 -71h-79zM181 474l-67 -377q-4 -20 13 -34t42 -14l-10 -55q-61 0 -91.5 34.5t-19.5 96.5l52 294h-55l10 55h126zM87 654l10 60h60l-11 -60h-59zM212 714h59l-10 -60h-60z" />
    <glyph glyph-name="eth" unicode="&#xf0;" horiz-adv-x="436" 
d="M391 587l-4 -52l-61 -6q23 -109 -15 -325q-38 -210 -158 -210q-67 0 -92.5 57.5t-8.5 152.5l10 58q18 102 56.5 160t96.5 58q29 0 50 -19q-1 32 -8 62l-95 -10l4 52l77 8q-9 22 -21 37.5t-19 19.5l-7 5l31 48q2 -1 6 -2.5t14.5 -9.5t20.5 -18.5t22.5 -30t21.5 -43.5z
M246 237q15 123 6 157q-8 31 -32 31q-28 0 -52 -49t-40 -139q-16 -91 -9 -139.5t35 -48.5t52 49t40 139z" />
    <glyph glyph-name="ntilde" unicode="&#xf1;" horiz-adv-x="410" 
d="M310 97q-4 -24 11.5 -36t43.5 -12l-10 -55q-133 0 -108 144l30 169q10 60 1 89t-34 29q-24 0 -44 -30t-30 -88l-54 -307h-71l74 419h-49l10 55h71l23 -50q36 56 90 56t75.5 -48t5.5 -139zM307 603h35q-4 -23 -19.5 -39t-42.5 -16q-17 0 -37 10t-29.5 10t-13.5 -20h-35
q4 23 19.5 39t42.5 16q12 0 24.5 -4t20.5 -8.5t15.5 -6.5t12.5 2t7 17z" />
    <glyph glyph-name="ograve" unicode="&#xf2;" horiz-adv-x="374" 
d="M225 480q61 0 88 -54t8 -160l-10 -58q-37 -214 -163 -214q-57 0 -85.5 55t-10.5 159l10 58q19 107 62 160.5t101 53.5zM245 237q16 77 10.5 132.5t-35.5 55.5q-59 0 -92 -188t25 -188q59 0 92 188zM215 621l33 -93h-49l-52 93h68z" />
    <glyph glyph-name="oacute" unicode="&#xf3;" horiz-adv-x="374" 
d="M225 480q61 0 88 -54t8 -160l-10 -58q-37 -214 -163 -214q-57 0 -85.5 55t-10.5 159l10 58q19 107 62 160.5t101 53.5zM245 237q16 77 10.5 132.5t-35.5 55.5q-59 0 -92 -188t25 -188q59 0 92 188zM248 621h68l-84 -93h-49z" />
    <glyph glyph-name="ocircumflex" unicode="&#xf4;" horiz-adv-x="374" 
d="M225 480q61 0 88 -54t8 -160l-10 -58q-37 -214 -163 -214q-57 0 -85.5 55t-10.5 159l10 58q19 107 62 160.5t101 53.5zM245 237q16 77 10.5 132.5t-35.5 55.5q-59 0 -92 -188t25 -188q59 0 92 188zM266 621l66 -93h-52l-43 64l-64 -64h-53l99 93h47z" />
    <glyph glyph-name="otilde" unicode="&#xf5;" horiz-adv-x="374" 
d="M225 480q61 0 88 -54t8 -160l-10 -58q-37 -214 -163 -214q-57 0 -85.5 55t-10.5 159l10 58q19 107 62 160.5t101 53.5zM245 237q16 77 10.5 132.5t-35.5 55.5q-59 0 -92 -188t25 -188q59 0 92 188zM288 603h35q-4 -23 -19.5 -39t-42.5 -16q-17 0 -37 10t-29.5 10
t-13.5 -20h-35q4 23 19.5 39t42.5 16q12 0 24.5 -4t20.5 -8.5t15.5 -6.5t12.5 2t7 17z" />
    <glyph glyph-name="odieresis" unicode="&#xf6;" horiz-adv-x="374" 
d="M225 480q61 0 88 -54t8 -160l-10 -58q-37 -214 -163 -214q-57 0 -85.5 55t-10.5 159l10 58q19 107 62 160.5t101 53.5zM245 237q16 77 10.5 132.5t-35.5 55.5q-59 0 -92 -188t25 -188q59 0 92 188zM142 529l10 60h60l-11 -60h-59zM267 589h59l-10 -60h-60z" />
    <glyph glyph-name="divide" unicode="&#xf7;" horiz-adv-x="401" 
d="M257 364l-12 -63h-63l11 63h64zM144 85l11 63h63l-11 -63h-63zM45 252h321l-10 -55h-321z" />
    <glyph glyph-name="oslash" unicode="&#xf8;" horiz-adv-x="424" 
d="M379 550l-52 -106q42 -54 20 -178l-10 -58q-38 -214 -163 -214q-33 0 -57 18l-43 -89h-29l53 109q-42 57 -21 176l10 58q19 107 62 160.5t101 53.5q33 0 58 -17l42 87h29zM153 237q-12 -75 -11 -114l134 274q-9 28 -31 28q-59 0 -92 -188zM271 237q12 67 11 114
l-134 -274q9 -28 31 -28q59 0 92 188z" />
    <glyph glyph-name="ugrave" unicode="&#xf9;" horiz-adv-x="402" 
d="M286 108q-4 -29 12 -44t45 -15l-9 -55q-23 0 -42 5.5t-30 13t-18.5 15.5t-10.5 14l-3 5q-1 -2 -3 -5.5t-9 -13t-16 -16.5t-25 -12.5t-34 -5.5q-58 0 -82.5 49t-8.5 138l42 238h-49l10 55h119l-43 -250q-32 -175 23 -175q28 0 47 41.5t35 133.5l44 250h71zM227 621l33 -93
h-49l-52 93h68z" />
    <glyph glyph-name="uacute" unicode="&#xfa;" horiz-adv-x="402" 
d="M286 108q-4 -29 12 -44t45 -15l-9 -55q-23 0 -42 5.5t-30 13t-18.5 15.5t-10.5 14l-3 5q-1 -2 -3 -5.5t-9 -13t-16 -16.5t-25 -12.5t-34 -5.5q-58 0 -82.5 49t-8.5 138l42 238h-49l10 55h119l-43 -250q-32 -175 23 -175q28 0 47 41.5t35 133.5l44 250h71zM266 621h68
l-84 -93h-49z" />
    <glyph glyph-name="ucircumflex" unicode="&#xfb;" horiz-adv-x="402" 
d="M286 108q-4 -29 12 -44t45 -15l-9 -55q-23 0 -42 5.5t-30 13t-18.5 15.5t-10.5 14l-3 5q-1 -2 -3 -5.5t-9 -13t-16 -16.5t-25 -12.5t-34 -5.5q-58 0 -82.5 49t-8.5 138l42 238h-49l10 55h119l-43 -250q-32 -175 23 -175q28 0 47 41.5t35 133.5l44 250h71zM269 621l66 -93
h-52l-43 64l-64 -64h-53l99 93h47z" />
    <glyph glyph-name="udieresis" unicode="&#xfc;" horiz-adv-x="402" 
d="M286 108q-4 -29 12 -44t45 -15l-9 -55q-23 0 -42 5.5t-30 13t-18.5 15.5t-10.5 14l-3 5q-1 -2 -3 -5.5t-9 -13t-16 -16.5t-25 -12.5t-34 -5.5q-58 0 -82.5 49t-8.5 138l42 238h-49l10 55h119l-43 -250q-32 -175 23 -175q28 0 47 41.5t35 133.5l44 250h71zM142 529l10 60
h60l-11 -60h-59zM267 589h59l-10 -60h-60z" />
    <glyph glyph-name="yacute" unicode="&#xfd;" horiz-adv-x="405" 
d="M266 510q48 0 74.5 -34t16.5 -92l-72 -412q-31 -181 -145 -181q-51 0 -76.5 43t-14.5 109h54q-7 -45 3.5 -71t36.5 -26q48 0 71 126l15 89q-2 -5 -7 -11.5t-24.5 -18t-44.5 -11.5q-51 0 -75.5 51t-9.5 137l38 211h-55l9 55h126l-39 -224q-32 -175 27 -175q57 0 89 175
l28 158q4 23 -5.5 35.5t-28.5 12.5zM258 621h68l-84 -93h-49z" />
    <glyph glyph-name="thorn" unicode="&#xfe;" horiz-adv-x="429" 
d="M300 480q53 0 73 -56t1 -162l-10 -58q-36 -210 -140 -210q-22 0 -39 9t-23 19l-5 9l-41 -234h-71l159 904l74 18l-48 -277l8 10.5t23.5 17t38.5 10.5zM301 250q13 68 7 121.5t-32 53.5t-50 -51.5t-36 -123.5l-6 -34q-13 -68 -7 -117.5t33 -49.5t49.5 47.5t35.5 119.5z
" />
    <glyph glyph-name="ydieresis" unicode="&#xff;" horiz-adv-x="405" 
d="M266 510q48 0 74.5 -34t16.5 -92l-72 -412q-31 -181 -145 -181q-51 0 -76.5 43t-14.5 109h54q-7 -45 3.5 -71t36.5 -26q48 0 71 126l15 89q-2 -5 -7 -11.5t-24.5 -18t-44.5 -11.5q-51 0 -75.5 51t-9.5 137l38 211h-55l9 55h126l-39 -224q-32 -175 27 -175q57 0 89 175
l28 158q4 23 -5.5 35.5t-28.5 12.5zM139 529l10 60h60l-11 -60h-59zM264 589h59l-10 -60h-60z" />
    <glyph glyph-name="Amacron" unicode="&#x100;" horiz-adv-x="401" 
d="M334 677l32 -677h-76l-5 179h-119l-69 -179h-72l271 677h38zM186 234h97l-7 235z" />
    <glyph glyph-name="amacron" unicode="&#x101;" horiz-adv-x="402" 
d="M302 98q-4 -24 11.5 -36.5t43.5 -12.5l-10 -55q-24 0 -42.5 5.5t-28.5 13.5t-16.5 16t-8.5 13l-2 6q-3 -6 -9.5 -15t-31 -24t-54.5 -15q-53 0 -85 43t-20 110q13 75 73.5 125t148.5 50q9 50 -9 76.5t-55 26.5q-22 0 -40.5 -8.5t-26.5 -16.5l-8 -8l-26 42q5 5 13.5 12.5
t37.5 20.5t60 13q63 0 100.5 -42.5t22.5 -125.5zM245 174l16 93q-51 0 -92 -34.5t-49 -82.5q-6 -38 6.5 -65.5t42.5 -27.5q55 0 76 117z" />
    <glyph glyph-name="Abreve" unicode="&#x102;" horiz-adv-x="401" 
d="M334 677l32 -677h-76l-5 179h-119l-69 -179h-72l271 677h38zM186 234h97l-7 235z" />
    <glyph glyph-name="abreve" unicode="&#x103;" horiz-adv-x="402" 
d="M302 98q-4 -24 11.5 -36.5t43.5 -12.5l-10 -55q-24 0 -42.5 5.5t-28.5 13.5t-16.5 16t-8.5 13l-2 6q-3 -6 -9.5 -15t-31 -24t-54.5 -15q-53 0 -85 43t-20 110q13 75 73.5 125t148.5 50q9 50 -9 76.5t-55 26.5q-22 0 -40.5 -8.5t-26.5 -16.5l-8 -8l-26 42q5 5 13.5 12.5
t37.5 20.5t60 13q63 0 100.5 -42.5t22.5 -125.5zM245 174l16 93q-51 0 -92 -34.5t-49 -82.5q-6 -38 6.5 -65.5t42.5 -27.5q55 0 76 117z" />
    <glyph glyph-name="Aogonek" unicode="&#x104;" horiz-adv-x="401" 
d="M334 677l32 -677h-76l-5 179h-119l-69 -179h-72l271 677h38zM186 234h97l-7 235z" />
    <glyph glyph-name="aogonek" unicode="&#x105;" horiz-adv-x="402" 
d="M302 98q-4 -24 11.5 -36.5t43.5 -12.5l-10 -55q-24 0 -42.5 5.5t-28.5 13.5t-16.5 16t-8.5 13l-2 6q-3 -6 -9.5 -15t-31 -24t-54.5 -15q-53 0 -85 43t-20 110q13 75 73.5 125t148.5 50q9 50 -9 76.5t-55 26.5q-22 0 -40.5 -8.5t-26.5 -16.5l-8 -8l-26 42q5 5 13.5 12.5
t37.5 20.5t60 13q63 0 100.5 -42.5t22.5 -125.5zM245 174l16 93q-51 0 -92 -34.5t-49 -82.5q-6 -38 6.5 -65.5t42.5 -27.5q55 0 76 117z" />
    <glyph glyph-name="Cacute" unicode="&#x106;" horiz-adv-x="357" 
d="M288 683q22 0 41 -6t30 -14.5t19 -17.5t11 -15l3 -6l-31 -47l-2.5 5t-7.5 11.5t-13.5 15t-20 11.5t-27.5 5q-57 0 -100 -77.5t-65 -209.5q-25 -122 -7.5 -204.5t81.5 -82.5q24 0 44.5 11t28.5 22l8 11l13 -47q-1 -2 -3.5 -5.5t-11.5 -13t-20 -16.5t-29.5 -13t-39.5 -6
q-83 0 -127 81.5t-17 234.5l10 57q27 154 92 235t141 81z" />
    <glyph glyph-name="cacute" unicode="&#x107;" horiz-adv-x="375" 
d="M240 480q26 0 48.5 -11t31.5 -23l10 -11l-22 -45q-24 35 -64 35q-85 0 -118 -188q-15 -86 4.5 -137t64.5 -51q18 0 33 7t21 14l6 7l20 -44q-3 -4 -10 -10.5t-31 -17.5t-52 -11q-71 0 -109 64t-23 150l10 58q19 103 66 158.5t114 55.5z" />
    <glyph glyph-name="Ccaron" unicode="&#x10c;" horiz-adv-x="357" 
d="M288 683q22 0 41 -6t30 -14.5t19 -17.5t11 -15l3 -6l-31 -47l-2.5 5t-7.5 11.5t-13.5 15t-20 11.5t-27.5 5q-57 0 -100 -77.5t-65 -209.5q-25 -122 -7.5 -204.5t81.5 -82.5q24 0 44.5 11t28.5 22l8 11l13 -47q-1 -2 -3.5 -5.5t-11.5 -13t-20 -16.5t-29.5 -13t-39.5 -6
q-83 0 -127 81.5t-17 234.5l10 57q27 154 92 235t141 81z" />
    <glyph glyph-name="ccaron" unicode="&#x10d;" horiz-adv-x="375" 
d="M240 480q26 0 48.5 -11t31.5 -23l10 -11l-22 -45q-24 35 -64 35q-85 0 -118 -188q-15 -86 4.5 -137t64.5 -51q18 0 33 7t21 14l6 7l20 -44q-3 -4 -10 -10.5t-31 -17.5t-52 -11q-71 0 -109 64t-23 150l10 58q19 103 66 158.5t114 55.5z" />
    <glyph glyph-name="Dcaron" unicode="&#x10e;" horiz-adv-x="405" 
d="M259 677q73 0 104.5 -74.5t3.5 -235.5l-10 -57q-54 -310 -202 -310h-130l119 677h115zM288 338q24 142 13.5 211.5t-52.5 69.5h-40l-99 -561h39q42 0 78 70.5t61 209.5z" />
    <glyph glyph-name="dcaron" unicode="&#x10f;" horiz-adv-x="430" 
d="M283 97q-4 -23 11 -35.5t44 -12.5l-10 -55q-25 0 -44.5 5.5t-29.5 13t-17 15.5t-9 14l-2 5q-2 -6 -7.5 -15t-25 -23.5t-43.5 -14.5q-59 0 -87 58.5t-11 155.5l10 58q20 112 58.5 163t86.5 51q22 0 38 -12t21 -24l5 -12l40 229h-70l9 52h141zM240 237q32 188 -22 188
q-57 0 -90 -188t24 -188q55 0 88 188z" />
    <glyph glyph-name="Dcroat" unicode="&#x110;" horiz-adv-x="405" 
d="M259 677q47 0 76.5 -29.5t41 -98.5t-9.5 -182l-10 -57q-29 -165 -80.5 -237.5t-125.5 -72.5h-126l56 316h-46l10 57h46l53 304h115zM288 338q24 142 13.5 211.5t-52.5 69.5h-40l-44 -246h64l-10 -57h-64l-45 -258h39q42 0 78 70.5t61 209.5z" />
    <glyph glyph-name="dcroat" unicode="&#x111;" horiz-adv-x="466" 
d="M372 604h49l-10 -55h-49l-79 -452q-4 -23 11 -35.5t44 -12.5l-10 -55q-25 0 -44.5 5.5t-29.5 13t-17 15.5t-9 14l-2 5q-2 -6 -7.5 -15t-25 -23.5t-43.5 -14.5q-59 0 -87 58.5t-11 155.5l10 58q20 112 58.5 163t86.5 51q22 0 38 -12t21 -24l5 -12l21 117h-71l9 55h71
l17 97l74 18zM240 237q32 188 -22 188q-57 0 -90 -188t24 -188q55 0 88 188z" />
    <glyph glyph-name="Emacron" unicode="&#x112;" horiz-adv-x="336" 
d="M361 619h-152l-38 -213h115l-10 -58h-115l-51 -290h152l-11 -58h-226l119 677h227z" />
    <glyph glyph-name="emacron" unicode="&#x113;" horiz-adv-x="358" 
d="M224 480q56 0 77.5 -60.5t3.5 -157.5l-6 -36h-175q-31 -177 62 -177q19 0 37.5 10.5t26.5 20.5l9 11l21 -46q-4 -6 -11.5 -14.5t-34.5 -22.5t-58 -14q-66 0 -104.5 57t-21.5 153l10 58q18 106 61.5 162t102.5 56zM237 273q13 65 7.5 108.5t-30.5 43.5q-24 0 -47 -43
t-35 -109h105z" />
    <glyph glyph-name="Edotaccent" unicode="&#x116;" horiz-adv-x="336" 
d="M361 619h-152l-38 -213h115l-10 -58h-115l-51 -290h152l-11 -58h-226l119 677h227z" />
    <glyph glyph-name="edotaccent" unicode="&#x117;" horiz-adv-x="358" 
d="M224 480q56 0 77.5 -60.5t3.5 -157.5l-6 -36h-175q-31 -177 62 -177q19 0 37.5 10.5t26.5 20.5l9 11l21 -46q-4 -6 -11.5 -14.5t-34.5 -22.5t-58 -14q-66 0 -104.5 57t-21.5 153l10 58q18 106 61.5 162t102.5 56zM237 273q13 65 7.5 108.5t-30.5 43.5q-24 0 -47 -43
t-35 -109h105z" />
    <glyph glyph-name="Eogonek" unicode="&#x118;" horiz-adv-x="336" 
d="M361 619h-152l-38 -213h115l-10 -58h-115l-51 -290h152l-11 -58h-226l119 677h227z" />
    <glyph glyph-name="eogonek" unicode="&#x119;" horiz-adv-x="358" 
d="M224 480q56 0 77.5 -60.5t3.5 -157.5l-6 -36h-175q-31 -177 62 -177q19 0 37.5 10.5t26.5 20.5l9 11l21 -46q-4 -6 -11.5 -14.5t-34.5 -22.5t-58 -14q-66 0 -104.5 57t-21.5 153l10 58q18 106 61.5 162t102.5 56zM237 273q13 65 7.5 108.5t-30.5 43.5q-24 0 -47 -43
t-35 -109h105z" />
    <glyph glyph-name="Ecaron" unicode="&#x11a;" horiz-adv-x="336" 
d="M361 619h-152l-38 -213h115l-10 -58h-115l-51 -290h152l-11 -58h-226l119 677h227z" />
    <glyph glyph-name="ecaron" unicode="&#x11b;" horiz-adv-x="358" 
d="M224 480q56 0 77.5 -60.5t3.5 -157.5l-6 -36h-175q-31 -177 62 -177q19 0 37.5 10.5t26.5 20.5l9 11l21 -46q-4 -6 -11.5 -14.5t-34.5 -22.5t-58 -14q-66 0 -104.5 57t-21.5 153l10 58q18 106 61.5 162t102.5 56zM237 273q13 65 7.5 108.5t-30.5 43.5q-24 0 -47 -43
t-35 -109h105z" />
    <glyph glyph-name="Gbreve" unicode="&#x11e;" horiz-adv-x="387" 
d="M197 352l10 58h129l-52 -294q-1 -5 -3.5 -13t-13.5 -29t-24.5 -37.5t-38 -29.5t-53.5 -13q-74 0 -107.5 79.5t-5.5 236.5l10 57q28 158 85.5 237t134.5 79q30 0 53.5 -11.5t32.5 -23.5l8 -11l-29 -45q-19 33 -57 33q-53 0 -94.5 -79t-64.5 -208q-24 -139 -14 -213t53 -74
q19 0 34 17.5t20 34.5l6 17l41 232h-60z" />
    <glyph glyph-name="gbreve" unicode="&#x11f;" horiz-adv-x="448" 
d="M322 474h81l-10 -55h-33l-78 -447q-18 -96 -52.5 -138.5t-90.5 -42.5q-43 0 -71.5 34t-19.5 89h47q-5 -29 7 -48.5t37 -19.5q26 0 42 27t29 99l13 72q-2 -6 -5.5 -14t-20 -22t-39.5 -14q-49 0 -73.5 57t-7.5 153l10 58q38 218 135 218q23 0 40 -12.5t22 -25.5l6 -12z
M266 237q33 188 -20 188q-27 0 -51.5 -50.5t-40.5 -137.5q-14 -86 -7 -137t32 -51q54 0 87 188z" />
    <glyph glyph-name="uni0122" unicode="&#x122;" horiz-adv-x="387" 
d="M197 352l10 58h129l-52 -294q-1 -5 -3.5 -13t-13.5 -29t-24.5 -37.5t-38 -29.5t-53.5 -13q-74 0 -107.5 79.5t-5.5 236.5l10 57q28 158 85.5 237t134.5 79q30 0 53.5 -11.5t32.5 -23.5l8 -11l-29 -45q-19 33 -57 33q-53 0 -94.5 -79t-64.5 -208q-24 -139 -14 -213t53 -74
q19 0 34 17.5t20 34.5l6 17l41 232h-60z" />
    <glyph glyph-name="uni0123" unicode="&#x123;" horiz-adv-x="448" 
d="M322 474h81l-10 -55h-33l-78 -447q-18 -96 -52.5 -138.5t-90.5 -42.5q-43 0 -71.5 34t-19.5 89h47q-5 -29 7 -48.5t37 -19.5q26 0 42 27t29 99l13 72q-2 -6 -5.5 -14t-20 -22t-39.5 -14q-49 0 -73.5 57t-7.5 153l10 58q38 218 135 218q23 0 40 -12.5t22 -25.5l6 -12z
M266 237q33 188 -20 188q-27 0 -51.5 -50.5t-40.5 -137.5q-14 -86 -7 -137t32 -51q54 0 87 188z" />
    <glyph glyph-name="Imacron" unicode="&#x12a;" horiz-adv-x="184" 
d="M144 677h75l-120 -677h-74z" />
    <glyph glyph-name="imacron" unicode="&#x12b;" horiz-adv-x="254" 
d="M181 474l-67 -377q-4 -20 13 -34t42 -14l-10 -55q-61 0 -91.5 34.5t-19.5 96.5l52 294h-55l10 55h126z" />
    <glyph glyph-name="Iogonek" unicode="&#x12e;" horiz-adv-x="184" 
d="M144 677h75l-120 -677h-74z" />
    <glyph glyph-name="iogonek" unicode="&#x12f;" horiz-adv-x="254" 
d="M130 614h79l-12 -71h-79zM181 474l-67 -377q-4 -20 13 -34t42 -14l-10 -55q-61 0 -91.5 34.5t-19.5 96.5l52 294h-55l10 55h126z" />
    <glyph glyph-name="Idotaccent" unicode="&#x130;" horiz-adv-x="184" 
d="M144 677h75l-120 -677h-74z" />
    <glyph glyph-name="dotlessi" unicode="&#x131;" horiz-adv-x="254" 
d="M181 474l-67 -377q-4 -20 13 -34t42 -14l-10 -55q-61 0 -91.5 34.5t-19.5 96.5l52 294h-55l10 55h126z" />
    <glyph glyph-name="uni0136" unicode="&#x136;" horiz-adv-x="417" 
d="M432 677l-172 -235l58 -442h-78l-47 351l-42 -57l-52 -294h-74l119 677h75l-43 -245l179 245h77z" />
    <glyph glyph-name="uni0137" unicode="&#x137;" horiz-adv-x="418" 
d="M371 371q-14 -81 -104 -133l25 -146q8 -43 41 -43l-10 -55q-46 0 -67.5 30t-34.5 101l-15 84l-56 -17l-34 -192h-71l116 661h-60l9 52h132l-56 -314q2 3 5 8t13.5 18t22.5 23t30.5 18t38.5 8q39 0 60.5 -31t14.5 -72zM299 364q9 55 -26 55q-32 0 -68 -59t-47 -121
q5 2 14 6t31.5 16.5t40.5 26.5t34.5 34.5t20.5 41.5z" />
    <glyph glyph-name="Lacute" unicode="&#x139;" horiz-adv-x="304" 
d="M110 58h149l-10 -58h-224l119 677h75z" />
    <glyph glyph-name="lacute" unicode="&#x13a;" horiz-adv-x="262" 
d="M115 97q-4 -25 11 -36.5t44 -11.5l-10 -55q-133 0 -111 131l95 536h-55l9 52h126z" />
    <glyph glyph-name="uni013B" unicode="&#x13b;" horiz-adv-x="304" 
d="M110 58h149l-10 -58h-224l119 677h75z" />
    <glyph glyph-name="uni013C" unicode="&#x13c;" horiz-adv-x="262" 
d="M115 97q-4 -25 11 -36.5t44 -11.5l-10 -55q-133 0 -111 131l95 536h-55l9 52h126z" />
    <glyph glyph-name="Lcaron" unicode="&#x13d;" horiz-adv-x="304" 
d="M110 58h149l-10 -58h-224l119 677h75z" />
    <glyph glyph-name="lcaron" unicode="&#x13e;" horiz-adv-x="262" 
d="M115 97q-4 -25 11 -36.5t44 -11.5l-10 -55q-133 0 -111 131l95 536h-55l9 52h126z" />
    <glyph glyph-name="Lslash" unicode="&#x141;" horiz-adv-x="307" 
d="M129 323l-46 -265h149l-10 -58h-224l54 309l-69 -13l-1 56l81 15l54 310h75l-52 -295l96 18l1 -57z" />
    <glyph glyph-name="lslash" unicode="&#x142;" horiz-adv-x="293" 
d="M111 97q-4 -25 11 -36.5t44 -11.5l-10 -55q-133 0 -111 131l33 184l-84 -16l-1 57l95 18l52 293h-55l9 52h126l-59 -332l86 17l1 -57l-97 -18z" />
    <glyph glyph-name="Nacute" unicode="&#x143;" horiz-adv-x="434" 
d="M362 677h72l-120 -683h-72l-67 448l-78 -442h-72l119 677h73l66 -449z" />
    <glyph glyph-name="nacute" unicode="&#x144;" horiz-adv-x="410" 
d="M310 97q-4 -24 11.5 -36t43.5 -12l-10 -55q-133 0 -108 144l30 169q10 60 1 89t-34 29q-24 0 -44 -30t-30 -88l-54 -307h-71l74 419h-49l10 55h71l23 -50q36 56 90 56t75.5 -48t5.5 -139z" />
    <glyph glyph-name="uni0145" unicode="&#x145;" horiz-adv-x="434" 
d="M362 677h72l-120 -683h-72l-67 448l-78 -442h-72l119 677h73l66 -449z" />
    <glyph glyph-name="uni0146" unicode="&#x146;" horiz-adv-x="410" 
d="M310 97q-4 -24 11.5 -36t43.5 -12l-10 -55q-133 0 -108 144l30 169q10 60 1 89t-34 29q-24 0 -44 -30t-30 -88l-54 -307h-71l74 419h-49l10 55h71l23 -50q36 56 90 56t75.5 -48t5.5 -139z" />
    <glyph glyph-name="Ncaron" unicode="&#x147;" horiz-adv-x="434" 
d="M362 677h72l-120 -683h-72l-67 448l-78 -442h-72l119 677h73l66 -449z" />
    <glyph glyph-name="ncaron" unicode="&#x148;" horiz-adv-x="410" 
d="M310 97q-4 -24 11.5 -36t43.5 -12l-10 -55q-133 0 -108 144l30 169q10 60 1 89t-34 29q-24 0 -44 -30t-30 -88l-54 -307h-71l74 419h-49l10 55h71l23 -50q36 56 90 56t75.5 -48t5.5 -139z" />
    <glyph glyph-name="Omacron" unicode="&#x14c;" horiz-adv-x="384" 
d="M250 683q72 0 103 -75t2 -241l-11 -57q-55 -316 -200 -316q-73 0 -104 75t-1 241l10 57q29 169 79.5 242.5t121.5 73.5zM275 338q24 134 16.5 210.5t-44.5 76.5t-71 -76t-58 -211q-24 -134 -16.5 -210.5t44.5 -76.5t71.5 76.5t57.5 210.5z" />
    <glyph glyph-name="omacron" unicode="&#x14d;" horiz-adv-x="374" 
d="M225 480q61 0 88 -54t8 -160l-10 -58q-37 -214 -163 -214q-57 0 -85.5 55t-10.5 159l10 58q19 107 62 160.5t101 53.5zM245 237q16 77 10.5 132.5t-35.5 55.5q-59 0 -92 -188t25 -188q59 0 92 188z" />
    <glyph glyph-name="Ohungarumlaut" unicode="&#x150;" horiz-adv-x="384" 
d="M250 683q72 0 103 -75t2 -241l-11 -57q-55 -316 -200 -316q-73 0 -104 75t-1 241l10 57q29 169 79.5 242.5t121.5 73.5zM275 338q24 134 16.5 210.5t-44.5 76.5t-71 -76t-58 -211q-24 -134 -16.5 -210.5t44.5 -76.5t71.5 76.5t57.5 210.5z" />
    <glyph glyph-name="ohungarumlaut" unicode="&#x151;" horiz-adv-x="374" 
d="M225 480q61 0 88 -54t8 -160l-10 -58q-37 -214 -163 -214q-57 0 -85.5 55t-10.5 159l10 58q19 107 62 160.5t101 53.5zM245 237q16 77 10.5 132.5t-35.5 55.5q-59 0 -92 -188t25 -188q59 0 92 188z" />
    <glyph glyph-name="OE" unicode="&#x152;" horiz-adv-x="566" 
d="M550 619h-152l-37 -213h115l-10 -58h-115l-52 -290h152l-10 -58h-226l9 51q-39 -57 -93 -57q-63 0 -92 79.5t-1 236.5l10 57q28 159 79 237.5t113 78.5q60 0 82 -75l12 69h227zM284 356q21 119 11 194t-45 75q-36 0 -72 -75t-58 -194l-6 -35q-21 -120 -11 -195t45 -75
q36 0 72 75t58 195z" />
    <glyph glyph-name="oe" unicode="&#x153;" horiz-adv-x="544" 
d="M408 480q59 0 79.5 -56t2.5 -162l-7 -36h-168q-17 -89 -5 -133t57 -44q20 0 38.5 10t26.5 20l8 10l14 -46q-3 -5 -10 -13.5t-34 -22t-60 -13.5q-69 0 -98 54q-40 -54 -101 -54q-63 0 -90 54.5t-9 155.5l10 58q18 104 59.5 161t102.5 57t89 -53q38 53 95 53zM246 237
q16 77 10 132.5t-35 55.5t-53.5 -53t-38.5 -135q-15 -78 -9.5 -133t34.5 -55t53.5 52.5t38.5 135.5zM429 273q12 69 5.5 110.5t-31.5 41.5t-46 -41t-33 -111h105z" />
    <glyph glyph-name="Racute" unicode="&#x154;" horiz-adv-x="384" 
d="M252 677q70 0 106 -44.5t21 -130.5q-25 -139 -129 -169l45 -333h-73l-43 327h-22l-58 -327h-74l119 677h108zM305 502q10 56 -5.5 86.5t-51.5 30.5h-39l-42 -235h40q36 0 62 31t36 87z" />
    <glyph glyph-name="racute" unicode="&#x155;" horiz-adv-x="374" 
d="M268 480q17 0 32.5 -5t21.5 -11l7 -5l-25 -54q-18 20 -46 20q-67 0 -93 -146l-49 -279h-71l74 419h-49l10 55h71l24 -52q38 58 93 58z" />
    <glyph glyph-name="uni0156" unicode="&#x156;" horiz-adv-x="384" 
d="M252 677q70 0 106 -44.5t21 -130.5q-25 -139 -129 -169l45 -333h-73l-43 327h-22l-58 -327h-74l119 677h108zM305 502q10 56 -5.5 86.5t-51.5 30.5h-39l-42 -235h40q36 0 62 31t36 87z" />
    <glyph glyph-name="uni0157" unicode="&#x157;" horiz-adv-x="374" 
d="M268 480q17 0 32.5 -5t21.5 -11l7 -5l-25 -54q-18 20 -46 20q-67 0 -93 -146l-49 -279h-71l74 419h-49l10 55h71l24 -52q38 58 93 58z" />
    <glyph glyph-name="Rcaron" unicode="&#x158;" horiz-adv-x="384" 
d="M252 677q70 0 106 -44.5t21 -130.5q-25 -139 -129 -169l45 -333h-73l-43 327h-22l-58 -327h-74l119 677h108zM305 502q10 56 -5.5 86.5t-51.5 30.5h-39l-42 -235h40q36 0 62 31t36 87z" />
    <glyph glyph-name="rcaron" unicode="&#x159;" horiz-adv-x="374" 
d="M268 480q17 0 32.5 -5t21.5 -11l7 -5l-25 -54q-18 20 -46 20q-67 0 -93 -146l-49 -279h-71l74 419h-49l10 55h71l24 -52q38 58 93 58z" />
    <glyph glyph-name="Sacute" unicode="&#x15a;" horiz-adv-x="400" 
d="M273 683q36 0 65.5 -13.5t40.5 -27.5l11 -13l-29 -45q-4 5 -10.5 11.5t-29 18t-46.5 11.5q-35 0 -59 -23t-31 -60q-5 -31 8.5 -72.5t36.5 -82.5l45.5 -83.5t35.5 -88.5t6 -84q-11 -62 -55 -99.5t-107 -37.5q-43 0 -78 15t-49 30l-13 15l32 50q2 -2 4.5 -5.5t12.5 -13
t21 -16.5t28 -12.5t34 -5.5q82 0 98 91q7 41 -15.5 96.5t-52.5 103t-51.5 105.5t-13.5 103q11 61 54.5 97t106.5 36z" />
    <glyph glyph-name="sacute" unicode="&#x15b;" horiz-adv-x="353" 
d="M232 480q28 0 52 -11.5t34 -22.5l11 -12l-27 -42q-22 33 -67 33q-56 0 -65 -51q-5 -25 15 -61t46 -66.5t45 -70.5t13 -73q-9 -52 -43 -80.5t-86 -28.5q-25 0 -45.5 8t-33 19.5t-21 23t-12.5 19.5l-3 8l29 45q1 -3 3 -7.5t10 -16t17 -20.5t24 -16.5t32 -7.5q52 0 62 59
q4 25 -16 60t-45.5 66t-44.5 71t-13 74q9 50 43.5 75.5t85.5 25.5z" />
    <glyph glyph-name="uni015E" unicode="&#x15e;" horiz-adv-x="400" 
d="M273 683q36 0 65.5 -13.5t40.5 -27.5l11 -13l-29 -45q-4 5 -10.5 11.5t-29 18t-46.5 11.5q-35 0 -59 -23t-31 -60q-5 -31 8.5 -72.5t36.5 -82.5l45.5 -83.5t35.5 -88.5t6 -84q-11 -62 -55 -99.5t-107 -37.5q-43 0 -78 15t-49 30l-13 15l32 50q2 -2 4.5 -5.5t12.5 -13
t21 -16.5t28 -12.5t34 -5.5q82 0 98 91q7 41 -15.5 96.5t-52.5 103t-51.5 105.5t-13.5 103q11 61 54.5 97t106.5 36z" />
    <glyph glyph-name="uni015F" unicode="&#x15f;" horiz-adv-x="353" 
d="M232 480q28 0 52 -11.5t34 -22.5l11 -12l-27 -42q-22 33 -67 33q-56 0 -65 -51q-5 -25 15 -61t46 -66.5t45 -70.5t13 -73q-9 -52 -43 -80.5t-86 -28.5q-25 0 -45.5 8t-33 19.5t-21 23t-12.5 19.5l-3 8l29 45q1 -3 3 -7.5t10 -16t17 -20.5t24 -16.5t32 -7.5q52 0 62 59
q4 25 -16 60t-45.5 66t-44.5 71t-13 74q9 50 43.5 75.5t85.5 25.5z" />
    <glyph glyph-name="Scaron" unicode="&#x160;" horiz-adv-x="400" 
d="M273 683q36 0 65.5 -13.5t40.5 -27.5l11 -13l-29 -45q-4 5 -10.5 11.5t-29 18t-46.5 11.5q-35 0 -59 -23t-31 -60q-5 -31 8.5 -72.5t36.5 -82.5l45.5 -83.5t35.5 -88.5t6 -84q-11 -62 -55 -99.5t-107 -37.5q-43 0 -78 15t-49 30l-13 15l32 50q2 -2 4.5 -5.5t12.5 -13
t21 -16.5t28 -12.5t34 -5.5q82 0 98 91q7 41 -15.5 96.5t-52.5 103t-51.5 105.5t-13.5 103q11 61 54.5 97t106.5 36zM339 820h52l-99 -93h-47l-66 93h53l42 -64z" />
    <glyph glyph-name="scaron" unicode="&#x161;" horiz-adv-x="353" 
d="M232 480q28 0 52 -11.5t34 -22.5l11 -12l-27 -42q-22 33 -67 33q-56 0 -65 -51q-5 -25 15 -61t46 -66.5t45 -70.5t13 -73q-9 -52 -43 -80.5t-86 -28.5q-25 0 -45.5 8t-33 19.5t-21 23t-12.5 19.5l-3 8l29 45q1 -3 3 -7.5t10 -16t17 -20.5t24 -16.5t32 -7.5q52 0 62 59
q4 25 -16 60t-45.5 66t-44.5 71t-13 74q9 50 43.5 75.5t85.5 25.5zM296 620h52l-99 -93h-47l-66 93h53l42 -64z" />
    <glyph glyph-name="uni0162" unicode="&#x162;" horiz-adv-x="320" 
d="M35 677h300l-11 -58h-112l-109 -619h-75l109 619h-112z" />
    <glyph glyph-name="uni0163" unicode="&#x163;" horiz-adv-x="334" 
d="M189 425l-46 -264q-9 -52 3.5 -82t41.5 -30q14 0 28.5 7.5t21.5 15.5l8 7l18 -39q-3 -5 -9 -12.5t-29.5 -20.5t-52.5 -13q-54 0 -84 48t-16 124l46 259h-74l10 55q45 0 67.5 27t34.5 89l66 17l-24 -133h90l-9 -55h-91z" />
    <glyph glyph-name="Tcaron" unicode="&#x164;" horiz-adv-x="320" 
d="M35 677h300l-11 -58h-112l-109 -619h-75l109 619h-112z" />
    <glyph glyph-name="tcaron" unicode="&#x165;" horiz-adv-x="334" 
d="M189 425l-46 -264q-9 -52 3.5 -82t41.5 -30q14 0 28.5 7.5t21.5 15.5l8 7l18 -39q-3 -5 -9 -12.5t-29.5 -20.5t-52.5 -13q-54 0 -84 48t-16 124l46 259h-74l10 55q45 0 67.5 27t34.5 89l66 17l-24 -133h90l-9 -55h-91z" />
    <glyph glyph-name="Umacron" unicode="&#x16a;" horiz-adv-x="361" 
d="M312 677h74l-82 -465q-38 -218 -168 -218q-62 0 -92 54t-11 164l82 465h75l-81 -456q-16 -93 -8 -131.5t39 -38.5q32 0 54 39.5t38 130.5z" />
    <glyph glyph-name="umacron" unicode="&#x16b;" horiz-adv-x="402" 
d="M286 108q-4 -29 12 -44t45 -15l-9 -55q-23 0 -42 5.5t-30 13t-18.5 15.5t-10.5 14l-3 5q-1 -2 -3 -5.5t-9 -13t-16 -16.5t-25 -12.5t-34 -5.5q-58 0 -82.5 49t-8.5 138l42 238h-49l10 55h119l-43 -250q-32 -175 23 -175q28 0 47 41.5t35 133.5l44 250h71z" />
    <glyph glyph-name="Uring" unicode="&#x16e;" horiz-adv-x="361" 
d="M312 677h74l-82 -465q-38 -218 -168 -218q-62 0 -92 54t-11 164l82 465h75l-81 -456q-16 -93 -8 -131.5t39 -38.5q32 0 54 39.5t38 130.5z" />
    <glyph glyph-name="uring" unicode="&#x16f;" horiz-adv-x="402" 
d="M286 108q-4 -29 12 -44t45 -15l-9 -55q-23 0 -42 5.5t-30 13t-18.5 15.5t-10.5 14l-3 5q-1 -2 -3 -5.5t-9 -13t-16 -16.5t-25 -12.5t-34 -5.5q-58 0 -82.5 49t-8.5 138l42 238h-49l10 55h119l-43 -250q-32 -175 23 -175q28 0 47 41.5t35 133.5l44 250h71z" />
    <glyph glyph-name="Uhungarumlaut" unicode="&#x170;" horiz-adv-x="361" 
d="M312 677h74l-82 -465q-38 -218 -168 -218q-62 0 -92 54t-11 164l82 465h75l-81 -456q-16 -93 -8 -131.5t39 -38.5q32 0 54 39.5t38 130.5z" />
    <glyph glyph-name="uhungarumlaut" unicode="&#x171;" horiz-adv-x="402" 
d="M286 108q-4 -29 12 -44t45 -15l-9 -55q-23 0 -42 5.5t-30 13t-18.5 15.5t-10.5 14l-3 5q-1 -2 -3 -5.5t-9 -13t-16 -16.5t-25 -12.5t-34 -5.5q-58 0 -82.5 49t-8.5 138l42 238h-49l10 55h119l-43 -250q-32 -175 23 -175q28 0 47 41.5t35 133.5l44 250h71z" />
    <glyph glyph-name="Uogonek" unicode="&#x172;" horiz-adv-x="361" 
d="M312 677h74l-82 -465q-38 -218 -168 -218q-62 0 -92 54t-11 164l82 465h75l-81 -456q-16 -93 -8 -131.5t39 -38.5q32 0 54 39.5t38 130.5z" />
    <glyph glyph-name="uogonek" unicode="&#x173;" horiz-adv-x="402" 
d="M286 108q-4 -29 12 -44t45 -15l-9 -55q-23 0 -42 5.5t-30 13t-18.5 15.5t-10.5 14l-3 5q-1 -2 -3 -5.5t-9 -13t-16 -16.5t-25 -12.5t-34 -5.5q-58 0 -82.5 49t-8.5 138l42 238h-49l10 55h119l-43 -250q-32 -175 23 -175q28 0 47 41.5t35 133.5l44 250h71z" />
    <glyph glyph-name="Ydieresis" unicode="&#x178;" horiz-adv-x="317" 
d="M274 677h78l-186 -335l-60 -342h-75l61 345l-67 332h80l44 -237zM109 729l10 60h60l-11 -60h-59zM234 789h59l-10 -60h-60z" />
    <glyph glyph-name="Zacute" unicode="&#x179;" horiz-adv-x="421" 
d="M147 677h249l-11 -64l-275 -555h177l-10 -58h-252l11 63l275 556h-174z" />
    <glyph glyph-name="zacute" unicode="&#x17a;" horiz-adv-x="352" 
d="M296 411l-179 -355l-1 -1h143l-10 -55h-204l15 84l169 335h-129l9 55h198z" />
    <glyph glyph-name="Zdotaccent" unicode="&#x17b;" horiz-adv-x="421" 
d="M147 677h249l-11 -64l-275 -555h177l-10 -58h-252l11 63l275 556h-174z" />
    <glyph glyph-name="zdotaccent" unicode="&#x17c;" horiz-adv-x="352" 
d="M296 411l-179 -355l-1 -1h143l-10 -55h-204l15 84l169 335h-129l9 55h198z" />
    <glyph glyph-name="Zcaron" unicode="&#x17d;" horiz-adv-x="421" 
d="M147 677h249l-11 -64l-275 -555h177l-10 -58h-252l11 63l275 556h-174zM349 820h52l-99 -93h-47l-66 93h53l42 -64z" />
    <glyph glyph-name="zcaron" unicode="&#x17e;" horiz-adv-x="352" 
d="M296 411l-179 -355l-1 -1h143l-10 -55h-204l15 84l169 335h-129l9 55h198zM287 620h52l-99 -93h-47l-66 93h53l42 -64z" />
    <glyph glyph-name="florin" unicode="&#x192;" horiz-adv-x="525" 
d="M429 683q23 0 41 -7.5t24 -15.5l6 -7l-26 -41q-13 21 -39 21q-54 0 -90 -131l-12 -42h109l-9 -49h-113l-121 -439q-49 -181 -150 -181q-21 0 -39.5 7.5t-26.5 15.5l-8 7l26 41q15 -22 43 -22q51 0 86 132l121 439h-61l8 49h67l11 42q51 181 153 181z" />
    <glyph glyph-name="uni0218" unicode="&#x218;" horiz-adv-x="400" 
d="M273 683q36 0 65.5 -13.5t40.5 -27.5l11 -13l-29 -45q-4 5 -10.5 11.5t-29 18t-46.5 11.5q-35 0 -59 -23t-31 -60q-5 -31 8.5 -72.5t36.5 -82.5l45.5 -83.5t35.5 -88.5t6 -84q-11 -62 -55 -99.5t-107 -37.5q-43 0 -78 15t-49 30l-13 15l32 50q2 -2 4.5 -5.5t12.5 -13
t21 -16.5t28 -12.5t34 -5.5q82 0 98 91q7 41 -15.5 96.5t-52.5 103t-51.5 105.5t-13.5 103q11 61 54.5 97t106.5 36z" />
    <glyph glyph-name="uni0219" unicode="&#x219;" horiz-adv-x="353" 
d="M232 480q28 0 52 -11.5t34 -22.5l11 -12l-27 -42q-22 33 -67 33q-56 0 -65 -51q-5 -25 15 -61t46 -66.5t45 -70.5t13 -73q-9 -52 -43 -80.5t-86 -28.5q-25 0 -45.5 8t-33 19.5t-21 23t-12.5 19.5l-3 8l29 45q1 -3 3 -7.5t10 -16t17 -20.5t24 -16.5t32 -7.5q52 0 62 59
q4 25 -16 60t-45.5 66t-44.5 71t-13 74q9 50 43.5 75.5t85.5 25.5z" />
    <glyph glyph-name="uni021A" unicode="&#x21a;" horiz-adv-x="320" 
d="M35 677h300l-11 -58h-112l-109 -619h-75l109 619h-112z" />
    <glyph glyph-name="uni021B" unicode="&#x21b;" horiz-adv-x="334" 
d="M189 425l-46 -264q-9 -52 3.5 -82t41.5 -30q14 0 28.5 7.5t21.5 15.5l8 7l18 -39q-3 -5 -9 -12.5t-29.5 -20.5t-52.5 -13q-54 0 -84 48t-16 124l46 259h-74l10 55q45 0 67.5 27t34.5 89l66 17l-24 -133h90l-9 -55h-91z" />
    <glyph glyph-name="sc.g" unicode="&#x262;" horiz-adv-x="330" 
d="M163 289l10 54h120l-42 -238q-1 -5 -4 -12t-13 -26.5t-22.5 -34t-34.5 -26.5t-47 -12q-65 0 -93.5 68.5t-7.5 189.5l10 58q22 125 73 191.5t118 66.5q25 0 45 -10t27 -20l8 -11l-27 -41q-14 27 -51 27q-87 0 -127 -232q-42 -232 28 -232q15 0 27.5 14t17.5 28l6 14
l32 184h-53z" />
    <glyph glyph-name="sc.i" unicode="&#x26a;" horiz-adv-x="185" 
d="M119 562h71l-99 -562h-71z" />
    <glyph glyph-name="sc.n" unicode="&#x274;" horiz-adv-x="361" 
d="M304 562h67l-100 -568h-68l-56 346l-60 -340h-67l99 562h67l57 -347z" />
    <glyph glyph-name="sc.r" unicode="&#x280;" horiz-adv-x="341" 
d="M218 562q68 0 100.5 -40.5t18.5 -121.5q-24 -133 -114 -156l33 -244h-67l-32 239h-24l-42 -239h-71l99 562h99zM266 400q9 48 -2.5 77.5t-42.5 29.5h-41l-37 -213h40q31 0 52.5 29.5t30.5 76.5z" />
    <glyph glyph-name="sc.x" unicode="&#x28e;" horiz-adv-x="415" 
d="M395 562l-162 -271l72 -291h-71l-52 208l-124 -208h-73l176 294l-66 268h71l46 -185l110 185h73z" />
    <glyph glyph-name="sc.y" unicode="&#x28f;" horiz-adv-x="378" 
d="M358 562l-173 -289l-48 -273h-71l49 278l-70 284h78l43 -211l117 211h75z" />
    <glyph glyph-name="sc.b" unicode="&#x299;" horiz-adv-x="366" 
d="M342 412q-7 -39 -29 -69t-41 -41l-18 -10q2 -1 4.5 -2t10.5 -6.5t13.5 -12.5l14 -18t12 -24.5t6 -32.5t-2.5 -41q-28 -155 -155 -155h-112l99 562h102q53 0 80.5 -42t15.5 -108zM242 160q8 44 -2 74.5t-42 30.5h-35l-37 -210h35q32 0 52.5 30t28.5 75zM271 413
q7 38 -1.5 66t-37.5 28h-27l-33 -187h27q29 0 47.5 28t24.5 65z" />
    <glyph glyph-name="sc.h" unicode="&#x29c;" horiz-adv-x="355" 
d="M300 562h70l-99 -562h-71l45 253h-109l-45 -253h-71l99 562h71l-45 -254h110z" />
    <glyph glyph-name="sc.l" unicode="&#x29f;" horiz-adv-x="261" 
d="M96 55h135l-10 -55h-206l99 562h71z" />
    <glyph glyph-name="circumflex" unicode="&#x2c6;" horiz-adv-x="282" 
d="M181 621l66 -93h-52l-43 64l-64 -64h-53l99 93h47z" />
    <glyph glyph-name="caron" unicode="&#x2c7;" horiz-adv-x="282" 
d="M195 620h52l-99 -93h-47l-66 93h53l42 -64z" />
    <glyph glyph-name="uni02C9" unicode="&#x2c9;" horiz-adv-x="260" 
d="M43 593h182l-7 -44h-183z" />
    <glyph glyph-name="breve" unicode="&#x2d8;" horiz-adv-x="260" 
d="M190 618h35q-7 -37 -37 -59.5t-71 -22.5t-64 22.5t-16 59.5h36q-3 -14 11 -26t41 -12t44.5 12t20.5 26z" />
    <glyph glyph-name="dotaccent" unicode="&#x2d9;" horiz-adv-x="152" 
d="M46 601h71l-11 -63h-71z" />
    <glyph glyph-name="ring" unicode="&#x2da;" horiz-adv-x="209" 
d="M119 678q29 0 44.5 -23.5t8.5 -59.5q-6 -36 -29.5 -59.5t-52.5 -23.5t-44.5 23.5t-8.5 59.5q6 36 29.5 59.5t52.5 23.5zM134 595q4 23 -2.5 35.5t-18.5 12.5t-23 -12.5t-15 -35.5t2.5 -35.5t18.5 -12.5t23 12.5t15 35.5z" />
    <glyph glyph-name="ogonek" unicode="&#x2db;" horiz-adv-x="202" 
d="M118 -180q9 0 18.5 5t13.5 11l5 5l7 -25q-19 -25 -59 -25q-33 0 -52.5 19t-13.5 54q5 29 31 57.5t50 42.5l23 15h26l-18 -16t-32 -39t-25 -56q-9 -48 26 -48z" />
    <glyph glyph-name="tilde" unicode="&#x2dc;" horiz-adv-x="247" 
d="M177 603h35q-4 -23 -19.5 -39t-42.5 -16q-17 0 -37 10t-29.5 10t-13.5 -20h-35q4 23 19.5 39t42.5 16q12 0 24.5 -4t20.5 -8.5t15.5 -6.5t12.5 2t7 17z" />
    <glyph glyph-name="hungarumlaut" unicode="&#x2dd;" horiz-adv-x="287" 
d="M81 621h68l-65 -93h-49zM184 621h68l-81 -93h-48z" />
    <glyph glyph-name="pi" unicode="&#x3c0;" horiz-adv-x="457" 
d="M343 419l-53 -300q-5 -29 2.5 -49.5t25.5 -20.5q10 0 18 3.5t11 7.5l3 4l11 -38q-20 -32 -61 -32q-38 0 -64 37.5t-13 111.5l49 276h-92l-74 -419h-71l74 419h-69l9 55h373l-10 -55h-69z" />
    <glyph glyph-name="sc.a" unicode="&#x1d00;" horiz-adv-x="349" 
d="M296 562l43 -562h-73l-7 131h-117l-53 -131h-69l241 562h35zM161 178h96l-11 209z" />
    <glyph glyph-name="sc.c" unicode="&#x1d04;" horiz-adv-x="325" 
d="M236 568q28 0 50 -11.5t30 -22.5l9 -12l-27 -41q-2 4 -5.5 9t-18.5 14t-33 9q-97 0 -138 -232q-19 -111 -1 -171.5t65 -60.5q17 0 31.5 6t21.5 13l6 6l12 -41q-3 -4 -9 -10.5t-27.5 -17.5t-47.5 -11q-72 0 -110 69.5t-17 188.5l10 58q23 125 73.5 191.5t125.5 66.5z" />
    <glyph glyph-name="sc.d" unicode="&#x1d05;" horiz-adv-x="349" 
d="M222 562q66 0 92.5 -61.5t4.5 -190.5l-10 -58q-45 -252 -174 -252h-115l99 562h103zM243 281q39 226 -27 226h-36l-79 -452h35q66 0 107 226z" />
    <glyph glyph-name="sc.e" unicode="&#x1d07;" horiz-adv-x="308" 
d="M308 507h-128l-28 -160h102l-9 -55h-103l-41 -237h127l-9 -55h-199l99 562h199z" />
    <glyph glyph-name="sc.j" unicode="&#x1d0a;" horiz-adv-x="306" 
d="M215 562h71l-74 -418q-26 -150 -131 -150q-27 0 -51 9t-34 18l-11 9l30 47q19 -28 58 -28q28 0 44 23t25 73z" />
    <glyph glyph-name="sc.k" unicode="&#x1d0b;" horiz-adv-x="391" 
d="M371 562l-140 -191l49 -371h-67l-36 298l-44 -60l-42 -238h-71l99 562h71l-36 -201l144 201h73z" />
    <glyph glyph-name="sc.m" unicode="&#x1d0d;" horiz-adv-x="443" 
d="M371 562h72l-62 -562h-71l49 369l-135 -375h-57l-1 356l-84 -350h-67l136 562h75l15 -333z" />
    <glyph glyph-name="sc.o" unicode="&#x1d0f;" horiz-adv-x="331" 
d="M212 568q66 0 91 -67t3 -191l-10 -58q-47 -258 -173 -258q-66 0 -90 67t-2 191l10 58q47 258 171 258zM230 281q40 232 -21 232q-60 0 -102 -232q-40 -232 20 -232q61 0 103 232z" />
    <glyph glyph-name="sc.p" unicode="&#x1d18;" horiz-adv-x="345" 
d="M227 562q59 0 88 -42t15 -123q-15 -82 -53.5 -123t-96.5 -41h-43l-41 -233h-71l99 562h103zM259 397q19 110 -37 110h-37l-38 -219h36q29 0 48.5 31t27.5 78z" />
    <glyph glyph-name="sc.t" unicode="&#x1d1b;" horiz-adv-x="314" 
d="M55 562h249l-10 -55h-89l-89 -507h-71l89 507h-89z" />
    <glyph glyph-name="sc.u" unicode="&#x1d1c;" horiz-adv-x="326" 
d="M265 562h71l-72 -408q-13 -75 -49 -117.5t-92 -42.5q-58 0 -84.5 44t-13.5 116l72 408h71l-75 -426q-8 -43 1.5 -65t31.5 -22q21 0 38.5 22t25.5 65z" />
    <glyph glyph-name="sc.v" unicode="&#x1d20;" horiz-adv-x="372" 
d="M277 562h70l-233 -562h-35l-34 562h74l13 -372z" />
    <glyph glyph-name="sc.w" unicode="&#x1d21;" horiz-adv-x="484" 
d="M423 562h71l-222 -562h-40l-6 390l-143 -390h-40l-23 562h74l9 -353l125 353h62v-353z" />
    <glyph glyph-name="sc.z" unicode="&#x1d22;" horiz-adv-x="317" 
d="M297 562l-10 -55l-217 -452h138l-10 -55h-213l10 55l217 452h-130l10 55h205z" />
    <glyph glyph-name="endash" unicode="&#x2013;" horiz-adv-x="403" 
d="M55 267h303l-10 -55h-303z" />
    <glyph glyph-name="emdash" unicode="&#x2014;" horiz-adv-x="548" 
d="M55 267h448l-10 -55h-448z" />
    <glyph glyph-name="quoteleft" unicode="&#x2018;" horiz-adv-x="204" 
d="M154 677l-64 -90h48l-17 -98h-71l17 98l54 90h33z" />
    <glyph glyph-name="quoteright" unicode="&#x2019;" horiz-adv-x="204" 
d="M83 677h71l-17 -99l-54 -89h-33l64 89h-48z" />
    <glyph glyph-name="quotesinglbase" unicode="&#x201a;" horiz-adv-x="149" 
d="M43 99h71l-17 -99l-54 -90h-33l64 90h-48z" />
    <glyph glyph-name="quotedblleft" unicode="&#x201c;" horiz-adv-x="304" 
d="M116 677h33l-64 -90h48l-17 -98h-71l17 98zM259 677l-63 -90h48l-18 -98h-71l18 98l54 90h32z" />
    <glyph glyph-name="quotedblright" unicode="&#x201d;" horiz-adv-x="304" 
d="M189 677h70l-17 -99l-54 -89h-33l64 89h-48zM61 578l17 99h71l-17 -99l-54 -89h-33l64 89h-48z" />
    <glyph glyph-name="quotedblbase" unicode="&#x201e;" horiz-adv-x="259" 
d="M154 99h70l-17 -99l-54 -90h-33l64 90h-48zM26 0l17 99h71l-17 -99l-54 -90h-33l64 90h-48z" />
    <glyph glyph-name="dagger" unicode="&#x2020;" horiz-adv-x="365" 
d="M223 472h112l-10 -54h-112l-109 -621h-71l109 621h-112l10 54h112l36 205h71z" />
    <glyph glyph-name="daggerdbl" unicode="&#x2021;" horiz-adv-x="438" 
d="M399 418h-113l-63 -362h112l-10 -55h-112l-36 -204h-71l36 204h-112l10 55h112l64 362h-113l10 54h112l36 205h71l-36 -205h112z" />
    <glyph glyph-name="bullet" unicode="&#x2022;" horiz-adv-x="185" 
d="M51 383h89l-16 -89h-89z" />
    <glyph glyph-name="ellipsis" unicode="&#x2026;" horiz-adv-x="471" 
d="M48 74h74l-13 -74h-74zM205 74h74l-13 -74h-74zM362 74h74l-13 -74h-74z" />
    <glyph glyph-name="perthousand" unicode="&#x2030;" horiz-adv-x="825" 
d="M136 323q-50 0 -72.5 48.5t-7.5 131.5q15 84 54.5 132t89.5 48t72.5 -48t7.5 -132q-15 -83 -54.5 -131.5t-89.5 -48.5zM110 503q-10 -58 -0.5 -93.5t35.5 -35.5q27 0 48.5 35.5t31.5 93.5q11 59 1.5 94t-35.5 35q-27 0 -48.5 -35t-32.5 -94zM432 353q50 0 73 -48t8 -131
q-15 -84 -54.5 -132t-89.5 -48t-73 48t-8 132q15 83 54.5 131t89.5 48zM458 174q11 58 1.5 93t-36.5 35q-26 0 -47.5 -35t-32.5 -93t-1.5 -93.5t36.5 -35.5q26 0 47.5 35t32.5 94zM689 353q50 0 72.5 -48t7.5 -131q-15 -84 -54.5 -132t-89.5 -48t-72.5 48t-7.5 132
q15 83 54.5 131t89.5 48zM714 174q11 58 1.5 93t-35.5 35q-27 0 -48.5 -35t-31.5 -93q-11 -58 -1.5 -93.5t35.5 -35.5q27 0 48.5 35t31.5 94zM428 677h58l-354 -677h-58z" />
    <glyph glyph-name="guilsinglleft" unicode="&#x2039;" horiz-adv-x="282" 
d="M237 389l-146 -148l93 -148l-48 -34l-91 144l14 77l141 144z" />
    <glyph glyph-name="guilsinglright" unicode="&#x203a;" horiz-adv-x="282" 
d="M146 424l91 -144l-14 -77l-141 -144l-37 34l145 148l-93 148z" />
    <glyph glyph-name="fraction" unicode="&#x2044;" horiz-adv-x="56" 
d="M198 677h58l-353 -677h-58z" />
    <glyph glyph-name="Euro" unicode="&#x20ac;" horiz-adv-x="469" 
d="M250 47q18 0 34.5 8.5t24.5 16.5l8 9l12 -43q-3 -5 -9 -12.5t-29 -19.5t-51 -12q-72 0 -113 69.5t-30 203.5h-62l9 49h273l-32 -49h-120q-10 -101 10.5 -160.5t74.5 -59.5zM341 683q30 0 53.5 -11.5t31.5 -22.5l8 -11l-28 -42q-22 33 -60 33q-47 0 -88 -60.5t-67 -158.5
h152l-32 -49h-259l8 49h62q34 135 93 204t126 69z" />
    <glyph glyph-name="uni20BA" unicode="&#x20ba;" horiz-adv-x="388" 
d="M294 297h69q-52 -297 -309 -297l63 360l-92 -33l9 53l93 33l8 47l-92 -32l9 52l92 33l29 164h69l-25 -139l128 44l-10 -52l-127 -45l-8 -47l127 44l-10 -53l-127 -44l-56 -322q126 37 160 234z" />
    <glyph glyph-name="uni20BD" unicode="&#x20bd;" horiz-adv-x="392" 
d="M303 677q60 0 91.5 -41t17.5 -123q-14 -84 -55 -124.5t-100 -40.5h-65l-18 -103h145l-8 -50h-146l-34 -195h-69l34 195h-61l9 50h61l76 432h122zM343 513q20 110 -56 110h-47l-39 -221h47q76 0 95 111z" />
    <glyph glyph-name="Bitcoin" unicode="&#x20bf;" horiz-adv-x="413" 
d="M395 472q-7 -42 -30.5 -71t-42.5 -37l-20 -7q2 -1 5 -2t12.5 -5.5t17 -11t17.5 -17t14.5 -24.5t8 -33.5t-2.5 -42.5q-10 -60 -44.5 -96.5t-84.5 -44.5l-15 -86h-49l14 83h-34l-15 -83h-49l14 83h-86l9 54h68l73 415h-67l9 54h86l15 83h50l-15 -83h34l15 83h50l-17 -92
q34 -13 51.5 -43.5t8.5 -75.5zM306 227q8 43 -9 69.5t-51 26.5h-42l-34 -192h42q34 0 60 26.5t34 69.5zM325 461q7 38 -5.5 61.5t-39.5 23.5h-36l-30 -170h36q27 0 47.5 23.5t27.5 61.5z" />
    <glyph glyph-name="uni2113" unicode="&#x2113;" horiz-adv-x="402" 
d="M195 236l-12 -69q-22 -118 28 -118q13 0 25.5 6.5t18.5 12.5l6 7l11 -39q-3 -5 -8 -12t-24 -18.5t-41 -11.5q-47 0 -75.5 39.5t-14.5 118.5l4 25l-65 -34l-13 45q40 18 90 54l46 266q15 84 47.5 129.5t76.5 45.5q45 0 62.5 -46t1.5 -135q-27 -152 -164 -266zM243 508
l-33 -189q78 89 95 189q22 120 -10 120q-30 0 -52 -120z" />
    <glyph glyph-name="Sound" unicode="&#x2117;" horiz-adv-x="806" 
d="M438 527q45 0 67.5 -26.5t13.5 -78.5t-41 -78.5t-77 -26.5h-21l-29 -167h-52l67 377h72zM468 422q5 28 -4.5 46.5t-31.5 18.5h-22l-23 -130h22q22 0 37.5 18.5t21.5 46.5zM457 683q143 0 225.5 -101t57.5 -244q-25 -142 -143.5 -243t-261.5 -101q-142 0 -225.5 100.5
t-58.5 243.5q26 143 144.5 244t261.5 101zM696 346q10 62 -3 117q-14 55 -47 92q-69 83 -189 83q-61 0 -123 -24q-59 -24 -110 -66q-51 -44 -83 -99q-34 -55 -45 -118q-12 -61 3 -117q12 -52 46 -92q69 -83 190 -83q61 0 123 24q57 22 109 66q50 43 84 98q34 57 45 119z" />
    <glyph glyph-name="trademark" unicode="&#x2122;" horiz-adv-x="407" 
d="M208 677l-6 -30h-59l-44 -247h-38l43 247h-59l5 30h158zM348 677h34l-22 -277h-39l16 171l-65 -175h-11l-3 175l-48 -171h-33l76 277h38v-151z" />
    <glyph glyph-name="uni2126" unicode="&#x2126;" horiz-adv-x="558" 
d="M516 419q-18 -105 -73.5 -210.5t-112.5 -150.5h113l-10 -58h-165l10 58q5 4 13 11.5t30.5 38t42.5 68.5t42.5 105t36.5 145q16 92 -11.5 145.5t-87.5 53.5t-106 -53.5t-62 -145.5q-14 -78 -15.5 -144.5t6 -106t17.5 -67.5t18 -39l9 -11l-11 -58h-165l10 58h114
q-42 45 -59.5 149t0.5 212q21 119 88.5 191.5t165.5 72.5t140.5 -72.5t21.5 -191.5z" />
    <glyph glyph-name="estimated" unicode="&#x212e;" horiz-adv-x="652" 
d="M610 354h-502l-30 -170q20 -70 69.5 -112.5t122.5 -42.5q38 0 75.5 11t63 27t45.5 32t30 27l9 11l18 -19q-4 -5 -11 -13t-31.5 -28t-51 -35.5t-68 -28.5t-84.5 -13q-119 0 -183 100t-40 239q26 143 124.5 241t218.5 98q121 0 185.5 -91t39.5 -233zM133 497l-20 -113h439
l22 124q-20 65 -70 102.5t-125 37.5q-74 0 -138 -41t-108 -110z" />
    <glyph glyph-name="oneseventh" unicode="&#x2150;" horiz-adv-x="521" 
d="M153 317h-57l53 302l-34 -8l9 49l93 23zM398 677h58l-353 -677h-58zM332 360h154l-8 -43q-4 -4 -10 -11t-24 -35t-34 -61t-34 -89.5t-29 -120.5h-54q10 57 27 110t33.5 87.5t32 61t24.5 38.5l10 12h-97z" />
    <glyph glyph-name="oneninth" unicode="&#x2151;" horiz-adv-x="491" 
d="M391 363q38 0 53.5 -37t3.5 -107q-8 -46 -25.5 -86.5t-37 -66t-37.5 -44.5t-30 -27l-12 -8l-13 45q39 26 68 74q-7 -3 -17 -3q-35 0 -52 35t-7 95q11 61 40 95.5t66 34.5zM395 233q6 34 3 58t-15 24q-26 0 -41 -82t12 -82q26 0 41 82zM153 317h-57l53 302l-34 -8l9 49
l93 23zM398 677h58l-353 -677h-58z" />
    <glyph glyph-name="onetenth" unicode="&#x2152;" horiz-adv-x="638" 
d="M540 363q42 0 56 -48.5t-1 -134.5q-16 -87 -47 -135t-72 -48t-55 48.5t1 134.5q15 87 46 135t72 48zM538 180q23 135 -6 135q-30 0 -53 -135q-25 -135 5 -135q29 0 54 135zM308 294l9 49l93 23l-64 -366h-57l53 302zM153 317h-57l53 302l-34 -8l9 49l93 23zM398 677h58
l-353 -677h-58z" />
    <glyph glyph-name="onethird" unicode="&#x2153;" horiz-adv-x="491" 
d="M153 317h-57l53 302l-34 -8l9 49l93 23zM398 677h58l-353 -677h-58zM376 363q35 0 53 -26.5t11 -67.5q-4 -25 -16.5 -45t-22.5 -28l-10 -8q4 -3 9.5 -9.5t12.5 -29t2 -48.5q-8 -47 -35 -75.5t-67 -28.5q-20 0 -35.5 8t-21.5 16l-6 8l25 39q10 -23 37 -23q17 0 30 16
t17 44q5 21 0.5 40t-18.5 19h-31l8 49h32q10 0 19 14t13 37t-3 37t-22 14q-8 0 -17.5 -6t-14.5 -12l-5 -6l-11 39q25 33 67 33z" />
    <glyph glyph-name="twothirds" unicode="&#x2154;" horiz-adv-x="497" 
d="M382 363q35 0 53 -26.5t11 -67.5q-4 -25 -16.5 -45t-22.5 -28l-10 -8q4 -3 9.5 -9.5t12.5 -29t2 -48.5q-8 -47 -35 -75.5t-67 -28.5q-20 0 -35.5 8t-21.5 16l-6 8l25 39q10 -23 37 -23q22 0 37 29t12.5 59t-20.5 31h-31l8 49h32q10 0 19 14t13 37t-3 37t-22 14
q-8 0 -17.5 -6t-14.5 -12l-5 -6l-11 39q25 33 67 33zM45 349q13 15 32 39.5t55 87t44 109.5q3 18 -2.5 32t-18.5 14q-10 0 -20.5 -6.5t-16.5 -12.5l-5 -7l-12 42q26 33 69 33q32 0 51.5 -26.5t11.5 -68.5q-13 -79 -122 -220h75l-9 -48h-115zM404 677h58l-353 -677h-58z" />
    <glyph glyph-name="onefifth" unicode="&#x2155;" horiz-adv-x="491" 
d="M301 197l37 163h116l-8 -49h-62l-18 -76q37 -2 52 -33q15 -32 6 -86q-10 -57 -37.5 -88t-63.5 -31q-20 0 -36.5 7.5t-23.5 14.5l-7 7l26 40q15 -21 38 -21q15 0 28 19t19 52q5 32 0 51t-20 19q-5 0 -11.5 -4t-10.5 -8l-4 -4zM153 317h-57l53 302l-34 -8l9 49l93 23z
M398 677h58l-353 -677h-58z" />
    <glyph glyph-name="twofifths" unicode="&#x2156;" horiz-adv-x="498" 
d="M307 197l37 163h117l-9 -49h-62l-17 -76q36 -2 51 -33q15 -32 6 -86q-10 -57 -37 -88t-63 -31q-20 0 -37 7.5t-23 14.5l-7 7l26 40q14 -21 37 -21q34 0 47 71q13 70 -19 70q-6 0 -12.5 -4t-10.5 -8l-4 -4zM45 349q13 15 32 39.5t55 87t44 109.5q3 18 -2.5 32t-18.5 14
q-10 0 -20.5 -6.5t-16.5 -12.5l-5 -7l-12 42q26 33 69 33q32 0 51.5 -26.5t11.5 -68.5q-13 -79 -122 -220h75l-9 -48h-115zM405 677h58l-353 -677h-59z" />
    <glyph glyph-name="threefifths" unicode="&#x2157;" horiz-adv-x="495" 
d="M108 314q-20 0 -36 8t-22 16l-5 8l25 39q10 -23 37 -23q17 0 30 16t17 44q5 21 0.5 40t-18.5 19h-31l8 49h32q23 0 33 51q4 23 -3.5 36.5t-22.5 13.5q-8 0 -17 -5.5t-14 -11.5l-5 -6l-12 39q25 33 67 33q35 0 53.5 -26.5t10.5 -67.5q-4 -25 -16.5 -45t-22.5 -28l-10 -8
q4 -3 9.5 -9.5t12.5 -29t3 -48.5q-8 -47 -35.5 -75.5t-67.5 -28.5zM305 197l37 163h116l-8 -49h-62l-18 -76q37 -2 52 -33q15 -32 6 -86q-10 -57 -37.5 -88t-63.5 -31q-20 0 -36.5 7.5t-23.5 14.5l-7 7l26 40q15 -21 38 -21q15 0 28 19t19 52q5 32 0 51t-20 19
q-5 0 -11.5 -4t-10.5 -8l-4 -4zM402 677h58l-353 -677h-58z" />
    <glyph glyph-name="fourfifths" unicode="&#x2158;" horiz-adv-x="505" 
d="M314 197l37 163h117l-9 -49h-62l-18 -76q37 -2 52 -33q15 -32 6 -86q-10 -57 -37 -88t-63 -31q-20 0 -36.5 7.5t-23.5 14.5l-7 7l26 40q14 -21 37 -21q34 0 47 71q13 70 -19 70q-6 0 -12.5 -4t-10.5 -8l-4 -4zM412 677h58l-354 -677h-58zM121 317l20 115h-96l6 35
l142 210h45l-34 -197h32l-8 -48h-33l-20 -115h-54zM104 480h49l17 99z" />
    <glyph glyph-name="onesixth" unicode="&#x2159;" horiz-adv-x="491" 
d="M358 257q30 0 49 -29t6 -101q-11 -63 -38.5 -96.5t-65.5 -33.5t-54.5 36t-3.5 108q8 44 26 84t38 66t39.5 46t31.5 29l13 9l13 -46q-37 -30 -67 -74q8 2 13 2zM357 127q6 34 3 58t-15 24t-23.5 -23.5t-17.5 -58.5q-6 -34 -3 -58t15 -24t23.5 23.5t17.5 58.5zM153 317h-57
l53 302l-34 -8l9 49l93 23zM398 677h58l-353 -677h-58z" />
    <glyph glyph-name="fivesixths" unicode="&#x215a;" horiz-adv-x="491" 
d="M120 314q-20 0 -37 7t-23 15l-7 7l26 40q14 -21 37 -21q34 0 47 71q13 70 -19 70q-6 0 -12.5 -4t-10.5 -8l-4 -4l-20 27l38 163h116l-8 -49h-63l-17 -76q36 -2 51 -33q17 -32 6 -86q-10 -57 -37 -88t-63 -31zM358 257q30 0 49 -29t6 -101q-11 -63 -38.5 -96.5
t-65.5 -33.5t-54.5 36t-3.5 108q8 44 26 84t38 66t39.5 46t31.5 29l13 9l13 -46q-37 -30 -67 -74q8 2 13 2zM357 127q6 34 3 58t-15 24t-23.5 -23.5t-17.5 -58.5q-6 -34 -3 -58t15 -24t23.5 23.5t17.5 58.5zM398 677h58l-353 -677h-58z" />
    <glyph glyph-name="oneeigth" unicode="&#x215b;" horiz-adv-x="500" 
d="M462 265q-7 -46 -37 -74q24 -30 14 -86q-8 -50 -35 -79t-64 -29q-38 0 -58.5 29.5t-11.5 78.5q10 57 45 86q-20 26 -12 74q8 45 34.5 71.5t59.5 26.5q34 0 53.5 -26.5t11.5 -71.5zM383 105q5 26 0 43t-18 17q-12 0 -22.5 -17t-15.5 -43q-5 -25 0 -42.5t17 -17.5t23 17.5
t16 42.5zM405 263q4 23 0.5 37.5t-13.5 14.5q-23 0 -32 -52q-4 -21 0 -35t14 -14t18.5 14t12.5 35zM153 317h-57l53 302l-34 -8l9 49l93 23zM398 677h58l-353 -677h-58z" />
    <glyph glyph-name="threeeigths" unicode="&#x215c;" horiz-adv-x="503" 
d="M108 314q-20 0 -36 8t-22 16l-5 8l25 39q10 -23 37 -23q17 0 30 16t17 44q5 21 0.5 40t-18.5 19h-31l8 49h32q23 0 33 51q4 23 -3.5 36.5t-22.5 13.5q-8 0 -17 -5.5t-14 -11.5l-5 -6l-12 39q25 33 67 33q35 0 53.5 -26.5t10.5 -67.5q-4 -25 -16.5 -45t-22.5 -28l-10 -8
q4 -3 9.5 -9.5t12.5 -29t3 -48.5q-8 -47 -35.5 -75.5t-67.5 -28.5zM465 265q-8 -48 -37 -74q25 -31 14 -86q-8 -50 -34.5 -79t-64.5 -29t-58.5 29.5t-11.5 78.5q10 57 45 86q-20 26 -11 74q8 45 34 71.5t59 26.5q34 0 53.5 -26.5t11.5 -71.5zM386 105q5 26 0 43t-18 17
q-12 0 -22.5 -17t-15.5 -43q-5 -25 0 -42.5t17 -17.5t23 17.5t16 42.5zM408 263q4 23 0.5 37.5t-13.5 14.5q-23 0 -32 -52q-4 -21 0 -35t14 -14t18.5 14t12.5 35zM401 677h58l-353 -677h-58z" />
    <glyph glyph-name="fiveeigths" unicode="&#x215d;" horiz-adv-x="500" 
d="M118 314q-20 0 -37 7t-23 15l-7 7l26 40q14 -21 37 -21q34 0 47 71q13 70 -19 70q-6 0 -12.5 -4t-10.5 -8l-4 -4l-20 27l38 163h116l-8 -49h-63l-17 -76q36 -2 51 -33q16 -30 6 -86q-10 -57 -37 -88t-63 -31zM462 265q-7 -46 -37 -74q24 -30 14 -86q-8 -50 -35 -79
t-64 -29q-38 0 -58.5 29.5t-11.5 78.5q10 57 45 86q-20 26 -12 74q8 45 34.5 71.5t59.5 26.5q34 0 53.5 -26.5t11.5 -71.5zM383 105q5 26 0 43t-18 17q-12 0 -22.5 -17t-15.5 -43q-5 -25 0 -42.5t17 -17.5t23 17.5t16 42.5zM405 263q4 23 0.5 37.5t-13.5 14.5q-23 0 -32 -52
q-4 -21 0 -35t14 -14t18.5 14t12.5 35zM398 677h58l-353 -677h-58z" />
    <glyph glyph-name="seveneigths" unicode="&#x215e;" horiz-adv-x="500" 
d="M462 265q-7 -46 -37 -74q24 -30 14 -86q-8 -50 -35 -79t-64 -29q-38 0 -58.5 29.5t-11.5 78.5q10 57 45 86q-20 26 -12 74q8 45 34.5 71.5t59.5 26.5q34 0 53.5 -26.5t11.5 -71.5zM383 105q5 26 0 43t-18 17q-12 0 -22.5 -17t-15.5 -43q-5 -25 0 -42.5t17 -17.5t23 17.5
t16 42.5zM405 263q4 23 0.5 37.5t-13.5 14.5q-23 0 -32 -52q-4 -21 0 -35t14 -14t18.5 14t12.5 35zM398 677h58l-353 -677h-58zM154 317h-54q16 91 48 168.5t56 108.5l23 32h-97l9 51h154l-7 -43l-10.5 -11t-24.5 -35t-33.5 -61t-34 -89.5t-29.5 -120.5z" />
    <glyph glyph-name="numeratorone" unicode="&#x215f;" horiz-adv-x="491" 
d="M153 317h-57l53 302l-34 -8l9 49l93 23zM398 677h58l-353 -677h-58z" />
    <glyph glyph-name="zerothirds" unicode="&#x2189;" horiz-adv-x="491" 
d="M376 363q35 0 53 -26.5t11 -67.5q-4 -25 -16.5 -45t-22.5 -28l-10 -8q4 -3 9.5 -9.5t12.5 -29t2 -48.5q-8 -47 -35 -75.5t-67 -28.5q-20 0 -35.5 8t-21.5 16l-6 8l25 39q10 -23 37 -23q17 0 30 16t17 44q5 21 0.5 40t-18.5 19h-31l8 49h32q10 0 19 14t13 37t-3 37t-22 14
q-8 0 -17.5 -6t-14.5 -12l-5 -6l-11 39q25 33 67 33zM120 314q-41 0 -55 48.5t1 134.5t46 134.5t72 48.5q42 0 56 -49t-2 -134q-15 -87 -46 -135t-72 -48zM123 497q-25 -135 5 -135q29 0 54 135q23 134 -6 134q-30 0 -53 -134zM398 677h58l-353 -677h-58z" />
    <glyph glyph-name="ArrowL" unicode="&#x2190;" horiz-adv-x="471" 
d="M411 367l-11 -57h-243l66 -165h-86l-77 193l146 194h85l-123 -165h243z" />
    <glyph glyph-name="ArrowU" unicode="&#x2191;" horiz-adv-x="521" 
d="M288 511l173 -111l-15 -86l-147 95l-43 -243h-58l43 243l-181 -95l15 86z" />
    <glyph glyph-name="ArrowR" unicode="&#x2192;" horiz-adv-x="471" 
d="M333 532l78 -194l-146 -193h-86l124 165h-243l10 57h243l-66 165h86z" />
    <glyph glyph-name="ArrowD" unicode="&#x2193;" horiz-adv-x="521" 
d="M280 268l181 95l-15 -86l-213 -111l-173 111l15 86l148 -95l43 243h57z" />
    <glyph glyph-name="ArrowNW" unicode="&#x2196;" horiz-adv-x="491" 
d="M431 458l-192 -50l142 -171l-48 -41l-142 172l-81 -184l-50 61l96 216l225 57z" />
    <glyph glyph-name="ArrowNE" unicode="&#x2197;" horiz-adv-x="444" 
d="M364 461l20 -216l-72 -61l-16 184l-202 -172l-34 41l202 171l-175 50l72 60z" />
    <glyph glyph-name="ArrowSE" unicode="&#x2198;" horiz-adv-x="491" 
d="M381 492l50 -60l-95 -216l-226 -58l-50 61l192 49l-142 172l48 41l142 -172z" />
    <glyph glyph-name="ArrowSW" unicode="&#x2199;" horiz-adv-x="444" 
d="M384 440l-202 -172l174 -49l-71 -61l-205 58l-20 216l71 60l17 -183l202 172z" />
    <glyph glyph-name="WhiteArrowL" unicode="&#x21e6;" 
d="M447 683q144 0 230.5 -101.5t61.5 -243.5q-25 -143 -140 -243.5t-257 -100.5q-143 0 -230 101t-62 243q26 144 140.5 244.5t256.5 100.5zM694 338q10 62 -3 117q-13 54 -47 95t-84 64q-51 24 -113 24q-61 0 -120 -24q-58 -22 -107 -64q-47 -40 -81 -95q-34 -57 -44 -117
q-11 -60 3 -116q13 -54 47 -95q35 -43 84 -65q54 -23 113 -23q60 0 121 23q58 23 106 65q50 43 81 95q34 56 44 116zM453 532l-124 -165h244l-11 -57h-243l66 -165h-86l-77 193l145 194h86z" />
    <glyph glyph-name="WhiteArrowUp" unicode="&#x21e7;" 
d="M447 683q144 0 230.5 -101.5t61.5 -243.5q-25 -143 -140 -243.5t-257 -100.5q-143 0 -230 101t-62 243q26 144 140.5 244.5t256.5 100.5zM694 338q10 62 -3 117q-13 54 -47 95t-84 64q-51 24 -113 24q-61 0 -120 -24q-58 -22 -107 -64q-47 -40 -81 -95q-34 -57 -44 -117
q-11 -60 3 -116q13 -54 47 -95q35 -43 84 -65q54 -23 113 -23q60 0 121 23q58 23 106 65q50 43 81 95q34 56 44 116zM212 400l213 111l174 -111l-16 -86l-147 95l-43 -243h-58l43 243l-181 -95z" />
    <glyph glyph-name="WhiteArrowR" unicode="&#x21e8;" 
d="M447 683q144 0 230.5 -101.5t61.5 -243.5q-25 -143 -140 -243.5t-257 -100.5q-143 0 -230 101t-62 243q26 144 140.5 244.5t256.5 100.5zM694 338q10 62 -3 117q-13 54 -47 95t-84 64q-51 24 -113 24q-61 0 -120 -24q-58 -22 -107 -64q-47 -40 -81 -95q-34 -57 -44 -117
q-11 -60 3 -116q13 -54 47 -95q35 -43 84 -65q54 -23 113 -23q60 0 121 23q58 23 106 65q50 43 81 95q34 56 44 116zM404 532h86l77 -194l-145 -193h-86l124 165h-243l10 57h243z" />
    <glyph glyph-name="WhiteArrowD" unicode="&#x21e9;" 
d="M447 683q144 0 230.5 -101.5t61.5 -243.5q-25 -143 -140 -243.5t-257 -100.5q-143 0 -230 101t-62 243q26 144 140.5 244.5t256.5 100.5zM694 338q10 62 -3 117q-13 54 -47 95t-84 64q-51 24 -113 24q-61 0 -120 -24q-58 -22 -107 -64q-47 -40 -81 -95q-34 -57 -44 -117
q-11 -60 3 -116q13 -54 47 -95q35 -43 84 -65q54 -23 113 -23q60 0 121 23q58 23 106 65q50 43 81 95q34 56 44 116zM454 511l-43 -243l181 95l-15 -86l-213 -111l-173 111l15 86l147 -95l43 243h58z" />
    <glyph glyph-name="partialdiff" unicode="&#x2202;" horiz-adv-x="387" 
d="M240 677q3 -2 8 -7t20.5 -22t26.5 -36.5t26.5 -52t21 -67.5t9 -83t-8.5 -100q-30 -172 -75.5 -243.5t-119.5 -71.5q-55 0 -88.5 42t-21.5 107q16 91 88.5 156.5t154.5 70.5q3 45 -4.5 87t-20 69t-25 48t-21.5 30l-10 10zM152 49q38 0 67 60.5t56 213.5
q-61 -10 -107.5 -59.5t-58.5 -117.5q-8 -42 4.5 -69.5t38.5 -27.5z" />
    <glyph glyph-name="uni2206" unicode="&#x2206;" horiz-adv-x="407" 
d="M297 474l75 -419l-9 -55h-328l10 55l223 419h29zM117 55h183l-44 268z" />
    <glyph glyph-name="product" unicode="&#x220f;" horiz-adv-x="462" 
d="M154 677h273l-119 -677h-75l109 619h-123l-110 -619h-74z" />
    <glyph glyph-name="summation" unicode="&#x2211;" horiz-adv-x="463" 
d="M428 677l-10 -58h-193l77 -281l-176 -280h193l-10 -58h-274l10 58l176 280l-77 281l10 58h274z" />
    <glyph glyph-name="minus" unicode="&#x2212;" horiz-adv-x="340" 
d="M55 267h240l-10 -55h-240z" />
    <glyph glyph-name="uni2215" unicode="&#x2215;" horiz-adv-x="471" 
d="M383 677h58l-353 -677h-58z" />
    <glyph glyph-name="uni2219" unicode="&#x2219;" horiz-adv-x="195" 
d="M61 383h89l-16 -89h-89z" />
    <glyph glyph-name="radical" unicode="&#x221a;" horiz-adv-x="561" 
d="M414 677h112l-10 -58h-69l-245 -619h-50l-66 323h-51l10 57h110l45 -243z" />
    <glyph glyph-name="infinity" unicode="&#x221e;" horiz-adv-x="581" 
d="M433 494q58 0 89.5 -43t19.5 -113t-59 -113t-105 -43q-73 0 -104 60q-53 -60 -126 -60q-57 0 -89 43.5t-20 112.5q12 70 59.5 113t104.5 43q75 0 105 -59q51 59 125 59zM255 338q9 48 -7.5 74.5t-47.5 26.5t-56 -26.5t-34 -74.5q-9 -47 7.5 -74t47.5 -27t56.5 27t33.5 74
zM471 338q9 48 -7 74.5t-47 26.5q-32 0 -57 -26.5t-34 -74.5q-9 -47 7.5 -74t47.5 -27t56.5 27t33.5 74z" />
    <glyph glyph-name="integral" unicode="&#x222b;" horiz-adv-x="595" 
d="M489 683q23 0 41 -7.5t24 -15.5l6 -7l-26 -41q-13 21 -39 21q-54 0 -90 -131l-146 -530q-49 -181 -150 -181q-21 0 -39.5 7.5t-26.5 15.5l-8 7l26 41q15 -22 43 -22q51 0 86 132l146 530q51 181 153 181z" />
    <glyph glyph-name="approxequal" unicode="&#x2248;" horiz-adv-x="405" 
d="M144 195q22 0 54.5 -16t54.5 -16q20 0 42.5 8t34.5 16l12 8l-9 -55q-45 -32 -90 -32q-22 0 -54 16t-55 16q-20 0 -42 -8t-34 -16l-13 -8l10 55q44 32 89 32zM270 260q20 0 42.5 8t35.5 16l12 8l-10 -55q-45 -32 -90 -32q-22 0 -54 16t-55 16q-20 0 -42 -8t-35 -16l-12 -8
l10 55q45 32 89 32q23 0 55 -16t54 -16z" />
    <glyph glyph-name="notequal" unicode="&#x2260;" horiz-adv-x="358" 
d="M304 223h-99l-24 -49h114l-10 -55h-131l-59 -121h-28l58 121h-80l10 55h97l24 49h-113l10 54h130l58 119h29l-59 -119h82z" />
    <glyph glyph-name="lessequal" unicode="&#x2264;" horiz-adv-x="406" 
d="M371 451l-233 -128l188 -129l-33 -51l-249 180l312 179zM35 53l10 55h240l-10 -55h-240z" />
    <glyph glyph-name="greaterequal" unicode="&#x2265;" horiz-adv-x="397" 
d="M50 143l-15 51l233 129l-188 128l33 51l249 -179zM36 53l9 55h241l-10 -55h-240z" />
    <glyph glyph-name="COne" unicode="&#x2460;" 
d="M362 482l6 32l82 20l-69 -388h-41l60 345zM447 683q144 0 230.5 -101.5t61.5 -243.5q-25 -143 -140 -243.5t-257 -100.5q-143 0 -230 101t-62 243q26 144 140.5 244.5t256.5 100.5zM694 338q10 62 -3 117q-13 54 -47 95t-84 64q-51 24 -113 24q-61 0 -120 -24
q-58 -22 -107 -64q-47 -40 -81 -95q-34 -57 -44 -117q-11 -60 3 -116q13 -54 47 -95q35 -43 84 -65q54 -23 113 -23q60 0 121 23q58 23 106 65q50 43 81 95q34 56 44 116z" />
    <glyph glyph-name="CTwo" unicode="&#x2461;" 
d="M416 534q35 0 55 -26.5t12 -72.5q-18 -102 -143 -257h93l-6 -32h-113l-13 25q39 53 59 83t47 84t35 100q10 63 -32 63q-12 0 -23 -5t-17 -10l-5 -5l-8 26q25 27 59 27zM447 683q144 0 230.5 -101.5t61.5 -243.5q-25 -143 -140 -243.5t-257 -100.5q-143 0 -230 101
t-62 243q26 144 140.5 244.5t256.5 100.5zM694 338q10 62 -3 117q-13 54 -47 95t-84 64q-51 24 -113 24q-61 0 -120 -24q-58 -22 -107 -64q-47 -40 -81 -95q-34 -57 -44 -117q-11 -60 3 -116q13 -54 47 -95q35 -43 84 -65q54 -23 113 -23q60 0 121 23q58 23 106 65
q50 43 81 95q34 56 44 116z" />
    <glyph glyph-name="CThree" unicode="&#x2462;" 
d="M422 534q35 0 53 -27t11 -68q-3 -20 -11 -36.5t-17 -26t-17 -16.5t-13 -10l-6 -2q5 -4 12.5 -11.5t17.5 -34.5t5 -57q-8 -47 -34 -75t-63 -28q-19 0 -35 7t-23 13l-7 7l17 27q18 -21 45 -21q46 0 60 78q5 29 -3 54t-27 25h-24l5 32h25q18 0 31.5 19t18.5 50t-2.5 50
t-27.5 19q-11 0 -22 -5t-17 -11l-5 -5l-7 25q26 28 60 28zM447 683q144 0 230.5 -101.5t61.5 -243.5q-25 -143 -140 -243.5t-257 -100.5q-143 0 -230 101t-62 243q26 144 140.5 244.5t256.5 100.5zM694 338q10 62 -3 117q-13 54 -47 95t-84 64q-51 24 -113 24
q-61 0 -120 -24q-58 -22 -107 -64q-47 -40 -81 -95q-34 -57 -44 -117q-11 -60 3 -116q13 -54 47 -95q35 -43 84 -65q54 -23 113 -23q60 0 121 23q58 23 106 65q50 43 81 95q34 56 44 116z" />
    <glyph glyph-name="CFour" unicode="&#x2463;" 
d="M447 530h24l-39 -222h37l-6 -32h-37l-23 -130h-41l23 130h-93l5 32zM390 308l22 121l-81 -121h59zM447 683q144 0 230.5 -101.5t61.5 -243.5q-25 -143 -140 -243.5t-257 -100.5q-143 0 -230 101t-62 243q26 144 140.5 244.5t256.5 100.5zM694 338q10 62 -3 117
q-13 54 -47 95t-84 64q-51 24 -113 24q-61 0 -120 -24q-58 -22 -107 -64q-47 -40 -81 -95q-34 -57 -44 -117q-11 -60 3 -116q13 -54 47 -95q35 -43 84 -65q54 -23 113 -23q60 0 121 23q58 23 106 65q50 43 81 95q34 56 44 116z" />
    <glyph glyph-name="CFive" unicode="&#x2464;" 
d="M344 362l39 168h107l-6 -32h-67l-25 -110q1 0 5 0.5t6 0.5q36 0 51.5 -32.5t5.5 -91.5q-10 -58 -38.5 -90.5t-67.5 -32.5q-17 0 -31.5 6t-20.5 12l-6 6l16 26q13 -17 40 -17q49 0 66 90q7 38 -0.5 64.5t-30.5 26.5q-15 0 -30 -12zM447 683q144 0 230.5 -101.5
t61.5 -243.5q-25 -143 -140 -243.5t-257 -100.5q-143 0 -230 101t-62 243q26 144 140.5 244.5t256.5 100.5zM694 338q10 62 -3 117q-13 54 -47 95t-84 64q-51 24 -113 24q-61 0 -120 -24q-58 -22 -107 -64q-47 -40 -81 -95q-34 -57 -44 -117q-11 -60 3 -116q13 -54 47 -95
q35 -43 84 -65q54 -23 113 -23q60 0 121 23q58 23 106 65q50 43 81 95q34 56 44 116z" />
    <glyph glyph-name="CSix" unicode="&#x2465;" 
d="M403 414q35 0 50.5 -37t4.5 -99q-11 -64 -37.5 -100t-63.5 -36q-38 0 -55 39.5t-4 112.5q8 46 26.5 88.5t38.5 70t39 48.5t32 31l12 9l15 -32q-52 -40 -94 -109q16 14 36 14zM418 278q8 44 1.5 73.5t-24.5 29.5q-19 0 -35 -29t-24 -74q-8 -44 -2.5 -73.5t24.5 -29.5
q18 0 35 29t25 74zM447 683q144 0 230.5 -101.5t61.5 -243.5q-25 -143 -140 -243.5t-257 -100.5q-143 0 -230 101t-62 243q26 144 140.5 244.5t256.5 100.5zM694 338q10 62 -3 117q-13 54 -47 95t-84 64q-51 24 -113 24q-61 0 -120 -24q-58 -22 -107 -64q-47 -40 -81 -95
q-34 -57 -44 -117q-11 -60 3 -116q13 -54 47 -95q35 -43 84 -65q54 -23 113 -23q60 0 121 23q58 23 106 65q50 43 81 95q34 56 44 116z" />
    <glyph glyph-name="CSeven" unicode="&#x2466;" 
d="M350 496l6 34h155l-6 -34q-5 -6 -12.5 -17.5t-28.5 -48t-39.5 -75t-37.5 -96t-29 -113.5h-42q17 95 55 182.5t67 127.5l30 40h-118zM447 683q144 0 230.5 -101.5t61.5 -243.5q-25 -143 -140 -243.5t-257 -100.5q-143 0 -230 101t-62 243q26 144 140.5 244.5t256.5 100.5z
M694 338q10 62 -3 117q-13 54 -47 95t-84 64q-51 24 -113 24q-61 0 -120 -24q-58 -22 -107 -64q-47 -40 -81 -95q-34 -57 -44 -117q-11 -60 3 -116q13 -54 47 -95q35 -43 84 -65q54 -23 113 -23q60 0 121 23q58 23 106 65q50 43 81 95q34 56 44 116z" />
    <glyph glyph-name="CEight" unicode="&#x2467;" 
d="M426 534q35 0 53.5 -28t10.5 -72q-9 -58 -48 -84q35 -28 23 -97q-9 -54 -37 -82.5t-65 -28.5t-57 29t-11 82q13 68 57 97q-29 25 -18 84q8 45 33 72.5t59 27.5zM423 254q6 35 -1.5 57t-27.5 22t-35.5 -22t-21.5 -57t1.5 -57t27.5 -22q21 0 36 22t21 57zM448 432
q6 31 -0.5 50.5t-23.5 19.5t-30.5 -19.5t-18.5 -50.5q-5 -30 2 -48.5t23 -18.5t29.5 18.5t18.5 48.5zM447 683q144 0 230.5 -101.5t61.5 -243.5q-25 -143 -140 -243.5t-257 -100.5q-143 0 -230 101t-62 243q26 144 140.5 244.5t256.5 100.5zM694 338q10 62 -3 117
q-13 54 -47 95t-84 64q-51 24 -113 24q-61 0 -120 -24q-58 -22 -107 -64q-47 -40 -81 -95q-34 -57 -44 -117q-11 -60 3 -116q13 -54 47 -95q35 -43 84 -65q54 -23 113 -23q60 0 121 23q58 23 106 65q50 43 81 95q34 56 44 116z" />
    <glyph glyph-name="CNine" unicode="&#x2468;" 
d="M424 534q37 0 55 -39.5t5 -112.5q-10 -54 -28 -99t-36.5 -71t-36.5 -44.5t-29 -25.5l-11 -7l-10 32q6 4 15.5 11.5t33.5 36.5t41 64q-16 -16 -40 -16q-36 0 -54 37t-7 98q11 64 38.5 100t63.5 36zM446 398q8 44 1.5 74t-24.5 30t-34.5 -29.5t-24.5 -74.5q-8 -44 -2 -73.5
t25 -29.5t35 29t24 74zM447 683q144 0 230.5 -101.5t61.5 -243.5q-25 -143 -140 -243.5t-257 -100.5q-143 0 -230 101t-62 243q26 144 140.5 244.5t256.5 100.5zM694 338q10 62 -3 117q-13 54 -47 95t-84 64q-51 24 -113 24q-61 0 -120 -24q-58 -22 -107 -64
q-47 -40 -81 -95q-34 -57 -44 -117q-11 -60 3 -116q13 -54 47 -95q35 -43 84 -65q54 -23 113 -23q60 0 121 23q58 23 106 65q50 43 81 95q34 56 44 116z" />
    <glyph glyph-name="CZero" unicode="&#x24ea;" 
d="M426 534q83 0 49 -196q-35 -196 -112 -196q-39 0 -52 47t3 149q34 196 112 196zM436 338q7 51 8 57l-101 -142q-3 -81 22 -81q19 0 38.5 45t32.5 121zM446 423q3 81 -22 81q-19 0 -38 -45.5t-32 -120.5q-7 -33 -8 -57zM447 683q144 0 230.5 -101.5t61.5 -243.5
q-25 -143 -140 -243.5t-257 -100.5q-143 0 -230 101t-62 243q26 144 140.5 244.5t256.5 100.5zM694 338q10 62 -3 117q-13 54 -47 95t-84 64q-51 24 -113 24q-61 0 -120 -24q-58 -22 -107 -64q-47 -40 -81 -95q-34 -57 -44 -117q-11 -60 3 -116q13 -54 47 -95q35 -43 84 -65
q54 -23 113 -23q60 0 121 23q58 23 106 65q50 43 81 95q34 56 44 116z" />
    <glyph glyph-name="lozenge" unicode="&#x25ca;" horiz-adv-x="479" 
d="M336 677l108 -339l-227 -338h-75l-107 338l226 339h75zM193 76l176 262l-83 263l-176 -263z" />
    <glyph glyph-name="BCOne" unicode="&#x278a;" 
d="M447 683q144 0 230.5 -101.5t61.5 -243.5q-25 -143 -140 -243.5t-257 -100.5q-143 0 -230 101t-62 243q26 144 140.5 244.5t256.5 100.5zM381 146l69 388l-82 -20l-6 -32l38 9l-60 -345h41z" />
    <glyph glyph-name="BCTwo" unicode="&#x278b;" 
d="M447 683q144 0 230.5 -101.5t61.5 -243.5q-25 -143 -140 -243.5t-257 -100.5q-143 0 -230 101t-62 243q26 144 140.5 244.5t256.5 100.5zM483 435q8 46 -12 72.5t-55 26.5q-15 0 -30 -7t-22 -13l-7 -7l8 -26q19 20 45 20q42 0 32 -63q-8 -46 -35 -100t-47 -84t-59 -83
l13 -25h113l6 32h-93q125 155 143 257z" />
    <glyph glyph-name="BCThree" unicode="&#x278c;" 
d="M447 683q144 0 230.5 -101.5t61.5 -243.5q-25 -143 -140 -243.5t-257 -100.5q-143 0 -230 101t-62 243q26 144 140.5 244.5t256.5 100.5zM486 439q7 41 -11 68t-53 27q-15 0 -30 -7t-22 -14l-8 -7l7 -25q20 21 44 21q20 0 27.5 -19t2.5 -50t-18.5 -50t-31.5 -19h-25
l-5 -32h24q19 0 27 -25t3 -54q-14 -78 -60 -78q-12 0 -23.5 5.5t-16.5 10.5l-5 5l-17 -27q23 -27 65 -27q37 0 63 28t34 75q5 30 -3.5 56t-19.5 37l-12 10q2 1 5.5 3t13 9t17.5 16.5t16.5 26t11.5 36.5z" />
    <glyph glyph-name="BCFour" unicode="&#x278d;" 
d="M390 308h-59l81 121zM447 683q144 0 230.5 -101.5t61.5 -243.5q-25 -143 -140 -243.5t-257 -100.5q-143 0 -230 101t-62 243q26 144 140.5 244.5t256.5 100.5zM469 308h-37l39 222h-24l-150 -222l-5 -32h93l-23 -130h41l23 130h37z" />
    <glyph glyph-name="BCFive" unicode="&#x278e;" 
d="M447 683q144 0 230.5 -101.5t61.5 -243.5q-25 -143 -140 -243.5t-257 -100.5q-143 0 -230 101t-62 243q26 144 140.5 244.5t256.5 100.5zM484 498l6 32h-107l-39 -168l13 -18q15 12 30 12q23 0 30.5 -26.5t0.5 -64.5q-17 -90 -66 -90q-12 0 -22 4.5t-14 8.5l-4 4l-16 -26
q19 -24 58 -24t67.5 32.5t38.5 90.5q10 59 -5.5 91.5t-51.5 32.5q-2 0 -6 -0.5t-5 -0.5l25 110h67z" />
    <glyph glyph-name="BCSix" unicode="&#x278f;" 
d="M395 381q18 0 24.5 -29.5t-1.5 -73.5q-8 -45 -25 -74t-35 -29q-19 0 -24.5 29.5t2.5 73.5q8 45 24 74t35 29zM447 683q144 0 230.5 -101.5t61.5 -243.5q-25 -143 -140 -243.5t-257 -100.5q-143 0 -230 101t-62 243q26 144 140.5 244.5t256.5 100.5zM458 278
q11 62 -4.5 99t-50.5 37q-20 0 -36 -14q19 31 42.5 58t37.5 39l14 12l-15 32q-5 -3 -13 -9.5t-30 -29.5t-40.5 -49.5t-37.5 -69.5t-27 -89q-13 -73 4 -112.5t55 -39.5q37 0 63.5 36t37.5 100z" />
    <glyph glyph-name="BCSeven" unicode="&#x2790;" 
d="M447 683q144 0 230.5 -101.5t61.5 -243.5q-25 -143 -140 -243.5t-257 -100.5q-143 0 -230 101t-62 243q26 144 140.5 244.5t256.5 100.5zM505 496l6 34h-155l-6 -34h118q-5 -6 -12.5 -16t-29.5 -45t-40.5 -73.5t-38.5 -97t-31 -118.5h42q16 89 52.5 176.5t65.5 130.5z
" />
    <glyph glyph-name="BCEight" unicode="&#x2791;" 
d="M394 333q20 0 27.5 -22t1.5 -57t-21 -57t-36 -22q-20 0 -27.5 22t-1.5 57t21.5 57t35.5 22zM424 502q17 0 23.5 -19.5t0.5 -50.5q-5 -30 -18.5 -48.5t-29.5 -18.5t-23 18.5t-2 48.5q5 31 18.5 50.5t30.5 19.5zM447 683q144 0 230.5 -101.5t61.5 -243.5
q-25 -143 -140 -243.5t-257 -100.5q-143 0 -230 101t-62 243q26 144 140.5 244.5t256.5 100.5zM490 434q8 44 -10.5 72t-53.5 28q-34 0 -59 -27.5t-33 -72.5q-11 -59 18 -84q-44 -29 -57 -97q-9 -53 11 -82t57 -29t65 28.5t37 82.5q12 69 -23 97q39 26 48 84z" />
    <glyph glyph-name="BCNine" unicode="&#x2792;" 
d="M423 502q18 0 24.5 -30t-1.5 -74q-8 -45 -24 -74t-35 -29t-25 29.5t2 73.5q8 45 24.5 74.5t34.5 29.5zM447 683q144 0 230.5 -101.5t61.5 -243.5q-25 -143 -140 -243.5t-257 -100.5q-143 0 -230 101t-62 243q26 144 140.5 244.5t256.5 100.5zM484 382q13 73 -5 112.5
t-55 39.5q-36 0 -63.5 -36t-38.5 -100q-11 -61 7 -98t54 -37q24 0 40 16q-17 -35 -39.5 -63t-36.5 -38l-14 -11l10 -32q4 2 11.5 7t28 25t37.5 45t35.5 70.5t28.5 99.5z" />
    <glyph glyph-name="BlackArrowR" unicode="&#x27a1;" 
d="M447 683q144 0 230.5 -101.5t61.5 -243.5q-25 -143 -140 -243.5t-257 -100.5q-143 0 -230 101t-62 243q26 144 140.5 244.5t256.5 100.5zM422 145l145 193l-77 194h-86l66 -165h-243l-10 -57h243l-124 -165h86z" />
    <glyph glyph-name="WhiteArrowNE" unicode="&#x2b00;" 
d="M447 683q144 0 230.5 -101.5t61.5 -243.5q-25 -143 -140 -243.5t-257 -100.5q-143 0 -230 101t-62 243q26 144 140.5 244.5t256.5 100.5zM694 338q10 62 -3 117q-13 54 -47 95t-84 64q-51 24 -113 24q-61 0 -120 -24q-58 -22 -107 -64q-47 -40 -81 -95q-34 -57 -44 -117
q-11 -60 3 -116q13 -54 47 -95q35 -43 84 -65q54 -23 113 -23q60 0 121 23q58 23 106 65q50 43 81 95q34 56 44 116zM333 518l205 -57l20 -216l-71 -61l-17 184l-202 -172l-34 41l202 171l-174 50z" />
    <glyph glyph-name="WhiteArrowNW" unicode="&#x2b01;" 
d="M447 683q144 0 230.5 -101.5t61.5 -243.5q-25 -143 -140 -243.5t-257 -100.5q-143 0 -230 101t-62 243q26 144 140.5 244.5t256.5 100.5zM694 338q10 62 -3 117q-13 54 -47 95t-84 64q-51 24 -113 24q-61 0 -120 -24q-58 -22 -107 -64q-47 -40 -81 -95q-34 -57 -44 -117
q-11 -60 3 -116q13 -54 47 -95q35 -43 84 -65q54 -23 113 -23q60 0 121 23q58 23 106 65q50 43 81 95q34 56 44 116zM294 461l226 57l50 -60l-192 -50l141 -171l-48 -41l-141 172l-82 -184l-50 61z" />
    <glyph glyph-name="WhiteArrowSE" unicode="&#x2b02;" 
d="M447 683q144 0 230.5 -101.5t61.5 -243.5q-25 -143 -140 -243.5t-257 -100.5q-143 0 -230 101t-62 243q26 144 140.5 244.5t256.5 100.5zM694 338q10 62 -3 117q-13 54 -47 95t-84 64q-51 24 -113 24q-61 0 -120 -24q-58 -22 -107 -64q-47 -40 -81 -95q-34 -57 -44 -117
q-11 -60 3 -116q13 -54 47 -95q35 -43 84 -65q54 -23 113 -23q60 0 121 23q58 23 106 65q50 43 81 95q34 56 44 116zM460 309l81 183l50 -60l-96 -216l-225 -58l-50 61l192 49l-142 172l48 41z" />
    <glyph glyph-name="WhiteArrowSW" unicode="&#x2b03;" 
d="M447 683q144 0 230.5 -101.5t61.5 -243.5q-25 -143 -140 -243.5t-257 -100.5q-143 0 -230 101t-62 243q26 144 140.5 244.5t256.5 100.5zM694 338q10 62 -3 117q-13 54 -47 95t-84 64q-51 24 -113 24q-61 0 -120 -24q-58 -22 -107 -64q-47 -40 -81 -95q-34 -57 -44 -117
q-11 -60 3 -116q13 -54 47 -95q35 -43 84 -65q54 -23 113 -23q60 0 121 23q58 23 106 65q50 43 81 95q34 56 44 116zM522 481l33 -41l-202 -172l175 -49l-72 -61l-205 58l-20 216l72 60l16 -183z" />
    <glyph glyph-name="BlackArrowL" unicode="&#x2b05;" 
d="M447 683q144 0 230.5 -101.5t61.5 -243.5q-25 -143 -140 -243.5t-257 -100.5q-143 0 -230 101t-62 243q26 144 140.5 244.5t256.5 100.5zM562 310l11 57h-244l124 165h-86l-145 -194l77 -193h86l-66 165h243z" />
    <glyph glyph-name="BlackArrowU" unicode="&#x2b06;" 
d="M447 683q144 0 230.5 -101.5t61.5 -243.5q-25 -143 -140 -243.5t-257 -100.5q-143 0 -230 101t-62 243q26 144 140.5 244.5t256.5 100.5zM583 314l16 86l-174 111l-213 -111l-15 -86l181 95l-43 -243h58l43 243z" />
    <glyph glyph-name="BlackArrowD" unicode="&#x2b07;" 
d="M447 683q144 0 230.5 -101.5t61.5 -243.5q-25 -143 -140 -243.5t-257 -100.5q-143 0 -230 101t-62 243q26 144 140.5 244.5t256.5 100.5zM577 277l15 86l-181 -95l43 243h-58l-43 -243l-147 95l-15 -86l173 -111z" />
    <glyph glyph-name="BlackArrowNE" unicode="&#x2b08;" 
d="M447 683q144 0 230.5 -101.5t61.5 -243.5q-25 -143 -140 -243.5t-257 -100.5q-143 0 -230 101t-62 243q26 144 140.5 244.5t256.5 100.5zM487 184l71 61l-20 216l-205 57l-71 -60l174 -50l-202 -171l34 -41l202 172z" />
    <glyph glyph-name="BlackArrowNW" unicode="&#x2b09;" 
d="M447 683q144 0 230.5 -101.5t61.5 -243.5q-25 -143 -140 -243.5t-257 -100.5q-143 0 -230 101t-62 243q26 144 140.5 244.5t256.5 100.5zM519 237l-141 171l192 50l-50 60l-226 -57l-96 -216l50 -61l82 184l141 -172z" />
    <glyph glyph-name="BlackArrowSE" unicode="&#x2b0a;" 
d="M447 683q144 0 230.5 -101.5t61.5 -243.5q-25 -143 -140 -243.5t-257 -100.5q-143 0 -230 101t-62 243q26 144 140.5 244.5t256.5 100.5zM495 216l96 216l-50 60l-81 -183l-142 172l-48 -41l142 -172l-192 -49l50 -61z" />
    <glyph glyph-name="BlackArrowSW" unicode="&#x2b0b;" 
d="M447 683q144 0 230.5 -101.5t61.5 -243.5q-25 -143 -140 -243.5t-257 -100.5q-143 0 -230 101t-62 243q26 144 140.5 244.5t256.5 100.5zM528 219l-175 49l202 172l-33 41l-203 -172l-16 183l-72 -60l20 -216l205 -58z" />
    <glyph glyph-name="sc.f" unicode="&#xa730;" horiz-adv-x="344" 
d="M314 507h-134l-31 -177h97l-9 -55h-98l-48 -275h-71l99 562h205z" />
    <glyph glyph-name="sc.s" unicode="&#xa731;" horiz-adv-x="287" 
d="M218 568q21 0 38 -5t27 -12t17 -14.5t10 -12.5l2 -5l-25 -39q-19 33 -61 33q-29 0 -49 -21t-25 -50q-5 -28 12 -71t39 -82.5t38 -89.5t9 -89q-10 -55 -46.5 -85.5t-90.5 -30.5q-36 0 -64.5 13t-38.5 26l-10 13l29 45q3 -5 9 -12t26 -18.5t43 -11.5q61 0 74 72
q5 28 -11.5 72.5t-39 84.5t-38 89.5t-9.5 85.5q9 52 48 83.5t87 31.5z" />
    <glyph glyph-name="sc.q" unicode="&#xa7af;" horiz-adv-x="336" 
d="M212 568q66 0 91 -67t3 -191l-10 -58q-41 -223 -139 -253q5 -39 40 -39h5l-9 -52h-5q-44 0 -70 25t-29 66q-96 34 -58 253l10 58q47 258 171 258zM230 281q40 232 -21 232q-60 0 -102 -232q-40 -232 20 -232q61 0 103 232z" />
    <glyph glyph-name="BCZero" unicode="&#x1f10c;" 
d="M424 504q25 0 22 -81l-100 -142q1 24 8 57q13 75 32 120.5t38 45.5zM365 172q-25 0 -22 81l101 142q-1 -6 -8 -57q-13 -76 -32.5 -121t-38.5 -45zM447 683q144 0 230.5 -101.5t61.5 -243.5q-25 -143 -140 -243.5t-257 -100.5q-143 0 -230 101t-62 243q26 144 140.5 244.5
t256.5 100.5zM475 338q34 196 -49 196q-78 0 -112 -196q-16 -102 -3 -149t52 -47q77 0 112 196z" />
    <glyph glyph-name="a.ss01" horiz-adv-x="394" 
d="M294 474h55l-83 -474h-54l-10 44q-1 -2 -2.5 -5.5t-7 -12t-13 -15t-21 -12t-28.5 -5.5q-52 0 -73 52.5t-3 157.5l10 58q39 218 140 218q23 0 39.5 -12.5t21.5 -25.5l5 -12zM243 237q32 188 -23 188q-27 0 -50.5 -50t-38.5 -138q-34 -188 23 -188q55 0 89 188z" />
    <glyph glyph-name="f.ss01" horiz-adv-x="304" 
d="M183 683q24 0 43 -8.5t26 -16.5l7 -8l-28 -44q-17 22 -44 22q-54 0 -73 -112l-6 -36h104l-10 -55h-104l-109 -617l-74 -18l112 635h-56l10 55h56l6 36q15 83 51.5 125t88.5 42z" />
    <glyph glyph-name="g.ss01" horiz-adv-x="488" 
d="M433 503q-47 0 -64 -59q36 -46 22 -127q-13 -78 -52.5 -121t-94.5 -43q-25 0 -46 9q-47 -76 27 -76h19q57 0 90 -48.5t23 -105.5q-12 -67 -58.5 -104t-112.5 -37q-67 0 -108 42.5t-31 103.5q11 64 75 114q-17 24 -11 52q9 51 52 86q-39 44 -24 128q14 78 53.5 120.5
t94.5 42.5q23 0 44 -8q34 85 112 85zM194 18q-20 0 -37 6q-31 -45 -40 -91q-7 -40 14 -63.5t59 -23.5q37 0 63 23t33 64q7 37 -13 61t-60 24h-19zM320 317q9 47 0 79.5t-35 32.5t-46 -31.5t-29 -80.5q-9 -48 0 -80.5t35 -32.5t46 31.5t29 81.5z" />
    <glyph glyph-name="t.ss01" horiz-adv-x="281" 
d="M136 425l-46 -264q-9 -52 3.5 -82t41.5 -30q14 0 28.5 7.5t22.5 15.5l7 7l18 -39q-3 -5 -9 -12.5t-29.5 -20.5t-52.5 -13q-54 0 -84 48t-16 124l75 428l75 19l-24 -133h90l-9 -55h-91z" />
    <glyph glyph-name="y.ss01" horiz-adv-x="502" 
d="M384 474h73l-220 -501q-46 -105 -84.5 -143.5t-107.5 -38.5l10 55q33 0 56 28.5t53 98.5l46 106l-30 395h74l14 -286z" />
    <glyph glyph-name="sc.ae" horiz-adv-x="597" 
d="M542 507h-128l-28 -160h102l-9 -55h-103l-41 -237h127l-9 -55h-199l23 131h-90l-70 -131h-72l313 562h194zM285 178l37 206l-110 -206h73z" />
    <glyph glyph-name="sc.oe" horiz-adv-x="558" 
d="M504 507h-128l-29 -160h103l-10 -55h-102l-42 -237h128l-10 -55h-199l5 29q-30 -35 -74 -35q-58 0 -85.5 69t-5.5 189l10 58q21 122 68 190t106 68q46 0 68 -47l7 41h199zM271 281q18 106 9.5 169t-38.5 63q-31 0 -62 -64t-49 -168q-18 -106 -9.5 -169t38.5 -63t61.5 64
t49.5 168z" />
    <glyph glyph-name="sc.eth" horiz-adv-x="399" 
d="M247 562q65 0 92 -61.5t5 -190.5l-10 -58q-45 -252 -173 -252h-116l45 253h-31l10 55h30l45 254h103zM268 281q39 226 -27 226h-36l-35 -199h38l-10 -55h-37l-35 -198h35q66 0 107 226z" />
    <glyph glyph-name="sc.oslash" horiz-adv-x="448" 
d="M403 619l-51 -104q33 -65 9 -205l-10 -58q-45 -258 -172 -258q-43 0 -67 27l-38 -78h-29l50 103q-34 66 -8 206l10 58q45 258 171 258q42 0 68 -28l38 79h29zM163 281q-13 -69 -16 -128l152 311q-8 49 -34 49q-62 0 -102 -232zM285 281q13 73 15 127l-151 -310
q6 -49 34 -49q62 0 102 232z" />
    <glyph glyph-name="sc.germandbls" horiz-adv-x="402" 
d="M353 415q-7 -38 -30.5 -76.5t-27.5 -59.5q-5 -33 21 -98.5t20 -98.5q-7 -38 -37 -63t-73 -25q-24 0 -43.5 8t-27.5 16l-8 8l26 41q20 -18 47 -18q40 0 47 45q5 29 -16.5 94.5t-17.5 90.5q4 23 22 55.5t26 74.5q17 104 -28 104q-46 0 -67 -114l-70 -399h-71l73 415
q12 70 48.5 111.5t89.5 41.5q55 0 81.5 -42.5t15.5 -110.5z" />
    <glyph glyph-name="sc.thorn" horiz-adv-x="384" 
d="M225 457q59 0 91.5 -47.5t18.5 -128.5q-15 -82 -58.5 -129t-100.5 -47h-42l-18 -105h-71l99 562h71l-19 -105h29zM264 281q9 55 -3.5 88t-43.5 33h-30l-43 -242h30q31 0 55.5 33.5t34.5 87.5z" />
    <glyph glyph-name="ampersand.ss01" horiz-adv-x="390" 
d="M184 154q-48 0 -76 34t-19 85q12 69 86 125q-23 68 -14 121q19 107 97 107q37 0 56 -31.5t10 -81.5q-6 -33 -30 -63t-45 -44l-21 -14q16 -36 49 -94q9 32 20 90h37q-11 -73 -33 -129q13 -20 39 -64l-30 -35l-33 53l-3 -6t-10 -14.5t-17.5 -18t-26.5 -14t-36 -6.5z
M210 519q-9 -46 7 -96q51 43 60 96q11 69 -22 69t-45 -69zM139 277q-7 -38 6 -62t41 -24q42 0 70 54q-46 75 -66 119q-42 -38 -51 -87zM50 71l7 38h268l-7 -38h-268z" />
    <glyph glyph-name="ln.zero" horiz-adv-x="359" 
d="M246 677q145 0 85 -342q-32 -178 -77 -259.5t-116 -81.5q-144 0 -84 341q32 180 76.5 261t115.5 81zM258 335q23 121 19.5 203.5t-34.5 82.5t-62.5 -80t-53.5 -206q-22 -121 -19 -203t34 -82t62.5 80t53.5 205z" />
    <glyph glyph-name="ln.one" horiz-adv-x="212" 
d="M84 642l143 35l-119 -677h-73l106 602l-66 -16z" />
    <glyph glyph-name="ln.two" horiz-adv-x="341" 
d="M237 677q61 0 95 -47t20 -126q-31 -176 -248 -448h162l-10 -56h-198l-23 45l102.5 142t84 149t59.5 174q9 51 -5.5 80t-50.5 29q-20 0 -39.5 -8.5t-29.5 -17.5l-9 -9l-13 45l13.5 13t35.5 21.5t54 13.5z" />
    <glyph glyph-name="ln.three" horiz-adv-x="381" 
d="M367 511q-6 -34 -19.5 -63t-29 -45.5t-30 -29t-24.5 -17.5l-9 -4q2 -1 4.5 -3.5l11.5 -11.5t15 -18.5t15 -25.5t12.5 -33t6.5 -40t-3 -47q-15 -81 -60 -130t-110 -49q-32 0 -60 12t-40 24l-12 11l29 46q31 -37 78 -37q41 0 67.5 37t37.5 100q9 51 -5 94t-47 43h-43l10 56
h43q31 0 55 34t33 86q9 55 -4.5 87.5t-47.5 32.5q-19 0 -38.5 -9t-28.5 -18l-10 -9l-13 45q5 5 14 13t36.5 21.5t54.5 13.5q61 0 92.5 -47t18.5 -119z" />
    <glyph glyph-name="ln.four" horiz-adv-x="358" 
d="M348 671l-68 -388h65l-10 -56h-65l-40 -227h-72l39 227h-162l10 56l261 388h42zM207 283l38 212l-142 -212h104z" />
    <glyph glyph-name="ln.five" horiz-adv-x="384" 
d="M364 614h-117l-44 -192q12 2 19 2q62 0 89.5 -56.5t9.5 -158.5t-67 -158.5t-116 -56.5q-31 0 -56.5 10t-35.5 20l-11 11l29 46q23 -31 69 -31q42 0 72.5 43t42.5 116q14 60 0.5 109t-54.5 49q-27 0 -51 -22l-23 31l67 295h187z" />
    <glyph glyph-name="ln.six" horiz-adv-x="343" 
d="M229 467q62 0 88.5 -64t7.5 -173q-20 -111 -66 -173.5t-110 -62.5q-68 0 -97.5 68.5t-6.5 195.5q14 81 46 155t67.5 122t69 84.5t54.5 52.5l22 17l26 -55l-27.5 -23t-61 -65t-75.5 -103q29 24 63 24zM254 230q15 77 4 129t-43 52q-33 0 -61.5 -51t-42.5 -130
q-14 -77 -3 -128.5t43 -51.5t60.5 50.5t42.5 129.5z" />
    <glyph glyph-name="ln.seven" horiz-adv-x="340" 
d="M104 671h271l-11 -61l-21.5 -30.5t-50.5 -83t-68.5 -130.5t-65 -167.5t-50.5 -198.5h-73q18 104 52.5 205.5t70 171.5t68 125t53.5 82l21 26h-207z" />
    <glyph glyph-name="ln.eight" horiz-adv-x="394" 
d="M380 503q-18 -102 -85 -147q62 -48 40 -169q-17 -93 -65.5 -143t-111.5 -50q-65 0 -99.5 50.5t-18.5 142.5q22 121 99 169q-51 46 -33 147q14 78 58 126t103 48q61 0 93.5 -49t19.5 -125zM262 188q11 61 -2 99.5t-48 38.5t-61.5 -38.5t-37.5 -99.5t2 -99.5t48 -38.5
t62 38.5t37 99.5zM307 499q9 54 -2 87.5t-41 33.5t-53 -33.5t-33 -87.5q-9 -52 3 -84t41 -32q28 0 51.5 32t33.5 84z" />
    <glyph glyph-name="ln.nine" horiz-adv-x="343" 
d="M219 677q65 0 96 -68.5t8 -196.5q-17 -94 -48 -172.5t-64 -124t-64 -77.5t-51 -44l-19 -12l-16 54q4 2 10 7t25 22.5t37 38t41.5 55t42.5 73.5q-28 -28 -70 -28q-62 0 -93 64.5t-12 171.5q19 112 66.5 174.5t110.5 62.5zM257 440q14 77 3.5 129t-42.5 52q-33 0 -61.5 -51
t-42.5 -130q-14 -76 -3 -128t43 -52t60.5 51t42.5 129z" />
    <glyph glyph-name="ln.zeroalt" horiz-adv-x="359" 
d="M248 677q67 0 90 -81.5t-6 -260.5q-60 -341 -196 -341q-67 0 -90 81t6 260q60 342 196 342zM264 335q10 62 14 99l-175 -247q-8 -141 38 -141q32 0 66 79t57 210zM282 483q6 142 -39 142q-32 0 -65.5 -78.5t-57.5 -211.5q-10 -59 -14 -98z" />
    <glyph glyph-name="zero.zero" horiz-adv-x="393" 
d="M232 486q73 0 105.5 -64.5t12.5 -181.5q-21 -119 -70.5 -182.5t-121.5 -63.5q-73 0 -104 64.5t-10 181.5q44 246 188 246zM111 240q-16 -91 1 -145l156 320q-15 20 -37 20q-38 0 -71.5 -56.5t-48.5 -138.5zM283 240q15 87 -1 144l-156 -319q14 -20 36 -20q38 0 72 56
t49 139z" />
    <glyph glyph-name="braceleft.uc" horiz-adv-x="409" 
d="M286 752q30 0 52 -11.5t29 -22.5l7 -12l-26 -40q-14 28 -51 28q-66 0 -83 -98q-9 -53 -5.5 -121.5t-1.5 -99.5q-4 -24 -18.5 -41.5t-26.5 -22.5l-13 -5q2 -1 4.5 -2t9.5 -7t12 -13t8 -20t0 -28q-5 -30 -33.5 -98.5t-37.5 -122.5q-17 -98 48 -98q16 0 31.5 7.5t22.5 14.5
l7 7l12 -41q-3 -5 -8.5 -12.5t-27.5 -20t-48 -12.5q-59 0 -90.5 39.5t-19.5 103.5q9 55 36.5 117.5t31.5 86.5q5 27 -6.5 49t-37.5 22h-20l9 55h21q25 0 44.5 22t23.5 49q5 26 0 87.5t4 116.5q12 66 50 105t91 39z" />
    <glyph glyph-name="braceright.uc" horiz-adv-x="319" 
d="M280 608q-9 -55 -36 -117t-32 -87q-4 -28 7 -49.5t37 -21.5h20l-9 -55h-21q-25 0 -44 -22t-24 -49q-5 -25 0 -87t-4 -117q-12 -66 -50 -104.5t-93 -38.5q-28 0 -49.5 11.5t-29.5 22.5l-7 11l26 41q14 -29 52 -29q65 0 82 98q9 53 5.5 122t1.5 99q4 24 18.5 41.5
t27.5 22.5l12 6q-5 2 -12 6t-16.5 21.5t-5.5 41.5q6 30 34 98.5t37 122.5q18 98 -47 98q-17 0 -32.5 -7t-22.5 -14l-7 -7l-12 40q3 5 10 12.5t30.5 20.5t49.5 13q56 0 86 -39.5t18 -104.5z" />
    <glyph glyph-name="parenleft.uc" horiz-adv-x="331" 
d="M119 306q-16 -113 -9.5 -199.5t22.5 -138.5l16 -53l-36 -55q-2 4 -6 10.5t-15 29.5t-20 48.5t-18.5 65.5t-13.5 82.5t-2.5 97.5t11.5 112q14 78 41.5 152t57.5 125t58 91t46 59l18 19l17 -55q-14 -19 -36.5 -53.5t-68 -137t-62.5 -200.5z" />
    <glyph glyph-name="parenright.uc" horiz-adv-x="230" 
d="M118 752q2 -4 6 -10.5t15 -29.5t20 -48.5t18.5 -65.5t13.5 -82.5t2.5 -97.5t-11.5 -112q-14 -78 -41.5 -152t-57.5 -125t-58 -91t-46 -59l-18 -19l-16 55l14 19.5t33 54t44.5 84.5t42 107t32.5 126q16 112 10 199t-22 139l-16 53z" />
    <glyph glyph-name="bracketleft.uc" horiz-adv-x="423" 
d="M190 746h188l-10 -55h-117l-135 -770h116l-9 -55h-188z" />
    <glyph glyph-name="bracketright.uc" horiz-adv-x="323" 
d="M100 746h188l-155 -880h-188l10 55h117l135 770h-117z" />
    <glyph glyph-name="exclamdown.uc" horiz-adv-x="264" 
d="M174 671h75l-13 -75h-75zM76 111l81 361h40l-47 -361l-21 -117h-74z" />
    <glyph glyph-name="questiondown.uc" horiz-adv-x="351" 
d="M314 376q-6 -35 -36 -74.5t-62.5 -68t-61.5 -62.5t-34 -60q-5 -30 8 -49t41 -19q19 0 37.5 6.5t27.5 12.5l8 6l12 -42q-3 -4 -9.5 -10.5t-30 -17t-50.5 -10.5q-56 0 -88.5 33.5t-22.5 89.5q5 26 25 55t46 54l52 49.5t46 52t24 52.5q4 21 -7 35.5t-31 14.5q-16 0 -30.5 -6
t-21.5 -12l-6 -7l-12 39q3 4 9.5 11t29 18t46.5 11q45 0 71.5 -29.5t19.5 -72.5zM315 671l-14 -75h-74l13 75h75z" />
    <glyph glyph-name="colon.uc" horiz-adv-x="229" 
d="M35 66l13 74h74l-13 -74h-74zM120 546h74l-13 -75h-75z" />
    <glyph glyph-name="semicolon.uc" horiz-adv-x="215" 
d="M-25 30l66 149h75l-89 -149h-52zM106 546h74l-13 -75h-74z" />
    <glyph glyph-name="plus.uc" horiz-adv-x="318" 
d="M191 363h92l-10 -55h-92l-16 -92h-55l16 92h-91l10 55h91l16 91h55z" />
    <glyph glyph-name="minus.uc" horiz-adv-x="340" 
d="M55 363h240l-10 -55h-240z" />
    <glyph glyph-name="equal.uc" horiz-adv-x="338" 
d="M35 214l10 55h240l-10 -55h-240zM63 373h240l-9 -55h-241z" />
    <glyph glyph-name="divide.uc" horiz-adv-x="401" 
d="M257 460l-12 -64h-63l11 64h64zM144 181l11 63h63l-11 -63h-63zM45 348h321l-10 -55h-321z" />
    <glyph glyph-name="multiply.uc" horiz-adv-x="333" 
d="M298 431l-100 -111l60 -111l-46 -30l-53 98l-88 -98l-36 30l100 111l-61 111l47 30l53 -98l88 98z" />
    <glyph glyph-name="guilsinglleft.uc" horiz-adv-x="282" 
d="M237 485l-146 -148l93 -149l-48 -34l-91 144l14 77l141 144z" />
    <glyph glyph-name="guilsinglright.uc" horiz-adv-x="282" 
d="M146 519l91 -144l-14 -77l-141 -144l-37 34l145 149l-93 148z" />
    <glyph glyph-name="guillemotleft.uc" horiz-adv-x="422" 
d="M237 485l-146 -148l93 -149l-48 -34l-91 144l14 77l141 144zM377 485l-146 -148l94 -149l-49 -34l-91 144l14 77l141 144z" />
    <glyph glyph-name="guillemotright.uc" horiz-adv-x="422" 
d="M286 519l91 -144l-14 -77l-141 -144l-37 34l146 149l-94 148zM237 375l-14 -77l-141 -144l-37 34l145 149l-93 148l49 34z" />
    <glyph glyph-name="less.uc" horiz-adv-x="346" 
d="M301 488l-185 -151l131 -152l-34 -53l-168 205l240 204z" />
    <glyph glyph-name="greater.uc" horiz-adv-x="346" 
d="M133 541l168 -204l-241 -205l-15 53l184 152l-131 151z" />
    <glyph glyph-name="emdash.uc" horiz-adv-x="548" 
d="M55 363h448l-10 -55h-448z" />
    <glyph glyph-name="endash.uc" horiz-adv-x="403" 
d="M55 363h303l-10 -55h-303z" />
    <glyph glyph-name="logicalnot.uc" horiz-adv-x="399" 
d="M55 377h299l-29 -166h-55l19 111h-244z" />
    <glyph glyph-name="hyphen.uc" horiz-adv-x="340" 
d="M55 363h240l-10 -55h-240z" />
    <glyph glyph-name="plusminus.uc" horiz-adv-x="339" 
d="M212 429h92l-10 -55h-91l-17 -91h-54l16 91h-92l10 55h91l17 96h55zM35 179l10 55h211l-10 -55h-211z" />
    <glyph glyph-name="notequal.uc" horiz-adv-x="358" 
d="M304 318h-99l-24 -49h114l-10 -55h-131l-59 -120h-28l58 120h-80l10 55h97l24 49h-113l10 55h130l58 119h29l-59 -119h82z" />
    <glyph glyph-name="approxequal.uc" horiz-adv-x="405" 
d="M144 291q22 0 54.5 -16.5t54.5 -16.5q20 0 42.5 8t34.5 16l12 9l-9 -55q-45 -32 -90 -32q-22 0 -54 16t-55 16q-20 0 -42 -8t-34 -16l-13 -8l10 54q44 33 89 33zM270 355q20 0 42.5 8.5t35.5 16.5l12 8l-10 -55q-45 -32 -90 -32q-22 0 -54 16t-55 16q-20 0 -42 -8
t-35 -16l-12 -8l10 54q45 33 89 33q23 0 55 -16.5t54 -16.5z" />
    <glyph glyph-name="lessequal.uc" horiz-adv-x="406" 
d="M371 547l-233 -129l188 -129l-33 -50l-249 179l312 179zM35 148l10 55h240l-10 -55h-240z" />
    <glyph glyph-name="greaterequal.uc" horiz-adv-x="397" 
d="M50 239l-15 50l233 129l-188 129l33 50l249 -179zM36 148l9 55h241l-10 -55h-240z" />
    <glyph glyph-name="at.uc" horiz-adv-x="829" 
d="M475 683q142 0 225 -105t59 -240q-17 -94 -59.5 -144t-109.5 -50q-26 0 -49 7t-36.5 17t-23 20.5t-13.5 17.5l-4 7q-1 -3 -3.5 -7.5t-11.5 -16.5t-19 -21t-26 -16.5t-34 -7.5q-53 0 -77.5 51.5t-8.5 142.5q17 97 58.5 145.5t98.5 48.5q30 0 51.5 -17t28.5 -34l7 -17
l-30 -170q-11 -57 18 -86.5t81 -29.5q88 0 117 160q22 126 -48.5 216t-198.5 90q-127 0 -228 -89t-124 -217q-22 -123 51.5 -214t193.5 -91q33 0 71.5 6.5t60.5 13.5l22 7l16 -34q-78 -32 -177 -32q-61 0 -118 27t-97.5 72t-60 110t-7.5 135q26 151 141 248t264 97zM459 441
q0 5 -0.5 12t-7 18.5t-18.5 11.5q-25 0 -49 -40.5t-35 -104.5q-25 -144 20 -144q21 0 40.5 37t31.5 107z" />
    <glyph glyph-name="zero.numr" horiz-adv-x="239" 
d="M161 680q42 0 56 -49t-1 -134q-16 -87 -47 -135t-72 -48t-55 48.5t1 134.5t46 134.5t72 48.5zM159 497q23 134 -6 134q-30 0 -53 -134q-25 -135 5 -135q29 0 54 135z" />
    <glyph glyph-name="one.numr" horiz-adv-x="121" 
d="M63 660l93 23l-64 -366h-57l53 302l-33 -8z" />
    <glyph glyph-name="two.numr" horiz-adv-x="200" 
d="M154 680q35 0 56 -26.5t13 -68.5q-13 -79 -122 -220h75l-9 -48h-115l-17 32q13 15 32 39.5t55 87t44 109.5q3 18 -2.5 32t-18.5 14q-10 0 -20.5 -6.5t-16.5 -12.5l-5 -7l-12 42q20 33 63 33z" />
    <glyph glyph-name="three.numr" horiz-adv-x="212" 
d="M225 586q-4 -25 -16 -45t-23 -28l-10 -8q4 -3 9.5 -9.5t12.5 -29t3 -48.5q-8 -47 -35 -75.5t-63 -28.5q-20 0 -37 8t-24 16l-7 8l25 39q13 -23 37 -23q17 0 30 16t17 44q5 21 0.5 40t-18.5 19h-31l8 49h32q23 0 33 51q8 50 -22 50q-11 0 -21 -5.5t-15 -11.5l-4 -6l-12 39
q22 33 64 33q34 0 54 -27t13 -67z" />
    <glyph glyph-name="four.numr" horiz-adv-x="213" 
d="M228 677l-34 -197h32l-8 -48h-33l-20 -115h-54l20 115h-96l6 35l142 210h45zM143 480l17 99l-66 -99h49z" />
    <glyph glyph-name="five.numr" horiz-adv-x="218" 
d="M224 628h-62l-17 -76q36 -2 51 -33q15 -32 6 -86q-10 -57 -37 -88t-63 -31q-20 0 -37 7t-23 15l-7 7l26 40q14 -21 37 -21q34 0 47 71q13 70 -19 70q-6 0 -12.5 -4t-10.5 -8l-4 -4l-20 27l37 163h117z" />
    <glyph glyph-name="six.numr" horiz-adv-x="192" 
d="M147 574q30 0 49 -29t6 -101q-23 -130 -99 -130q-39 0 -57.5 36.5t-5.5 107.5q12 69 49 127.5t67 82.5l31 24l14 -46q-37 -31 -67 -74q8 2 13 2zM146 444q6 34 3 58t-15 24t-23.5 -23.5t-17.5 -58.5q-6 -34 -3 -58.5t15 -24.5t23.5 24t17.5 59z" />
    <glyph glyph-name="seven.numr" horiz-adv-x="193" 
d="M74 677h154l-8 -43q-4 -4 -10 -11t-24 -35t-34 -61t-34 -89.5t-29 -120.5h-54q16 91 48 168.5t55 108.5l24 32h-97z" />
    <glyph glyph-name="eight.numr" horiz-adv-x="219" 
d="M231 582q-9 -48 -38 -74q25 -29 15 -86q-9 -50 -35.5 -79t-64.5 -29t-58 29.5t-12 78.5q10 55 45 86q-19 26 -11 74q8 45 34.5 71.5t59.5 26.5t53 -27t12 -71zM151 422q5 26 0.5 43t-17.5 17t-23.5 -17t-15.5 -43q-5 -25 0 -42.5t18 -17.5q12 0 22.5 17t15.5 43zM174 580
q8 51 -14 51t-31 -51q-4 -21 -0.5 -35t13.5 -14t19 14t13 35z" />
    <glyph glyph-name="nine.numr" horiz-adv-x="193" 
d="M143 680q38 0 55 -37t5 -107q-8 -46 -25.5 -86.5t-37 -66t-37.5 -44.5t-30 -27l-12 -8l-13 44q39 27 68 74q-12 -2 -18 -2q-35 0 -52 35t-6 95q10 61 38 95.5t65 34.5zM149 550q15 82 -12 82q-25 0 -40 -82t11 -82t41 82z" />
    <glyph glyph-name="zero.dnom" horiz-adv-x="239" 
d="M161 363q42 0 56 -48.5t-1 -134.5q-16 -87 -47 -135t-72 -48t-55 48.5t1 134.5q15 87 46 135t72 48zM159 180q23 135 -6 135q-30 0 -53 -135q-25 -135 5 -135q29 0 54 135z" />
    <glyph glyph-name="one.dnom" horiz-adv-x="121" 
d="M63 343l93 23l-64 -366h-57l53 302l-33 -8z" />
    <glyph glyph-name="two.dnom" horiz-adv-x="200" 
d="M154 363q35 0 56 -26t13 -69q-13 -79 -122 -220h75l-9 -48h-115l-17 32q13 15 32 39.5t55 87t44 109.5q3 18 -2.5 32t-18.5 14q-10 0 -20.5 -6.5t-16.5 -13.5l-5 -6l-12 42q20 33 63 33z" />
    <glyph glyph-name="three.dnom" horiz-adv-x="212" 
d="M225 269q-4 -25 -16 -45t-23 -28l-10 -8q4 -3 9.5 -9.5t12.5 -29t3 -48.5q-8 -47 -35 -75.5t-63 -28.5q-20 0 -37 8t-24 16l-7 8l25 39q13 -23 37 -23q17 0 30 16t17 44q5 21 0.5 40t-18.5 19h-31l8 49h32q23 0 33 51q4 23 -2 37t-20 14q-11 0 -21 -6t-15 -12l-4 -6
l-12 39q22 33 64 33q34 0 54 -27t13 -67z" />
    <glyph glyph-name="four.dnom" horiz-adv-x="213" 
d="M228 360l-34 -197h32l-8 -48h-33l-20 -115h-54l20 115h-96l6 35l142 210h45zM143 163l17 99l-66 -99h49z" />
    <glyph glyph-name="five.dnom" horiz-adv-x="218" 
d="M224 311h-62l-17 -76q36 -2 51 -33q15 -32 6 -86q-10 -57 -37 -88t-63 -31q-20 0 -37 7.5t-23 14.5l-7 7l26 40q14 -21 37 -21q34 0 47 71q13 70 -19 70q-6 0 -12.5 -4t-10.5 -8l-4 -4l-20 27l37 163h117z" />
    <glyph glyph-name="six.dnom" horiz-adv-x="192" 
d="M147 257q30 0 49 -29t6 -101q-23 -130 -99 -130q-39 0 -57.5 36.5t-5.5 107.5q12 69 49 127.5t67 82.5l31 24l14 -46q-37 -30 -67 -74q8 2 13 2zM146 127q6 34 3 58t-15 24t-23.5 -23.5t-17.5 -58.5q-6 -34 -3 -58t15 -24t23.5 23.5t17.5 58.5z" />
    <glyph glyph-name="seven.dnom" horiz-adv-x="193" 
d="M74 360h154l-8 -43q-4 -4 -10 -11t-24 -35t-34 -61t-34 -89.5t-29 -120.5h-54q16 91 48 168.5t55 109.5l24 31h-97z" />
    <glyph glyph-name="eight.dnom" horiz-adv-x="219" 
d="M231 265q-9 -48 -38 -74q25 -29 15 -86q-9 -50 -35.5 -79t-64.5 -29t-58 29.5t-12 78.5q10 55 45 86q-19 26 -11 74q8 45 34.5 71.5t59.5 26.5t53 -27t12 -71zM151 105q5 25 0.5 42.5t-17.5 17.5t-23.5 -17t-15.5 -43q-5 -25 0 -42.5t18 -17.5q12 0 22.5 17t15.5 43z
M174 263q4 22 0 37t-14 15t-18.5 -14.5t-12.5 -37.5q-4 -21 -0.5 -35t13.5 -14t19 14t13 35z" />
    <glyph glyph-name="nine.dnom" horiz-adv-x="193" 
d="M143 363q38 0 55 -37t5 -107q-8 -46 -25.5 -86.5t-37 -66t-37.5 -44.5t-30 -27l-12 -8l-13 45q39 26 68 74q-9 -3 -18 -3q-35 0 -52 35t-6 95q10 61 38 95.5t65 34.5zM149 233q15 82 -12 82q-25 0 -40 -82t11 -82t41 82z" />
    </font>
</defs>
</svg>
