<svg width="100px" xmlns="http://www.w3.org/2000/svg" viewBox="0 0 170 170"><title>Avatar</title><path d="M85,1.38A83.62,83.62,0,1,1,1.38,85,83.62,83.62,0,0,1,85,1.38M85,0A85,85,0,0,0,24.9,145.1,85,85,0,1,0,118.09,6.68,84.55,84.55,0,0,0,85,0Z"/><path d="M85,22.41A62.59,62.59,0,1,1,22.41,85,62.59,62.59,0,0,1,85,22.41M85,21a64,64,0,1,0,45.29,18.76A63.62,63.62,0,0,0,85,21Z"/><path d="M11.53,82l0,.23-.09.26-.19.18-.25.13-.3,0-.32-.06-.27-.12-.27-.21-.18-.31-.08-.29,0-.33,0-.19L9.84,81l.17-.09.39,0,.26,0L11,81l.24.22s.19.23.19.24l.15.35V82Z"/><path d="M14.56,70.15c.09,0,.19,0,.26,0,.53.23,1.08.43,1.61.64l.91.34a2.65,2.65,0,0,1,.84.52.68.68,0,0,1,.25.57.6.6,0,0,1-.07.2c-.12.29-.36.37-.79.31,0,0,0,0,0,0s-.07,0-.15-.07-.3-.12-.46-.17c-.32-.13-.32-.1-.63-.22-.47-.18-.94-.32-1.4-.5s-.91-.42-1.39-.6l-1.39-.52c-.47-.18-1-.29-1.43-.47S10,70,9.74,69.81a.88.88,0,0,1-.41-.93.72.72,0,0,1,.73-.67c.62-.06,1.25-.11,1.87-.14l.93,0,.38,0c.49,0,1-.06,1.49-.12.16,0,.23-.08.26-.17a.35.35,0,0,0-.05-.33,3.21,3.21,0,0,0-.46-.29c-.69-.61-.68-.63-1.37-1.23-.37-.32-.71-.68-1.09-1s-.78-.6-1.16-.91a7.58,7.58,0,0,1-.63-.58,1,1,0,0,1-.27-.78.81.81,0,0,1,.25-.56.79.79,0,0,1,.57-.1,5.77,5.77,0,0,1,.66.17c.44.18.87.38,1.32.54s.89.33,1.33.5.86.38,1.32.54l1.31.53c.46.16.91.27,1.35.44a3.44,3.44,0,0,1,.58.35.76.76,0,0,1,.41.57.69.69,0,0,1-.12.57.64.64,0,0,1-.51.17,4,4,0,0,1-.82-.29l-1.06-.37c-.38-.16-.76-.27-1.15-.42,0,0-.09,0-.14,0-.26-.11-.41-.2-.51,0s0,.26.25.48c0,0,0,.08,0,.11.52.45,1.08.89,1.58,1.31.05,0,.07,0,.11.06a2.83,2.83,0,0,1,.64.69,1.11,1.11,0,0,1,.11,1,1,1,0,0,1-.84.48c-.3,0-.62.09-.93.11s-.49,0-.74,0c-.08,0-.17,0-.26,0-.35,0-.58,0-.62.29S14.24,70.06,14.56,70.15Z"/><path d="M20.48,62.47a.42.42,0,0,1-.48,0,5.31,5.31,0,0,1-.7-.5c-.37-.36-.72-.71-1.1-1s-.76-.66-1.13-1-.7-.73-1.07-1.08-.76-.65-1.14-1-.71-.71-1.08-1.05c-.22-.22-.41-.46-.63-.72a.91.91,0,0,1-.25-.64,1.06,1.06,0,0,1,.3-.86.86.86,0,0,1,.73-.14c.11,0,.24,0,.35,0l.48.07c.6.13,1.19.22,1.79.35.35.07.7.19,1.05.26s.74.12,1.09.19.89.16,1.35.24l.69.13s0,.06,0,.06v-.07c.07,0,.13.07.21.1a3.41,3.41,0,0,1,.68.2.73.73,0,0,1,.43.84s0,0,0,.05a.63.63,0,0,1-.73.43,3.82,3.82,0,0,1-.59-.09l-.52-.07c-.61-.08-.82,0-1,.65a1.29,1.29,0,0,1,0,.19s0,.12,0,.18a2.33,2.33,0,0,0-.15,1.21,1.66,1.66,0,0,0,.7,1,5.71,5.71,0,0,1,.68.71c.06.05.17.07.23.12a1.06,1.06,0,0,1,.25.87A.51.51,0,0,1,20.48,62.47ZM16.85,56.4l-.08,0a.71.71,0,0,1-.21,0,5.65,5.65,0,0,0-.58,0,.27.27,0,0,0-.25.1s0,0,0,.06,0,.12.09.19a5,5,0,0,0,1.3,1.25.29.29,0,0,0,.22,0c.09,0,.19-.06.23-.14a1,1,0,0,0,.05-.94.79.79,0,0,0-.63-.43Z"/><path d="M25.55,50.7a1.43,1.43,0,0,1-.23.38,1.31,1.31,0,0,1-.91.35c-.21,0-.41.09-.61.11l-1,.12c-.06,0-.13,0-.19,0-.3,0-.45.09-.52.31s0,.33.23.5l.19.1.73.58c.12.09.23.21.35.31a1,1,0,0,1,.43.53.59.59,0,0,1-.17.67.55.55,0,0,1-.61.14,3.16,3.16,0,0,1-.66-.37l-1.16-.8c-.37-.28-.75-.57-1.14-.84l-1.14-.83c-.38-.27-.72-.61-1.1-.88-.55-.4-.6-.36-1.16-.75-.11-.08-.17-.19-.27-.27s-.2-.1-.26-.17a.78.78,0,0,1,0-1c.25-.32.64-.21,1,0h0c.08.06.09,0,.18.11l.57.4a7.1,7.1,0,0,0,.6.43c.08.05.17,0,.24-.06a.17.17,0,0,0,0-.21c-.14-.34-.25-.7-.38-1s-.28-.71-.41-1.06c-.08-.19-.11-.38-.19-.56s-.25-.41-.34-.64a1.44,1.44,0,0,1,.13-1.26.36.36,0,0,1,.32-.18.38.38,0,0,1,.33.11,4.78,4.78,0,0,1,.32.7c.21.53.45,1.06.67,1.59s.41,1.09.63,1.61c.29.72.47,1.11.74,1.28s.69.08,1.46,0c.28,0,.55,0,.82-.09l.57-.06c.4,0,.77-.07,1.13-.1a.66.66,0,0,1,.77.9Z"/><path d="M27.89,47.3a.63.63,0,0,1-.73,0v0c-.15-.13-.3-.23-.46-.35-.32-.28-.66-.53-1-.82s-.7-.69-1.07-1-.76-.62-1.14-.95-.71-.68-1.07-1l-1.12-1a3.08,3.08,0,0,1-.45-.49.78.78,0,0,1,0-.89.51.51,0,0,1,.69-.2,2.63,2.63,0,0,1,.39.28c.37.32.75.61,1.11.92s.68.68,1.05,1,.75.61,1.1.91.71.66,1.08,1,.75.57,1.12.88a4.34,4.34,0,0,1,.48.48,1.72,1.72,0,0,1,.25.43.73.73,0,0,1,0,.63A.58.58,0,0,1,27.89,47.3Z"/><path d="M27.49,32.19a.73.73,0,0,1,.75.05s0,0,0,0,.09,0,.14.09.24.22.36.35l.95,1c.31.36.61.71.93,1s.67.67,1,1,.57.75.89,1.09.67.65,1,1c0,0,0,.06,0,.08a2.78,2.78,0,0,1,.26.32.81.81,0,0,1,0,1s0,0,0,0a.78.78,0,0,1-.9.33,4.56,4.56,0,0,1-.82-.18L31,39.1c-.65-.21-1.33-.37-2-.57a1.79,1.79,0,0,1-.24-.12c-.36-.13-.58-.2-.73,0h0c-.13.19.09.36.34.61.07.06.09.16.14.23.24.27.5.52.75.79l.73.83c.28.3.59.59.88.89a6.38,6.38,0,0,1,.46.6.8.8,0,0,1,.09.9.74.74,0,0,1-.4.3.63.63,0,0,1-.42-.06,3,3,0,0,1-.49-.47c-.32-.35-.66-.7-1-1.05s-.68-.69-1-1-.62-.75-.94-1.09-.64-.71-1-1-.67-.7-1-1.05a2.5,2.5,0,0,1-.44-.63A.77.77,0,0,1,25.52,36a3.41,3.41,0,0,1,.72.15c.06,0,.07,0,.12,0,.5.15,1,.34,1.48.49s.74.2,1.09.32.72.22,1.09.33l.14,0c.26.1.42.11.51-.06s0-.28-.17-.46a.83.83,0,0,1-.12-.08c-.28-.31-.57-.6-.87-.91l-.83-.94c-.32-.34-.65-.67-1-1-.13-.15-.23-.37-.37-.56a.72.72,0,0,1-.18-.56A.61.61,0,0,1,27.49,32.19Z"/><path d="M35.71,33.5a1.93,1.93,0,0,0,.28.36,1.38,1.38,0,0,0,1,.41,1.46,1.46,0,0,0,1-.5,2.26,2.26,0,0,0,.52-1.22,2.47,2.47,0,0,0-.19-1.31.35.35,0,0,0-.2-.2.34.34,0,0,0-.31.07,2.37,2.37,0,0,0-.34.29l-.29.26a.53.53,0,0,1-.71,0,.57.57,0,0,1-.19-.68,2.41,2.41,0,0,1,.5-.8,3.24,3.24,0,0,0,.19-.37h0s0,0,0,0,.15-.2.23-.28.37-.34.54-.51a.57.57,0,0,1,.85,0c.09.09.24.13.32.24a4.89,4.89,0,0,1,.74,1.48,4.32,4.32,0,0,1,.13,1.64,5.63,5.63,0,0,1-.33,1.62c0,.07-.12.08-.16.14a5.64,5.64,0,0,1-.43.65,2.61,2.61,0,0,1-1.75,1.05,2.26,2.26,0,0,1-1.31-.34,4,4,0,0,1-1-.89c-.36-.46-.69-1-1-1.45s-.69-1-1-1.47a4.69,4.69,0,0,1-.49-1.32,4.18,4.18,0,0,1-.1-1.4,4.26,4.26,0,0,1,.43-1.35,3.72,3.72,0,0,1,.81-1.14A2.41,2.41,0,0,1,35,25.8a2.38,2.38,0,0,1,1.6.62,1.77,1.77,0,0,1,.41.41.66.66,0,0,1-.07.82.64.64,0,0,1-.73.19,2.13,2.13,0,0,1-.25-.16,1.41,1.41,0,0,0-.24-.13,1.59,1.59,0,0,0-1.12,0,1.48,1.48,0,0,0-.78.78,3.15,3.15,0,0,0-.33,1.35A2.43,2.43,0,0,0,33.92,31c.19.31.38.63.59.94s.5.59.72.89Z"/><path d="M48.66,16.64c.43,0,.72.23.75.58a.82.82,0,0,1-.61.89,1.53,1.53,0,0,1-.37,0l-.29,0a2,2,0,0,0-1.09.82,1.91,1.91,0,0,0-.29,1.3,1,1,0,0,0,1.41.87c.15-.05.28-.14.43-.2a.89.89,0,0,1,.24-.09A2.39,2.39,0,0,1,50,20.58a1.69,1.69,0,0,1,1.11.47,3.52,3.52,0,0,1,.7,1A2.71,2.71,0,0,1,52,23a3.68,3.68,0,0,1-.13,1.22,5.54,5.54,0,0,1-.55,1.12,4,4,0,0,1-.81.92,2.34,2.34,0,0,1-.68.39,2.12,2.12,0,0,1-1.64,0,.86.86,0,0,1-.44-.53.73.73,0,0,1,0-.58.76.76,0,0,1,.64-.37,1.3,1.3,0,0,1,.39,0,1.44,1.44,0,0,0,1.32-.44,2,2,0,0,0,.55-1.73,1,1,0,0,0-.46-.73,1,1,0,0,0-.84-.05,2.93,2.93,0,0,0-.44.21c-.09,0-.21.08-.32.14a2.22,2.22,0,0,1-1.87,0,2.28,2.28,0,0,1-1.19-1.5,3.47,3.47,0,0,1-.09-1.5,4.63,4.63,0,0,1,1.52-2.55l0,0A2.38,2.38,0,0,1,48.66,16.64Z"/><path d="M56.15,13a.77.77,0,0,1,.11.89,1.55,1.55,0,0,1-.29.28c-.14.12-.29.21-.46.33A1.21,1.21,0,0,0,55,16.06c.12.38.23.79.34,1.18s.22.78.34,1.16.13.55.21.82.25.73.37,1.1.16.77.27,1.15c.06.22.11.2.17.42a1.52,1.52,0,0,1,.06.79.71.71,0,0,1-.28.49c-.09.06-.19,0-.3.06a.55.55,0,0,1-.61-.37,5.4,5.4,0,0,1-.24-.71c-.13-.43-.28-.86-.41-1.28s-.31-.85-.43-1.28-.19-.87-.32-1.31c-.2-.64-.24-.63-.43-1.29,0,0,0-.08,0-.11-.14-.42-.25-.72-.41-.78s-.44.07-.87.27-.74.28-1-.13a.73.73,0,0,1,.28-1.07c.43-.29.86-.61,1.3-.88l.5-.29s0,0,.08,0,.2-.1.39-.22.64-.42,1-.62a3.41,3.41,0,0,1,.41-.22A.58.58,0,0,1,56.15,13Z"/><path d="M65.08,9.63a.55.55,0,0,1,.3.3,2.63,2.63,0,0,1,.13.57c0,.28.09.26.13.54.09.49.19,1,.28,1.47s.14,1,.24,1.49.2,1,.28,1.48a4.8,4.8,0,0,1,0,1.56,4.6,4.6,0,0,1-.5,1.49,5.27,5.27,0,0,1-.79,1,4.3,4.3,0,0,1-1,.72h0a3.11,3.11,0,0,1-1.3.34,1.93,1.93,0,0,1-1.27-.42,2.73,2.73,0,0,1-.84-1.05,4.23,4.23,0,0,1-.38-1c-.12-.67-.26-1.36-.38-2-.07-.4-.13-.79-.2-1.19s-.09-.8-.17-1.2-.14-.66-.16-1a.87.87,0,0,1,.18-.58.57.57,0,0,1,.53-.32.52.52,0,0,1,.45.33,4.19,4.19,0,0,1,.2.65l.32,1.68c.06.37.07.77.14,1.15s.18.75.25,1.13c0,.06,0,.06,0,.11A6.14,6.14,0,0,0,61.79,18a1.49,1.49,0,0,0,1,1,1.51,1.51,0,0,0,1.33-.31,2.5,2.5,0,0,0,.8-1,3.14,3.14,0,0,0,.21-1.32,13.47,13.47,0,0,0-.2-1.42c0-.16,0-.17,0-.33-.1-.59-.21-1.16-.32-1.73s-.26-1.06-.35-1.59a4.85,4.85,0,0,1,0-.85.68.68,0,0,1,.38-.71A.73.73,0,0,1,65.08,9.63Z"/><path d="M70.07,17.78c0-.14-.06-.3-.07-.46,0-.48,0-.95,0-1.42s-.1-1-.12-1.42l-.08-1.42c0-.48,0-1,0-1.43s-.12-1-.15-1.42c0-.09.06-.18.06-.28s0-.12,0-.19a.94.94,0,0,1,.7-1c.4-.14.77-.3,1.16-.43s.32-.07.62-.16c.13-.05.28-.07.41-.11l1.2-.39c.43-.12.66,0,.74.26a.71.71,0,0,1-.27.86,3.44,3.44,0,0,1-.69.3c-.56.2-1.13.39-1.6.54v.05a1,1,0,0,0-.8,1.08c0,.12.09.23.09.34a9.32,9.32,0,0,0,.1,1.05c0,.19.05.36.15.42a.6.6,0,0,0,.5,0c.21-.05.38-.15.58-.21s.39-.09.59-.14c.7-.17.93.13,1,.34a.85.85,0,0,1-.54,1.05c-.27.12-.54.2-.8.29s-.38.05-.56.11c-.75.29-.87.47-.86,1.27,0,.35.08.71.09,1.06s0,.54,0,.81a1.19,1.19,0,0,1-.27.93.79.79,0,0,1-.35.24.7.7,0,0,1-.32,0A.61.61,0,0,1,70.07,17.78Z"/><path d="M77.58,16.56a3.62,3.62,0,0,1,0-.47c0-.48.11-.94.14-1.41s0-1,0-1.43l.08-1.42c0-.47.11-.94.14-1.42s0-1,0-1.42c0-.1.08-.18.09-.28s0-.13,0-.19a.93.93,0,0,1,.8-.91c.41-.1.79-.22,1.2-.3s.33,0,.63-.09c.14,0,.29,0,.43-.06.4-.09.82-.19,1.23-.26s.65.12.71.34a.72.72,0,0,1-.36.82,3.61,3.61,0,0,1-.73.23l-1.65.36v0a1,1,0,0,0-.91,1c0,.12.07.24.06.35a9.2,9.2,0,0,0,0,1.05c0,.2,0,.37.11.44a.59.59,0,0,0,.49.09c.21,0,.39-.11.59-.15s.4-.05.61-.08c.71-.09.91.24,1,.46a.87.87,0,0,1-.66,1c-.28.08-.56.14-.82.2s-.39,0-.58.05c-.78.2-.92.36-1,1.16,0,.35,0,.72,0,1.07s-.08.53-.1.8a1.19,1.19,0,0,1-.37.9.9.9,0,0,1-.37.2.7.7,0,0,1-.32,0A.57.57,0,0,1,77.58,16.56Z"/><path d="M100.48,8.61a.53.53,0,0,1,.14.4,2.06,2.06,0,0,1-.14.57c-.07.27,0,.27-.11.54-.14.48-.26,1-.4,1.44s-.31.95-.45,1.44-.25,1-.4,1.45a4.73,4.73,0,0,1-.68,1.41A4.87,4.87,0,0,1,97.33,17a5,5,0,0,1-1.15.55,3.88,3.88,0,0,1-1.25.19v0a3.22,3.22,0,0,1-1.32-.27,2,2,0,0,1-1-.94,2.76,2.76,0,0,1-.29-1.31,4.16,4.16,0,0,1,.1-1.05c.19-.66.37-1.34.56-2,.11-.39.23-.76.34-1.15s.27-.76.38-1.15.17-.66.3-1a1,1,0,0,1,.43-.44.57.57,0,0,1,.61-.05.51.51,0,0,1,.26.49,5,5,0,0,1-.11.68l-.46,1.64c-.1.36-.27.72-.38,1.1s-.16.75-.27,1.12a.36.36,0,0,0,0,.11,6.35,6.35,0,0,0-.24,1.15,1.39,1.39,0,0,0,1.75,1.61,2.43,2.43,0,0,0,1.18-.58,3.06,3.06,0,0,0,.77-1.09A13.53,13.53,0,0,0,98,13.24c0-.15.1-.14.15-.29.16-.57.31-1.14.46-1.7s.24-1.06.39-1.58a4.93,4.93,0,0,1,.36-.77.72.72,0,0,1,.66-.47A.68.68,0,0,1,100.48,8.61Z"/><path d="M109,11.46a2.56,2.56,0,0,1,.4,1.66,3.08,3.08,0,0,1-.47,1.46,5.89,5.89,0,0,1-1.05,1.28,4.15,4.15,0,0,1-1.44.81,4.23,4.23,0,0,1-1.64.15,1.85,1.85,0,0,0-1.16.17c-.26.16-.4.47-.6,1a2.71,2.71,0,0,1-.43.76.88.88,0,0,1-.75.33s0-.05,0-.05a.5.5,0,0,1-.45-.47,1.27,1.27,0,0,1,.16-.7s0,0,0-.07c.2-.42.4-.84.58-1.28l.54-1.29c.19-.43.37-.86.55-1.29s.34-.87.53-1.31.41-.83.59-1.26c0-.09,0-.11,0-.2s.09-.08.11-.13a.53.53,0,0,0,.06-.1,1.06,1.06,0,0,1,1.21-.72s0,0,0,0c.46.06.47,0,.93.08l.22,0a4.58,4.58,0,0,1,.71.12A2.45,2.45,0,0,1,109,11.46Zm-1.55.71a1.51,1.51,0,0,0-.81-.44,1.34,1.34,0,0,0-.55.08.57.57,0,0,0-.46.27A10.16,10.16,0,0,0,105,13.4c-.21.47-.36.95-.53,1.4a.52.52,0,0,0,0,.43c.08.13.24.16.46.22a2.42,2.42,0,0,0,1.81-.4,2.47,2.47,0,0,0,1.17-1.55A1.41,1.41,0,0,0,107.45,12.17Z"/><path d="M124.11,18.19c.2.39.18.73-.11.94a.81.81,0,0,1-1.07-.05c-.1-.08-.13-.21-.2-.31l-.18-.23a1.92,1.92,0,0,0-1.27-.5,1.8,1.8,0,0,0-1.25.43,1.08,1.08,0,0,0-.45.83,1,1,0,0,0,.44.83c.13.1.27.17.4.26a1.08,1.08,0,0,1,.2.16,2.31,2.31,0,0,1,.84.87,1.67,1.67,0,0,1,.19,1.19,3.54,3.54,0,0,1-.51,1.12,2.4,2.4,0,0,1-.74.64,3.36,3.36,0,0,1-1.11.53,4.59,4.59,0,0,1-1.23.12,3.72,3.72,0,0,1-1.22-.2,2.44,2.44,0,0,1-.69-.38,2.13,2.13,0,0,1-.88-1.38.86.86,0,0,1,.23-.65.71.71,0,0,1,.48-.32.73.73,0,0,1,.64.35,1.12,1.12,0,0,1,.23.32,1.45,1.45,0,0,0,1.07.9,2,2,0,0,0,1.75-.44,1,1,0,0,0,.39-.78,1,1,0,0,0-.4-.74,2.39,2.39,0,0,0-.41-.26l-.28-.21a2.25,2.25,0,0,1-1-1.57,2.33,2.33,0,0,1,.66-1.81,3.7,3.7,0,0,1,1.23-.86,4.72,4.72,0,0,1,3,0V17A2.36,2.36,0,0,1,124.11,18.19Z"/><path d="M122.54,27.79a.64.64,0,0,1,0-.74l0,0c.13-.15.23-.3.35-.46.28-.33.53-.67.82-1s.69-.71,1-1.08.61-.77.94-1.14.68-.71,1-1.08l1-1.12a2.78,2.78,0,0,1,.5-.45.78.78,0,0,1,.88,0,.5.5,0,0,1,.2.69,1.87,1.87,0,0,1-.28.4c-.32.37-.6.75-.91,1.12s-.68.68-1,1-.61.74-.91,1.1l-1,1.07c-.31.36-.57.77-.88,1.13a4.34,4.34,0,0,1-.48.48,2.08,2.08,0,0,1-.42.26.77.77,0,0,1-.63,0A.58.58,0,0,1,122.54,27.79Z"/><path d="M137.65,27.34a.77.77,0,0,1-.05.76l0,0c-.05.06,0,.09-.09.14s-.22.24-.35.37c-.35.31-.69.63-1,.95s-.71.61-1.05.94-.66.67-1,1-.74.58-1.08.9-.65.67-1,1c0,0-.05,0-.08,0a3.88,3.88,0,0,1-.31.26.83.83,0,0,1-1,0l0,0a.78.78,0,0,1-.34-.9,4.84,4.84,0,0,1,.18-.83c.11-.38.24-.76.36-1.15.21-.65.38-1.32.57-2a1.79,1.79,0,0,1,.12-.24c.13-.36.19-.58,0-.72v0c-.2-.13-.36.09-.61.35-.06.07-.16.08-.23.13-.27.24-.52.5-.79.76l-.83.73c-.3.28-.58.59-.89.88a6.75,6.75,0,0,1-.59.47.82.82,0,0,1-.9.08.79.79,0,0,1-.31-.39.58.58,0,0,1,.07-.42,2.34,2.34,0,0,1,.46-.49c.36-.33.7-.66,1-1s.69-.69,1-1,.74-.62,1.08-1L131,26c.36-.33.7-.67,1-1a2.86,2.86,0,0,1,.63-.45.92.92,0,0,1,.88,0,.91.91,0,0,1,.31.8,3.66,3.66,0,0,1-.14.72c0,.05,0,.06,0,.11-.15.51-.34,1-.49,1.49s-.2.73-.32,1.09-.22.72-.32,1.08l0,.15c-.1.25-.11.42.06.51s.28,0,.46-.17a.24.24,0,0,1,.07-.12c.32-.28.61-.58.91-.87l.94-.84,1-1a5.44,5.44,0,0,1,.56-.37.75.75,0,0,1,.56-.19A.63.63,0,0,1,137.65,27.34Z"/><path d="M143.75,33.92a2.12,2.12,0,0,1,.25,1.2,2.18,2.18,0,0,1-.39,1.17,1.45,1.45,0,0,1-.6.54.68.68,0,0,1-.71-.08.61.61,0,0,1-.24-.67,3.18,3.18,0,0,1,.09-.33l.06-.13a1.6,1.6,0,0,0,.08-1.22,1.57,1.57,0,0,0-.88-.87,2.94,2.94,0,0,0-1.21-.24,2.44,2.44,0,0,0-1.16.34c-.37.2-.72.45-1,.67s-.71.45-1,.69-.64.54-.94.81a1.34,1.34,0,0,0-.48,1.08,1.51,1.51,0,0,0,.71,1.1,2.5,2.5,0,0,0,1.88.33,3.35,3.35,0,0,0,.37-.09l.36-.09a2.28,2.28,0,0,1,.59-.05.63.63,0,0,1,.58.56.56.56,0,0,1-.36.62,3.6,3.6,0,0,1-1.38.41,5.24,5.24,0,0,1-1.65-.15,4.66,4.66,0,0,1-1.52-.65c-.07,0-.12-.12-.18-.17a2.53,2.53,0,0,1-1-1.61,2.46,2.46,0,0,1,.17-1.06,2.93,2.93,0,0,1,.56-.94,6.14,6.14,0,0,1,1-.88,4.08,4.08,0,0,0,.44-.28c.61-.45,1.18-.89,1.75-1.24a5.11,5.11,0,0,1,1.24-.52A4.62,4.62,0,0,1,140.5,32a4.1,4.1,0,0,1,1.3.29,3.83,3.83,0,0,1,1.16.66l0,0A3.11,3.11,0,0,1,143.75,33.92Z"/><path d="M139.36,44c-.27-.3-.36-.52-.32-.72s.21-.32.54-.51c.57-.33,1.12-.71,1.69-1,.75-.41.77-.36,1.51-.75l1.6-.85c.54-.29,1.05-.62,1.59-.9a1.8,1.8,0,0,1,1.21-.35,2.14,2.14,0,0,1,1,.74l.75.83c.26.27.48.58.73.87a7.14,7.14,0,0,1,.55.52.55.55,0,0,1,0,.73.7.7,0,0,1-.68.27c-.29-.06-.44-.3-.63-.5s-.38-.36-.55-.55-.27-.32-.42-.46-.42-.32-.58-.47a.8.8,0,0,0-.92-.17,14.59,14.59,0,0,0-1.47.8c-.15.1-.23.17-.26.27a.6.6,0,0,0,.14.43c.12.14.29.25.41.39s.18.17.25.26l.07.08c.14.17.27.35.4.53a.6.6,0,0,1-.1.72.72.72,0,0,1-.74.31,1.7,1.7,0,0,1-.65-.48c-.29-.29-.55-.6-.85-.89,0,0,0,0,0-.07a1,1,0,0,0-1.35-.16l-.07,0h0c-.51.25-.74.45-.77.64s.14.43.53.86l.32.36c.14.15.28.32.44.48a3.37,3.37,0,0,1,.37.56.6.6,0,0,1-.12.71.69.69,0,0,1-.69.23,1.4,1.4,0,0,1-.62-.39s0-.12-.08-.16c-.56-.59-.58-.56-1.13-1.14-.09-.09-.15-.21-.24-.31s-.21-.24-.32-.35S139.49,44.12,139.36,44Z"/><path d="M147.64,56.27V56l.2-.29.29-.13.18-.1.2-.08.33-.15a1.49,1.49,0,0,1,.25-.07l.56-.27.2-.06.2-.1.2-.07.36-.15.18-.09.79-.33.2-.08.21-.08.2-.08.19-.07.36-.17.22-.08.16-.09.24-.06.16-.1.21-.07.21-.11-.37-.24-.78-.28-.18-.17-.1-.21.05-.34.1-.23.35-.2a.33.33,0,0,1,.21,0l.21.07.22.07.26.12.2.05.22.08.22.12.34.14.25.11.2.05.21.11.28.12.22.15.24.24.09.16.07.2v.19l-.1.16-.33.22-.22.1-.22.07-.19.09-.4.17-.2.07-.36.18-.24.09-.59.24-.22.08-.52.24-.27.09-.34.16-1,.42-.2.07-.17.09-.43.15-.19.09-.21.08-1,.41-.16.08-.33.09h-.29l-.22-.09-.17-.11-.21-.28Z"/><path d="M149,60.31a.21.21,0,0,1,0-.23l.11-.13a.23.23,0,0,1,.26-.1l.41,0,.73.16.2,0,.21,0,.28.09.4,0,.68.17s.19,0,.2,0l.33.1-.11-.33a1,1,0,0,0-.09-.23l-.09-.17-.1-.21,0-.25-.06-.22v-.38l.11-.61a2,2,0,0,0,.1-.21l.13-.22.38-.46.16-.16.36-.24.52-.19.18-.08.27-.06.44,0h.3l.22,0,.36,0,.33.08.69.28.44.26.21.2.21.18.27.29.14.22.16.18.08.21.1.19.08.18.1.2,0,.23,0,.39,0,.17s0,.51,0,.51l0,.23s-.1.14-.1.14l-.06.17-.08.19-.13.17-.31.3-.35.26-.21.12-.22.09-.63.2-.25.05h-.23l-.22,0h-.22l-.29,0-.27,0h-.25l-.48-.07L154,62l-.43-.05-.25-.08a1.29,1.29,0,0,0-.28,0l-.59-.1-.49-.13-.26,0-.22-.06-.21,0-.23-.07a1.12,1.12,0,0,0-.22,0l-.4,0-.3-.08-.21,0-.25-.11-.4-.33,0,0Zm8-1.63-.18-.3-.35-.33-.22-.09-.19-.1-.33-.08h-.57l-.38.09-.31.17-.27.21-.1.17-.11.13-.08.28v.39l0,.3.11.19.42.63.33.22.24.12.44.14h.2l.53,0,.52-.22.23-.2.28-.42.05-.29,0-.34-.1-.32s-.06-.14-.07-.15Z"/><path d="M150.93,65.93l-.06-.24a1,1,0,0,1,0-.17l.11-.15a.24.24,0,0,1,.24-.09h.49l.44.09.22.06.36,0,.51.11.4.06.26.06.27,0,.2,0,.23,0,.21.06.62.08.28.07.67.13.21,0a.88.88,0,0,1,.23.07h.24l.22,0,.24,0,1.11.22h.2l.23.05h.26v-.29l0-.21-.17-.31a2.18,2.18,0,0,0-.07-.27l-.12-.19,0-.19-.1-.18-.13-.42-.15-.36-.11-.18-.08-.26-.08-.38a.25.25,0,0,1,0-.19l.19-.19.31-.14.28,0,.36.09.18.15.11.2.07.18.1.17.11.19,0,.25.15.3.15.43.24.53.31.76.07.19.1.16,0,.23.23.52.08.23,0,.26-.12.23-.5.22-.28,0-.49,0-.21,0a2.76,2.76,0,0,1-.27-.08l-.61-.07-.25-.08-.22,0-.23,0a1.85,1.85,0,0,1-.24,0l-.5-.1-.36,0-.22-.08s-.37,0-.37,0l-.26,0-.27-.06-.65-.1-.4-.09h-.2a2.86,2.86,0,0,0-.28-.07h-.24l-.2-.06-.22,0-.43-.09-.25,0-.21,0-.87-.13-.2-.06a1.57,1.57,0,0,1-.26-.1l-.26-.14-.25-.23-.06-.07Z"/><path d="M152.41,72.14l0-.25a1,1,0,0,1,.06-.16l.12-.13a.25.25,0,0,1,.25-.08l.23,0,.26,0,.43.13.21.08.35.09.5.15.39.09.26.09.26,0,.2.07.23,0a.68.68,0,0,0,.2.07l.61.15.27.09.66.19.2,0a.92.92,0,0,1,.23.09l.24,0,.21.08.23,0,1.09.32.2,0,.22.07.26,0,0-.29,0-.21-.14-.32s0-.25,0-.27l-.11-.2,0-.2-.08-.19-.09-.43-.12-.38L160,71l-.06-.27,0-.38a.28.28,0,0,1,0-.19l.21-.17.32-.11.29,0,.35.12.16.17.09.21.06.18.08.18.09.2,0,.26.12.31.11.44.19.56.24.78,0,.19.1.17v.23l.18.54.06.24-.05.26-.14.22-.51.17h-.29l-.48-.07L161,75.1a1.39,1.39,0,0,1-.26-.1l-.6-.13a1.86,1.86,0,0,1-.25-.1l-.2-.06-.23-.07a1.75,1.75,0,0,1-.24,0s-.49-.14-.49-.15l-.35-.07-.22-.1-.37-.05-.25-.07-.25-.09-.65-.16-.39-.12-.2,0-.27-.1-.24,0-.19-.08-.21,0-.42-.13-.25,0-.21-.08-.85-.2-.2-.08a1.83,1.83,0,0,1-.24-.13l-.25-.16-.23-.25-.05-.08Z"/><path d="M158.53,84.63l0-.22.08-.27.19-.18.25-.14.29,0,.32.06L160,84l.27.2.2.3.09.29,0,.33,0,.19-.22.29-.17.1-.39.06-.27,0-.29-.12-.24-.2s-.2-.23-.2-.24l-.16-.35v-.12Z"/><path d="M152.69,94.25a.42.42,0,0,1,.48-.07,4.91,4.91,0,0,1,.78.35l1.29.81c.43.28.88.5,1.32.76s.82.57,1.25.84.89.49,1.32.75.84.56,1.27.82a7.52,7.52,0,0,1,.76.57.88.88,0,0,1,.37.58,1.09,1.09,0,0,1-.11.91.88.88,0,0,1-.69.27c-.12,0-.23,0-.35.06l-.48,0c-.61,0-1.21,0-1.82,0-.37,0-.73,0-1.09,0s-.74,0-1.11,0-.9,0-1.36,0h-.71s0-.06,0-.06V101c-.06,0-.14,0-.22-.06a3.58,3.58,0,0,1-.71-.06.74.74,0,0,1-.59-.74s0,0,0-.06a.62.62,0,0,1,.63-.56c.2,0,.4,0,.6,0s.35,0,.52,0c.61,0,.8-.2.89-.85,0-.06,0-.13,0-.19a1,1,0,0,1,0-.18,2.25,2.25,0,0,0-.09-1.21,1.72,1.72,0,0,0-.88-.84,5.66,5.66,0,0,1-.82-.56c-.06,0-.18,0-.24-.07a1,1,0,0,1-.42-.81A.49.49,0,0,1,152.69,94.25Zm4.77,5.22h.09l.21,0,.57-.07a.26.26,0,0,0,.23-.15s0,0,0-.07-.06-.1-.13-.16a5.24,5.24,0,0,0-1.52-1,.28.28,0,0,0-.22,0c-.08,0-.18.1-.21.19a1,1,0,0,0,.14.92.81.81,0,0,0,.71.3Z"/><path d="M158,110.35a2.75,2.75,0,0,1-1.76.1,4,4,0,0,1-1.46-.68,4.76,4.76,0,0,1-1.05-1.23,6.19,6.19,0,0,1-.39-.65.91.91,0,0,0-1.14-.51c-.15,0-.15,0-.29,0s-.25.06-.36.09-.14,0-.2.05l-.34.08a.73.73,0,0,1-.85-.3.69.69,0,0,1-.11-.44,1,1,0,0,1,.4-.58,1.74,1.74,0,0,1,.71-.34,1.34,1.34,0,0,0,.3,0,5.94,5.94,0,0,0,.71-.14,2.3,2.3,0,0,0,.59-.18.7.7,0,0,0,.28-.51.66.66,0,0,0-.22-.51,3.58,3.58,0,0,0-.55-.38s0,0-.08,0l-.47-.26c-.14-.07-.31-.07-.46-.15a1,1,0,0,1-.46-.56.71.71,0,0,1,.08-.72.57.57,0,0,1,.64-.11,5.14,5.14,0,0,1,.55.15c.45.2.85.45,1.29.65s.91.33,1.34.53.87.43,1.31.63.89.36,1.32.56c1.18.5-.06,0,1.67.73a1,1,0,0,1,.61,1.18l-.4,2.23A2.49,2.49,0,0,1,158,110.35Zm-.73-1.51a1.53,1.53,0,0,0,.8-1.15s0-.12,0-.17a.77.77,0,0,0-.42-.83,13.67,13.67,0,0,0-1.26-.66c-.45-.2-.9-.34-1.35-.5-.19-.07-.35-.14-.47-.07s-.16.27-.2.51a2.74,2.74,0,0,0,.26,1.61,2.93,2.93,0,0,0,1.13,1.18A1.55,1.55,0,0,0,157.27,108.84Z"/><path d="M155.17,118.09a.76.76,0,0,1-.68-.58,1.37,1.37,0,0,1,0-.4c0-.18.07-.36.12-.56a1.22,1.22,0,0,0-.7-1.5c-.36-.19-.71-.43-1.06-.63l-1-.63-.71-.45c-.33-.2-.68-.36-1-.55s-.64-.46-1-.66-.22-.08-.42-.2a1.58,1.58,0,0,1-.58-.54.71.71,0,0,1-.13-.55.83.83,0,0,1,.18-.25.55.55,0,0,1,.7-.14,6.74,6.74,0,0,1,.66.36c.39.23.79.44,1.17.66s.8.41,1.19.64.73.52,1.12.75c.58.33.61.3,1.2.65,0,0,0,.06.09.07.38.21.67.36.83.29s.27-.35.45-.79.36-.71.83-.59a.73.73,0,0,1,.52,1c-.12.51-.22,1-.36,1.53-.06.19-.11.36-.16.55s0,0,0,.08c-.05.22-.09.21-.15.42-.1.38-.18.75-.28,1.12-.05.18-.1.31-.15.45A.58.58,0,0,1,155.17,118.09Z"/><path d="M147.29,124.09l.15-.18.22-.18.25-.06.28,0,.27.12.25.21.17.24.13.32v.36l-.07.29-.19.27-.13.14-.35.13h-.19l-.36-.15-.21-.18-.18-.25s-.1-.31-.1-.31,0-.29,0-.3l0-.38,0,0Z"/><path d="M137.75,141.81c-.3-.54-.61-1.1-.93-1.73-.21-.39-.41-.79-.61-1.19s-.38-.8-.58-1.2-.42-.78-.61-1.18-.41-.79-.62-1.18l-.57-1.14a1.8,1.8,0,0,1-.08-.21,1.07,1.07,0,0,1-.05-.78c0-.12,0-.25.07-.34a.81.81,0,0,1,.33-.25.68.68,0,0,1,.63.12,8.32,8.32,0,0,1,1,.56s0,.05,0,.06c.37.27.74.53,1.11.82s.45.35.69.54a2.27,2.27,0,0,0,.38.25c.14.09.24.11.33,0a.24.24,0,0,0,.08-.31c-.1-.26-.23-.51-.35-.76l-.82-1.66c-.25-.48-.47-1-.71-1.45a5.58,5.58,0,0,1-.3-.6,1,1,0,0,1,.2-.87h0a.57.57,0,0,1,.77-.2,7.24,7.24,0,0,1,.75.41c.31.23.66.44,1,.67s.62.49.93.73.4.22.77.49c.54.4,1,.86,1.55,1.29s.85.69,1.28,1a1.64,1.64,0,0,1,.43.4.68.68,0,0,1-.1.89.59.59,0,0,1-.78.15,8.77,8.77,0,0,1-.89-.54c-.33-.26-.64-.53-1-.8s-.71-.57-1.08-.85a4,4,0,0,0-.72-.38c-.08,0-.15-.06-.21,0s0,.13,0,.21a6.12,6.12,0,0,0,.29.76c.25.46.44,1,.67,1.4s.42.8.62,1.2a6.72,6.72,0,0,1,.36.87,1.08,1.08,0,0,1,0,1,.69.69,0,0,1-.88.3,4.14,4.14,0,0,1-.65-.44c-.37-.26-.76-.5-1.12-.77s-.56-.45-.85-.66a8,8,0,0,0-.75-.53c-.07,0-.19-.07-.25,0s0,.19,0,.26a7.6,7.6,0,0,0,.34.86c.2.39.44.76.65,1.16s.35.81.54,1.21c.31.6.33.59.63,1.19a1.43,1.43,0,0,1,.25.86c0,.37-.14.64-.4.72C138.08,142.35,137.82,141.94,137.75,141.81Z"/><path d="M130.84,147.19a2.62,2.62,0,0,1-1.51-.91,3.81,3.81,0,0,1-.82-1.38,5,5,0,0,1-.17-1.62,5.14,5.14,0,0,1,0-.75.91.91,0,0,0-.65-1.07c-.14-.06-.12-.1-.26-.15s-.24-.08-.34-.13l-.2-.06-.33-.13a.72.72,0,0,1-.52-.73.66.66,0,0,1,.15-.43,1,1,0,0,1,.67-.25,1.76,1.76,0,0,1,.77.13,1.69,1.69,0,0,0,.28.12,5.51,5.51,0,0,0,.66.29,1.84,1.84,0,0,0,.59.18.68.68,0,0,0,.52-.26.63.63,0,0,0,.1-.54,3.56,3.56,0,0,0-.23-.62s0,0-.06-.06-.16-.32-.24-.48-.22-.24-.3-.38a1,1,0,0,1-.06-.73.67.67,0,0,1,.48-.54.56.56,0,0,1,.58.27,3.42,3.42,0,0,1,.37.44c.25.41.45.85.7,1.26s.56.79.8,1.19.48.85.73,1.26.52.8.76,1.21c.69,1.08,0,0,1,1.55a1,1,0,0,1-.16,1.32l-1.6,1.61A2.46,2.46,0,0,1,130.84,147.19Zm.25-1.66a1.53,1.53,0,0,0,1.31-.49l.09-.14a.77.77,0,0,0,.13-.92c-.21-.43-.42-.85-.67-1.26s-.54-.79-.82-1.17c-.13-.18-.22-.32-.36-.33s-.28.13-.45.31a2.78,2.78,0,0,0-.7,1.47,2.89,2.89,0,0,0,.27,1.61A1.52,1.52,0,0,0,131.09,145.53Z"/><path d="M122.67,142.12a.65.65,0,0,1,.67.3l0,0c.09.18.19.33.29.51.19.38.4.74.59,1.13s.37.91.59,1.34.46.87.68,1.32.39.9.59,1.34l.65,1.33a2.34,2.34,0,0,1,.22.63.77.77,0,0,1-.33.82.5.5,0,0,1-.71-.08,2.54,2.54,0,0,1-.26-.42c-.21-.44-.44-.85-.66-1.28s-.36-.89-.58-1.32-.44-.85-.65-1.27-.4-.88-.61-1.32-.47-.82-.69-1.25c-.1-.22-.18-.43-.25-.63a1.69,1.69,0,0,1-.06-.49.73.73,0,0,1,.26-.57A.67.67,0,0,1,122.67,142.12Z"/><path d="M118.65,154.91a.79.79,0,0,1-.17-.89,1.83,1.83,0,0,1,.27-.3,5.67,5.67,0,0,1,.44-.36,1.22,1.22,0,0,0,.4-1.61c-.15-.37-.28-.78-.42-1.15s-.27-.76-.42-1.14l-.26-.8c-.14-.37-.3-.71-.45-1.07s-.21-.76-.34-1.13c-.08-.22-.13-.2-.2-.41a1.43,1.43,0,0,1-.11-.79.69.69,0,0,1,.24-.51,1.23,1.23,0,0,1,.29-.08.57.57,0,0,1,.64.33,4.76,4.76,0,0,1,.28.69c.16.43.35.84.5,1.26s.37.82.52,1.24.25.86.41,1.29c.24.62.28.61.51,1.26,0,0,0,.07,0,.1.17.41.29.7.46.76s.44-.1.85-.33.72-.33,1,0a.74.74,0,0,1-.21,1.1c-.4.32-.82.66-1.24,1l-.47.32s0,0-.08.05-.2.1-.38.23-.6.47-.92.69a3.17,3.17,0,0,1-.4.25A.58.58,0,0,1,118.65,154.91Z"/><path d="M112.34,147.74a.64.64,0,0,1,.61.41l0,0c.06.19.13.36.2.55.12.41.27.8.38,1.22s.22,1,.36,1.42.3.94.44,1.42.23.95.36,1.42l.41,1.42a2.6,2.6,0,0,1,.11.66.79.79,0,0,1-.47.75.5.5,0,0,1-.69-.2,2.28,2.28,0,0,1-.18-.46c-.13-.46-.29-.91-.43-1.37s-.2-.94-.34-1.4-.3-.92-.43-1.37-.24-.93-.37-1.4-.33-.89-.47-1.35c-.06-.23-.1-.45-.14-.66a2.72,2.72,0,0,1,0-.5.76.76,0,0,1,.36-.51A.57.57,0,0,1,112.34,147.74Z"/><path d="M104.46,160.63a.75.75,0,0,1-.61-.45s0,0,0,0-.06-.07-.07-.15l-.11-.49c-.07-.47-.16-.93-.24-1.38s-.13-.93-.21-1.39-.2-.93-.28-1.38-.07-.93-.16-1.39-.2-.91-.29-1.37c0,0,0,0,0-.08a2.85,2.85,0,0,1,0-.41.82.82,0,0,1,.51-.87s0,0,0,0a.78.78,0,0,1,.94.21,5.64,5.64,0,0,1,.59.6l.76.93c.43.53.91,1,1.35,1.57a1.18,1.18,0,0,1,.14.22c.22.31.38.48.62.37l0,0c.21-.1.12-.36,0-.71,0-.09,0-.18,0-.26,0-.36-.13-.71-.2-1.08l-.15-1.09c-.08-.4-.18-.81-.26-1.22a6.48,6.48,0,0,1-.06-.76.81.81,0,0,1,.42-.8.76.76,0,0,1,.49,0,.62.62,0,0,1,.32.28,2.55,2.55,0,0,1,.16.66c.08.48.17.95.26,1.43s.2,1,.28,1.41.12,1,.2,1.42.15.95.24,1.41.18.95.25,1.41a3,3,0,0,1,0,.78.87.87,0,0,1-.48.73.86.86,0,0,1-.83-.17,3.66,3.66,0,0,1-.53-.51s-.06,0-.09-.08c-.34-.4-.64-.82-1-1.22s-.5-.56-.74-.86-.48-.57-.73-.86l-.09-.11c-.16-.23-.29-.33-.47-.23s-.14.24-.1.48a.39.39,0,0,1,.06.13c.06.41.15.81.23,1.23l.18,1.25c.09.46.19.92.27,1.38,0,.2,0,.43,0,.67a.74.74,0,0,1-.15.57A.62.62,0,0,1,104.46,160.63Z"/><path d="M98.27,155.05a1.71,1.71,0,0,0,0-.45,1.39,1.39,0,0,0-.61-.9,1.53,1.53,0,0,0-1.1-.12,2.35,2.35,0,0,0-1.11.74,2.39,2.39,0,0,0-.55,1.2.36.36,0,0,0,.06.28.34.34,0,0,0,.29.11,2.22,2.22,0,0,0,.45,0l.39-.07a.52.52,0,0,1,.61.36.57.57,0,0,1-.21.67,2.32,2.32,0,0,1-.86.4,3.1,3.1,0,0,0-.36.21h0l0,0c-.11,0-.23.09-.35.11s-.49.08-.72.13a.57.57,0,0,1-.69-.49,2.58,2.58,0,0,1-.14-.39,5.13,5.13,0,0,1,.19-1.64,4.23,4.23,0,0,1,.79-1.44,5.39,5.39,0,0,1,1.16-1.18s.15,0,.21,0a5.58,5.58,0,0,1,.72-.31,2.61,2.61,0,0,1,2,.08,2.22,2.22,0,0,1,.91,1,4,4,0,0,1,.38,1.31c0,.58,0,1.18.07,1.77s0,1.19,0,1.78a4.27,4.27,0,0,1-.31,1.38,4.35,4.35,0,0,1-.68,1.23,4.29,4.29,0,0,1-1.09.89,3.8,3.8,0,0,1-1.3.51,2.4,2.4,0,0,1-1.71-.21,2.36,2.36,0,0,1-1-1.39,1.71,1.71,0,0,1-.12-.57.67.67,0,0,1,.51-.64.61.61,0,0,1,.71.24c.07.07.07.19.13.27a1.24,1.24,0,0,0,.12.23,1.59,1.59,0,0,0,1,.61,1.46,1.46,0,0,0,1.07-.23,3.16,3.16,0,0,0,1-1,2.56,2.56,0,0,0,.31-1.36c0-.37,0-.74,0-1.12s-.1-.76-.12-1.13Z"/><path d="M84.85,158.53l.23,0,.27.08.18.19.13.25,0,.29,0,.32-.11.28-.2.27-.31.2-.28.08h-.33l-.19,0-.29-.22-.1-.18-.06-.38,0-.27.12-.29.21-.25.24-.2.34-.16h.12Z"/><path d="M68.78,161.16a2.17,2.17,0,0,1-.93-.81,2.27,2.27,0,0,1-.39-1.17,1.46,1.46,0,0,1,.16-.79.64.64,0,0,1,.61-.36.59.59,0,0,1,.59.39,1.53,1.53,0,0,1,.13.32l0,.13a1.64,1.64,0,0,0,.66,1,1.6,1.6,0,0,0,1.23.16,2.64,2.64,0,0,0,1.1-.54,2.35,2.35,0,0,0,.74-1c.17-.39.29-.8.43-1.17s.29-.79.4-1.18.19-.81.26-1.21a1.32,1.32,0,0,0-.26-1.15,1.51,1.51,0,0,0-1.23-.45,2.49,2.49,0,0,0-1.7.88,3,3,0,0,0-.24.28c-.07.1-.16.19-.24.29a2.06,2.06,0,0,1-.43.4.63.63,0,0,1-.8-.1.55.55,0,0,1-.09-.71,3.68,3.68,0,0,1,.86-1.16,4.94,4.94,0,0,1,1.4-.87,4.54,4.54,0,0,1,1.61-.4c.09,0,.16,0,.24,0a2.52,2.52,0,0,1,1.74.7,2.32,2.32,0,0,1,.5,1,3,3,0,0,1,.12,1.08,5.27,5.27,0,0,1-.31,1.33c0,.17-.13.32-.17.48-.22.74-.4,1.43-.65,2.06a5.21,5.21,0,0,1-.68,1.15,4.65,4.65,0,0,1-.94.94,4.08,4.08,0,0,1-1.22.56,4.16,4.16,0,0,1-1.32.16h0A3.11,3.11,0,0,1,68.78,161.16Z"/><path d="M58.59,155.05c.22-.47.38-1,.61-1.51s.49-1,.73-1.47A4.36,4.36,0,0,1,60.7,151a4.13,4.13,0,0,1,1.08-.74,5,5,0,0,1,1.24-.4,2.91,2.91,0,0,1,1.26-.07s.07.05.12.06a2.76,2.76,0,0,1,1.14.35,2.49,2.49,0,0,1,.82.83,2.08,2.08,0,0,1,.24,1.14,4.25,4.25,0,0,1-.32,1.5c-.09.22-.21.44-.3.67-.29.65-.58,1.32-.91,2a5.39,5.39,0,0,1-.92,1.27,4.3,4.3,0,0,1-1.28.88,4.54,4.54,0,0,1-1.48.44,3.71,3.71,0,0,1-1.71-.26,2.23,2.23,0,0,1-1.14-.94,2.18,2.18,0,0,1-.29-1.45A4.65,4.65,0,0,1,58.59,155.05ZM60,157a1.55,1.55,0,0,0,1.33.58,2.87,2.87,0,0,0,1.39-.46,3.07,3.07,0,0,0,.89-1.12c.16-.33.34-.64.5-1l.45-1c.12-.27.25-.53.38-.79a.85.85,0,0,0,.11-.21s0-.06,0-.08a1.32,1.32,0,0,0-.58-1.54,1.57,1.57,0,0,0-1.35-.2,2.57,2.57,0,0,0-1.72,1.2c-.3.51-.54,1.06-.81,1.63s-.5,1.07-.73,1.66A1.34,1.34,0,0,0,60,157Z"/><path d="M57.88,147.42c.4.13.6.25.67.44s0,.46-.24.83-.41.72-.62,1.06-.46.67-.67,1-.16.29-.34.56c-.27.45-.57.88-.86,1.32s-.59.88-.86,1.33-.19.39-.42.75c0,.08-.13.14-.18.21-.32.46-.53.68-.8.76a1.69,1.69,0,0,1-1.09-.07l-.56-.16a2,2,0,0,1-.35-.11s0,0,0-.06-.16-.05-.24-.06L50.6,155a2.35,2.35,0,0,1-1.33-3.32,7.9,7.9,0,0,1,.38-.77c.05-.08.09-.06.14-.14.21-.33.38-.7.6-1.05s.44-.68.67-1a4.71,4.71,0,0,1,.88-1,4.35,4.35,0,0,1,1.18-.64,3.58,3.58,0,0,1,2.6-.21c.42.09.86.15,1.26.27S57.6,147.32,57.88,147.42Zm-1.81.93a.85.85,0,0,0-.22-.08s0-.06,0-.07h0a3.36,3.36,0,0,0-1.78-.14,2.66,2.66,0,0,0-1.49.92,15.93,15.93,0,0,0-1,1.43c-.29.48-.53,1-.8,1.57a1.23,1.23,0,0,0,.42,1.62,2.9,2.9,0,0,0,1,.4c.87.25,1.09.17,1.58-.58.22-.36.46-.71.68-1.07s.51-.68.73-1,.4-.73.63-1.08.25-.32.46-.65c.09-.15.12-.34.2-.51C56.53,148.7,56.46,148.54,56.07,148.35Z"/><path d="M50,143.42c.36.18.52.36.56.55s-.07.38-.31.68c-.41.51-.78,1.07-1.19,1.57-.55.65-.59.62-1.13,1.26l-1.16,1.38c-.4.47-.75,1-1.14,1.43s-.69.72-1,.77a2.1,2.1,0,0,1-1.23-.3l-1-.49c-.34-.16-.66-.36-1-.53s-.51-.17-.7-.28a.55.55,0,0,1-.24-.7.71.71,0,0,1,.53-.5,1.29,1.29,0,0,1,.77.23l.72.3c.19.08.36.2.56.27s.5.15.71.23a.81.81,0,0,0,.92-.2c.33-.36.71-.81,1.06-1.28a.5.5,0,0,0,.14-.35.59.59,0,0,0-.29-.35c-.16-.09-.36-.12-.52-.21a3.31,3.31,0,0,1-.33-.15l-.1,0c-.19-.11-.38-.22-.57-.35a.6.6,0,0,1-.18-.7.71.71,0,0,1,.58-.56,1.68,1.68,0,0,1,.78.2c.38.16.74.35,1.12.51l.06.05a1,1,0,0,0,1.31-.36l.06,0,0,0c.38-.43.51-.69.47-.88s-.29-.35-.81-.6l-.43-.22c-.19-.08-.38-.19-.58-.28a3.21,3.21,0,0,1-.56-.38.6.6,0,0,1-.16-.7.7.7,0,0,1,.56-.48A1.58,1.58,0,0,1,47,142s.09.1.15.12c.73.34.75.3,1.47.64.11.05.22.14.33.19l.43.22C49.57,143.28,49.78,143.32,50,143.42Z"/><path d="M35.93,139.76l.14.18.15.24v.26l-.06.28L36,141l-.25.21-.26.13-.34.07-.35-.05-.28-.13-.24-.22-.11-.16-.07-.36,0-.2.21-.32.21-.17.28-.14.32-.05h.31l.37.11,0,0Z"/><path d="M32.35,128.1c.29.3.42.5.39.69s-.21.41-.59.64-.69.45-1,.65-.71.39-1.05.59-.27.19-.56.34c-.45.27-.91.53-1.37.79s-.92.51-1.37.78-.35.26-.71.49c-.08,0-.18.05-.27.1a1.66,1.66,0,0,1-1.05.31,1.71,1.71,0,0,1-.94-.56l-.43-.4c-.13-.13-.14-.12-.26-.25s0,0,0-.05-.12-.12-.19-.17-.37-.36-.54-.55a2.37,2.37,0,0,1,.33-3.57c.24-.18.47-.38.69-.51s.11,0,.19-.06c.34-.2.66-.45,1-.66s.71-.41,1.06-.6a4.84,4.84,0,0,1,1.25-.49,4.3,4.3,0,0,1,1.34,0,4.43,4.43,0,0,1,1.29.27,4.63,4.63,0,0,1,1.11.73,10.16,10.16,0,0,1,1,.82C31.93,127.63,32.15,127.88,32.35,128.1Zm-2,0a1,1,0,0,0-.16-.18s0,0,0-.06l0,0a3.43,3.43,0,0,0-1.52-.93,2.65,2.65,0,0,0-1.75.13,15.65,15.65,0,0,0-1.57.81,17.64,17.64,0,0,0-1.44,1,1.22,1.22,0,0,0-.36,1.63,2.81,2.81,0,0,0,.7.81c.66.62.89.64,1.67.2l1.09-.64c.37-.21.77-.37,1.12-.59s.7-.46,1.06-.67.37-.17.7-.36c.15-.1.27-.25.42-.36C30.56,128.62,30.57,128.44,30.31,128.1Z"/><path d="M27.13,120.93a.92.92,0,0,1,.25.74c-.05.19-.24.3-.59.47-.6.27-1.18.59-1.78.85-.78.33-.8.28-1.57.61-.55.23-1.11.45-1.66.69s-1.11.53-1.68.76a1.86,1.86,0,0,1-1.23.24,2.2,2.2,0,0,1-.95-.84c-.23-.29-.45-.59-.67-.89s-.43-.63-.65-.93a7.54,7.54,0,0,1-.5-.57.54.54,0,0,1,.11-.72.68.68,0,0,1,.7-.21c.28.08.41.34.58.55s.34.39.5.6.24.34.38.5a6.36,6.36,0,0,0,.53.52.8.8,0,0,0,.9.25,14.72,14.72,0,0,0,1.53-.66.52.52,0,0,0,.29-.24.64.64,0,0,0-.1-.45c-.11-.15-.27-.27-.37-.42a3.15,3.15,0,0,1-.22-.29l-.07-.08c-.12-.18-.24-.37-.35-.57a.6.6,0,0,1,.16-.7.71.71,0,0,1,.77-.24,1.53,1.53,0,0,1,.6.53c.27.32.5.65.76,1,0,0,0,0,0,.07a1,1,0,0,0,1.33.28h.1c.54-.2.78-.38.83-.56s-.1-.45-.45-.91l-.28-.38c-.13-.17-.26-.35-.4-.52a2.87,2.87,0,0,1-.31-.6.6.6,0,0,1,.17-.7.71.71,0,0,1,.72-.16,1.41,1.41,0,0,1,.57.44s0,.12.07.17c.5.64.53.61,1,1.23.08.11.13.23.21.34s.19.26.29.38S27,120.76,27.13,120.93Z"/><path d="M13.17,113.89c.08-.44.3-.7.66-.69a.82.82,0,0,1,.81.7,1.54,1.54,0,0,1,0,.37v.29a1.94,1.94,0,0,0,.7,1.17,1.89,1.89,0,0,0,1.26.43,1.06,1.06,0,0,0,.86-.38,1.09,1.09,0,0,0,.16-.93c0-.16-.11-.3-.16-.45a1.14,1.14,0,0,1-.06-.25,2.37,2.37,0,0,1-.14-1.2,1.63,1.63,0,0,1,.59-1,3.34,3.34,0,0,1,1.08-.59,2.7,2.7,0,0,1,1,0,3.24,3.24,0,0,1,1.2.26,4.42,4.42,0,0,1,1.05.66,3.74,3.74,0,0,1,.84.9,2.38,2.38,0,0,1,.31.72,2.18,2.18,0,0,1-.14,1.64.87.87,0,0,1-.58.37.63.63,0,0,1-.87-.71,1,1,0,0,1,0-.39,1.44,1.44,0,0,0-.3-1.36,2,2,0,0,0-1.66-.73A1,1,0,0,0,19,113a.94.94,0,0,0-.13.83,2.64,2.64,0,0,0,.15.45c0,.11.07.23.11.34a2.24,2.24,0,0,1-.18,1.86,2.27,2.27,0,0,1-1.62,1,3.61,3.61,0,0,1-1.5-.08,3.8,3.8,0,0,1-1.34-.69,4.16,4.16,0,0,1-1-1.09l0,0A2.37,2.37,0,0,1,13.17,113.89Z"/><path d="M20.27,107.25a.62.62,0,0,1-.45.58l0,0c-.19,0-.37.1-.56.15-.42.09-.83.21-1.25.29s-1,.13-1.45.24-1,.23-1.44.32-1,.15-1.45.24l-1.45.3a2.33,2.33,0,0,1-.66,0,.79.79,0,0,1-.72-.53.5.5,0,0,1,.27-.66,3,3,0,0,1,.46-.15c.48-.09.94-.21,1.41-.32s.95-.12,1.42-.23.94-.21,1.4-.31l1.42-.26c.46-.08.92-.25,1.39-.35a5.91,5.91,0,0,1,.67-.09,2,2,0,0,1,.49.06.82.82,0,0,1,.49.4A.55.55,0,0,1,20.27,107.25Z"/><path d="M15.8,102.18a2.24,2.24,0,0,0,.44-.07,1.37,1.37,0,0,0,.86-.67,1.43,1.43,0,0,0,.06-1.1,2.39,2.39,0,0,0-2-1.54.3.3,0,0,0-.27.07.36.36,0,0,0-.1.3,3.11,3.11,0,0,0,.08.44,2.62,2.62,0,0,1,.09.38.54.54,0,0,1-.32.64.57.57,0,0,1-.69-.18,2.23,2.23,0,0,1-.44-.83,2.88,2.88,0,0,0-.23-.34v0s0,0,0,0-.09-.22-.12-.34a6.09,6.09,0,0,1-.17-.71.56.56,0,0,1,.45-.72c.13,0,.24-.15.37-.16a5.34,5.34,0,0,1,1.66.09,4.4,4.4,0,0,1,1.48.71,5.28,5.28,0,0,1,1.24,1.09c0,.06,0,.15,0,.21a5,5,0,0,1,.34.7,2.59,2.59,0,0,1,0,2,2.15,2.15,0,0,1-1,1,3.78,3.78,0,0,1-1.28.45c-.58.09-1.18.12-1.77.17s-1.18.13-1.78.14a4.54,4.54,0,0,1-1.38-.23,4.27,4.27,0,0,1-1.27-.61,4.59,4.59,0,0,1-1-1,3.83,3.83,0,0,1-.58-1.26A2.5,2.5,0,0,1,8.74,99a2.38,2.38,0,0,1,1.33-1.08,1.86,1.86,0,0,1,.57-.15.66.66,0,0,1,.67.47.63.63,0,0,1-.2.72c-.07.07-.19.09-.27.14a2.11,2.11,0,0,0-.22.14,1.61,1.61,0,0,0-.55,1,1.47,1.47,0,0,0,.28,1.06,3.19,3.19,0,0,0,1,1,2.55,2.55,0,0,0,1.38.24c.37,0,.74,0,1.12,0s.75-.14,1.12-.18Z"/><path d="M7,88.43a.77.77,0,0,1,.57-.5s0,0,0,0,.09,0,.17,0h.5l1.4.06c.47,0,.93.06,1.4.07s.95,0,1.4,0,.94.12,1.4.13.93,0,1.4,0c0,0,0,0,.08,0a3,3,0,0,1,.41,0,.82.82,0,0,1,.74.68s0,0,0,0a.78.78,0,0,1-.4.88,4.64,4.64,0,0,1-.71.45l-1.07.56c-.61.31-1.2.67-1.81,1a1.45,1.45,0,0,1-.25.09c-.35.16-.55.27-.49.54l0,0c.05.23.32.19.68.19.09,0,.17,0,.26.06.36,0,.72,0,1.09,0l1.1.07c.41,0,.84,0,1.25,0a6.31,6.31,0,0,1,.76.1.8.8,0,0,1,.69.57.77.77,0,0,1-.07.5.55.55,0,0,1-.34.25,2.93,2.93,0,0,1-.67,0l-1.45,0c-.48,0-1,0-1.44,0s-1-.09-1.44-.1l-1.42-.06c-.49,0-1,0-1.44,0a2.41,2.41,0,0,1-.76-.13.89.89,0,0,1-.62-.61.9.9,0,0,1,.34-.79,3.37,3.37,0,0,1,.61-.4L9,92c.47-.25.94-.45,1.4-.7s.66-.38,1-.55l1-.53.13-.07c.26-.11.38-.22.32-.41s-.2-.19-.44-.2a.7.7,0,0,1-.14,0c-.42,0-.83,0-1.26,0l-1.26-.08-1.4,0c-.2,0-.42-.09-.66-.13a.72.72,0,0,1-.52-.27A.64.64,0,0,1,7,88.43Z"/><path d="M131.38,78.73c-1.25-1.25-1.85-3.8-29.33,6a183.32,183.32,0,0,1,6-51.75c.27-1.13-.19-3.91-2.06-4.09A4.36,4.36,0,0,0,102,31.55c-.08.34-4.68,22.88-2.38,54.12l-4.92,1.81a177.66,177.66,0,0,1,4.24-53.06,2.11,2.11,0,1,0-4.13-.87c-.07.34-4.73,23.23-1.92,54.62l-2.79,1c-4.46,1.7-9.09,3.47-13.65,5.29-2.47-.23-5.15-.44-8.12-.66-7-.52-20-1.48-21.25-3.59,0-.11-.47-.79.75-2,7.12-7.11,15.24-6.73,18-6.15,3.68.78,7.12,2.4,7.56,4.31a2.24,2.24,0,0,0-.4,1.21,2.1,2.1,0,0,0,3.55,1.51c1.38-1.38,1.81-3.74-.34-5.9-4.34-4.34-20.58-7.82-31.09,2.69a6.4,6.4,0,0,0-2.25,4.38,3.83,3.83,0,0,0,.26,1.41C44.7,96.1,57,95.45,71.23,96.5c-14.3,5.92-29.92,13-32.18,15.3a3.09,3.09,0,0,0-1,2.2,2.78,2.78,0,0,0,.26,1.16c.58,1.17,1.66,3.36,17.67,1.26,3.63-.47,35.45-4.89,37.28-14a5,5,0,0,0,.08-.84,4.07,4.07,0,0,0-.86-2.49c-1.09-1.43-6.29-3.23-10-4.14l-4.87,2.15h0c5.25,1,10.76,3.61,11.49,4.8-.08.26-.56,1.13-3.92,2.82-10.14,5.07-35,8.49-43.44,8.43,11-6.63,19.49-10.75,34-16.32.75-.28,4.79-2,5.28-2.2,1.75-.68,7.89-2.9,9.69-3.58L93,90.13a203.06,203.06,0,0,0,11.08,49.55,2.1,2.1,0,0,0,2.7,1.26c1.09-.4.42-1.64-.06-2.7A150,150,0,0,1,94.82,89.47q2.59-1,4.93-1.79a214.69,214.69,0,0,0,10.06,50.22,2.1,2.1,0,0,0,2.66,1.34c1.11-.37.63-1.6.18-2.67-7.15-16.75-9.94-34.12-10.53-49.73,24.12-8.43,24.83-5.87,26.39-5l-.11-.08a2.22,2.22,0,0,0,3-.16,2,2,0,0,0,0-2.83"/></svg>
