<svg width="200px" xmlns="http://www.w3.org/2000/svg" viewBox="0 0 847.25 305.44"><title>Logo</title><path d="M29.24,175.8c-11.63,0-21.89-2.14-29.24-6.12l6.28-17a41.11,41.11,0,0,0,19.44,4.9c9.34,0,14.85-4.74,14.85-11.79,0-19-39.35-14.23-39.35-47.92C1.22,80,15.31,67.1,36.75,67.1c10.1,0,19.13,2.29,25.87,6.12L57.11,88.38a37.3,37.3,0,0,0-17-4.29c-8.72,0-14.54,4.14-14.54,11.64,0,19,40.42,13.32,40.42,47.77C66,162,51.6,175.8,29.24,175.8Z" style="fill:#b64243"/><path d="M120.64,175.8C91.4,175.8,79,149,79,121.45S91.4,67.1,120.64,67.1c9.5,0,17,2.14,23,6.12l-5.36,15.16A24,24,0,0,0,125.54,85c-15.61,0-21,18.22-21,36.13,0,17.46,6,35.68,20.82,35.68a23.24,23.24,0,0,0,12.4-3.37l5.82,16.08C137.64,173.51,130.14,175.8,120.64,175.8Z" style="fill:#b64243"/><path d="M191.53,175.8c-28.17,0-41.19-23.12-41.19-54.35s13-54.35,41.19-54.35,41.18,23.12,41.18,54.35S219.7,175.8,191.53,175.8Zm0-92C179,83.79,175.3,99.71,175.3,121S179,158,191.53,158s16.23-15.77,16.23-37S204.08,83.79,191.53,83.79Z" style="fill:#b64243"/><path d="M283.39,85.47v88.65H258.58V85.47h-19V68.78h62.77V85.47Z" style="fill:#b64243"/><path d="M353.81,85.47v88.65H329V85.47H310V68.78H372.8V85.47Z" style="fill:#b64243"/><path d="M416.43,174.12l33.68-88.65H420V68.78H481l-32.46,88.65h33.07v16.69Z" style="fill:#b64243"/><path d="M497.11,174.12V68.78h24.8V174.12Z" style="fill:#b64243"/><path d="M592.8,174.12l-14.24-31.54c-2.76-6-6.74-11-12.1-13.47v45H542.27V73.07c8.42-3.83,19.6-6,31.54-6,26.8,0,42.26,10.56,42.26,32,0,14.08-9.34,23.58-23.89,27.71v.31c4.14,3.82,7.66,9.18,10.26,14.08l17.76,32.92ZM574.42,81.18a23.39,23.39,0,0,0-8,1.23V119a27.57,27.57,0,0,0,6.59.61c11.94,0,18.68-8.72,18.68-19.59C591.73,87.46,586.06,81.18,574.42,81.18Z" style="fill:#b64243"/><path d="M685.57,174.12l-27.25-52.21H658v52.21H633.52V68.78H658v47.46h.31L686,68.78h25.73l-31.39,48.54,33.38,56.8Z" style="fill:#b64243"/><path d="M725.07,174.12V68.78h53.74V85.47H749.87v26.79h25.27v16.23H749.87v28.94h28.94v16.69Z" style="fill:#b64243"/><path d="M795.65,174.12V68.78h24.8v88.65h26.8v16.69Z" style="fill:#b64243"/><path d="M189.59,226.82c0,.37.3.7.24,1-.36,2.26-.61,4.6-.92,6.85-.13,1.33-.27,2.61-.45,3.9a10.29,10.29,0,0,1-1.21,3.74,2.86,2.86,0,0,1-2,1.54,2.62,2.62,0,0,1-.85-.09c-1.24-.19-1.78-1.06-2-2.77,0,0-.22-.08-.22-.08,0-.31.11-.33.12-.64,0-.58.19-1.29.25-2,.18-1.34.07-1.32.25-2.66.25-2,.34-3.94.59-5.91s.76-3.94,1-6,.45-4,.69-5.93.22-4,.47-6a31.89,31.89,0,0,1,.74-4.09,3.51,3.51,0,0,1,3.22-2.5,2.93,2.93,0,0,1,3.3,2.21c.81,2.36,1.62,4.76,2.32,7.13.38,1.21.71,2.42,1.08,3.58l.52,1.45c.57,1.86,1.21,3.77,1.9,5.67.24.59.53.81.91.87a1.33,1.33,0,0,0,1.23-.55,15.47,15.47,0,0,0,.71-2c1.7-3.28,1.81-3.24,3.45-6.52.91-1.76,2-3.43,2.89-5.19s1.59-3.63,2.45-5.38a30.44,30.44,0,0,1,1.62-3,4.26,4.26,0,0,1,2.79-1.81,2.55,2.55,0,0,1,3.36,2.57,19.08,19.08,0,0,1,0,2.74c-.26,1.87-.63,3.71-.83,5.63s-.42,3.79-.68,5.66-.63,3.71-.83,5.63l-.79,5.63c-.2,1.92-.2,3.81-.41,5.67a15.38,15.38,0,0,1-.85,2.59,3,3,0,0,1-1.8,2.14,2.74,2.74,0,0,1-2.35.07,2.59,2.59,0,0,1-1.15-1.83,16.86,16.86,0,0,1,.36-3.47c.15-1.49.26-3,.42-4.47s.34-3.19.52-4.85c0-.16-.1-.35-.08-.57.16-1.12.38-1.78-.29-2.05s-1,.24-1.63,1.43c-.08.17-.31,0-.39.21-1.28,2.49-2.44,5.07-3.58,7.44a1.92,1.92,0,0,0-.14.49,11.62,11.62,0,0,1-2.08,3.13,4.54,4.54,0,0,1-3.9,1.44c-1.24-.25-2.08-1.39-2.65-2.83-.48-1.14-1-2.33-1.33-3.49-.29-1-.53-1.92-.88-2.87-.09-.3-.09-.67-.19-1-.3-1.38-.73-2.21-1.72-2.13S189.66,225.5,189.59,226.82Z"/><path d="M225.89,241.49a1.73,1.73,0,0,1-.57-1.86,20.06,20.06,0,0,1,.84-3.33c.79-1.89,1.58-3.74,2.31-5.62s1.36-3.82,2.09-5.71,1.69-3.65,2.48-5.54,1.3-3.81,2-5.7,1.64-3.69,2.37-5.58c.47-1.12,1.11-2.21,1.73-3.39a3.68,3.68,0,0,1,2.05-1.87c1.59-.59,2.74-.65,3.65-.14a3.46,3.46,0,0,1,1.56,2.51,13.42,13.42,0,0,0,.46,1.35l.42,1.89c.39,2.41.93,4.75,1.32,7.16.25,1.44.3,2.9.56,4.34s.61,2.9.87,4.34c.29,1.74.7,3.52,1.07,5.36l.54,2.76s-.26,0-.25.09l.31-.05a8,8,0,0,1-.08.91,14,14,0,0,1,.24,2.85,2.89,2.89,0,0,1-2.49,2.82c-.1,0-.18-.13-.28-.12a2.49,2.49,0,0,1-2.66-2.09,19.3,19.3,0,0,1-.54-2.34c-.14-.67-.3-1.38-.49-2-.6-2.39-1.32-3-3.93-2.92-.27,0-.51.13-.77.11s-.44.22-.71.2a9.52,9.52,0,0,0-4.72,1.19,6.81,6.81,0,0,0-2.68,4,22.45,22.45,0,0,1-1.65,3.6c-.12.28,0,.73-.12,1a4,4,0,0,1-2.9,2.19A2,2,0,0,1,225.89,241.49Zm17.34-22.39,0-.36a4.63,4.63,0,0,1-.22-.81c-.21-.76-.41-1.47-.68-2.22a1.08,1.08,0,0,0-.74-.79c-.1,0-.2.09-.25.09-.26,0-.37.32-.54.6a20.48,20.48,0,0,0-2.79,6.7,1.29,1.29,0,0,0,.17.87c.25.28.51.61.88.66a4.17,4.17,0,0,0,3.56-1.18,3.2,3.2,0,0,0,.69-3C243.24,219.52,243.27,219.36,243.23,219.1Z"/><path d="M278,240.13a4.84,4.84,0,0,1-1.79-.06,5.26,5.26,0,0,1-3-2.53c-.52-.66-1.07-1.26-1.54-1.93-.72-1.06-1.5-2.1-2.27-3.15-.14-.19-.13-.51-.26-.7-.67-1-1.2-1.41-2.06-1.23s-1.17.69-1.33,1.76c0,.32,0,.57,0,.84-.25,1.24-.44,2.48-.63,3.71-.08.59-.31,1.2-.43,1.79a4.51,4.51,0,0,1-1,2.56,2.46,2.46,0,0,1-2.69.69,2.22,2.22,0,0,1-1.68-1.86,12.79,12.79,0,0,1,.05-3.05c.21-1.87.36-3.78.58-5.6s.52-3.75.73-5.61.47-3.75.74-5.62.74-3.68.95-5.55c.35-2.72.13-2.8.43-5.52.08-.53.34-1,.43-1.48s0-.88.09-1.22a3.15,3.15,0,0,1,3.38-2.05c1.61.25,2,1.82,2.11,3.38v.06c0,.42,0,.42,0,.84-.05.8-.23,1.77-.3,2.77-.1,1.17-.39,2-.37,2.94,0,.37.34.59.68.75a.69.69,0,0,0,.8-.32c.94-1.13,2-2.23,2.94-3.36s1.93-2.32,2.93-3.45c.48-.65,1.1-1.1,1.59-1.75s1-1.66,1.6-2.43a5.92,5.92,0,0,1,4.66-2,1.49,1.49,0,0,1,1.26.77,1.66,1.66,0,0,1,.25,1.38A21.2,21.2,0,0,1,283,206.4c-1.43,1.78-2.85,3.65-4.28,5.43s-3,3.52-4.45,5.3c-2,2.43-3,3.78-3.07,5.05s1,2.59,2.77,5.18c.6.91,1.25,1.82,1.9,2.67.4.63.86,1.3,1.32,1.92.92,1.29,1.72,2.54,2.52,3.74a2.93,2.93,0,0,1,.29,3.22A2.71,2.71,0,0,1,278,240.13Z"/><path d="M294.72,240.88a2.51,2.51,0,0,1-1.61-2.45l.15,0c.1-.81.1-1.54.15-2.34.18-1.7.26-3.39.49-5.11.25-2,.72-3.88.92-5.8s.34-3.93.59-5.91.66-3.87.91-5.8l.7-5.87a11.35,11.35,0,0,1,.63-2.61,3.16,3.16,0,0,1,2.92-2,2,2,0,0,1,2.2,1.84,9.43,9.43,0,0,1,0,1.95c-.25,1.93-.35,3.83-.56,5.75s-.73,3.78-.93,5.7-.35,3.83-.56,5.7-.57,3.81-.83,5.73-.2,3.81-.4,5.73a25.4,25.4,0,0,1-.52,2.65,8.08,8.08,0,0,1-.85,1.8,3.06,3.06,0,0,1-2.12,1.35A2.33,2.33,0,0,1,294.72,240.88Z"/><path d="M340.43,202.47a3,3,0,0,1,1.82,2.42c0,.05-.15.08-.2.08,0,.32.15.35.09.67,0,.58-.08,1.33-.14,2-.26,1.87-.47,3.74-.69,5.56s-.58,3.7-.79,5.57-.31,3.77-.53,5.59-.79,3.68-1,5.55-.27,3.71-.48,5.58c0,.16-.19.13-.17.28a15.35,15.35,0,0,1-.3,1.62,3.31,3.31,0,0,1-3,2.73c-.05,0,0,.16,0,.16a3.14,3.14,0,0,1-3.37-1.89,20.13,20.13,0,0,1-1.57-3c-.63-1.49-1.21-3-1.84-4.47-1-2.53-2.28-5-3.37-7.56a5.86,5.86,0,0,1-.25-1c-.52-1.45-.9-2.29-2-2.13l-.07-.15c-.93.13-.88,1.23-1,2.66,0,.37-.28.67-.34,1-.21,1.45-.33,2.88-.49,4.38l-.65,4.34c-.18,1.66-.26,3.35-.45,5a26.7,26.7,0,0,1-.63,3,3.2,3.2,0,0,1-2.53,2.56,3,3,0,0,1-1.95-.41,2.38,2.38,0,0,1-.88-1.45,10.08,10.08,0,0,1,.14-2.7c.26-1.93.46-3.85.66-5.76s.35-3.89.56-5.75.67-3.83.88-5.69.52-3.81.73-5.67.41-3.84.67-5.72a10.54,10.54,0,0,1,.78-3,3.08,3.08,0,0,1,5.69-.65,13.06,13.06,0,0,1,1.41,2.59c.14.19.19.18.27.38.85,1.93,1.49,3.89,2.34,5.82.56,1.39,1.28,2.76,1.84,4.15s1.18,2.77,1.79,4.16l.24.54c.35,1.06.74,1.58,1.51,1.42.61-.14.84-.75,1-1.71a1.83,1.83,0,0,1-.08-.57c.23-1.66.37-3.31.55-5l.72-5c.21-1.86.37-3.73.58-5.59a23.5,23.5,0,0,1,.74-2.57,3,3,0,0,1,1.24-2A2.5,2.5,0,0,1,340.43,202.47Z"/><path d="M357,229.5a9.73,9.73,0,0,0-.11,1.8,5.48,5.48,0,0,0,1.86,3.94,5.84,5.84,0,0,0,4.26,1.19,9.5,9.5,0,0,0,4.84-2.2,9.84,9.84,0,0,0,3-4.41,1.31,1.31,0,0,0-.05-1.14,1.42,1.42,0,0,0-1.09-.64,10.79,10.79,0,0,0-1.79-.06c-.53,0-1.05,0-1.58,0a2.09,2.09,0,0,1-2.19-1.79,2.28,2.28,0,0,1,1.27-2.55,9.47,9.47,0,0,1,3.63-1,7.77,7.77,0,0,0,1.55-.59h0s0,.1.07.09c.47,0,1-.19,1.44-.2a24,24,0,0,1,2.93,0c1.53,0,2.28.83,2.44,2.38,0,.53.36,1.06.28,1.59a20.41,20.41,0,0,1-1.78,6.4,17.37,17.37,0,0,1-4.05,5.19,21,21,0,0,1-5.34,3.9c-.24.14-.59-.08-.84,0a20.93,20.93,0,0,1-3,.74c-3.14.44-5.94,0-8-1.6a8.81,8.81,0,0,1-2.95-4.53,15,15,0,0,1-.65-5.42c.14-2.33.54-4.7.84-7s.55-4.75,1-7.07a17.92,17.92,0,0,1,2.1-5.23,16.91,16.91,0,0,1,3.47-4.43,17.17,17.17,0,0,1,4.91-2.84,15.19,15.19,0,0,1,5.45-1.19,9.8,9.8,0,0,1,6.62,1.91,9.48,9.48,0,0,1,3.07,6.13,7,7,0,0,1,.12,2.35,2.71,2.71,0,0,1-2.42,2.23,2.57,2.57,0,0,1-2.67-1.41c-.2-.34-.16-.82-.32-1.17a5.88,5.88,0,0,0-.35-1,6.42,6.42,0,0,0-3.36-3,5.92,5.92,0,0,0-4.38.19,12.42,12.42,0,0,0-4.66,3.13,9.83,9.83,0,0,0-2.11,5.18c-.26,1.45-.58,2.91-.79,4.41s-.1,3.06-.26,4.56Z"/><path d="M436,205.07c1.45,1,2,2.24,1.44,3.53a3.29,3.29,0,0,1-3.89,1.86c-.49-.09-.86-.51-1.31-.71l-1.06-.48a7.87,7.87,0,0,0-5.43.66,7.51,7.51,0,0,0-3.59,3.91,4,4,0,0,0,3.13,5.87c.65.12,1.27.08,1.91.15a5.3,5.3,0,0,1,1,.17,9.22,9.22,0,0,1,4.62,1.45,6.69,6.69,0,0,1,2.9,3.85,13.7,13.7,0,0,1,.38,4.93,10.47,10.47,0,0,1-1.38,3.66,13.72,13.72,0,0,1-2.9,4,19.84,19.84,0,0,1-4.13,2.79,16.22,16.22,0,0,1-4.66,1.6,10.36,10.36,0,0,1-3.15,0,8.63,8.63,0,0,1-5.75-3.19,3.4,3.4,0,0,1-.44-2.72,2.54,2.54,0,0,1,4-2,4.64,4.64,0,0,1,1.41.69,5.75,5.75,0,0,0,5.46,1.12,8.09,8.09,0,0,0,5.36-4.9,3.93,3.93,0,0,0-.12-3.45,3.88,3.88,0,0,0-2.84-1.86,10.42,10.42,0,0,0-1.91-.15c-.42,0-.91-.13-1.39-.17a8.92,8.92,0,0,1-6.55-3.65,9.22,9.22,0,0,1-1.12-7.61,14.28,14.28,0,0,1,2.71-5.37,15.39,15.39,0,0,1,4.72-3.76,15.77,15.77,0,0,1,5.65-2.06l.08.2A9.45,9.45,0,0,1,436,205.07Z"/><path d="M465.93,204.38a3.08,3.08,0,0,1-1,3.46,6.71,6.71,0,0,1-1.49.58c-.71.2-1.43.3-2.25.47-2.82.5-4.11,2.1-4.39,5-.15,1.6-.44,3.27-.63,4.87s-.44,3.21-.64,4.82c-.16,1.12-.37,2.2-.53,3.33-.2,1.55-.25,3.08-.4,4.62s-.67,3.09-.87,4.64c-.13.91.08.94-.06,1.85a5.77,5.77,0,0,1-1.05,3,2.86,2.86,0,0,1-1.8,1.36,3.5,3.5,0,0,1-1.19-.26,2.2,2.2,0,0,1-1.65-2.34,22.74,22.74,0,0,1,.27-3c.22-1.81.33-3.62.56-5.38s.23-3.6.45-5.37.71-3.51.93-5.33c.31-2.67.15-2.7.5-5.42,0-.16.12-.28.1-.44.17-1.75.25-3-.24-3.54s-1.74-.43-3.62-.38c-1.52.06-3.18-.18-3.5-2.08s.72-3.1,2.77-3.49,4.13-.84,6.19-1.13c.78-.06,1.5-.16,2.28-.27.2,0,.21,0,.36,0a17.35,17.35,0,0,1,1.77-.13c1.55-.22,3-.53,4.57-.75.72-.1,1.29-.13,1.87-.16A2.33,2.33,0,0,1,465.93,204.38Z"/><path d="M500.56,203.06a2.29,2.29,0,0,1,.79,1.52,9.58,9.58,0,0,1-.2,2.34c-.1,1.12.05,1.09-.11,2.22-.24,2-.44,4-.69,5.92s-.65,4-.89,6-.38,4-.68,6a19.16,19.16,0,0,1-5.53,11.07A20.87,20.87,0,0,1,489,241a16.53,16.53,0,0,1-4.83,1.52v.05a12.49,12.49,0,0,1-5.39-.24,7.82,7.82,0,0,1-4.32-3.12,10.84,10.84,0,0,1-2-5,16.9,16.9,0,0,1-.28-4.21c.36-2.73.65-5.5,1-8.28.2-1.61.45-3.16.65-4.77s.6-3.18.8-4.78c.18-1.34.24-2.72.57-4.13a3.75,3.75,0,0,1,1.4-2,2.26,2.26,0,0,1,2.39-.6,2.08,2.08,0,0,1,1.35,1.81,19.43,19.43,0,0,1,0,2.73l-.78,6.78c-.21,1.5-.63,3-.83,4.58s-.2,3.08-.4,4.63c0,.21-.07.22-.1.43a28.48,28.48,0,0,0-.23,4.71,5.56,5.56,0,0,0,7.94,5.29,9.35,9.35,0,0,0,4.3-3,12.57,12.57,0,0,0,2.37-4.8,49.51,49.51,0,0,0,.94-5.64c.07-.64.34-.63.4-1.27.3-2.35.55-4.69.81-7,.22-2.13.28-4.35.56-6.48a20.79,20.79,0,0,1,.95-3.29,2.79,2.79,0,0,1,2.31-2.27A3,3,0,0,1,500.56,203.06Z"/><path d="M510.44,239.45c0-.58,0-1.26,0-1.9.27-1.87.69-3.72.95-5.59s.25-3.82.52-5.69l.67-5.66c.26-1.88.69-3.72.94-5.65s.2-3.81.41-5.68c0-.37.38-.68.43-1.05s0-.53,0-.79a3.72,3.72,0,0,1,3.46-3.43c1.64-.28,3.22-.66,4.87-.89,1.29-.13,1.3,0,2.54-.2.57-.08,1.15-.06,1.71-.14,1.65-.23,3.34-.52,5-.7s2.56.64,2.74,1.56a2.83,2.83,0,0,1-1.65,3.17,15.11,15.11,0,0,1-2.95.73c-2.36.39-4.73.72-6.69,1l0,.22c-2.21.31-3.63,1.45-3.89,3.69,0,.48.19,1,.14,1.4a36.59,36.59,0,0,0-.35,4.2c0,.8-.06,1.48.3,1.8a2.53,2.53,0,0,0,2,.46c.83-.07,1.58-.33,2.4-.45s1.62-.07,2.45-.13c2.86-.19,3.58,1.18,3.7,2.05a3.42,3.42,0,0,1-2.88,3.77c-1.12.26-2.25.42-3.33.57-.72.1-1.53-.05-2.31.06-3.17.61-3.76,1.21-4.26,4.38-.23,1.4-.18,2.86-.4,4.26-.12,1.07-.44,2.11-.61,3.18a4.73,4.73,0,0,1-1.71,3.5,3.31,3.31,0,0,1-1.53.69,2.53,2.53,0,0,1-1.28-.14A2.35,2.35,0,0,1,510.44,239.45Z"/><path d="M541.16,239.45c0-.58,0-1.26.05-1.9.26-1.87.68-3.72.95-5.59s.25-3.82.51-5.69l.67-5.66c.27-1.88.69-3.72.94-5.65s.2-3.81.42-5.68c0-.37.37-.68.42-1.05s0-.53,0-.79a3.72,3.72,0,0,1,3.46-3.43c1.64-.28,3.21-.66,4.86-.89,1.29-.13,1.31,0,2.54-.2.57-.08,1.15-.06,1.72-.14,1.65-.23,3.34-.52,5-.7s2.56.64,2.74,1.56a2.83,2.83,0,0,1-1.65,3.17,15.11,15.11,0,0,1-2.95.73c-2.36.39-4.73.72-6.68,1l0,.22c-2.22.31-3.63,1.45-3.9,3.69,0,.48.19,1,.15,1.4A34.48,34.48,0,0,0,550,218c0,.8,0,1.48.31,1.8a2.5,2.5,0,0,0,1.95.46c.83-.07,1.58-.33,2.41-.45s1.62-.07,2.45-.13c2.86-.19,3.58,1.18,3.7,2.05a3.44,3.44,0,0,1-2.89,3.77c-1.11.26-2.25.42-3.33.57-.72.1-1.53-.05-2.3.06-3.17.61-3.77,1.21-4.27,4.38-.22,1.4-.18,2.86-.4,4.26-.11,1.07-.44,2.11-.6,3.18a4.77,4.77,0,0,1-1.72,3.5,3.26,3.26,0,0,1-1.53.69,2.54,2.54,0,0,1-1.28-.14A2.36,2.36,0,0,1,541.16,239.45Z"/><path d="M629.52,203.06a2.29,2.29,0,0,1,.79,1.52,9.58,9.58,0,0,1-.2,2.34c-.1,1.12,0,1.09-.11,2.22-.24,2-.44,4-.69,5.92s-.65,4-.89,6-.38,4-.68,6a19,19,0,0,1-1.84,6,18.81,18.81,0,0,1-3.7,5.09A20.53,20.53,0,0,1,618,241a16.62,16.62,0,0,1-4.83,1.52v.05a12.49,12.49,0,0,1-5.39-.24,7.82,7.82,0,0,1-4.32-3.12,10.84,10.84,0,0,1-2-5,16.44,16.44,0,0,1-.28-4.21c.35-2.73.65-5.5,1-8.28.2-1.61.45-3.16.65-4.77s.6-3.18.79-4.78c.18-1.34.25-2.72.58-4.13a3.7,3.7,0,0,1,1.4-2,2.26,2.26,0,0,1,2.39-.6,2.1,2.1,0,0,1,1.35,1.81,19.43,19.43,0,0,1,0,2.73l-.78,6.78c-.21,1.5-.63,3-.83,4.58s-.2,3.08-.4,4.63c0,.21-.08.22-.1.43a28.48,28.48,0,0,0-.23,4.71,5.56,5.56,0,0,0,7.94,5.29,9.35,9.35,0,0,0,4.3-3,12.57,12.57,0,0,0,2.37-4.8,49.51,49.51,0,0,0,.94-5.64c.07-.64.33-.63.4-1.27.3-2.35.55-4.69.81-7,.22-2.13.28-4.35.56-6.48a20.79,20.79,0,0,1,1-3.29,2.79,2.79,0,0,1,2.31-2.27A3,3,0,0,1,629.52,203.06Z"/><path d="M661.34,205.35a10.06,10.06,0,0,1,3.4,5.93,12.52,12.52,0,0,1-.19,6.12,23,23,0,0,1-2.61,6.09,16.83,16.83,0,0,1-4.64,4.75,17.23,17.23,0,0,1-6.12,2.38c-2.14.46-3.48,1-4.29,2s-1,2.24-1.21,4.53a10.46,10.46,0,0,1-.78,3.41,3.53,3.53,0,0,1-2.54,2.09c0,.06-.12-.14-.18-.13a2,2,0,0,1-2.28-1.31,5.28,5.28,0,0,1-.14-2.86c0-.11-.12-.14-.14-.25.27-1.82.58-3.7.79-5.57l.64-5.55c.26-1.88.47-3.74.68-5.61s.32-3.72.58-5.6.65-3.66.86-5.53c.05-.37-.17-.39-.16-.76,0-.21.25-.4.28-.62s.11-.33.14-.49a4.26,4.26,0,0,1,3.83-4.11s.07.15.07.15c1.86-.26,1.83-.47,3.68-.73.31,0,.63,0,.89-.07a17.84,17.84,0,0,1,2.89-.35A9.87,9.87,0,0,1,661.34,205.35Zm-5.16,4.45a6.15,6.15,0,0,0-3.63-.8,5.55,5.55,0,0,0-2,.92,2.3,2.3,0,0,0-1.46,1.57,39.26,39.26,0,0,0-1.07,5.82c-.3,2-.33,4-.48,5.95a2.08,2.08,0,0,0,.34,1.68c.43.41,1.1.37,2,.35a9.81,9.81,0,0,0,6.54-3.54,10,10,0,0,0,2.76-7.27A5.68,5.68,0,0,0,656.18,209.8Z"/><path d="M305.37,267.47c1.45,1,2,2.24,1.44,3.53a3.29,3.29,0,0,1-3.89,1.86c-.49-.09-.86-.51-1.31-.71l-1.06-.48a7.83,7.83,0,0,0-5.42.66,7.49,7.49,0,0,0-3.6,3.91,4,4,0,0,0,3.13,5.87c.65.12,1.27.08,1.91.15a5.3,5.3,0,0,1,1,.17,9.22,9.22,0,0,1,4.62,1.45,6.72,6.72,0,0,1,2.9,3.85,13.7,13.7,0,0,1,.38,4.93,10.47,10.47,0,0,1-1.38,3.66,13.72,13.72,0,0,1-2.9,4,19.84,19.84,0,0,1-4.13,2.79,16.22,16.22,0,0,1-4.66,1.6,10,10,0,0,1-3.15,0,8.63,8.63,0,0,1-5.75-3.19,3.4,3.4,0,0,1-.44-2.72,2.54,2.54,0,0,1,4-2,4.64,4.64,0,0,1,1.41.69,5.75,5.75,0,0,0,5.46,1.12,8.09,8.09,0,0,0,5.36-4.9,3.93,3.93,0,0,0-.12-3.45,3.85,3.85,0,0,0-2.84-1.85,9.58,9.58,0,0,0-1.91-.16c-.42,0-.91-.13-1.39-.17a8.92,8.92,0,0,1-6.55-3.65,9.22,9.22,0,0,1-1.12-7.61,14.28,14.28,0,0,1,2.71-5.37,15.39,15.39,0,0,1,4.72-3.76,15.84,15.84,0,0,1,5.65-2.06l.08.2A9.45,9.45,0,0,1,305.37,267.47Z"/><path d="M318.51,303.28a2.51,2.51,0,0,1-1.6-2.45l.15,0c.1-.8.1-1.54.15-2.33.18-1.71.26-3.4.49-5.12.25-2,.71-3.88.92-5.8s.34-3.93.58-5.91.67-3.87.92-5.8l.7-5.87a10.85,10.85,0,0,1,.63-2.61,3.16,3.16,0,0,1,2.92-2,2,2,0,0,1,2.2,1.85,9.35,9.35,0,0,1,0,1.94c-.25,1.93-.35,3.83-.56,5.75s-.73,3.78-.93,5.7-.36,3.83-.57,5.7-.56,3.81-.82,5.73-.2,3.81-.4,5.73a25.4,25.4,0,0,1-.52,2.65,8.08,8.08,0,0,1-.85,1.8,3.08,3.08,0,0,1-2.12,1.35A2.38,2.38,0,0,1,318.51,303.28Z"/><path d="M364.23,264.87a3,3,0,0,1,1.81,2.42s-.14.08-.19.08c0,.32.15.35.09.67,0,.58-.08,1.33-.14,2-.26,1.87-.47,3.74-.69,5.56s-.58,3.7-.79,5.57-.31,3.77-.53,5.59-.79,3.68-1,5.55-.27,3.71-.48,5.58c0,.16-.19.13-.17.28-.08.54-.17,1.08-.3,1.62a3.31,3.31,0,0,1-3,2.73c-.05,0,0,.16,0,.16a3.13,3.13,0,0,1-3.36-1.89,20.13,20.13,0,0,1-1.57-3c-.63-1.49-1.21-3-1.84-4.47-1-2.53-2.28-5-3.37-7.56a5.64,5.64,0,0,1-.25-1c-.52-1.45-.9-2.28-2-2.13l-.07-.15c-.93.13-.88,1.23-1,2.66,0,.37-.27.67-.33,1-.21,1.45-.33,2.88-.49,4.38l-.65,4.34c-.19,1.66-.26,3.35-.45,5a26.7,26.7,0,0,1-.63,3,3.2,3.2,0,0,1-2.53,2.56,3,3,0,0,1-1.95-.41,2.44,2.44,0,0,1-.89-1.45,10.54,10.54,0,0,1,.15-2.7c.26-1.92.46-3.84.66-5.76s.35-3.89.56-5.75.67-3.83.88-5.69.52-3.81.73-5.67.4-3.84.67-5.72a10.54,10.54,0,0,1,.78-3,3.08,3.08,0,0,1,5.69-.65,13.59,13.59,0,0,1,1.41,2.59c.13.19.19.18.27.38.84,1.93,1.49,3.89,2.34,5.82.56,1.39,1.28,2.76,1.84,4.15s1.18,2.78,1.79,4.16l.23.54c.36,1.06.75,1.58,1.52,1.42.61-.14.84-.75,1-1.71a2.17,2.17,0,0,1-.07-.57c.23-1.66.37-3.31.55-5l.72-5c.21-1.86.37-3.72.58-5.59a23.5,23.5,0,0,1,.74-2.57,3,3,0,0,1,1.24-2A2.49,2.49,0,0,1,364.23,264.87Z"/><path d="M395.87,265.59a8.67,8.67,0,0,1,4.23,2.51,9.15,9.15,0,0,1,2.4,4.34,5.8,5.8,0,0,1,0,3.2,2.6,2.6,0,0,1-2.15,1.88,2.41,2.41,0,0,1-2.62-1.1,9.57,9.57,0,0,1-.74-1.16l-.23-.49a5.88,5.88,0,0,0-8.34-3.29,10.76,10.76,0,0,0-3.94,2.91,10,10,0,0,0-2.18,4.35c-.4,1.63-.58,3.34-.83,4.9s-.58,3.34-.73,4.93-.16,3.33-.14,5a5.38,5.38,0,0,0,1.87,4.36,6,6,0,0,0,5.16.85,10,10,0,0,0,6.07-4.69c.25-.45.56-.87.76-1.31s.45-.85.71-1.31a8.48,8.48,0,0,1,1.41-1.88,2.5,2.5,0,0,1,3.23-.19,2.25,2.25,0,0,1,.86,2.72,14.46,14.46,0,0,1-2.53,5.18,19.77,19.77,0,0,1-4.89,4.47,17.28,17.28,0,0,1-6,2.74,5.82,5.82,0,0,1-1,.08,10.06,10.06,0,0,1-7.35-1.49,9.52,9.52,0,0,1-2.68-3.4,11.66,11.66,0,0,1-1.27-4.18,22.86,22.86,0,0,1,.23-5.44c.11-.7.28-1.36.34-2.05.31-3,.54-5.9,1.06-8.55a19.15,19.15,0,0,1,1.82-5,18.25,18.25,0,0,1,3-4.41,17.25,17.25,0,0,1,4.4-3.09,16.23,16.23,0,0,1,5.08-1.61h.1A12.82,12.82,0,0,1,395.87,265.59Z"/><path d="M414.55,304.65c-1.61.17-2.53-.07-3.08-.62s-.58-1.44-.42-3c.26-2.61.3-5.29.63-7.86.41-3.36.63-3.34,1.05-6.66.3-2.4.65-4.76.94-7.17s.42-4.89.76-7.3c.32-2.56.76-3.94,1.65-4.74s2.23-1.26,4.81-1.63c1.49-.21,2.94-.36,4.44-.51s3-.22,4.52-.38c1.13-.16,2.07-.55,3-.57a2.19,2.19,0,0,1,2.31,1.83,2.77,2.77,0,0,1-.71,2.83c-.83.8-2,.75-3.07.9s-2,.4-3.08.54c-.82.12-1.66.13-2.48.3-1.13.15-2,.59-2.88.77a3.21,3.21,0,0,0-2.68,2.63,56,56,0,0,0-.8,6.63,2,2,0,0,0,.26,1.48,2.38,2.38,0,0,0,1.76.54c.73-.05,1.47-.36,2.2-.41a11.6,11.6,0,0,1,1.44-.2l.41-.06a23.69,23.69,0,0,1,2.67-.06,2.34,2.34,0,0,1,2.11,2,2.87,2.87,0,0,1-.71,3.15,6.64,6.64,0,0,1-3.06,1c-1.64.29-3.25.41-4.89.69-.16,0-.17,0-.32,0a4.11,4.11,0,0,0-3.64,4l-.11.28s-.05.06,0,.11c-.37,2.26-.25,3.45.3,4s1.76.54,4,.28c.67-.1,1.29-.13,1.91-.22.82-.11,1.71-.19,2.58-.31a12.14,12.14,0,0,1,2.69.1,2.39,2.39,0,0,1,2.07,2,2.78,2.78,0,0,1-.86,2.8,5.87,5.87,0,0,1-2.68,1.11c-.21,0-.49-.14-.75-.11-3.2.45-3.17.61-6.32,1.05-.51.07-1.05,0-1.56.06s-1.3.13-1.91.22C416.17,304.26,415.38,304.58,414.55,304.65Z"/><path d="M475.71,301.35l-1.12-.47-.7-1.21,0-1.26-.06-.83,0-.85v-1.47s.13-1,.17-1l0-2.47.09-.85,0-.89.09-.85,0-1.58v-.79l.09-3.43,0-.84.09-.91,0-.84,0-.85v-1.57l.08-1-.05-.73c0-.05.13-.91.18-1l-.1-.73.08-.9,0-.94-1.49.94-2.35,2.38-.89.39-.95,0-1.15-.73-.68-.74-.12-1.61a1.35,1.35,0,0,1,.25-.82l.59-.67.64-.66a9.62,9.62,0,0,0,.84-.75l.54-.66.64-.66.81-.59,1.07-1,.84-.75.49-.64.76-.58.88-.81a8,8,0,0,0,.92-.55l1.3-.5.72-.05.86.09.67.33.41.63.26,1.53v1l-.09.91,0,.84-.07,1.74-.09.85.07,1.62-.07,1-.12,2.53-.07,1v2.31l-.1,1.12v1.52l-.17,4.38-.09.86.06.78-.17,1.8v.84l-.08.91-.14,4.22.05.73-.23,1.34-.53,1.07a9,9,0,0,0-.7.63l-.67.46-1.38.3Z"/><path d="M493.2,302.78a.76.76,0,0,1-.79-.41l-.35-.63a.88.88,0,0,1-.05-1.1l.68-1.51,1.58-2.54.37-.73.37-.74.71-.94.69-1.46L498,290.4a7.46,7.46,0,0,0,.31-.78l.79-1.11h-1.36a5,5,0,0,0-1,0l-.77.11-.93.08-1-.23-.91-.08-1.43-.48-2.17-1.22a3.69,3.69,0,0,0-.66-.65l-.64-.8-1.23-2-.38-.84-.45-1.67v-2.21l-.06-.78.11-1.12.43-1.74.43-1.11a5.43,5.43,0,0,1,.36-.78s.5-1.28.54-1.34l.79-1.16,1.94-2.22,1.6-1.32,1-.52,1-.55,1.43-.62,1-.25.9-.34.89,0,.87-.12.78-.06.88-.12.91.13,1.53.42.69.11c.06,0,1.86.84,1.86.84l.8.47c-.05.06.39.57.39.57l.59.45.6.54.47.72.7,1.59.54,1.65.14,1,.08.94-.1,2.63-.17,1-.25.87-.19.87-.25.87-.32,1.1-.49,1-.39.95-.92,1.7-1.09,1.57-.78,1.53c0,.05-.57.82-.62.88a5.29,5.29,0,0,0-.43,1l-1.18,2.11-1.13,1.68-.44,1-.52.75-.42.74-.58.77a4.91,4.91,0,0,0-.47.75l-.69,1.46-.69,1-.42.74c0,.05-.73.79-.73.79l-1.79,1.09-.26.09Zm4.59-32.36-1.37.3-1.72.87c-.1.07-.63.72-.63.72s-.61.56-.66.56l-.73,1.16-.75,2.15-.2,1.55.25,1.38.44,1.31.51.61.34.58.93.66.83.25.67.27,1.18.2.87-.17,2.94-.73,1.28-1,.79-.74,1.11-1.47.26-.77.61-2-.16-2.23-.43-1.15s-1.21-1.56-1.22-1.61l-1-.59-1.31-.4-1.32,0-.68,0Z"/><path d="M517.46,302.65l-1,0a4.17,4.17,0,0,1-.62-.33l-.45-.57a1,1,0,0,1-.14-1l.29-.88.28-1,.77-1.63.47-.8c0-.06.55-1.34.55-1.34l.89-1.86.63-1.51.49-1,.39-1,.37-.73.35-.89a3.83,3.83,0,0,0,.42-.74s.89-2.28.93-2.34l.54-1,1.17-2.48.26-.77a5.27,5.27,0,0,1,.51-.86l.24-.92.41-.8.35-.89,2-4.1.25-.77.41-.85.28-1-1.14-.26-.84,0-1.37.35a5.75,5.75,0,0,0-1.1,0l-.86.27h-.78l-.81.22-1.78.09-1.54.22-.8.27-1.1,0-1.53,0a1,1,0,0,1-.72-.27l-.55-.92-.24-1.33.1-1.17.71-1.31.77-.53.86-.22.77-.11.76-.21.86-.23,1,.07,1.32-.29,1.82-.15,2.3-.43,3.24-.45.78-.06.75-.27.91.09,2.26-.37,1-.09,1,.34.78.67.36,2.16-.21,1.13s-.53,1.81-.58,1.87a6,6,0,0,0-.36.78,9.53,9.53,0,0,1-.55,1l-.88,2.28c0,.05-.56.92-.56.92l-.36.79c0,.05-.41.84-.41.84s-.29.93-.29.93-.84,1.85-.89,1.86l-.5,1.33-.51.81s-.43,1.43-.43,1.43l-.45,1-.49,1-1,2.46-.74,1.47-.21.76c0,.05-.54,1-.54,1l-.29.94-.43.69-.3.83-.77,1.58-.35.94-.41.79-1.33,3.23-.42.74a9.39,9.39,0,0,1-.67.89l-.81.9-1.11.73-.35.15Z"/><path d="M543.53,302.65l-1,0a4.25,4.25,0,0,1-.63-.33l-.44-.57a1,1,0,0,1-.15-1l.3-.88.28-1,.77-1.63.47-.8c0-.06.54-1.34.54-1.34l.9-1.86.63-1.51.49-1,.38-1,.37-.73.35-.89a3.37,3.37,0,0,0,.42-.74s.89-2.28.93-2.34l.54-1,1.18-2.48.26-.77a4.64,4.64,0,0,1,.51-.86l.24-.92.41-.8.35-.89,1.94-4.1.26-.77.41-.85.28-1-1.14-.26-.85,0-1.36.35a5.85,5.85,0,0,0-1.11,0l-.85.27h-.79l-.81.22-1.77.09-1.54.22-.81.27-1.09,0-1.53,0a1,1,0,0,1-.72-.27l-.55-.92-.24-1.33.1-1.17.71-1.31.76-.53.86-.22.77-.11.76-.21.86-.23,1,.07,1.33-.29,1.81-.15,2.31-.43,3.24-.45.78-.06.75-.27.9.09,2.26-.37,1-.09,1,.34.78.67.35,2.16-.2,1.13s-.54,1.81-.58,1.87a6,6,0,0,0-.36.78,9.53,9.53,0,0,1-.55,1l-.89,2.28c0,.05-.55.92-.55.92l-.36.79c0,.05-.41.84-.41.84s-.29.93-.29.93-.84,1.85-.89,1.86l-.5,1.33-.52.81s-.43,1.43-.43,1.43l-.44,1-.5,1-1,2.46-.74,1.47-.2.76c0,.05-.55,1-.54,1l-.29.94-.43.69-.3.83-.78,1.58-.34.94-.41.79-1.34,3.23-.42.74a9.35,9.35,0,0,1-.66.89l-.82.9-1.1.73-.35.15Z"/><path d="M6.72,40a1.74,1.74,0,0,1-.57-1.87A19.07,19.07,0,0,1,7,34.82c.78-1.89,1.57-3.74,2.3-5.63s1.36-3.81,2.09-5.7,1.69-3.65,2.48-5.55,1.3-3.8,2-5.69,1.64-3.7,2.37-5.58c.47-1.12,1.11-2.21,1.73-3.4a3.66,3.66,0,0,1,2.05-1.86c1.59-.59,2.74-.65,3.65-.15a3.5,3.5,0,0,1,1.56,2.51,13.6,13.6,0,0,0,.46,1.36L28.14,7c.39,2.42.93,4.75,1.32,7.17.25,1.43.3,2.9.55,4.33s.62,2.91.88,4.34c.29,1.75.7,3.53,1.07,5.37L32.5,31s-.26,0-.25.08l.31,0a6.23,6.23,0,0,1-.08.91,14,14,0,0,1,.24,2.85,2.89,2.89,0,0,1-2.49,2.82c-.11,0-.18-.14-.28-.12a2.51,2.51,0,0,1-2.66-2.1A18.47,18.47,0,0,1,26.75,33c-.14-.66-.3-1.37-.49-2-.6-2.38-1.32-3-3.93-2.91-.26,0-.51.12-.77.11s-.45.22-.71.2a9.44,9.44,0,0,0-4.72,1.19,6.75,6.75,0,0,0-2.68,4,22.35,22.35,0,0,1-1.65,3.59c-.12.28,0,.74-.12,1a4.06,4.06,0,0,1-2.9,2.19A2,2,0,0,1,6.72,40ZM24.06,17.62l0-.37a4.63,4.63,0,0,1-.22-.81c-.21-.75-.41-1.46-.68-2.21a1.06,1.06,0,0,0-.74-.79c-.1,0-.2.08-.25.09-.26,0-.37.31-.54.6a20.54,20.54,0,0,0-2.79,6.69,1.26,1.26,0,0,0,.17.87,1.69,1.69,0,0,0,.88.67,4.2,4.2,0,0,0,3.57-1.19,3.19,3.19,0,0,0,.68-3C24.07,18,24.1,17.87,24.06,17.62Z"/><path d="M63.18,4.2c1.43,1.54,2.21,3.74,2.46,6.64a15.2,15.2,0,0,1-.89,6.38,19.75,19.75,0,0,1-3.48,5.48,26.35,26.35,0,0,1-2.05,2.23c-1.54,1.42-1.68,3-.62,5,.29.53.14.61.42,1.09s.54.87.75,1.26.33.48.47.72c.27.44.49.83.7,1.22.51,1,1,2.38-.18,3.6a2.89,2.89,0,0,1-1.55,1,4,4,0,0,1-2.69-.88,6.73,6.73,0,0,1-2.12-2.33,6.89,6.89,0,0,0-.57-1.08,25.64,25.64,0,0,0-1.35-2.54,7.66,7.66,0,0,0-1.39-2.06,2.75,2.75,0,0,0-2.28-.47,2.58,2.58,0,0,0-1.68,1.45,11.94,11.94,0,0,0-.8,2.52c0,.16.07.15,0,.31-.11.7-.33,1.41-.44,2.11s.08,1.3,0,1.95a4,4,0,0,1-1.6,2.43,2.82,2.82,0,0,1-2.87.51,2.32,2.32,0,0,1-1.17-2.31,20.79,20.79,0,0,1-.06-2.3c.26-1.92.73-3.78,1-5.7s.19-3.86.45-5.74.62-3.81.88-5.74.35-3.83.61-5.7c.55-5.12,0,.2.82-7.26a4.19,4.19,0,0,1,3.83-3.74l9-1.06A9.93,9.93,0,0,1,63.18,4.2ZM58.26,8.78a6.05,6.05,0,0,0-5.33-1.72c-.21,0-.45.17-.66.2a3.07,3.07,0,0,0-2.68,2.58c-.42,1.85-.8,3.68-1.05,5.61s-.25,3.82-.35,5.72c0,.85-.1,1.54.31,1.9s1.2.3,2.18.17a11.09,11.09,0,0,0,5.85-2.87,11.67,11.67,0,0,0,3.19-5.7A6.14,6.14,0,0,0,58.26,8.78Z"/><path d="M92.8,2.9a3.06,3.06,0,0,1-1,3.45,5.86,5.86,0,0,1-1.49.58c-.71.21-1.43.31-2.25.47-2.81.51-4.11,2.11-4.39,5-.14,1.6-.44,3.26-.63,4.87s-.44,3.21-.64,4.81c-.15,1.13-.37,2.21-.53,3.33-.2,1.56-.25,3.08-.4,4.63s-.67,3.09-.87,4.64c-.13.91.08.93-.06,1.84a5.77,5.77,0,0,1-1,3,2.85,2.85,0,0,1-1.8,1.35,3.26,3.26,0,0,1-1.19-.25,2.2,2.2,0,0,1-1.64-2.34,20.93,20.93,0,0,1,.26-3c.22-1.82.33-3.62.56-5.38s.23-3.61.45-5.37.72-3.51.93-5.33c.31-2.67.15-2.7.5-5.43,0-.15.12-.28.1-.43.17-1.76.26-3-.24-3.54s-1.74-.44-3.62-.38c-1.52.05-3.18-.19-3.5-2.08S71,4.23,73,3.84,77.17,3,79.22,2.71c.78-.06,1.51-.16,2.28-.27.2,0,.21,0,.37,0,.86-.17.88,0,1.76-.14,1.54-.21,3-.53,4.57-.74.72-.11,1.3-.13,1.87-.17A2.34,2.34,0,0,1,92.8,2.9Z"/><path d="M125.85,18.94l-.91-.14-1.1-.31-.73-.74-.56-1-.17-1.19.19-1.28L123,13.2l.79-1.11,1.2-.8,1.16-.37,1.32,0,.75.16,1.18.88.41.68.27,1.54-.17,1.07-.47,1.17s-.8,1-.8,1-.88.8-.94.81l-1.37.67-.16,0Z"/><path d="M201.87,3.48c-.71,2.36-1.47,4.83-2.41,7.49-.55,1.7-1.16,3.36-1.76,5.07s-1.27,3.28-1.87,5-1.1,3.36-1.71,5-1.16,3.37-1.7,5.07l-1.74,4.82c-.16.39-.21.39-.37.78a4.25,4.25,0,0,1-2.14,2.3c-.44.22-.75.68-1.16.74a3.45,3.45,0,0,1-1.66-.24,2.89,2.89,0,0,1-1.41-2.17,36,36,0,0,1-1.15-4.51c0-.15.08-.17.06-.27-.25-1.8-.5-3.6-.71-5.47-.16-1.13-.22-2.28-.33-3.47a10.84,10.84,0,0,0-.31-1.79c-.14-.66-.35-1-.83-1a.91.91,0,0,0-1.12.63c-.48,1-.86,2.06-1.24,3.11l-2.54,7c-.71,2-1.53,4.05-2.25,6a17.82,17.82,0,0,1-.9,2.54,3.72,3.72,0,0,1-3.06,1.79l0,.11a2.32,2.32,0,0,1-2.71-1.67A31.71,31.71,0,0,1,166,37c-.21-1.55-.54-3.13-.76-4.67s-.29-3.16-.45-4.72c-.25-1.8-.46-1.77-.71-3.57-.33-2.69-.4-5.41-.56-8.07-.14-2.13-.35-4.36-.55-6.54a7.19,7.19,0,0,1,0-2.36,2.73,2.73,0,0,1,2.85-2.18,2.33,2.33,0,0,1,2.57,1.85,29.14,29.14,0,0,1,.89,4.07c.18,1.66.25,3.33.38,5s.3,3.63.51,5.49a16.59,16.59,0,0,0,.91,3.13c.1.3.24.6.52.66s.42-.32.59-.61a18.06,18.06,0,0,0,1.38-2.92c.66-2,1.55-3.89,2.22-5.83.6-1.71,1.15-3.41,1.76-5.07A25.62,25.62,0,0,1,179,7.22a4.38,4.38,0,0,1,3-2.63,2.77,2.77,0,0,1,3.29,1.75,14.74,14.74,0,0,1,.54,3.07c.25,1.8.66,3.58.86,5.39.2,1.39.24,2.86.44,4.25a29.89,29.89,0,0,0,.56,3.65c0,.31.32.74.69.74s.56-.5.68-.78c.44-.95,1.11-2.15,1.57-3.37.56-1.65.94-3.39,1.54-5.1s1.39-3.24,2-4.9c.91-2.54.8-2.58,1.7-5.12a5.87,5.87,0,0,1,1.82-3.09c1.13-.95,2.23-1.36,3.19-.87C202.53,1,202.06,2.93,201.87,3.48Z"/><path d="M232.79,4.2a10.86,10.86,0,0,1,2.46,6.64,15.2,15.2,0,0,1-.89,6.38,19.56,19.56,0,0,1-3.49,5.48,23.38,23.38,0,0,1-2.05,2.23c-1.53,1.42-1.67,3-.61,5,.28.53.13.61.41,1.09s.55.87.76,1.26a7.51,7.51,0,0,0,.47.72c.27.44.48.83.69,1.22.52,1,1,2.38-.18,3.6a2.86,2.86,0,0,1-1.54,1,4,4,0,0,1-2.7-.88A6.7,6.7,0,0,1,224,35.53a7.85,7.85,0,0,0-.57-1.08,23.78,23.78,0,0,0-1.36-2.54,7.43,7.43,0,0,0-1.39-2.06,2.73,2.73,0,0,0-2.27-.47,2.59,2.59,0,0,0-1.69,1.45,12.55,12.55,0,0,0-.8,2.52c0,.16.07.15,0,.31-.12.7-.33,1.41-.44,2.11s.07,1.3,0,1.95a4,4,0,0,1-1.61,2.43,2.81,2.81,0,0,1-2.87.51,2.32,2.32,0,0,1-1.16-2.31,20.79,20.79,0,0,1-.06-2.3c.25-1.92.73-3.78,1-5.7s.2-3.86.46-5.74.62-3.81.87-5.74.36-3.83.62-5.7c.54-5.12,0,.2.82-7.26a4.19,4.19,0,0,1,3.83-3.74l9-1.06A10,10,0,0,1,232.79,4.2Zm-4.92,4.58a6.07,6.07,0,0,0-5.34-1.72c-.2,0-.45.17-.65.2a3.08,3.08,0,0,0-2.69,2.58c-.42,1.85-.79,3.68-1.05,5.61s-.25,3.82-.35,5.72c0,.85-.1,1.54.32,1.9s1.2.3,2.18.17a11,11,0,0,0,5.84-2.87,11.52,11.52,0,0,0,3.19-5.7A6.11,6.11,0,0,0,227.87,8.78Z"/><path d="M246.15,39.4a2.51,2.51,0,0,1-1.6-2.46l.15,0c.1-.8.1-1.54.15-2.33.18-1.71.25-3.4.49-5.11.24-2,.71-3.88.91-5.8s.34-3.93.59-5.91.67-3.88.92-5.8l.7-5.88a10.85,10.85,0,0,1,.63-2.61,3.14,3.14,0,0,1,2.92-2,2,2,0,0,1,2.2,1.84,9.45,9.45,0,0,1,0,2c-.26,1.93-.36,3.83-.56,5.75s-.73,3.78-.93,5.7-.36,3.83-.57,5.69-.57,3.81-.82,5.74-.2,3.81-.4,5.73a22.38,22.38,0,0,1-.53,2.64,7.3,7.3,0,0,1-.85,1.8,3,3,0,0,1-2.12,1.35A2.36,2.36,0,0,1,246.15,39.4Z"/><path d="M284.47,2.9a3,3,0,0,1-1,3.45,5.86,5.86,0,0,1-1.49.58c-.71.21-1.43.31-2.24.47-2.82.51-4.12,2.11-4.4,5-.14,1.6-.43,3.26-.63,4.87s-.44,3.21-.64,4.81c-.15,1.13-.37,2.21-.53,3.33-.2,1.56-.25,3.08-.4,4.63s-.67,3.09-.87,4.64c-.13.91.08.93-.05,1.84a6,6,0,0,1-1.05,3,2.87,2.87,0,0,1-1.81,1.35,3.26,3.26,0,0,1-1.19-.25,2.2,2.2,0,0,1-1.64-2.34,22.49,22.49,0,0,1,.26-3c.22-1.82.34-3.62.56-5.38s.23-3.61.45-5.37.72-3.51.93-5.33c.31-2.67.15-2.7.5-5.43,0-.15.12-.28.1-.43.17-1.76.26-3-.23-3.54s-1.75-.44-3.63-.38c-1.51.05-3.18-.19-3.5-2.08s.73-3.1,2.77-3.49,4.14-.84,6.2-1.13c.78-.06,1.5-.16,2.27-.27.21,0,.21,0,.37,0,.87-.17.89,0,1.76-.14,1.55-.21,3-.53,4.57-.74.72-.11,1.3-.13,1.87-.17A2.34,2.34,0,0,1,284.47,2.9Z"/><path d="M293.71,39.4a2.53,2.53,0,0,1-1.61-2.46l.16,0c.09-.8.1-1.54.14-2.33.18-1.71.26-3.4.49-5.11.25-2,.72-3.88.92-5.8s.34-3.93.59-5.91.66-3.88.92-5.8L296,6.09a10.9,10.9,0,0,1,.64-2.61,3.14,3.14,0,0,1,2.91-2,2,2,0,0,1,2.21,1.84,8.74,8.74,0,0,1,0,2c-.25,1.93-.35,3.83-.55,5.75s-.73,3.78-.94,5.7-.35,3.83-.56,5.69-.57,3.81-.82,5.74-.2,3.81-.41,5.73a22.44,22.44,0,0,1-.52,2.64,7.3,7.3,0,0,1-.85,1.8A3,3,0,0,1,295,39.64,2.36,2.36,0,0,1,293.71,39.4Z"/><path d="M339.43,1a3,3,0,0,1,1.81,2.42s-.15.07-.2.08c0,.32.15.35.09.67,0,.58-.07,1.32-.13,2-.26,1.88-.48,3.75-.69,5.56s-.58,3.71-.8,5.57-.31,3.78-.52,5.59-.8,3.69-1,5.55-.27,3.72-.48,5.58c0,.17-.19.14-.16.29-.09.54-.17,1.07-.3,1.62a3.33,3.33,0,0,1-3,2.73c-.05,0,0,.16,0,.16a3.14,3.14,0,0,1-3.36-1.89,19.65,19.65,0,0,1-1.58-3c-.63-1.49-1.21-3-1.84-4.47-1-2.53-2.28-5-3.37-7.56a7.27,7.27,0,0,1-.24-1c-.52-1.45-.9-2.29-2-2.14l-.08-.14c-.92.13-.88,1.22-1,2.66,0,.36-.27.66-.33,1-.22,1.45-.33,2.88-.49,4.37L319.12,31c-.19,1.65-.27,3.34-.45,5a27.22,27.22,0,0,1-.64,3,3.21,3.21,0,0,1-2.53,2.56,3,3,0,0,1-1.94-.41,2.42,2.42,0,0,1-.89-1.45,10.09,10.09,0,0,1,.15-2.7c.25-1.93.45-3.85.66-5.77s.34-3.88.55-5.75.68-3.82.89-5.69.51-3.8.72-5.67.41-3.83.67-5.71a10.28,10.28,0,0,1,.79-3,3.07,3.07,0,0,1,5.68-.64,13.34,13.34,0,0,1,1.42,2.59c.13.19.18.18.26.38.85,1.93,1.49,3.89,2.34,5.81.56,1.4,1.28,2.77,1.84,4.16s1.18,2.77,1.8,4.16l.23.54c.36,1.05.75,1.58,1.51,1.42s.84-.75,1-1.71a2.24,2.24,0,0,1-.08-.57c.24-1.66.38-3.31.56-5l.71-5c.21-1.87.37-3.73.58-5.6a24.35,24.35,0,0,1,.75-2.57,2.86,2.86,0,0,1,1.24-2A2.45,2.45,0,0,1,339.43,1Z"/><path d="M356,28a9.73,9.73,0,0,0-.11,1.8,5.47,5.47,0,0,0,1.87,3.94A5.88,5.88,0,0,0,362,35a9.53,9.53,0,0,0,4.84-2.2,9.9,9.9,0,0,0,3-4.41,1.3,1.3,0,0,0-.06-1.15,1.42,1.42,0,0,0-1.09-.63,10.77,10.77,0,0,0-1.79-.07c-.52,0-1,.05-1.57,0a2.09,2.09,0,0,1-2.2-1.8,2.29,2.29,0,0,1,1.27-2.54,9.54,9.54,0,0,1,3.64-1,7.3,7.3,0,0,0,1.54-.58h.06s0,.11.06.1c.47,0,1-.19,1.44-.2a26.38,26.38,0,0,1,2.94-.05c1.52,0,2.27.84,2.43,2.39,0,.52.36,1,.28,1.59A20.09,20.09,0,0,1,375,30.76a17.37,17.37,0,0,1-4,5.19,20.56,20.56,0,0,1-5.33,3.9c-.25.14-.59-.07-.84,0a24,24,0,0,1-3.05.74c-3.14.44-5.94,0-8-1.61a8.71,8.71,0,0,1-2.94-4.52,14.75,14.75,0,0,1-.66-5.42c.15-2.33.55-4.7.85-7s.54-4.75,1-7.08A18.32,18.32,0,0,1,354,9.7a16.9,16.9,0,0,1,3.48-4.42,17.14,17.14,0,0,1,4.9-2.85,15.23,15.23,0,0,1,5.45-1.18,9.88,9.88,0,0,1,6.63,1.9,9.47,9.47,0,0,1,3.06,6.14,6.73,6.73,0,0,1,.12,2.34,2.69,2.69,0,0,1-2.42,2.23,2.54,2.54,0,0,1-2.66-1.41c-.21-.34-.17-.81-.32-1.16a7.77,7.77,0,0,0-.35-1,6.38,6.38,0,0,0-3.36-3,5.9,5.9,0,0,0-4.39.19,12.36,12.36,0,0,0-4.65,3.12,9.78,9.78,0,0,0-2.11,5.18c-.27,1.46-.59,2.92-.8,4.42s-.1,3.06-.25,4.55Z"/><path d="M409.59,18.94l-.91-.14-1.1-.31-.73-.74-.56-1-.16-1.19.18-1.28.42-1.11.79-1.11,1.2-.8,1.16-.37,1.32,0,.75.16,1.18.88.41.68.27,1.54-.17,1.07-.46,1.17s-.81,1-.81,1-.88.8-.93.81l-1.38.67-.15,0Z"/><path d="M469.4,1.71a8.74,8.74,0,0,1,4.24,2.51A9.05,9.05,0,0,1,476,8.55a5.93,5.93,0,0,1,0,3.21,2.65,2.65,0,0,1-2.15,1.88,2.4,2.4,0,0,1-2.62-1.11,7.53,7.53,0,0,1-.74-1.15l-.23-.5a5.89,5.89,0,0,0-8.34-3.29A10.85,10.85,0,0,0,458,10.51a9.88,9.88,0,0,0-2.17,4.35c-.4,1.63-.58,3.34-.84,4.9s-.58,3.33-.72,4.93-.16,3.33-.15,4.95A5.36,5.36,0,0,0,456,34a6,6,0,0,0,5.16.85,10,10,0,0,0,6.06-4.68c.25-.46.56-.87.76-1.32s.46-.85.71-1.3a8,8,0,0,1,1.42-1.88,2.5,2.5,0,0,1,3.23-.19,2.22,2.22,0,0,1,.85,2.71,14.5,14.5,0,0,1-2.53,5.19,19.6,19.6,0,0,1-4.89,4.47,17.08,17.08,0,0,1-6,2.73,7,7,0,0,1-1,.09,10.06,10.06,0,0,1-7.35-1.49,9.63,9.63,0,0,1-2.69-3.4,11.92,11.92,0,0,1-1.27-4.19,22.88,22.88,0,0,1,.23-5.44c.12-.69.29-1.35.35-2,.31-3,.54-5.9,1.06-8.55a19.36,19.36,0,0,1,1.81-5,18.9,18.9,0,0,1,3-4.42A17.21,17.21,0,0,1,459.29,3a16.05,16.05,0,0,1,5.08-1.61h.1A12.63,12.63,0,0,1,469.4,1.71Z"/><path d="M511.72,14c-.23,2.08-.18,4.33-.45,6.52s-.65,4.35-1,6.49a18.37,18.37,0,0,1-1.61,5,18.18,18.18,0,0,1-3.2,4.17,21.5,21.5,0,0,1-4.24,3.07,12.31,12.31,0,0,1-4.73,1.82c-.16,0-.33-.11-.54-.08a11.13,11.13,0,0,1-4.77,0,10,10,0,0,1-4.14-2.15,8.25,8.25,0,0,1-2.3-4,16.24,16.24,0,0,1-.65-6.1c.08-1,.26-1.93.33-2.94.28-2.82.55-5.75,1.05-8.6a21.66,21.66,0,0,1,1.95-6,17.48,17.48,0,0,1,3.77-4.94,18.58,18.58,0,0,1,5.12-3.5,14.83,14.83,0,0,1,6.83-1.12,9,9,0,0,1,5.5,2.17A8.85,8.85,0,0,1,511.55,9,17.72,17.72,0,0,1,511.72,14ZM504,8.41a6.17,6.17,0,0,0-5.8-.55,11.47,11.47,0,0,0-4.72,3.45,12.47,12.47,0,0,0-2,5.38c-.21,1.44-.49,2.85-.7,4.35l-.49,4.37c-.1,1.17-.3,2.3-.45,3.48a3.43,3.43,0,0,0-.19.92c0,.1.24.18.25.28A5.25,5.25,0,0,0,494,35.24a6.33,6.33,0,0,0,5.39-.91,10.21,10.21,0,0,0,5.1-6.71c.52-2.28.76-4.67,1.09-7.19.25-2.29.55-4.69.71-7.24A5.39,5.39,0,0,0,504,8.41Z"/><path d="M524.87,41.08c-1.65.18-2.61.1-3.16-.45s-.76-1.68-.59-3.44.27-3.29.47-4.9.49-3.22.69-4.77c.18-1.34.08-1.32.27-2.61.23-2.08.57-4.17.85-6.26s.62-4.19.85-6.27c.24-1.71,0-1.73.2-3.44.06-.37.27-.72.32-1.09.38-2.21.74-3.36,1.58-4.11s1.92-1.27,4.08-1.62c.77-.11,1.54-.27,2.31-.38a13.85,13.85,0,0,1,1.44-.2c.05,0,0,.21,0,.26.3-.1.67-.1,1-.19,1-.15,2.06-.29,3.09-.39a10.11,10.11,0,0,1,7.49,2.47,9.9,9.9,0,0,1,3,7.3,29.5,29.5,0,0,1,0,3.42c-.06.37-.21.39-.26.77-.2,1.55-.19,3.17-.37,4.83s-.45,3.21-.69,4.82A19.28,19.28,0,0,1,546,30a17.65,17.65,0,0,1-3.18,4.33,17.86,17.86,0,0,1-4,3.45,18.63,18.63,0,0,1-5,1.75c-1.68.4-3.39,1-5,1.18C527.36,40.88,526.06,41,524.87,41.08Zm5-6.48a6,6,0,0,0,.94-.08c.05,0,.08.2.18.19l.1,0a14.07,14.07,0,0,0,6.68-2.56,10.66,10.66,0,0,0,3.85-5.9,62.36,62.36,0,0,0,1.28-7,67.41,67.41,0,0,0,.21-7.06,4.87,4.87,0,0,0-4.29-5.12,11,11,0,0,0-4.27.23c-3.59.61-4.23,1.28-4.73,4.81-.19,1.71-.42,3.37-.61,5s-.69,3.36-.87,5-.22,3.34-.46,5-.35,1.57-.56,3.12c-.06.7.15,1.45.15,2.19C527.57,34.13,528.11,34.58,529.84,34.6Z"/><path d="M561.31,40.76c-1.61.18-2.53-.06-3.08-.61s-.57-1.45-.42-3c.26-2.61.3-5.3.63-7.86.42-3.37.63-3.35,1.06-6.66.29-2.41.64-4.77.93-7.17s.42-4.89.76-7.3c.32-2.57.76-3.94,1.65-4.75s2.24-1.26,4.81-1.62c1.49-.21,2.94-.36,4.44-.52s3-.21,4.52-.37a29.23,29.23,0,0,1,3-.57,2.19,2.19,0,0,1,2.3,1.82A2.76,2.76,0,0,1,581.17,5c-.83.8-2,.76-3.07.91s-2.05.39-3.08.54c-.82.11-1.66.12-2.48.29-1.13.16-2,.6-2.88.77A3.22,3.22,0,0,0,567,10.14a60.36,60.36,0,0,0-.8,6.62,2,2,0,0,0,.26,1.49,2.38,2.38,0,0,0,1.76.54c.73-.05,1.47-.36,2.2-.41a13.87,13.87,0,0,1,1.44-.21l.41-.05a19.77,19.77,0,0,1,2.67-.06A2.36,2.36,0,0,1,577,20a2.87,2.87,0,0,1-.72,3.14,6.5,6.5,0,0,1-3.06,1c-1.64.28-3.25.41-4.89.69-.16,0-.16,0-.32,0a4.08,4.08,0,0,0-3.63,4l-.12.28c0,.05,0,.06,0,.11-.36,2.26-.25,3.45.3,4s1.76.54,4,.27c.67-.09,1.29-.13,1.91-.21.83-.12,1.71-.19,2.59-.31a12.24,12.24,0,0,1,2.69.09,2.4,2.4,0,0,1,2.06,2,2.77,2.77,0,0,1-.86,2.8A5.76,5.76,0,0,1,574.3,39c-.21,0-.49-.14-.75-.1-3.19.45-3.17.6-6.31,1-.52.08-1.06,0-1.57.07s-1.3.13-1.91.21C562.93,40.38,562.14,40.7,561.31,40.76Z"/><path d="M614.92,18.94,614,18.8l-1.1-.31-.73-.74-.56-1-.16-1.19.18-1.28.42-1.11.79-1.11,1.2-.8,1.16-.37,1.32,0,.75.16,1.18.88.41.68.27,1.54L619,15.27l-.46,1.17s-.81,1-.81,1-.88.8-.93.81l-1.38.67-.15,0Z"/><path d="M659.13,41.08c-1.65.18-2.61.1-3.16-.45s-.76-1.68-.58-3.44.27-3.29.46-4.9.5-3.22.7-4.77c.18-1.34.07-1.32.26-2.61.23-2.08.57-4.17.86-6.26s.62-4.19.85-6.27c.23-1.71,0-1.73.2-3.44,0-.37.26-.72.32-1.09.37-2.21.73-3.36,1.57-4.11s1.93-1.27,4.08-1.62c.77-.11,1.54-.27,2.31-.38a14.24,14.24,0,0,1,1.44-.2c.06,0,0,.21,0,.26.3-.1.67-.1,1-.19,1-.15,2.06-.29,3.1-.39A10.11,10.11,0,0,1,680,3.69a9.94,9.94,0,0,1,3,7.3,29.39,29.39,0,0,1,0,3.42c0,.37-.21.39-.26.77-.2,1.55-.18,3.17-.37,4.83s-.44,3.21-.69,4.82A19.28,19.28,0,0,1,680.21,30,17.61,17.61,0,0,1,677,34.31a18.13,18.13,0,0,1-4,3.45,18.51,18.51,0,0,1-5,1.75c-1.68.4-3.39,1-5,1.18C661.63,40.88,660.33,41,659.13,41.08Zm5-6.48a6,6,0,0,0,.93-.08c.05,0,.08.2.18.19l.11,0A14.07,14.07,0,0,0,672,32.13a10.56,10.56,0,0,0,3.85-5.9,60.15,60.15,0,0,0,1.28-7,67.33,67.33,0,0,0,.22-7.06,4.88,4.88,0,0,0-4.29-5.12,11.06,11.06,0,0,0-4.28.23c-3.59.61-4.23,1.28-4.73,4.81-.18,1.71-.42,3.37-.61,5s-.68,3.36-.87,5-.21,3.34-.45,5-.36,1.57-.56,3.12c-.06.7.15,1.45.15,2.19C661.84,34.13,662.37,34.58,664.11,34.6Z"/><path d="M695.57,40.76c-1.6.18-2.53-.06-3.08-.61s-.57-1.45-.42-3c.26-2.61.31-5.3.63-7.86.42-3.37.63-3.35,1.06-6.66.29-2.41.64-4.77.93-7.17s.42-4.89.76-7.3c.33-2.57.76-3.94,1.65-4.75s2.24-1.26,4.81-1.62c1.5-.21,2.94-.36,4.45-.52s3-.21,4.51-.37a29.76,29.76,0,0,1,3-.57,2.19,2.19,0,0,1,2.3,1.82,2.78,2.78,0,0,1-.7,2.83c-.84.8-2,.76-3.08.91s-2,.39-3.07.54c-.83.11-1.67.12-2.48.29-1.14.16-2,.6-2.89.77a3.19,3.19,0,0,0-2.67,2.64,57.91,57.91,0,0,0-.81,6.62,2.08,2.08,0,0,0,.26,1.49,2.38,2.38,0,0,0,1.76.54c.73-.05,1.47-.36,2.2-.41a13.87,13.87,0,0,1,1.44-.21l.41-.05a19.84,19.84,0,0,1,2.67-.06,2.36,2.36,0,0,1,2.12,2,2.87,2.87,0,0,1-.71,3.14,6.58,6.58,0,0,1-3.07,1c-1.64.28-3.25.41-4.89.69-.15,0-.16,0-.32,0a4.09,4.09,0,0,0-3.63,4l-.12.28c0,.05,0,.06,0,.11-.36,2.26-.25,3.45.3,4s1.76.54,4,.27c.67-.09,1.3-.13,1.91-.21.83-.12,1.71-.19,2.59-.31a12.21,12.21,0,0,1,2.69.09,2.43,2.43,0,0,1,2.07,2,2.78,2.78,0,0,1-.87,2.8A5.72,5.72,0,0,1,708.56,39c-.21,0-.49-.14-.75-.1-3.19.45-3.17.6-6.31,1-.52.08-1,0-1.57.07s-1.29.13-1.91.21C697.2,40.38,696.4,40.7,695.57,40.76Z"/><path d="M744.71,3.59c1.45,1,2,2.23,1.44,3.53A3.29,3.29,0,0,1,742.26,9c-.48-.09-.86-.51-1.31-.71l-1.06-.48a7.89,7.89,0,0,0-5.42.65,7.51,7.51,0,0,0-3.6,3.92,4.3,4.3,0,0,0,0,3.78A4.22,4.22,0,0,0,734,18.22c.65.12,1.28.09,1.92.15a6.58,6.58,0,0,1,1,.18A9.21,9.21,0,0,1,741.55,20a6.72,6.72,0,0,1,2.91,3.84,13.8,13.8,0,0,1,.37,4.94,10.45,10.45,0,0,1-1.37,3.66,14.08,14.08,0,0,1-2.91,4,19.8,19.8,0,0,1-4.13,2.78,16,16,0,0,1-4.65,1.6,10.11,10.11,0,0,1-3.16,0,8.65,8.65,0,0,1-5.75-3.18,3.4,3.4,0,0,1-.44-2.72,2.56,2.56,0,0,1,4-2,4.77,4.77,0,0,1,1.41.7,5.75,5.75,0,0,0,5.46,1.12,8.09,8.09,0,0,0,5.35-4.9,3.72,3.72,0,0,0-2.95-5.31,9.73,9.73,0,0,0-1.91-.15c-.43-.05-.92-.14-1.39-.17a9,9,0,0,1-6.56-3.65,9.27,9.27,0,0,1-1.12-7.62,14.42,14.42,0,0,1,2.71-5.37,15.46,15.46,0,0,1,4.73-3.76,15.89,15.89,0,0,1,5.64-2.05l.08.2A9.4,9.4,0,0,1,744.71,3.59Z"/><path d="M757.86,39.4a2.53,2.53,0,0,1-1.61-2.46l.16,0c.09-.8.09-1.54.14-2.33.18-1.71.26-3.4.49-5.11.25-2,.72-3.88.92-5.8s.34-3.93.59-5.91.66-3.88.92-5.8l.69-5.88a10.9,10.9,0,0,1,.64-2.61,3.13,3.13,0,0,1,2.91-2,2,2,0,0,1,2.21,1.84,10.13,10.13,0,0,1,0,2c-.25,1.93-.35,3.83-.55,5.75s-.73,3.78-.94,5.7-.35,3.83-.56,5.69-.57,3.81-.82,5.74-.21,3.81-.41,5.73a24.69,24.69,0,0,1-.52,2.64,7.68,7.68,0,0,1-.85,1.8,3,3,0,0,1-2.12,1.35A2.36,2.36,0,0,1,757.86,39.4Z"/><path d="M782.06,28a9.73,9.73,0,0,0-.12,1.8,5.51,5.51,0,0,0,1.87,3.94A5.88,5.88,0,0,0,788.07,35a9.53,9.53,0,0,0,4.84-2.2,9.9,9.9,0,0,0,3-4.41,1.3,1.3,0,0,0-.06-1.15,1.4,1.4,0,0,0-1.08-.63,10.89,10.89,0,0,0-1.8-.07c-.52,0-1,.05-1.57,0a2.09,2.09,0,0,1-2.2-1.8,2.29,2.29,0,0,1,1.27-2.54,9.54,9.54,0,0,1,3.64-1,7.1,7.1,0,0,0,1.54-.58h.06s0,.11.06.1c.47,0,1-.19,1.45-.2a26.17,26.17,0,0,1,2.93-.05c1.52,0,2.27.84,2.43,2.39,0,.52.36,1,.28,1.59A20.09,20.09,0,0,1,801,30.76,17.21,17.21,0,0,1,797,36a20.56,20.56,0,0,1-5.33,3.9c-.25.14-.59-.07-.84,0a24,24,0,0,1-3,.74c-3.14.44-5.93,0-8-1.61a8.77,8.77,0,0,1-2.94-4.52,14.75,14.75,0,0,1-.66-5.42c.15-2.33.55-4.7.85-7s.54-4.75,1-7.08a18.32,18.32,0,0,1,2.1-5.23,16.9,16.9,0,0,1,3.48-4.42,17.14,17.14,0,0,1,4.9-2.85,15.23,15.23,0,0,1,5.45-1.18,9.88,9.88,0,0,1,6.63,1.9,9.47,9.47,0,0,1,3.06,6.14,6.5,6.5,0,0,1,.12,2.34,2.69,2.69,0,0,1-2.41,2.23,2.54,2.54,0,0,1-2.67-1.41c-.21-.34-.17-.81-.32-1.16a6.5,6.5,0,0,0-.35-1,6.38,6.38,0,0,0-3.36-3,5.9,5.9,0,0,0-4.39.19,12.44,12.44,0,0,0-4.65,3.12,9.78,9.78,0,0,0-2.11,5.18c-.27,1.46-.59,2.92-.8,4.42s-.09,3.06-.25,4.55Z"/><path d="M839.36,1a3,3,0,0,1,1.81,2.42s-.15.07-.2.08c0,.32.16.35.1.67,0,.58-.08,1.32-.14,2-.26,1.88-.47,3.75-.69,5.56s-.58,3.71-.79,5.57-.31,3.78-.53,5.59-.8,3.69-1,5.55-.26,3.72-.47,5.58c0,.17-.19.14-.17.29-.09.54-.17,1.07-.3,1.62a3.32,3.32,0,0,1-3,2.73s0,.16,0,.16a3.14,3.14,0,0,1-3.36-1.89A19.65,19.65,0,0,1,829,34c-.63-1.49-1.2-3-1.83-4.47-1-2.53-2.28-5-3.37-7.56a6.09,6.09,0,0,1-.25-1c-.52-1.45-.9-2.29-2-2.14l-.08-.14c-.92.13-.87,1.22-1,2.66,0,.36-.27.66-.33,1-.22,1.45-.33,2.88-.49,4.37L819.05,31c-.19,1.65-.27,3.34-.45,5a27.22,27.22,0,0,1-.64,3,3.21,3.21,0,0,1-2.52,2.56,3,3,0,0,1-2-.41,2.42,2.42,0,0,1-.89-1.45,10.51,10.51,0,0,1,.15-2.7c.25-1.93.46-3.85.66-5.77s.34-3.88.56-5.75.67-3.82.88-5.69.51-3.8.73-5.67.4-3.83.66-5.71a10.6,10.6,0,0,1,.79-3,3.08,3.08,0,0,1,5.69-.64,13.85,13.85,0,0,1,1.41,2.59c.13.19.18.18.26.38.85,1.93,1.49,3.89,2.34,5.81.57,1.4,1.28,2.77,1.85,4.16s1.17,2.77,1.79,4.16l.23.54c.36,1.05.75,1.58,1.51,1.42s.84-.75,1-1.71a2.24,2.24,0,0,1-.08-.57c.24-1.66.38-3.31.56-5l.72-5c.21-1.87.37-3.73.57-5.6a24.35,24.35,0,0,1,.75-2.57,2.89,2.89,0,0,1,1.24-2A2.45,2.45,0,0,1,839.36,1Z"/></svg>
