<?xml version="1.0" standalone="no"?>
<!DOCTYPE svg PUBLIC "-//W3C//DTD SVG 1.1//EN" "http://www.w3.org/Graphics/SVG/1.1/DTD/svg11.dtd" >
<svg>
<metadata>
Created by FontForge 20090622 at Tue Apr  7 05:28:16 2020
 By deploy user
Copyright (c) 2020 by Vintage Type Company. All rights reserved.
</metadata>
<defs>
<font id="VTCFellbaumGrotesk-Black" horiz-adv-x="809" >
  <font-face 
    font-family="VTC Fellbaum Grotesk"
    font-weight="900"
    font-stretch="normal"
    units-per-em="1000"
    panose-1="0 0 0 0 0 0 0 0 0 0"
    ascent="750"
    descent="-250"
    x-height="474"
    cap-height="677"
    bbox="-110 -209 1565 921"
    underline-thickness="50"
    underline-position="-50"
    unicode-range="U+000D-U+1F10C"
  />
<missing-glyph horiz-adv-x="676" 
d="M60 683h556v-689h-556v689zM385 568h-94l47 -95zM210 212l62 126l-62 127v-253zM291 109h94l-47 95zM466 212v253l-62 -127z" />
    <glyph glyph-name="db.01" unicode="&#x3a;&#x29;" horiz-adv-x="802" 
d="M401 686q143 0 244.5 -101.5t101.5 -244.5t-101.5 -244.5t-244.5 -101.5t-244.5 101.5t-101.5 244.5t101.5 244.5t244.5 101.5zM641 238q21 48 21 102q0 53 -21 101q-19 46 -56 83q-37 36 -83 56q-48 21 -101 21q-54 0 -102 -21q-47 -20 -83 -56q-34 -34 -56 -83
q-20 -49 -20 -101q0 -53 20 -102q22 -49 56 -83q36 -37 83 -56q49 -20 102 -20q52 0 101 20q46 19 83 56q37 36 56 83zM520 327v42h102v-85h-21q-15 -70 -71 -116t-129 -46t-129 46t-71 116h-22v85h102v-42q0 -49 35.5 -84.5t84.5 -35.5t84 35t35 85zM313 324q-7 8 -13 25
q-10 27 -10 71q0 45 10 72q13 37 38 37q14 0 24 -12q7 -7 14 -25q10 -27 10 -72v-2q-8 4 -14 4q-12 0 -20.5 -9t-8.5 -21t8.5 -21t20.5 -9q2 0 4.5 0.5t3.5 0.5q-1 -3 -2.5 -8t-1.5 -6q-13 -38 -38 -38q-14 0 -25 13zM439 324q-7 8 -13 25q-11 30 -11 71q0 42 11 72
q13 37 38 37q13 0 24 -12q9 -10 13 -25q11 -30 11 -72v-2q-8 4 -14 4q-12 0 -21 -9t-9 -21t9 -21t21 -9q2 0 4 0.5t4 0.5q-1 -2 -2.5 -7t-2.5 -7q-13 -38 -37 -38q-14 0 -25 13z" />
    <glyph glyph-name="db.02" unicode="&#x3c;&#x33;" horiz-adv-x="596" 
d="M425 558q49 0 82.5 -34.5t33.5 -84.5q0 -48 -25 -98.5t-61 -88t-71.5 -68.5t-60.5 -47l-25 -16q-10 6 -26.5 17t-58 45.5t-73.5 70t-58.5 86.5t-26.5 99q0 50 33.5 84.5t82.5 34.5q85 0 127 -89q42 89 127 89z" />
    <glyph glyph-name="db.03" unicode="&#x3c;&#x3c;&#x33;" horiz-adv-x="582" 
d="M489 519q38 -40 38 -94q0 -57 -37 -119q-28 -47 -75 -91q-23 -22 -49.5 -43t-40 -29.5l-16.5 -10.5l-18 -11l-18 11l-16.5 10.5t-40 29.5t-50.5 43q-45 43 -75 91q-36 60 -36 119q0 56 38 94q37 39 93 39q48 0 86 -29q7 -5 19 -17q12 12 18 17q38 29 86 29q55 0 94 -39z
M368 267q88 84 88 158q0 26 -17 45q-18 18 -44 18q-48 0 -72 -53l-32 -67l-32 67q-26 53 -73 53q-26 0 -43 -18q-18 -18 -18 -45q0 -74 90 -159q29 -28 76 -62q47 34 77 63z" />
    <glyph glyph-name="db.04" unicode="db&#x2e;&#x30;&#x31;" horiz-adv-x="799" 
d="M622 216l-111 111l-100 -100l111 -111l-122 -122l-123 122l111 111l-100 100l-111 -111l-122 122l122 123l111 -111l100 100l-111 111l123 122l122 -122l-111 -111l100 -100l111 111l122 -123z" />
    <glyph glyph-name="db.05" unicode="db&#x2e;&#x30;&#x32;" horiz-adv-x="799" 
d="M589 183l-95 95l-34 -34l95 -95l-155 -155l-156 155l95 95l-34 34l-95 -95l-155 155l155 156l95 -95l34 34l-95 95l156 155l155 -155l-95 -95l34 -34l95 95l155 -156zM589 391l-53 -53l53 -53l53 53zM210 285l53 53l-53 53l-53 -53zM400 96l52 53l-52 53l-53 -53z
M400 285l52 53l-52 53l-53 -53zM400 475l52 53l-52 53l-53 -53z" />
    <glyph glyph-name="db.06" unicode="db&#x2e;&#x30;&#x33;" horiz-adv-x="597" 
d="M385 268h157v-173h-173v157h-141v-157h-173v173h157v141h-157v173h173v-157h141v157h173v-173h-157v-141z" />
    <glyph glyph-name="db.07" unicode="db&#x2e;&#x30;&#x34;" horiz-adv-x="597" 
d="M542 314v-219h-219v134h-48v-134h-220v219h134v48h-134v220h220v-134h48v134h219v-220h-134v-48h134zM395 510v-75h75v75h-75zM127 435h75v75h-75v-75zM202 167v75h-75v-75h75zM261 301h75v75h-75v-75zM470 167v75h-75v-75h75z" />
    <glyph glyph-name="db.08" unicode="db&#x2e;&#x30;&#x37;" horiz-adv-x="799" 
d="M691 338q53 -31 53 -82q0 -39 -22 -60.5t-58 -21.5q-35 0 -66.5 20.5t-69 58t-57.5 52.5l-38 -39q14 -19 52 -56.5t58.5 -69t20.5 -66.5q0 -36 -21.5 -58t-60.5 -22q-51 0 -82 53q-33 -53 -83 -53q-39 0 -60.5 22t-21.5 58q0 35 20.5 66.5t58.5 69t52 56.5l-38 39
q-20 -15 -57.5 -52.5t-69 -58t-66.5 -20.5q-36 0 -58 21.5t-22 60.5q0 51 53 82q-53 33 -53 83q0 38 22.5 60t57.5 22t66.5 -20.5t69 -58t57.5 -52.5l38 38q-15 20 -52.5 57.5t-58 69t-20.5 66.5q0 36 21.5 58t60.5 22q51 0 82 -53q33 53 83 53q39 0 60.5 -22t21.5 -58
q0 -35 -20.5 -66.5t-58 -69t-52.5 -57.5l38 -38q20 15 57.5 52.5t69 58t66.5 20.5q36 0 58 -21.5t22 -60.5q0 -50 -53 -83z" />
    <glyph glyph-name="db.09" unicode="db&#x2e;&#x30;&#x38;" horiz-adv-x="799" 
d="M744 412q0 -41 -27 -74q27 -32 27 -73q0 -50 -31 -81q-32 -30 -78 -30q-37 0 -70 19q19 -33 19 -70q0 -46 -30 -78q-31 -31 -81 -31q-41 0 -73 27q-33 -27 -74 -27q-50 0 -81 31q-30 32 -30 78q0 37 19 70q-33 -19 -70 -19q-46 0 -78 30q-31 31 -31 81q0 41 27 73
q-27 33 -27 74q0 50 31 81q32 30 78 30q34 0 70 -19q-19 33 -19 70q0 47 30 77q30 32 81 32q42 0 73 -27q33 27 74 27q51 0 81 -32q30 -30 30 -77q0 -37 -19 -70q36 19 70 19q46 0 78 -30q31 -31 31 -81zM326 607q-35 0 -35 -33q0 -16 9.5 -33.5t19 -28.5t31.5 -33
q34 -34 49 -53q14 19 48 53q22 22 31.5 33t19 28.5t9.5 33.5q0 33 -35 33q-25 0 -41 -29l-32 -55l-33 55q-16 29 -41 29zM440 338l-40 41l-41 -41l41 -40zM164 230q15 0 32.5 9.5t29.5 19.5t33 31q34 34 53 48q-12 10 -53 48q-21 21 -33 31.5t-29 20t-33 9.5q-33 0 -33 -35
q0 -25 29 -41l55 -33l-55 -32q-29 -17 -29 -41q0 -35 33 -35zM473 70q35 0 35 33q0 15 -9.5 32.5t-19.5 29.5t-31 33q-34 34 -49 53q-14 -19 -48 -53q-21 -21 -31 -33t-19.5 -29.5t-9.5 -32.5q0 -33 35 -33q25 0 41 28l33 56l32 -56q16 -28 41 -28zM639 306l-55 32l55 33
q29 16 29 41q0 35 -33 35q-22 0 -43 -15t-52 -46q-41 -38 -53 -48q19 -14 53 -48q21 -21 33 -31t29.5 -19.5t32.5 -9.5q33 0 33 35q0 24 -29 41z" />
    <glyph glyph-name="db.10" unicode="db&#x2e;&#x30;&#x39;" horiz-adv-x="768" 
d="M687 268q25 -25 25.5 -56t-26.5 -59q-36 -36 -96 -20q15 -61 -21 -97q-28 -27 -58.5 -26.5t-55.5 25.5t-33 61.5t-8 90.5t-3 77h-54q-4 -25 -3.5 -78t-7.5 -89.5t-33 -61.5t-55.5 -25.5t-58.5 26.5q-36 36 -21 97q-60 -16 -96 20q-27 28 -27 59t25 56q26 25 62.5 33
t89.5 7.5t77 2.5v54q-24 4 -77 3.5t-90 7.5t-62 33t-25 55.5t27 59.5q36 36 96 20q-15 60 21 96q29 28 58.5 27.5t55.5 -25.5q25 -25 33 -61.5t7.5 -89.5t3.5 -78h54q3 23 3 77t8 90.5t33 61.5t55 25.5t59 -27.5q36 -36 21 -96q60 16 96 -20q27 -28 26.5 -59t-25.5 -56
t-61.5 -33t-89.5 -7.5t-78 -3.5v-54q24 -3 77.5 -2.5t90 -7.5t61.5 -33z" />
    <glyph glyph-name="db.11" unicode="db&#x2e;&#x31;&#x30;" horiz-adv-x="772" 
d="M683 302q33 -33 33 -76q1 -43 -35 -79q-28 -30 -71 -33q-3 -43 -33 -71q-36 -36 -79 -35q-43 0 -76 33q-26 26 -36 63q-11 -37 -37 -63q-33 -33 -75 -33q-44 -2 -80 35q-28 28 -33 71q-43 3 -71 33q-35 35 -35 79t34 76q24 26 62 36q-39 12 -62 37q-34 32 -34 75
q0 45 35 80q28 28 71 33q5 43 33 71q35 35 79 35t76 -34q25 -23 37 -62q10 38 36 62q32 34 76 34t79 -35q30 -28 33 -71q43 -5 71 -33q37 -36 35 -80q0 -42 -33 -75q-26 -26 -63 -37q37 -10 63 -36zM320 205q0 40 4 72q-24 -4 -72 -4q-85 0 -110 -24q-23 -23 1 -49
q18 -17 50 -8l62 16l-16 -62q-9 -33 8 -50q26 -24 49 -1q24 25 24 110zM252 404q40 0 72 -4q-4 32 -4 72q0 85 -24 110q-23 23 -49 -1q-17 -18 -8 -50l16 -62l-62 16q-32 9 -50 -8q-24 -26 -1 -49q11 -11 30.5 -16.5t34.5 -6.5t45 -1zM414 310v57h-57v-57h57zM451 472
q0 -48 -4 -72q32 4 72 4q30 0 45 1t34.5 6.5t30.5 16.5q23 23 -1 49q-17 17 -50 8l-62 -16l16 62q9 32 -8 50q-26 24 -49 1q-24 -25 -24 -110zM628 200q24 26 1 49q-25 24 -110 24q-48 0 -72 4q4 -24 4 -72q0 -85 24 -110q23 -23 49 1q17 17 8 50l-16 62l62 -16q33 -9 50 8z
" />
    <glyph glyph-name="db.12" unicode="db&#x2e;&#x31;&#x31;" horiz-adv-x="724" 
d="M514 382l155 86l-87 -267h-440l-87 267l155 -86l152 210zM142 85v69h440v-69h-440z" />
    <glyph glyph-name="db.13" unicode="db&#x2e;&#x31;&#x32;" horiz-adv-x="724" 
d="M615 494l54 -45l-86 -262h-443l-85 262l54 45l108 -60l114 158h61l115 -158zM529 262l39 120l-83 -46l-123 170l-124 -170l-82 46l39 -120h334zM149 85v75h426v-75h-426z" />
    <glyph glyph-name="db.14" unicode="db&#x2e;&#x31;&#x33;" horiz-adv-x="521" 
d="M55 683h411v-689l-206 95l-205 -95v689z" />
    <glyph glyph-name="db.15" unicode="db&#x2e;&#x31;&#x34;" horiz-adv-x="538" 
d="M55 683h428v-689l-214 99l-214 -99v689zM410 109v501h-282v-501l141 65z" />
    <glyph glyph-name="db.16" unicode="db&#x2e;&#x31;&#x35;" horiz-adv-x="1440" 
d="M1264 365h121v-53h-121l-264 -264l-140 140l-140 -140l-140 140l-140 -140l-264 264h-121v53h121l264 265l140 -140l140 140l140 -140l140 140zM720 554l-102 -102l102 -103l102 103zM440 124l102 102l-113 113l113 113l-102 102l-215 -215zM505 339l75 -75l75 75l-75 75
zM720 124l102 102l-102 102l-102 -102zM785 339l75 -75l75 75l-75 75zM1000 124l215 215l-215 215l-102 -102l113 -113l-113 -113z" />
    <glyph glyph-name="db.17" unicode="db&#x2e;&#x31;&#x36;" horiz-adv-x="1440" 
d="M1264 365h121v-53h-121l-264 -264l-140 140l-140 -140l-140 140l-140 -140l-264 264h-121v53h121l264 265l140 -140l140 140l140 -140l140 140zM542 226l-113 113l113 113l-102 102l-215 -215l215 -215zM720 124l102 102l-102 102l-102 -102zM720 349l102 103l-102 102
l-102 -102zM1000 124l215 215l-215 215l-102 -102l113 -113l-113 -113z" />
    <glyph glyph-name="db.18" unicode="db&#x2e;&#x31;&#x37;" horiz-adv-x="608" 
d="M341 461q-39 23 -70 57t-39 53q-18 41 -7.5 75.5t35.5 36.5q47 5 82 -60q2 -3 8.5 -20.5t17.5 -39.5t26 -41q23 -31 58 -57t66 -37q5 -2 6.5 -5.5t-1 -6.5t-8.5 -3q-35 -2 -84 10.5t-90 37.5zM515 265q4 0 7 -2t3.5 -4.5t-1.5 -5t-6 -3.5q-30 -10 -65.5 -37t-58.5 -58
q-15 -19 -26 -40t-18 -40t-8 -21q-35 -65 -82 -60q-25 2 -35.5 36.5t7.5 75.5q8 19 38.5 53t70.5 57q40 25 88.5 37.5t85.5 11.5zM541 351q11 -2 11 -12t-11 -13q-312 -85 -374 -85q-47 0 -79.5 28.5t-32.5 69.5t33 70t79 29q55 0 374 -87z" />
    <glyph glyph-name="db.19" unicode="db&#x2e;&#x31;&#x38;" horiz-adv-x="608" 
d="M93 413q-4 0 -7 2t-3.5 4t1.5 5t6 4q31 11 66 37t58 57q15 19 26 41t17.5 39.5t8.5 20.5q35 66 82 60q25 -2 35.5 -36.5t-7.5 -75.5q-8 -19 -39 -53t-70 -57q-41 -25 -90 -37.5t-84 -10.5zM442 438q46 0 78.5 -29t32.5 -70t-32.5 -69.5t-78.5 -28.5q-60 0 -375 85
q-11 3 -11 13t11 12q322 87 375 87zM267 216q40 -23 70.5 -57t38.5 -53q18 -41 7.5 -75.5t-35.5 -36.5q-47 -6 -82 60q-1 2 -8 21t-18 40t-26 40q-23 31 -58.5 58t-65.5 37q-5 1 -6.5 5t1 7t8.5 3q37 1 85.5 -11.5t88.5 -37.5z" />
    <glyph glyph-name="db.20" unicode="db&#x2e;&#x30;&#x35;" horiz-adv-x="799" 
d="M539 543l-139 -140l-140 140l140 140zM260 134l140 140l139 -140l-139 -140zM195 478l140 -140l-140 -140l-140 140zM604 478l140 -140l-140 -140l-140 140z" />
    <glyph glyph-name="db.21" unicode="db&#x2e;&#x30;&#x36;" horiz-adv-x="799" 
d="M564 519l-164 -164l-165 164l165 164zM400 577l-58 -58l58 -58l57 58zM235 158l165 164l164 -164l-164 -164zM400 100l57 58l-57 58l-58 -58zM219 502l164 -164l-164 -164l-164 164zM161 338l58 -58l58 58l-58 58zM580 502l164 -164l-164 -164l-164 164zM522 338l58 -58
l58 58l-58 58z" />
    <glyph glyph-name="fi" unicode="fi" horiz-adv-x="652" 
d="M265 480h312v-480h-164v346h-148v-346h-164v346h-56v134h56q0 88 62 145.5t146 57.5q52 0 93 -13t56 -26l16 -13l-47 -101q-32 19 -86 19q-30 0 -53 -19.5t-23 -49.5z" />
    <glyph glyph-name="fl" unicode="fl" horiz-adv-x="652" 
d="M449 650l128 33v-683h-164v346h-148v-346h-164v346h-56v134h56q0 88 62 145.5t146 57.5q83 0 140 -33zM413 480v57q-36 12 -72 12q-30 0 -53 -19.5t-23 -49.5h148z" />
    <glyph glyph-name="ffi" unicode="ffi" horiz-adv-x="923" 
d="M567 480h311v-480h-164v346h-147v-346h-164v346h-138v-346h-164v346h-56v134h56q0 88 62 145.5t146 57.5q108 0 164 -50q58 50 137 50q52 0 93.5 -13t56.5 -26l16 -13l-47 -101q-32 19 -86 19q-30 0 -53 -19.5t-23 -49.5zM403 480q0 34 8 58q-33 11 -70 11
q-30 0 -53 -19.5t-23 -49.5h138z" />
    <glyph glyph-name="ffl" unicode="ffl" horiz-adv-x="923" 
d="M750 650l128 33v-683h-164v346h-147v-346h-164v346h-138v-346h-164v346h-56v134h56q0 88 62 145.5t146 57.5q108 0 164 -50q58 50 137 50q85 0 140 -33zM403 480q0 34 8 58q-33 11 -70 11q-30 0 -53 -19.5t-23 -49.5h138zM714 480v57q-34 12 -71 12q-30 0 -53 -19.5
t-23 -49.5h147z" />
    <glyph glyph-name="fj" unicode="fj" horiz-adv-x="622" 
d="M265 480h312v-458q0 -110 -64 -170.5t-191 -60.5v133q91 0 91 98v324h-148v-346h-164v346h-56v134h56q0 88 62 145.5t146 57.5q52 0 93 -13t56 -26l16 -13l-47 -101q-32 19 -86 19q-30 0 -53 -19.5t-23 -49.5z" />
    <glyph glyph-name="tt" unicode="tt" horiz-adv-x="746" 
d="M616 480h85v-134h-85v-346h-164v346h-158v-346h-165v346h-84v134h84v197l165 42v-239h158v197l164 42v-239z" />
    <glyph glyph-name="ft" unicode="ft" horiz-adv-x="719" 
d="M590 480h84v-134h-84v-346h-165v346h-160v-346h-164v346h-56v134h56v22q0 84 46 132.5t108 48.5q37 0 69 -10.5t45 -21.5l13 -11l-47 -100q-13 9 -31 9q-32 0 -38 -69h159v103l165 42v-145z" />
    <glyph glyph-name="cw.the" unicode="cw&#x2e;the" horiz-adv-x="1145" 
d="M704 217q-3 -18 9.5 -27t30.5 -9l-16 -95q-68 0 -113.5 35.5t-34.5 95.5l11 61q13 76 -27 76q-39 0 -53 -76l-33 -188h-123l73 416h-41l16 91h164l-28 -159q31 12 69 12q52 0 88 -36.5t24 -104.5zM972 450q63 0 97.5 -46.5t22.5 -117.5l-11 -59h-190q-3 -21 15 -33.5
t40 -12.5q21 0 41.5 7t30.5 14l10 7l38 -80q-7 -5 -18.5 -12.5t-47 -19.5t-70.5 -12q-77 0 -124 41.5t-33 116.5l7 43q14 77 69.5 120.5t122.5 43.5zM984 308q9 46 -29 46q-19 0 -32.5 -13t-16.5 -33h78zM299 550l-19 -105h68l-17 -95h-68l-18 -102q-11 -67 24 -67
q8 0 14.5 2.5t9.5 5.5l3 3l31 -67l-11.5 -11t-32.5 -18t-52 -11q-50 0 -86.5 41t-25.5 102l21 122h-55l17 95q36 0 52.5 15.5t24.5 59.5z" />
    <glyph glyph-name="cw.of" unicode="cw&#x2e;of" horiz-adv-x="737" 
d="M390 287l-7 -43q-14 -76 -68.5 -117t-126.5 -41q-69 0 -110 46t-30 112l8 43q13 73 69.5 118t126.5 45t110.5 -45t27.5 -118zM264 268q6 37 -1.5 62t-27.5 25t-36 -24.5t-23 -62.5q-7 -37 1 -62t28 -25t36.5 25t22.5 62zM620 467l-4 -21h84l-17 -96h-84l-41 -231
q-24 -136 -139 -136q-20 0 -39 5.5t-28 11.5l-9 6l35 75q6 -3 18 -3q31 0 45 73l35 199h-48l17 96h48l3 21q12 66 45 100.5t83 34.5q25 0 47 -5.5t31 -10.5l10 -6l-36 -75q-7 2 -19 2q-31 0 -37 -40z" />
    <glyph glyph-name="cw.for" unicode="cw&#x2e;for" horiz-adv-x="1077" 
d="M624 450q70 0 110.5 -45t27.5 -118l-7 -43q-14 -76 -68.5 -117t-126.5 -41q-69 0 -110 46t-30 112l8 43q13 73 69.5 118t126.5 45zM636 268q6 37 -1.5 62t-27.5 25t-36 -24.5t-23 -62.5q-7 -37 1 -62t28 -25t36.5 25t22.5 62zM442 446l-17 -96h-84l-41 -231
q-24 -136 -139 -136q-20 0 -39 5.5t-28 11.5l-9 6l35 75q6 -3 18 -3q31 0 45 73l35 199h-48l17 96h48l3 21q12 66 45.5 100.5t83.5 34.5q25 0 46.5 -5.5t30.5 -10.5l10 -6l-36 -75q-7 2 -19 2q-31 0 -37 -40l-4 -21h84zM1024 450q13 0 26.5 -4t19.5 -8l7 -3l-45 -95
q-13 15 -36 15q-32 0 -42 -55l-37 -209h-124l47 263h-42l17 92h114l14 -31q33 35 81 35z" />
    <glyph glyph-name="cw.by" unicode="cw&#x2e;by" horiz-adv-x="846" 
d="M326 450q59 0 85.5 -41.5t11.5 -122.5l-8 -43q-13 -77 -61 -117t-122 -40q-64 0 -110.5 42.5t-33.5 114.5l47 263h-42l17 91h164l-33 -185q34 38 85 38zM299 281q12 73 -29 73t-55 -73l-4 -26q-13 -74 29 -74q41 0 54 74zM689 473q68 0 104 -41t25 -108l-45 -255
q-24 -136 -174 -136q-64 0 -107 38.5t-33 94.5h96q-3 -17 8.5 -27t31.5 -10q23 0 36.5 11t19.5 41l8 44q-15 -19 -60 -19q-50 0 -94.5 39.5t-34.5 100.5l19 107h-41l16 92h165l-30 -167q-13 -77 30 -77q44 0 57 77l11 64q8 35 -25 35z" />
    <glyph glyph-name="cw.and" unicode="cw&#x2e;and" horiz-adv-x="1338" 
d="M814 217q-3 -18 10 -27t31 -9l-17 -95q-67 0 -112.5 35.5t-34.5 95.5l11 61q13 76 -26 76q-41 0 -53 -76l-34 -188h-123l46 263h-41l16 92h115l12 -27q43 32 106 32q52 0 87.5 -36.5t23.5 -104.5zM404 217q-4 -17 7.5 -26.5t33.5 -9.5l-17 -95q-42 0 -67 14.5t-29 28.5
l-4 14l-3 -6t-11.5 -14t-21 -17.5t-33.5 -13.5t-48 -6q-57 0 -95 37.5t-29 90.5q20 112 212 112q3 14 -10 21t-35 7q-20 0 -40 -4.5t-30 -9.5l-11 -4l-35 74l17 11t50 18t83 11q53 0 99 -33.5t36 -92.5zM281 221l4 27q-71 0 -77 -34q-2 -13 6 -23t24 -10q17 0 28.5 11.5
t14.5 28.5zM1211 217q-3 -16 9.5 -26t31.5 -10l-17 -95q-44 0 -73.5 14.5t-37.5 28.5l-8 14l-3 -6t-10.5 -14t-19 -17.5t-30 -13.5t-42.5 -6q-57 0 -97.5 42.5t-27.5 117.5l8 43q28 161 138 161q28 0 50.5 -10t31.5 -20l8 -10l17 95h-42l17 92h164zM1101 281q13 73 -27 73
q-19 0 -34.5 -18.5t-21.5 -54.5l-5 -26q-6 -36 2.5 -55t27.5 -19q41 0 54 74z" />
    <glyph glyph-name="cw.with" unicode="cw&#x2e;with" horiz-adv-x="1615" 
d="M1524 217q-3 -17 9.5 -26.5t31.5 -9.5l-17 -95q-67 0 -112.5 35.5t-35.5 95.5l11 61q13 77 -26 77q-40 0 -54 -77l-33 -188h-123l73 416h-41l16 92h164l-28 -160q31 12 69 12q52 0 88 -36t24 -104zM1118 550l-19 -105h68l-17 -95h-67l-18 -102q-12 -67 23 -67q8 0 15 2.5
t9 5.5l3 3l31 -67l-11 -10.5t-32 -17.5t-52 -11q-50 0 -87 40.5t-26 102.5l21 121h-55l17 95q36 0 53 15.5t24 59.5zM727 480l22 122h136l-21 -122h-137zM828 217q-3 -18 10 -27t31 -9l-16 -96q-68 0 -113.5 36t-34.5 96l24 136h-41l16 92h165zM515 473q68 0 105.5 -35.5
t27.5 -93.5l-15 -86l-5 -30q-12 -70 -54 -106t-106 -36q-40 0 -70 12t-40 24l-11 13q-3 -5 -9.5 -13.5t-34.5 -22t-65 -13.5q-59 0 -102 41t-32 101l22 126h-41l16 92h165l-33 -188q-14 -77 23 -77t51 77l33 188h123l-33 -188q-13 -77 26 -77q40 0 53 77l15 84q3 17 -5 26.5
t-21 9.5z" />
    <glyph glyph-name="cw.in" unicode="cw&#x2e;in" horiz-adv-x="712" 
d="M646 217q-3 -17 9.5 -26.5t31.5 -9.5l-17 -95q-67 0 -112.5 35.5t-35.5 95.5l11 61q13 77 -26 77t-53 -77l-33 -188h-124l47 264h-42l17 92h114l13 -27q43 31 105 31q52 0 87.5 -36t23.5 -104zM124 480l22 122h136l-21 -122h-137zM225 217q-3 -17 10 -26.5t31 -9.5
l-16 -95q-68 0 -113.5 35.5t-34.5 95.5l24 137h-41l16 92h165z" />
    <glyph glyph-name=".notdef" horiz-adv-x="676" 
d="M60 683h556v-689h-556v689zM385 568h-94l47 -95zM210 212l62 126l-62 127v-253zM291 109h94l-47 95zM466 212v253l-62 -127z" />
    <glyph glyph-name=".null" horiz-adv-x="0" 
 />
    <glyph glyph-name="nonmarkingreturn" horiz-adv-x="333" 
 />
    <glyph glyph-name="NULL" horiz-adv-x="200" 
 />
    <glyph glyph-name="CR" unicode="&#xd;" horiz-adv-x="200" 
 />
    <glyph glyph-name="space" unicode=" " horiz-adv-x="200" 
 />
    <glyph glyph-name="exclam" unicode="!" horiz-adv-x="302" 
d="M75 172h172v-172h-172v172zM213 206h-103l-35 354v117h172v-117z" />
    <glyph glyph-name="quotedbl" unicode="&#x22;" horiz-adv-x="380" 
d="M66 474l-41 203h153l-42 -203h-70zM202 677h153l-41 -203h-71z" />
    <glyph glyph-name="numbersign" unicode="#" horiz-adv-x="644" 
d="M584 371h-99l-8 -72h87v-115h-99l-20 -184h-128l20 184h-65l-20 -184h-128l20 184h-84v115h97l7 72h-94v115h107l20 185h128l-20 -185h65l20 185h128l-20 -185h86v-115zM349 299l8 72h-65l-7 -72h64z" />
    <glyph glyph-name="dollar" unicode="$" horiz-adv-x="469" 
d="M229 446q0 -19 18.5 -35.5t45 -31t53 -33t45 -49t18.5 -69.5q0 -58 -32 -96.5t-86 -52.5v-85h-112v82q-32 5 -61.5 16.5t-43.5 19.5l-14 9l49 105q39 -30 95 -30q46 0 46 35q0 19 -18.5 36.5t-45 33.5t-53 35.5t-45 51t-18.5 71.5q0 45 30.5 79.5t78.5 50.5v88h112v-81
q32 -4 58.5 -15t36.5 -19l11 -9l-47 -101q-29 23 -76 23q-45 0 -45 -29z" />
    <glyph glyph-name="percent" unicode="%" horiz-adv-x="990" 
d="M745 353q76 0 130.5 -49.5t54.5 -129.5t-54.5 -130t-130.5 -50t-130.5 50t-54.5 130t54.5 129.5t130.5 49.5zM745 112q25 0 41 16.5t16 45.5q0 28 -16 44.5t-41 16.5t-41 -16.5t-16 -44.5q0 -29 16 -45.5t41 -16.5zM429 503q0 -80 -54 -130t-130 -50t-130.5 50t-54.5 130
t54.5 130t130.5 50t130 -50t54 -130zM245 441q25 0 41 16.5t16 45.5t-16 45.5t-41 16.5t-41.5 -16.5t-16.5 -45.5t16.5 -45.5t41.5 -16.5zM544 677h135l-234 -677h-134z" />
    <glyph glyph-name="ampersand" unicode="&#x26;" horiz-adv-x="685" 
d="M555 172l70 -52l-72 -104l-64 49q-71 -71 -181 -71q-106 0 -177 58t-71 151q0 95 95 157q-54 76 -54 147q0 84 59 130t149 46q91 0 150 -46t59 -130q0 -103 -139 -194l66 -56q9 36 9 78h127q0 -91 -26 -163zM309 556q-20 0 -31.5 -13.5t-11.5 -35.5q0 -49 31 -99
q56 46 56 99q0 22 -11.5 35.5t-32.5 13.5zM314 121q38 0 69 25q-76 58 -139 115q-20 -23 -20 -58q0 -37 25.5 -59.5t64.5 -22.5z" />
    <glyph glyph-name="quotesingle" unicode="'" horiz-adv-x="203" 
d="M25 677h153l-42 -203h-70z" />
    <glyph glyph-name="parenleft" unicode="(" horiz-adv-x="426" 
d="M229 237q0 -62 13.5 -117.5t33 -90.5t39 -61.5t33.5 -37.5l13 -12l-60 -127q-10 5 -25.5 16t-56.5 50.5t-72 86.5t-56.5 126t-25.5 167q0 64 13 123.5t34 102.5t46 81t50 62.5t46 42.5t34 26l13 8l60 -127q-5 -4 -14 -12t-32 -37t-40 -62.5t-31.5 -89.5t-14.5 -118z" />
    <glyph glyph-name="parenright" unicode=")" horiz-adv-x="426" 
d="M125 683q10 -5 25.5 -16t56.5 -50.5t72 -86.5t56.5 -126t25.5 -167q0 -64 -13 -123.5t-34 -102.5t-46 -81t-50 -62.5t-46 -42.5t-34 -26l-13 -8l-60 127q5 4 14 12t31.5 37t40 62.5t31.5 89.5t14 118t-13.5 117.5t-33 90.5t-38.5 61.5t-33 37.5l-13 12z" />
    <glyph glyph-name="asterisk" unicode="*" horiz-adv-x="332" 
d="M287 595l-60 -37l60 -37l-34 -54l-55 34v-62h-64v62l-56 -34l-33 54l60 37l-60 37l33 54l56 -34v62h64v-62l55 34z" />
    <glyph glyph-name="plus" unicode="+" horiz-adv-x="430" 
d="M279 304h91v-128h-91v-91h-128v91h-91v128h91v92h128v-92z" />
    <glyph glyph-name="comma" unicode="," horiz-adv-x="335" 
d="M118 172h172l-145 -345h-120z" />
    <glyph glyph-name="hyphen" unicode="-" horiz-adv-x="360" 
d="M60 304h240v-128h-240v128z" />
    <glyph glyph-name="period" unicode="." horiz-adv-x="262" 
d="M45 172h172v-172h-172v172z" />
    <glyph glyph-name="slash" unicode="/" horiz-adv-x="402" 
d="M211 683h131l-152 -689h-130z" />
    <glyph glyph-name="zero" unicode="0" horiz-adv-x="578" 
d="M289 486q46 0 87.5 -14t77.5 -42t57.5 -77t21.5 -113t-21.5 -113t-57.5 -77t-77.5 -42t-87.5 -14t-87.5 14t-77.5 42t-57.5 77t-21.5 113t21.5 113t57.5 77t77.5 42t87.5 14zM289 121q37 0 58.5 30.5t21.5 88.5t-21.5 88.5t-58.5 30.5t-58.5 -30.5t-21.5 -88.5
t21.5 -88.5t58.5 -30.5z" />
    <glyph glyph-name="one" unicode="1" horiz-adv-x="313" 
d="M45 430l223 56v-486h-164v318l-59 -15v127z" />
    <glyph glyph-name="two" unicode="2" horiz-adv-x="490" 
d="M289 127h156v-127h-340l-60 127l45.5 28l47.5 28.5t41.5 26.5t39 29t28 26.5t21 28t6.5 26.5q0 18 -14 28.5t-38 10.5q-19 0 -44 -8.5t-41 -16.5l-16 -8l-49 104q9 6 24.5 15.5t61 25t87.5 15.5q78 0 135.5 -44t57.5 -119q0 -32 -10.5 -59t-36 -53t-44 -40.5t-58.5 -43.5
z" />
    <glyph glyph-name="three" unicode="3" horiz-adv-x="459" 
d="M321 198q4 -1 10 -4t22 -15.5t28.5 -27.5t22.5 -42t10 -58q0 -49 -32 -93.5t-78 -73.5t-92.5 -51t-78.5 -32l-32 -10l-56 120q8 2 22 6.5t49.5 20.5t62.5 33t49 44.5t22 56.5q0 28 -21 43.5t-53 4.5l-18 -7l-46 99q77 34 101.5 52.5t24.5 46.5q0 19 -13.5 33.5
t-36.5 14.5q-22 0 -43 -8.5t-31 -16.5l-10 -8l-49 104l21.5 15.5t55.5 25t83 15.5q85 0 136 -43t51 -117q0 -28 -8.5 -51t-20 -37t-23.5 -23.5t-20 -12.5z" />
    <glyph glyph-name="four" unicode="4" horiz-adv-x="586" 
d="M470 140h71v-127h-71v-216h-164v216h-201l-60 127l211 340h214v-340zM306 140v194l-116 -194h116z" />
    <glyph glyph-name="five" unicode="5" horiz-adv-x="496" 
d="M267 239q77 0 130.5 -48t53.5 -131q0 -62 -35 -112t-84.5 -78t-99 -47t-84.5 -25l-35 -7l-56 120q9 2 24.5 6t55.5 18.5t70 30.5t55 41.5t25 52.5q0 22 -15 37t-39 15q-25 0 -47.5 -7t-31.5 -13l-10 -7l-99 99l16 296h344v-127h-183l-6 -119q25 5 51 5z" />
    <glyph glyph-name="six" unicode="6" horiz-adv-x="562" 
d="M320 399q85 0 141 -56.5t56 -146.5q0 -91 -66.5 -146.5t-161.5 -55.5q-102 0 -173 61.5t-71 171.5q0 70 18 133t47 107.5t63.5 81.5t69.5 60t64 39t47 22l18 7l60 -127q-5 -2 -14 -6t-35 -19t-49.5 -33t-52 -47.5t-48.5 -62.5q40 17 87 17zM281 121q30 0 50.5 19.5
t20.5 55.5t-20.5 55.5t-50.5 19.5t-51 -19.5t-21 -55.5t21 -55.5t51 -19.5z" />
    <glyph glyph-name="seven" unicode="7" horiz-adv-x="465" 
d="M45 480h375v-137q-7 -8 -18 -23t-39 -68t-50 -111.5t-39.5 -152t-17.5 -191.5h-164q0 104 17.5 199t42 155.5t49.5 106t43 65.5l17 20h-216v137z" />
    <glyph glyph-name="eight" unicode="8" horiz-adv-x="543" 
d="M409 355q4 -1 10 -4.5t21 -16t27 -28.5t21.5 -44.5t9.5 -61.5q0 -99 -64.5 -152.5t-161.5 -53.5q-98 0 -162.5 53.5t-64.5 152.5q0 33 9 61.5t22.5 45t26.5 28t22 15.5l9 5l-8.5 5.5t-19 16.5t-23.5 27.5t-18.5 38t-8.5 48.5q0 87 60 136.5t156 49.5q95 0 155 -49.5
t60 -136.5q0 -40 -19.5 -74t-39.5 -48zM272 550q-52 0 -52 -66t52 -66q51 0 51 66t-51 66zM272 121q29 0 45.5 22.5t16.5 62.5t-16.5 62.5t-45.5 22.5t-46 -22.5t-17 -62.5t17 -62.5t46 -22.5z" />
    <glyph glyph-name="nine" unicode="9" horiz-adv-x="562" 
d="M278 486q101 0 170 -70.5t69 -194.5q0 -65 -16 -124t-41.5 -101t-56 -78t-61 -58.5t-56 -38.5t-41.5 -23l-16 -7l-60 127q9 2 24 7.5t52 32t65 63.5q-21 -8 -53 -8q-50 0 -97 24t-81 79.5t-34 132.5q0 115 68.5 176t164.5 61zM281 140q30 0 50.5 29t20.5 80t-20.5 80.5
t-50.5 29.5t-51 -29.5t-21 -80.5q0 -50 21 -79.5t51 -29.5z" />
    <glyph glyph-name="colon" unicode=":" horiz-adv-x="292" 
d="M60 0v172h172v-172h-172zM60 480h172v-173h-172v173z" />
    <glyph glyph-name="semicolon" unicode=";" horiz-adv-x="335" 
d="M25 -173l93 345h172l-145 -345h-120zM118 480h172v-173h-172v173z" />
    <glyph glyph-name="less" unicode="&#x3c;" horiz-adv-x="435" 
d="M385 396l-161 -155l161 -155l-58 -122l-277 277l277 277z" />
    <glyph glyph-name="equal" unicode="=" horiz-adv-x="385" 
d="M85 46v128h240v-128h-240zM85 350h240v-127h-240v127z" />
    <glyph glyph-name="greater" unicode="&#x3e;" horiz-adv-x="435" 
d="M107 518l278 -277l-278 -277l-57 122l161 155l-161 155z" />
    <glyph glyph-name="question" unicode="?" horiz-adv-x="469" 
d="M265 327q24 0 47 6t34 12l10 6l43 -91l-6.5 -6.5t-20.5 -14.5t-33.5 -18t-46 -14.5t-59.5 -6.5q-67 0 -116 40.5t-49 99.5q0 41 19.5 71t47.5 44.5t56 25.5t47.5 22t19.5 26q0 27 -48 27q-28 0 -55 -6t-41 -12l-13 -6l-46 97q7 6 20 15t59 24t98 15q76 0 129 -40t53 -102
q0 -50 -29.5 -86t-65.5 -51t-65.5 -29t-29.5 -27q0 -21 41 -21zM147 0v172h173v-172h-173z" />
    <glyph glyph-name="at" unicode="@" horiz-adv-x="819" 
d="M470 597q94 0 165.5 -49t102.5 -128t16 -167q-17 -97 -55 -145.5t-104 -48.5q-30 0 -53.5 7t-36.5 17.5t-22 20.5t-11 17l-3 7q-1 -3 -3.5 -7.5t-12.5 -16.5t-22.5 -21t-33.5 -16.5t-46 -7.5q-73 0 -118 52.5t-29 141.5q16 92 80.5 143t160.5 51q40 0 84 -12t68 -24
l24 -12l-33 -190q-19 -105 27 -105q67 0 94 149q22 125 -48.5 215.5t-198.5 90.5q-127 0 -228 -89t-124 -217q-22 -123 51.5 -214.5t193.5 -91.5q33 0 71.5 7t60.5 14l22 7l16 -35q-78 -32 -177 -32q-61 0 -118 27t-97.5 72.5t-60 110.5t-7.5 135q26 151 140.5 247.5
t264.5 96.5zM446 253l11 63q-9 16 -31 16t-44 -21.5t-28 -57.5q-7 -38 2 -58.5t30 -20.5t37 20.5t23 58.5z" />
    <glyph glyph-name="A" unicode="A" horiz-adv-x="629" 
d="M423 677l151 -677h-176l-21 101h-134l-21 -101h-167l151 677h217zM270 234h80l-40 194z" />
    <glyph glyph-name="B" unicode="B" horiz-adv-x="583" 
d="M439 362q4 -1 10 -4.5t21 -16t27 -29t21.5 -46t9.5 -63.5q0 -203 -246 -203h-227v677h204q115 0 181 -45.5t66 -142.5q0 -42 -17 -74t-33 -43zM227 543v-121h32q74 0 74 61q0 60 -74 60h-32zM282 134q74 0 74 77t-74 77h-55v-154h55z" />
    <glyph glyph-name="C" unicode="C" horiz-adv-x="528" 
d="M449 155l49 -104q-5 -6 -16 -15.5t-51.5 -25.5t-89.5 -16q-125 0 -205.5 78.5t-80.5 237.5v57q0 85 24 148.5t65 98.5t88.5 52t101.5 17q50 0 90 -15.5t55 -31.5l15 -15l-49 -104q-26 32 -85 32q-61 0 -97 -53.5t-36 -157.5q0 -105 37 -158t105 -53q25 0 45 7t28 14z" />
    <glyph glyph-name="D" unicode="D" horiz-adv-x="583" 
d="M319 677q40 0 75.5 -17t66 -52t49 -97t18.5 -144v-57q0 -82 -18.5 -144t-49.5 -97t-66.5 -52t-75.5 -17h-263v677h264zM266 134q90 0 90 204q0 205 -89 205h-40v-409h39z" />
    <glyph glyph-name="E" unicode="E" horiz-adv-x="434" 
d="M379 543h-152v-114h115v-134h-115v-161h152v-134h-324v677h324v-134z" />
    <glyph glyph-name="F" unicode="F" horiz-adv-x="458" 
d="M403 543h-176v-159h146v-133h-146v-251h-172v677h348v-134z" />
    <glyph glyph-name="G" unicode="G" horiz-adv-x="592" 
d="M304 410h233v-288q-2 -5 -6.5 -13.5t-23 -31t-41.5 -39t-63 -30.5t-87 -14q-113 0 -187 80t-74 236v57q0 147 81.5 231.5t201.5 84.5q52 0 95.5 -14t61.5 -28l18 -14l-49 -104q-34 26 -99 26q-138 0 -138 -211q0 -104 23.5 -157.5t61.5 -53.5q16 0 29 9.5t19 19.5l5 9
v111h-61v134z" />
    <glyph glyph-name="H" unicode="H" horiz-adv-x="579" 
d="M351 677h173v-677h-173v278h-124v-278h-172v677h172v-266h124v266z" />
    <glyph glyph-name="I" unicode="I" horiz-adv-x="282" 
d="M55 677h172v-677h-172v677z" />
    <glyph glyph-name="J" unicode="J" horiz-adv-x="462" 
d="M234 677h173v-465q0 -104 -55 -161t-131 -57q-47 0 -88.5 11t-59.5 23l-18 11l54 115q30 -27 64 -27q61 0 61 140v410z" />
    <glyph glyph-name="K" unicode="K" horiz-adv-x="604" 
d="M412 444l137 -444h-181l-73 235l-68 -122v-113h-172v677h172v-235l137 235h179z" />
    <glyph glyph-name="L" unicode="L" horiz-adv-x="432" 
d="M227 134h150v-134h-322v677h172v-543z" />
    <glyph glyph-name="M" unicode="M" horiz-adv-x="796" 
d="M696 677l45 -677h-181l-23 414l-77 -420h-140l-73 400l-24 -394h-168l45 677h244l52 -282l53 282h247z" />
    <glyph glyph-name="N" unicode="N" horiz-adv-x="591" 
d="M368 677h168v-683h-168l-145 294v-288h-168v677h168l145 -294v294z" />
    <glyph glyph-name="O" unicode="O" horiz-adv-x="612" 
d="M306 683q111 0 181 -79.5t70 -236.5v-57q0 -157 -69.5 -236.5t-181.5 -79.5t-181.5 79t-69.5 237v57q0 157 69.5 236.5t181.5 79.5zM306 127q36 0 57 53.5t21 157.5t-21 157.5t-57 53.5t-57.5 -53.5t-21.5 -157.5t21.5 -157.5t57.5 -53.5z" />
    <glyph glyph-name="P" unicode="P" horiz-adv-x="577" 
d="M314 677q94 0 151 -58.5t57 -159.5q0 -102 -57 -160t-151 -58h-87v-241h-172v677h259zM289 374q61 0 61 85q0 84 -61 84h-62v-169h62z" />
    <glyph glyph-name="Q" unicode="Q" horiz-adv-x="612" 
d="M306 683q111 0 181 -79.5t70 -236.5v-57q0 -123 -43.5 -198.5t-119.5 -103.5q6 -48 50 -48h12v-133h-12q-93 0 -153 47.5t-70 132.5q-77 26 -121.5 102t-44.5 201v57q0 157 69.5 236.5t181.5 79.5zM306 127q36 0 57 53.5t21 157.5t-21 157.5t-57 53.5t-57.5 -53.5
t-21.5 -157.5t21.5 -157.5t57.5 -53.5z" />
    <glyph glyph-name="R" unicode="R" horiz-adv-x="573" 
d="M431 282l87 -282h-168l-77 251h-46v-251h-172v677h259q91 0 147 -56t56 -157q0 -127 -86 -182zM283 384q61 0 61 80q0 79 -61 79h-56v-159h56z" />
    <glyph glyph-name="S" unicode="S" horiz-adv-x="497" 
d="M243 500q0 -22 20.5 -48.5t49.5 -54.5t58.5 -59.5t50 -74.5t20.5 -88q0 -87 -58.5 -134t-141.5 -47q-52 0 -99 15t-67 30l-21 15l54 115q51 -42 104 -42q27 0 41.5 12.5t14.5 34.5q0 24 -20.5 51.5t-49.5 55.5t-58.5 59.5t-50 76t-20.5 92.5q0 75 56.5 124.5t135.5 49.5
q49 0 91.5 -13.5t60.5 -27.5l18 -13l-49 -104q-35 24 -79 24q-26 0 -43.5 -13t-17.5 -36z" />
    <glyph glyph-name="T" unicode="T" horiz-adv-x="507" 
d="M55 677h397v-134h-112v-543h-173v543h-112v134z" />
    <glyph glyph-name="U" unicode="U" horiz-adv-x="577" 
d="M350 677h172v-439q0 -126 -64 -185t-169 -59t-169.5 59t-64.5 185v439h172v-380q0 -91 15 -130.5t47 -39.5t46.5 39t14.5 131v380z" />
    <glyph glyph-name="V" unicode="V" horiz-adv-x="629" 
d="M407 677h167l-151 -677h-217l-151 677h176l88 -428z" />
    <glyph glyph-name="W" unicode="W" horiz-adv-x="899" 
d="M676 677h168l-123 -677h-224l-45 272l-45 -272h-229l-123 677h181l68 -414l69 414h167l69 -411z" />
    <glyph glyph-name="X" unicode="X" horiz-adv-x="581" 
d="M398 339l128 -339h-184l-56 146l-52 -146h-179l131 346l-125 331h184l52 -138l49 138h179z" />
    <glyph glyph-name="Y" unicode="Y" horiz-adv-x="643" 
d="M409 677h179l-179 -440v-237h-173v232l-181 445h184l86 -237z" />
    <glyph glyph-name="Z" unicode="Z" horiz-adv-x="445" 
d="M390 677v-140l-157 -403h157v-134h-335v1v138l157 404h-154v134h332z" />
    <glyph glyph-name="bracketleft" unicode="[" horiz-adv-x="401" 
d="M341 550h-117v-626h117v-127h-281v880h281v-127z" />
    <glyph glyph-name="backslash" unicode="\" horiz-adv-x="402" 
d="M190 683l152 -689h-131l-151 689h130z" />
    <glyph glyph-name="bracketright" unicode="]" horiz-adv-x="401" 
d="M60 677h281v-880h-281v127h117v626h-117v127z" />
    <glyph glyph-name="asciicircum" unicode="^" horiz-adv-x="383" 
d="M266 671l82 -93h-116l-40 49l-41 -49h-116l82 93h149z" />
    <glyph glyph-name="underscore" unicode="_" horiz-adv-x="548" 
d="M55 121h438v-127h-438v127z" />
    <glyph glyph-name="grave" unicode="`" horiz-adv-x="277" 
d="M179 649l63 -121h-118l-89 121h144z" />
    <glyph glyph-name="a" unicode="a" horiz-adv-x="524" 
d="M330 474h149v-474h-146l-18 44q-4 -6 -13 -14t-39 -22t-64 -14q-67 0 -110.5 55.5t-43.5 158.5v58q0 103 43.5 158.5t110.5 55.5q34 0 63 -12.5t41 -25.5l12 -12zM265 127q27 0 41.5 30.5t14.5 79.5t-14.5 79t-41.5 30t-41.5 -30t-14.5 -79t14.5 -79.5t41.5 -30.5z" />
    <glyph glyph-name="b" unicode="b" horiz-adv-x="524" 
d="M325 480q63 0 108.5 -56.5t45.5 -157.5v-58q0 -102 -45.5 -158t-108.5 -56q-32 0 -61 12.5t-42 25.5l-13 12l-18 -44h-146v677l164 42v-289q5 6 14 14t39.5 22t62.5 14zM259 127q27 0 41.5 30.5t14.5 79.5t-14.5 79t-41.5 30t-41.5 -30t-14.5 -79t14.5 -79.5t41.5 -30.5z
" />
    <glyph glyph-name="c" unicode="c" horiz-adv-x="430" 
d="M290 127q15 0 27 3.5t17 7.5l5 4l45 -95q-2 -2 -5 -5.5t-15 -13t-26 -16.5t-37 -12.5t-49 -5.5q-89 0 -148 61.5t-59 152.5v58q0 95 56.5 154.5t145.5 59.5q27 0 51.5 -6t39.5 -15t26.5 -18t15.5 -15l5 -6l-45 -96q-21 22 -54 22q-34 0 -55.5 -27t-21.5 -82
q0 -110 81 -110z" />
    <glyph glyph-name="d" unicode="d" horiz-adv-x="524" 
d="M315 677l164 42v-719h-146l-18 44q-4 -6 -11.5 -14t-37.5 -22t-67 -14q-63 0 -108.5 56t-45.5 158v58q0 101 45.5 157.5t108.5 56.5q37 0 66 -12.5t39 -25.5l11 -12v247zM265 127q56 0 56 110q0 109 -56 109t-56 -109q0 -110 56 -110z" />
    <glyph glyph-name="e" unicode="e" horiz-adv-x="503" 
d="M458 262v-72h-249q4 -30 31 -49.5t64 -19.5q22 0 43.5 8.5t32.5 16.5l10 8l48 -102q-6 -6 -18.5 -16t-58 -26t-99.5 -16q-79 0 -148 55.5t-69 154.5v58q0 102 65 160t152 58q81 0 138.5 -62.5t57.5 -155.5zM209 273h105q0 80 -52 80q-25 0 -39 -21.5t-14 -58.5z" />
    <glyph glyph-name="f" unicode="f" horiz-adv-x="427" 
d="M304 549q-32 0 -38 -69h103v-134h-104v-346h-164v346h-56v134h56v22q0 84 46 132.5t108 48.5q37 0 69 -10.5t45 -21.5l13 -11l-47 -100q-13 9 -31 9z" />
    <glyph glyph-name="g" unicode="g" horiz-adv-x="524" 
d="M330 474h149v-509q0 -89 -60 -131.5t-144 -42.5q-85 0 -145 42.5t-60 131.5h144q0 -20 14 -30.5t36 -10.5t36.5 11t14.5 30v79q-4 -6 -11.5 -14t-37.5 -22t-67 -14q-63 0 -108.5 56t-45.5 158v58q0 101 45.5 157.5t108.5 56.5q37 0 66 -12.5t39 -25.5l11 -12zM265 127
q27 0 41.5 29.5t14.5 80.5t-14.5 80t-41.5 29t-41.5 -29t-14.5 -80t14.5 -80.5t41.5 -29.5z" />
    <glyph glyph-name="h" unicode="h" horiz-adv-x="524" 
d="M325 480q64 0 109 -47t45 -140v-293h-164v200q0 146 -53 146t-53 -146v-200h-164v677l164 42v-289q4 6 13 14t39 22t64 14z" />
    <glyph glyph-name="i" unicode="i" horiz-adv-x="272" 
d="M54 0v474h164v-474h-164zM45 706h182v-163h-182v163z" />
    <glyph glyph-name="j" unicode="j" horiz-adv-x="354" 
d="M136 22v452h164v-452q0 -110 -64 -170.5t-191 -60.5v133q91 0 91 98zM127 706h182v-163h-182v163z" />
    <glyph glyph-name="k" unicode="k" horiz-adv-x="521" 
d="M379 313l97 -313h-159l-38 141l-82 -141h-152v677l164 42v-429l94 184h170z" />
    <glyph glyph-name="l" unicode="l" horiz-adv-x="259" 
d="M45 677l164 42v-719h-164v677z" />
    <glyph glyph-name="m" unicode="m" horiz-adv-x="794" 
d="M595 480q67 0 110.5 -53.5t43.5 -136.5v-290h-164v229q0 117 -53 117t-53 -117v-229h-164v229q0 117 -53 117t-53 -117v-229h-164v474h149l15 -44q5 6 14.5 14t43.5 22t74 14q22 0 41 -6.5t31 -16t20 -19.5t11 -16l4 -7q5 7 15 18t48 29t84 18z" />
    <glyph glyph-name="n" unicode="n" horiz-adv-x="524" 
d="M335 480q63 0 103.5 -46.5t40.5 -140.5v-293h-164v207q0 146 -53 146t-53 -146v-207h-164v474h149l15 -44q5 6 14 14t41.5 22t70.5 14z" />
    <glyph glyph-name="o" unicode="o" horiz-adv-x="536" 
d="M268 480q94 0 158.5 -57t64.5 -161v-58q0 -98 -64.5 -154t-158.5 -56t-158.5 56t-64.5 154v58q0 104 64.5 161t158.5 57zM268 127q28 0 43.5 29t15.5 81t-15.5 80.5t-43.5 28.5t-43.5 -28.5t-15.5 -80.5t15.5 -81t43.5 -29z" />
    <glyph glyph-name="p" unicode="p" horiz-adv-x="524" 
d="M325 480q63 0 108.5 -56.5t45.5 -157.5v-58q0 -102 -45.5 -158t-108.5 -56q-38 0 -67 12.5t-39 25.5l-10 12v-247h-164v677h149l15 -44q1 2 3.5 5.5t12.5 12t22 15t33 12t45 5.5zM259 127q56 0 56 110q0 109 -56 109t-56 -109q0 -110 56 -110z" />
    <glyph glyph-name="q" unicode="q" horiz-adv-x="524" 
d="M330 474h149v-677h-164v247q-1 -2 -3.5 -5.5t-12.5 -12t-22 -15t-33 -12t-45 -5.5q-63 0 -108.5 56t-45.5 158v58q0 101 45.5 157.5t108.5 56.5q38 0 67 -12.5t39 -25.5l10 -12zM265 127q56 0 56 110q0 109 -56 109t-56 -109q0 -110 56 -110z" />
    <glyph glyph-name="r" unicode="r" horiz-adv-x="426" 
d="M306 480q18 0 36.5 -5t28.5 -11l10 -5l-59 -126q-18 13 -46 13q-67 0 -67 -116v-230h-164v474h148l16 -57q4 7 12 17.5t33.5 28t51.5 17.5z" />
    <glyph glyph-name="s" unicode="s" horiz-adv-x="429" 
d="M215 326q0 -11 26.5 -26.5l58 -32.5t58 -52t26.5 -80q0 -66 -48 -103.5t-122 -37.5q-48 0 -90 15t-60 30l-19 15l49 104q36 -31 92 -31q34 0 34 21q0 12 -26.5 27t-58 30.5t-58 51.5t-26.5 84q0 65 48.5 102t120.5 37q45 0 81 -13.5t50 -26.5l14 -14l-46 -98
q-26 18 -65 18t-39 -20z" />
    <glyph glyph-name="t" unicode="t" horiz-adv-x="423" 
d="M294 480h84v-134h-84v-346h-165v346h-84v134h84v197l165 42v-239z" />
    <glyph glyph-name="u" unicode="u" horiz-adv-x="519" 
d="M310 474h164v-474h-149l-15 44q-5 -6 -14 -14t-41.5 -22t-70.5 -14q-63 0 -103.5 46.5t-40.5 140.5v293h164v-207q0 -146 53 -146t53 146v207z" />
    <glyph glyph-name="v" unicode="v" horiz-adv-x="561" 
d="M355 474h161l-123 -474h-225l-123 474h170l72 -292z" />
    <glyph glyph-name="w" unicode="w" horiz-adv-x="777" 
d="M578 474h154l-107 -474h-202l-35 161l-35 -161h-203l-105 474h168l54 -290l54 290h149l52 -291z" />
    <glyph glyph-name="x" unicode="x" horiz-adv-x="503" 
d="M458 474l-111 -237l101 -237h-160l-44 103l-48 -103h-151l112 239l-100 235h160l43 -101l47 101h151z" />
    <glyph glyph-name="y" unicode="y" horiz-adv-x="571" 
d="M354 474h172l-209 -677h-172l54 175l-154 502h172l70 -247z" />
    <glyph glyph-name="z" unicode="z" horiz-adv-x="408" 
d="M363 474v-134l-139 -206h139v-134h-318v134l139 206h-131v134h310z" />
    <glyph glyph-name="braceleft" unicode="{" horiz-adv-x="464" 
d="M314 -76q13 0 24.5 4t16.5 8l5 5l44 -94q-5 -6 -15.5 -15.5t-46 -25t-75.5 -15.5q-70 0 -116.5 38.5t-46.5 105.5q0 37 16 90.5t16 102.5q0 45 -55 45h-21v127h21q55 0 55 46q0 49 -16 102.5t-16 90.5q0 67 46.5 105.5t116.5 38.5q40 0 74 -14t49 -28l14 -14l-44 -94
q-17 16 -46 16q-21 0 -33 -14t-12 -37q0 -47 16 -98t16 -73q0 -58 -65 -90q65 -32 65 -90q0 -22 -16 -73t-16 -98q0 -23 12 -37.5t33 -14.5z" />
    <glyph glyph-name="bar" unicode="|" horiz-adv-x="274" 
d="M55 677h164v-880h-164v880z" />
    <glyph glyph-name="braceright" unicode="}" horiz-adv-x="464" 
d="M384 300h20v-127h-20q-56 0 -56 -45q0 -49 16 -102.5t16 -90.5q0 -67 -46 -105.5t-116 -38.5q-40 0 -74.5 14t-49.5 28l-14 14l44 94q17 -17 46 -17q21 0 33.5 14t12.5 38q0 47 -16 98t-16 73q0 59 64 90q-64 31 -64 90q0 22 16 73t16 98q0 23 -12 37t-34 14
q-13 0 -24.5 -4t-16.5 -8l-5 -4l-44 94q5 6 15.5 15.5t46.5 25t76 15.5q70 0 116 -38.5t46 -105.5q0 -37 -16 -90.5t-16 -102.5q0 -46 56 -46z" />
    <glyph glyph-name="asciitilde" unicode="~" horiz-adv-x="356" 
d="M239 399h82q0 -50 -21.5 -88.5t-56.5 -38.5q-19 0 -40 5t-35 10t-26.5 7.5t-18.5 -2.5t-6 -20h-82q0 50 21.5 88.5t56.5 38.5q19 0 40 -5t35 -10t26.5 -7.5t18.5 2.5t6 20z" />
    <glyph glyph-name="uni00A0" unicode="&#xa0;" horiz-adv-x="200" 
 />
    <glyph glyph-name="exclamdown" unicode="&#xa1;" horiz-adv-x="302" 
d="M55 474h172v-173h-172v173zM90 268h103l34 -354v-117h-172v117z" />
    <glyph glyph-name="cent" unicode="&#xa2;" horiz-adv-x="463" 
d="M356 255l47 -101q-32 -30 -92 -39v-79h-113v93q-61 24 -99.5 82.5t-38.5 144.5t38.5 145.5t99.5 83.5v92h113v-82q24 -5 45.5 -16.5t31.5 -20.5l9 -9l-45 -95q-23 21 -58 21q-34 0 -54.5 -31.5t-20.5 -87.5q0 -55 22.5 -86.5t57.5 -31.5q16 0 30.5 4t20.5 8z" />
    <glyph glyph-name="sterling" unicode="&#xa3;" horiz-adv-x="511" 
d="M352 118q28 0 52.5 8t35.5 16l11 7v-125q-37 -30 -99 -30q-25 0 -68.5 15t-68.5 15q-24 0 -73.5 -12t-81.5 -12v124q47 0 68 38t21 118h-80v115h56q-3 6 -10.5 24l-11 26.5t-8 23t-6.5 28t-2 27.5q0 74 54.5 116.5t136.5 42.5q45 0 84 -15.5t56 -31.5l17 -15l-43 -92
q-36 30 -85 30q-27 0 -44 -14t-17 -37q0 -18 6 -34.5t18 -39.5t18 -39h126v-115h-106q0 -83 -35 -143q59 -19 79 -19z" />
    <glyph glyph-name="currency" unicode="&#xa4;" horiz-adv-x="477" 
d="M408 517q0 -46 -20 -81l29 -33l-86 -76l-34 38q-27 -9 -59 -9q-31 0 -58 9l-34 -38l-86 76l29 33q-20 35 -20 81t20 81l-29 32l86 77l34 -39q27 9 58 9q32 0 59 -9l34 39l86 -77l-29 -32q20 -35 20 -81zM238 474q19 0 31 12t12 31t-12 30.5t-31 11.5t-30.5 -11.5
t-11.5 -30.5t11.5 -31t30.5 -12z" />
    <glyph glyph-name="yen" unicode="&#xa5;" horiz-adv-x="606" 
d="M546 677l-127 -312h69v-115h-104v-35h104v-115h-104v-100h-159v100h-105v115h105v35h-105v115h67l-127 312h171l82 -227l81 227h152z" />
    <glyph glyph-name="brokenbar" unicode="&#xa6;" horiz-adv-x="274" 
d="M55 677h164v-386h-164v386zM55 -203v386h164v-386h-164z" />
    <glyph glyph-name="section" unicode="&#xa7;" horiz-adv-x="575" 
d="M515 333q0 -72 -79 -99q47 -39 47 -102q0 -68 -53 -103t-142 -35q-47 0 -91 12t-64 24l-20 13l49 105q46 -27 115 -27q42 0 42 27q0 20 -26.5 32t-64.5 21t-76.5 22.5t-65 44t-26.5 76.5q0 77 84 108q-52 37 -52 99q0 68 55 100t141 32q46 0 89.5 -12.5t64.5 -24.5
l20 -13l-49 -104q-58 27 -115 27q-42 0 -42 -27q0 -18 26.5 -30t65 -21.5t76.5 -23t64.5 -44.5t26.5 -77zM308 295q42 13 42 43q0 21 -19.5 33.5t-60.5 26.5q-46 -7 -46 -45q0 -19 20.5 -31t63.5 -27z" />
    <glyph glyph-name="dieresis" unicode="&#xa8;" horiz-adv-x="401" 
d="M35 529v138h138v-138h-138zM228 667h138v-138h-138v138z" />
    <glyph glyph-name="copyright" unicode="&#xa9;" 
d="M435 438q-29 0 -51 -24.5t-22 -75.5q0 -99 80 -99q14 0 25 3t15 6l5 3l33 -71q-36 -34 -112 -34q-69 0 -117.5 51.5t-48.5 140.5t50.5 140.5t113.5 51.5q36 0 64.5 -9.5t39.5 -19.5l10 -10l-33 -70q-16 17 -52 17zM405 683q143 0 243.5 -101t100.5 -244
q0 -142 -100.5 -243t-243.5 -101t-244 100.5t-101 243.5t101 244t244 101zM616 127q40 38 65 95q23 57 23 116q0 60 -23 117q-25 57 -65 95q-39 41 -95 64q-55 24 -116 24t-117 -24q-56 -23 -95 -64q-40 -38 -65 -95q-23 -57 -23 -117q0 -59 23 -116q25 -57 65 -95
q41 -42 95 -65q57 -23 117 -23q59 0 116 23q54 23 95 65z" />
    <glyph glyph-name="ordfeminine" unicode="&#xaa;" horiz-adv-x="531" 
d="M278 671q84 0 146 -49t62 -141v-308h-146l-18 44q-5 -6 -13.5 -14t-39 -22t-64.5 -14q-70 0 -115 40.5t-45 110.5q0 85 72 132t205 47q0 23 -24 34.5t-60 11.5q-32 0 -61 -6t-41 -12l-13 -6l-46 98q8 6 23 15t67 24t111 15zM322 360v40q-113 0 -113 -59q0 -21 16 -34
t40 -13q29 0 43 15.5t14 50.5zM82 6v115h367v-115h-367z" />
    <glyph glyph-name="guillemotleft" unicode="&#xab;" horiz-adv-x="591" 
d="M305 393l-122 -152l122 -152l-99 -80l-156 194v77l156 193zM541 393l-122 -152l122 -152l-99 -80l-156 194v77l156 193z" />
    <glyph glyph-name="logicalnot" unicode="&#xac;" horiz-adv-x="481" 
d="M60 282h361v-210h-128v82h-233v128z" />
    <glyph glyph-name="uni00AD" unicode="&#xad;" horiz-adv-x="200" 
 />
    <glyph glyph-name="registered" unicode="&#xae;" horiz-adv-x="510" 
d="M349 515q0 -20 -6.5 -35.5t-12.5 -20.5l-7 -5l25 -80h-65l-23 73h-20v-73h-67v209h106q31 0 50.5 -19t19.5 -49zM256 496q25 0 25 19t-25 19h-16v-38h16zM255 683q85 0 145 -60t60 -145t-60 -145t-145 -60t-145 60t-60 145t60 145t145 60zM375 357q50 50 50 121
q0 72 -50 120q-50 50 -120 50t-120 -50t-50 -120q0 -69 50 -121q49 -49 120 -49t120 49z" />
    <glyph glyph-name="macron" unicode="&#xaf;" horiz-adv-x="374" 
d="M35 633h304v-103h-304v103z" />
    <glyph glyph-name="degree" unicode="&#xb0;" horiz-adv-x="382" 
d="M191 683q61 0 101 -39.5t40 -101.5t-40 -101.5t-101 -39.5t-101 39.5t-40 101.5t40 101.5t101 39.5zM191 500q32 0 32 42t-32 42t-32 -42t32 -42z" />
    <glyph glyph-name="plusminus" unicode="&#xb1;" horiz-adv-x="430" 
d="M279 392h91v-128h-91v-91h-128v91h-91v128h91v91h128v-91zM73 -3v127h284v-127h-284z" />
    <glyph glyph-name="twosuperior" unicode="&#xb2;" horiz-adv-x="317" 
d="M272 567q0 -71 -83 -164h79v-86h-174l-49 71q5 4 13 12l29 30.5t37 43t29 45t13 42.5q0 13 -8.5 23t-25.5 10q-12 0 -23.5 -6t-16.5 -12l-6 -6l-33 71q3 4 10.5 10.5t33 17.5t55.5 11q57 0 88.5 -32.5t31.5 -80.5z" />
    <glyph glyph-name="threesuperior" unicode="&#xb3;" horiz-adv-x="309" 
d="M227 506q4 -3 10 -9t16.5 -27.5t10.5 -47.5q0 -49 -32.5 -78.5t-85.5 -29.5q-24 0 -49 9t-39 17l-13 9l34 73q18 -22 50 -22q30 0 30 31t-29 31h-38v86h38q24 0 24 23q0 9 -7 16t-20 7q-12 0 -22.5 -5t-14.5 -11l-5 -5l-34 72q38 35 93 35q56 0 86 -28t30 -72
q0 -23 -8 -41.5t-16 -25.5z" />
    <glyph glyph-name="acute" unicode="&#xb4;" horiz-adv-x="277" 
d="M99 649h143l-89 -121h-118z" />
    <glyph glyph-name="mu" unicode="&#xb5;" horiz-adv-x="524" 
d="M315 474h164v-474h-149l-15 44q-1 -2 -2.5 -5.5t-7.5 -12t-13 -15t-19.5 -12t-25.5 -5.5q-11 0 -20.5 3t-13.5 7l-4 3v-210h-164v677h164v-207q0 -146 53 -146t53 146v207z" />
    <glyph glyph-name="paragraph" unicode="&#xb6;" horiz-adv-x="641" 
d="M45 482q0 99 45 147t124 48h239v-880h-172v489h-67q-79 0 -124 48t-45 148zM495 677h86v-880h-86v880z" />
    <glyph glyph-name="periodcentered" unicode="&#xb7;" horiz-adv-x="272" 
d="M50 425h172v-173h-172v173z" />
    <glyph glyph-name="cedilla" unicode="&#xb8;" horiz-adv-x="337" 
d="M191 -48q111 0 111 -76q0 -44 -40.5 -64.5t-101.5 -20.5q-27 0 -58 7t-49 14l-18 7l27 57q37 -17 72 -17q44 0 44 19q0 18 -32 18q-13 0 -24.5 -3.5t-15.5 -6.5l-5 -4h-66l46 97h65l-16 -34q24 7 61 7z" />
    <glyph glyph-name="onesuperior" unicode="&#xb9;" horiz-adv-x="228" 
d="M45 644l138 36v-363h-106v249l-32 -9v87z" />
    <glyph glyph-name="ordmasculine" unicode="&#xba;" horiz-adv-x="536" 
d="M268 671q94 0 158.5 -56.5t64.5 -166.5v-58q0 -110 -64.5 -166.5t-158.5 -56.5t-158.5 56.5t-64.5 166.5v58q0 110 64.5 166.5t158.5 56.5zM268 294q59 0 59 125q0 124 -59 124t-59 -124q0 -125 59 -125zM85 6v115h366v-115h-366z" />
    <glyph glyph-name="guillemotright" unicode="&#xbb;" horiz-adv-x="591" 
d="M385 473l156 -193v-77l-156 -194l-99 80l122 152l-122 152zM305 280v-77l-156 -194l-99 80l122 152l-122 152l99 80z" />
    <glyph glyph-name="onequarter" unicode="&#xbc;" horiz-adv-x="707" 
d="M374 677h135l-234 -677h-134zM619 163h33v-86h-33v-77h-105v77h-121v79l101 204h125v-197zM520 150v93l-39 -93h39zM193 317h-106v249l-32 -9v87l138 36v-363z" />
    <glyph glyph-name="onehalf" unicode="&#xbd;" horiz-adv-x="701" 
d="M374 677h135l-234 -677h-134zM646 250q0 -71 -83 -164h79v-86h-173l-50 71q14 12 34 32t54 66.5t34 74.5q0 13 -8.5 23t-25.5 10q-12 0 -23.5 -6t-17.5 -12l-5 -6l-34 71q3 4 10.5 10.5t33 17.5t56.5 11q57 0 88 -32t31 -81zM193 317h-106v249l-32 -9v87l138 36v-363z
" />
    <glyph glyph-name="threequarters" unicode="&#xbe;" horiz-adv-x="755" 
d="M422 677h135l-234 -677h-134zM667 163h33v-86h-33v-77h-105v77h-121v79l101 204h125v-197zM568 150v93l-39 -93h39zM274 422q0 -49 -32.5 -78.5t-85.5 -29.5q-24 0 -49 9t-39 17l-13 9l34 73q18 -22 50 -22q30 0 30 31t-29 31h-38v86h38q24 0 24 23q0 9 -7 16t-20 7
q-12 0 -22.5 -5t-14.5 -11l-5 -5l-34 72q38 35 93 35q56 0 86 -28t30 -72q0 -23 -8 -41.5t-16 -25.5l-9 -7q4 -3 10 -9t16.5 -27.5t10.5 -47.5z" />
    <glyph glyph-name="questiondown" unicode="&#xbf;" horiz-adv-x="469" 
d="M368 -58l46 -97q-7 -6 -20 -15t-59 -24t-98 -15q-76 0 -129 40t-53 101q0 42 19.5 73t47.5 48t56 29.5t47.5 22.5t19.5 21q0 21 -41 21q-24 0 -47 -6t-34 -12l-11 -6l-42 90q6 7 18.5 17t56 27t91.5 17q67 0 116 -40.5t49 -99.5q0 -41 -19.5 -71t-47.5 -44.5t-56 -25.5
t-47.5 -22t-19.5 -26q0 -27 48 -27q28 0 55 6t40 12zM322 474v-173h-173v173h173z" />
    <glyph glyph-name="Agrave" unicode="&#xc0;" horiz-adv-x="629" 
d="M423 677l151 -677h-176l-21 101h-134l-21 -101h-167l151 677h217zM270 234h80l-40 194zM325 849l63 -121h-118l-89 121h144z" />
    <glyph glyph-name="Aacute" unicode="&#xc1;" horiz-adv-x="629" 
d="M423 677l151 -677h-176l-21 101h-134l-21 -101h-167l151 677h217zM270 234h80l-40 194zM316 849h143l-89 -121h-118z" />
    <glyph glyph-name="Acircumflex" unicode="&#xc2;" horiz-adv-x="629" 
d="M423 677l151 -677h-176l-21 101h-134l-21 -101h-167l151 677h217zM270 234h80l-40 194zM371 849l107 -120h-124l-40 57l-40 -57h-124l107 120h114z" />
    <glyph glyph-name="Atilde" unicode="&#xc3;" horiz-adv-x="629" 
d="M423 677l151 -677h-176l-21 101h-134l-21 -101h-167l151 677h217zM270 234h80l-40 194zM375 861h82q0 -58 -26.5 -92.5t-72.5 -34.5q-16 0 -34 4.5t-29.5 9t-21.5 7t-15 -2.5t-5 -18h-82q0 57 27 92t72 35q16 0 34 -4.5t29.5 -9t21.5 -7t15 2.5t5 18z" />
    <glyph glyph-name="Adieresis" unicode="&#xc4;" horiz-adv-x="629" 
d="M423 677l151 -677h-176l-21 101h-134l-21 -101h-167l151 677h217zM270 234h80l-40 194zM149 729v138h138v-138h-138zM342 867h138v-138h-138v138z" />
    <glyph glyph-name="Aring" unicode="&#xc5;" horiz-adv-x="629" 
d="M423 677l151 -677h-176l-21 101h-134l-21 -101h-167l151 677h217zM270 234h80l-40 194zM314 921q49 0 84 -31.5t35 -84.5t-34.5 -84.5t-84.5 -31.5t-84.5 31t-34.5 85q0 53 34.5 84.5t84.5 31.5zM314 770q13 0 21 9t8 26t-8 26t-21 9t-21 -9t-8 -26t8 -26t21 -9z" />
    <glyph glyph-name="AE" unicode="&#xc6;" horiz-adv-x="739" 
d="M684 543h-152v-114h115v-134h-115v-161h152v-134h-324v107h-109l-28 -107h-168l190 677h439v-134zM360 234v286l-76 -286h76z" />
    <glyph glyph-name="Ccedilla" unicode="&#xc7;" horiz-adv-x="528" 
d="M449 155l49 -104q-5 -6 -16 -15.5t-51.5 -25.5t-89.5 -16q-125 0 -205.5 78.5t-80.5 237.5v57q0 85 24 148.5t65 98.5t88.5 52t101.5 17q50 0 90 -15.5t55 -31.5l15 -15l-49 -104q-26 32 -85 32q-61 0 -97 -53.5t-36 -157.5q0 -105 37 -158t105 -53q25 0 45 7t28 14z
M320 -48q111 0 111 -76q0 -44 -40.5 -64.5t-101.5 -20.5q-27 0 -58 7t-49 14l-18 7l27 57q37 -17 72 -17q44 0 44 19q0 18 -32 18q-13 0 -24.5 -3.5t-16.5 -6.5l-4 -4h-66l46 97h65l-16 -34q24 7 61 7z" />
    <glyph glyph-name="Egrave" unicode="&#xc8;" horiz-adv-x="434" 
d="M379 543h-152v-114h115v-134h-115v-161h152v-134h-324v677h324v-134zM252 849l63 -121h-118l-89 121h144z" />
    <glyph glyph-name="Eacute" unicode="&#xc9;" horiz-adv-x="434" 
d="M379 543h-152v-114h115v-134h-115v-161h152v-134h-324v677h324v-134zM185 849h143l-89 -121h-118z" />
    <glyph glyph-name="Ecircumflex" unicode="&#xca;" horiz-adv-x="434" 
d="M379 543h-152v-114h115v-134h-115v-161h152v-134h-324v677h324v-134zM274 849l107 -120h-124l-40 57l-40 -57h-124l107 120h114z" />
    <glyph glyph-name="Edieresis" unicode="&#xcb;" horiz-adv-x="434" 
d="M379 543h-152v-114h115v-134h-115v-161h152v-134h-324v677h324v-134zM51 729v138h138v-138h-138zM244 867h138v-138h-138v138z" />
    <glyph glyph-name="Igrave" unicode="&#xcc;" horiz-adv-x="282" 
d="M55 677h172v-677h-172v677zM160 849l63 -121h-118l-89 121h144z" />
    <glyph glyph-name="Iacute" unicode="&#xcd;" horiz-adv-x="282" 
d="M55 677h172v-677h-172v677zM123 849h143l-89 -121h-118z" />
    <glyph glyph-name="Icircumflex" unicode="&#xce;" horiz-adv-x="282" 
d="M55 677h172v-677h-172v677zM198 849l107 -120h-124l-40 57l-40 -57h-124l107 120h114z" />
    <glyph glyph-name="Idieresis" unicode="&#xcf;" horiz-adv-x="282" 
d="M55 677h172v-677h-172v677zM-24 729v138h138v-138h-138zM169 867h138v-138h-138v138z" />
    <glyph glyph-name="Eth" unicode="&#xd0;" horiz-adv-x="634" 
d="M315 677q40 0 75.5 -17t66 -52t49 -97t18.5 -144v-57q0 -82 -18.5 -144t-49.5 -97t-66.5 -52t-75.5 -17h-263v278h-46v133h46v266h264zM262 134q90 0 90 204q0 205 -89 205h-40v-132h65v-133h-65v-144h39z" />
    <glyph glyph-name="Ntilde" unicode="&#xd1;" horiz-adv-x="591" 
d="M368 677h168v-683h-168l-145 294v-288h-168v677h168l145 -294v294zM356 861h82q0 -58 -26.5 -92.5t-72.5 -34.5q-16 0 -34 4.5t-29.5 9t-21.5 7t-15 -2.5t-5 -18h-82q0 57 27 92t72 35q16 0 34 -4.5t29.5 -9t21.5 -7t15 2.5t5 18z" />
    <glyph glyph-name="Ograve" unicode="&#xd2;" horiz-adv-x="612" 
d="M306 683q111 0 181 -79.5t70 -236.5v-57q0 -157 -69.5 -236.5t-181.5 -79.5t-181.5 79t-69.5 237v57q0 157 69.5 236.5t181.5 79.5zM306 127q36 0 57 53.5t21 157.5t-21 157.5t-57 53.5t-57.5 -53.5t-21.5 -157.5t21.5 -157.5t57.5 -53.5zM303 849l63 -121h-118l-89 121
h144z" />
    <glyph glyph-name="Oacute" unicode="&#xd3;" horiz-adv-x="612" 
d="M306 683q111 0 181 -79.5t70 -236.5v-57q0 -157 -69.5 -236.5t-181.5 -79.5t-181.5 79t-69.5 237v57q0 157 69.5 236.5t181.5 79.5zM306 127q36 0 57 53.5t21 157.5t-21 157.5t-57 53.5t-57.5 -53.5t-21.5 -157.5t21.5 -157.5t57.5 -53.5zM301 849h143l-89 -121h-118z
" />
    <glyph glyph-name="Ocircumflex" unicode="&#xd4;" horiz-adv-x="612" 
d="M306 683q111 0 181 -79.5t70 -236.5v-57q0 -157 -69.5 -236.5t-181.5 -79.5t-181.5 79t-69.5 237v57q0 157 69.5 236.5t181.5 79.5zM306 127q36 0 57 53.5t21 157.5t-21 157.5t-57 53.5t-57.5 -53.5t-21.5 -157.5t21.5 -157.5t57.5 -53.5zM363 849l107 -120h-124l-40 57
l-40 -57h-124l107 120h114z" />
    <glyph glyph-name="Otilde" unicode="&#xd5;" horiz-adv-x="612" 
d="M306 683q111 0 181 -79.5t70 -236.5v-57q0 -157 -69.5 -236.5t-181.5 -79.5t-181.5 79t-69.5 237v57q0 157 69.5 236.5t181.5 79.5zM306 127q36 0 57 53.5t21 157.5t-21 157.5t-57 53.5t-57.5 -53.5t-21.5 -157.5t21.5 -157.5t57.5 -53.5zM367 861h82q0 -58 -26.5 -92.5
t-72.5 -34.5q-16 0 -34 4.5t-29.5 9t-21.5 7t-15 -2.5t-5 -18h-82q0 57 27 92t72 35q16 0 34 -4.5t29.5 -9t21.5 -7t15 2.5t5 18z" />
    <glyph glyph-name="Odieresis" unicode="&#xd6;" horiz-adv-x="612" 
d="M306 683q111 0 181 -79.5t70 -236.5v-57q0 -157 -69.5 -236.5t-181.5 -79.5t-181.5 79t-69.5 237v57q0 157 69.5 236.5t181.5 79.5zM306 127q36 0 57 53.5t21 157.5t-21 157.5t-57 53.5t-57.5 -53.5t-21.5 -157.5t21.5 -157.5t57.5 -53.5zM141 729v138h138v-138h-138z
M334 867h138v-138h-138v138z" />
    <glyph glyph-name="multiply" unicode="&#xd7;" horiz-adv-x="418" 
d="M358 316l-69 -95l63 -88l-95 -69l-51 70l-50 -70l-96 69l69 95l-64 88l96 69l51 -70l50 70z" />
    <glyph glyph-name="Oslash" unicode="&#xd8;" horiz-adv-x="612" 
d="M436 648q121 -75 121 -281v-57q0 -157 -69.5 -236.5t-181.5 -79.5q-38 0 -71 9l-25 -80h-66l32 105q-121 76 -121 282v57q0 157 69.5 236.5t181.5 79.5q36 0 71 -9l25 79h66zM227 338q0 -63 10 -115l98 316q-13 10 -29 10q-36 0 -57.5 -53.5t-21.5 -157.5zM306 127
q36 0 57 53.5t21 157.5q0 70 -9 116l-98 -316q14 -11 29 -11z" />
    <glyph glyph-name="Ugrave" unicode="&#xd9;" horiz-adv-x="577" 
d="M350 677h172v-439q0 -126 -64 -185t-169 -59t-169.5 59t-64.5 185v439h172v-380q0 -91 15 -130.5t47 -39.5t46.5 39t14.5 131v380zM284 849l63 -121h-118l-89 121h144z" />
    <glyph glyph-name="Uacute" unicode="&#xda;" horiz-adv-x="577" 
d="M350 677h172v-439q0 -126 -64 -185t-169 -59t-169.5 59t-64.5 185v439h172v-380q0 -91 15 -130.5t47 -39.5t46.5 39t14.5 131v380zM294 849h143l-89 -121h-118z" />
    <glyph glyph-name="Ucircumflex" unicode="&#xdb;" horiz-adv-x="577" 
d="M350 677h172v-439q0 -126 -64 -185t-169 -59t-169.5 59t-64.5 185v439h172v-380q0 -91 15 -130.5t47 -39.5t46.5 39t14.5 131v380zM345 849l107 -120h-124l-40 57l-40 -57h-124l107 120h114z" />
    <glyph glyph-name="Udieresis" unicode="&#xdc;" horiz-adv-x="577" 
d="M350 677h172v-439q0 -126 -64 -185t-169 -59t-169.5 59t-64.5 185v439h172v-380q0 -91 15 -130.5t47 -39.5t46.5 39t14.5 131v380zM123 729v138h138v-138h-138zM316 867h138v-138h-138v138z" />
    <glyph glyph-name="Yacute" unicode="&#xdd;" horiz-adv-x="643" 
d="M409 677h179l-179 -440v-237h-173v232l-181 445h184l86 -237zM325 849h143l-89 -121h-118z" />
    <glyph glyph-name="Thorn" unicode="&#xde;" horiz-adv-x="577" 
d="M314 557q94 0 151 -58.5t57 -160.5q0 -101 -57 -159.5t-151 -58.5h-87v-120h-172v677h172v-120h87zM289 254q61 0 61 84q0 85 -61 85h-62v-169h62z" />
    <glyph glyph-name="germandbls" unicode="&#xdf;" horiz-adv-x="602" 
d="M440 341q0 -24 16.5 -48t37 -42.5t37 -52.5t16.5 -76q0 -57 -48 -92.5t-117 -35.5q-28 0 -60.5 10.5t-51.5 21.5l-18 10l50 106q26 -21 49 -21q32 0 32 27q0 23 -26.5 54.5t-53.5 68t-27 70.5q0 28 27 71.5t27 82.5q0 24 -15 39.5t-40 15.5q-26 0 -41 -15.5t-15 -39.5
v-495h-164v495q0 83 68 132.5t152 49.5t152 -49.5t68 -132.5q0 -43 -27.5 -86.5t-27.5 -67.5z" />
    <glyph glyph-name="agrave" unicode="&#xe0;" horiz-adv-x="524" 
d="M330 474h149v-474h-146l-18 44q-4 -6 -13 -14t-39 -22t-64 -14q-67 0 -110.5 55.5t-43.5 158.5v58q0 103 43.5 158.5t110.5 55.5q34 0 63 -12.5t41 -25.5l12 -12zM265 127q27 0 41.5 30.5t14.5 79.5t-14.5 79t-41.5 30t-41.5 -30t-14.5 -79t14.5 -79.5t41.5 -30.5z
M285 649l63 -121h-118l-89 121h144z" />
    <glyph glyph-name="aacute" unicode="&#xe1;" horiz-adv-x="524" 
d="M330 474h149v-474h-146l-18 44q-4 -6 -13 -14t-39 -22t-64 -14q-67 0 -110.5 55.5t-43.5 158.5v58q0 103 43.5 158.5t110.5 55.5q34 0 63 -12.5t41 -25.5l12 -12zM265 127q27 0 41.5 30.5t14.5 79.5t-14.5 79t-41.5 30t-41.5 -30t-14.5 -79t14.5 -79.5t41.5 -30.5z
M263 649h143l-89 -121h-118z" />
    <glyph glyph-name="acircumflex" unicode="&#xe2;" horiz-adv-x="524" 
d="M330 474h149v-474h-146l-18 44q-4 -6 -13 -14t-39 -22t-64 -14q-67 0 -110.5 55.5t-43.5 158.5v58q0 103 43.5 158.5t110.5 55.5q34 0 63 -12.5t41 -25.5l12 -12zM265 127q27 0 41.5 30.5t14.5 79.5t-14.5 79t-41.5 30t-41.5 -30t-14.5 -79t14.5 -79.5t41.5 -30.5z
M331 649l107 -120h-124l-40 57l-40 -57h-124l107 120h114z" />
    <glyph glyph-name="atilde" unicode="&#xe3;" horiz-adv-x="524" 
d="M330 474h149v-474h-146l-18 44q-4 -6 -13 -14t-39 -22t-64 -14q-67 0 -110.5 55.5t-43.5 158.5v58q0 103 43.5 158.5t110.5 55.5q34 0 63 -12.5t41 -25.5l12 -12zM265 127q27 0 41.5 30.5t14.5 79.5t-14.5 79t-41.5 30t-41.5 -30t-14.5 -79t14.5 -79.5t41.5 -30.5z
M328 661h82q0 -58 -26.5 -92.5t-72.5 -34.5q-16 0 -34 4.5t-29.5 9t-21.5 7t-15 -2.5t-5 -18h-82q0 57 27 92t72 35q16 0 34 -4.5t29.5 -9t21.5 -7t15 2.5t5 18z" />
    <glyph glyph-name="adieresis" unicode="&#xe4;" horiz-adv-x="524" 
d="M330 474h149v-474h-146l-18 44q-4 -6 -13 -14t-39 -22t-64 -14q-67 0 -110.5 55.5t-43.5 158.5v58q0 103 43.5 158.5t110.5 55.5q34 0 63 -12.5t41 -25.5l12 -12zM265 127q27 0 41.5 30.5t14.5 79.5t-14.5 79t-41.5 30t-41.5 -30t-14.5 -79t14.5 -79.5t41.5 -30.5z
M113 529v138h138v-138h-138zM306 667h138v-138h-138v138z" />
    <glyph glyph-name="aring" unicode="&#xe5;" horiz-adv-x="524" 
d="M330 474h149v-474h-146l-18 44q-4 -6 -13 -14t-39 -22t-64 -14q-67 0 -110.5 55.5t-43.5 158.5v58q0 103 43.5 158.5t110.5 55.5q34 0 63 -12.5t41 -25.5l12 -12zM265 127q27 0 41.5 30.5t14.5 79.5t-14.5 79t-41.5 30t-41.5 -30t-14.5 -79t14.5 -79.5t41.5 -30.5z
M289 721q49 0 84 -31.5t35 -84.5t-34.5 -84.5t-84.5 -31.5t-84.5 31t-34.5 85q0 53 34.5 84.5t84.5 31.5zM289 570q13 0 21 9t8 26t-8 26t-21 9t-21 -9t-8 -26t8 -26t21 -9z" />
    <glyph glyph-name="ae" unicode="&#xe6;" horiz-adv-x="779" 
d="M734 262v-72h-248q3 -30 30.5 -49.5t64.5 -19.5q21 0 42.5 8.5t32.5 16.5l11 8l47 -102q-6 -6 -18.5 -16t-58 -26t-99.5 -16q-57 0 -108 29v-23h-90l-18 44q-3 -6 -10.5 -14t-36.5 -22t-66 -14q-69 0 -116.5 40.5t-47.5 111.5q0 82 65 125.5t167 43.5h45q0 17 -25 27.5
t-70 10.5q-27 0 -53 -6.5t-38 -12.5l-13 -6l-46 98q8 6 22.5 15t63.5 24t102 15q79 0 126 -55q61 55 147 55q82 0 139 -62.5t57 -155.5zM265 121q57 0 57 53v36h-21q-92 0 -92 -51q0 -18 15.5 -28t40.5 -10zM486 273h105q0 37 -14 58.5t-39 21.5t-38.5 -21.5t-13.5 -58.5z
" />
    <glyph glyph-name="ccedilla" unicode="&#xe7;" horiz-adv-x="430" 
d="M290 127q15 0 27 3.5t17 7.5l5 4l45 -95q-2 -2 -5 -5.5t-15 -13t-26 -16.5t-37 -12.5t-49 -5.5q-89 0 -148 61.5t-59 152.5v58q0 95 56.5 154.5t145.5 59.5q27 0 51.5 -6t39.5 -15t26.5 -18t15.5 -15l5 -6l-45 -96q-21 22 -54 22q-34 0 -55.5 -27t-21.5 -82
q0 -110 81 -110zM253 -48q111 0 111 -76q0 -44 -40.5 -64.5t-101.5 -20.5q-27 0 -58 7t-49 14l-18 7l27 57q37 -17 72 -17q44 0 44 19q0 18 -32 18q-13 0 -24.5 -3.5t-15.5 -6.5l-5 -4h-66l46 97h65l-16 -34q24 7 61 7z" />
    <glyph glyph-name="egrave" unicode="&#xe8;" horiz-adv-x="503" 
d="M458 262v-72h-249q4 -30 31 -49.5t64 -19.5q22 0 43.5 8.5t32.5 16.5l10 8l48 -102q-6 -6 -18.5 -16t-58 -26t-99.5 -16q-79 0 -148 55.5t-69 154.5v58q0 102 65 160t152 58q81 0 138.5 -62.5t57.5 -155.5zM209 273h105q0 80 -52 80q-25 0 -39 -21.5t-14 -58.5zM271 649
l63 -121h-118l-89 121h144z" />
    <glyph glyph-name="eacute" unicode="&#xe9;" horiz-adv-x="503" 
d="M458 262v-72h-249q4 -30 31 -49.5t64 -19.5q22 0 43.5 8.5t32.5 16.5l10 8l48 -102q-6 -6 -18.5 -16t-58 -26t-99.5 -16q-79 0 -148 55.5t-69 154.5v58q0 102 65 160t152 58q81 0 138.5 -62.5t57.5 -155.5zM209 273h105q0 80 -52 80q-25 0 -39 -21.5t-14 -58.5zM265 649
h143l-89 -121h-118z" />
    <glyph glyph-name="ecircumflex" unicode="&#xea;" horiz-adv-x="503" 
d="M458 262v-72h-249q4 -30 31 -49.5t64 -19.5q22 0 43.5 8.5t32.5 16.5l10 8l48 -102q-6 -6 -18.5 -16t-58 -26t-99.5 -16q-79 0 -148 55.5t-69 154.5v58q0 102 65 160t152 58q81 0 138.5 -62.5t57.5 -155.5zM209 273h105q0 80 -52 80q-25 0 -39 -21.5t-14 -58.5zM317 649
l107 -120h-124l-40 57l-40 -57h-124l107 120h114z" />
    <glyph glyph-name="edieresis" unicode="&#xeb;" horiz-adv-x="503" 
d="M458 262v-72h-249q4 -30 31 -49.5t64 -19.5q22 0 43.5 8.5t32.5 16.5l10 8l48 -102q-6 -6 -18.5 -16t-58 -26t-99.5 -16q-79 0 -148 55.5t-69 154.5v58q0 102 65 160t152 58q81 0 138.5 -62.5t57.5 -155.5zM209 273h105q0 80 -52 80q-25 0 -39 -21.5t-14 -58.5zM99 529
v138h138v-138h-138zM292 667h138v-138h-138v138z" />
    <glyph glyph-name="igrave" unicode="&#xec;" horiz-adv-x="272" 
d="M54 0v474h164v-474h-164zM45 706h182v-163h-182v163zM166 849l63 -121h-118l-89 121h144z" />
    <glyph glyph-name="iacute" unicode="&#xed;" horiz-adv-x="272" 
d="M54 0v474h164v-474h-164zM45 706h182v-163h-182v163zM113 849h143l-89 -121h-118z" />
    <glyph glyph-name="icircumflex" unicode="&#xee;" horiz-adv-x="272" 
d="M54 0v474h164v-474h-164zM45 706h182v-163h-182v163zM193 849l107 -120h-124l-40 57l-40 -57h-124l107 120h114z" />
    <glyph glyph-name="idieresis" unicode="&#xef;" horiz-adv-x="272" 
d="M54 0v474h164v-474h-164zM45 706h182v-163h-182v163zM-29 729v138h138v-138h-138zM164 867h138v-138h-138v138z" />
    <glyph glyph-name="eth" unicode="&#xf0;" horiz-adv-x="536" 
d="M394 538q97 -113 97 -276v-58q0 -92 -61.5 -151t-161.5 -59t-161.5 59t-61.5 151v58q0 96 58 157t144 61q19 0 32 -4l-21 30l-104 -25l-19 79l36 8q-11 5 -27.5 11.5t-19.5 7.5l45 96q89 -31 153 -79l103 25l19 -79zM268 121q28 0 43.5 31t15.5 85q0 116 -59 116
q-28 0 -43.5 -31t-15.5 -85t15.5 -85t43.5 -31z" />
    <glyph glyph-name="ntilde" unicode="&#xf1;" horiz-adv-x="524" 
d="M335 480q63 0 103.5 -46.5t40.5 -140.5v-293h-164v207q0 146 -53 146t-53 -146v-207h-164v474h149l15 -44q5 6 14 14t41.5 22t70.5 14zM332 661h82q0 -58 -26.5 -92.5t-72.5 -34.5q-16 0 -34 4.5t-29.5 9t-21.5 7t-15 -2.5t-5 -18h-82q0 57 27 92t72 35q16 0 34 -4.5
t29.5 -9t21.5 -7t15 2.5t5 18z" />
    <glyph glyph-name="ograve" unicode="&#xf2;" horiz-adv-x="536" 
d="M268 480q94 0 158.5 -57t64.5 -161v-58q0 -98 -64.5 -154t-158.5 -56t-158.5 56t-64.5 154v58q0 104 64.5 161t158.5 57zM268 127q28 0 43.5 29t15.5 81t-15.5 80.5t-43.5 28.5t-43.5 -28.5t-15.5 -80.5t15.5 -81t43.5 -29zM274 649l63 -121h-118l-89 121h144z" />
    <glyph glyph-name="oacute" unicode="&#xf3;" horiz-adv-x="536" 
d="M268 480q94 0 158.5 -57t64.5 -161v-58q0 -98 -64.5 -154t-158.5 -56t-158.5 56t-64.5 154v58q0 104 64.5 161t158.5 57zM268 127q28 0 43.5 29t15.5 81t-15.5 80.5t-43.5 28.5t-43.5 -28.5t-15.5 -80.5t15.5 -81t43.5 -29zM266 649h143l-89 -121h-118z" />
    <glyph glyph-name="ocircumflex" unicode="&#xf4;" horiz-adv-x="536" 
d="M268 480q94 0 158.5 -57t64.5 -161v-58q0 -98 -64.5 -154t-158.5 -56t-158.5 56t-64.5 154v58q0 104 64.5 161t158.5 57zM268 127q28 0 43.5 29t15.5 81t-15.5 80.5t-43.5 28.5t-43.5 -28.5t-15.5 -80.5t15.5 -81t43.5 -29zM325 649l107 -120h-124l-40 57l-40 -57h-124
l107 120h114z" />
    <glyph glyph-name="otilde" unicode="&#xf5;" horiz-adv-x="536" 
d="M268 480q94 0 158.5 -57t64.5 -161v-58q0 -98 -64.5 -154t-158.5 -56t-158.5 56t-64.5 154v58q0 104 64.5 161t158.5 57zM268 127q28 0 43.5 29t15.5 81t-15.5 80.5t-43.5 28.5t-43.5 -28.5t-15.5 -80.5t15.5 -81t43.5 -29zM329 661h82q0 -58 -26.5 -92.5t-72.5 -34.5
q-16 0 -34 4.5t-29.5 9t-21.5 7t-15 -2.5t-5 -18h-82q0 57 27 92t72 35q16 0 34 -4.5t29.5 -9t21.5 -7t15 2.5t5 18z" />
    <glyph glyph-name="odieresis" unicode="&#xf6;" horiz-adv-x="536" 
d="M268 480q94 0 158.5 -57t64.5 -161v-58q0 -98 -64.5 -154t-158.5 -56t-158.5 56t-64.5 154v58q0 104 64.5 161t158.5 57zM268 127q28 0 43.5 29t15.5 81t-15.5 80.5t-43.5 28.5t-43.5 -28.5t-15.5 -80.5t15.5 -81t43.5 -29zM103 529v138h138v-138h-138zM296 667h138v-138
h-138v138z" />
    <glyph glyph-name="divide" unicode="&#xf7;" horiz-adv-x="491" 
d="M319 484v-147h-147v147h147zM172 -34v146h147v-146h-147zM60 288h371v-127h-371v127z" />
    <glyph glyph-name="oslash" unicode="&#xf8;" horiz-adv-x="536" 
d="M371 459q55 -24 87.5 -74.5t32.5 -122.5v-58q0 -98 -64.5 -154t-158.5 -56q-22 0 -41 3l-23 -74h-67l29 91q-56 24 -88.5 72.5t-32.5 117.5v58q0 104 64.5 161t158.5 57q22 0 41 -3l23 73h67zM216 178l53 168h-1q-28 0 -43.5 -28.5t-15.5 -80.5q0 -31 7 -59zM268 127
q28 0 43.5 29t15.5 81q0 31 -7 59l-53 -169h1z" />
    <glyph glyph-name="ugrave" unicode="&#xf9;" horiz-adv-x="519" 
d="M310 474h164v-474h-149l-15 44q-5 -6 -14 -14t-41.5 -22t-70.5 -14q-63 0 -103.5 46.5t-40.5 140.5v293h164v-207q0 -146 53 -146t53 146v207zM257 649l63 -121h-118l-89 121h144z" />
    <glyph glyph-name="uacute" unicode="&#xfa;" horiz-adv-x="519" 
d="M310 474h164v-474h-149l-15 44q-5 -6 -14 -14t-41.5 -22t-70.5 -14q-63 0 -103.5 46.5t-40.5 140.5v293h164v-207q0 -146 53 -146t53 146v207zM261 649h143l-89 -121h-118z" />
    <glyph glyph-name="ucircumflex" unicode="&#xfb;" horiz-adv-x="519" 
d="M310 474h164v-474h-149l-15 44q-5 -6 -14 -14t-41.5 -22t-70.5 -14q-63 0 -103.5 46.5t-40.5 140.5v293h164v-207q0 -146 53 -146t53 146v207zM316 649l107 -120h-124l-40 57l-40 -57h-124l107 120h114z" />
    <glyph glyph-name="udieresis" unicode="&#xfc;" horiz-adv-x="519" 
d="M310 474h164v-474h-149l-15 44q-5 -6 -14 -14t-41.5 -22t-70.5 -14q-63 0 -103.5 46.5t-40.5 140.5v293h164v-207q0 -146 53 -146t53 146v207zM94 529v138h138v-138h-138zM287 667h138v-138h-138v138z" />
    <glyph glyph-name="yacute" unicode="&#xfd;" horiz-adv-x="571" 
d="M354 474h172l-209 -677h-172l54 175l-154 502h172l70 -247zM289 649h143l-89 -121h-118z" />
    <glyph glyph-name="thorn" unicode="&#xfe;" horiz-adv-x="524" 
d="M325 480q63 0 108.5 -56.5t45.5 -157.5v-58q0 -102 -45.5 -158t-108.5 -56q-38 0 -67 12.5t-39 25.5l-10 12v-247h-164v880l164 42v-289q1 2 3.5 5.5t12.5 12t22 15t33 12t45 5.5zM259 127q56 0 56 110q0 109 -56 109t-56 -109q0 -110 56 -110z" />
    <glyph glyph-name="ydieresis" unicode="&#xff;" horiz-adv-x="571" 
d="M354 474h172l-209 -677h-172l54 175l-154 502h172l70 -247zM120 529v138h138v-138h-138zM313 667h138v-138h-138v138z" />
    <glyph glyph-name="Amacron" unicode="&#x100;" horiz-adv-x="629" 
d="M423 677l151 -677h-176l-21 101h-134l-21 -101h-167l151 677h217zM270 234h80l-40 194zM164 833h304v-103h-304v103z" />
    <glyph glyph-name="amacron" unicode="&#x101;" horiz-adv-x="524" 
d="M330 474h149v-474h-146l-18 44q-4 -6 -13 -14t-39 -22t-64 -14q-67 0 -110.5 55.5t-43.5 158.5v58q0 103 43.5 158.5t110.5 55.5q34 0 63 -12.5t41 -25.5l12 -12zM265 127q27 0 41.5 30.5t14.5 79.5t-14.5 79t-41.5 30t-41.5 -30t-14.5 -79t14.5 -79.5t41.5 -30.5z
M131 633h304v-103h-304v103z" />
    <glyph glyph-name="Abreve" unicode="&#x102;" horiz-adv-x="629" 
d="M423 677l151 -677h-176l-21 101h-134l-21 -101h-167l151 677h217zM270 234h80l-40 194zM373 864h82q0 -63 -36 -102t-105 -39t-104.5 39t-35.5 102h82q0 -15 15.5 -26.5t42.5 -11.5t43 11.5t16 26.5z" />
    <glyph glyph-name="abreve" unicode="&#x103;" horiz-adv-x="524" 
d="M330 474h149v-474h-146l-18 44q-4 -6 -13 -14t-39 -22t-64 -14q-67 0 -110.5 55.5t-43.5 158.5v58q0 103 43.5 158.5t110.5 55.5q34 0 63 -12.5t41 -25.5l12 -12zM265 127q27 0 41.5 30.5t14.5 79.5t-14.5 79t-41.5 30t-41.5 -30t-14.5 -79t14.5 -79.5t41.5 -30.5z
M331 664h82q0 -63 -36 -102t-105 -39t-104.5 39t-35.5 102h82q0 -15 15.5 -26.5t42.5 -11.5t43 11.5t16 26.5z" />
    <glyph glyph-name="Aogonek" unicode="&#x104;" horiz-adv-x="629" 
d="M423 677l151 -677h-176l-21 101h-134l-21 -101h-167l151 677h217zM270 234h80l-40 194zM465 -124l27 -57q-30 -28 -92 -28q-44 0 -77.5 21t-33.5 62q0 19 11.5 37t27.5 29.5t32.5 21t27.5 13.5l12 4h69l-15.5 -15.5t-25 -36t-15.5 -49.5q0 -19 20 -19q9 0 17 4.5t12 8.5z
" />
    <glyph glyph-name="aogonek" unicode="&#x105;" horiz-adv-x="524" 
d="M330 474h149v-474h-146l-18 44q-4 -6 -13 -14t-39 -22t-64 -14q-67 0 -110.5 55.5t-43.5 158.5v58q0 103 43.5 158.5t110.5 55.5q34 0 63 -12.5t41 -25.5l12 -12zM265 127q27 0 41.5 30.5t14.5 79.5t-14.5 79t-41.5 30t-41.5 -30t-14.5 -79t14.5 -79.5t41.5 -30.5z
M394 -124l27 -57q-30 -28 -92 -28q-44 0 -77.5 21t-33.5 62q0 30 28 56.5t56 37.5l27 11h69l-15.5 -15.5t-25 -36t-15.5 -49.5q0 -19 20 -19q9 0 17 4.5t11 8.5z" />
    <glyph glyph-name="Cacute" unicode="&#x106;" horiz-adv-x="528" 
d="M449 155l49 -104q-5 -6 -16 -15.5t-51.5 -25.5t-89.5 -16q-125 0 -205.5 78.5t-80.5 237.5v57q0 85 24 148.5t65 98.5t88.5 52t101.5 17q50 0 90 -15.5t55 -31.5l15 -15l-49 -104q-26 32 -85 32q-61 0 -97 -53.5t-36 -157.5q0 -105 37 -158t105 -53q25 0 45 7t28 14z
M289 849h143l-89 -121h-118z" />
    <glyph glyph-name="cacute" unicode="&#x107;" horiz-adv-x="430" 
d="M290 127q15 0 27 3.5t17 7.5l5 4l45 -95q-2 -2 -5 -5.5t-15 -13t-26 -16.5t-37 -12.5t-49 -5.5q-89 0 -148 61.5t-59 152.5v58q0 95 56.5 154.5t145.5 59.5q27 0 51.5 -6t39.5 -15t26.5 -18t15.5 -15l5 -6l-45 -96q-21 22 -54 22q-34 0 -55.5 -27t-21.5 -82
q0 -110 81 -110zM214 649h143l-89 -121h-118z" />
    <glyph glyph-name="Ccaron" unicode="&#x10c;" horiz-adv-x="528" 
d="M449 155l49 -104q-5 -6 -16 -15.5t-51.5 -25.5t-89.5 -16q-125 0 -205.5 78.5t-80.5 237.5v57q0 85 24 148.5t65 98.5t88.5 52t101.5 17q50 0 90 -15.5t55 -31.5l15 -15l-49 -104q-26 32 -85 32q-61 0 -97 -53.5t-36 -157.5q0 -105 37 -158t105 -53q25 0 45 7t28 14z
M341 847h124l-107 -120h-114l-107 120h124l40 -56z" />
    <glyph glyph-name="ccaron" unicode="&#x10d;" horiz-adv-x="430" 
d="M290 127q15 0 27 3.5t17 7.5l5 4l45 -95q-2 -2 -5 -5.5t-15 -13t-26 -16.5t-37 -12.5t-49 -5.5q-89 0 -148 61.5t-59 152.5v58q0 95 56.5 154.5t145.5 59.5q27 0 51.5 -6t39.5 -15t26.5 -18t15.5 -15l5 -6l-45 -96q-21 22 -54 22q-34 0 -55.5 -27t-21.5 -82
q0 -110 81 -110zM268 647h124l-107 -120h-114l-107 120h124l40 -56z" />
    <glyph glyph-name="Dcaron" unicode="&#x10e;" horiz-adv-x="583" 
d="M319 677q40 0 75.5 -17t66 -52t49 -97t18.5 -144v-57q0 -82 -18.5 -144t-49.5 -97t-66.5 -52t-75.5 -17h-263v677h264zM266 134q90 0 90 204q0 205 -89 205h-40v-409h39zM305 847h124l-107 -120h-114l-107 120h124l40 -56z" />
    <glyph glyph-name="dcaron" unicode="&#x10f;" horiz-adv-x="524" 
d="M315 677l164 42v-719h-146l-18 44q-4 -6 -11.5 -14t-37.5 -22t-67 -14q-63 0 -108.5 56t-45.5 158v58q0 101 45.5 157.5t108.5 56.5q37 0 66 -12.5t39 -25.5l11 -12v247zM265 127q56 0 56 110q0 109 -56 109t-56 -109q0 -110 56 -110zM524 677h153v-173l-67 -136h-86
l84 136h-84v173z" />
    <glyph glyph-name="Dcroat" unicode="&#x110;" horiz-adv-x="634" 
d="M315 677q40 0 75.5 -17t66 -52t49 -97t18.5 -144v-57q0 -82 -18.5 -144t-49.5 -97t-66.5 -52t-75.5 -17h-263v278h-46v133h46v266h264zM262 134q90 0 90 204q0 205 -89 205h-40v-132h65v-133h-65v-144h39z" />
    <glyph glyph-name="dcroat" unicode="&#x111;" horiz-adv-x="528" 
d="M479 604h49v-109h-49v-495h-146l-18 44q-4 -6 -11.5 -14t-37.5 -22t-67 -14q-63 0 -108.5 56t-45.5 158v58q0 101 45.5 157.5t108.5 56.5q37 0 66 -12.5t39 -25.5l11 -12v65h-71v109h71v73l164 42v-115zM265 127q56 0 56 110q0 109 -56 109t-56 -109q0 -110 56 -110z" />
    <glyph glyph-name="Emacron" unicode="&#x112;" horiz-adv-x="434" 
d="M379 543h-152v-114h115v-134h-115v-161h152v-134h-324v677h324v-134zM65 833h304v-103h-304v103z" />
    <glyph glyph-name="emacron" unicode="&#x113;" horiz-adv-x="503" 
d="M458 262v-72h-249q4 -30 31 -49.5t64 -19.5q22 0 43.5 8.5t32.5 16.5l10 8l48 -102q-6 -6 -18.5 -16t-58 -26t-99.5 -16q-79 0 -148 55.5t-69 154.5v58q0 102 65 160t152 58q81 0 138.5 -62.5t57.5 -155.5zM209 273h105q0 80 -52 80q-25 0 -39 -21.5t-14 -58.5zM104 633
h304v-103h-304v103z" />
    <glyph glyph-name="Edotaccent" unicode="&#x116;" horiz-adv-x="434" 
d="M379 543h-152v-114h115v-134h-115v-161h152v-134h-324v677h324v-134zM136 873h163v-147h-163v147z" />
    <glyph glyph-name="edotaccent" unicode="&#x117;" horiz-adv-x="503" 
d="M458 262v-72h-249q4 -30 31 -49.5t64 -19.5q22 0 43.5 8.5t32.5 16.5l10 8l48 -102q-6 -6 -18.5 -16t-58 -26t-99.5 -16q-79 0 -148 55.5t-69 154.5v58q0 102 65 160t152 58q81 0 138.5 -62.5t57.5 -155.5zM209 273h105q0 80 -52 80q-25 0 -39 -21.5t-14 -58.5zM175 673
h163v-147h-163v147z" />
    <glyph glyph-name="Eogonek" unicode="&#x118;" horiz-adv-x="434" 
d="M379 543h-152v-114h115v-134h-115v-161h152v-134h-324v677h324v-134zM370 -124l27 -57q-30 -28 -92 -28q-44 0 -77.5 21t-33.5 62q0 30 28 56.5t56 37.5l27 11h69l-15.5 -15.5t-25 -36t-15.5 -49.5q0 -19 20 -19q9 0 17 4.5t11 8.5z" />
    <glyph glyph-name="eogonek" unicode="&#x119;" horiz-adv-x="503" 
d="M458 262v-72h-249q4 -30 31 -49.5t64 -19.5q22 0 43.5 8.5t32.5 16.5l10 8l48 -102q-6 -6 -18.5 -16t-58 -26t-99.5 -16q-79 0 -148 55.5t-69 154.5v58q0 102 65 160t152 58q81 0 138.5 -62.5t57.5 -155.5zM209 273h105q0 80 -52 80q-25 0 -39 -21.5t-14 -58.5zM286 -124
l27 -57q-30 -28 -92 -28q-44 0 -77.5 21t-33.5 62q0 30 28 56.5t56 37.5l27 11h69l-15.5 -15.5t-25 -36t-15.5 -49.5q0 -19 20 -19q9 0 17 4.5t11 8.5z" />
    <glyph glyph-name="Ecaron" unicode="&#x11a;" horiz-adv-x="434" 
d="M379 543h-152v-114h115v-134h-115v-161h152v-134h-324v677h324v-134zM257 847h124l-107 -120h-114l-107 120h124l40 -56z" />
    <glyph glyph-name="ecaron" unicode="&#x11b;" horiz-adv-x="503" 
d="M458 262v-72h-249q4 -30 31 -49.5t64 -19.5q22 0 43.5 8.5t32.5 16.5l10 8l48 -102q-6 -6 -18.5 -16t-58 -26t-99.5 -16q-79 0 -148 55.5t-69 154.5v58q0 102 65 160t152 58q81 0 138.5 -62.5t57.5 -155.5zM209 273h105q0 80 -52 80q-25 0 -39 -21.5t-14 -58.5zM301 647
h124l-107 -120h-114l-107 120h124l40 -56z" />
    <glyph glyph-name="Gbreve" unicode="&#x11e;" horiz-adv-x="592" 
d="M304 410h233v-288q-2 -5 -6.5 -13.5t-23 -31t-41.5 -39t-63 -30.5t-87 -14q-113 0 -187 80t-74 236v57q0 147 81.5 231.5t201.5 84.5q52 0 95.5 -14t61.5 -28l18 -14l-49 -104q-34 26 -99 26q-138 0 -138 -211q0 -104 23.5 -157.5t61.5 -53.5q16 0 29 9.5t19 19.5l5 9
v111h-61v134zM370 864h82q0 -63 -36 -102t-105 -39t-104.5 39t-35.5 102h82q0 -15 15.5 -26.5t42.5 -11.5t43 11.5t16 26.5z" />
    <glyph glyph-name="gbreve" unicode="&#x11f;" horiz-adv-x="524" 
d="M330 474h149v-509q0 -89 -60 -131.5t-144 -42.5q-85 0 -145 42.5t-60 131.5h144q0 -20 14 -30.5t36 -10.5t36.5 11t14.5 30v79q-4 -6 -11.5 -14t-37.5 -22t-67 -14q-63 0 -108.5 56t-45.5 158v58q0 101 45.5 157.5t108.5 56.5q37 0 66 -12.5t39 -25.5l11 -12zM265 127
q27 0 41.5 29.5t14.5 80.5t-14.5 80t-41.5 29t-41.5 -29t-14.5 -80t14.5 -80.5t41.5 -29.5zM328 664h82q0 -63 -36 -102t-105 -39t-104.5 39t-35.5 102h82q0 -15 15.5 -26.5t42.5 -11.5t43 11.5t16 26.5z" />
    <glyph glyph-name="uni0122" unicode="&#x122;" horiz-adv-x="592" 
d="M304 410h233v-288q-2 -5 -6.5 -13.5t-23 -31t-41.5 -39t-63 -30.5t-87 -14q-113 0 -187 80t-74 236v57q0 147 81.5 231.5t201.5 84.5q52 0 95.5 -14t61.5 -28l18 -14l-49 -104q-34 26 -99 26q-138 0 -138 -211q0 -104 23.5 -157.5t61.5 -53.5q16 0 29 9.5t19 19.5l5 9
v111h-61v134zM360 -48q111 0 111 -76q0 -44 -40.5 -64.5t-101.5 -20.5q-27 0 -58 7t-49 14l-18 7l27 57q37 -17 72 -17q44 0 44 19q0 18 -32 18q-13 0 -24.5 -3.5t-16.5 -6.5l-4 -4h-66l46 97h65l-16 -34q24 7 61 7z" />
    <glyph glyph-name="uni0123" unicode="&#x123;" horiz-adv-x="524" 
d="M330 474h149v-509q0 -89 -60 -131.5t-144 -42.5q-85 0 -145 42.5t-60 131.5h144q0 -20 14 -30.5t36 -10.5t36.5 11t14.5 30v79q-4 -6 -11.5 -14t-37.5 -22t-67 -14q-63 0 -108.5 56t-45.5 158v58q0 101 45.5 157.5t108.5 56.5q37 0 66 -12.5t39 -25.5l11 -12zM265 127
q27 0 41.5 29.5t14.5 80.5t-14.5 80t-41.5 29t-41.5 -29t-14.5 -80t14.5 -80.5t41.5 -29.5zM292 836l-84 -137h84v-172h-153v172l66 137h87z" />
    <glyph glyph-name="Imacron" unicode="&#x12a;" horiz-adv-x="282" 
d="M55 677h172v-677h-172v677zM-11 833h304v-103h-304v103z" />
    <glyph glyph-name="imacron" unicode="&#x12b;" horiz-adv-x="272" 
d="M54 0v474h164v-474h-164zM-16 651h304v-103h-304v103z" />
    <glyph glyph-name="Iogonek" unicode="&#x12e;" horiz-adv-x="282" 
d="M55 677h172v-677h-172v677zM218 -124l27 -57q-30 -28 -92 -28q-44 0 -77.5 21t-33.5 62q0 30 28 56.5t56 37.5l27 11h69l-15.5 -15.5t-25 -36t-15.5 -49.5q0 -19 20 -19q9 0 17 4.5t11 8.5z" />
    <glyph glyph-name="iogonek" unicode="&#x12f;" horiz-adv-x="272" 
d="M54 0v474h164v-474h-164zM45 706h182v-163h-182v163zM211 -124l27 -57q-30 -28 -92 -28q-44 0 -77.5 21t-33.5 62q0 19 11.5 37t28 29.5t32.5 21t27 13.5l12 4h69l-15.5 -15.5t-25 -36t-15.5 -49.5q0 -19 20 -19q9 0 17 4.5t12 8.5z" />
    <glyph glyph-name="Idotaccent" unicode="&#x130;" horiz-adv-x="282" 
d="M55 677h172v-677h-172v677zM60 873h163v-147h-163v147z" />
    <glyph glyph-name="dotlessi" unicode="&#x131;" horiz-adv-x="272" 
d="M54 0v474h164v-474h-164z" />
    <glyph glyph-name="uni0136" unicode="&#x136;" horiz-adv-x="604" 
d="M412 444l137 -444h-181l-73 235l-68 -122v-113h-172v677h172v-235l137 235h179zM475 -48q111 0 111 -76q0 -44 -40.5 -64.5t-101.5 -20.5q-27 0 -58 7t-49 14l-18 7l27 57q37 -17 72 -17q44 0 44 19q0 18 -32 18q-13 0 -24.5 -3.5t-15.5 -6.5l-5 -4h-66l46 97h65l-16 -34
q24 7 61 7z" />
    <glyph glyph-name="uni0137" unicode="&#x137;" horiz-adv-x="521" 
d="M379 313l97 -313h-159l-38 141l-82 -141h-152v677l164 42v-429l94 184h170zM427 -48q111 0 111 -76q0 -44 -40.5 -64.5t-101.5 -20.5q-27 0 -58 7t-49 14l-18 7l27 57q37 -17 72 -17q44 0 44 19q0 18 -32 18q-13 0 -24.5 -3.5t-15.5 -6.5l-5 -4h-66l46 97h65l-16 -34
q24 7 61 7z" />
    <glyph glyph-name="Lacute" unicode="&#x139;" horiz-adv-x="432" 
d="M227 134h150v-134h-322v677h172v-543zM126 849h143l-89 -121h-118z" />
    <glyph glyph-name="lacute" unicode="&#x13a;" horiz-adv-x="259" 
d="M45 677l164 42v-719h-164v677zM112 849h143l-89 -121h-118z" />
    <glyph glyph-name="uni013B" unicode="&#x13b;" horiz-adv-x="432" 
d="M227 134h150v-134h-322v677h172v-543zM244 -48q111 0 111 -76q0 -44 -40.5 -64.5t-101.5 -20.5q-27 0 -58 7t-49 14l-18 7l27 57q37 -17 72 -17q44 0 44 19q0 18 -32 18q-13 0 -24.5 -3.5t-16.5 -6.5l-4 -4h-66l46 97h65l-16 -34q24 7 61 7z" />
    <glyph glyph-name="uni013C" unicode="&#x13c;" horiz-adv-x="259" 
d="M45 677l164 42v-719h-164v677zM157 -48q111 0 111 -76q0 -44 -40.5 -64.5t-101.5 -20.5q-27 0 -58 7t-49 14l-18 7l27 57q37 -17 72 -17q44 0 44 19q0 18 -32 18q-13 0 -24.5 -3.5t-15.5 -6.5l-5 -4h-66l46 97h65l-16 -34q24 7 61 7z" />
    <glyph glyph-name="Lcaron" unicode="&#x13d;" horiz-adv-x="432" 
d="M227 134h150v-134h-322v677h172v-543zM279 677h153v-173l-67 -136h-86l84 136h-84v173z" />
    <glyph glyph-name="lcaron" unicode="&#x13e;" horiz-adv-x="259" 
d="M45 677l164 42v-719h-164v677zM259 677h153v-173l-67 -136h-86l84 136h-84v173z" />
    <glyph glyph-name="Lslash" unicode="&#x141;" horiz-adv-x="466" 
d="M206 134h150v-134h-322v257l-59 -12l-25 131l84 17v284h172v-251l87 17l25 -131l-112 -22v-156z" />
    <glyph glyph-name="lslash" unicode="&#x142;" horiz-adv-x="298" 
d="M281 442l25 -131l-103 -20v-291h-164v259l-74 -14l-25 131l99 20v281l164 42v-292z" />
    <glyph glyph-name="Nacute" unicode="&#x143;" horiz-adv-x="591" 
d="M368 677h168v-683h-168l-145 294v-288h-168v677h168l145 -294v294zM258 849h143l-89 -121h-118z" />
    <glyph glyph-name="nacute" unicode="&#x144;" horiz-adv-x="524" 
d="M335 480q63 0 103.5 -46.5t40.5 -140.5v-293h-164v207q0 146 -53 146t-53 -146v-207h-164v474h149l15 -44q5 6 14 14t41.5 22t70.5 14zM237 649h143l-89 -121h-118z" />
    <glyph glyph-name="uni0145" unicode="&#x145;" horiz-adv-x="591" 
d="M368 677h168v-683h-168l-145 294v-288h-168v677h168l145 -294v294zM477 -48q111 0 111 -76q0 -44 -40.5 -64.5t-101.5 -20.5q-27 0 -58 7t-49 14l-18 7l27 57q37 -17 72 -17q44 0 44 19q0 18 -32 18q-13 0 -24.5 -3.5t-15.5 -6.5l-5 -4h-66l46 97h65l-16 -34q24 7 61 7z
" />
    <glyph glyph-name="uni0146" unicode="&#x146;" horiz-adv-x="524" 
d="M335 480q63 0 103.5 -46.5t40.5 -140.5v-293h-164v207q0 146 -53 146t-53 -146v-207h-164v474h149l15 -44q5 6 14 14t41.5 22t70.5 14zM425 -48q111 0 111 -76q0 -44 -40.5 -64.5t-101.5 -20.5q-27 0 -58 7t-49 14l-18 7l27 57q37 -17 72 -17q44 0 44 19q0 18 -32 18
q-13 0 -24.5 -3.5t-15.5 -6.5l-5 -4h-66l46 97h65l-16 -34q24 7 61 7z" />
    <glyph glyph-name="Ncaron" unicode="&#x147;" horiz-adv-x="591" 
d="M368 677h168v-683h-168l-145 294v-288h-168v677h168l145 -294v294zM335 847h124l-107 -120h-114l-107 120h124l40 -56z" />
    <glyph glyph-name="ncaron" unicode="&#x148;" horiz-adv-x="524" 
d="M335 480q63 0 103.5 -46.5t40.5 -140.5v-293h-164v207q0 146 -53 146t-53 -146v-207h-164v474h149l15 -44q5 6 14 14t41.5 22t70.5 14zM302 647h124l-107 -120h-114l-107 120h124l40 -56z" />
    <glyph glyph-name="Omacron" unicode="&#x14c;" horiz-adv-x="612" 
d="M306 683q111 0 181 -79.5t70 -236.5v-57q0 -157 -69.5 -236.5t-181.5 -79.5t-181.5 79t-69.5 237v57q0 157 69.5 236.5t181.5 79.5zM306 127q36 0 57 53.5t21 157.5t-21 157.5t-57 53.5t-57.5 -53.5t-21.5 -157.5t21.5 -157.5t57.5 -53.5zM154 833h304v-103h-304v103z
" />
    <glyph glyph-name="omacron" unicode="&#x14d;" horiz-adv-x="536" 
d="M268 480q94 0 158.5 -57t64.5 -161v-58q0 -98 -64.5 -154t-158.5 -56t-158.5 56t-64.5 154v58q0 104 64.5 161t158.5 57zM268 127q28 0 43.5 29t15.5 81t-15.5 80.5t-43.5 28.5t-43.5 -28.5t-15.5 -80.5t15.5 -81t43.5 -29zM116 633h304v-103h-304v103z" />
    <glyph glyph-name="Ohungarumlaut" unicode="&#x150;" horiz-adv-x="612" 
d="M306 683q111 0 181 -79.5t70 -236.5v-57q0 -157 -69.5 -236.5t-181.5 -79.5t-181.5 79t-69.5 237v57q0 157 69.5 236.5t181.5 79.5zM306 127q36 0 57 53.5t21 157.5t-21 157.5t-57 53.5t-57.5 -53.5t-21.5 -157.5t21.5 -157.5t57.5 -53.5zM187 849h144l-64 -121h-118z
M365 849h144l-85 -121h-118z" />
    <glyph glyph-name="ohungarumlaut" unicode="&#x151;" horiz-adv-x="536" 
d="M268 480q94 0 158.5 -57t64.5 -161v-58q0 -98 -64.5 -154t-158.5 -56t-158.5 56t-64.5 154v58q0 104 64.5 161t158.5 57zM268 127q28 0 43.5 29t15.5 81t-15.5 80.5t-43.5 28.5t-43.5 -28.5t-15.5 -80.5t15.5 -81t43.5 -29zM158 649h144l-64 -121h-118zM336 649h144
l-85 -121h-118z" />
    <glyph glyph-name="OE" unicode="&#x152;" horiz-adv-x="764" 
d="M709 543h-152v-114h115v-134h-115v-161h152v-134h-325v11q-36 -17 -78 -17q-112 0 -181.5 79t-69.5 237v57q0 157 69.5 236.5t181.5 79.5q44 0 78 -18v12h325v-134zM306 127q36 0 57 53.5t21 157.5t-21 157.5t-57 53.5t-57.5 -53.5t-21.5 -157.5t21.5 -157.5t57.5 -53.5z
" />
    <glyph glyph-name="oe" unicode="&#x153;" horiz-adv-x="785" 
d="M740 262v-72h-249q4 -30 31 -49.5t64 -19.5q22 0 43.5 8.5t32.5 16.5l10 8l48 -102q-6 -6 -18.5 -16t-58 -26t-99.5 -16q-72 0 -133 43q-60 -43 -143 -43q-94 0 -158.5 56t-64.5 154v58q0 104 64.5 161t158.5 57q82 0 142 -43q58 43 134 43q81 0 138.5 -62.5t57.5 -155.5
zM268 127q28 0 43.5 29t15.5 81t-15.5 80.5t-43.5 28.5t-43.5 -28.5t-15.5 -80.5t15.5 -81t43.5 -29zM491 273h105q0 80 -52 80q-25 0 -39 -21.5t-14 -58.5z" />
    <glyph glyph-name="Racute" unicode="&#x154;" horiz-adv-x="573" 
d="M431 282l87 -282h-168l-77 251h-46v-251h-172v677h259q91 0 147 -56t56 -157q0 -127 -86 -182zM283 384q61 0 61 80q0 79 -61 79h-56v-159h56zM235 849h143l-89 -121h-118z" />
    <glyph glyph-name="racute" unicode="&#x155;" horiz-adv-x="406" 
d="M306 480q18 0 36.5 -5t28.5 -11l10 -5l-59 -126q-18 13 -46 13q-67 0 -67 -116v-230h-164v474h148l16 -57q4 7 12 17.5t33.5 28t51.5 17.5zM171 649h143l-89 -121h-118z" />
    <glyph glyph-name="uni0156" unicode="&#x156;" horiz-adv-x="573" 
d="M431 282l87 -282h-168l-77 251h-46v-251h-172v677h259q91 0 147 -56t56 -157q0 -127 -86 -182zM283 384q61 0 61 80q0 79 -61 79h-56v-159h56zM457 -48q111 0 111 -76q0 -44 -40.5 -64.5t-101.5 -20.5q-27 0 -58 7t-49 14l-18 7l27 57q37 -17 72 -17q44 0 44 19
q0 18 -32 18q-13 0 -24.5 -3.5t-15.5 -6.5l-5 -4h-66l46 97h65l-16 -34q24 7 61 7z" />
    <glyph glyph-name="uni0157" unicode="&#x157;" horiz-adv-x="406" 
d="M306 480q18 0 36.5 -5t28.5 -11l10 -5l-59 -126q-18 13 -46 13q-67 0 -67 -116v-230h-164v474h148l16 -57q4 7 12 17.5t33.5 28t51.5 17.5zM157 -48q111 0 111 -76q0 -44 -40.5 -64.5t-101.5 -20.5q-27 0 -58 7t-49 14l-18 7l27 57q37 -17 72 -17q44 0 44 19q0 18 -32 18
q-13 0 -24.5 -3.5t-15.5 -6.5l-5 -4h-66l46 97h65l-16 -34q24 7 61 7z" />
    <glyph glyph-name="Rcaron" unicode="&#x158;" horiz-adv-x="573" 
d="M431 282l87 -282h-168l-77 251h-46v-251h-172v677h259q91 0 147 -56t56 -157q0 -127 -86 -182zM283 384q61 0 61 80q0 79 -61 79h-56v-159h56zM310 847h124l-107 -120h-114l-107 120h124l40 -56z" />
    <glyph glyph-name="rcaron" unicode="&#x159;" horiz-adv-x="406" 
d="M306 480q18 0 36.5 -5t28.5 -11l10 -5l-59 -126q-18 13 -46 13q-67 0 -67 -116v-230h-164v474h148l16 -57q4 7 12 17.5t33.5 28t51.5 17.5zM238 647h124l-107 -120h-114l-107 120h124l40 -56z" />
    <glyph glyph-name="Sacute" unicode="&#x15a;" horiz-adv-x="497" 
d="M243 500q0 -22 20.5 -48.5t49.5 -54.5t58.5 -59.5t50 -74.5t20.5 -88q0 -87 -58.5 -134t-141.5 -47q-52 0 -99 15t-67 30l-21 15l54 115q51 -42 104 -42q27 0 41.5 12.5t14.5 34.5q0 24 -20.5 51.5t-49.5 55.5t-58.5 59.5t-50 76t-20.5 92.5q0 75 56.5 124.5t135.5 49.5
q49 0 91.5 -13.5t60.5 -27.5l18 -13l-49 -104q-35 24 -79 24q-26 0 -43.5 -13t-17.5 -36zM240 849h143l-89 -121h-118z" />
    <glyph glyph-name="sacute" unicode="&#x15b;" horiz-adv-x="436" 
d="M215 326q0 -11 26.5 -26.5l58 -32.5t58 -52t26.5 -80q0 -66 -48 -103.5t-122 -37.5q-48 0 -90 15t-60 30l-19 15l49 104q36 -31 92 -31q34 0 34 21q0 12 -26.5 27t-58 30.5t-58 51.5t-26.5 84q0 65 48.5 102t120.5 37q45 0 81 -13.5t50 -26.5l14 -14l-46 -98
q-26 18 -65 18t-39 -20zM197 649h143l-89 -121h-118z" />
    <glyph glyph-name="uni015E" unicode="&#x15e;" horiz-adv-x="497" 
d="M243 500q0 -22 20.5 -48.5t49.5 -54.5t58.5 -59.5t50 -74.5t20.5 -88q0 -87 -58.5 -134t-141.5 -47q-52 0 -99 15t-67 30l-21 15l54 115q51 -42 104 -42q27 0 41.5 12.5t14.5 34.5q0 24 -20.5 51.5t-49.5 55.5t-58.5 59.5t-50 76t-20.5 92.5q0 75 56.5 124.5t135.5 49.5
q49 0 91.5 -13.5t60.5 -27.5l18 -13l-49 -104q-35 24 -79 24q-26 0 -43.5 -13t-17.5 -36zM279 -48q111 0 111 -76q0 -44 -40.5 -64.5t-101.5 -20.5q-27 0 -58 7t-49 14l-18 7l27 57q37 -17 72 -17q44 0 44 19q0 18 -32 18q-13 0 -24.5 -3.5t-15.5 -6.5l-5 -4h-66l46 97h65
l-16 -34q24 7 61 7z" />
    <glyph glyph-name="uni015F" unicode="&#x15f;" horiz-adv-x="436" 
d="M215 326q0 -11 26.5 -26.5l58 -32.5t58 -52t26.5 -80q0 -66 -48 -103.5t-122 -37.5q-48 0 -90 15t-60 30l-19 15l49 104q36 -31 92 -31q34 0 34 21q0 12 -26.5 27t-58 30.5t-58 51.5t-26.5 84q0 65 48.5 102t120.5 37q45 0 81 -13.5t50 -26.5l14 -14l-46 -98
q-26 18 -65 18t-39 -20zM250 -48q111 0 111 -76q0 -44 -40.5 -64.5t-101.5 -20.5q-27 0 -58 7t-49 14l-18 7l27 57q37 -17 72 -17q44 0 44 19q0 18 -32 18q-13 0 -24.5 -3.5t-16.5 -6.5l-4 -4h-66l46 97h65l-16 -34q24 7 61 7z" />
    <glyph glyph-name="Scaron" unicode="&#x160;" horiz-adv-x="497" 
d="M243 500q0 -22 20.5 -48.5t49.5 -54.5t58.5 -59.5t50 -74.5t20.5 -88q0 -87 -58.5 -134t-141.5 -47q-52 0 -99 15t-67 30l-21 15l54 115q51 -42 104 -42q27 0 41.5 12.5t14.5 34.5q0 24 -20.5 51.5t-49.5 55.5t-58.5 59.5t-50 76t-20.5 92.5q0 75 56.5 124.5t135.5 49.5
q49 0 91.5 -13.5t60.5 -27.5l18 -13l-49 -104q-35 24 -79 24q-26 0 -43.5 -13t-17.5 -36zM292 847h124l-107 -120h-114l-107 120h124l40 -56z" />
    <glyph glyph-name="scaron" unicode="&#x161;" horiz-adv-x="436" 
d="M215 326q0 -11 26.5 -26.5l58 -32.5t58 -52t26.5 -80q0 -66 -48 -103.5t-122 -37.5q-48 0 -90 15t-60 30l-19 15l49 104q36 -31 92 -31q34 0 34 21q0 12 -26.5 27t-58 30.5t-58 51.5t-26.5 84q0 65 48.5 102t120.5 37q45 0 81 -13.5t50 -26.5l14 -14l-46 -98
q-26 18 -65 18t-39 -20zM262 647h124l-107 -120h-114l-107 120h124l40 -56z" />
    <glyph glyph-name="uni0162" unicode="&#x162;" horiz-adv-x="507" 
d="M55 677h397v-134h-112v-543h-173v543h-112v134zM281 -48q111 0 111 -76q0 -44 -40.5 -64.5t-101.5 -20.5q-27 0 -58 7t-49 14l-18 7l27 57q37 -17 72 -17q44 0 44 19q0 18 -32 18q-13 0 -24.5 -3.5t-15.5 -6.5l-5 -4h-66l46 97h65l-16 -34q24 7 61 7z" />
    <glyph glyph-name="uni0163" unicode="&#x163;" horiz-adv-x="423" 
d="M294 480h84v-134h-84v-346h-165v346h-84v134h84v197l165 42v-239zM238 -48q111 0 111 -76q0 -44 -40.5 -64.5t-101.5 -20.5q-27 0 -58 7t-49 14l-18 7l27 57q37 -17 72 -17q44 0 44 19q0 18 -32 18q-13 0 -24.5 -3.5t-16.5 -6.5l-4 -4h-66l46 97h65l-16 -34q24 7 61 7z
" />
    <glyph glyph-name="Tcaron" unicode="&#x164;" horiz-adv-x="507" 
d="M55 677h397v-134h-112v-543h-173v543h-112v134zM293 847h124l-107 -120h-114l-107 120h124l40 -56z" />
    <glyph glyph-name="tcaron" unicode="&#x165;" horiz-adv-x="423" 
d="M294 480h84v-134h-84v-346h-165v346h-84v134h84v197l165 42v-239zM402 700h153v-173l-67 -136h-86l84 136h-84v173z" />
    <glyph glyph-name="Umacron" unicode="&#x16a;" horiz-adv-x="577" 
d="M350 677h172v-439q0 -126 -64 -185t-169 -59t-169.5 59t-64.5 185v439h172v-380q0 -91 15 -130.5t47 -39.5t46.5 39t14.5 131v380zM136 833h304v-103h-304v103z" />
    <glyph glyph-name="umacron" unicode="&#x16b;" horiz-adv-x="519" 
d="M310 474h164v-474h-149l-15 44q-5 -6 -14 -14t-41.5 -22t-70.5 -14q-63 0 -103.5 46.5t-40.5 140.5v293h164v-207q0 -146 53 -146t53 146v207zM107 633h304v-103h-304v103z" />
    <glyph glyph-name="Uring" unicode="&#x16e;" horiz-adv-x="577" 
d="M350 677h172v-439q0 -126 -64 -185t-169 -59t-169.5 59t-64.5 185v439h172v-380q0 -91 15 -130.5t47 -39.5t46.5 39t14.5 131v380zM288 921q49 0 84 -31.5t35 -84.5t-34.5 -84.5t-84.5 -31.5t-84.5 31t-34.5 85q0 53 34.5 84.5t84.5 31.5zM288 770q13 0 21 9t8 26t-8 26
t-21 9t-21 -9t-8 -26t8 -26t21 -9z" />
    <glyph glyph-name="uring" unicode="&#x16f;" horiz-adv-x="519" 
d="M310 474h164v-474h-149l-15 44q-5 -6 -14 -14t-41.5 -22t-70.5 -14q-63 0 -103.5 46.5t-40.5 140.5v293h164v-207q0 -146 53 -146t53 146v207zM259 721q49 0 84 -31.5t35 -84.5t-34.5 -84.5t-84.5 -31.5t-84.5 31t-34.5 85q0 53 34.5 84.5t84.5 31.5zM259 570q13 0 21 9
t8 26t-8 26t-21 9t-21 -9t-8 -26t8 -26t21 -9z" />
    <glyph glyph-name="Uhungarumlaut" unicode="&#x170;" horiz-adv-x="577" 
d="M350 677h172v-439q0 -126 -64 -185t-169 -59t-169.5 59t-64.5 185v439h172v-380q0 -91 15 -130.5t47 -39.5t46.5 39t14.5 131v380zM173 849h144l-64 -121h-118zM351 849h144l-85 -121h-118z" />
    <glyph glyph-name="uhungarumlaut" unicode="&#x171;" horiz-adv-x="519" 
d="M310 474h164v-474h-149l-15 44q-5 -6 -14 -14t-41.5 -22t-70.5 -14q-63 0 -103.5 46.5t-40.5 140.5v293h164v-207q0 -146 53 -146t53 146v207zM141 649h144l-64 -121h-118zM319 649h144l-85 -121h-118z" />
    <glyph glyph-name="Uogonek" unicode="&#x172;" horiz-adv-x="577" 
d="M350 677h172v-439q0 -126 -64 -185t-169 -59t-169.5 59t-64.5 185v439h172v-380q0 -91 15 -130.5t47 -39.5t46.5 39t14.5 131v380zM308 -124l27 -57q-30 -28 -92 -28q-44 0 -77.5 21t-33.5 62q0 30 28 56.5t56 37.5l27 11h69l-15.5 -15.5t-25 -36t-15.5 -49.5
q0 -19 20 -19q9 0 17 4.5t11 8.5z" />
    <glyph glyph-name="uogonek" unicode="&#x173;" horiz-adv-x="519" 
d="M310 474h164v-474h-149l-15 44q-5 -6 -14 -14t-41.5 -22t-70.5 -14q-63 0 -103.5 46.5t-40.5 140.5v293h164v-207q0 -146 53 -146t53 146v207zM387 -124l27 -57q-30 -28 -92 -28q-44 0 -77.5 21t-33.5 62q0 19 11.5 37t27.5 29.5t32.5 21t27.5 13.5l12 4h69l-15.5 -15.5
t-25 -36t-15.5 -49.5q0 -19 20 -19q9 0 17 4.5t12 8.5z" />
    <glyph glyph-name="Ydieresis" unicode="&#x178;" horiz-adv-x="643" 
d="M409 677h179l-179 -440v-237h-173v232l-181 445h184l86 -237zM156 729v138h138v-138h-138zM349 867h138v-138h-138v138z" />
    <glyph glyph-name="Zacute" unicode="&#x179;" horiz-adv-x="445" 
d="M390 677v-140l-157 -403h157v-134h-335v1v138l157 404h-154v134h332zM201 849h143l-89 -121h-118z" />
    <glyph glyph-name="zacute" unicode="&#x17a;" horiz-adv-x="408" 
d="M363 474v-134l-139 -206h139v-134h-318v134l139 206h-131v134h310zM186 649h143l-89 -121h-118z" />
    <glyph glyph-name="Zdotaccent" unicode="&#x17b;" horiz-adv-x="445" 
d="M390 677v-140l-157 -403h157v-134h-335v1v138l157 404h-154v134h332zM141 873h163v-147h-163v147z" />
    <glyph glyph-name="zdotaccent" unicode="&#x17c;" horiz-adv-x="408" 
d="M363 474v-134l-139 -206h139v-134h-318v134l139 206h-131v134h310zM127 673h163v-147h-163v147z" />
    <glyph glyph-name="Zcaron" unicode="&#x17d;" horiz-adv-x="445" 
d="M390 677v-140l-157 -403h157v-134h-335v1v138l157 404h-154v134h332zM269 847h124l-107 -120h-114l-107 120h124l40 -56z" />
    <glyph glyph-name="zcaron" unicode="&#x17e;" horiz-adv-x="408" 
d="M363 474v-134l-139 -206h139v-134h-318v134l139 206h-131v134h310zM257 647h124l-107 -120h-114l-107 120h124l40 -56z" />
    <glyph glyph-name="florin" unicode="&#x192;" horiz-adv-x="557" 
d="M369 502l-4 -42h108v-115h-119l-37 -373q-9 -86 -57.5 -133.5t-118.5 -47.5q-30 0 -57.5 8t-40.5 16l-13 8l44 94q14 -11 40 -11q37 0 44 66l37 373h-56v115h67l4 42q9 86 57.5 133.5t118.5 47.5q30 0 57.5 -8.5t40.5 -16.5l13 -8l-44 -94q-14 12 -40 12q-37 0 -44 -66z
" />
    <glyph glyph-name="uni0218" unicode="&#x218;" horiz-adv-x="497" 
d="M243 500q0 -22 20.5 -48.5t49.5 -54.5t58.5 -59.5t50 -74.5t20.5 -88q0 -87 -58.5 -134t-141.5 -47q-52 0 -99 15t-67 30l-21 15l54 115q51 -42 104 -42q27 0 41.5 12.5t14.5 34.5q0 24 -20.5 51.5t-49.5 55.5t-58.5 59.5t-50 76t-20.5 92.5q0 75 56.5 124.5t135.5 49.5
q49 0 91.5 -13.5t60.5 -27.5l18 -13l-49 -104q-35 24 -79 24q-26 0 -43.5 -13t-17.5 -36zM175 -26h143l-89 -121h-118z" />
    <glyph glyph-name="uni0219" unicode="&#x219;" horiz-adv-x="436" 
d="M215 326q0 -11 26.5 -26.5l58 -32.5t58 -52t26.5 -80q0 -66 -48 -103.5t-122 -37.5q-48 0 -90 15t-60 30l-19 15l49 104q36 -31 92 -31q34 0 34 21q0 12 -26.5 27t-58 30.5t-58 51.5t-26.5 84q0 65 48.5 102t120.5 37q45 0 81 -13.5t50 -26.5l14 -14l-46 -98
q-26 18 -65 18t-39 -20zM158 -26h143l-89 -121h-118z" />
    <glyph glyph-name="uni021A" unicode="&#x21a;" horiz-adv-x="507" 
d="M55 677h397v-134h-112v-543h-173v543h-112v134zM187 -26h143l-89 -121h-118z" />
    <glyph glyph-name="uni021B" unicode="&#x21b;" horiz-adv-x="423" 
d="M294 480h84v-134h-84v-346h-165v346h-84v134h84v197l165 42v-239zM142 -26h143l-89 -121h-118z" />
    <glyph glyph-name="sc.g" unicode="&#x262;" horiz-adv-x="539" 
d="M271 343h218v-235q-2 -5 -7 -12.5t-23.5 -27t-40 -34.5t-57.5 -27.5t-77 -12.5q-101 0 -167.5 69t-66.5 189v58q0 120 70.5 189t177.5 69q44 0 82 -14t54 -28l17 -14l-45 -95q-26 17 -78 17q-56 0 -85 -40.5t-29 -112.5t18 -113t52 -41q14 0 24 7t13 14l3 7v79h-53v109z
" />
    <glyph glyph-name="sc.i" unicode="&#x26a;" horiz-adv-x="264" 
d="M50 562h164v-562h-164v562z" />
    <glyph glyph-name="sc.n" unicode="&#x274;" horiz-adv-x="529" 
d="M323 562h156v-568h-156l-117 219v-213h-156v562h156l117 -220v220z" />
    <glyph glyph-name="sc.r" unicode="&#x280;" horiz-adv-x="533" 
d="M483 361q0 -104 -76 -163l61 -198h-156l-50 160h-48v-160h-164v562h245q83 0 135.5 -59t52.5 -142zM252 294q66 0 66 67t-66 67h-38v-134h38z" />
    <glyph glyph-name="sc.x" unicode="&#x28e;" horiz-adv-x="542" 
d="M492 562l-119 -281l119 -281h-179l-47 111l-47 -111h-169l119 281l-119 281h178l47 -112l48 112h169z" />
    <glyph glyph-name="sc.y" unicode="&#x28f;" horiz-adv-x="558" 
d="M343 562h165l-144 -335v-227h-164v221l-150 341h174l59 -164z" />
    <glyph glyph-name="sc.b" unicode="&#x299;" horiz-adv-x="525" 
d="M386 292q4 -1 10 -3t21 -11.5t27 -23t21.5 -39t9.5 -57.5q0 -71 -52 -114.5t-135 -43.5h-238v562h243q70 0 114.5 -42.5t44.5 -106.5q0 -26 -7 -48.5t-16.5 -35t-19 -21.5t-16.5 -12zM214 428v-81h14q32 0 46 12.5t14 27.5q0 16 -14 28.5t-46 12.5h-14zM240 134
q71 0 71 52t-71 52h-26v-104h26z" />
    <glyph glyph-name="sc.h" unicode="&#x29c;" horiz-adv-x="538" 
d="M324 562h164v-562h-164v223h-110v-223h-164v562h164v-205h110v205z" />
    <glyph glyph-name="sc.l" unicode="&#x29f;" horiz-adv-x="399" 
d="M214 134h135v-134h-299v562h164v-428z" />
    <glyph glyph-name="circumflex" unicode="&#x2c6;" horiz-adv-x="398" 
d="M256 649l107 -120h-124l-40 57l-40 -57h-124l107 120h114z" />
    <glyph glyph-name="caron" unicode="&#x2c7;" horiz-adv-x="398" 
d="M239 647h124l-107 -120h-114l-107 120h124l40 -56z" />
    <glyph glyph-name="uni02C9" unicode="&#x2c9;" horiz-adv-x="300" 
d="M35 633h230v-103h-230v103z" />
    <glyph glyph-name="breve" unicode="&#x2d8;" horiz-adv-x="351" 
d="M234 664h82q0 -63 -36 -102t-105 -39t-104.5 39t-35.5 102h82q0 -15 15.5 -26.5t42.5 -11.5t43 11.5t16 26.5z" />
    <glyph glyph-name="dotaccent" unicode="&#x2d9;" horiz-adv-x="233" 
d="M35 673h163v-147h-163v147z" />
    <glyph glyph-name="ring" unicode="&#x2da;" horiz-adv-x="308" 
d="M154 721q49 0 84 -31.5t35 -84.5t-34.5 -84.5t-84.5 -31.5t-84.5 31t-34.5 85q0 53 34.5 84.5t84.5 31.5zM154 570q13 0 21 9t8 26t-8 26t-21 9t-21 -9t-8 -26t8 -26t21 -9z" />
    <glyph glyph-name="ogonek" unicode="&#x2db;" horiz-adv-x="273" 
d="M211 -124l27 -57q-30 -28 -92 -28q-44 0 -77.5 21t-33.5 62q0 19 11.5 37t28 29.5t32.5 21t27 13.5l12 4h69l-15.5 -15.5t-25 -36t-15.5 -49.5q0 -19 20 -19q9 0 17 4.5t12 8.5z" />
    <glyph glyph-name="tilde" unicode="&#x2dc;" horiz-adv-x="356" 
d="M239 661h82q0 -58 -26.5 -92.5t-72.5 -34.5q-16 0 -34 4.5t-29.5 9t-21.5 7t-15 -2.5t-5 -18h-82q0 57 27 92t72 35q16 0 34 -4.5t29.5 -9t21.5 -7t15 2.5t5 18z" />
    <glyph glyph-name="hungarumlaut" unicode="&#x2dd;" horiz-adv-x="430" 
d="M73 649h144l-64 -121h-118zM251 649h144l-85 -121h-118z" />
    <glyph glyph-name="pi" unicode="&#x3c0;" horiz-adv-x="696" 
d="M610 135l41 -88q-2 -2 -5 -5.5t-14 -13t-23.5 -16.5t-32.5 -12.5t-41 -5.5q-71 0 -117.5 39.5t-46.5 118.5v195h-93v-347h-164v347h-69v127h559v-127h-69v-137q0 -89 37 -89q10 0 19.5 3.5t14.5 7.5z" />
    <glyph glyph-name="sc.a" unicode="&#x1d00;" horiz-adv-x="577" 
d="M385 562l142 -562h-169l-17 74h-114l-17 -74h-160l142 562h193zM252 183h64l-32 140z" />
    <glyph glyph-name="sc.c" unicode="&#x1d04;" horiz-adv-x="446" 
d="M304 127q16 0 28.5 6t17.5 12l5 6l49 -104q-2 -2 -5 -5.5t-14 -13t-24.5 -16.5t-36.5 -12.5t-48 -5.5q-97 0 -161.5 71t-64.5 187v58q0 114 66 186t156 72q26 0 49 -6t38 -14t26 -16.5t16 -14.5l5 -6l-45 -96q-15 19 -54 19q-45 0 -69 -42t-24 -111q0 -71 22.5 -112.5
t67.5 -41.5z" />
    <glyph glyph-name="sc.d" unicode="&#x1d05;" horiz-adv-x="531" 
d="M303 562q77 0 127.5 -69t50.5 -183v-58q0 -114 -50.5 -183t-127.5 -69h-253v562h253zM255 134q62 0 62 147t-62 147h-41v-294h41z" />
    <glyph glyph-name="sc.e" unicode="&#x1d07;" horiz-adv-x="392" 
d="M342 428h-128v-86h102v-109h-102v-99h128v-134h-292v562h292v-134z" />
    <glyph glyph-name="sc.j" unicode="&#x1d0a;" horiz-adv-x="400" 
d="M186 562h164v-386q0 -94 -47.5 -138t-124.5 -44q-39 0 -71 9t-45 18l-12 9l51 109q17 -12 43 -12q42 0 42 102v333z" />
    <glyph glyph-name="sc.k" unicode="&#x1d0b;" horiz-adv-x="523" 
d="M359 371l114 -371h-156l-59 190l-44 -78v-112h-164v562h164v-161l88 161h163z" />
    <glyph glyph-name="sc.m" unicode="&#x1d0d;" horiz-adv-x="655" 
d="M568 562l37 -562h-164l-11 280l-40 -286h-132l-37 272l-15 -266h-156l37 562h211l30 -290l35 290h205z" />
    <glyph glyph-name="sc.o" unicode="&#x1d0f;" horiz-adv-x="551" 
d="M275 568q97 0 161.5 -69t64.5 -189v-58q0 -120 -64.5 -189t-161.5 -69t-161 69t-64 189v58q0 120 64 189t161 69zM275 127q28 0 45 40t17 114t-17 113.5t-45 39.5t-44.5 -39.5t-16.5 -113.5t16.5 -114t44.5 -40z" />
    <glyph glyph-name="sc.p" unicode="&#x1d18;" horiz-adv-x="522" 
d="M284 562q83 0 135.5 -60.5t52.5 -143.5t-52.5 -143.5t-135.5 -60.5h-70v-154h-164v562h234zM241 288q67 0 67 70t-67 70h-27v-140h27z" />
    <glyph glyph-name="sc.t" unicode="&#x1d1b;" horiz-adv-x="442" 
d="M50 562h342v-134h-89v-428h-164v428h-89v134z" />
    <glyph glyph-name="sc.u" unicode="&#x1d1c;" horiz-adv-x="526" 
d="M311 562h165v-358q0 -105 -60 -157.5t-153 -52.5q-94 0 -153.5 52.5t-59.5 157.5v358h164v-368q0 -32 13 -49.5t36 -17.5q48 0 48 67v368z" />
    <glyph glyph-name="sc.v" unicode="&#x1d20;" horiz-adv-x="591" 
d="M380 562h161l-142 -562h-207l-142 562h170l80 -350z" />
    <glyph glyph-name="sc.w" unicode="&#x1d21;" horiz-adv-x="757" 
d="M553 562h154l-123 -562h-168l-38 197l-38 -197h-168l-122 562h162l49 -293l47 293h150l44 -293z" />
    <glyph glyph-name="sc.z" unicode="&#x1d22;" horiz-adv-x="417" 
d="M367 428l-138 -294h138v-134h-317v134l138 294h-130v134h309v-134z" />
    <glyph glyph-name="endash" unicode="&#x2013;" horiz-adv-x="403" 
d="M50 399h303v-127h-303v127z" />
    <glyph glyph-name="emdash" unicode="&#x2014;" horiz-adv-x="548" 
d="M50 399h448v-127h-448v127z" />
    <glyph glyph-name="quoteleft" unicode="&#x2018;" horiz-adv-x="223" 
d="M188 677l-84 -137h84v-172h-153v172l66 137h87z" />
    <glyph glyph-name="quoteright" unicode="&#x2019;" horiz-adv-x="223" 
d="M35 677h153v-173l-67 -136h-86l84 136h-84v173z" />
    <glyph glyph-name="quotesinglbase" unicode="&#x201a;" horiz-adv-x="243" 
d="M45 172h153v-172l-67 -136h-86l84 136h-84v172z" />
    <glyph glyph-name="quotedblleft" unicode="&#x201c;" horiz-adv-x="415" 
d="M101 677h87l-84 -137h84v-172h-153v172zM380 677l-84 -137h84v-172h-153v172l67 137h86z" />
    <glyph glyph-name="quotedblright" unicode="&#x201d;" horiz-adv-x="415" 
d="M227 677h153v-173l-67 -136h-86l84 136h-84v173zM35 504v173h153v-173l-67 -136h-86l84 136h-84z" />
    <glyph glyph-name="quotedblbase" unicode="&#x201e;" horiz-adv-x="435" 
d="M237 172h153v-172l-67 -136h-86l84 136h-84v172zM45 0v172h153v-172l-67 -136h-86l84 136h-84z" />
    <glyph glyph-name="dagger" unicode="&#x2020;" horiz-adv-x="486" 
d="M325 472h106v-127h-106v-548h-164v548h-106v127h106v205h164v-205z" />
    <glyph glyph-name="daggerdbl" unicode="&#x2021;" horiz-adv-x="486" 
d="M431 345h-106v-216h106v-128h-106v-204h-164v204h-106v128h106v216h-106v127h106v205h164v-205h106v-127z" />
    <glyph glyph-name="bullet" unicode="&#x2022;" horiz-adv-x="327" 
d="M60 442h207v-207h-207v207z" />
    <glyph glyph-name="ellipsis" unicode="&#x2026;" horiz-adv-x="786" 
d="M45 172h172v-172h-172v172zM307 172h172v-172h-172v172zM569 172h172v-172h-172v172z" />
    <glyph glyph-name="perthousand" unicode="&#x2030;" horiz-adv-x="1391" 
d="M1146 353q77 0 131 -49.5t54 -129.5t-54 -130t-131 -50q-76 0 -130 50t-54 130t54 129.5t130 49.5zM1146 112q25 0 41.5 16.5t16.5 45.5q0 28 -16.5 44.5t-41.5 16.5t-41 -16.5t-16 -44.5q0 -29 16 -45.5t41 -16.5zM745 353q76 0 130.5 -49.5t54.5 -129.5t-54.5 -130
t-130.5 -50t-130 50t-54 130t54 129.5t130 49.5zM745 112q25 0 41.5 16.5t16.5 45.5q0 28 -16.5 44.5t-41.5 16.5t-41 -16.5t-16 -44.5q0 -29 16 -45.5t41 -16.5zM429 503q0 -80 -54 -130t-130 -50t-130.5 50t-54.5 130t54.5 130t130.5 50t130 -50t54 -130zM245 441
q25 0 41 16.5t16 45.5t-16 45.5t-41 16.5t-41.5 -16.5t-16.5 -45.5t16.5 -45.5t41.5 -16.5zM545 677h134l-233 -677h-135z" />
    <glyph glyph-name="guilsinglleft" unicode="&#x2039;" horiz-adv-x="355" 
d="M305 393l-122 -152l122 -152l-99 -80l-156 194v77l156 193z" />
    <glyph glyph-name="guilsinglright" unicode="&#x203a;" horiz-adv-x="355" 
d="M149 473l156 -193v-77l-156 -194l-99 80l122 152l-122 152z" />
    <glyph glyph-name="fraction" unicode="&#x2044;" horiz-adv-x="148" 
d="M124 677h134l-233 -677h-135z" />
    <glyph glyph-name="Euro" unicode="&#x20ac;" horiz-adv-x="543" 
d="M436 142l47 -99q-4 -5 -13 -13.5t-43 -22t-74 -13.5q-75 0 -135 51.5t-84 155.5h-74v115h376l-53 -115h-88q27 -83 82 -83q17 0 31.5 6t21.5 12zM451 476l-54 -115h-337v115h72q23 105 80.5 156t136.5 51q36 0 68.5 -13.5t46.5 -27.5l15 -13l-43 -93q-20 23 -59 23
q-53 0 -81 -83h155z" />
    <glyph glyph-name="uni20BA" unicode="&#x20ba;" horiz-adv-x="617" 
d="M398 297h159q0 -147 -83.5 -222t-230.5 -75h-96v240l-87 -33v123l87 32v48l-87 -33v123l87 32v145h159v-86l119 45v-123l-119 -44v-48l119 45v-123l-119 -44v-169q92 26 92 167z" />
    <glyph glyph-name="uni20BD" unicode="&#x20bd;" horiz-adv-x="622" 
d="M393 277h-113v-40h146v-115h-146v-122h-159v122h-61v115h61v440h272q75 0 122 -55t47 -145t-47 -145t-122 -55zM280 553v-151h62q61 0 61 75q0 76 -61 76h-62z" />
    <glyph glyph-name="Bitcoin" unicode="&#x20bf;" horiz-adv-x="625" 
d="M468 357q4 -1 10.5 -3.5t23 -12.5t29.5 -23t23.5 -37t10.5 -52q0 -124 -129 -147v-88h-115v83h-35v-83h-115v83h-111v125h67v273h-67v125h111v83h115v-83h35v83h115v-94q50 -14 78 -45t28 -77q0 -22 -7.5 -42t-18.5 -31.5t-22 -20.5t-18 -13zM286 475v-63h37q60 0 60 31
q0 32 -60 32h-37zM323 202q44 0 63.5 9.5t19.5 32.5q0 24 -19.5 33.5t-63.5 9.5h-37v-85h37z" />
    <glyph glyph-name="uni2113" unicode="&#x2113;" horiz-adv-x="553" 
d="M503 474q-15 -85 -63 -141.5t-127 -98.5v-24q0 -41 19 -65t45 -24q14 0 28 3.5t21 7.5l6 3l42 -88l-5.5 -5.5t-17 -13t-29 -16.5t-41.5 -12.5t-55 -5.5q-62 0 -113 44.5t-62 122.5l-58 -24l-48 102l59 26t45 19v190q0 101 54 155t136 54q81 0 131.5 -55.5t32.5 -153.5z
M313 474v-101q53 42 63 101q14 82 -27 82q-36 0 -36 -82z" />
    <glyph glyph-name="Sound" unicode="&#x2117;" 
d="M448 527q58 0 97 -36.5t39 -95.5q0 -58 -39 -94.5t-97 -36.5h-53v-114h-120v377h173zM414 357q50 0 50 38q0 39 -50 39h-19v-77h19zM405 683q143 0 243.5 -101t100.5 -244q0 -142 -100.5 -243t-243.5 -101t-244 100.5t-101 243.5t101 244t244 101zM616 127q40 38 65 95
q23 57 23 116q0 60 -23 117q-25 57 -65 95q-39 41 -95 64q-55 24 -116 24t-117 -24q-56 -23 -95 -64q-40 -38 -65 -95q-23 -57 -23 -117q0 -59 23 -116q25 -57 65 -95q41 -42 95 -65q57 -23 117 -23q59 0 116 23q54 23 95 65z" />
    <glyph glyph-name="trademark" unicode="&#x2122;" horiz-adv-x="675" 
d="M60 608v69h208v-69h-60v-208h-89v208h-59zM588 677l27 -277h-89l-15 180l-33 -184h-64l-33 184l-19 -180h-75l26 277h116l20 -107l20 107h119z" />
    <glyph glyph-name="uni2126" unicode="&#x2126;" horiz-adv-x="712" 
d="M662 395q0 -166 -83 -261h74v-134h-263v134q4 2 11 6.5t24 23.5t30 44t24 71t11 101q0 78 -37.5 123.5t-96.5 45.5t-96.5 -45.5t-37.5 -123.5q0 -55 10.5 -101t25 -71.5t29 -43.5t25.5 -24l10 -6v-134h-263v134h74q-83 95 -83 261q0 126 88.5 207t217.5 81t217.5 -81
t88.5 -207z" />
    <glyph glyph-name="estimated" unicode="&#x212e;" horiz-adv-x="743" 
d="M693 312h-447v-217q55 -30 125 -30q39 0 75.5 9.5t61 23t43.5 27t28 23.5l9 9l51 -46q-4 -5 -12 -12.5t-35 -27.5t-56.5 -35t-74 -27.5t-90.5 -12.5q-138 0 -229.5 89t-91.5 250q0 162 91.5 250.5t229.5 88.5q139 0 230.5 -88.5t91.5 -250.5v-23zM246 577v-197h239v203
q-51 23 -114 23q-72 0 -125 -29z" />
    <glyph glyph-name="oneseventh" unicode="&#x2150;" horiz-adv-x="712" 
d="M374 677h135l-234 -677h-134zM441 360h216v-84l-8 -10.5t-18.5 -32t-23.5 -54.5t-18 -77.5t-8 -101.5h-105q0 76 16 143t32 97l17 29h-100v91zM193 317h-106v249l-32 -9v87l138 36v-363z" />
    <glyph glyph-name="oneninth" unicode="&#x2151;" horiz-adv-x="735" 
d="M374 677h135l-234 -677h-134zM546 363q57 0 95.5 -38t38.5 -106q0 -34 -9 -65.5t-23.5 -54t-32 -42t-34.5 -32t-31.5 -21t-23.5 -12.5l-9 -4l-40 84q36 9 60 31q-47 0 -81 32q-40 36 -40 98q0 59 37.5 94.5t92.5 35.5zM548 189q26 0 26 44t-26 44t-26 -44t26 -44z
M193 317h-106v249l-32 -9v87l138 36v-363z" />
    <glyph glyph-name="onetenth" unicode="&#x2152;" horiz-adv-x="922" 
d="M374 677h135l-234 -677h-134zM739 363q55 0 91.5 -49t36.5 -134t-36.5 -134t-91.5 -49q-56 0 -92.5 49t-36.5 134t36.5 134t92.5 49zM739 83q23 0 23 97t-23 97q-24 0 -24 -97t24 -97zM429 240v87l137 36v-363h-105v249zM193 317h-106v249l-32 -9v87l138 36v-363z" />
    <glyph glyph-name="onethird" unicode="&#x2153;" horiz-adv-x="691" 
d="M374 677h135l-234 -677h-134zM193 317h-106v249l-32 -9v87l138 36v-363zM599 189q4 -3 10 -9t16.5 -27.5t10.5 -47.5q0 -49 -32.5 -78.5t-85.5 -29.5q-24 0 -49 8.5t-39 17.5l-13 9l34 73q18 -22 49 -22t31 31t-29 31h-38v86h38q24 0 24 23q0 9 -7 16t-20 7
q-12 0 -22.5 -5.5t-14.5 -10.5l-5 -5l-34 72q38 35 93 35q56 0 86 -28t30 -71q0 -24 -8 -42.5t-16 -25.5z" />
    <glyph glyph-name="twothirds" unicode="&#x2154;" horiz-adv-x="758" 
d="M441 677h135l-234 -677h-134zM665 189q4 -3 10.5 -9t17 -27.5t10.5 -47.5q0 -49 -32.5 -78.5t-85.5 -29.5q-24 0 -49.5 8.5t-38.5 17.5l-13 9l34 73q18 -22 49 -22t31 31t-29 31h-38v86h38q24 0 24 23q0 9 -7 16t-20 7q-12 0 -22.5 -5.5t-15.5 -10.5l-4 -5l-34 72
q38 35 93 35q56 0 85.5 -27.5t29.5 -71.5q0 -24 -8 -42.5t-16 -25.5zM278 403v-86h-174l-49 71q5 4 13 12l29 30.5t37 43t29 45t13 42.5q0 13 -8.5 23t-25.5 10q-12 0 -23.5 -6t-16.5 -12l-6 -6l-33 71q3 4 10.5 10.5t33 17.5t55.5 11q57 0 88.5 -32.5t31.5 -80.5
q0 -71 -83 -164h79z" />
    <glyph glyph-name="onefifth" unicode="&#x2155;" horiz-adv-x="718" 
d="M374 677h135l-234 -677h-134zM632 202q31 -33 31 -86q0 -55 -39 -87t-92 -32q-34 0 -61 8.5t-37 17.5l-10 9l33 71q20 -20 62 -20q17 0 27.5 9t10.5 24q0 14 -11 23.5t-27 9.5q-9 0 -19 -3.5t-15 -6.5l-5 -3l-50 54l9 170h199v-86h-98l-2 -40q4 1 13 1q51 0 81 -33z
M193 317h-106v249l-32 -9v87l138 36v-363z" />
    <glyph glyph-name="twofifths" unicode="&#x2156;" horiz-adv-x="785" 
d="M441 677h135l-234 -677h-134zM699 202q31 -33 31 -86q0 -55 -39 -87t-92 -32q-34 0 -61 8.5t-37 17.5l-10 9l33 71q20 -20 62 -20q17 0 27.5 9t10.5 24q0 14 -11 23.5t-27 9.5q-9 0 -19 -3.5t-15 -6.5l-5 -3l-50 54l9 170h199v-86h-98l-2 -40q4 1 12 1q52 0 82 -33z
M278 403v-86h-174l-49 71q5 4 13 12l29 30.5t37 43t29 45t13 42.5q0 13 -8.5 23t-25.5 10q-12 0 -23.5 -6t-16.5 -12l-6 -6l-33 71q3 4 10.5 10.5t33 17.5t55.5 11q57 0 88.5 -32.5t31.5 -80.5q0 -71 -83 -164h79z" />
    <glyph glyph-name="threefifths" unicode="&#x2157;" horiz-adv-x="765" 
d="M422 677h135l-234 -677h-134zM679 202q31 -33 31 -86q0 -55 -39 -87t-92 -32q-34 0 -61 8.5t-37 17.5l-10 9l33 71q20 -20 62 -20q17 0 27.5 9t10.5 24q0 14 -11 23.5t-27 9.5q-9 0 -19 -3.5t-15 -6.5l-5 -3l-50 54l9 170h199v-86h-98l-2 -40q4 1 13 1q51 0 81 -33z
M274 422q0 -49 -32.5 -78.5t-85.5 -29.5q-24 0 -49 9t-39 17l-13 9l34 73q18 -22 50 -22q30 0 30 31t-29 31h-38v86h38q24 0 24 23q0 9 -7 16t-20 7q-12 0 -22.5 -5t-14.5 -11l-5 -5l-34 72q38 35 93 35q56 0 86 -28t30 -72q0 -23 -8 -41.5t-16 -25.5l-9 -7q4 -3 10 -9
t16.5 -27.5t10.5 -47.5z" />
    <glyph glyph-name="fourfifths" unicode="&#x2158;" horiz-adv-x="797" 
d="M455 677h134l-233 -677h-135zM712 202q30 -31 30 -86t-39 -87t-92 -32q-34 0 -61 8.5t-37 17.5l-10 9l34 71q19 -20 61 -20q18 0 28.5 9t10.5 24q0 14 -11 23.5t-28 9.5q-9 0 -18.5 -3.5t-14.5 -6.5l-5 -3l-50 54l9 170h198v-86h-97l-2 -40q4 1 12 1q52 0 82 -33z
M282 317h-106v77h-121v79l102 204h125v-197h32v-86h-32v-77zM143 467h40v93z" />
    <glyph glyph-name="onesixth" unicode="&#x2159;" horiz-adv-x="717" 
d="M374 677h135l-234 -677h-134zM542 257q51 0 85.5 -30t34.5 -100q0 -62 -42 -99q-36 -31 -88 -31q-56 0 -93 37q-41 39 -41 107q0 38 9.5 71.5t24.5 56.5t33.5 41.5t36.5 29.5t33 18.5t25 9.5l9 3l39 -83q-40 -9 -66 -31zM530 83q26 0 26 44t-26 44t-26 -44t26 -44z
M193 317h-106v249l-32 -9v87l138 36v-363z" />
    <glyph glyph-name="fivesixths" unicode="&#x215a;" horiz-adv-x="771" 
d="M428 677h135l-234 -677h-134zM596 257q51 0 85.5 -30t34.5 -100q0 -62 -42 -99q-36 -31 -89 -31q-54 0 -93 37q-40 40 -40 107q0 38 9.5 71.5t24.5 56.5t33.5 41.5t36.5 29.5t33 18.5t25 9.5l9 3l39 -83q-40 -9 -66 -31zM584 83q26 0 26 44t-26 44t-26 -44t26 -44z
M294 433q0 -55 -39 -87t-92 -32q-34 0 -61 9t-37 17l-10 9l33 71q20 -20 62 -20q17 0 27.5 9t10.5 24q0 14 -10.5 23t-27.5 9q-9 0 -19 -3t-15 -6l-5 -3l-50 54l9 170h199v-86h-98l-2 -40q2 0 6 0.5t6 0.5q51 0 82 -33t31 -86z" />
    <glyph glyph-name="oneeigth" unicode="&#x215b;" horiz-adv-x="742" 
d="M374 677h135l-234 -677h-134zM641 187q46 -28 46 -82q0 -47 -37 -77.5t-95 -30.5q-57 0 -94 30.5t-37 77.5q0 54 46 82q-41 27 -41 76q0 46 38 73t88 27q51 0 89 -27t38 -73q0 -49 -41 -76zM555 277q-21 0 -21 -24q0 -10 6 -17t15 -7q10 0 16 6.5t6 17.5q0 24 -22 24z
M555 83q12 0 19.5 8.5t7.5 21.5t-7.5 21.5t-19.5 8.5q-11 0 -18.5 -8.5t-7.5 -21.5t7.5 -21.5t18.5 -8.5zM193 317h-106v249l-32 -9v87l138 36v-363z" />
    <glyph glyph-name="threeeigths" unicode="&#x215c;" horiz-adv-x="787" 
d="M419 677h135l-234 -677h-134zM686 187q46 -28 46 -82q0 -47 -37 -77.5t-94 -30.5q-58 0 -95 30.5t-37 77.5q0 54 46 82q-41 27 -41 76q0 46 38 73t88 27q51 0 89 -27t38 -73q0 -49 -41 -76zM601 277q-22 0 -22 -24q0 -11 6 -17.5t16 -6.5q9 0 15 7t6 17q0 24 -21 24z
M601 83q11 0 18.5 8.5t7.5 21.5t-7.5 21.5t-18.5 8.5q-12 0 -19.5 -8.5t-7.5 -21.5t7.5 -21.5t19.5 -8.5zM274 422q0 -49 -32.5 -78.5t-85.5 -29.5q-24 0 -49 9t-39 17l-13 9l34 73q18 -22 50 -22q30 0 30 31t-29 31h-38v86h38q24 0 24 23q0 9 -7 16t-20 7q-12 0 -22.5 -5
t-14.5 -11l-5 -5l-34 72q38 35 93 35q56 0 86 -28t30 -72q0 -23 -8 -41.5t-16 -25.5l-9 -7q4 -3 10 -9t16.5 -27.5t10.5 -47.5z" />
    <glyph glyph-name="fiveeigths" unicode="&#x215d;" horiz-adv-x="798" 
d="M430 677h135l-234 -677h-134zM697 187q46 -28 46 -82q0 -47 -37 -77.5t-95 -30.5q-57 0 -94.5 30.5t-37.5 77.5q0 54 47 82q-41 27 -41 76q0 46 38 73t88 27q51 0 89 -27t38 -73q0 -49 -41 -76zM611 277q-21 0 -21 -24q0 -10 6 -17t15 -7q10 0 16 6.5t6 17.5q0 24 -22 24
zM611 83q12 0 19.5 8.5t7.5 21.5t-7.5 21.5t-19.5 8.5q-11 0 -18.5 -8.5t-7.5 -21.5t7.5 -21.5t18.5 -8.5zM294 433q0 -55 -39 -87t-92 -32q-34 0 -61 9t-37 17l-10 9l33 71q20 -20 62 -20q17 0 27.5 9t10.5 24q0 14 -10.5 23t-27.5 9q-9 0 -19 -3t-15 -6l-5 -3l-50 54
l9 170h199v-86h-98l-2 -40q2 0 6 0.5t6 0.5q51 0 82 -33t31 -86z" />
    <glyph glyph-name="seveneigths" unicode="&#x215e;" horiz-adv-x="740" 
d="M372 677h134l-233 -677h-135zM639 187q46 -28 46 -82q0 -47 -37 -77.5t-95 -30.5t-95 30.5t-37 77.5q0 54 46 82q-41 28 -41 76q0 46 38 73t89 27t88.5 -27t37.5 -73q0 -48 -40 -76zM553 277q-21 0 -21 -24t21 -24t21 24t-21 24zM553 83q11 0 18.5 8.5t7.5 21.5
t-7.5 21.5t-18.5 8.5q-12 0 -19.5 -8.5t-7.5 -21.5t7.5 -21.5t19.5 -8.5zM195 317h-105q0 76 16 143t32 96l17 30h-100v91h216v-85q-3 -3 -8 -10t-18.5 -32t-23.5 -54t-18 -77.5t-8 -101.5z" />
    <glyph glyph-name="numeratorone" unicode="&#x215f;" horiz-adv-x="564" 
d="M374 677h135l-234 -677h-134zM193 317h-106v249l-32 -9v87l138 36v-363z" />
    <glyph glyph-name="zerothirds" unicode="&#x2189;" horiz-adv-x="757" 
d="M440 677h135l-234 -677h-135zM312 497q0 -85 -36.5 -134t-91.5 -49q-56 0 -92.5 49t-36.5 134t36.5 134t92.5 49q55 0 91.5 -49t36.5 -134zM184 400q23 0 23 97t-23 97q-24 0 -24 -97t24 -97zM664 189q4 -3 10.5 -9t17 -27.5t10.5 -47.5q0 -49 -32.5 -78.5t-85.5 -29.5
q-24 0 -49.5 8.5t-38.5 17.5l-14 9l35 73q18 -22 49 -22q30 0 30 31t-28 31h-38v86h38q24 0 24 23q0 9 -7.5 16t-20.5 7q-11 0 -21.5 -5.5t-15.5 -10.5l-5 -5l-34 72q38 35 94 35q55 0 85 -28t30 -71q0 -24 -8.5 -42.5t-16.5 -25.5z" />
    <glyph glyph-name="ArrowL" unicode="&#x2190;" horiz-adv-x="552" 
d="M492 405v-133h-221l73 -127h-173l-111 193l111 194h173l-73 -127h221z" />
    <glyph glyph-name="ArrowU" unicode="&#x2191;" horiz-adv-x="506" 
d="M253 559l193 -111v-173l-126 73v-221h-134v221l-126 -73v173z" />
    <glyph glyph-name="ArrowR" unicode="&#x2192;" horiz-adv-x="552" 
d="M381 532l111 -194l-111 -193h-173l73 127h-221v133h221l-73 127h173z" />
    <glyph glyph-name="ArrowD" unicode="&#x2193;" horiz-adv-x="506" 
d="M320 328l126 73v-172l-193 -112l-193 112v172l126 -73v221h134v-221z" />
    <glyph glyph-name="ArrowNW" unicode="&#x2196;" horiz-adv-x="530" 
d="M314 389l156 -156l-94 -95l-156 156l-38 -140l-122 122l58 215l215 58l122 -122z" />
    <glyph glyph-name="ArrowNE" unicode="&#x2197;" horiz-adv-x="530" 
d="M413 491l57 -215l-121 -122l-38 140l-157 -156l-94 95l156 156l-141 38l122 122z" />
    <glyph glyph-name="ArrowSE" unicode="&#x2198;" horiz-adv-x="530" 
d="M349 523l121 -122l-57 -215l-216 -58l-122 122l141 38l-156 156l94 95l157 -157z" />
    <glyph glyph-name="ArrowSW" unicode="&#x2199;" horiz-adv-x="530" 
d="M470 444l-156 -156l141 -38l-122 -122l-215 58l-58 215l122 122l38 -141l156 157z" />
    <glyph glyph-name="WhiteArrowL" unicode="&#x21e6;" 
d="M405 683q143 0 243.5 -101t100.5 -244q0 -142 -100.5 -243t-243.5 -101t-244 100.5t-101 243.5t101 244t244 101zM616 127q40 38 65 95q23 57 23 116q0 60 -23 117q-25 57 -65 95q-39 41 -95 64q-55 24 -116 24t-117 -24q-56 -23 -95 -64q-40 -38 -65 -95
q-23 -57 -23 -117q0 -59 23 -116q25 -57 65 -95q41 -42 95 -65q57 -23 117 -23q59 0 116 23q54 23 95 65zM467 532l-73 -127h222v-133h-222l73 -127h-172l-112 193l112 194h172z" />
    <glyph glyph-name="WhiteArrowUp" unicode="&#x21e7;" 
d="M405 683q143 0 243.5 -101t100.5 -244q0 -142 -100.5 -243t-243.5 -101t-244 100.5t-101 243.5t101 244t244 101zM616 127q40 38 65 95q23 57 23 116q0 60 -23 117q-25 57 -65 95q-39 41 -95 64q-55 24 -116 24t-117 -24q-56 -23 -95 -64q-40 -38 -65 -95
q-23 -57 -23 -117q0 -59 23 -116q25 -57 65 -95q41 -42 95 -65q57 -23 117 -23q59 0 116 23q54 23 95 65zM211 448l194 111l193 -111v-173l-127 73v-221h-133v221l-127 -73v173z" />
    <glyph glyph-name="WhiteArrowR" unicode="&#x21e8;" 
d="M405 683q143 0 243.5 -101t100.5 -244q0 -142 -100.5 -243t-243.5 -101t-244 100.5t-101 243.5t101 244t244 101zM616 127q40 38 65 95q23 57 23 116q0 60 -23 117q-25 57 -65 95q-39 41 -95 64q-55 24 -116 24t-117 -24q-56 -23 -95 -64q-40 -38 -65 -95
q-23 -57 -23 -117q0 -59 23 -116q25 -57 65 -95q41 -42 95 -65q57 -23 117 -23q59 0 116 23q54 23 95 65zM342 532h172l112 -194l-112 -193h-172l73 127h-222v133h222z" />
    <glyph glyph-name="WhiteArrowD" unicode="&#x21e9;" 
d="M405 683q143 0 243.5 -101t100.5 -244q0 -142 -100.5 -243t-243.5 -101t-244 100.5t-101 243.5t101 244t244 101zM616 127q40 38 65 95q23 57 23 116q0 60 -23 117q-25 57 -65 95q-39 41 -95 64q-55 24 -116 24t-117 -24q-56 -23 -95 -64q-40 -38 -65 -95
q-23 -57 -23 -117q0 -59 23 -116q25 -57 65 -95q41 -42 95 -65q57 -23 117 -23q59 0 116 23q54 23 95 65zM471 549v-221l127 73v-172l-193 -112l-194 112v172l127 -73v221h133z" />
    <glyph glyph-name="partialdiff" unicode="&#x2202;" horiz-adv-x="553" 
d="M209 677q52 0 104.5 -24.5t96 -68t71 -112t27.5 -149.5q0 -162 -64.5 -245.5t-176.5 -83.5q-101 0 -161.5 54t-60.5 135q0 61 38.5 105t89.5 63t104 19q30 0 66 -6q-10 90 -68.5 138t-123.5 48zM266 121q65 0 76 142q-16 2 -26 2q-51 0 -79 -22.5t-28 -59.5q0 -26 15 -44
t42 -18z" />
    <glyph glyph-name="uni2206" unicode="&#x2206;" horiz-adv-x="616" 
d="M422 474l149 -347v-127h-526v127l150 347h227zM212 127h184l-92 196z" />
    <glyph glyph-name="product" unicode="&#x220f;" horiz-adv-x="559" 
d="M45 677h469v-677h-173v543h-124v-543h-172v677z" />
    <glyph glyph-name="summation" unicode="&#x2211;" horiz-adv-x="472" 
d="M427 677v-134h-193l126 -205l-126 -204h193v-134h-382v134l123 204l-123 205v134h382z" />
    <glyph glyph-name="minus" unicode="&#x2212;" horiz-adv-x="360" 
d="M60 304h240v-128h-240v128z" />
    <glyph glyph-name="uni2215" unicode="&#x2215;" horiz-adv-x="148" 
d="M124 677h134l-233 -677h-135z" />
    <glyph glyph-name="uni2219" unicode="&#x2219;" horiz-adv-x="327" 
d="M60 442h207v-207h-207v207z" />
    <glyph glyph-name="radical" unicode="&#x221a;" horiz-adv-x="704" 
d="M468 677h186v-134h-85l-120 -543h-226l-93 247h-80v133h211l88 -243z" />
    <glyph glyph-name="infinity" unicode="&#x221e;" 
d="M561 549q86 0 142 -60t56 -151t-56 -150.5t-142 -59.5q-96 0 -157 77q-61 -77 -157 -77q-85 0 -141 59.5t-56 150.5q0 92 56 151.5t141 59.5q96 0 157 -77q61 77 157 77zM278 255q29 0 46 23.5t17 59.5t-17 60t-46 24q-30 0 -47 -23.5t-17 -60.5q0 -36 17 -59.5t47 -23.5
zM531 255q29 0 46 23.5t17 59.5t-17 60t-46 24t-46 -24t-17 -60t17 -59.5t46 -23.5z" />
    <glyph glyph-name="integral" unicode="&#x222b;" horiz-adv-x="567" 
d="M406 683q30 0 57.5 -8.5t40.5 -16.5l13 -8l-44 -94q-14 12 -40 12q-37 0 -44 -66l-52 -530q-9 -86 -57.5 -133.5t-118.5 -47.5q-30 0 -57.5 8t-40.5 16l-13 8l44 94q14 -11 40 -11q37 0 44 66l52 530q9 86 57.5 133.5t118.5 47.5z" />
    <glyph glyph-name="approxequal" unicode="&#x2248;" horiz-adv-x="402" 
d="M144 195q22 0 57 -16t57 -16q20 0 41 8t32 16l11 8v-127q-39 -32 -84 -32q-22 0 -57 16t-57 16q-20 0 -41 -8t-32 -16l-11 -8v127q39 32 84 32zM258 332q20 0 41 8t32 16l11 8v-127q-39 -32 -84 -32q-22 0 -57 16t-57 16q-20 0 -41 -8t-32 -16l-11 -8v127q39 32 84 32
q22 0 57 -16t57 -16z" />
    <glyph glyph-name="notequal" unicode="&#x2260;" horiz-adv-x="360" 
d="M300 223h-80l-15 -49h95v-128h-135l-28 -91h-67l29 91h-39v128h78l16 49h-94v127h133l28 90h67l-28 -90h40v-127z" />
    <glyph glyph-name="lessequal" unicode="&#x2264;" horiz-adv-x="518" 
d="M458 488l-167 -102l167 -103l-55 -116l-343 219l343 219zM98 4v127h322v-127h-322z" />
    <glyph glyph-name="greaterequal" unicode="&#x2265;" horiz-adv-x="518" 
d="M115 167l-55 116l167 103l-167 102l55 117l343 -219zM98 4v127h322v-127h-322z" />
    <glyph glyph-name="COne" unicode="&#x2460;" 
d="M405 683q143 0 243.5 -101t100.5 -244q0 -142 -100.5 -243t-243.5 -101t-244 100.5t-101 243.5t101 244t244 101zM616 127q40 38 65 95q23 57 23 116q0 60 -23 117q-25 57 -65 95q-39 41 -95 64q-55 24 -116 24t-117 -24q-56 -23 -95 -64q-40 -38 -65 -95
q-23 -57 -23 -117q0 -59 23 -116q25 -57 65 -95q41 -42 95 -65q57 -23 117 -23q59 0 116 23q54 23 95 65zM326 421v75l133 34v-384h-97v284z" />
    <glyph glyph-name="CTwo" unicode="&#x2461;" 
d="M405 683q143 0 243.5 -101t100.5 -244q0 -142 -100.5 -243t-243.5 -101t-244 100.5t-101 243.5t101 244t244 101zM616 127q40 38 65 95q23 57 23 116q0 60 -23 117q-25 57 -65 95q-39 41 -95 64q-55 24 -116 24t-117 -24q-56 -23 -95 -64q-40 -38 -65 -95
q-23 -57 -23 -117q0 -59 23 -116q25 -57 65 -95q41 -42 95 -65q57 -23 117 -23q59 0 116 23q54 23 95 65zM402 534q52 0 82.5 -32t30.5 -85q0 -36 -19.5 -75.5t-37.5 -61.5t-51 -59h104v-75h-180l-47 68l24.5 27.5l27 30l24.5 28.5t23.5 30.5t17.5 28.5t13 29.5t4 26.5
q0 18 -9.5 31t-27.5 13q-15 0 -30 -5t-23 -10l-7 -5l-28 59q43 36 109 36z" />
    <glyph glyph-name="CThree" unicode="&#x2462;" 
d="M405 683q143 0 243.5 -101t100.5 -244q0 -142 -100.5 -243t-243.5 -101t-244 100.5t-101 243.5t101 244t244 101zM616 127q40 38 65 95q23 57 23 116q0 60 -23 117q-25 57 -65 95q-39 41 -95 64q-55 24 -116 24t-117 -24q-56 -23 -95 -64q-40 -38 -65 -95
q-23 -57 -23 -117q0 -59 23 -116q25 -57 65 -95q41 -42 95 -65q57 -23 117 -23q59 0 116 23q54 23 95 65zM467 348q2 -1 5.5 -2.5t13 -8.5t16.5 -17t13 -27.5t6 -38.5q0 -53 -35 -82.5t-87 -29.5q-26 0 -51 8t-38 16l-12 8l29 61q21 -18 52 -18q20 0 32.5 12.5t12.5 34.5
q0 46 -43 46h-32v75h32q38 0 38 37t-40 37q-12 0 -23.5 -4.5t-17.5 -8.5l-5 -4l-28 60q39 32 91 32q50 0 85 -27.5t35 -73.5q0 -18 -5 -34t-12 -25t-14.5 -15t-12.5 -9z" />
    <glyph glyph-name="CFour" unicode="&#x2463;" 
d="M405 683q143 0 243.5 -101t100.5 -244q0 -142 -100.5 -243t-243.5 -101t-244 100.5t-101 243.5t101 244t244 101zM616 127q40 38 65 95q23 57 23 116q0 60 -23 117q-25 57 -65 95q-39 41 -95 64q-55 24 -116 24t-117 -24q-56 -23 -95 -64q-40 -38 -65 -95
q-23 -57 -23 -117q0 -59 23 -116q25 -57 65 -95q41 -42 95 -65q57 -23 117 -23q59 0 116 23q54 23 95 65zM489 530v-222h37v-75h-37v-87h-97v87h-137v75l111 222h123zM392 308v121l-59 -121h59z" />
    <glyph glyph-name="CFive" unicode="&#x2464;" 
d="M405 683q143 0 243.5 -101t100.5 -244q0 -142 -100.5 -243t-243.5 -101t-244 100.5t-101 243.5t101 244t244 101zM616 127q40 38 65 95q23 57 23 116q0 60 -23 117q-25 57 -65 95q-39 41 -95 64q-55 24 -116 24t-117 -24q-56 -23 -95 -64q-40 -38 -65 -95
q-23 -57 -23 -117q0 -59 23 -116q25 -57 65 -95q41 -42 95 -65q57 -23 117 -23q59 0 116 23q54 23 95 65zM419 389q53 0 84 -33t31 -90q0 -58 -40.5 -91t-96.5 -33q-32 0 -59 8t-38 16l-11 8l29 61q28 -18 65 -18q55 0 55 49q0 23 -14.5 35.5t-40.5 12.5q-16 0 -48 -4
l-41 44l10 176h202v-74h-110l-3 -69q16 2 26 2z" />
    <glyph glyph-name="CSix" unicode="&#x2465;" 
d="M405 683q143 0 243.5 -101t100.5 -244q0 -142 -100.5 -243t-243.5 -101t-244 100.5t-101 243.5t101 244t244 101zM616 127q40 38 65 95q23 57 23 116q0 60 -23 117q-25 57 -65 95q-39 41 -95 64q-55 24 -116 24t-117 -24q-56 -23 -95 -64q-40 -38 -65 -95
q-23 -57 -23 -117q0 -59 23 -116q25 -57 65 -95q41 -42 95 -65q57 -23 117 -23q59 0 116 23q54 23 95 65zM414 414q47 0 85.5 -35.5t38.5 -100.5q0 -66 -40.5 -101t-95.5 -35q-58 0 -98.5 40.5t-40.5 111.5q0 55 18 100.5t43.5 71.5t51.5 44t44 24l18 7l35 -73
q-54 -12 -89 -59q15 5 30 5zM401 217q17 0 29 16t12 45t-12 45t-29 16q-18 0 -30 -16t-12 -45t12 -45t30 -16z" />
    <glyph glyph-name="CSeven" unicode="&#x2466;" 
d="M405 683q143 0 243.5 -101t100.5 -244q0 -142 -100.5 -243t-243.5 -101t-244 100.5t-101 243.5t101 244t244 101zM616 127q40 38 65 95q23 57 23 116q0 60 -23 117q-25 57 -65 95q-39 41 -95 64q-55 24 -116 24t-117 -24q-56 -23 -95 -64q-40 -38 -65 -95
q-23 -57 -23 -117q0 -59 23 -116q25 -57 65 -95q41 -42 95 -65q57 -23 117 -23q59 0 116 23q54 23 95 65zM298 450v80h221v-80l-9 -12t-20.5 -37t-26 -61.5t-20.5 -85t-9 -108.5h-97q0 60 9 113.5t21.5 86.5t25 58t21.5 36l9 10h-125z" />
    <glyph glyph-name="CEight" unicode="&#x2467;" 
d="M405 683q143 0 243.5 -101t100.5 -244q0 -142 -100.5 -243t-243.5 -101t-244 100.5t-101 243.5t101 244t244 101zM616 127q40 38 65 95q23 57 23 116q0 60 -23 117q-25 57 -65 95q-39 41 -95 64q-55 24 -116 24t-117 -24q-56 -23 -95 -64q-40 -38 -65 -95
q-23 -57 -23 -117q0 -59 23 -116q25 -57 65 -95q41 -42 95 -65q57 -23 117 -23q59 0 116 23q54 23 95 65zM478 346q64 -27 64 -93q0 -52 -40 -81.5t-97 -29.5q-58 0 -98 29.5t-40 81.5q0 66 64 93q-58 27 -58 86q0 47 37 74.5t94 27.5t94.5 -27.5t37.5 -74.5q0 -59 -58 -86z
M405 459q-16 0 -26 -10t-10 -28t10 -28.5t26 -10.5q15 0 25 10.5t10 28.5t-10 28t-25 10zM405 217q17 0 29 13t12 32q0 20 -12 33t-29 13q-18 0 -30 -13t-12 -33q0 -19 12.5 -32t29.5 -13z" />
    <glyph glyph-name="CNine" unicode="&#x2468;" 
d="M405 683q143 0 243.5 -101t100.5 -244q0 -142 -100.5 -243t-243.5 -101t-244 100.5t-101 243.5t101 244t244 101zM616 127q40 38 65 95q23 57 23 116q0 60 -23 117q-25 57 -65 95q-39 41 -95 64q-55 24 -116 24t-117 -24q-56 -23 -95 -64q-40 -38 -65 -95
q-23 -57 -23 -117q0 -59 23 -116q25 -57 65 -95q41 -42 95 -65q57 -23 117 -23q59 0 116 23q54 23 95 65zM406 534q58 0 98.5 -40.5t40.5 -111.5q0 -51 -17 -95.5t-42 -71t-49.5 -46t-41.5 -27.5l-17 -7l-35 73q46 12 81 59q-12 -4 -30 -4q-47 0 -85.5 35t-38.5 100
q0 66 40.5 101t95.5 35zM408 337q17 0 29 16t12 45t-12 45t-29 16q-18 0 -30 -16t-12 -45t12 -45t30 -16z" />
    <glyph glyph-name="CZero" unicode="&#x24ea;" 
d="M405 683q143 0 243.5 -101t100.5 -244q0 -142 -100.5 -243t-243.5 -101t-244 100.5t-101 243.5t101 244t244 101zM616 127q40 38 65 95q23 57 23 116q0 60 -23 117q-25 57 -65 95q-39 41 -95 64q-55 24 -116 24t-117 -24q-56 -23 -95 -64q-40 -38 -65 -95
q-23 -57 -23 -117q0 -59 23 -116q25 -57 65 -95q41 -42 95 -65q57 -23 117 -23q59 0 116 23q54 23 95 65zM405 534q56 0 95 -47t39 -149q0 -101 -39 -148.5t-95 -47.5q-57 0 -96 47.5t-39 148.5q0 102 39 149t96 47zM405 217q37 0 37 121t-37 121q-38 0 -38 -121t38 -121z
" />
    <glyph glyph-name="lozenge" unicode="&#x25ca;" horiz-adv-x="627" 
d="M401 677l166 -339l-166 -338h-174l-167 338l167 339h174zM314 190l67 148l-67 149l-68 -149z" />
    <glyph glyph-name="BCOne" unicode="&#x278a;" 
d="M405 683q143 0 243.5 -101t100.5 -244q0 -142 -100.5 -243t-243.5 -101t-244 100.5t-101 243.5t101 244t244 101zM459 146v384l-133 -34v-75l36 9v-284h97z" />
    <glyph glyph-name="BCTwo" unicode="&#x278b;" 
d="M405 683q143 0 243.5 -101t100.5 -244q0 -142 -100.5 -243t-243.5 -101t-244 100.5t-101 243.5t101 244t244 101zM511 221h-104q33 37 51 59t37.5 61.5t19.5 75.5q0 53 -30.5 85t-82.5 32q-29 0 -56.5 -9t-39.5 -18l-13 -9l28 -59q27 20 60 20q18 0 27.5 -13t9.5 -31
q0 -13 -4 -26.5t-13 -29.5t-17.5 -28.5t-23.5 -30.5l-24.5 -28.5l-27 -30l-24.5 -27.5l47 -68h180v75z" />
    <glyph glyph-name="BCThree" unicode="&#x278c;" 
d="M405 683q143 0 243.5 -101t100.5 -244q0 -142 -100.5 -243t-243.5 -101t-244 100.5t-101 243.5t101 244t244 101zM399 142q52 0 87 29.5t35 82.5q0 21 -5.5 38.5t-13.5 27.5t-16 16.5t-14 9.5l-5 2q5 2 13.5 7t22 27t13.5 51q0 46 -35 73.5t-85 27.5q-23 0 -46 -8
t-34 -16l-11 -8l28 -60q19 17 46 17q40 0 40 -37t-38 -37h-32v-75h32q43 0 43 -46q0 -22 -12.5 -34.5t-32.5 -12.5q-14 0 -27 4.5t-19 8.5l-6 5l-29 -61q43 -32 101 -32z" />
    <glyph glyph-name="BCFour" unicode="&#x278d;" 
d="M392 308h-59l59 121v-121zM405 683q143 0 243.5 -101t100.5 -244q0 -142 -100.5 -243t-243.5 -101t-244 100.5t-101 243.5t101 244t244 101zM526 233v75h-37v222h-123l-111 -222v-75h137v-87h97v87h37z" />
    <glyph glyph-name="BCFive" unicode="&#x278e;" 
d="M405 683q143 0 243.5 -101t100.5 -244q0 -142 -100.5 -243t-243.5 -101t-244 100.5t-101 243.5t101 244t244 101zM397 142q56 0 96.5 33t40.5 91q0 57 -31 90t-84 33q-10 0 -26 -2l3 69h110v74h-202l-10 -176l41 -44q32 4 48 4q26 0 40.5 -12.5t14.5 -35.5q0 -49 -55 -49
q-16 0 -32.5 4.5t-24.5 8.5l-8 5l-29 -61q37 -32 108 -32z" />
    <glyph glyph-name="BCSix" unicode="&#x278f;" 
d="M401 339q17 0 29 -16t12 -45t-12 -45t-29 -16q-18 0 -30 16t-12 45t12 45t30 16zM405 683q143 0 243.5 -101t100.5 -244q0 -142 -100.5 -243t-243.5 -101t-244 100.5t-101 243.5t101 244t244 101zM402 142q55 0 95.5 35t40.5 101q0 65 -38.5 100.5t-85.5 35.5
q-15 0 -30 -5q16 21 38 35.5t36 19.5l15 4l-35 73q-7 -2 -19 -6.5t-42 -24t-53 -45t-42 -71t-19 -100.5q0 -71 40.5 -111.5t98.5 -40.5z" />
    <glyph glyph-name="BCSeven" unicode="&#x2790;" 
d="M405 683q143 0 243.5 -101t100.5 -244q0 -142 -100.5 -243t-243.5 -101t-244 100.5t-101 243.5t101 244t244 101zM519 450v80h-221v-80h125q-3 -4 -9 -11t-21 -34.5t-26 -59t-20.5 -85.5t-9.5 -114h97q0 56 9 108t21 86t24.5 60t21.5 38z" />
    <glyph glyph-name="BCEight" unicode="&#x2791;" 
d="M405 308q17 0 29 -13t12 -33q0 -19 -12 -32t-29 -13t-29.5 13t-12.5 32q0 20 12 33t30 13zM405 683q143 0 243.5 -101t100.5 -244q0 -142 -100.5 -243t-243.5 -101t-244 100.5t-101 243.5t101 244t244 101zM405 142q57 0 97 29.5t40 81.5q0 66 -64 93q58 27 58 86
q0 47 -37.5 74.5t-94.5 27.5t-94 -27.5t-37 -74.5q0 -59 58 -86q-64 -27 -64 -93q0 -52 40 -81.5t98 -29.5zM405 382q-16 0 -26 10.5t-10 28.5t10 28t26 10q15 0 25 -10t10 -28t-10 -28.5t-25 -10.5z" />
    <glyph glyph-name="BCNine" unicode="&#x2792;" 
d="M408 459q17 0 29 -16t12 -45t-12 -45t-29 -16q-18 0 -30 16t-12 45t12 45t30 16zM405 683q143 0 243.5 -101t100.5 -244q0 -142 -100.5 -243t-243.5 -101t-244 100.5t-101 243.5t101 244t244 101zM378 135l18 8t40 26t51 47t40 70.5t18 95.5q0 71 -40.5 111.5t-98.5 40.5
q-55 0 -95.5 -35t-40.5 -101q0 -65 38.5 -100t85.5 -35q18 0 30 4q-16 -21 -36 -35.5t-32 -19.5l-13 -4z" />
    <glyph glyph-name="BlackArrowR" unicode="&#x27a1;" 
d="M405 683q143 0 243.5 -101t100.5 -244q0 -142 -100.5 -243t-243.5 -101t-244 100.5t-101 243.5t101 244t244 101zM514 145l112 193l-112 194h-172l73 -127h-222v-133h222l-73 -127h172z" />
    <glyph glyph-name="WhiteArrowNE" unicode="&#x2b00;" 
d="M405 683q143 0 243.5 -101t100.5 -244q0 -142 -100.5 -243t-243.5 -101t-244 100.5t-101 243.5t101 244t244 101zM616 127q40 38 65 95q23 57 23 116q0 60 -23 117q-25 57 -65 95q-39 41 -95 64q-55 24 -116 24t-117 -24q-56 -23 -95 -64q-40 -38 -65 -95
q-23 -57 -23 -117q0 -59 23 -116q25 -57 65 -95q41 -42 95 -65q57 -23 117 -23q59 0 116 23q54 23 95 65zM342 549l215 -58l58 -215l-122 -122l-38 140l-156 -156l-95 95l157 156l-141 38z" />
    <glyph glyph-name="WhiteArrowNW" unicode="&#x2b01;" 
d="M405 683q143 0 243.5 -101t100.5 -244q0 -142 -100.5 -243t-243.5 -101t-244 100.5t-101 243.5t101 244t244 101zM616 127q40 38 65 95q23 57 23 116q0 60 -23 117q-25 57 -65 95q-39 41 -95 64q-55 24 -116 24t-117 -24q-56 -23 -95 -64q-40 -38 -65 -95
q-23 -57 -23 -117q0 -59 23 -116q25 -57 65 -95q41 -42 95 -65q57 -23 117 -23q59 0 116 23q54 23 95 65zM589 427l-141 -38l157 -156l-95 -95l-156 156l-38 -140l-122 122l58 215l215 58z" />
    <glyph glyph-name="WhiteArrowSE" unicode="&#x2b02;" 
d="M405 683q143 0 243.5 -101t100.5 -244q0 -142 -100.5 -243t-243.5 -101t-244 100.5t-101 243.5t101 244t244 101zM616 127q40 38 65 95q23 57 23 116q0 60 -23 117q-25 57 -65 95q-39 41 -95 64q-55 24 -116 24t-117 -24q-56 -23 -95 -64q-40 -38 -65 -95
q-23 -57 -23 -117q0 -59 23 -116q25 -57 65 -95q41 -42 95 -65q57 -23 117 -23q59 0 116 23q54 23 95 65zM455 382l38 141l122 -122l-58 -215l-215 -58l-122 122l141 38l-157 156l95 95z" />
    <glyph glyph-name="WhiteArrowSW" unicode="&#x2b03;" 
d="M405 683q143 0 243.5 -101t100.5 -244q0 -142 -100.5 -243t-243.5 -101t-244 100.5t-101 243.5t101 244t244 101zM616 127q40 38 65 95q23 57 23 116q0 60 -23 117q-25 57 -65 95q-39 41 -95 64q-55 24 -116 24t-117 -24q-56 -23 -95 -64q-40 -38 -65 -95
q-23 -57 -23 -117q0 -59 23 -116q25 -57 65 -95q41 -42 95 -65q57 -23 117 -23q59 0 116 23q54 23 95 65zM510 539l95 -95l-157 -156l141 -38l-122 -122l-215 58l-58 215l122 122l38 -141z" />
    <glyph glyph-name="BlackArrowL" unicode="&#x2b05;" 
d="M405 683q143 0 243.5 -101t100.5 -244q0 -142 -100.5 -243t-243.5 -101t-244 100.5t-101 243.5t101 244t244 101zM616 272v133h-222l73 127h-172l-112 -194l112 -193h172l-73 127h222z" />
    <glyph glyph-name="BlackArrowU" unicode="&#x2b06;" 
d="M405 683q143 0 243.5 -101t100.5 -244q0 -142 -100.5 -243t-243.5 -101t-244 100.5t-101 243.5t101 244t244 101zM598 275v173l-193 111l-194 -111v-173l127 73v-221h133v221z" />
    <glyph glyph-name="BlackArrowD" unicode="&#x2b07;" 
d="M405 683q143 0 243.5 -101t100.5 -244q0 -142 -100.5 -243t-243.5 -101t-244 100.5t-101 243.5t101 244t244 101zM598 229v172l-127 -73v221h-133v-221l-127 73v-172l194 -112z" />
    <glyph glyph-name="BlackArrowNE" unicode="&#x2b08;" 
d="M405 683q143 0 243.5 -101t100.5 -244q0 -142 -100.5 -243t-243.5 -101t-244 100.5t-101 243.5t101 244t244 101zM493 154l122 122l-58 215l-215 58l-122 -122l141 -38l-157 -156l95 -95l156 156z" />
    <glyph glyph-name="BlackArrowNW" unicode="&#x2b09;" 
d="M405 683q143 0 243.5 -101t100.5 -244q0 -142 -100.5 -243t-243.5 -101t-244 100.5t-101 243.5t101 244t244 101zM510 138l95 95l-157 156l141 38l-122 122l-215 -58l-58 -215l122 -122l38 140z" />
    <glyph glyph-name="BlackArrowSE" unicode="&#x2b0a;" 
d="M405 683q143 0 243.5 -101t100.5 -244q0 -142 -100.5 -243t-243.5 -101t-244 100.5t-101 243.5t101 244t244 101zM557 186l58 215l-122 122l-38 -141l-156 157l-95 -95l157 -156l-141 -38l122 -122z" />
    <glyph glyph-name="BlackArrowSW" unicode="&#x2b0b;" 
d="M405 683q143 0 243.5 -101t100.5 -244q0 -142 -100.5 -243t-243.5 -101t-244 100.5t-101 243.5t101 244t244 101zM589 250l-141 38l157 156l-95 95l-156 -157l-38 141l-122 -122l58 -215l215 -58z" />
    <glyph glyph-name="sc.f" unicode="&#xa730;" horiz-adv-x="398" 
d="M348 428h-134v-86h97v-134h-97v-208h-164v562h298v-134z" />
    <glyph glyph-name="sc.s" unicode="&#xa731;" horiz-adv-x="443" 
d="M231 401q0 -19 25.5 -46t55.5 -52t55.5 -66t25.5 -84q0 -69 -49.5 -114t-122.5 -45q-42 0 -85 14t-64 28l-22 14l49 104q32 -27 84 -27q45 0 45 32q0 19 -16.5 40t-40 42l-47.5 44.5t-40.5 57t-16.5 71.5q0 63 46.5 108.5t114.5 45.5q29 0 55 -6t42 -14t27.5 -16.5
t16.5 -14.5l5 -6l-44 -96q-16 19 -52 19q-22 0 -34.5 -9t-12.5 -24z" />
    <glyph glyph-name="sc.q" unicode="&#xa7af;" horiz-adv-x="551" 
d="M275 568q97 0 161.5 -69t64.5 -189v-58q0 -97 -43 -161.5t-114 -86.5q6 -44 40 -44h12v-109h-12q-157 0 -174 152q-72 21 -116 85.5t-44 163.5v58q0 120 64 189t161 69zM275 127q28 0 45 40t17 114t-17 113.5t-45 39.5t-44.5 -39.5t-16.5 -113.5t16.5 -114t44.5 -40z" />
    <glyph glyph-name="BCZero" unicode="&#x1f10c;" 
d="M405 459q37 0 37 -121t-37 -121q-38 0 -38 121t38 121zM405 683q143 0 243.5 -101t100.5 -244q0 -142 -100.5 -243t-243.5 -101t-244 100.5t-101 243.5t101 244t244 101zM405 142q56 0 95 47.5t39 148.5q0 102 -39 149t-95 47q-57 0 -96 -47t-39 -149q0 -101 39 -148.5
t96 -47.5z" />
    <glyph glyph-name="a.ss01" horiz-adv-x="531" 
d="M265 480q91 0 156 -43t65 -125v-312h-146l-18 44q-3 -6 -10.5 -14t-36.5 -22t-66 -14q-69 0 -116.5 40.5t-47.5 111.5q0 82 65 125.5t167 43.5h45q0 17 -25 27.5t-70 10.5q-27 0 -53 -6.5t-38 -12.5l-13 -6l-46 98q8 6 22.5 15t63.5 24t102 15zM322 174v36h-21
q-92 0 -92 -51q0 -18 15.5 -28t40.5 -10q57 0 57 53z" />
    <glyph glyph-name="f.ss01" horiz-adv-x="427" 
d="M304 549q-32 0 -38 -69h103v-134h-104v-516l-164 -39v555h-56v134h56v22q0 84 46 132.5t108 48.5q37 0 69 -10.5t45 -21.5l13 -11l-47 -100q-13 9 -31 9z" />
    <glyph glyph-name="g.ss01" horiz-adv-x="595" 
d="M330 131q101 0 160.5 -43.5t59.5 -126.5q0 -82 -71 -126t-181 -44q-107 0 -180 40t-73 106q0 60 71 98q-24 30 -24 65q0 54 49 94q-63 43 -63 123q0 77 59.5 120t160.5 43q21 0 57 -4q25 36 73.5 58.5t93.5 22.5v-110q-48 0 -69 -7q64 -42 64 -123q0 -78 -59 -121
t-160 -43q-35 0 -65 6q10 -28 77 -28h20zM298 362q-55 0 -55 -45q0 -46 55 -46t55 46q0 45 -55 45zM298 -82q88 0 88 27q0 17 -20.5 22.5t-67.5 5.5h-28q-27 0 -55 5q-6 -10 -6 -23q0 -37 89 -37z" />
    <glyph glyph-name="t.ss01" horiz-adv-x="433" 
d="M346 135l42 -88q-2 -2 -5 -5.5t-14.5 -13t-25 -16.5t-36.5 -12.5t-48 -5.5q-69 0 -110.5 46.5t-41.5 123.5v189h-62v127q38 0 53 21t15 71l158 41v-133h85v-127h-85v-186q0 -20 9.5 -33t24.5 -13q12 0 22.5 3.5t14.5 7.5z" />
    <glyph glyph-name="y.ss01" horiz-adv-x="516" 
d="M307 474h164v-502q0 -89 -57.5 -135t-149.5 -46q-93 0 -150 48t-57 147h140q0 -68 55 -68t55 68v84q-1 -2 -3 -5.5t-10.5 -12t-19.5 -15t-30 -12t-41 -5.5q-71 0 -114.5 47.5t-43.5 140.5v266h164v-209q0 -61 11 -89t38 -28t38 28t11 89v209z" />
    <glyph glyph-name="y.ss02" horiz-adv-x="559" 
d="M345 474h169l-131 -501q-27 -101 -109 -141.5t-220 -40.5v127q74 0 110 15.5t53 60.5h-51l-121 480h169l66 -286z" />
    <glyph glyph-name="sc.ae" horiz-adv-x="677" 
d="M632 428h-128v-86h102v-109h-102v-99h128v-134h-292v74h-102l-26 -74h-167l214 562h373v-134zM340 183v176l-63 -176h63z" />
    <glyph glyph-name="sc.oe" horiz-adv-x="669" 
d="M624 428h-128v-86h102v-109h-102v-99h128v-134h-300q-26 -6 -54 -6q-97 0 -161 69t-64 189v58q0 120 64 189t161 69q28 0 54 -6h300v-134zM270 127q28 0 45 40t17 114t-17 113.5t-45 39.5t-44.5 -39.5t-16.5 -113.5t16.5 -114t44.5 -40z" />
    <glyph glyph-name="sc.eth" horiz-adv-x="551" 
d="M328 562q77 0 127.5 -69t50.5 -183v-58q0 -114 -50.5 -183t-127.5 -69h-253v217h-30v128h30v217h253zM280 134q62 0 62 147t-62 147h-41v-83h38v-128h-38v-83h41z" />
    <glyph glyph-name="sc.oslash" horiz-adv-x="541" 
d="M384 538q112 -67 112 -228v-58q0 -120 -64.5 -189t-161.5 -69q-27 0 -54 6l-10 -33h-66l17 57q-52 30 -82 88.5t-30 139.5v58q0 120 64 189t161 69q28 0 54 -6l11 32h66zM214 208l70 224q-8 2 -14 2q-28 0 -44.5 -39.5t-16.5 -113.5q0 -38 5 -73zM270 127q28 0 45 40
t17 114q0 42 -6 72l-69 -223q6 -3 13 -3z" />
    <glyph glyph-name="sc.germandbls" horiz-adv-x="553" 
d="M428 291q0 -25 20 -54.5t40 -63.5t20 -68q0 -51 -37.5 -81t-97.5 -30q-29 0 -63 9t-53 19l-19 9l44 94q3 -1 7 -2t14.5 -2t19 1t15 10t6.5 21q0 23 -33.5 65t-33.5 73q0 18 12.5 44.5t12.5 50.5q0 26 -12.5 40.5t-33.5 14.5q-22 0 -34.5 -14.5t-12.5 -40.5v-386h-164v386
q0 86 59.5 134t151.5 48q90 0 150 -44.5t60 -116.5q0 -33 -19 -67t-19 -49z" />
    <glyph glyph-name="sc.thorn" horiz-adv-x="517" 
d="M308 457q76 0 120 -45.5t44 -130.5t-44 -130.5t-120 -45.5h-99v-105h-164v562h164v-105h99zM246 232q62 0 62 49t-62 49h-37v-98h37z" />
    <glyph glyph-name="ampersand.ss01" horiz-adv-x="499" 
d="M405 280l49 -37l-50 -72l-45 34q-50 -50 -126 -50q-73 0 -123 40.5t-50 105.5t66 110q-37 53 -37 102q0 59 41 91t104 32t104 -32.5t41 -90.5q0 -71 -97 -135q14 -13 46 -39q7 24 7 54h88q0 -65 -18 -113zM234 547q-31 0 -31 -34q0 -33 22 -69q40 30 40 69q0 34 -31 34z
M237 244q27 0 48 18q-58 45 -96 80q-15 -17 -15 -41q0 -26 18 -41.5t45 -15.5zM100 33v87h269v-87h-269z" />
    <glyph glyph-name="ln.zero" horiz-adv-x="538" 
d="M269 677q46 0 86 -18t74 -56.5t54 -107t20 -160.5t-20 -160.5t-54 -106.5t-74 -56t-86 -18t-86 18t-74 56t-54 106.5t-20 160.5t20 160.5t54 107t74 56.5t86 18zM269 124q65 0 65 211t-65 211q-66 0 -66 -211t66 -211z" />
    <glyph glyph-name="ln.one" horiz-adv-x="302" 
d="M35 611l232 60v-671h-168v496l-64 -16v131z" />
    <glyph glyph-name="ln.two" horiz-adv-x="472" 
d="M437 474q0 -39 -13 -80.5t-27.5 -71t-46.5 -72t-47.5 -60.5l-52.5 -60h180v-130h-313l-82 119l43 47.5l47 52.5l42.5 49.5t41 54l30.5 49.5t23 51.5t7 46.5q0 32 -17 54t-49 22q-25 0 -51 -9t-40 -17l-13 -9l-49 104q9 7 24.5 17.5t65.5 27.5t101 17q91 0 143.5 -56
t52.5 -147z" />
    <glyph glyph-name="ln.three" horiz-adv-x="459" 
d="M330 352q4 -1 10 -4t22.5 -15.5t29 -29t22.5 -47.5t10 -68q0 -93 -61 -143.5t-153 -50.5q-44 0 -88 14t-66 28l-21 13l50 106q36 -31 90 -31q36 0 58 21.5t22 60.5t-20 60t-56 21h-55v130h55q67 0 67 65q0 31 -19 47.5t-51 16.5q-21 0 -41 -7t-29 -15l-10 -7l-49 104
q8 6 22 15.5t55.5 25t81.5 15.5q87 0 147.5 -48.5t60.5 -128.5q0 -32 -8.5 -59t-21 -43t-25 -27t-21.5 -15z" />
    <glyph glyph-name="ln.four" horiz-adv-x="543" 
d="M443 283h65v-131h-65v-152h-168v152h-240v131l193 388h215v-388zM275 283v212l-105 -212h105z" />
    <glyph glyph-name="ln.five" horiz-adv-x="497" 
d="M260 424q93 0 147.5 -58t54.5 -157q0 -101 -71 -158t-168 -57q-56 0 -103 14t-66 28l-19 13l50 106q49 -31 112 -31q46 0 71 22.5t25 62.5q0 39 -25 61.5t-71 22.5q-27 0 -83 -6l-71 76l17 308h353v-131h-192l-6 -119q21 3 45 3z" />
    <glyph glyph-name="ln.six" horiz-adv-x="550" 
d="M299 467q81 0 148.5 -62t67.5 -175q0 -114 -70.5 -175t-166.5 -61q-102 0 -172.5 70.5t-70.5 193.5q0 70 17 131t44 103.5t59.5 78t65 56.5t59.5 36t44 21l17 5l60 -127q-10 -2 -27.5 -7.5t-58.5 -32t-69 -63.5q26 8 53 8zM275 124q30 0 50.5 28t20.5 78q0 51 -20.5 78.5
t-50.5 27.5t-51 -27.5t-21 -78.5q0 -50 21 -78t51 -28z" />
    <glyph glyph-name="ln.seven" horiz-adv-x="457" 
d="M35 671h387v-140q-6 -7 -16 -21.5t-36 -64.5t-45.5 -106.5t-35.5 -148.5t-16 -190h-169q0 104 15.5 197.5t37 151.5t43.5 101.5t38 61.5l15 19h-218v140z" />
    <glyph glyph-name="ln.eight" horiz-adv-x="551" 
d="M404 349q112 -48 112 -162q0 -91 -70 -142t-170 -51q-101 0 -171 51t-70 142q0 115 113 162q-102 48 -102 150q0 82 65 130t165 48q99 0 164 -48t65 -130q0 -102 -101 -150zM276 546q-27 0 -44.5 -18t-17.5 -48t17.5 -49t44.5 -19t44 19t17 49t-17 48t-44 18zM276 124
q31 0 51.5 22t20.5 57t-20.5 57t-51.5 22t-52 -22t-21 -57t21 -57t52 -22z" />
    <glyph glyph-name="ln.nine" horiz-adv-x="550" 
d="M272 677q102 0 172.5 -70.5t70.5 -194.5q0 -65 -16 -124t-42 -101t-57 -78t-62 -59t-57 -39t-42 -23l-16 -7l-60 128q9 2 24 7.5t52 32t65 62.5q-26 -8 -53 -8q-37 0 -74 14.5t-69 42.5t-52.5 75t-20.5 105q0 115 70.5 176t166.5 61zM275 334q30 0 50.5 27.5t20.5 78.5
t-20.5 78.5t-50.5 27.5t-51 -27.5t-21 -78.5t21 -78.5t51 -27.5z" />
    <glyph glyph-name="ln.zeroalt" horiz-adv-x="531" 
d="M266 677q100 0 165 -81.5t65 -260.5q0 -178 -65 -259.5t-165 -81.5q-101 0 -166 81.5t-65 259.5q0 179 65 260.5t166 81.5zM194 335q0 -23 2 -59l122 229q-19 51 -52 51q-72 0 -72 -221zM266 115q71 0 71 220q0 47 -2 67l-123 -231q17 -56 54 -56z" />
    <glyph glyph-name="zero.zero" horiz-adv-x="572" 
d="M286 486q45 0 86 -14t76.5 -42t57 -77t21.5 -113t-21.5 -113t-57 -77t-76.5 -42t-86 -14t-86.5 14t-77 42t-56.5 77t-21 113t21 113t56.5 77t77 42t86.5 14zM200 240q0 -30 6 -52l126 163q-20 17 -46 17q-37 0 -61.5 -34.5t-24.5 -93.5zM286 112q37 0 61.5 34.5
t24.5 93.5q0 28 -6 51l-126 -163q21 -16 46 -16z" />
    <glyph glyph-name="braceleft.uc" horiz-adv-x="464" 
d="M314 -7q13 0 24.5 4t16.5 8l5 4l44 -94q-5 -6 -15.5 -15t-46 -24.5t-75.5 -15.5q-70 0 -116.5 38t-46.5 105q0 38 16 91.5t16 102.5q0 45 -55 45h-21v127h21q55 0 55 45q0 50 -16 103.5t-16 90.5q0 67 46.5 105.5t116.5 38.5q40 0 74 -14t49 -28l14 -14l-44 -94
q-17 16 -46 16q-21 0 -33 -14t-12 -37q0 -47 16 -98.5t16 -73.5q0 -57 -65 -89q65 -33 65 -90q0 -22 -16 -73t-16 -98q0 -23 12 -37.5t33 -14.5z" />
    <glyph glyph-name="braceright.uc" horiz-adv-x="464" 
d="M384 369h20v-127h-20q-56 0 -56 -45q0 -49 16 -102.5t16 -91.5q0 -67 -46 -105t-116 -38q-40 0 -74.5 14t-49.5 28l-14 13l44 94q17 -16 46 -16q21 0 33.5 14t12.5 38q0 47 -16 98t-16 73q0 57 64 90q-64 31 -64 89q0 22 16 73.5t16 98.5q0 23 -12 37t-34 14
q-13 0 -24.5 -4t-16.5 -8l-5 -4l-44 94q5 6 15.5 15.5t46.5 25t76 15.5q69 0 115.5 -38.5t46.5 -105.5q0 -37 -16 -90.5t-16 -103.5q0 -45 56 -45z" />
    <glyph glyph-name="parenleft.uc" horiz-adv-x="426" 
d="M229 306q0 -62 13.5 -117.5t33 -90.5t39 -61.5t33.5 -38.5l13 -11l-60 -127q-10 5 -25.5 16t-56.5 50.5t-72 86.5t-56.5 126t-25.5 167q0 64 13 123.5t34 102.5t46 81t50 62.5t46 42.5t34 26l13 8l60 -127q-5 -4 -14 -12t-32 -37t-40 -62.5t-31.5 -89.5t-14.5 -118z" />
    <glyph glyph-name="parenright.uc" horiz-adv-x="426" 
d="M125 752q10 -5 25.5 -16t56.5 -50.5t72 -86.5t56.5 -126t25.5 -167t-24.5 -166.5t-59 -127.5t-69 -85t-58.5 -51l-25 -16l-60 127q5 4 14 12t31.5 37t40 62.5t31.5 89.5t14 118t-13.5 117.5t-33 90.5t-38.5 61.5t-33 38.5l-13 11z" />
    <glyph glyph-name="bracketleft.uc" horiz-adv-x="401" 
d="M341 618h-117v-625h117v-127h-281v880h281v-128z" />
    <glyph glyph-name="bracketright.uc" horiz-adv-x="401" 
d="M60 746h281v-880h-281v127h117v625h-117v128z" />
    <glyph glyph-name="exclamdown.uc" horiz-adv-x="302" 
d="M55 671h172v-173h-172v173zM90 465h103l34 -354v-117h-172v117z" />
    <glyph glyph-name="questiondown.uc" horiz-adv-x="469" 
d="M368 139l46 -97q-7 -6 -20 -15t-59 -24t-98 -15q-76 0 -129 39.5t-53 101.5q0 42 19.5 73t47.5 48t56 29.5t47.5 22.5t19.5 21q0 20 -41 20q-24 0 -47 -5.5t-34 -11.5l-11 -6l-42 90q6 7 18.5 17t56 27t91.5 17q67 0 116 -40.5t49 -99.5q0 -41 -19.5 -71t-47.5 -44.5
t-56 -25.5t-47.5 -22t-19.5 -26q0 -27 48 -27q28 0 55 6t40 12zM322 671v-173h-173v173h173z" />
    <glyph glyph-name="colon.uc" horiz-adv-x="292" 
d="M60 66v172h172v-172h-172zM60 546h172v-173h-172v173z" />
    <glyph glyph-name="semicolon.uc" horiz-adv-x="335" 
d="M25 -107l93 345h172l-145 -345h-120zM118 546h172v-173h-172v173z" />
    <glyph glyph-name="plus.uc" horiz-adv-x="430" 
d="M279 399h91v-128h-91v-92h-128v92h-91v128h91v91h128v-91z" />
    <glyph glyph-name="minus.uc" horiz-adv-x="360" 
d="M60 401h240v-128h-240v128z" />
    <glyph glyph-name="equal.uc" horiz-adv-x="360" 
d="M60 184v127h240v-127h-240zM60 487h240v-127h-240v127z" />
    <glyph glyph-name="divide.uc" horiz-adv-x="491" 
d="M319 594v-146h-147v146h147zM172 76v147h147v-147h-147zM60 399h371v-127h-371v127z" />
    <glyph glyph-name="multiply.uc" horiz-adv-x="418" 
d="M358 426l-69 -95l63 -88l-95 -69l-51 70l-50 -70l-96 69l69 96l-64 87l96 69l51 -70l50 70z" />
    <glyph glyph-name="guilsinglleft.uc" horiz-adv-x="355" 
d="M305 487l-122 -152l122 -152l-99 -79l-156 193v77l156 193z" />
    <glyph glyph-name="guilsinglright.uc" horiz-adv-x="355" 
d="M149 567l156 -193v-77l-156 -193l-99 79l122 152l-122 152z" />
    <glyph glyph-name="guillemotleft.uc" horiz-adv-x="591" 
d="M305 487l-122 -152l122 -152l-99 -79l-156 193v77l156 193zM541 487l-122 -152l122 -152l-99 -79l-156 193v77l156 193z" />
    <glyph glyph-name="guillemotright.uc" horiz-adv-x="591" 
d="M385 567l156 -193v-77l-156 -193l-99 79l122 152l-122 152zM305 374v-77l-156 -193l-99 79l122 152l-122 152l99 80z" />
    <glyph glyph-name="less.uc" horiz-adv-x="435" 
d="M385 490l-161 -155l161 -154l-58 -123l-277 277l277 277z" />
    <glyph glyph-name="greater.uc" horiz-adv-x="435" 
d="M107 612l278 -277l-278 -277l-57 123l161 154l-161 155z" />
    <glyph glyph-name="emdash.uc" horiz-adv-x="568" 
d="M60 468h448v-127h-448v127z" />
    <glyph glyph-name="endash.uc" horiz-adv-x="423" 
d="M60 468h303v-127h-303v127z" />
    <glyph glyph-name="hyphen.uc" horiz-adv-x="360" 
d="M60 401h240v-128h-240v128z" />
    <glyph glyph-name="logicalnot.uc" horiz-adv-x="481" 
d="M60 419h361v-210h-128v83h-233v127z" />
    <glyph glyph-name="plusminus.uc" horiz-adv-x="430" 
d="M279 529h91v-127h-91v-92h-128v92h-91v127h91v91h128v-91zM73 134v127h284v-127h-284z" />
    <glyph glyph-name="notequal.uc" horiz-adv-x="360" 
d="M300 360h-80l-15 -49h95v-127h-135l-28 -92h-67l29 92h-39v127h78l16 49h-94v127h133l28 90h67l-28 -90h40v-127z" />
    <glyph glyph-name="approxequal.uc" horiz-adv-x="402" 
d="M144 327q22 0 57 -16t57 -16q20 0 41 8t32 16l11 8v-127q-39 -32 -84 -32q-22 0 -57 16t-57 16q-20 0 -41 -8t-32 -16l-11 -8v127q39 32 84 32zM258 464q20 0 41 8t32 16l11 8v-127q-39 -32 -84 -32q-22 0 -57 16t-57 16q-20 0 -41 -8t-32 -16l-11 -8v127q39 32 84 32
q22 0 57 -16t57 -16z" />
    <glyph glyph-name="lessequal.uc" horiz-adv-x="518" 
d="M458 497l-167 -102l167 -103l-55 -116l-343 219l343 219zM98 13v127h322v-127h-322z" />
    <glyph glyph-name="greaterequal.uc" horiz-adv-x="518" 
d="M115 176l-55 116l167 103l-167 102l55 117l343 -219zM98 13v127h322v-127h-322z" />
    <glyph glyph-name="at.uc" horiz-adv-x="819" 
d="M470 683q142 0 225 -105t59 -240q-34 -194 -159 -194q-30 0 -53.5 7t-36.5 17t-22 20.5t-11 17.5l-3 7q-1 -3 -3.5 -7.5t-12.5 -16.5t-22.5 -21t-33.5 -16.5t-46 -7.5q-73 0 -118 52.5t-29 141.5q16 92 80.5 143t160.5 51q40 0 84 -12t68 -24l24 -12l-33 -190
q-19 -105 27 -105q67 0 94 149q22 126 -48.5 216t-198.5 90q-127 0 -228 -89t-124 -217q-22 -123 51.5 -214t193.5 -91q33 0 71.5 6.5t60.5 13.5l22 7l16 -34q-78 -32 -177 -32q-61 0 -118 27t-97.5 72t-60 110t-7.5 135q26 151 141 248t264 97zM446 338l11 64q-9 15 -31 15
t-44 -21.5t-28 -57.5q-7 -38 2 -58t30 -20t37 20t23 58z" />
    <glyph glyph-name="zero.numr" horiz-adv-x="327" 
d="M164 680q55 0 91.5 -49t36.5 -134t-36.5 -134t-91.5 -49q-56 0 -92.5 49t-36.5 134t36.5 134t92.5 49zM164 400q23 0 23 97t-23 97q-24 0 -24 -97t24 -97z" />
    <glyph glyph-name="one.numr" horiz-adv-x="208" 
d="M35 644l138 36v-363h-106v249l-32 -9v87z" />
    <glyph glyph-name="two.numr" horiz-adv-x="297" 
d="M262 567q0 -71 -83 -164h79v-86h-174l-49 71q5 4 13 12l29 30.5t37 43t29 45t13 42.5q0 13 -8.5 23t-25.5 10q-12 0 -23.5 -6t-16.5 -12l-6 -6l-33 71q3 4 10.5 10.5t33 17.5t55.5 11q57 0 88.5 -32.5t31.5 -80.5z" />
    <glyph glyph-name="three.numr" horiz-adv-x="289" 
d="M217 506q4 -3 10 -9t16.5 -27.5t10.5 -47.5q0 -49 -32.5 -78.5t-85.5 -29.5q-24 0 -49 9t-39 17l-13 9l34 73q18 -22 50 -22q30 0 30 31t-29 31h-38v86h38q24 0 24 23q0 9 -7 16t-20 7q-12 0 -22.5 -5t-14.5 -11l-5 -5l-34 72q38 35 93 35q56 0 86 -28t30 -72
q0 -23 -8 -41.5t-16 -25.5z" />
    <glyph glyph-name="four.numr" horiz-adv-x="329" 
d="M262 480h32v-86h-32v-77h-106v77h-121v79l102 204h125v-197zM163 467v93l-40 -93h40z" />
    <glyph glyph-name="five.numr" horiz-adv-x="309" 
d="M243 519q31 -33 31 -86q0 -55 -39 -87t-92 -32q-34 0 -61 9t-37 17l-10 9l33 71q20 -20 62 -20q17 0 27.5 9t10.5 24q0 14 -10.5 23t-27.5 9q-9 0 -19 -3t-15 -6l-5 -3l-50 54l9 170h199v-86h-98l-2 -40q2 0 6 0.5t6 0.5q51 0 82 -33z" />
    <glyph glyph-name="six.numr" horiz-adv-x="333" 
d="M179 574q50 0 84.5 -30t34.5 -100q0 -63 -41 -99q-37 -31 -89 -31q-56 0 -93 37q-40 40 -40 107q0 53 17.5 96t42.5 66.5t50 40t43 21.5l17 6l40 -83q-41 -10 -66 -31zM167 400q26 0 26 44q0 43 -26 43q-12 0 -19.5 -12t-7.5 -31q0 -20 7.5 -32t19.5 -12z" />
    <glyph glyph-name="seven.numr" horiz-adv-x="286" 
d="M35 677h216v-85q-3 -3 -8 -10t-18.5 -32t-23.5 -54t-18 -77.5t-8 -101.5h-105q0 76 16 143t32 96l17 30h-100v91z" />
    <glyph glyph-name="eight.numr" horiz-adv-x="334" 
d="M253 504q46 -28 46 -82q0 -47 -37 -77.5t-95 -30.5t-95 30.5t-37 77.5q0 54 46 82q-41 28 -41 76q0 46 38 73t89 27t88.5 -27t37.5 -73q0 -48 -40 -76zM167 594q-21 0 -21 -24t21 -24t21 24t-21 24zM167 400q11 0 19 8.5t8 21.5t-8 21.5t-19 8.5q-12 0 -19.5 -8.5
t-7.5 -21.5t7.5 -21.5t19.5 -8.5z" />
    <glyph glyph-name="nine.numr" horiz-adv-x="333" 
d="M165 680q57 0 95 -38.5t38 -105.5q0 -34 -9 -65.5t-23.5 -54t-31.5 -42t-34.5 -32t-32 -21t-23.5 -12.5l-9 -4l-39 84q35 9 59 31q-46 0 -80 32q-40 36 -40 98q0 58 37.5 94t92.5 36zM167 506q26 0 26 44t-26 44q-12 0 -19.5 -12t-7.5 -32t7.5 -32t19.5 -12z" />
    <glyph glyph-name="zero.dnom" horiz-adv-x="327" 
d="M164 363q55 0 91.5 -49t36.5 -134t-36.5 -134t-91.5 -49q-56 0 -92.5 49t-36.5 134t36.5 134t92.5 49zM164 83q23 0 23 97t-23 97q-24 0 -24 -97t24 -97z" />
    <glyph glyph-name="one.dnom" horiz-adv-x="208" 
d="M35 327l138 36v-363h-106v249l-32 -9v87z" />
    <glyph glyph-name="two.dnom" horiz-adv-x="297" 
d="M262 250q0 -71 -83 -164h79v-86h-174l-49 71q5 4 13 12l29 30.5t37 43t29 45t13 42.5q0 13 -8.5 23t-25.5 10q-12 0 -23.5 -6t-16.5 -12l-6 -6l-33 71q3 4 10.5 10.5t33 17.5t55.5 11q57 0 88.5 -32.5t31.5 -80.5z" />
    <glyph glyph-name="three.dnom" horiz-adv-x="289" 
d="M217 189q4 -3 10 -9t16.5 -27.5t10.5 -47.5q0 -49 -32.5 -78.5t-85.5 -29.5q-24 0 -49 8.5t-39 17.5l-13 9l34 73q18 -22 50 -22q30 0 30 31t-29 31h-38v86h38q24 0 24 23q0 9 -7 16t-20 7q-12 0 -22.5 -5.5t-14.5 -10.5l-5 -5l-34 72q38 35 93 35q56 0 86 -28t30 -71
q0 -24 -8 -42.5t-16 -25.5z" />
    <glyph glyph-name="four.dnom" horiz-adv-x="329" 
d="M262 163h32v-86h-32v-77h-106v77h-121v79l102 204h125v-197zM163 150v93l-40 -93h40z" />
    <glyph glyph-name="five.dnom" horiz-adv-x="309" 
d="M243 202q31 -33 31 -86q0 -55 -39 -87t-92 -32q-34 0 -61 8.5t-37 17.5l-10 9l33 71q20 -20 62 -20q17 0 27.5 9t10.5 24q0 14 -11 23.5t-27 9.5q-9 0 -19 -3.5t-15 -6.5l-5 -3l-50 54l9 170h199v-86h-98l-2 -40q4 1 12 1q52 0 82 -33z" />
    <glyph glyph-name="six.dnom" horiz-adv-x="333" 
d="M179 257q50 0 84.5 -30t34.5 -100q0 -63 -41 -99q-37 -31 -89 -31q-56 0 -93 37q-40 40 -40 107q0 53 17.5 96t42.5 66.5t50 40t43 22.5l17 5l40 -83q-41 -9 -66 -31zM167 83q26 0 26 44t-26 44q-12 0 -19.5 -12t-7.5 -32t7.5 -32t19.5 -12z" />
    <glyph glyph-name="seven.dnom" horiz-adv-x="286" 
d="M35 360h216v-84l-8 -10.5t-18.5 -32t-23.5 -54.5t-18 -77.5t-8 -101.5h-105q0 76 16 143t32 97l17 29h-100v91z" />
    <glyph glyph-name="eight.dnom" horiz-adv-x="334" 
d="M253 187q46 -28 46 -82q0 -47 -37 -77.5t-95 -30.5t-95 30.5t-37 77.5q0 54 46 82q-41 28 -41 76q0 46 38 73t89 27t88.5 -27t37.5 -73q0 -48 -40 -76zM167 277q-21 0 -21 -24t21 -24t21 24t-21 24zM167 83q11 0 19 8.5t8 21.5t-8 21.5t-19 8.5q-12 0 -19.5 -8.5
t-7.5 -21.5t7.5 -21.5t19.5 -8.5z" />
    <glyph glyph-name="nine.dnom" horiz-adv-x="333" 
d="M165 363q57 0 95 -38t38 -106q0 -34 -9 -65.5t-23.5 -54t-31.5 -42t-34.5 -32t-32 -21t-23.5 -12.5l-9 -4l-39 84q35 9 59 31q-46 0 -80 32q-40 36 -40 98q0 59 37.5 94.5t92.5 35.5zM167 189q26 0 26 44t-26 44q-12 0 -19.5 -12t-7.5 -32t7.5 -32t19.5 -12z" />
    </font>
</defs>
</svg>
