<?xml version="1.0" standalone="no"?>
<!DOCTYPE svg PUBLIC "-//W3C//DTD SVG 1.1//EN" "http://www.w3.org/Graphics/SVG/1.1/DTD/svg11.dtd" >
<svg>
<metadata>
Created by FontForge 20090622 at Tue Apr  7 20:08:16 2020
 By deploy user
Copyright (c) 2020 by Vintage Type Company. All rights reserved.
</metadata>
<defs>
<font id="VTCFellbaumGroteskItalic-Heavy" horiz-adv-x="805" >
  <font-face 
    font-family="VTC Fellbaum Grotesk Italic"
    font-weight="800"
    font-stretch="normal"
    units-per-em="1000"
    panose-1="0 0 0 0 0 0 0 0 0 0"
    ascent="750"
    descent="-250"
    x-height="474"
    cap-height="677"
    bbox="-155 -209 1384 900"
    underline-thickness="50"
    underline-position="-50"
    unicode-range="U+000D-U+1F10C"
  />
<missing-glyph horiz-adv-x="759" 
d="M181 683h518l-122 -689h-517zM283 522l-64 -367l105 183zM295 94h83l-23 104zM381 583l23 -105l60 105h-83zM475 155l65 367l-105 -184z" />
    <glyph glyph-name="db.01" unicode="&#x3a;&#x29;" horiz-adv-x="794" 
d="M458 686q143 0 226.5 -101.5t58.5 -244.5q-26 -143 -145 -244.5t-262 -101.5t-226.5 101.5t-58.5 244.5q26 143 145 244.5t262 101.5zM663 340q9 54 -3 103q-10 45 -42 85q-30 36 -74 57q-48 21 -100 21q-50 0 -107 -21q-52 -21 -95 -57q-46 -41 -72 -85
q-29 -50 -39 -103q-9 -54 3 -104q13 -49 42 -84q30 -38 75 -57q45 -21 99 -21t107 21q52 20 95 57q42 34 72 84q30 49 39 104zM526 327l7 40h93l-14 -80h-17q-27 -73 -94 -121.5t-143 -48.5q-77 0 -126 48.5t-51 121.5h-17l14 80h94l-8 -40q-9 -54 22.5 -92t85.5 -38t99 38
t55 92zM326 315q-22 0 -29 36t2 79q8 47 26.5 81.5t41.5 34.5q22 0 29 -36t-2 -80q-1 -1 -1 -3q-3 1 -9 1q-12 0 -22.5 -8.5t-12.5 -21.5q-2 -12 5 -21t20 -9q1 0 2 1q-22 -54 -50 -54zM460 315q-22 0 -29 36t2 79q8 47 26.5 81.5t41.5 34.5q22 0 29 -36t-2 -80q-1 -1 -1 -3
q-3 1 -9 1q-12 0 -22.5 -8.5t-12.5 -21.5q-2 -12 5 -21t20 -9q1 0 2 1q-22 -54 -50 -54z" />
    <glyph glyph-name="db.02" unicode="&#x3c;&#x33;" horiz-adv-x="582" 
d="M439 558q49 0 76.5 -34.5t18.5 -84.5q-8 -48 -42 -98.5t-76.5 -88t-83.5 -68.5t-69 -47l-28 -16q-9 6 -23.5 17t-50 45.5t-61.5 70t-43 86.5t-9 99q8 50 48 84.5t89 34.5q86 0 111 -89q58 89 143 89z" />
    <glyph glyph-name="db.03" unicode="&#x3c;&#x3c;&#x33;" horiz-adv-x="569" 
d="M500 519q32 -40 21 -93q-11 -58 -57 -120q-37 -47 -92 -91q-27 -22 -57 -42.5t-46 -30t-19 -10.5l-19 -11l-15 11q-3 1 -15 10t-35 30t-42 43q-40 44 -60 91q-26 62 -15 120q9 55 54 93q45 39 100 39q48 0 80 -29q8 -6 17 -18q14 13 23 18q44 29 91 29q55 0 86 -39z
M455 426q4 27 -11 47q-14 18 -42 18q-24 0 -47 -15q-22 -14 -38 -40l-41 -63l-19 63q-16 55 -66 55q-28 0 -49 -18q-21 -20 -26 -47q-13 -76 62 -163q34 -39 67 -63q54 34 91 64q106 88 119 162z" />
    <glyph glyph-name="db.04" unicode="db&#x2e;&#x30;&#x31;" horiz-adv-x="779" 
d="M633 461l101 -123l-144 -122l-91 111l-118 -100l92 -111l-144 -122l-101 122l131 111l-83 100l-130 -111l-101 122l144 123l91 -111l118 100l-92 111l144 122l101 -122l-131 -111l83 -100z" />
    <glyph glyph-name="db.05" unicode="db&#x2e;&#x30;&#x32;" horiz-adv-x="779" 
d="M553 185l-78 95l-44 -37l78 -96l-180 -153l-127 153l112 96l-30 37l-113 -95l-126 153l181 154l78 -95l44 37l-78 95l180 154l127 -154l-112 -95l30 -37l113 95l126 -154zM590 395l-66 -57l46 -56l67 56zM189 282l66 56l-46 57l-67 -57zM433 586l-66 -57l46 -56l67 56z
M346 91l66 56l-46 57l-67 -57zM380 282l66 56l-47 57l-66 -57z" />
    <glyph glyph-name="db.06" unicode="db&#x2e;&#x30;&#x33;" horiz-adv-x="663" 
d="M588 409h-158l-24 -141h157l-31 -173h-173l28 157h-141l-28 -157h-173l30 173h158l25 141h-158l31 173h173l-28 -157h141l28 157h173z" />
    <glyph glyph-name="db.07" unicode="db&#x2e;&#x30;&#x34;" horiz-adv-x="663" 
d="M580 365h-135l-9 -53h135l-39 -217h-217l24 135h-53l-24 -135h-217l38 217h135l10 53h-135l38 217h217l-24 -135h53l24 135h217zM206 163l14 80h-80l-14 -80h80zM253 433l14 80h-80l-14 -80h80zM364 298l15 80h-80l-14 -80h79zM490 243h-80l-14 -80h80zM457 513l-14 -80
h80l14 80h-80z" />
    <glyph glyph-name="db.08" unicode="db&#x2e;&#x30;&#x37;" horiz-adv-x="812" 
d="M765 421q-9 -50 -68 -83q48 -32 39 -82q-7 -39 -32.5 -60.5t-61.5 -21.5t-64 20.5t-58.5 58t-47.5 52.5l-45 -39q11 -20 42 -57t46 -68.5t9 -66.5q-7 -36 -32.5 -58t-63.5 -22q-50 0 -74 53q-40 -53 -92 -53q-38 0 -55.5 22.5t-11.5 57.5t32 66.5t70.5 69t62.5 56.5
l-32 39q-22 -15 -66 -52.5t-79 -58t-71 -20.5t-54 21.5t-11 60.5q8 51 68 82q-48 32 -39 83q7 38 33 60t61 22q36 0 64 -20.5t58.5 -58t47.5 -52.5l45 38q-11 20 -42.5 57.5t-46 69t-8.5 66.5q6 36 31.5 58t64.5 22q51 0 73 -53q42 53 92 53q39 0 56.5 -22t11.5 -58
q-6 -35 -32 -66.5t-70.5 -69t-62.5 -57.5l32 -38q22 15 66 52.5t79 58t71 20.5q35 0 53.5 -21.5t11.5 -60.5z" />
    <glyph glyph-name="db.09" unicode="db&#x2e;&#x30;&#x38;" horiz-adv-x="811" 
d="M763 412q-7 -40 -41 -74q23 -32 15 -74q-9 -50 -45 -80q-37 -29 -81 -29q-40 0 -73 23q16 -37 9 -77q-8 -47 -43 -76q-36 -31 -85 -31q-41 0 -69 28q-39 -28 -79 -28q-49 0 -75 31q-24 31 -15 76q7 39 35 77q-39 -23 -80 -23q-45 0 -71 29q-26 31 -17 80q8 42 41 74
q-22 35 -15 74q9 50 45 80t82 30q39 0 72 -23q-15 40 -9 77q9 47 43 76q36 31 85 31q42 0 70 -28q37 28 78 28q50 0 75 -31q24 -30 16 -76q-6 -37 -36 -77q41 23 80 23q46 0 71 -30q26 -31 17 -80zM149 227q24 0 47.5 15t60.5 46q40 34 63 49l2 1l-2 2q-11 9 -45 48
q-19 22 -28.5 32t-26 20t-32.5 10q-36 0 -42 -38q-5 -25 23 -43l46 -31l-57 -30q-33 -17 -38 -44q-7 -37 29 -37zM475 101q3 16 -3.5 34.5t-14.5 29.5t-26 33q-26 32 -39 55l-1 1l-2 -1q-22 -24 -58 -55q-25 -21 -37.5 -33t-25.5 -30t-16 -34q-6 -35 32 -35q26 0 48 30
l40 52l22 -52q12 -30 38 -30q37 0 43 35zM362 338l36 -43l52 43l-37 44zM422 424q10 11 58 54l38 34t25 29.5t16 34.5q6 35 -31 35q-25 0 -49 -30l-40 -52l-21 52q-14 30 -38 30q-38 0 -44 -35q-3 -16 3.5 -34t14.5 -30t26 -34q28 -34 39 -54l1 -2zM692 412q6 38 -29 38
q-16 0 -36.5 -10t-33 -19.5t-39.5 -32.5q-42 -35 -62 -48l-2 -2l1 -1q21 -18 46 -49q19 -22 28 -31.5t25.5 -19.5t32.5 -10q36 0 43 37q3 27 -23 44l-47 30l58 31q33 18 38 43z" />
    <glyph glyph-name="db.10" unicode="db&#x2e;&#x30;&#x39;" horiz-adv-x="796" 
d="M733 524q22 -28 16.5 -59t-35.5 -56t-68 -33t-90.5 -7.5t-77.5 -3.5l-10 -54q23 -3 77 -2.5t88.5 -7.5t55.5 -33q21 -24 16 -56t-37 -59q-43 -36 -100 -20q5 -60 -38 -97q-33 -27 -63 -26.5t-51 25.5t-22.5 61.5t8 89.5t10.5 78h-54q-7 -23 -16.5 -77t-23.5 -90.5
t-44 -61.5q-29 -25 -60 -25.5t-54 26.5q-30 36 -4 97q-62 -16 -92 20q-22 28 -16.5 59t34.5 56q30 25 67.5 33t91.5 7.5t78 2.5l9 54q-24 4 -76.5 3.5t-88 7.5t-56.5 33q-21 24 -15.5 55.5t37.5 59.5q43 36 100 20q-5 59 37 96q34 28 64 27.5t51 -25.5t22 -61.5t-8.5 -90
t-10.5 -77.5h55q7 23 16.5 77t23.5 90.5t44 61.5t60 25.5t54 -27.5q30 -37 3 -96q63 16 93 -20z" />
    <glyph glyph-name="db.11" unicode="db&#x2e;&#x31;&#x30;" horiz-adv-x="795" 
d="M727 530q29 -35 21 -79q-9 -42 -47 -74q-31 -27 -76 -39q40 -10 63 -38q26 -32 20 -74q-8 -44 -49 -79q-35 -29 -77 -32q-11 -42 -46 -73q-42 -34 -84 -34t-69 33q-23 28 -26 70q-19 -43 -51 -70q-38 -33 -80 -33q-44 0 -72 34q-25 31 -20 72q-43 5 -67 33q-29 37 -20 79
q8 42 46 74q32 28 77 38q-42 12 -63 39q-27 32 -21 74q8 44 49 79q35 29 78 32q11 44 45 72q41 35 85 35q41 0 68 -33q23 -28 26 -70q19 43 51 70q39 33 80 33q44 0 73 -35q24 -28 19 -72q43 -3 67 -32zM326 277l1 2h-2q-25 -4 -73 -4q-33 -1 -47.5 -1.5t-35 -6.5t-34.5 -17
q-31 -26 -8 -52q15 -18 50 -9l62 15l-26 -59q-15 -34 0 -52q23 -26 52 -1q14 11 23 31t12.5 34.5t9.5 46.5q7 39 16 73zM348 400q1 25 9 73q5 31 7 46t-0.5 34.5t-11.5 31.5q-21 25 -52 -1q-21 -18 -19 -52l5 -59l-56 15q-32 9 -53 -9q-32 -27 -11 -52q13 -16 38.5 -20.5
t69.5 -4.5q48 0 72 -4h2v2zM361 307h62l11 62h-62zM628 250q-9 11 -28.5 17t-33.5 6.5t-46 1.5q-48 0 -72 4h-2v-2q-1 -25 -9 -73q-5 -31 -7 -46.5t0.5 -35t11.5 -30.5q21 -25 52 1q22 19 19 52l-5 59l56 -15q33 -9 54 9q31 26 10 52zM659 427q30 26 8 52q-15 18 -50 9
l-62 -15l26 59q15 34 0 52q-23 26 -52 1q-19 -17 -27.5 -42t-17.5 -70q-7 -42 -16 -73l-1 -2h2q25 4 74 4q86 0 116 25z" />
    <glyph glyph-name="db.12" unicode="db&#x2e;&#x31;&#x31;" horiz-adv-x="704" 
d="M489 382l170 86l-134 -267h-440l-40 267l140 -86l189 210zM64 85l12 69h441l-12 -69h-441z" />
    <glyph glyph-name="db.13" unicode="db&#x2e;&#x31;&#x32;" horiz-adv-x="704" 
d="M615 492l44 -42l-132 -262h-443l-39 262l58 42l100 -61l145 161h58l88 -161zM488 259l64 127l-95 -48l-94 173l-156 -173l-78 48l19 -127h340zM76 85l13 71h422l-12 -71h-423z" />
    <glyph glyph-name="db.14" unicode="db&#x2e;&#x31;&#x33;" horiz-adv-x="623" 
d="M167 683h411l-122 -689l-189 95l-222 -95z" />
    <glyph glyph-name="db.15" unicode="db&#x2e;&#x31;&#x34;" horiz-adv-x="639" 
d="M167 683h427l-122 -689l-196 99l-231 -99zM422 103l90 511h-288l-90 -511l156 67z" />
    <glyph glyph-name="db.16" unicode="db&#x2e;&#x31;&#x35;" horiz-adv-x="1429" 
d="M1264 382h120l-9 -54h-121l-310 -264l-116 140l-165 -140l-115 140l-165 -140l-217 264h-121l9 54h121l311 264l115 -140l165 140l115 -140l165 140zM753 570l-120 -102l84 -102l120 102zM397 140l120 102l-93 113l132 113l-84 102l-252 -215zM500 355l61 -75l89 75
l-62 75zM677 140l120 102l-84 102l-120 -102zM780 355l62 -75l88 75l-62 75zM957 140l253 215l-177 215l-120 -102l93 -113l-133 -113z" />
    <glyph glyph-name="db.17" unicode="db&#x2e;&#x31;&#x36;" horiz-adv-x="1429" 
d="M1264 382h120l-9 -54h-121l-310 -264l-116 140l-165 -140l-115 140l-165 -140l-217 264h-121l9 54h121l311 264l115 -140l165 140l115 -140l165 140zM424 355l132 113l-84 102l-252 -215l177 -215l120 102zM677 140l120 102l-84 102l-120 -102zM717 366l120 102l-84 102
l-120 -102zM957 140l253 215l-177 215l-120 -102l93 -113l-133 -113z" />
    <glyph glyph-name="db.18" unicode="db&#x2e;&#x31;&#x37;" horiz-adv-x="590" 
d="M355 461q-35 23 -60 57t-30 53q-12 40 5 75t44 37q24 3 42.5 -14.5t28.5 -45.5q1 -1 4 -20t10.5 -40.5t19.5 -40.5q18 -31 48 -57t59 -37q8 -3 6 -9t-11 -6q-35 -2 -82 10.5t-84 37.5zM535 351q11 -2 9.5 -12t-13.5 -13q-327 -85 -389 -85q-47 0 -74.5 28.5t-20.5 69.5
q8 41 45.5 70t83.5 29q56 0 359 -87zM494 265q6 0 8.5 -3t0 -7t-7.5 -5q-32 -10 -72 -37t-69 -58q-19 -19 -33.5 -40t-24.5 -39.5t-12 -21.5q-19 -28 -44 -45.5t-48 -14.5q-25 2 -29.5 36.5t20.5 75.5q12 20 49 53.5t80 56.5q90 51 182 49z" />
    <glyph glyph-name="db.19" unicode="db&#x2e;&#x31;&#x38;" horiz-adv-x="590" 
d="M236 216q35 -23 60 -57t29 -53q11 -40 -5.5 -75t-42.5 -37q-48 -5 -71 60q-1 3 -4.5 21.5t-10.5 39.5t-19 40q-18 31 -48.5 58t-58.5 37q-11 3 -5 11q3 4 10 4q94 2 166 -49zM96 413q-6 0 -8 3t0.5 6.5t7.5 5.5q33 11 73 37t68 57q18 19 33 41t24.5 39.5t11.5 20.5
q46 66 92 60q26 -2 30.5 -36.5t-21.5 -75.5q-11 -19 -48 -53t-80 -57q-46 -25 -97.5 -37.5t-85.5 -10.5zM449 438q46 0 73.5 -29.5t20.5 -69.5q-7 -41 -44.5 -69.5t-84.5 -28.5q-60 0 -359 85q-7 2 -8.5 7.5t2 11t10.5 6.5q338 87 390 87z" />
    <glyph glyph-name="db.20" unicode="db&#x2e;&#x30;&#x35;" horiz-adv-x="779" 
d="M566 543l-165 -140l-115 140l164 140zM213 134l165 140l115 -140l-164 -140zM210 478l115 -140l-165 -140l-115 140zM619 478l115 -140l-165 -140l-115 140z" />
    <glyph glyph-name="db.21" unicode="db&#x2e;&#x30;&#x36;" horiz-adv-x="779" 
d="M584 521l-191 -163l-134 163l191 162zM433 582l-73 -61l51 -62l72 62zM195 156l191 163l134 -163l-191 -162zM347 95l72 61l-51 62l-72 -62zM236 501l134 -163l-191 -162l-134 162zM146 338l50 -61l73 61l-51 62zM600 501l134 -163l-191 -162l-134 162zM510 338l51 -61
l72 61l-50 62z" />
    <glyph glyph-name="fi" unicode="fi" horiz-adv-x="607" 
d="M475 152q-4 -22 12.5 -35t41.5 -13l-19 -110q-89 0 -140 43t-39 111l39 221h-125l-59 -337q-31 -175 -173 -175q-27 0 -49 7.5t-30 15.5l-9 7l41 87q9 -7 25 -7q25 0 39 35t29 122l44 245h-64l20 111h63l4 22q16 88 80 134.5t145 46.5q42 0 78 -8.5t51 -17.5l14 -9
l-41 -88q-29 12 -76 12q-96 0 -110 -83l-2 -9h267z" />
    <glyph glyph-name="fl" unicode="fl" horiz-adv-x="682" 
d="M545 152q-4 -19 14 -33.5t41 -14.5l-20 -110q-87 0 -138 47t-37 128l35 200h-135l-59 -337q-31 -175 -173 -175q-27 0 -49 7.5t-30 15.5l-9 7l41 87q9 -7 25 -7q25 0 39 35t29 122l44 245h-64l20 111h63l4 22q16 89 78.5 135t146.5 46q67 0 112 -28l114 22zM460 480
l15 85q-21 7 -46 7q-88 0 -102 -83l-2 -9h135z" />
    <glyph glyph-name="ffi" unicode="ffi" horiz-adv-x="910" 
d="M808 152q-4 -22 12.5 -35t41.5 -13l-19 -110q-89 0 -140 43t-39 111l39 221h-125l-59 -337q-31 -175 -173 -175q-27 0 -49 7.5t-31 15.5l-8 7l41 87q9 -7 25 -7q25 0 39 35t29 122l44 245h-131l-59 -337q-31 -175 -173 -175q-27 0 -49 7.5t-30 15.5l-9 7l41 87
q9 -7 25 -7q25 0 39 35t29 122l44 245h-64l20 111h63l4 22q16 90 77 135.5t147 45.5q79 0 136 -37q57 37 138 37q42 0 78 -8.5t50 -17.5l15 -9l-41 -88q-29 12 -76 12q-96 0 -110 -83l-2 -9h267zM459 502q5 31 19 64q-26 6 -47 6q-37 0 -66.5 -20t-37.5 -63l-2 -9h130z" />
    <glyph glyph-name="ffl" unicode="ffl" horiz-adv-x="955" 
d="M818 152q-4 -19 14 -33.5t41 -14.5l-20 -110q-87 0 -138 47t-37 128l35 200h-135l-59 -337q-31 -175 -173 -175q-27 0 -49 7.5t-31 15.5l-8 7l41 87q9 -7 25 -7q25 0 39 35t29 122l44 245h-131l-59 -337q-31 -175 -173 -175q-27 0 -49 7.5t-30 15.5l-9 7l41 87
q9 -7 25 -7q25 0 39 35t29 122l44 245h-64l20 111h63l4 22q16 90 77 135.5t147 45.5q79 0 136 -37q57 37 138 37q59 0 113 -28l113 22zM459 502q5 31 19 64q-26 6 -47 6q-37 0 -66.5 -20t-37.5 -63l-2 -9h130zM733 480l15 86q-24 6 -45 6q-39 0 -67.5 -20.5t-35.5 -62.5
l-2 -9h135z" />
    <glyph glyph-name="fj" unicode="fj" horiz-adv-x="652" 
d="M325 480h282l-89 -508q-18 -102 -79 -141.5t-187 -39.5l19 110q55 0 76.5 18.5t30.5 66.5l67 383h-140l-59 -337q-31 -175 -173 -175q-27 0 -49 7.5t-30 15.5l-9 7l41 87q9 -7 25 -7q25 0 39 35t29 122l44 245h-64l20 111h63l4 22q16 88 80 134.5t145 46.5q42 0 78 -8.5
t51 -17.5l14 -9l-41 -88q-29 12 -76 12q-96 0 -110 -83z" />
    <glyph glyph-name="tt" unicode="tt" horiz-adv-x="726" 
d="M571 369l-31 -175q-7 -42 3 -66t30 -24q14 0 25 5t14 10l4 5l36 -77q-5 -6 -14 -15t-40 -23.5t-65 -14.5q-62 0 -106.5 45t-32.5 113l38 217h-174l-31 -175q-7 -42 3 -66t30 -24q14 0 25 5t15 10l3 5l36 -77q-5 -6 -14 -15t-40 -23.5t-65 -14.5q-62 0 -106.5 45
t-33.5 113l39 217h-74l19 111q48 0 70 20t32 79l135 34l-24 -133h101q47 0 69 20t33 79l134 34l-23 -133h90l-20 -111h-90z" />
    <glyph glyph-name="ft" unicode="ft" horiz-adv-x="694" 
d="M545 369l-31 -175q-8 -42 2 -66t31 -24q14 0 24.5 5t14.5 10l3 5l36 -77q-5 -6 -13.5 -15t-39.5 -23.5t-65 -14.5q-62 0 -107 45t-33 113l38 217h-135l-59 -337q-31 -175 -173 -175q-27 0 -49 7.5t-31 15.5l-8 7l41 87q9 -7 25 -7q25 0 39 35t29 122l44 245h-64l20 111
h63l4 22q16 90 77 135.5t147 45.5q64 0 118 -27l106 21l-35 -197h90l-19 -111h-90zM389 480q24 0 36.5 16.5t23.5 67.5q-22 8 -53 8q-37 0 -66.5 -20t-37.5 -63l-2 -9h99z" />
    <glyph glyph-name=".notdef" horiz-adv-x="759" 
d="M181 683h518l-122 -689h-517zM283 522l-64 -367l105 183zM295 94h83l-23 104zM381 583l23 -105l60 105h-83zM475 155l65 367l-105 -184z" />
    <glyph glyph-name=".null" horiz-adv-x="0" 
 />
    <glyph glyph-name="nonmarkingreturn" horiz-adv-x="333" 
 />
    <glyph glyph-name="NULL" horiz-adv-x="200" 
 />
    <glyph glyph-name="CR" unicode="&#xd;" horiz-adv-x="200" 
 />
    <glyph glyph-name="space" unicode=" " horiz-adv-x="200" 
 />
    <glyph glyph-name="exclam" unicode="!" horiz-adv-x="294" 
d="M50 0l26 150h150l-26 -150h-150zM169 677h150l-20 -117l-94 -362h-90l34 362z" />
    <glyph glyph-name="quotedbl" unicode="&#x22;" horiz-adv-x="369" 
d="M35 474l9 203h132l-62 -203h-79zM201 677h133l-63 -203h-79z" />
    <glyph glyph-name="numbersign" unicode="#" horiz-adv-x="671" 
d="M589 379h-98l-25 -87h88l-18 -100h-99l-54 -192h-112l55 192h-65l-55 -192h-111l55 192h-85l18 100h95l25 87h-95l18 100h106l55 192h111l-55 -192h65l55 192h111l-55 -192h87zM355 292l24 87h-64l-25 -87h65z" />
    <glyph glyph-name="dollar" unicode="$" horiz-adv-x="444" 
d="M229 457q-3 -16 13 -35t40 -39.5t47.5 -45t37 -59.5t6.5 -74q-10 -52 -44 -84.5t-86 -43.5l-14 -82h-98l14 80q-35 5 -63.5 16.5t-39.5 21.5l-12 9l59 91q34 -33 95 -33q21 0 35.5 10t16.5 24q4 20 -11.5 42.5t-39.5 44t-47.5 45.5t-37 56t-7.5 66q9 51 49 85t95 44
l15 81h97l-15 -84q25 -5 45 -15t27 -18l8 -7l-57 -88q-24 26 -70 26q-52 0 -58 -34z" />
    <glyph glyph-name="percent" unicode="%" horiz-adv-x="886" 
d="M405 503q-14 -81 -66.5 -130.5t-123.5 -49.5q-73 0 -116.5 50.5t-29.5 129.5q14 81 68.5 130.5t125.5 49.5q72 0 114 -50t28 -130zM180 503q-7 -37 5.5 -57t38.5 -20q25 0 44.5 20t26.5 57q6 37 -6.5 57t-37.5 20q-26 0 -45 -20t-26 -57zM675 353q73 0 114.5 -49.5
t27.5 -129.5q-14 -82 -67 -131t-124 -49q-73 0 -116 50t-29 130q14 81 68.5 130t125.5 49zM706 174q7 37 -5.5 57t-37.5 20q-26 0 -45 -20t-26 -57q-7 -38 5.5 -58t37.5 -20q26 0 45 20t26 58zM561 677h117l-353 -677h-117z" />
    <glyph glyph-name="ampersand" unicode="&#x26;" horiz-adv-x="584" 
d="M564 335q-19 -106 -66 -190l52 -73l-105 -80l-38 50q-66 -48 -149 -48q-96 0 -158 55t-46 146q20 115 136 169q-39 84 -29 143q16 87 76 131.5t135 44.5q77 0 127 -45t35 -131q-6 -36 -26 -66t-47.5 -50t-50.5 -32t-47 -20q15 -25 62 -93q8 21 14 43.5t8 34.5l2 11h115z
M279 104q34 0 65 21q-62 84 -103 146q-36 -31 -44 -76q-7 -39 17.5 -65t64.5 -26zM318 425q64 31 75 93q5 26 -4.5 40t-29.5 14q-44 0 -53 -54q-7 -41 12 -93z" />
    <glyph glyph-name="quotesingle" unicode="'" horiz-adv-x="131" 
d="M35 474l9 203h132l-62 -203h-79z" />
    <glyph glyph-name="parenleft" unicode="(" horiz-adv-x="376" 
d="M371 572l-16 -14t-37 -40.5t-49.5 -67.5t-46 -93.5t-34.5 -119.5q-11 -66 -8.5 -119.5t14 -94t24.5 -67.5t24 -41l10 -14l-71 -110q-2 2 -6.5 5.5t-16.5 17t-24 28.5t-27 39t-27 50t-23 60.5t-16 71t-4.5 82t8.5 92.5q15 88 51 166t76 127t78 85.5t63 52.5l25 15z" />
    <glyph glyph-name="parenright" unicode=")" horiz-adv-x="355" 
d="M175 683q2 -2 6.5 -6t16.5 -17.5t23.5 -28.5t26.5 -39.5t27 -50.5t23 -61t16.5 -71.5t5 -81t-8.5 -90.5q-16 -88 -52 -166t-76 -127t-78 -85.5t-63 -52.5l-25 -15l-32 110l16 14t37 41t49.5 68t46 93.5t34.5 119.5q15 110 0.5 184.5t-40.5 112.5l-25 38z" />
    <glyph glyph-name="asterisk" unicode="*" horiz-adv-x="342" 
d="M297 600l-74 -42l59 -41l-37 -47l-55 38l-12 -69h-56l12 69l-68 -38l-21 47l74 41l-59 42l37 46l55 -38l12 69h55l-12 -69l69 38z" />
    <glyph glyph-name="plus" unicode="+" horiz-adv-x="383" 
d="M257 295h91l-19 -110h-92l-16 -92h-111l16 92h-91l19 110h92l16 92h111z" />
    <glyph glyph-name="comma" unicode="," horiz-adv-x="328" 
d="M143 130h150l-178 -300h-105z" />
    <glyph glyph-name="hyphen" unicode="-" horiz-adv-x="350" 
d="M64 295h241l-20 -110h-240z" />
    <glyph glyph-name="period" unicode="." horiz-adv-x="246" 
d="M61 150h150l-26 -150h-150z" />
    <glyph glyph-name="slash" unicode="/" horiz-adv-x="436" 
d="M298 683h113l-273 -689h-113z" />
    <glyph glyph-name="zero" unicode="0" horiz-adv-x="527" 
d="M298 486q41 0 78 -14t67 -42t42 -77.5t1 -112.5q-22 -123 -95.5 -184.5t-161.5 -61.5q-90 0 -149.5 62t-38.5 184q22 123 95.5 184.5t161.5 61.5zM344 240q11 64 -4.5 99.5t-51.5 35.5q-37 0 -65 -35.5t-39 -99.5t4 -100t52 -36q36 0 64 36t40 100z" />
    <glyph glyph-name="one" unicode="1" horiz-adv-x="301" 
d="M55 435l211 51l-85 -486h-143l59 334l-62 -15z" />
    <glyph glyph-name="two" unicode="2" horiz-adv-x="475" 
d="M437 332q-6 -32 -32 -67t-59 -61.5t-65 -48t-54 -33.5l-22 -11h200l-19 -111h-319l-32 111q158 107 204 149q51 46 56 77q6 38 -48 38q-22 0 -47 -8.5t-40 -17.5l-14 -9l-27 90q7 6 20.5 15.5t54 25t81.5 15.5q79 0 127 -41.5t35 -112.5z" />
    <glyph glyph-name="three" unicode="3" horiz-adv-x="428" 
d="M390 327q-8 -44 -34 -76t-48 -43l-22 -10q4 -1 9 -3.5t20.5 -13t23.5 -24.5t16 -38.5t0 -55.5q-7 -41 -30 -78.5t-53 -64.5t-65 -49.5t-69 -36.5l-61 -24.5t-44 -14.5l-17 -4l-31 104q8 3 22.5 8t51.5 22t66.5 37t56.5 52t33 66q6 30 -7.5 49.5t-39.5 10.5l-42 -14
l-25 86q77 32 109 58t38 60q3 20 -9.5 32.5t-40.5 12.5q-20 0 -42 -8.5t-34 -17.5l-13 -9l-27 90q7 6 19 15.5t50 25t77 15.5q77 0 125.5 -44.5t36.5 -114.5z" />
    <glyph glyph-name="four" unicode="4" horiz-adv-x="525" 
d="M420 140h70l-19 -111h-71l-41 -232h-143l41 232h-190l-32 111l271 340h174zM277 140l34 193l-150 -193h116z" />
    <glyph glyph-name="five" unicode="5" horiz-adv-x="462" 
d="M407 369h-176l-31 -137q26 7 52 7q68 0 107.5 -46t26.5 -116q-11 -62 -53 -114t-94.5 -82.5t-103 -52t-85.5 -29.5l-34 -8l-31 104q10 3 26 8.5t58 23t75 36.5t63 48t35 58q5 26 -9.5 42.5t-45.5 16.5q-21 0 -42.5 -4t-32.5 -8l-11 -3l-59 71l68 296h317z" />
    <glyph glyph-name="six" unicode="6" horiz-adv-x="502" 
d="M295 399q83 0 133.5 -57t34.5 -146q-16 -91 -84.5 -146.5t-150.5 -55.5q-98 0 -152.5 61t-35.5 172q12 67 38 128t59 104.5t70 81.5t71.5 62t62.5 41.5t45 25.5l17 7l33 -111q-5 -2 -13.5 -6.5t-34.5 -20t-50 -34t-54.5 -49.5t-54.5 -66q30 9 66 9zM320 196q7 43 -8 67.5
t-47 24.5q-33 0 -57 -24.5t-31 -67.5t8 -67.5t48 -24.5q32 0 56 24.5t31 67.5z" />
    <glyph glyph-name="seven" unicode="7" horiz-adv-x="447" 
d="M412 480l-19 -112l-22 -26t-52.5 -74t-71 -119t-67.5 -158t-52 -194h-143q18 104 53 201.5t71 161.5t69.5 113.5t55.5 72.5l21 22h-216l20 112h353z" />
    <glyph glyph-name="eight" unicode="8" horiz-adv-x="556" 
d="M518 495q-16 -93 -113 -142q90 -54 70 -166q-12 -65 -53 -110.5t-90 -64t-101 -18.5q-85 0 -146.5 49t-45.5 144q21 118 130 171q-81 49 -65 137q15 82 80.5 132t149.5 50q86 0 142 -50.5t42 -131.5zM334 202q9 46 -7 71.5t-50 25.5t-59 -25.5t-33 -71.5t7.5 -72
t49.5 -26t59 26t33 72zM374 488q7 35 -7.5 56.5t-42.5 21.5q-29 0 -50.5 -21t-27.5 -57q-7 -35 7.5 -56.5t42.5 -21.5q29 0 50.5 21t27.5 57z" />
    <glyph glyph-name="nine" unicode="9" horiz-adv-x="506" 
d="M280 486q43 0 80 -15t65 -44.5t39.5 -79.5t0.5 -113q-13 -72 -40 -136t-59.5 -107.5t-69.5 -79.5t-71 -57.5t-62 -36.5t-45 -21l-16 -5l-33 110q12 3 31 11t69 42t87 81q-22 -6 -46 -6q-85 0 -136 64.5t-34 164.5q19 108 88 168t152 60zM326 258q10 55 -4 86t-47 31
t-57.5 -31t-34.5 -86q-10 -56 4 -87t47 -31t57.5 31t34.5 87z" />
    <glyph glyph-name="colon" unicode=":" horiz-adv-x="304" 
d="M35 0l26 150h150l-26 -150h-150zM119 479h150l-26 -150h-150z" />
    <glyph glyph-name="semicolon" unicode=";" horiz-adv-x="355" 
d="M-25 -170l133 300h150l-178 -300h-105zM170 479h150l-27 -150h-150z" />
    <glyph glyph-name="less" unicode="&#x3c;" horiz-adv-x="439" 
d="M394 405l-199 -164l142 -164l-69 -106l-223 270l318 271z" />
    <glyph glyph-name="equal" unicode="=" horiz-adv-x="358" 
d="M35 63l19 111h241l-20 -111h-240zM83 333h240l-20 -110h-240z" />
    <glyph glyph-name="greater" unicode="&#x3e;" horiz-adv-x="439" 
d="M172 512l222 -271l-318 -270l-31 106l200 164l-142 164z" />
    <glyph glyph-name="question" unicode="?" horiz-adv-x="458" 
d="M67 0l27 150h150l-27 -150h-150zM253 683q74 0 118.5 -36t34.5 -92q-7 -40 -41 -76t-71 -58t-69 -47t-36 -44q-2 -13 8.5 -20t26.5 -7q20 0 38.5 5.5t27.5 11.5l9 5l24 -79q-5 -6 -15 -15t-45 -24t-75 -15q-60 0 -103 36t-33 90q7 43 41.5 80t71 57.5t68.5 44t35 42.5
q2 13 -8.5 21.5t-33.5 8.5q-22 0 -46 -7t-36 -14l-13 -7l-25 85q7 6 20 15t51.5 24t75.5 15z" />
    <glyph glyph-name="at" unicode="@" horiz-adv-x="799" 
d="M460 597q94 0 165.5 -49t102.5 -128t16 -167q-17 -97 -55 -145.5t-104 -48.5q-30 0 -53.5 7t-36.5 17.5t-22 20.5t-11 17l-3 7q-1 -3 -3 -7.5t-11.5 -16.5t-21.5 -21t-34 -16.5t-48 -7.5q-60 0 -101.5 53.5t-26.5 140.5q16 95 78.5 144.5t143.5 49.5q40 0 79 -12t58 -24
l20 -12l-26 -146l-8 -44q-8 -47 7.5 -76t39.5 -29q67 0 94 149q22 125 -48.5 215.5t-198.5 90.5q-127 0 -228 -89t-124 -217q-22 -123 51.5 -214.5t193.5 -91.5q33 0 71.5 7t60.5 14l22 7l16 -35q-78 -32 -177 -32q-61 0 -118 27t-97.5 72.5t-60 110.5t-7.5 135
q26 151 140.5 247.5t264.5 96.5zM436 253l14 78q-10 16 -31 16q-25 0 -46.5 -27.5t-28.5 -66.5q-17 -94 29 -94t63 94z" />
    <glyph glyph-name="A" unicode="A" horiz-adv-x="552" 
d="M485 677l32 -677h-154l-3 118h-145l-45 -118h-145l271 677h189zM260 234h96l-7 235z" />
    <glyph glyph-name="B" unicode="B" horiz-adv-x="537" 
d="M518 494q-8 -42 -30.5 -75t-41.5 -45l-18 -12l8 -5.5t19.5 -17t21 -31t13.5 -46.5t-2 -64q-17 -98 -78 -148t-141 -50h-244l119 677h202q40 0 73 -10t59.5 -30.5t37.5 -57t2 -85.5zM340 207q16 90 -58 90h-55l-32 -181h55q74 0 90 91zM366 487q13 74 -60 74h-32l-26 -148
h32q74 0 86 74z" />
    <glyph glyph-name="C" unicode="C" horiz-adv-x="462" 
d="M346 683q51 0 88.5 -15.5t49.5 -31.5l13 -15l-62 -95q-3 5 -8.5 11.5t-26 18t-44.5 11.5q-119 0 -159 -229q-21 -118 5.5 -173t85.5 -55q23 0 44 8.5t30 17.5l10 9l27 -94q-4 -6 -13 -15.5t-45 -25.5t-81 -16q-51 0 -95.5 19t-78 58t-45.5 98.5t1 140.5l10 57
q30 169 105.5 242.5t188.5 73.5z" />
    <glyph glyph-name="D" unicode="D" horiz-adv-x="553" 
d="M369 677q86 0 131.5 -75.5t17.5 -234.5l-10 -57q-28 -161 -93 -235.5t-150 -74.5h-240l119 677h225zM366 356q18 115 4.5 160t-56.5 45h-40l-79 -445h39q44 0 75.5 47.5t50.5 157.5z" />
    <glyph glyph-name="E" unicode="E" horiz-adv-x="411" 
d="M426 561h-152l-28 -155h115l-20 -117h-115l-31 -173h152l-20 -116h-302l119 677h302z" />
    <glyph glyph-name="F" unicode="F" horiz-adv-x="445" 
d="M450 561h-176l-31 -177h146l-21 -116h-146l-47 -268h-150l119 677h326z" />
    <glyph glyph-name="G" unicode="G" horiz-adv-x="528" 
d="M258 293l21 117h210l-48 -271q-2 -6 -7 -15.5t-23 -34.5t-40.5 -44.5t-62 -35t-85.5 -15.5q-101 0 -158.5 80.5t-30.5 235.5l10 57q27 151 112 233.5t193 82.5q49 0 87.5 -14t52.5 -28l14 -14l-59 -91q-29 31 -84 31q-59 0 -103.5 -50.5t-64.5 -160.5l-6 -35
q-17 -106 -4 -158.5t51 -52.5q16 0 31 9.5t22 18.5l7 10l26 145h-61z" />
    <glyph glyph-name="H" unicode="H" horiz-adv-x="533" 
d="M418 677h150l-119 -677h-150l50 286h-124l-50 -286h-150l119 677h150l-48 -275h124z" />
    <glyph glyph-name="I" unicode="I" horiz-adv-x="259" 
d="M144 677h150l-119 -677h-150z" />
    <glyph glyph-name="J" unicode="J" horiz-adv-x="492" 
d="M317 677h150l-82 -465q-39 -218 -216 -218q-42 0 -78 11t-51 23l-15 11l65 100q26 -29 70 -29q30 0 48 28t31 96z" />
    <glyph glyph-name="K" unicode="K" horiz-adv-x="571" 
d="M586 677l-172 -234l59 -443h-157l-35 261l-79 -107l-27 -154h-150l119 677h150l-43 -245l180 245h155z" />
    <glyph glyph-name="L" unicode="L" horiz-adv-x="390" 
d="M195 116h150l-20 -116h-300l119 677h150z" />
    <glyph glyph-name="M" unicode="M" horiz-adv-x="699" 
d="M511 677h188l-75 -677h-145l47 389l-142 -395h-122l-2 389l-89 -383h-136l164 677h187l3 -334z" />
    <glyph glyph-name="N" unicode="N" horiz-adv-x="581" 
d="M436 677h145l-120 -683h-146l-89 320l-55 -314h-146l119 677h146l89 -320z" />
    <glyph glyph-name="O" unicode="O" horiz-adv-x="527" 
d="M322 683q102 0 155.5 -76t24.5 -240l-10 -57q-29 -166 -102 -241t-173 -75q-48 0 -85.5 16.5t-66.5 53.5t-36 97.5t6 148.5l10 57q30 166 104 241t173 75zM350 356q18 110 7 160.5t-48 50.5q-78 0 -116 -211l-6 -35q-36 -211 42 -211q37 0 67 52.5t48 158.5z" />
    <glyph glyph-name="P" unicode="P" horiz-adv-x="520" 
d="M382 677q80 0 127.5 -56t30.5 -154t-77.5 -153.5t-133.5 -55.5h-99l-45 -258h-150l119 677h228zM390 467q16 94 -64 94h-42l-33 -187h42q80 0 97 93z" />
    <glyph glyph-name="Q" unicode="Q" horiz-adv-x="527" 
d="M322 683q102 0 155.5 -76t24.5 -240l-10 -57q-45 -257 -202 -305q6 -45 51 -45l-21 -116h-12q-78 0 -126.5 42.5t-44.5 121.5q-144 57 -102 302l10 57q30 166 104 241t173 75zM350 356q18 110 7 160.5t-48 50.5q-78 0 -116 -211l-6 -35q-36 -211 42 -211q37 0 67 52.5
t48 158.5z" />
    <glyph glyph-name="R" unicode="R" horiz-adv-x="530" 
d="M375 677q80 0 124 -53t26 -151q-23 -139 -120 -185l39 -288h-146l-36 268h-40l-47 -268h-150l119 677h231zM375 473q17 88 -45 88h-56l-31 -177h56q61 0 76 89z" />
    <glyph glyph-name="S" unicode="S" horiz-adv-x="495" 
d="M338 567q-34 0 -54.5 -15t-25.5 -40q-5 -26 12 -57.5t43.5 -64l52.5 -67.5t41 -79t7 -87q-14 -81 -72.5 -122t-141.5 -41q-56 0 -102 15t-64 30l-19 15l65 100q5 -5 14 -12.5t38.5 -19.5t59.5 -12q64 0 74 59q4 24 -13 55t-43 63.5l-52 68t-40.5 81t-6.5 90.5
q13 73 75.5 114.5t139.5 41.5q51 0 91 -13.5t54 -27.5l14 -13l-59 -90q-33 28 -88 28z" />
    <glyph glyph-name="T" unicode="T" horiz-adv-x="405" 
d="M45 677h375l-20 -116h-113l-98 -561h-150l98 561h-112z" />
    <glyph glyph-name="U" unicode="U" horiz-adv-x="509" 
d="M384 677h150l-82 -465q-20 -111 -84.5 -164.5t-155.5 -53.5q-43 0 -79 12.5t-63.5 37.5t-38.5 68.5t-1 99.5l81 465h150l-70 -398q-15 -92 -7.5 -130.5t39.5 -38.5t53.5 39t37.5 130z" />
    <glyph glyph-name="V" unicode="V" horiz-adv-x="546" 
d="M380 677h141l-277 -677h-181l-38 677h149l19 -478z" />
    <glyph glyph-name="W" unicode="W" horiz-adv-x="688" 
d="M593 677h140l-242 -677h-178l-1 297l-106 -297h-177l-4 677h148l-5 -430l143 430h136h9l-9 -430z" />
    <glyph glyph-name="X" unicode="X" horiz-adv-x="612" 
d="M587 677l-189 -342l67 -335h-150l-37 183l-97 -183h-156l191 345l-66 332h150l36 -180l95 180h156z" />
    <glyph glyph-name="Y" unicode="Y" horiz-adv-x="476" 
d="M355 677h156l-246 -443l-41 -234h-150l41 231l-90 446h160l44 -237z" />
    <glyph glyph-name="Z" unicode="Z" horiz-adv-x="497" 
d="M472 677l-21 -122l-249 -439h171l-20 -116h-328l21 122l250 439h-169l20 116h325z" />
    <glyph glyph-name="bracketleft" unicode="[" horiz-adv-x="485" 
d="M430 566h-117l-116 -658h117l-19 -111h-260l155 880h260z" />
    <glyph glyph-name="backslash" unicode="\" horiz-adv-x="243" 
d="M163 683l30 -689h-113l-30 689h113z" />
    <glyph glyph-name="bracketright" unicode="]" horiz-adv-x="425" 
d="M130 677h260l-155 -880h-260l19 111h117l117 658h-117z" />
    <glyph glyph-name="asciicircum" unicode="^" horiz-adv-x="365" 
d="M244 649l86 -120h-104l-33 63l-55 -63h-103l128 120h81z" />
    <glyph glyph-name="underscore" unicode="_" horiz-adv-x="377" 
d="M54 104h288l-19 -110h-288z" />
    <glyph glyph-name="grave" unicode="`" horiz-adv-x="240" 
d="M163 648l42 -120h-103l-67 120h128z" />
    <glyph glyph-name="a" unicode="a" horiz-adv-x="541" 
d="M441 155q-4 -23 12 -37t43 -14l-20 -110q-58 0 -98 26t-36 51q-1 -3 -4 -8.5t-14 -18.5t-24.5 -23t-38.5 -18.5t-54 -8.5q-75 0 -123 47t-36 117q10 57 56 94t101.5 50t121.5 13q5 30 -10 42t-47 12q-20 0 -44 -7t-38 -14l-15 -7l-40 85q7 6 21 15t60 24t97 15
q73 0 122.5 -44t35.5 -124zM302 174l9 50q-109 0 -120 -65q-4 -23 10 -39t38 -16q51 0 63 70z" />
    <glyph glyph-name="b" unicode="b" horiz-adv-x="505" 
d="M329 480q70 0 106 -59.5t19 -158.5l-10 -58q-19 -101 -78.5 -155.5t-148.5 -54.5q-83 0 -134 56t-34 154l71 402h-61l18 107h205l-48 -270q34 37 95 37zM309 254q19 115 -36 115q-26 0 -46.5 -29.5t-29.5 -85.5l-6 -34q-10 -58 -0.5 -87t35.5 -29t46.5 30t29.5 86z" />
    <glyph glyph-name="c" unicode="c" horiz-adv-x="458" 
d="M290 480q36 0 67 -11t43 -23l13 -11l-46 -90q-17 24 -60 24q-40 0 -69 -33.5t-41 -98.5q-12 -69 7.5 -101t59.5 -32q14 0 27 4.5t19 9.5l6 4l41 -89q-3 -4 -11 -10.5t-39 -17.5t-71 -11q-36 0 -72.5 15t-65.5 41.5t-43.5 68t-5.5 89.5l10 58q19 106 80 160t151 54z" />
    <glyph glyph-name="d" unicode="d" horiz-adv-x="581" 
d="M437 152q-4 -22 11.5 -35t43.5 -13l-20 -110q-62 0 -103.5 25t-36.5 52l-5.5 -8.5t-15.5 -18.5t-27 -23t-39.5 -18.5t-51.5 -8.5q-32 0 -60.5 12t-52 37.5t-31.5 66.5t1 98l10 58q39 214 190 214q28 0 51.5 -9t33.5 -19l10 -9l29 163h-70l19 107h213zM315 254
q21 115 -34 115q-26 0 -47 -29.5t-30 -85.5l-6 -34q-10 -56 0 -86t37 -30q54 0 74 116z" />
    <glyph glyph-name="e" unicode="e" horiz-adv-x="496" 
d="M294 480q77 0 123.5 -59.5t28.5 -158.5l-15 -84h-245q-7 -36 16.5 -55t68.5 -19q28 0 53.5 7t37.5 15l11 7l38 -81q-5 -6 -16 -16t-53 -26t-94 -16q-88 0 -152 56t-47 154l10 58q19 106 85.5 162t149.5 56zM307 273q18 96 -32 96q-55 0 -72 -96h104z" />
    <glyph glyph-name="f" unicode="f" horiz-adv-x="494" 
d="M325 480h111l-19 -111h-112l-59 -337q-31 -175 -173 -175q-27 0 -49 7.5t-30 15.5l-9 7l41 87q9 -7 25 -7q25 0 39 35t29 122l44 245h-64l20 111h63l4 22q16 88 60 134.5t112 46.5q27 0 49.5 -8.5t32.5 -17.5l9 -9l-41 -88q-9 12 -28 12q-39 0 -53 -83z" />
    <glyph glyph-name="g" unicode="g" horiz-adv-x="582" 
d="M384 474h153l-19 -111h-33l-69 -391q-17 -93 -74 -137t-135 -44q-70 0 -122 48t-37 131h119q-6 -30 7.5 -49.5t36.5 -19.5q49 0 62 71l10 59q-3 -4 -9.5 -10t-29 -16.5t-46.5 -10.5q-65 0 -106.5 55.5t-24.5 154.5l10 58q18 105 67.5 161.5t118.5 56.5q28 0 50.5 -12.5
t30.5 -25.5l9 -12zM331 254q21 115 -33 115q-28 0 -48.5 -30.5t-30.5 -84.5l-6 -34q-9 -52 2 -84t36 -32q54 0 74 116z" />
    <glyph glyph-name="h" unicode="h" horiz-adv-x="563" 
d="M464 152q-4 -25 11.5 -36.5t42.5 -11.5l-19 -110q-85 0 -139.5 35.5t-41.5 108.5l20 112q22 119 -32 119t-74 -119l-44 -250h-143l107 606h-61l18 107h204l-45 -254q38 21 84 21q68 0 110.5 -48t26.5 -139z" />
    <glyph glyph-name="i" unicode="i" horiz-adv-x="351" 
d="M148 685h158l-25 -142h-158zM261 474l-56 -322q-4 -22 12.5 -35t42.5 -13l-20 -110q-89 0 -140 43t-39 111l39 220h-55l19 106h197z" />
    <glyph glyph-name="j" unicode="j" horiz-adv-x="489" 
d="M183 368l18 106h198l-88 -502q-18 -102 -79 -141.5t-187 -39.5l19 110q55 0 76.5 18.5t30.5 66.5l67 382h-55zM286 685h158l-25 -142h-158z" />
    <glyph glyph-name="k" unicode="k" horiz-adv-x="561" 
d="M419 156q9 -52 69 -52l-19 -110q-78 0 -126.5 40t-59.5 104q-2 12 -3 17l-67 -11l-25 -144h-143l107 606h-61l18 107h204l-53 -301q6 7 18 17.5t51 27.5t81 17q50 0 78 -26.5t28 -68.5q0 -109 -105 -173zM367 338q1 11 -5 18t-17 7q-31 0 -60 -31t-42 -62l-13 -31
q5 1 13.5 2.5t30.5 9t39.5 18t33.5 29t20 40.5z" />
    <glyph glyph-name="l" unicode="l" horiz-adv-x="331" 
d="M188 152q-4 -19 14 -33.5t41 -14.5l-20 -110q-87 0 -138 47t-37 128l77 437h-61l18 107h204z" />
    <glyph glyph-name="m" unicode="m" horiz-adv-x="817" 
d="M717 152q-4 -25 11.5 -36.5t43.5 -11.5l-19 -110q-85 0 -139.5 35.5t-41.5 108.5l20 112q20 119 -32 119q-53 0 -75 -119l-44 -250h-143l45 250q20 119 -35 119q-56 0 -76 -119l-44 -250h-143l65 368h-49l19 106h124l24 -51q54 57 132 57q79 0 116 -59q51 59 130 59
q68 0 110 -48t26 -139z" />
    <glyph glyph-name="n" unicode="n" horiz-adv-x="564" 
d="M464 152q-4 -25 11.5 -36.5t43.5 -11.5l-20 -110q-85 0 -139 35.5t-41 108.5l20 112q20 119 -33 119q-54 0 -74 -119l-44 -250h-143l65 368h-49l19 106h124l23 -49q50 55 126 55q68 0 110 -48t26 -139z" />
    <glyph glyph-name="o" unicode="o" horiz-adv-x="512" 
d="M298 480q81 0 131.5 -55.5t32.5 -158.5l-10 -58q-38 -214 -239 -214q-76 0 -128.5 58t-35.5 156l10 58q19 108 83.5 161t155.5 53zM314 237q24 132 -35 132t-82 -132q-24 -133 35 -133t82 133z" />
    <glyph glyph-name="p" unicode="p" horiz-adv-x="568" 
d="M395 480q68 0 104 -57.5t18 -160.5l-10 -58q-38 -210 -174 -210q-28 0 -54 10t-38 20l-12 10l-42 -237h-142l100 566h-49l19 111h149l20 -44q5 6 14 14t38 22t59 14zM373 254q10 57 0.5 86t-35.5 29q-56 0 -76 -115l-6 -34q-10 -56 0 -86t35 -30t45.5 30t30.5 86z" />
    <glyph glyph-name="q" unicode="q" horiz-adv-x="535" 
d="M490 474l-99 -564h54l-20 -113h-197l42 237l-11 -11t-30.5 -18t-47.5 -11q-66 0 -107 55.5t-23 158.5l10 58q19 105 66 159.5t118 54.5q30 0 54 -12.5t33 -25.5l8 -12l23 44h127zM315 254q10 52 0.5 83.5t-36.5 31.5q-57 0 -77 -115l-6 -34q-10 -52 -0.5 -84t36.5 -32
q55 0 77 116z" />
    <glyph glyph-name="r" unicode="r" horiz-adv-x="446" 
d="M325 480q19 0 38 -5t29 -11l9 -5l-51 -109q-14 19 -43 19q-54 0 -70 -90l-49 -279h-143l65 368h-49l19 106h124l17 -36q48 42 104 42z" />
    <glyph glyph-name="s" unicode="s" horiz-adv-x="461" 
d="M243 336q-2 -12 13 -29t37.5 -36.5t44.5 -41.5t35 -52.5t7 -62.5q-9 -53 -53 -86.5t-114 -33.5q-48 0 -90 15t-60 30l-18 15l58 90q38 -34 94 -34q40 0 45 28q2 13 -13 30t-37.5 36t-44.5 41t-35 52t-7 63q10 58 56.5 89t112.5 31q42 0 77.5 -13.5t50.5 -26.5l14 -14
l-55 -85q-26 23 -69 23q-44 0 -49 -28z" />
    <glyph glyph-name="t" unicode="t" horiz-adv-x="413" 
d="M258 369l-31 -175q-7 -42 3 -66t30 -24q14 0 25 5t15 10l3 5l36 -77q-5 -6 -14 -15t-40 -23.5t-65 -14.5q-62 0 -106.5 45t-33.5 113l39 217h-74l19 111h37q28 0 41.5 20.5t23.5 78.5l135 34l-24 -133h91l-20 -111h-90z" />
    <glyph glyph-name="u" unicode="u" horiz-adv-x="552" 
d="M448 152q-4 -26 11.5 -37t47.5 -11l-19 -110q-42 0 -74 13t-44 27l-11 13q-5 -6 -15 -15t-44.5 -23.5t-74.5 -14.5q-72 0 -125 51.5t-38 135.5l32 182h-49l19 111h192l-43 -250q-22 -120 33 -120q26 0 43 26.5t29 93.5l44 250h143z" />
    <glyph glyph-name="v" unicode="v" horiz-adv-x="534" 
d="M331 510q81 0 124.5 -50.5t30.5 -129.5l-26 -146q-34 -190 -222 -190q-76 0 -130.5 50.5t-39.5 136.5l32 182h-55l19 111h198l-19 -111l-24 -139q-22 -120 33 -120q52 0 72 120l23 128q4 22 -6.5 35t-28.5 13z" />
    <glyph glyph-name="w" unicode="w" horiz-adv-x="774" 
d="M571 510q78 0 123 -52t32 -128l-26 -146q-33 -190 -194 -190q-27 0 -50 6.5t-36.5 16t-23.5 19.5t-14 16l-3 7q-2 -3 -6 -7t-18 -15.5t-30.5 -20t-43.5 -15.5t-57 -7q-75 0 -123 54t-34 136l33 184h-55l19 106h197l-44 -250q-11 -67 -4 -93.5t32 -26.5q26 0 42.5 27
t28.5 93l44 250h143l-44 -250q-11 -68 -3 -94t35 -26q52 0 73 120l23 128q4 21 -5.5 34.5t-29.5 13.5z" />
    <glyph glyph-name="x" unicode="x" horiz-adv-x="526" 
d="M345 152q13 -48 66 -48l-19 -110q-60 0 -99.5 21t-63.5 76l-52 -91h-132l140 247l-29 116h-66l19 111h156l26 -103l58 103h132l-150 -265z" />
    <glyph glyph-name="y" unicode="y" horiz-adv-x="542" 
d="M341 510q83 0 125 -49.5t27 -132.5l-62 -356q-16 -93 -72 -137t-136 -44q-75 0 -128 45t-38 134h126q-6 -32 9 -50.5t39 -18.5q26 0 38 16.5t18 54.5l13 70q-29 -22 -88 -22q-64 0 -110 50t-30 138l28 160h-55l19 106h197l-40 -224q-20 -119 37 -119q59 0 79 119l18 102
q9 48 -33 48z" />
    <glyph glyph-name="z" unicode="z" horiz-adv-x="430" 
d="M368 378l-135 -267h113l-19 -111h-282l17 96l135 267h-107l19 111h276z" />
    <glyph glyph-name="braceleft" unicode="{" horiz-adv-x="482" 
d="M327 683q36 0 66 -10.5t42 -20.5l12 -11l-53 -82q-10 8 -40 8q-26 0 -48 -22t-28 -60q-10 -53 -2.5 -101t2.5 -78q-7 -42 -64 -69q47 -28 40 -69q-5 -31 -29.5 -79t-34.5 -101q-6 -38 8 -59.5t39 -21.5q13 0 24 2t15 4l5 2l24 -82q-5 -5 -14 -12t-41.5 -18.5t-68.5 -11.5
q-63 0 -108.5 40t-34.5 104q9 55 36 114t31 83q9 50 -47 50h-21l19 110h21q56 0 65 50q4 24 -1.5 83.5t4.5 113.5q11 64 65.5 104t116.5 40z" />
    <glyph glyph-name="bar" unicode="|" horiz-adv-x="388" 
d="M200 677h143l-155 -880h-143z" />
    <glyph glyph-name="braceright" unicode="}" horiz-adv-x="412" 
d="M308 342q-9 -50 47 -50h20l-19 -110h-21q-56 0 -64 -50q-5 -25 0.5 -83.5t-3.5 -113.5q-12 -65 -64 -104.5t-113 -39.5q-38 0 -69.5 10.5t-43.5 20.5l-13 11l53 82q12 -8 37 -8q27 0 50 21.5t29 59.5q10 53 2.5 101.5t-2.5 78.5q7 42 65 69q-48 27 -41 69q6 30 30.5 77.5
t33.5 101.5q7 38 -9 60t-44 22q-12 0 -21.5 -2t-13.5 -4l-3 -2l-24 82q4 5 13 12t40.5 18.5t68.5 11.5q66 0 111 -40t34 -104q-9 -54 -35.5 -113t-30.5 -84z" />
    <glyph glyph-name="asciitilde" unicode="~" horiz-adv-x="354" 
d="M248 644h71q-9 -49 -33.5 -79.5t-59.5 -30.5q-15 0 -33 5t-31 9.5t-25.5 7.5t-20 -2.5t-10.5 -19.5h-71q9 49 33 79.5t60 30.5q15 0 33 -5t31 -9.5t25.5 -7.5t20 2.5t10.5 19.5z" />
    <glyph glyph-name="uni00A0" unicode="&#xa0;" horiz-adv-x="200" 
 />
    <glyph glyph-name="exclamdown" unicode="&#xa1;" horiz-adv-x="369" 
d="M169 474h150l-26 -150h-150zM71 -86l94 361h89l-33 -361l-21 -117h-150z" />
    <glyph glyph-name="cent" unicode="&#xa2;" horiz-adv-x="409" 
d="M306 595q25 -5 44.5 -15t26.5 -18l7 -7l-53 -83q-17 19 -51 19q-40 0 -69.5 -34.5t-41.5 -100.5q-11 -66 12 -100.5t65 -34.5q16 0 28 3.5t16 7.5l4 4l25 -88q-29 -30 -98 -34l-14 -78h-97l17 96q-54 26 -82.5 82.5t-13.5 141.5q17 100 64.5 160t112.5 77l15 84h98z" />
    <glyph glyph-name="sterling" unicode="&#xa3;" horiz-adv-x="514" 
d="M351 683q40 0 74.5 -15.5t48.5 -31.5l15 -15l-52 -80q-24 34 -72 34q-33 0 -57 -20.5t-30 -52.5q-2 -12 -2.5 -22t1.5 -23.5t3 -18.5t6 -23t5 -20h137l-17 -100h-108q-2 -20 -4 -29q-13 -80 -54 -140q8 -3 24 -10t30 -11t30 -4q22 0 44.5 7.5t33.5 15.5l11 8l-19 -108
q-39 -30 -89 -30q-25 0 -60.5 15t-60.5 15q-24 0 -78 -12t-86 -12l19 107q90 0 117 159q2 9 4 29h-79l18 100h51q-18 89 -11 127q14 79 69 120t138 41z" />
    <glyph glyph-name="currency" unicode="&#xa4;" horiz-adv-x="477" 
d="M432 635l-44 -42q13 -36 6 -76q-7 -44 -31 -80l28 -39l-87 -66l-26 36q-27 -12 -58 -12q-37 0 -68 17l-44 -41l-63 66l45 42q-14 35 -7 77q7 41 32 79l-28 39l86 67l26 -37q29 12 60 12q35 0 67 -16l43 41zM283 517q5 26 -5 41.5t-29 15.5t-35 -15.5t-20 -41.5
q-5 -26 5 -42t29 -16q20 0 35.5 15.5t19.5 42.5z" />
    <glyph glyph-name="yen" unicode="&#xa5;" horiz-adv-x="556" 
d="M531 677l-178 -336h86l-18 -100h-117l-6 -33h117l-17 -100h-118l-19 -108h-138l19 108h-117l18 100h117l6 33h-118l18 100h82l-61 336h149l40 -236l123 236h132z" />
    <glyph glyph-name="brokenbar" unicode="&#xa6;" horiz-adv-x="388" 
d="M200 677h143l-68 -386h-143zM45 -203l68 386h143l-68 -386h-143z" />
    <glyph glyph-name="section" unicode="&#xa7;" horiz-adv-x="515" 
d="M267 546q-3 -15 18 -31t52 -32t61.5 -35.5t49.5 -48.5t13 -63q-13 -71 -114 -101q64 -52 54 -113q-11 -60 -63.5 -94t-125.5 -34q-51 0 -92.5 15t-57.5 30l-17 15l60 94q4 -5 11.5 -12.5t34 -20.5t55.5 -13q52 0 59 32q3 19 -18.5 38t-53.5 37.5t-64 39.5t-51 52t-13 67
q11 67 105 91q-49 44 -39 101q11 64 65.5 93.5t133.5 29.5q36 0 71 -13.5t52 -27.5l17 -13l-58 -90q-30 36 -81 36q-59 0 -64 -29zM323 338q1 10 -2.5 18t-17 18t-21 14.5l-29.5 17.5q-46 -14 -51 -41q-3 -19 14 -36.5t52 -39.5q50 22 55 49z" />
    <glyph glyph-name="dieresis" unicode="&#xa8;" horiz-adv-x="386" 
d="M35 529l21 120h120l-21 -120h-120zM231 649h120l-21 -120h-120z" />
    <glyph glyph-name="copyright" unicode="&#xa9;" horiz-adv-x="806" 
d="M436 530q31 0 55.5 -9.5t33.5 -19.5l9 -10l-39 -61q-16 20 -51 20q-31 0 -58 -27.5t-37 -84.5q-10 -56 9 -83.5t51 -27.5q14 0 27 3.5t19 7.5l6 4l18 -62q-31 -34 -92 -34q-70 0 -114 51.5t-28 140.5q16 91 69.5 141.5t121.5 50.5zM457 683q143 0 225.5 -101t57.5 -244
q-25 -142 -143.5 -243t-261.5 -101q-142 0 -225.5 100.5t-58.5 243.5q26 143 144.5 244t261.5 101zM696 346q10 62 -3 117q-14 55 -47 92q-69 83 -189 83q-61 0 -123 -24q-59 -24 -110 -66q-51 -44 -83 -99q-34 -55 -45 -118q-12 -61 3 -117q12 -52 46 -92q69 -83 190 -83
q61 0 123 24q57 22 109 66q50 43 84 98q34 57 45 119z" />
    <glyph glyph-name="ordfeminine" unicode="&#xaa;" horiz-adv-x="523" 
d="M306 671q51 0 94 -17t69 -56.5t16 -94.5l-58 -330h-125l-10 44q-3 -6 -9.5 -14t-33 -22t-60.5 -14q-62 0 -103.5 43.5t-28.5 117.5q10 59 56.5 98.5t104 55t124.5 15.5q5 29 -14.5 46t-60.5 17q-23 0 -48.5 -7t-39.5 -14l-14 -7l-25 85q7 6 21 15t57.5 24t87.5 15z
M315 347l11 59q-51 0 -85 -17.5t-40 -53.5q-5 -23 8.5 -40t37.5 -17q26 0 44 17t24 52zM35 -6l19 110h324l-20 -110h-323z" />
    <glyph glyph-name="guillemotleft" unicode="&#xab;" horiz-adv-x="541" 
d="M496 376l-132 -135l85 -135l-99 -69l-104 166l14 77l162 165zM295 376l-132 -135l85 -135l-99 -69l-104 166l14 77l162 165z" />
    <glyph glyph-name="logicalnot" unicode="&#xac;" horiz-adv-x="434" 
d="M54 295h345l-32 -180h-111l12 70h-233z" />
    <glyph glyph-name="uni00AD" unicode="&#xad;" horiz-adv-x="200" 
 />
    <glyph glyph-name="registered" unicode="&#xae;" horiz-adv-x="524" 
d="M283 583q33 0 51 -17.5t13 -47.5q-3 -17 -12.5 -31.5t-17.5 -20.5l-8 -5l12 -87h-56l-11 79h-18l-14 -79h-59l37 209h83zM289 518q3 23 -21 23h-17l-8 -45h17q25 0 29 22zM291 683q85 0 134.5 -60t34.5 -145t-86 -145t-156 -60t-134.5 60t-34.5 145t86 145t156 60z
M425 484q12 70 -28 117q-39 47 -106 47q-34 0 -70 -14t-63 -38q-28 -23 -49 -56q-19 -32 -25 -68q-12 -69 27 -118q40 -46 107 -46q37 0 70 13t63 38q32 28 48 57q20 32 26 68z" />
    <glyph glyph-name="macron" unicode="&#xaf;" horiz-adv-x="296" 
d="M51 625h210l-16 -90h-210z" />
    <glyph glyph-name="degree" unicode="&#xb0;" horiz-adv-x="380" 
d="M209 683q66 0 104.5 -42.5t28.5 -103.5q-11 -62 -59.5 -104t-112.5 -42q-65 0 -103.5 42.5t-28.5 103.5q11 63 59 104.5t112 41.5zM247 537q5 27 -8 43.5t-39 16.5q-25 0 -43.5 -17t-23.5 -43t8 -42.5t38 -16.5q26 0 44.5 16.5t23.5 42.5z" />
    <glyph glyph-name="plusminus" unicode="&#xb1;" horiz-adv-x="408" 
d="M281 361h92l-20 -110h-91l-16 -92h-111l16 92h-91l19 110h92l16 92h111zM35 0l19 110h255l-19 -110h-255z" />
    <glyph glyph-name="twosuperior" unicode="&#xb2;" horiz-adv-x="307" 
d="M280 576q-8 -47 -40 -92.5t-60 -67.5l-28 -22h93l-14 -77h-174l-32 62q6 4 15.5 11.5t35.5 30t46.5 44t39.5 50.5t23 53q2 14 -5.5 24t-23.5 10q-12 0 -24 -5.5t-18 -10.5l-7 -6l-19 65q43 35 93 35q52 0 79.5 -30.5t19.5 -73.5z" />
    <glyph glyph-name="threesuperior" unicode="&#xb3;" horiz-adv-x="296" 
d="M269 578q-4 -21 -16 -39.5t-21 -26.5l-10 -7q4 -3 9.5 -9.5t12 -28t2.5 -46.5q-9 -50 -42 -78.5t-83 -28.5q-28 0 -52 9t-34 17l-10 9l42 65q16 -23 46 -23q34 0 40 37q3 17 -3.5 28t-18.5 11h-38l14 77h30q31 0 37 31q4 27 -23 27q-12 0 -24 -6t-19 -12l-6 -5l-19 65
q39 36 89 36q48 0 76 -28.5t21 -73.5z" />
    <glyph glyph-name="acute" unicode="&#xb4;" horiz-adv-x="282" 
d="M119 648h128l-109 -120h-103z" />
    <glyph glyph-name="mu" unicode="&#xb5;" horiz-adv-x="601" 
d="M413 474h143l-84 -474h-127l-8 44q-2 -6 -6 -14t-21 -22t-40 -14q-15 0 -26 4.5t-14 9.5l-4 4l-38 -215h-143l119 677h143l-42 -238q-24 -132 30 -132q52 0 76 132z" />
    <glyph glyph-name="paragraph" unicode="&#xb6;" horiz-adv-x="662" 
d="M269 677h216l-155 -880h-150l87 489h-67q-72 0 -111.5 52.5t-23.5 143.5q16 92 71.5 143.5t132.5 51.5zM527 677h75l-155 -880h-75z" />
    <glyph glyph-name="periodcentered" unicode="&#xb7;" horiz-adv-x="266" 
d="M71 413h150l-26 -150h-150z" />
    <glyph glyph-name="cedilla" unicode="&#xb8;" horiz-adv-x="325" 
d="M192 -48q47 0 74.5 -21.5t21.5 -58.5q-6 -38 -44.5 -59.5t-91.5 -21.5q-36 0 -65 6.5t-41 12.5l-11 7l32 49q33 -16 68 -16q41 0 46 27q2 12 -6.5 19t-23.5 7q-11 0 -21 -2.5t-14 -4.5l-4 -2h-57l55 85h57l-21 -33q20 6 46 6z" />
    <glyph glyph-name="onesuperior" unicode="&#xb9;" horiz-adv-x="208" 
d="M51 647l132 33l-64 -363h-94l46 260l-34 -8z" />
    <glyph glyph-name="ordmasculine" unicode="&#xba;" horiz-adv-x="539" 
d="M318 671q86 0 138 -57.5t32 -165.5l-10 -58q-19 -110 -84.5 -166.5t-149.5 -56.5q-86 0 -137 57.5t-32 165.5l10 58q19 110 84 166.5t149 56.5zM340 419q26 141 -34 141q-59 0 -83 -141q-25 -141 34 -141t83 141zM45 -6l19 110h324l-20 -110h-323z" />
    <glyph glyph-name="guillemotright" unicode="&#xbb;" horiz-adv-x="541" 
d="M295 280l-13 -77l-163 -166l-74 69l132 135l-84 135l98 69zM392 445l104 -165l-13 -77l-163 -166l-74 69l132 135l-84 135z" />
    <glyph glyph-name="onequarter" unicode="&#xbc;" horiz-adv-x="625" 
d="M565 360l-35 -197h33l-14 -77h-33l-15 -86h-94l15 86h-112l12 70l138 204h105zM439 153l15 85l-52 -85h37zM168 317h-95l46 260l-33 -8l13 78l133 33zM413 677h117l-353 -677h-117z" />
    <glyph glyph-name="onehalf" unicode="&#xbd;" horiz-adv-x="653" 
d="M591 259q-5 -30 -20.5 -59.5t-33 -50.5t-34.5 -38t-29 -25l-11 -9h92l-14 -77h-173l-33 63q6 4 16 11.5t35.5 29.5t46 43.5t39.5 50.5t23 53q2 14 -5.5 24.5t-22.5 10.5q-12 0 -24.5 -5.5t-18.5 -10.5l-7 -6l-19 64q39 35 93 35q49 0 78 -31t22 -73zM168 317h-95l46 260
l-33 -8l13 78l133 33zM413 677h117l-353 -677h-117z" />
    <glyph glyph-name="threequarters" unicode="&#xbe;" horiz-adv-x="685" 
d="M625 360l-34 -197h32l-13 -77h-33l-15 -86h-94l15 86h-113l13 70l137 204h105zM500 153l15 85l-52 -85h37zM281 421q-9 -50 -43.5 -78.5t-83.5 -28.5q-28 0 -51.5 9t-32.5 17l-10 9l42 65q16 -23 46 -23q34 0 40 37q3 17 -3.5 28t-18.5 11h-38l14 77h30q31 0 37 31
q4 27 -23 27q-12 0 -24 -6t-18 -12l-7 -5l-19 65q34 36 90 36q47 0 75 -28.5t21 -73.5q-4 -21 -16 -39.5t-22 -26.5l-9 -7q4 -3 9.5 -9.5t12 -28t2.5 -46.5zM474 677h117l-353 -677h-117z" />
    <glyph glyph-name="questiondown" unicode="&#xbf;" horiz-adv-x="449" 
d="M391 474l-27 -150h-150l27 150h150zM273 282q62 0 102.5 -36t31.5 -90q-7 -43 -41.5 -80t-71.5 -57.5t-68.5 -44t-35.5 -42.5q-2 -13 9.5 -22t36.5 -9q22 0 45 7t35 14l11 7l25 -84q-6 -6 -17 -15t-50.5 -24t-84.5 -15q-65 0 -111 37t-37 91q7 40 41 76t71 57.5t69 46.5
t36 44q4 28 -40 28q-20 0 -37.5 -5.5t-25.5 -11.5l-7 -5l-23 78q6 6 16.5 15t46 24.5t74.5 15.5z" />
    <glyph glyph-name="Agrave" unicode="&#xc0;" horiz-adv-x="552" 
d="M485 677l32 -677h-154l-3 118h-145l-45 -118h-145l271 677h189zM260 234h96l-7 235zM408 848l42 -120h-103l-67 120h128z" />
    <glyph glyph-name="Aacute" unicode="&#xc1;" horiz-adv-x="552" 
d="M485 677l32 -677h-154l-3 118h-145l-45 -118h-145l271 677h189zM260 234h96l-7 235zM406 848h128l-109 -120h-103z" />
    <glyph glyph-name="Acircumflex" unicode="&#xc2;" horiz-adv-x="552" 
d="M485 677l32 -677h-154l-3 118h-145l-45 -118h-145l271 677h189zM260 234h96l-7 235zM453 849l86 -120h-104l-33 63l-55 -63h-103l128 120h81z" />
    <glyph glyph-name="Atilde" unicode="&#xc3;" horiz-adv-x="552" 
d="M485 677l32 -677h-154l-3 118h-145l-45 -118h-145l271 677h189zM260 234h96l-7 235zM465 844h71q-9 -49 -33.5 -79.5t-59.5 -30.5q-15 0 -33 5t-31 9.5t-25.5 7.5t-20 -2.5t-10.5 -19.5h-71q9 49 33 79.5t60 30.5q15 0 33 -5t31 -9.5t25.5 -7.5t20 2.5t10.5 19.5z" />
    <glyph glyph-name="Adieresis" unicode="&#xc4;" horiz-adv-x="552" 
d="M485 677l32 -677h-154l-3 118h-145l-45 -118h-145l271 677h189zM260 234h96l-7 235zM243 729l21 120h120l-21 -120h-120zM439 849h120l-21 -120h-120z" />
    <glyph glyph-name="Aring" unicode="&#xc5;" horiz-adv-x="552" 
d="M485 677l32 -677h-154l-3 118h-145l-45 -118h-145l271 677h189zM260 234h96l-7 235zM416 900q45 0 73.5 -29.5t20.5 -75.5q-8 -47 -42.5 -76t-78.5 -29q-45 0 -73.5 29.5t-19.5 75.5q8 47 42.5 76t77.5 29zM432 795q2 15 -4 25t-19 10q-14 0 -23.5 -10t-11.5 -25
q-3 -15 3 -25t20 -10q13 0 22.5 10t12.5 25z" />
    <glyph glyph-name="AE" unicode="&#xc6;" horiz-adv-x="740" 
d="M714 561h-152l-27 -155h115l-21 -117h-115l-30 -173h152l-21 -116h-302l22 124h-104l-55 -124h-151l310 677h400zM355 234l50 286l-126 -286h76z" />
    <glyph glyph-name="Ccedilla" unicode="&#xc7;" horiz-adv-x="462" 
d="M346 683q51 0 88.5 -15.5t49.5 -31.5l13 -15l-62 -95q-3 5 -8.5 11.5t-26 18t-44.5 11.5q-119 0 -159 -229q-21 -118 5.5 -173t85.5 -55q23 0 44 8.5t30 17.5l10 9l27 -94q-4 -6 -13 -15.5t-45 -25.5t-81 -16q-51 0 -95.5 19t-78 58t-45.5 98.5t1 140.5l10 57
q30 169 105.5 242.5t188.5 73.5zM240 -48q47 0 74.5 -21.5t21.5 -58.5q-6 -38 -44.5 -59.5t-91.5 -21.5q-36 0 -65 6.5t-41 12.5l-11 7l32 49q33 -16 68 -16q41 0 46 27q2 12 -6.5 19t-23.5 7q-11 0 -21 -2.5t-14 -4.5l-4 -2h-57l55 85h57l-21 -33q19 6 46 6z" />
    <glyph glyph-name="Egrave" unicode="&#xc8;" horiz-adv-x="411" 
d="M426 561h-152l-28 -155h115l-20 -117h-115l-31 -173h152l-20 -116h-302l119 677h302zM319 848l42 -120h-103l-67 120h128z" />
    <glyph glyph-name="Eacute" unicode="&#xc9;" horiz-adv-x="411" 
d="M426 561h-152l-28 -155h115l-20 -117h-115l-31 -173h152l-20 -116h-302l119 677h302zM310 848h128l-109 -120h-103z" />
    <glyph glyph-name="Ecircumflex" unicode="&#xca;" horiz-adv-x="411" 
d="M426 561h-152l-28 -155h115l-20 -117h-115l-31 -173h152l-20 -116h-302l119 677h302zM364 849l86 -120h-104l-33 63l-55 -63h-103l128 120h81z" />
    <glyph glyph-name="Edieresis" unicode="&#xcb;" horiz-adv-x="411" 
d="M426 561h-152l-28 -155h115l-20 -117h-115l-31 -173h152l-20 -116h-302l119 677h302zM154 729l21 120h120l-21 -120h-120zM350 849h120l-21 -120h-120z" />
    <glyph glyph-name="Igrave" unicode="&#xcc;" horiz-adv-x="259" 
d="M144 677h150l-119 -677h-150zM229 848l42 -120h-103l-67 120h128z" />
    <glyph glyph-name="Iacute" unicode="&#xcd;" horiz-adv-x="259" 
d="M144 677h150l-119 -677h-150zM246 848h128l-109 -120h-103z" />
    <glyph glyph-name="Icircumflex" unicode="&#xce;" horiz-adv-x="259" 
d="M144 677h150l-119 -677h-150zM286 849l86 -120h-104l-33 63l-55 -63h-103l128 120h81z" />
    <glyph glyph-name="Idieresis" unicode="&#xcf;" horiz-adv-x="259" 
d="M144 677h150l-119 -677h-150zM84 729l21 120h120l-21 -120h-120zM280 849h120l-21 -120h-120z" />
    <glyph glyph-name="Eth" unicode="&#xd0;" horiz-adv-x="553" 
d="M369 677q86 0 131.5 -75.5t17.5 -234.5l-10 -57q-28 -161 -93 -235.5t-150 -74.5h-240l50 286h-45l20 116h46l48 275h225zM366 356q18 115 4.5 160t-56.5 45h-40l-28 -159h64l-20 -116h-65l-30 -170h39q44 0 75.5 47.5t50.5 157.5z" />
    <glyph glyph-name="Ntilde" unicode="&#xd1;" horiz-adv-x="581" 
d="M436 677h145l-120 -683h-146l-89 320l-55 -314h-146l119 677h146l89 -320zM454 844h71q-9 -49 -33.5 -79.5t-59.5 -30.5q-15 0 -33 5t-31 9.5t-25.5 7.5t-20 -2.5t-10.5 -19.5h-71q9 49 33 79.5t60 30.5q15 0 33 -5t31 -9.5t25.5 -7.5t20 2.5t10.5 19.5z" />
    <glyph glyph-name="Ograve" unicode="&#xd2;" horiz-adv-x="527" 
d="M322 683q102 0 155.5 -76t24.5 -240l-10 -57q-29 -166 -102 -241t-173 -75q-48 0 -85.5 16.5t-66.5 53.5t-36 97.5t6 148.5l10 57q30 166 104 241t173 75zM350 356q18 110 7 160.5t-48 50.5q-78 0 -116 -211l-6 -35q-36 -211 42 -211q37 0 67 52.5t48 158.5zM345 848
l42 -120h-103l-67 120h128z" />
    <glyph glyph-name="Oacute" unicode="&#xd3;" horiz-adv-x="527" 
d="M322 683q102 0 155.5 -76t24.5 -240l-10 -57q-29 -166 -102 -241t-173 -75q-48 0 -85.5 16.5t-66.5 53.5t-36 97.5t6 148.5l10 57q30 166 104 241t173 75zM350 356q18 110 7 160.5t-48 50.5q-78 0 -116 -211l-6 -35q-36 -211 42 -211q37 0 67 52.5t48 158.5zM334 848h128
l-109 -120h-103z" />
    <glyph glyph-name="Ocircumflex" unicode="&#xd4;" horiz-adv-x="527" 
d="M322 683q102 0 155.5 -76t24.5 -240l-10 -57q-29 -166 -102 -241t-173 -75q-48 0 -85.5 16.5t-66.5 53.5t-36 97.5t6 148.5l10 57q30 166 104 241t173 75zM350 356q18 110 7 160.5t-48 50.5q-78 0 -116 -211l-6 -35q-36 -211 42 -211q37 0 67 52.5t48 158.5zM388 849
l86 -120h-104l-33 63l-55 -63h-103l128 120h81z" />
    <glyph glyph-name="Otilde" unicode="&#xd5;" horiz-adv-x="527" 
d="M322 683q102 0 155.5 -76t24.5 -240l-10 -57q-29 -166 -102 -241t-173 -75q-48 0 -85.5 16.5t-66.5 53.5t-36 97.5t6 148.5l10 57q30 166 104 241t173 75zM350 356q18 110 7 160.5t-48 50.5q-78 0 -116 -211l-6 -35q-36 -211 42 -211q37 0 67 52.5t48 158.5zM408 844h71
q-9 -49 -33.5 -79.5t-59.5 -30.5q-15 0 -33 5t-31 9.5t-25.5 7.5t-20 -2.5t-10.5 -19.5h-71q9 49 33 79.5t60 30.5q15 0 33 -5t31 -9.5t25.5 -7.5t20 2.5t10.5 19.5z" />
    <glyph glyph-name="Odieresis" unicode="&#xd6;" horiz-adv-x="527" 
d="M322 683q102 0 155.5 -76t24.5 -240l-10 -57q-29 -166 -102 -241t-173 -75q-48 0 -85.5 16.5t-66.5 53.5t-36 97.5t6 148.5l10 57q30 166 104 241t173 75zM350 356q18 110 7 160.5t-48 50.5q-78 0 -116 -211l-6 -35q-36 -211 42 -211q37 0 67 52.5t48 158.5zM173 729
l21 120h120l-21 -120h-120zM369 849h120l-21 -120h-120z" />
    <glyph glyph-name="multiply" unicode="&#xd7;" horiz-adv-x="369" 
d="M334 320l-86 -95l52 -96l-93 -60l-38 68l-62 -68l-72 60l86 96l-52 95l93 61l38 -69l62 69z" />
    <glyph glyph-name="Oslash" unicode="&#xd8;" horiz-adv-x="537" 
d="M446 643q92 -77 56 -276l-10 -57q-29 -166 -102.5 -241t-172.5 -75q-45 0 -80 14l-41 -85h-58l54 112q-92 76 -57 275l10 57q30 166 104 241t173 75q45 0 79 -14l41 84h58zM187 321q-11 -63 -11 -114l167 343q-14 17 -34 17q-78 0 -116 -211zM350 356q12 60 12 114
l-167 -343q12 -17 34 -17q37 0 67 52.5t48 158.5z" />
    <glyph glyph-name="Ugrave" unicode="&#xd9;" horiz-adv-x="509" 
d="M384 677h150l-82 -465q-20 -111 -84.5 -164.5t-155.5 -53.5q-43 0 -79 12.5t-63.5 37.5t-38.5 68.5t-1 99.5l81 465h150l-70 -398q-15 -92 -7.5 -130.5t39.5 -38.5t53.5 39t37.5 130zM338 848l42 -120h-103l-67 120h128z" />
    <glyph glyph-name="Uacute" unicode="&#xda;" horiz-adv-x="509" 
d="M384 677h150l-82 -465q-20 -111 -84.5 -164.5t-155.5 -53.5q-43 0 -79 12.5t-63.5 37.5t-38.5 68.5t-1 99.5l81 465h150l-70 -398q-15 -92 -7.5 -130.5t39.5 -38.5t53.5 39t37.5 130zM349 848h128l-109 -120h-103z" />
    <glyph glyph-name="Ucircumflex" unicode="&#xdb;" horiz-adv-x="509" 
d="M384 677h150l-82 -465q-20 -111 -84.5 -164.5t-155.5 -53.5q-43 0 -79 12.5t-63.5 37.5t-38.5 68.5t-1 99.5l81 465h150l-70 -398q-15 -92 -7.5 -130.5t39.5 -38.5t53.5 39t37.5 130zM392 849l86 -120h-104l-33 63l-55 -63h-103l128 120h81z" />
    <glyph glyph-name="Udieresis" unicode="&#xdc;" horiz-adv-x="509" 
d="M384 677h150l-82 -465q-20 -111 -84.5 -164.5t-155.5 -53.5q-43 0 -79 12.5t-63.5 37.5t-38.5 68.5t-1 99.5l81 465h150l-70 -398q-15 -92 -7.5 -130.5t39.5 -38.5t53.5 39t37.5 130zM190 729l21 120h120l-21 -120h-120zM386 849h120l-21 -120h-120z" />
    <glyph glyph-name="Yacute" unicode="&#xdd;" horiz-adv-x="476" 
d="M355 677h156l-246 -443l-41 -234h-150l41 231l-90 446h160l44 -237zM289 848h128l-109 -120h-103z" />
    <glyph glyph-name="Thorn" unicode="&#xde;" horiz-adv-x="537" 
d="M355 534q76 0 122.5 -49.5t29.5 -146.5t-75 -146t-133 -49h-99l-25 -143h-150l119 677h150l-25 -143h86zM357 338q13 79 -47 79h-61l-28 -158h61q61 0 75 79z" />
    <glyph glyph-name="germandbls" unicode="&#xdf;" horiz-adv-x="539" 
d="M510 501q-8 -43 -38.5 -89.5t-34.5 -70.5q-4 -25 6.5 -52t24.5 -48.5t23 -57.5t2 -75q-9 -51 -53.5 -82.5t-103.5 -31.5q-36 0 -68.5 10.5t-46.5 21.5l-14 10l60 92q23 -24 53 -24q29 0 36 35q4 22 -14 58.5l-35.5 75t-11.5 68.5q4 24 33.5 66t36.5 82q15 83 -41 83
q-26 0 -44.5 -21.5t-25.5 -61.5l-86 -489h-143l88 501q17 94 78 138t145 44q87 0 138.5 -44.5t35.5 -137.5z" />
    <glyph glyph-name="agrave" unicode="&#xe0;" horiz-adv-x="539" 
d="M441 155q-4 -23 12 -37t43 -14l-20 -110q-58 0 -98 26t-36 51q-1 -3 -4 -8.5t-14 -18.5t-24.5 -23t-38.5 -18.5t-54 -8.5q-75 0 -123 47t-36 117q10 57 56 94t101.5 50t121.5 13q5 30 -10 42t-47 12q-20 0 -44 -7t-38 -14l-15 -7l-40 85q7 6 21 15t60 24t97 15
q73 0 122.5 -44t35.5 -124zM302 174l9 50q-109 0 -120 -65q-4 -23 10 -39t38 -16q51 0 63 70zM337 648l42 -120h-103l-67 120h128z" />
    <glyph glyph-name="aacute" unicode="&#xe1;" horiz-adv-x="539" 
d="M441 155q-4 -23 12 -37t43 -14l-20 -110q-58 0 -98 26t-36 51q-1 -3 -4 -8.5t-14 -18.5t-24.5 -23t-38.5 -18.5t-54 -8.5q-75 0 -123 47t-36 117q10 57 56 94t101.5 50t121.5 13q5 30 -10 42t-47 12q-20 0 -44 -7t-38 -14l-15 -7l-40 85q7 6 21 15t60 24t97 15
q73 0 122.5 -44t35.5 -124zM302 174l9 50q-109 0 -120 -65q-4 -23 10 -39t38 -16q51 0 63 70zM334 648h128l-109 -120h-103z" />
    <glyph glyph-name="acircumflex" unicode="&#xe2;" horiz-adv-x="539" 
d="M441 155q-4 -23 12 -37t43 -14l-20 -110q-58 0 -98 26t-36 51q-1 -3 -4 -8.5t-14 -18.5t-24.5 -23t-38.5 -18.5t-54 -8.5q-75 0 -123 47t-36 117q10 57 56 94t101.5 50t121.5 13q5 30 -10 42t-47 12q-20 0 -44 -7t-38 -14l-15 -7l-40 85q7 6 21 15t60 24t97 15
q73 0 122.5 -44t35.5 -124zM302 174l9 50q-109 0 -120 -65q-4 -23 10 -39t38 -16q51 0 63 70zM389 649l86 -120h-104l-33 63l-55 -63h-103l128 120h81z" />
    <glyph glyph-name="atilde" unicode="&#xe3;" horiz-adv-x="539" 
d="M441 155q-4 -23 12 -37t43 -14l-20 -110q-58 0 -98 26t-36 51q-1 -3 -4 -8.5t-14 -18.5t-24.5 -23t-38.5 -18.5t-54 -8.5q-75 0 -123 47t-36 117q10 57 56 94t101.5 50t121.5 13q5 30 -10 42t-47 12q-20 0 -44 -7t-38 -14l-15 -7l-40 85q7 6 21 15t60 24t97 15
q73 0 122.5 -44t35.5 -124zM302 174l9 50q-109 0 -120 -65q-4 -23 10 -39t38 -16q51 0 63 70zM397 644h71q-9 -49 -33.5 -79.5t-59.5 -30.5q-15 0 -33 5t-31 9.5t-25.5 7.5t-20 -2.5t-10.5 -19.5h-71q9 49 33 79.5t60 30.5q15 0 33 -5t31 -9.5t25.5 -7.5t20 2.5t10.5 19.5z
" />
    <glyph glyph-name="adieresis" unicode="&#xe4;" horiz-adv-x="539" 
d="M441 155q-4 -23 12 -37t43 -14l-20 -110q-58 0 -98 26t-36 51q-1 -3 -4 -8.5t-14 -18.5t-24.5 -23t-38.5 -18.5t-54 -8.5q-75 0 -123 47t-36 117q10 57 56 94t101.5 50t121.5 13q5 30 -10 42t-47 12q-20 0 -44 -7t-38 -14l-15 -7l-40 85q7 6 21 15t60 24t97 15
q73 0 122.5 -44t35.5 -124zM302 174l9 50q-109 0 -120 -65q-4 -23 10 -39t38 -16q51 0 63 70zM179 529l21 120h120l-21 -120h-120zM375 649h120l-21 -120h-120z" />
    <glyph glyph-name="aring" unicode="&#xe5;" horiz-adv-x="539" 
d="M441 155q-4 -23 12 -37t43 -14l-20 -110q-58 0 -98 26t-36 51q-1 -3 -4 -8.5t-14 -18.5t-24.5 -23t-38.5 -18.5t-54 -8.5q-75 0 -123 47t-36 117q10 57 56 94t101.5 50t121.5 13q5 30 -10 42t-47 12q-20 0 -44 -7t-38 -14l-15 -7l-40 85q7 6 21 15t60 24t97 15
q73 0 122.5 -44t35.5 -124zM302 174l9 50q-109 0 -120 -65q-4 -23 10 -39t38 -16q51 0 63 70zM345 700q45 0 73.5 -29.5t20.5 -75.5q-8 -47 -42.5 -76t-78.5 -29q-45 0 -73.5 29.5t-19.5 75.5q8 47 42.5 76t77.5 29zM361 595q2 15 -4 25t-19 10q-14 0 -23.5 -10t-11.5 -25
q-3 -15 3 -25t20 -10q13 0 22.5 10t12.5 25z" />
    <glyph glyph-name="ae" unicode="&#xe6;" horiz-adv-x="749" 
d="M558 480q81 0 120 -56.5t20 -161.5l-15 -84h-231q-4 -31 19 -52.5t59 -21.5q30 0 55.5 10.5t36.5 20.5l10 10l27 -93q-5 -6 -15.5 -16t-50.5 -26t-88 -16t-86.5 12.5t-52.5 25.5l-15 12q-5 -6 -15 -14t-47.5 -22t-82.5 -14q-75 0 -122.5 40.5t-36.5 103.5q15 83 93.5 130
t192.5 47q5 24 -14.5 39t-57.5 15q-27 0 -53.5 -7t-39.5 -14l-13 -7l-25 85q8 6 22.5 15t62 24t98.5 15q73 0 120 -38q56 38 125 38zM308 172l9 52q-54 0 -86 -17.5t-37 -45.5q-5 -23 8.5 -40t37.5 -17q27 0 45 19.5t23 48.5zM574 273q8 44 -1.5 70t-34.5 26t-43 -26
t-26 -70h105z" />
    <glyph glyph-name="ccedilla" unicode="&#xe7;" horiz-adv-x="458" 
d="M290 480q36 0 67 -11t43 -23l13 -11l-46 -90q-17 24 -60 24q-40 0 -69 -33.5t-41 -98.5q-12 -69 7.5 -101t59.5 -32q14 0 27 4.5t19 9.5l6 4l41 -89q-3 -4 -11 -10.5t-39 -17.5t-71 -11q-36 0 -72.5 15t-65.5 41.5t-43.5 68t-5.5 89.5l10 58q19 106 80 160t151 54z
M255 -48q47 0 74.5 -21.5t21.5 -58.5q-6 -38 -44.5 -59.5t-91.5 -21.5q-36 0 -65 6.5t-40 12.5l-12 7l32 49q33 -16 68 -16q41 0 46 27q2 12 -6.5 19t-23.5 7q-11 0 -21 -2.5t-14 -4.5l-4 -2h-57l55 85h57l-21 -33q19 6 46 6z" />
    <glyph glyph-name="egrave" unicode="&#xe8;" horiz-adv-x="496" 
d="M294 480q77 0 123.5 -59.5t28.5 -158.5l-15 -84h-245q-7 -36 16.5 -55t68.5 -19q28 0 53.5 7t37.5 15l11 7l38 -81q-5 -6 -16 -16t-53 -26t-94 -16q-88 0 -152 56t-47 154l10 58q19 106 85.5 162t149.5 56zM307 273q18 96 -32 96q-55 0 -72 -96h104zM315 648l42 -120
h-103l-67 120h128z" />
    <glyph glyph-name="eacute" unicode="&#xe9;" horiz-adv-x="496" 
d="M294 480q77 0 123.5 -59.5t28.5 -158.5l-15 -84h-245q-7 -36 16.5 -55t68.5 -19q28 0 53.5 7t37.5 15l11 7l38 -81q-5 -6 -16 -16t-53 -26t-94 -16q-88 0 -152 56t-47 154l10 58q19 106 85.5 162t149.5 56zM307 273q18 96 -32 96q-55 0 -72 -96h104zM305 648h128
l-109 -120h-103z" />
    <glyph glyph-name="ecircumflex" unicode="&#xea;" horiz-adv-x="496" 
d="M294 480q77 0 123.5 -59.5t28.5 -158.5l-15 -84h-245q-7 -36 16.5 -55t68.5 -19q28 0 53.5 7t37.5 15l11 7l38 -81q-5 -6 -16 -16t-53 -26t-94 -16q-88 0 -152 56t-47 154l10 58q19 106 85.5 162t149.5 56zM307 273q18 96 -32 96q-55 0 -72 -96h104zM353 649l86 -120
h-104l-33 63l-55 -63h-103l128 120h81z" />
    <glyph glyph-name="edieresis" unicode="&#xeb;" horiz-adv-x="496" 
d="M294 480q77 0 123.5 -59.5t28.5 -158.5l-15 -84h-245q-7 -36 16.5 -55t68.5 -19q28 0 53.5 7t37.5 15l11 7l38 -81q-5 -6 -16 -16t-53 -26t-94 -16q-88 0 -152 56t-47 154l10 58q19 106 85.5 162t149.5 56zM307 273q18 96 -32 96q-55 0 -72 -96h104zM146 529l21 120h120
l-21 -120h-120zM342 649h120l-21 -120h-120z" />
    <glyph glyph-name="igrave" unicode="&#xec;" horiz-adv-x="351" 
d="M148 685h158l-25 -142h-158zM261 474l-56 -322q-4 -22 12.5 -35t42.5 -13l-20 -110q-89 0 -140 43t-39 111l39 220h-55l19 106h197zM242 848l42 -120h-103l-67 120h128z" />
    <glyph glyph-name="iacute" unicode="&#xed;" horiz-adv-x="351" 
d="M148 685h158l-25 -142h-158zM261 474l-56 -322q-4 -22 12.5 -35t42.5 -13l-20 -110q-89 0 -140 43t-39 111l39 220h-55l19 106h197zM257 848h128l-109 -120h-103z" />
    <glyph glyph-name="icircumflex" unicode="&#xee;" horiz-adv-x="351" 
d="M148 685h158l-25 -142h-158zM261 474l-56 -322q-4 -22 12.5 -35t42.5 -13l-20 -110q-89 0 -140 43t-39 111l39 220h-55l19 106h197zM286 849l86 -120h-104l-33 63l-55 -63h-103l128 120h81z" />
    <glyph glyph-name="idieresis" unicode="&#xef;" horiz-adv-x="351" 
d="M148 685h158l-25 -142h-158zM261 474l-56 -322q-4 -22 12.5 -35t42.5 -13l-20 -110q-89 0 -140 43t-39 111l39 220h-55l19 106h197zM82 729l21 120h120l-21 -120h-120zM278 849h120l-21 -120h-120z" />
    <glyph glyph-name="eth" unicode="&#xf0;" horiz-adv-x="569" 
d="M524 601l-7 -91l-70 -6q39 -107 13 -260q-22 -122 -85.5 -186t-149.5 -64t-139.5 55t-35.5 153l10 57q17 97 73.5 153t135.5 56q33 0 61 -14q-7 32 -9 38l-126 -13l7 91l61 6q-13 9 -42 24l54 83q75 -28 125 -94zM315 231q23 120 -37 120q-59 0 -80 -120
q-21 -121 37 -121q59 0 80 121z" />
    <glyph glyph-name="ntilde" unicode="&#xf1;" horiz-adv-x="564" 
d="M464 152q-4 -25 11.5 -36.5t43.5 -11.5l-20 -110q-85 0 -139 35.5t-41 108.5l20 112q20 119 -33 119q-54 0 -74 -119l-44 -250h-143l65 368h-49l19 106h124l23 -49q50 55 126 55q68 0 110 -48t26 -139zM408 644h71q-9 -49 -33.5 -79.5t-59.5 -30.5q-15 0 -33 5t-31 9.5
t-25.5 7.5t-20 -2.5t-10.5 -19.5h-71q9 49 33 79.5t60 30.5q15 0 33 -5t31 -9.5t25.5 -7.5t20 2.5t10.5 19.5z" />
    <glyph glyph-name="ograve" unicode="&#xf2;" horiz-adv-x="512" 
d="M298 480q81 0 131.5 -55.5t32.5 -158.5l-10 -58q-38 -214 -239 -214q-76 0 -128.5 58t-35.5 156l10 58q19 108 83.5 161t155.5 53zM314 237q24 132 -35 132t-82 -132q-24 -133 35 -133t82 133zM318 648l42 -120h-103l-67 120h128z" />
    <glyph glyph-name="oacute" unicode="&#xf3;" horiz-adv-x="512" 
d="M298 480q81 0 131.5 -55.5t32.5 -158.5l-10 -58q-38 -214 -239 -214q-76 0 -128.5 58t-35.5 156l10 58q19 108 83.5 161t155.5 53zM314 237q24 132 -35 132t-82 -132q-24 -133 35 -133t82 133zM303 648h128l-109 -120h-103z" />
    <glyph glyph-name="ocircumflex" unicode="&#xf4;" horiz-adv-x="512" 
d="M298 480q81 0 131.5 -55.5t32.5 -158.5l-10 -58q-38 -214 -239 -214q-76 0 -128.5 58t-35.5 156l10 58q19 108 83.5 161t155.5 53zM314 237q24 132 -35 132t-82 -132q-24 -133 35 -133t82 133zM357 649l86 -120h-104l-33 63l-55 -63h-103l128 120h81z" />
    <glyph glyph-name="otilde" unicode="&#xf5;" horiz-adv-x="512" 
d="M298 480q81 0 131.5 -55.5t32.5 -158.5l-10 -58q-38 -214 -239 -214q-76 0 -128.5 58t-35.5 156l10 58q19 108 83.5 161t155.5 53zM314 237q24 132 -35 132t-82 -132q-24 -133 35 -133t82 133zM371 644h71q-9 -49 -33.5 -79.5t-59.5 -30.5q-15 0 -33 5t-31 9.5t-25.5 7.5
t-20 -2.5t-10.5 -19.5h-71q9 49 33 79.5t60 30.5q15 0 33 -5t31 -9.5t25.5 -7.5t20 2.5t10.5 19.5z" />
    <glyph glyph-name="odieresis" unicode="&#xf6;" horiz-adv-x="512" 
d="M298 480q81 0 131.5 -55.5t32.5 -158.5l-10 -58q-38 -214 -239 -214q-76 0 -128.5 58t-35.5 156l10 58q19 108 83.5 161t155.5 53zM314 237q24 132 -35 132t-82 -132q-24 -133 35 -133t82 133zM141 529l21 120h120l-21 -120h-120zM337 649h120l-21 -120h-120z" />
    <glyph glyph-name="divide" unicode="&#xf7;" horiz-adv-x="410" 
d="M310 456l-23 -127h-127l22 127h128zM101 -7l22 127h128l-23 -127h-127zM54 280h321l-19 -111h-321z" />
    <glyph glyph-name="oslash" unicode="&#xf8;" horiz-adv-x="512" 
d="M390 454q96 -57 72 -188l-10 -58q-38 -214 -233 -214q-27 0 -49 7l-38 -78h-58l48 99q-42 28 -63 75.5t-10 110.5l10 58q19 109 81 161.5t152 52.5q26 0 50 -6l37 76h58zM190 162l100 206q-3 1 -11 1q-59 0 -83 -132q-8 -47 -6 -75zM314 237q9 43 7 74l-100 -205
q6 -2 11 -2q59 0 82 133z" />
    <glyph glyph-name="ugrave" unicode="&#xf9;" horiz-adv-x="552" 
d="M448 152q-4 -26 11.5 -37t47.5 -11l-19 -110q-42 0 -74 13t-44 27l-11 13q-5 -6 -15 -15t-44.5 -23.5t-74.5 -14.5q-72 0 -125 51.5t-38 135.5l32 182h-49l19 111h192l-43 -250q-22 -120 33 -120q26 0 43 26.5t29 93.5l44 250h143zM328 648l42 -120h-103l-67 120h128z
" />
    <glyph glyph-name="uacute" unicode="&#xfa;" horiz-adv-x="552" 
d="M448 152q-4 -26 11.5 -37t47.5 -11l-19 -110q-42 0 -74 13t-44 27l-11 13q-5 -6 -15 -15t-44.5 -23.5t-74.5 -14.5q-72 0 -125 51.5t-38 135.5l32 182h-49l19 111h192l-43 -250q-22 -120 33 -120q26 0 43 26.5t29 93.5l44 250h143zM325 648h128l-109 -120h-103z" />
    <glyph glyph-name="ucircumflex" unicode="&#xfb;" horiz-adv-x="552" 
d="M448 152q-4 -26 11.5 -37t47.5 -11l-19 -110q-42 0 -74 13t-44 27l-11 13q-5 -6 -15 -15t-44.5 -23.5t-74.5 -14.5q-72 0 -125 51.5t-38 135.5l32 182h-49l19 111h192l-43 -250q-22 -120 33 -120q26 0 43 26.5t29 93.5l44 250h143zM379 649l86 -120h-104l-33 63l-55 -63
h-103l128 120h81z" />
    <glyph glyph-name="udieresis" unicode="&#xfc;" horiz-adv-x="552" 
d="M448 152q-4 -26 11.5 -37t47.5 -11l-19 -110q-42 0 -74 13t-44 27l-11 13q-5 -6 -15 -15t-44.5 -23.5t-74.5 -14.5q-72 0 -125 51.5t-38 135.5l32 182h-49l19 111h192l-43 -250q-22 -120 33 -120q26 0 43 26.5t29 93.5l44 250h143zM170 529l21 120h120l-21 -120h-120z
M366 649h120l-21 -120h-120z" />
    <glyph glyph-name="yacute" unicode="&#xfd;" horiz-adv-x="542" 
d="M341 510q83 0 125 -49.5t27 -132.5l-62 -356q-16 -93 -72 -137t-136 -44q-75 0 -128 45t-38 134h126q-6 -32 9 -50.5t39 -18.5q26 0 38 16.5t18 54.5l13 70q-29 -22 -88 -22q-64 0 -110 50t-30 138l28 160h-55l19 106h197l-40 -224q-20 -119 37 -119q59 0 79 119l18 102
q9 48 -33 48zM292 648h128l-109 -120h-103z" />
    <glyph glyph-name="thorn" unicode="&#xfe;" horiz-adv-x="570" 
d="M397 480q66 0 103 -56t19 -158l-10 -58q-19 -105 -69.5 -159.5t-118.5 -54.5q-27 0 -50 9t-33 19l-9 9l-41 -234h-143l156 885l149 37l-48 -276q43 37 95 37zM371 237q23 132 -33 132t-79 -132q-11 -67 -2 -100t35 -33q55 0 79 133z" />
    <glyph glyph-name="ydieresis" unicode="&#xff;" horiz-adv-x="542" 
d="M341 510q83 0 125 -49.5t27 -132.5l-62 -356q-16 -93 -72 -137t-136 -44q-75 0 -128 45t-38 134h126q-6 -32 9 -50.5t39 -18.5q26 0 38 16.5t18 54.5l13 70q-29 -22 -88 -22q-64 0 -110 50t-30 138l28 160h-55l19 106h197l-40 -224q-20 -119 37 -119q59 0 79 119l18 102
q9 48 -33 48zM145 529l21 120h120l-21 -120h-120zM341 649h120l-21 -120h-120z" />
    <glyph glyph-name="Amacron" unicode="&#x100;" horiz-adv-x="552" 
d="M485 677l32 -677h-154l-3 118h-145l-45 -118h-145l271 677h189zM260 234h96l-7 235zM306 825h210l-16 -90h-210z" />
    <glyph glyph-name="amacron" unicode="&#x101;" horiz-adv-x="539" 
d="M441 155q-4 -23 12 -37t43 -14l-20 -110q-58 0 -98 26t-36 51q-1 -3 -4 -8.5t-14 -18.5t-24.5 -23t-38.5 -18.5t-54 -8.5q-75 0 -123 47t-36 117q10 57 56 94t101.5 50t121.5 13q5 30 -10 42t-47 12q-20 0 -44 -7t-38 -14l-15 -7l-40 85q7 6 21 15t60 24t97 15
q73 0 122.5 -44t35.5 -124zM302 174l9 50q-109 0 -120 -65q-4 -23 10 -39t38 -16q51 0 63 70zM225 625h210l-16 -90h-210z" />
    <glyph glyph-name="Abreve" unicode="&#x102;" horiz-adv-x="552" 
d="M485 677l32 -677h-154l-3 118h-145l-45 -118h-145l271 677h189zM260 234h96l-7 235zM478 845h71q-10 -57 -50 -92t-102 -35q-61 0 -89 35t-18 92h71q-2 -15 11.5 -26.5t40.5 -11.5t45 11.5t20 26.5z" />
    <glyph glyph-name="abreve" unicode="&#x103;" horiz-adv-x="539" 
d="M441 155q-4 -23 12 -37t43 -14l-20 -110q-58 0 -98 26t-36 51q-1 -3 -4 -8.5t-14 -18.5t-24.5 -23t-38.5 -18.5t-54 -8.5q-75 0 -123 47t-36 117q10 57 56 94t101.5 50t121.5 13q5 30 -10 42t-47 12q-20 0 -44 -7t-38 -14l-15 -7l-40 85q7 6 21 15t60 24t97 15
q73 0 122.5 -44t35.5 -124zM302 174l9 50q-109 0 -120 -65q-4 -23 10 -39t38 -16q51 0 63 70zM392 645h71q-10 -57 -50 -92t-102 -35q-61 0 -89 35t-18 92h71q-2 -15 11.5 -26.5t40.5 -11.5t45 11.5t20 26.5z" />
    <glyph glyph-name="Aogonek" unicode="&#x104;" horiz-adv-x="552" 
d="M485 677l32 -677h-154l-3 118h-145l-45 -118h-145l271 677h189zM260 234h96l-7 235zM378 -150q8 0 16.5 3t13.5 6l4 3l14 -48q-30 -23 -93 -23q-38 0 -65.5 20t-21.5 54q5 29 34.5 57.5t55.5 42.5l27 14h67q-7 -4 -18 -12t-31 -33.5t-24 -52.5q-2 -13 3.5 -22t17.5 -9z
" />
    <glyph glyph-name="aogonek" unicode="&#x105;" horiz-adv-x="539" 
d="M441 155q-4 -23 12 -37t43 -14l-20 -110q-58 0 -98 26t-36 51q-1 -3 -4 -8.5t-14 -18.5t-24.5 -23t-38.5 -18.5t-54 -8.5q-75 0 -123 47t-36 117q10 57 56 94t101.5 50t121.5 13q5 30 -10 42t-47 12q-20 0 -44 -7t-38 -14l-15 -7l-40 85q7 6 21 15t60 24t97 15
q73 0 122.5 -44t35.5 -124zM302 174l9 50q-109 0 -120 -65q-4 -23 10 -39t38 -16q51 0 63 70zM417 -150q8 0 16.5 3t12.5 6l5 3l14 -48q-30 -23 -93 -23q-38 0 -65.5 20t-21.5 54q5 29 34.5 57.5t56.5 42.5l26 14h67q-7 -4 -18 -12t-31 -33.5t-24 -52.5q-2 -13 3.5 -22
t17.5 -9z" />
    <glyph glyph-name="Cacute" unicode="&#x106;" horiz-adv-x="462" 
d="M346 683q51 0 88.5 -15.5t49.5 -31.5l13 -15l-62 -95q-3 5 -8.5 11.5t-26 18t-44.5 11.5q-119 0 -159 -229q-21 -118 5.5 -173t85.5 -55q23 0 44 8.5t30 17.5l10 9l27 -94q-4 -6 -13 -15.5t-45 -25.5t-81 -16q-51 0 -95.5 19t-78 58t-45.5 98.5t1 140.5l10 57
q30 169 105.5 242.5t188.5 73.5zM335 848h128l-109 -120h-103z" />
    <glyph glyph-name="cacute" unicode="&#x107;" horiz-adv-x="458" 
d="M290 480q36 0 67 -11t43 -23l13 -11l-46 -90q-17 24 -60 24q-40 0 -69 -33.5t-41 -98.5q-12 -69 7.5 -101t59.5 -32q14 0 27 4.5t19 9.5l6 4l41 -89q-3 -4 -11 -10.5t-39 -17.5t-71 -11q-36 0 -72.5 15t-65.5 41.5t-43.5 68t-5.5 89.5l10 58q19 106 80 160t151 54z
M293 648h128l-109 -120h-103z" />
    <glyph glyph-name="Ccaron" unicode="&#x10c;" horiz-adv-x="462" 
d="M346 683q51 0 88.5 -15.5t49.5 -31.5l13 -15l-62 -95q-3 5 -8.5 11.5t-26 18t-44.5 11.5q-119 0 -159 -229q-21 -118 5.5 -173t85.5 -55q23 0 44 8.5t30 17.5l10 9l27 -94q-4 -6 -13 -15.5t-45 -25.5t-81 -16q-51 0 -95.5 19t-78 58t-45.5 98.5t1 140.5l10 57
q30 169 105.5 242.5t188.5 73.5zM401 847h104l-128 -120h-81l-86 120h103l33 -62z" />
    <glyph glyph-name="ccaron" unicode="&#x10d;" horiz-adv-x="458" 
d="M290 480q36 0 67 -11t43 -23l13 -11l-46 -90q-17 24 -60 24q-40 0 -69 -33.5t-41 -98.5q-12 -69 7.5 -101t59.5 -32q14 0 27 4.5t19 9.5l6 4l41 -89q-3 -4 -11 -10.5t-39 -17.5t-71 -11q-36 0 -72.5 15t-65.5 41.5t-43.5 68t-5.5 89.5l10 58q19 106 80 160t151 54z
M344 647h104l-128 -120h-81l-86 120h103l33 -62z" />
    <glyph glyph-name="Dcaron" unicode="&#x10e;" horiz-adv-x="553" 
d="M369 677q86 0 131.5 -75.5t17.5 -234.5l-10 -57q-28 -161 -93 -235.5t-150 -74.5h-240l119 677h225zM366 356q18 115 4.5 160t-56.5 45h-40l-79 -445h39q44 0 75.5 47.5t50.5 157.5zM401 847h104l-128 -120h-81l-86 120h103l33 -62z" />
    <glyph glyph-name="dcaron" unicode="&#x10f;" horiz-adv-x="643" 
d="M437 152q-4 -22 11.5 -35t43.5 -13l-20 -110q-62 0 -103.5 25t-36.5 52l-5.5 -8.5t-15.5 -18.5t-27 -23t-39.5 -18.5t-51.5 -8.5q-32 0 -60.5 12t-52 37.5t-31.5 66.5t1 98l10 58q39 214 190 214q28 0 51.5 -9t33.5 -19l10 -9l29 163h-70l19 107h213zM315 254
q21 115 -34 115q-26 0 -47 -29.5t-30 -85.5l-6 -34q-10 -56 0 -86t37 -30q54 0 74 116zM577 677h116l-23 -131l-69 -103h-65l82 103h-64z" />
    <glyph glyph-name="Dcroat" unicode="&#x110;" horiz-adv-x="553" 
d="M369 677q86 0 131.5 -75.5t17.5 -234.5l-10 -57q-28 -161 -93 -235.5t-150 -74.5h-240l50 286h-45l20 116h46l48 275h225zM366 356q18 115 4.5 160t-56.5 45h-40l-28 -159h64l-20 -116h-65l-30 -170h39q44 0 75.5 47.5t50.5 157.5z" />
    <glyph glyph-name="dcroat" unicode="&#x111;" horiz-adv-x="611" 
d="M518 611h48l-19 -111h-49l-61 -348q-4 -22 11.5 -35t43.5 -13l-20 -110q-62 0 -103.5 25t-36.5 52q-2 -3 -5 -8.5t-14 -18.5t-24.5 -23t-36.5 -18.5t-48 -8.5q-34 0 -64.5 12.5t-55 37t-34.5 67t0 97.5l10 58q20 113 70.5 163.5t119.5 50.5q30 0 53.5 -9t32.5 -19l9 -9
l10 57h-71l20 111h71l12 71l150 37zM315 254q19 115 -34 115q-57 0 -78 -115l-6 -34q-10 -56 0.5 -86t36.5 -30q54 0 75 116z" />
    <glyph glyph-name="Emacron" unicode="&#x112;" horiz-adv-x="411" 
d="M426 561h-152l-28 -155h115l-20 -117h-115l-31 -173h152l-20 -116h-302l119 677h302zM208 825h210l-16 -90h-210z" />
    <glyph glyph-name="emacron" unicode="&#x113;" horiz-adv-x="496" 
d="M294 480q77 0 123.5 -59.5t28.5 -158.5l-15 -84h-245q-7 -36 16.5 -55t68.5 -19q28 0 53.5 7t37.5 15l11 7l38 -81q-5 -6 -16 -16t-53 -26t-94 -16q-88 0 -152 56t-47 154l10 58q19 106 85.5 162t149.5 56zM307 273q18 96 -32 96q-55 0 -72 -96h104zM186 625h210l-16 -90
h-210z" />
    <glyph glyph-name="Edotaccent" unicode="&#x116;" horiz-adv-x="411" 
d="M426 561h-152l-28 -155h115l-20 -117h-115l-31 -173h152l-20 -116h-302l119 677h302zM254 847h143l-23 -128h-142z" />
    <glyph glyph-name="edotaccent" unicode="&#x117;" horiz-adv-x="496" 
d="M294 480q77 0 123.5 -59.5t28.5 -158.5l-15 -84h-245q-7 -36 16.5 -55t68.5 -19q28 0 53.5 7t37.5 15l11 7l38 -81q-5 -6 -16 -16t-53 -26t-94 -16q-88 0 -152 56t-47 154l10 58q19 106 85.5 162t149.5 56zM307 273q18 96 -32 96q-55 0 -72 -96h104zM231 647h143
l-23 -128h-142z" />
    <glyph glyph-name="Eogonek" unicode="&#x118;" horiz-adv-x="411" 
d="M426 561h-152l-28 -155h115l-20 -117h-115l-31 -173h152l-20 -116h-302l119 677h302zM269 -150q8 0 16.5 3t12.5 6l5 3l14 -48q-30 -23 -93 -23q-38 0 -65.5 20t-21.5 54q5 29 34.5 57.5t56.5 42.5l26 14h67q-7 -4 -18 -12t-31 -33.5t-24 -52.5q-2 -13 3.5 -22t17.5 -9z
" />
    <glyph glyph-name="eogonek" unicode="&#x119;" horiz-adv-x="496" 
d="M294 480q77 0 123.5 -59.5t28.5 -158.5l-15 -84h-245q-7 -36 16.5 -55t68.5 -19q28 0 53.5 7t37.5 15l11 7l38 -81q-5 -6 -16 -16t-53 -26t-94 -16q-88 0 -152 56t-47 154l10 58q19 106 85.5 162t149.5 56zM307 273q18 96 -32 96q-55 0 -72 -96h104zM235 -150q8 0 16.5 3
t12.5 6l5 3l14 -48q-30 -23 -93 -23q-38 0 -65.5 20t-21.5 54q5 29 34.5 57.5t56.5 42.5l26 14h67q-7 -4 -18 -12t-31 -33.5t-24 -52.5q-2 -13 3.5 -22t17.5 -9z" />
    <glyph glyph-name="Ecaron" unicode="&#x11a;" horiz-adv-x="411" 
d="M426 561h-152l-28 -155h115l-20 -117h-115l-31 -173h152l-20 -116h-302l119 677h302zM372 847h104l-128 -120h-81l-86 120h103l33 -62z" />
    <glyph glyph-name="ecaron" unicode="&#x11b;" horiz-adv-x="496" 
d="M294 480q77 0 123.5 -59.5t28.5 -158.5l-15 -84h-245q-7 -36 16.5 -55t68.5 -19q28 0 53.5 7t37.5 15l11 7l38 -81q-5 -6 -16 -16t-53 -26t-94 -16q-88 0 -152 56t-47 154l10 58q19 106 85.5 162t149.5 56zM307 273q18 96 -32 96q-55 0 -72 -96h104zM342 647h104
l-128 -120h-81l-86 120h103l33 -62z" />
    <glyph glyph-name="Gbreve" unicode="&#x11e;" horiz-adv-x="528" 
d="M258 293l21 117h210l-48 -271q-2 -6 -7 -15.5t-23 -34.5t-40.5 -44.5t-62 -35t-85.5 -15.5q-101 0 -158.5 80.5t-30.5 235.5l10 57q27 151 112 233.5t193 82.5q49 0 87.5 -14t52.5 -28l14 -14l-59 -91q-29 31 -84 31q-59 0 -103.5 -50.5t-64.5 -160.5l-6 -35
q-17 -106 -4 -158.5t51 -52.5q16 0 31 9.5t22 18.5l7 10l26 145h-61zM424 845h71q-10 -57 -50 -92t-102 -35q-61 0 -89 35t-18 92h71q-2 -15 11.5 -26.5t40.5 -11.5t45 11.5t20 26.5z" />
    <glyph glyph-name="gbreve" unicode="&#x11f;" horiz-adv-x="582" 
d="M384 474h153l-19 -111h-33l-69 -391q-17 -93 -74 -137t-135 -44q-70 0 -122 48t-37 131h119q-6 -30 7.5 -49.5t36.5 -19.5q49 0 62 71l10 59q-3 -4 -9.5 -10t-29 -16.5t-46.5 -10.5q-65 0 -106.5 55.5t-24.5 154.5l10 58q18 105 67.5 161.5t118.5 56.5q28 0 50.5 -12.5
t30.5 -25.5l9 -12zM331 254q21 115 -33 115q-28 0 -48.5 -30.5t-30.5 -84.5l-6 -34q-9 -52 2 -84t36 -32q54 0 74 116zM408 645h71q-10 -57 -50 -92t-102 -35q-61 0 -89 35t-18 92h71q-2 -15 11.5 -26.5t40.5 -11.5t45 11.5t20 26.5z" />
    <glyph glyph-name="uni0122" unicode="&#x122;" horiz-adv-x="528" 
d="M258 293l21 117h210l-48 -271q-2 -6 -7 -15.5t-23 -34.5t-40.5 -44.5t-62 -35t-85.5 -15.5q-101 0 -158.5 80.5t-30.5 235.5l10 57q27 151 112 233.5t193 82.5q49 0 87.5 -14t52.5 -28l14 -14l-59 -91q-29 31 -84 31q-59 0 -103.5 -50.5t-64.5 -160.5l-6 -35
q-17 -106 -4 -158.5t51 -52.5q16 0 31 9.5t22 18.5l7 10l26 145h-61zM223 -48q47 0 74.5 -21.5t21.5 -58.5q-6 -38 -44.5 -59.5t-91.5 -21.5q-36 0 -65 6.5t-40 12.5l-12 7l32 49q33 -16 68 -16q41 0 46 27q2 12 -6.5 19t-23.5 7q-11 0 -21 -2.5t-14 -4.5l-4 -2h-57l55 85
h57l-21 -33q19 6 46 6z" />
    <glyph glyph-name="uni0123" unicode="&#x123;" horiz-adv-x="582" 
d="M384 474h153l-19 -111h-33l-69 -391q-17 -93 -74 -137t-135 -44q-70 0 -122 48t-37 131h119q-6 -30 7.5 -49.5t36.5 -19.5q49 0 62 71l10 59q-3 -4 -9.5 -10t-29 -16.5t-46.5 -10.5q-65 0 -106.5 55.5t-24.5 154.5l10 58q18 105 67.5 161.5t118.5 56.5q28 0 50.5 -12.5
t30.5 -25.5l9 -12zM331 254q21 115 -33 115q-28 0 -48.5 -30.5t-30.5 -84.5l-6 -34q-9 -52 2 -84t36 -32q54 0 74 116zM409 742l-82 -103h63l-23 -131h-115l23 131l68 103h66z" />
    <glyph glyph-name="Imacron" unicode="&#x12a;" horiz-adv-x="259" 
d="M144 677h150l-119 -677h-150zM134 825h210l-16 -90h-210z" />
    <glyph glyph-name="imacron" unicode="&#x12b;" horiz-adv-x="351" 
d="M261 474l-56 -322q-4 -22 12.5 -35t42.5 -13l-20 -110q-89 0 -140 43t-39 111l39 220h-55l19 106h197zM82 625h210l-16 -90h-210z" />
    <glyph glyph-name="Iogonek" unicode="&#x12e;" horiz-adv-x="259" 
d="M144 677h150l-119 -677h-150zM119 -150q8 0 16.5 3t12.5 6l5 3l14 -48q-30 -23 -93 -23q-38 0 -65.5 20t-21.5 54q5 29 34.5 57.5t56.5 42.5l26 14h67q-7 -4 -18 -12t-31 -33.5t-24 -52.5q-2 -13 3.5 -22t17.5 -9z" />
    <glyph glyph-name="iogonek" unicode="&#x12f;" horiz-adv-x="351" 
d="M148 685h158l-25 -142h-158zM261 474l-56 -322q-4 -22 12.5 -35t42.5 -13l-20 -110q-89 0 -140 43t-39 111l39 220h-55l19 106h197zM183 -150q8 0 16.5 3t12.5 6l5 3l14 -48q-30 -23 -93 -23q-38 0 -65.5 20t-21.5 54q5 29 34.5 57.5t56.5 42.5l26 14h67q-7 -4 -18 -12
t-31 -33.5t-24 -52.5q-2 -13 3.5 -22t17.5 -9z" />
    <glyph glyph-name="Idotaccent" unicode="&#x130;" horiz-adv-x="259" 
d="M144 677h150l-119 -677h-150zM175 847h143l-23 -128h-142z" />
    <glyph glyph-name="dotlessi" unicode="&#x131;" horiz-adv-x="351" 
d="M261 474l-56 -322q-4 -22 12.5 -35t42.5 -13l-20 -110q-89 0 -140 43t-39 111l39 220h-55l19 106h197z" />
    <glyph glyph-name="uni0136" unicode="&#x136;" horiz-adv-x="571" 
d="M586 677l-172 -234l59 -443h-157l-35 261l-79 -107l-27 -154h-150l119 677h150l-43 -245l180 245h155zM398 -48q47 0 74.5 -21.5t21.5 -58.5q-6 -38 -44.5 -59.5t-91.5 -21.5q-36 0 -65 6.5t-41 12.5l-11 7l32 49q33 -16 68 -16q41 0 46 27q2 12 -6.5 19t-23.5 7
q-11 0 -21 -2.5t-14 -4.5l-4 -2h-57l55 85h57l-21 -33q20 6 46 6z" />
    <glyph glyph-name="uni0137" unicode="&#x137;" horiz-adv-x="561" 
d="M419 156q9 -52 69 -52l-19 -110q-78 0 -126.5 40t-59.5 104q-2 12 -3 17l-67 -11l-25 -144h-143l107 606h-61l18 107h204l-53 -301q6 7 18 17.5t51 27.5t81 17q50 0 78 -26.5t28 -68.5q0 -109 -105 -173zM367 338q1 11 -5 18t-17 7q-31 0 -60 -31t-42 -62l-13 -31
q5 1 13.5 2.5t30.5 9t39.5 18t33.5 29t20 40.5zM208 -48q47 0 74.5 -21.5t21.5 -58.5q-6 -38 -44.5 -59.5t-91.5 -21.5q-36 0 -65 6.5t-41 12.5l-11 7l32 49q33 -16 68 -16q41 0 46 27q2 12 -6.5 19t-23.5 7q-11 0 -21 -2.5t-14 -4.5l-4 -2h-57l55 85h57l-21 -33q20 6 46 6z
" />
    <glyph glyph-name="Lacute" unicode="&#x139;" horiz-adv-x="390" 
d="M195 116h150l-20 -116h-300l119 677h150zM253 848h128l-109 -120h-103z" />
    <glyph glyph-name="lacute" unicode="&#x13a;" horiz-adv-x="325" 
d="M143 152q-4 -19 14 -33.5t41 -14.5l-20 -110q-87 0 -138 47t-37 128l77 437h-61l18 107h204zM220 848h128l-109 -120h-103z" />
    <glyph glyph-name="uni013B" unicode="&#x13b;" horiz-adv-x="390" 
d="M195 116h150l-20 -116h-300l119 677h150zM192 -48q47 0 74.5 -21.5t21.5 -58.5q-6 -38 -44.5 -59.5t-91.5 -21.5q-36 0 -65 6.5t-41 12.5l-11 7l32 49q33 -16 68 -16q41 0 46 27q2 12 -6.5 19t-23.5 7q-11 0 -21 -2.5t-14 -4.5l-4 -2h-57l55 85h57l-21 -33q20 6 46 6z
" />
    <glyph glyph-name="uni013C" unicode="&#x13c;" horiz-adv-x="325" 
d="M143 152q-4 -19 14 -33.5t41 -14.5l-20 -110q-87 0 -138 47t-37 128l77 437h-61l18 107h204zM187 -48q47 0 74.5 -21.5t21.5 -58.5q-6 -38 -44.5 -59.5t-91.5 -21.5q-36 0 -65 6.5t-40 12.5l-12 7l32 49q33 -16 68 -16q41 0 46 27q2 12 -6.5 19t-23.5 7q-11 0 -21 -2.5
t-14 -4.5l-4 -2h-57l55 85h57l-21 -33q19 6 46 6z" />
    <glyph glyph-name="Lcaron" unicode="&#x13d;" horiz-adv-x="390" 
d="M195 116h150l-20 -116h-300l119 677h150zM344 677h116l-23 -131l-69 -103h-65l82 103h-64z" />
    <glyph glyph-name="lcaron" unicode="&#x13e;" horiz-adv-x="325" 
d="M143 152q-4 -19 14 -33.5t41 -14.5l-20 -110q-87 0 -138 47t-37 128l77 437h-61l18 107h204zM317 677h116l-23 -131l-69 -103h-65l82 103h-64z" />
    <glyph glyph-name="Lslash" unicode="&#x141;" horiz-adv-x="391" 
d="M171 116h150l-20 -116h-300l43 244l-60 -11l-2 114l83 15l55 315h150l-50 -286l94 18l2 -114l-117 -22z" />
    <glyph glyph-name="lslash" unicode="&#x142;" horiz-adv-x="372" 
d="M198 152q-4 -19 14 -33.5t40 -14.5l-19 -110q-87 0 -138 47t-37 128l13 78l-76 -14l-2 114l99 19l43 240h-62l19 107h204l-56 -320l85 16l2 -114l-108 -20z" />
    <glyph glyph-name="Nacute" unicode="&#x143;" horiz-adv-x="581" 
d="M436 677h145l-120 -683h-146l-89 320l-55 -314h-146l119 677h146l89 -320zM383 848h128l-109 -120h-103z" />
    <glyph glyph-name="nacute" unicode="&#x144;" horiz-adv-x="564" 
d="M464 152q-4 -25 11.5 -36.5t43.5 -11.5l-20 -110q-85 0 -139 35.5t-41 108.5l20 112q20 119 -33 119q-54 0 -74 -119l-44 -250h-143l65 368h-49l19 106h124l23 -49q50 55 126 55q68 0 110 -48t26 -139zM321 648h128l-109 -120h-103z" />
    <glyph glyph-name="uni0145" unicode="&#x145;" horiz-adv-x="581" 
d="M436 677h145l-120 -683h-146l-89 320l-55 -314h-146l119 677h146l89 -320zM398 -48q47 0 74.5 -21.5t21.5 -58.5q-6 -38 -44.5 -59.5t-91.5 -21.5q-36 0 -65 6.5t-41 12.5l-11 7l32 49q33 -16 68 -16q41 0 46 27q2 12 -6.5 19t-23.5 7q-11 0 -21 -2.5t-14 -4.5l-4 -2h-57
l55 85h57l-21 -33q20 6 46 6z" />
    <glyph glyph-name="uni0146" unicode="&#x146;" horiz-adv-x="564" 
d="M464 152q-4 -25 11.5 -36.5t43.5 -11.5l-20 -110q-85 0 -139 35.5t-41 108.5l20 112q20 119 -33 119q-54 0 -74 -119l-44 -250h-143l65 368h-49l19 106h124l23 -49q50 55 126 55q68 0 110 -48t26 -139zM210 -48q47 0 74.5 -21.5t21.5 -58.5q-6 -38 -44.5 -59.5
t-91.5 -21.5q-36 0 -65 6.5t-41 12.5l-11 7l32 49q33 -16 68 -16q41 0 46 27q2 12 -6.5 19t-23.5 7q-11 0 -21 -2.5t-14 -4.5l-4 -2h-57l55 85h57l-21 -33q20 6 46 6z" />
    <glyph glyph-name="Ncaron" unicode="&#x147;" horiz-adv-x="581" 
d="M436 677h145l-120 -683h-146l-89 320l-55 -314h-146l119 677h146l89 -320zM431 847h104l-128 -120h-81l-86 120h103l33 -62z" />
    <glyph glyph-name="ncaron" unicode="&#x148;" horiz-adv-x="564" 
d="M464 152q-4 -25 11.5 -36.5t43.5 -11.5l-20 -110q-85 0 -139 35.5t-41 108.5l20 112q20 119 -33 119q-54 0 -74 -119l-44 -250h-143l65 368h-49l19 106h124l23 -49q50 55 126 55q68 0 110 -48t26 -139zM368 647h104l-128 -120h-81l-86 120h103l33 -62z" />
    <glyph glyph-name="Omacron" unicode="&#x14c;" horiz-adv-x="527" 
d="M322 683q102 0 155.5 -76t24.5 -240l-10 -57q-29 -166 -102 -241t-173 -75q-48 0 -85.5 16.5t-66.5 53.5t-36 97.5t6 148.5l10 57q30 166 104 241t173 75zM350 356q18 110 7 160.5t-48 50.5q-78 0 -116 -211l-6 -35q-36 -211 42 -211q37 0 67 52.5t48 158.5zM235 825h210
l-16 -90h-210z" />
    <glyph glyph-name="omacron" unicode="&#x14d;" horiz-adv-x="512" 
d="M298 480q81 0 131.5 -55.5t32.5 -158.5l-10 -58q-38 -214 -239 -214q-76 0 -128.5 58t-35.5 156l10 58q19 108 83.5 161t155.5 53zM314 237q24 132 -35 132t-82 -132q-24 -133 35 -133t82 133zM210 625h210l-16 -90h-210z" />
    <glyph glyph-name="Ohungarumlaut" unicode="&#x150;" horiz-adv-x="527" 
d="M322 683q102 0 155.5 -76t24.5 -240l-10 -57q-29 -166 -102 -241t-173 -75q-48 0 -85.5 16.5t-66.5 53.5t-36 97.5t6 148.5l10 57q30 166 104 241t173 75zM350 356q18 110 7 160.5t-48 50.5q-78 0 -116 -211l-6 -35q-36 -211 42 -211q37 0 67 52.5t48 158.5zM246 849h128
l-85 -121h-103zM408 849h128l-106 -121h-103z" />
    <glyph glyph-name="ohungarumlaut" unicode="&#x151;" horiz-adv-x="512" 
d="M298 480q81 0 131.5 -55.5t32.5 -158.5l-10 -58q-38 -214 -239 -214q-76 0 -128.5 58t-35.5 156l10 58q19 108 83.5 161t155.5 53zM314 237q24 132 -35 132t-82 -132q-24 -133 35 -133t82 133zM216 649h128l-85 -121h-103zM378 649h128l-106 -121h-103z" />
    <glyph glyph-name="OE" unicode="&#x152;" horiz-adv-x="712" 
d="M687 561h-152l-27 -155h115l-21 -117h-115l-30 -173h151l-20 -116h-302l3 19q-35 -25 -85 -25q-92 0 -144.5 80.5t-25.5 235.5l10 57q27 156 103.5 236t166.5 80q57 0 87 -31l4 25h302zM355 356q18 112 5.5 161.5t-50.5 49.5q-37 0 -68 -52t-50 -159l-6 -35
q-18 -112 -5.5 -161.5t49.5 -49.5t68.5 52t50.5 159z" />
    <glyph glyph-name="oe" unicode="&#x153;" horiz-adv-x="755" 
d="M553 480q78 0 124 -59t28 -159l-14 -84h-246q-6 -36 17 -55t68 -19q28 0 54 7t38 15l11 7l37 -81q-2 -2 -5.5 -6t-17.5 -14t-31 -17.5t-46 -14t-62 -6.5q-83 0 -142 46q-55 -46 -148 -46q-76 0 -131 58.5t-38 155.5l10 58q19 108 83.5 161t155.5 53q74 0 121 -44
q59 44 134 44zM314 237q24 132 -35 132t-82 -132q-24 -133 35 -133t82 133zM567 273q17 96 -33 96q-55 0 -72 -96h105z" />
    <glyph glyph-name="Racute" unicode="&#x154;" horiz-adv-x="530" 
d="M375 677q80 0 124 -53t26 -151q-23 -139 -120 -185l39 -288h-146l-36 268h-40l-47 -268h-150l119 677h231zM375 473q17 88 -45 88h-56l-31 -177h56q61 0 76 89zM335 848h128l-109 -120h-103z" />
    <glyph glyph-name="racute" unicode="&#x155;" horiz-adv-x="446" 
d="M325 480q19 0 38 -5t29 -11l9 -5l-51 -109q-14 19 -43 19q-54 0 -70 -90l-49 -279h-143l65 368h-49l19 106h124l17 -36q48 42 104 42zM255 648h128l-109 -120h-103z" />
    <glyph glyph-name="uni0156" unicode="&#x156;" horiz-adv-x="530" 
d="M375 677q80 0 124 -53t26 -151q-23 -139 -120 -185l39 -288h-146l-36 268h-40l-47 -268h-150l119 677h231zM375 473q17 88 -45 88h-56l-31 -177h56q61 0 76 89zM380 -48q47 0 74.5 -21.5t21.5 -58.5q-6 -38 -44.5 -59.5t-91.5 -21.5q-36 0 -65 6.5t-41 12.5l-11 7l32 49
q33 -16 68 -16q41 0 46 27q2 12 -6.5 19t-23.5 7q-11 0 -21 -2.5t-14 -4.5l-4 -2h-57l55 85h57l-21 -33q19 6 46 6z" />
    <glyph glyph-name="uni0157" unicode="&#x157;" horiz-adv-x="446" 
d="M325 480q19 0 38 -5t29 -11l9 -5l-51 -109q-14 19 -43 19q-54 0 -70 -90l-49 -279h-143l65 368h-49l19 106h124l17 -36q48 42 104 42zM208 -48q47 0 74.5 -21.5t21.5 -58.5q-6 -38 -44.5 -59.5t-91.5 -21.5q-36 0 -65 6.5t-41 12.5l-11 7l32 49q33 -16 68 -16q41 0 46 27
q2 12 -6.5 19t-23.5 7q-11 0 -21 -2.5t-14 -4.5l-4 -2h-57l55 85h57l-21 -33q20 6 46 6z" />
    <glyph glyph-name="Rcaron" unicode="&#x158;" horiz-adv-x="530" 
d="M375 677q80 0 124 -53t26 -151q-23 -139 -120 -185l39 -288h-146l-36 268h-40l-47 -268h-150l119 677h231zM375 473q17 88 -45 88h-56l-31 -177h56q61 0 76 89zM393 847h104l-128 -120h-81l-86 120h103l33 -62z" />
    <glyph glyph-name="rcaron" unicode="&#x159;" horiz-adv-x="446" 
d="M325 480q19 0 38 -5t29 -11l9 -5l-51 -109q-14 19 -43 19q-54 0 -70 -90l-49 -279h-143l65 368h-49l19 106h124l17 -36q48 42 104 42zM305 647h104l-128 -120h-81l-86 120h103l33 -62z" />
    <glyph glyph-name="Sacute" unicode="&#x15a;" horiz-adv-x="495" 
d="M338 567q-34 0 -54.5 -15t-25.5 -40q-5 -26 12 -57.5t43.5 -64l52.5 -67.5t41 -79t7 -87q-14 -81 -72.5 -122t-141.5 -41q-56 0 -102 15t-64 30l-19 15l65 100q5 -5 14 -12.5t38.5 -19.5t59.5 -12q64 0 74 59q4 24 -13 55t-43 63.5l-52 68t-40.5 81t-6.5 90.5
q13 73 75.5 114.5t139.5 41.5q51 0 91 -13.5t54 -27.5l14 -13l-59 -90q-33 28 -88 28zM318 848h128l-109 -120h-103z" />
    <glyph glyph-name="sacute" unicode="&#x15b;" horiz-adv-x="476" 
d="M243 336q-2 -12 13 -29t37.5 -36.5t44.5 -41.5t35 -52.5t7 -62.5q-9 -53 -53 -86.5t-114 -33.5q-48 0 -90 15t-60 30l-18 15l58 90q38 -34 94 -34q40 0 45 28q2 13 -13 30t-37.5 36t-44.5 41t-35 52t-7 63q10 58 56.5 89t112.5 31q42 0 77.5 -13.5t50.5 -26.5l14 -14
l-55 -85q-26 23 -69 23q-44 0 -49 -28zM293 648h128l-109 -120h-103z" />
    <glyph glyph-name="uni015E" unicode="&#x15e;" horiz-adv-x="495" 
d="M338 567q-34 0 -54.5 -15t-25.5 -40q-5 -26 12 -57.5t43.5 -64l52.5 -67.5t41 -79t7 -87q-14 -81 -72.5 -122t-141.5 -41q-56 0 -102 15t-64 30l-19 15l65 100q5 -5 14 -12.5t38.5 -19.5t59.5 -12q64 0 74 59q4 24 -13 55t-43 63.5l-52 68t-40.5 81t-6.5 90.5
q13 73 75.5 114.5t139.5 41.5q51 0 91 -13.5t54 -27.5l14 -13l-59 -90q-33 28 -88 28zM223 -48q47 0 74.5 -21.5t21.5 -58.5q-6 -38 -44.5 -59.5t-91.5 -21.5q-36 0 -65 6.5t-40 12.5l-12 7l32 49q33 -16 68 -16q41 0 46 27q2 12 -6.5 19t-23.5 7q-11 0 -21 -2.5t-14 -4.5
l-4 -2h-57l55 85h57l-21 -33q19 6 46 6z" />
    <glyph glyph-name="uni015F" unicode="&#x15f;" horiz-adv-x="476" 
d="M243 336q-2 -12 13 -29t37.5 -36.5t44.5 -41.5t35 -52.5t7 -62.5q-9 -53 -53 -86.5t-114 -33.5q-48 0 -90 15t-60 30l-18 15l58 90q38 -34 94 -34q40 0 45 28q2 13 -13 30t-37.5 36t-44.5 41t-35 52t-7 63q10 58 56.5 89t112.5 31q42 0 77.5 -13.5t50.5 -26.5l14 -14
l-55 -85q-26 23 -69 23q-44 0 -49 -28zM236 -48q47 0 74.5 -21.5t21.5 -58.5q-6 -38 -44.5 -59.5t-91.5 -21.5q-36 0 -65 6.5t-41 12.5l-11 7l32 49q33 -16 68 -16q41 0 46 27q2 12 -6.5 19t-23.5 7q-11 0 -21 -2.5t-14 -4.5l-4 -2h-57l55 85h57l-21 -33q20 6 46 6z" />
    <glyph glyph-name="Scaron" unicode="&#x160;" horiz-adv-x="495" 
d="M338 567q-34 0 -54.5 -15t-25.5 -40q-5 -26 12 -57.5t43.5 -64l52.5 -67.5t41 -79t7 -87q-14 -81 -72.5 -122t-141.5 -41q-56 0 -102 15t-64 30l-19 15l65 100q5 -5 14 -12.5t38.5 -19.5t59.5 -12q64 0 74 59q4 24 -13 55t-43 63.5l-52 68t-40.5 81t-6.5 90.5
q13 73 75.5 114.5t139.5 41.5q51 0 91 -13.5t54 -27.5l14 -13l-59 -90q-33 28 -88 28zM379 847h104l-128 -120h-81l-86 120h103l33 -62z" />
    <glyph glyph-name="scaron" unicode="&#x161;" horiz-adv-x="476" 
d="M243 336q-2 -12 13 -29t37.5 -36.5t44.5 -41.5t35 -52.5t7 -62.5q-9 -53 -53 -86.5t-114 -33.5q-48 0 -90 15t-60 30l-18 15l58 90q38 -34 94 -34q40 0 45 28q2 13 -13 30t-37.5 36t-44.5 41t-35 52t-7 63q10 58 56.5 89t112.5 31q42 0 77.5 -13.5t50.5 -26.5l14 -14
l-55 -85q-26 23 -69 23q-44 0 -49 -28zM343 647h104l-128 -120h-81l-86 120h103l33 -62z" />
    <glyph glyph-name="uni0162" unicode="&#x162;" horiz-adv-x="405" 
d="M45 677h375l-20 -116h-113l-98 -561h-150l98 561h-112zM119 -48q47 0 74.5 -21.5t21.5 -58.5q-6 -38 -44.5 -59.5t-91.5 -21.5q-36 0 -65 6.5t-40 12.5l-12 7l32 49q33 -16 68 -16q41 0 46 27q2 12 -6.5 19t-23.5 7q-11 0 -21 -2.5t-14 -4.5l-4 -2h-57l55 85h57l-21 -33
q19 6 46 6z" />
    <glyph glyph-name="uni0163" unicode="&#x163;" horiz-adv-x="413" 
d="M258 369l-31 -175q-7 -42 3 -66t30 -24q14 0 25 5t15 10l3 5l36 -77q-5 -6 -14 -15t-40 -23.5t-65 -14.5q-62 0 -106.5 45t-33.5 113l39 217h-74l19 111h37q28 0 41.5 20.5t23.5 78.5l135 34l-24 -133h91l-20 -111h-90zM203 -48q47 0 74.5 -21.5t21.5 -58.5
q-6 -38 -44.5 -59.5t-91.5 -21.5q-36 0 -65.5 6.5t-40.5 12.5l-11 7l32 49q33 -16 68 -16q41 0 46 27q2 12 -6.5 19t-23.5 7q-11 0 -21 -2.5t-14 -4.5l-4 -2h-57l55 85h57l-21 -33q19 6 46 6z" />
    <glyph glyph-name="Tcaron" unicode="&#x164;" horiz-adv-x="405" 
d="M45 677h375l-20 -116h-113l-98 -561h-150l98 561h-112zM299 847h104l-128 -120h-81l-86 120h103l33 -62z" />
    <glyph glyph-name="tcaron" unicode="&#x165;" horiz-adv-x="413" 
d="M258 369l-31 -175q-7 -42 3 -66t30 -24q14 0 25 5t15 10l3 5l36 -77q-5 -6 -14 -15t-40 -23.5t-65 -14.5q-62 0 -106.5 45t-33.5 113l39 217h-74l19 111h37q28 0 41.5 20.5t23.5 78.5l135 34l-24 -133h91l-20 -111h-90zM437 677h116l-23 -131l-69 -103h-65l82 103h-64z
" />
    <glyph glyph-name="Umacron" unicode="&#x16a;" horiz-adv-x="509" 
d="M384 677h150l-82 -465q-20 -111 -84.5 -164.5t-155.5 -53.5q-43 0 -79 12.5t-63.5 37.5t-38.5 68.5t-1 99.5l81 465h150l-70 -398q-15 -92 -7.5 -130.5t39.5 -38.5t53.5 39t37.5 130zM232 825h210l-16 -90h-210z" />
    <glyph glyph-name="umacron" unicode="&#x16b;" horiz-adv-x="559" 
d="M448 152q-4 -26 11.5 -37t47.5 -11l-19 -110q-42 0 -74 13t-44 27l-11 13q-5 -6 -15 -15t-44.5 -23.5t-74.5 -14.5q-72 0 -125 51.5t-38 135.5l32 182h-49l19 111h192l-43 -250q-22 -120 33 -120q26 0 43 26.5t29 93.5l44 250h143zM219 625h210l-16 -90h-210z" />
    <glyph glyph-name="Uring" unicode="&#x16e;" horiz-adv-x="509" 
d="M384 677h150l-82 -465q-20 -111 -84.5 -164.5t-155.5 -53.5q-43 0 -79 12.5t-63.5 37.5t-38.5 68.5t-1 99.5l81 465h150l-70 -398q-15 -92 -7.5 -130.5t39.5 -38.5t53.5 39t37.5 130zM352 900q45 0 73.5 -29.5t20.5 -75.5q-8 -47 -42.5 -76t-78.5 -29q-45 0 -73.5 29.5
t-19.5 75.5q8 47 42.5 76t77.5 29zM368 795q2 15 -4 25t-19 10q-14 0 -23.5 -10t-11.5 -25q-3 -15 3 -25t20 -10q13 0 22.5 10t12.5 25z" />
    <glyph glyph-name="uring" unicode="&#x16f;" horiz-adv-x="559" 
d="M448 152q-4 -26 11.5 -37t47.5 -11l-19 -110q-42 0 -74 13t-44 27l-11 13q-5 -6 -15 -15t-44.5 -23.5t-74.5 -14.5q-72 0 -125 51.5t-38 135.5l32 182h-49l19 111h192l-43 -250q-22 -120 33 -120q26 0 43 26.5t29 93.5l44 250h143zM336 700q45 0 73.5 -29.5t20.5 -75.5
q-8 -47 -42.5 -76t-78.5 -29q-45 0 -73.5 29.5t-19.5 75.5q8 47 42.5 76t77.5 29zM352 595q2 15 -4 25t-19 10q-14 0 -23.5 -10t-11.5 -25q-3 -15 3 -25t20 -10q13 0 22.5 10t12.5 25z" />
    <glyph glyph-name="Uhungarumlaut" unicode="&#x170;" horiz-adv-x="509" 
d="M384 677h150l-82 -465q-20 -111 -84.5 -164.5t-155.5 -53.5q-43 0 -79 12.5t-63.5 37.5t-38.5 68.5t-1 99.5l81 465h150l-70 -398q-15 -92 -7.5 -130.5t39.5 -38.5t53.5 39t37.5 130zM250 849h128l-85 -121h-103zM412 849h128l-106 -121h-103z" />
    <glyph glyph-name="uhungarumlaut" unicode="&#x171;" horiz-adv-x="559" 
d="M448 152q-4 -26 11.5 -37t47.5 -11l-19 -110q-42 0 -74 13t-44 27l-11 13q-5 -6 -15 -15t-44.5 -23.5t-74.5 -14.5q-72 0 -125 51.5t-38 135.5l32 182h-49l19 111h192l-43 -250q-22 -120 33 -120q26 0 43 26.5t29 93.5l44 250h143zM224 649h128l-85 -121h-103zM386 649
h128l-106 -121h-103z" />
    <glyph glyph-name="Uogonek" unicode="&#x172;" horiz-adv-x="509" 
d="M384 677h150l-82 -465q-20 -111 -84.5 -164.5t-155.5 -53.5q-43 0 -79 12.5t-63.5 37.5t-38.5 68.5t-1 99.5l81 465h150l-70 -398q-15 -92 -7.5 -130.5t39.5 -38.5t53.5 39t37.5 130zM198 -150q8 0 16.5 3t13.5 6l4 3l14 -48q-30 -23 -93 -23q-38 0 -65.5 20t-21.5 54
q5 29 34.5 57.5t55.5 42.5l27 14h67q-7 -4 -18 -12t-31 -33.5t-24 -52.5q-2 -13 3.5 -22t17.5 -9z" />
    <glyph glyph-name="uogonek" unicode="&#x173;" horiz-adv-x="559" 
d="M448 152q-4 -26 11.5 -37t47.5 -11l-19 -110q-42 0 -74 13t-44 27l-11 13q-5 -6 -15 -15t-44.5 -23.5t-74.5 -14.5q-72 0 -125 51.5t-38 135.5l32 182h-49l19 111h192l-43 -250q-22 -120 33 -120q26 0 43 26.5t29 93.5l44 250h143zM436 -150q8 0 16.5 3t13.5 6l4 3
l14 -48q-30 -23 -93 -23q-38 0 -65.5 20t-21.5 54q5 29 34.5 57.5t55.5 42.5l27 14h67q-7 -4 -18 -12t-31 -33.5t-24 -52.5q-2 -13 3.5 -22t17.5 -9z" />
    <glyph glyph-name="Ydieresis" unicode="&#x178;" horiz-adv-x="476" 
d="M355 677h156l-246 -443l-41 -234h-150l41 231l-90 446h160l44 -237zM129 729l21 120h120l-21 -120h-120zM325 849h120l-21 -120h-120z" />
    <glyph glyph-name="Zacute" unicode="&#x179;" horiz-adv-x="497" 
d="M472 677l-21 -122l-249 -439h171l-20 -116h-328l21 122l250 439h-169l20 116h325zM315 848h128l-109 -120h-103z" />
    <glyph glyph-name="zacute" unicode="&#x17a;" horiz-adv-x="430" 
d="M368 378l-135 -267h113l-19 -111h-282l17 96l135 267h-107l19 111h276zM255 648h128l-109 -120h-103z" />
    <glyph glyph-name="Zdotaccent" unicode="&#x17b;" horiz-adv-x="497" 
d="M472 677l-21 -122l-249 -439h171l-20 -116h-328l21 122l250 439h-169l20 116h325zM260 847h143l-23 -128h-142z" />
    <glyph glyph-name="zdotaccent" unicode="&#x17c;" horiz-adv-x="430" 
d="M368 378l-135 -267h113l-19 -111h-282l17 96l135 267h-107l19 111h276zM198 647h143l-23 -128h-142z" />
    <glyph glyph-name="Zcaron" unicode="&#x17d;" horiz-adv-x="497" 
d="M472 677l-21 -122l-249 -439h171l-20 -116h-328l21 122l250 439h-169l20 116h325zM374 847h104l-128 -120h-81l-86 120h103l33 -62z" />
    <glyph glyph-name="zcaron" unicode="&#x17e;" horiz-adv-x="430" 
d="M368 378l-135 -267h113l-19 -111h-282l17 96l135 267h-107l19 111h276zM314 647h104l-128 -120h-81l-86 120h103l33 -62z" />
    <glyph glyph-name="florin" unicode="&#x192;" horiz-adv-x="592" 
d="M470 683q28 0 52.5 -8.5t34.5 -16.5l10 -8l-53 -81q-12 14 -35 14q-44 0 -66 -81l-11 -42h108l-18 -100h-118l-107 -388q-26 -95 -70.5 -138t-109.5 -43q-37 0 -65 8t-38 16l-9 8l53 82q15 -14 41 -14q38 0 60 81l107 388h-57l18 100h66l12 42q25 92 76.5 136.5
t118.5 44.5z" />
    <glyph glyph-name="uni0218" unicode="&#x218;" horiz-adv-x="495" 
d="M338 567q-34 0 -54.5 -15t-25.5 -40q-5 -26 12 -57.5t43.5 -64l52.5 -67.5t41 -79t7 -87q-14 -81 -72.5 -122t-141.5 -41q-56 0 -102 15t-64 30l-19 15l65 100q5 -5 14 -12.5t38.5 -19.5t59.5 -12q64 0 74 59q4 24 -13 55t-43 63.5l-52 68t-40.5 81t-6.5 90.5
q13 73 75.5 114.5t139.5 41.5q51 0 91 -13.5t54 -27.5l14 -13l-59 -90q-33 28 -88 28zM166 -32h128l-109 -120h-103z" />
    <glyph glyph-name="uni0219" unicode="&#x219;" horiz-adv-x="476" 
d="M243 336q-2 -12 13 -29t37.5 -36.5t44.5 -41.5t35 -52.5t7 -62.5q-9 -53 -53 -86.5t-114 -33.5q-48 0 -90 15t-60 30l-18 15l58 90q38 -34 94 -34q40 0 45 28q2 13 -13 30t-37.5 36t-44.5 41t-35 52t-7 63q10 58 56.5 89t112.5 31q42 0 77.5 -13.5t50.5 -26.5l14 -14
l-55 -85q-26 23 -69 23q-44 0 -49 -28zM165 -32h128l-109 -120h-103z" />
    <glyph glyph-name="uni021A" unicode="&#x21a;" horiz-adv-x="405" 
d="M45 677h375l-20 -116h-113l-98 -561h-150l98 561h-112zM53 -32h128l-109 -120h-103z" />
    <glyph glyph-name="uni021B" unicode="&#x21b;" horiz-adv-x="413" 
d="M258 369l-31 -175q-7 -42 3 -66t30 -24q14 0 25 5t15 10l3 5l36 -77q-5 -6 -14 -15t-40 -23.5t-65 -14.5q-62 0 -106.5 45t-33.5 113l39 217h-74l19 111h37q28 0 41.5 20.5t23.5 78.5l135 34l-24 -133h91l-20 -111h-90zM143 -32h128l-109 -120h-103z" />
    <glyph glyph-name="sc.g" unicode="&#x262;" horiz-adv-x="458" 
d="M241 343h197l-41 -232q-2 -5 -6.5 -13t-21.5 -28t-37.5 -35.5t-54.5 -28t-73 -12.5q-92 0 -146 68t-32 190l10 58q23 128 95.5 193t166.5 65q43 0 77.5 -14t46.5 -28l13 -14l-54 -83q-20 28 -70 28q-49 0 -85.5 -44.5t-51.5 -131.5q-14 -89 -2.5 -133t41.5 -44
q12 0 23.5 7t16.5 14l5 7l17 101h-53z" />
    <glyph glyph-name="sc.i" unicode="&#x26a;" horiz-adv-x="257" 
d="M119 562h143l-99 -562h-143z" />
    <glyph glyph-name="sc.n" unicode="&#x274;" horiz-adv-x="497" 
d="M372 562h135l-100 -568h-135l-75 241l-41 -235h-136l99 562h136l74 -242z" />
    <glyph glyph-name="sc.r" unicode="&#x280;" horiz-adv-x="480" 
d="M339 562q71 0 111.5 -51.5t25.5 -138.5q-21 -118 -107 -166l27 -206h-136l-24 183h-41l-32 -183h-143l99 562h220zM333 372q8 42 -3 60.5t-42 18.5h-46l-27 -157h45q31 0 48 18.5t25 59.5z" />
    <glyph glyph-name="sc.x" unicode="&#x28e;" horiz-adv-x="527" 
d="M507 562l-166 -277l70 -285h-155l-36 147l-88 -147h-147l173 289l-67 273h155l33 -135l81 135h147z" />
    <glyph glyph-name="sc.y" unicode="&#x28f;" horiz-adv-x="509" 
d="M339 562h150l-214 -358l-37 -204h-142l36 207l-87 355h158l36 -179z" />
    <glyph glyph-name="sc.b" unicode="&#x299;" horiz-adv-x="508" 
d="M485 409q-7 -40 -28.5 -69t-40.5 -38l-18 -10q2 -1 4.5 -2t10.5 -6t14 -11t14.5 -16.5t12 -23.5t6 -31t-2.5 -39q-13 -77 -71.5 -120t-141.5 -43h-199l99 562h193q70 0 115.5 -42t32.5 -111zM316 174q5 33 -6 48t-45 15h-35l-23 -126h36q63 0 73 63zM341 399
q5 27 -5.5 39.5t-41.5 12.5h-27l-18 -104h27q56 0 65 52z" />
    <glyph glyph-name="sc.h" unicode="&#x29c;" horiz-adv-x="499" 
d="M372 562h142l-99 -562h-143l40 226h-109l-40 -226h-143l99 562h143l-40 -226h110z" />
    <glyph glyph-name="sc.l" unicode="&#x29f;" horiz-adv-x="343" 
d="M177 111h136l-20 -111h-278l99 562h143z" />
    <glyph glyph-name="circumflex" unicode="&#x2c6;" horiz-adv-x="365" 
d="M244 649l86 -120h-104l-33 63l-55 -63h-103l128 120h81z" />
    <glyph glyph-name="caron" unicode="&#x2c7;" horiz-adv-x="365" 
d="M226 647h104l-128 -120h-81l-86 120h103l33 -62z" />
    <glyph glyph-name="uni02C9" unicode="&#x2c9;" horiz-adv-x="296" 
d="M51 625h210l-16 -90h-210z" />
    <glyph glyph-name="breve" unicode="&#x2d8;" horiz-adv-x="332" 
d="M226 645h71q-10 -57 -50 -92t-102 -35q-61 0 -89 35t-18 92h71q-2 -15 11.5 -26.5t40.5 -11.5t45 11.5t20 26.5z" />
    <glyph glyph-name="dotaccent" unicode="&#x2d9;" horiz-adv-x="235" 
d="M57 647h143l-23 -128h-142z" />
    <glyph glyph-name="ring" unicode="&#x2da;" horiz-adv-x="288" 
d="M157 700q45 0 73.5 -29.5t20.5 -75.5q-8 -47 -42.5 -76t-78.5 -29q-45 0 -73.5 29.5t-19.5 75.5q8 47 42.5 76t77.5 29zM173 595q2 15 -4 25t-19 10q-14 0 -23.5 -10t-11.5 -25q-3 -15 3 -25t20 -10q13 0 22.5 10t12.5 25z" />
    <glyph glyph-name="ogonek" unicode="&#x2db;" horiz-adv-x="256" 
d="M169 -150q8 0 16.5 3t12.5 6l5 3l14 -48q-30 -23 -93 -23q-38 0 -65.5 20t-21.5 54q5 29 34.5 57.5t56.5 42.5l26 14h67q-7 -4 -18 -12t-31 -33.5t-24 -52.5q-2 -13 3.5 -22t17.5 -9z" />
    <glyph glyph-name="tilde" unicode="&#x2dc;" horiz-adv-x="354" 
d="M248 644h71q-9 -49 -33.5 -79.5t-59.5 -30.5q-15 0 -33 5t-31 9.5t-25.5 7.5t-20 -2.5t-10.5 -19.5h-71q9 49 33 79.5t60 30.5q15 0 33 -5t31 -9.5t25.5 -7.5t20 2.5t10.5 19.5z" />
    <glyph glyph-name="hungarumlaut" unicode="&#x2dd;" horiz-adv-x="420" 
d="M95 649h128l-85 -121h-103zM257 649h128l-106 -121h-103z" />
    <glyph glyph-name="pi" unicode="&#x3c0;" horiz-adv-x="606" 
d="M482 363l-30 -169q-15 -90 31 -90q10 0 19.5 4t13.5 8l5 5l23 -77q-4 -6 -12.5 -14t-38 -22t-61.5 -14q-64 0 -103.5 42t-26.5 116l37 211h-92l-64 -363h-143l64 363h-69l20 111h516l-20 -111h-69z" />
    <glyph glyph-name="sc.a" unicode="&#x1d00;" horiz-adv-x="486" 
d="M433 562l43 -562h-147l-4 84h-132l-34 -84h-139l241 562h172zM231 178h89l-10 194z" />
    <glyph glyph-name="sc.c" unicode="&#x1d04;" horiz-adv-x="412" 
d="M288 568q41 0 72 -11.5t42 -22.5l10 -12l-54 -83q-17 18 -55 18q-42 0 -78.5 -43.5t-51.5 -132.5q-16 -90 7 -133.5t74 -43.5q14 0 26 3t16 6l5 3l24 -83q-4 -4 -12.5 -10.5t-38.5 -17.5t-64 -11q-86 0 -145.5 71t-39.5 187l10 58q23 130 93.5 194t159.5 64z" />
    <glyph glyph-name="sc.d" unicode="&#x1d05;" horiz-adv-x="490" 
d="M327 562q76 0 116 -69t20 -183l-11 -58q-20 -116 -76 -184t-131 -68h-225l99 562h208zM315 281q16 99 8.5 134.5t-40.5 35.5h-41l-60 -340h41q33 0 54 36.5t38 133.5z" />
    <glyph glyph-name="sc.e" unicode="&#x1d07;" horiz-adv-x="380" 
d="M370 451h-128l-18 -104h102l-19 -111h-103l-22 -125h128l-19 -111h-271l99 562h271z" />
    <glyph glyph-name="sc.j" unicode="&#x1d0a;" horiz-adv-x="378" 
d="M215 562h143l-68 -386q-15 -87 -64.5 -134.5t-127.5 -47.5q-33 0 -61 9t-40 18l-12 9l61 94q19 -20 44 -20q27 0 41 29t25 97z" />
    <glyph glyph-name="sc.k" unicode="&#x1d0b;" horiz-adv-x="537" 
d="M517 562l-145 -197l48 -365h-135l-26 212l-78 -106l-18 -106h-143l99 562h143l-36 -203l144 203h147z" />
    <glyph glyph-name="sc.m" unicode="&#x1d0d;" horiz-adv-x="596" 
d="M419 562h177l-61 -562h-143l38 278l-102 -284h-115l-1 269l-62 -263h-135l136 562h182l-2 -257z" />
    <glyph glyph-name="sc.o" unicode="&#x1d0f;" horiz-adv-x="467" 
d="M278 568q87 0 138 -67.5t29 -190.5l-10 -58q-22 -125 -89 -191.5t-151 -66.5q-87 0 -138.5 67.5t-29.5 190.5l10 58q22 125 89 191.5t152 66.5zM297 281q13 68 11.5 107t-11.5 54t-30 15q-30 0 -52.5 -39t-39.5 -137q-13 -68 -11 -107.5t11.5 -54.5t29.5 -15
q30 0 52.5 39.5t39.5 137.5z" />
    <glyph glyph-name="sc.p" unicode="&#x1d18;" horiz-adv-x="484" 
d="M334 562q77 0 114 -52t21 -141q-16 -90 -67 -141t-128 -51h-75l-31 -177h-143l99 562h210zM326 369q8 42 -1.5 62t-40.5 20h-37l-28 -163h36q31 0 47.5 20t23.5 61z" />
    <glyph glyph-name="sc.t" unicode="&#x1d1b;" horiz-adv-x="395" 
d="M64 562h321l-19 -111h-89l-80 -451h-143l80 451h-89z" />
    <glyph glyph-name="sc.u" unicode="&#x1d1c;" horiz-adv-x="468" 
d="M335 562h143l-72 -408q-14 -77 -73 -118.5t-138 -41.5q-78 0 -131.5 42t-40.5 118l72 408h143l-69 -391q-11 -67 37 -67q23 0 39 17.5t21 49.5z" />
    <glyph glyph-name="sc.v" unicode="&#x1d20;" horiz-adv-x="517" 
d="M351 562h141l-232 -562h-181l-34 562h148l14 -372z" />
    <glyph glyph-name="sc.w" unicode="&#x1d21;" horiz-adv-x="701" 
d="M569 562h142l-222 -562h-178l-3 235l-87 -235h-178l-23 562h149l9 -353l125 353h132v-353z" />
    <glyph glyph-name="sc.z" unicode="&#x1d22;" horiz-adv-x="393" 
d="M373 562l-19 -111l-198 -338h138l-20 -113h-289l20 113l197 338h-130l20 111h281z" />
    <glyph glyph-name="endash" unicode="&#x2013;" horiz-adv-x="413" 
d="M64 295h304l-20 -110h-303z" />
    <glyph glyph-name="emdash" unicode="&#x2014;" horiz-adv-x="558" 
d="M64 295h449l-20 -110h-448z" />
    <glyph glyph-name="quoteleft" unicode="&#x2018;" horiz-adv-x="257" 
d="M207 677l-82 -103h63l-23 -131h-115l23 131l68 103h66z" />
    <glyph glyph-name="quoteright" unicode="&#x2019;" horiz-adv-x="257" 
d="M91 677h116l-23 -131l-69 -103h-65l82 103h-64z" />
    <glyph glyph-name="quotesinglbase" unicode="&#x201a;" horiz-adv-x="202" 
d="M51 130h116l-23 -130l-69 -103h-65l82 103h-64z" />
    <glyph glyph-name="quotedblleft" unicode="&#x201c;" horiz-adv-x="402" 
d="M202 677l-82 -103h63l-23 -131h-115l23 131l68 103h66zM357 677l-82 -103h63l-23 -131h-115l23 131l68 103h66z" />
    <glyph glyph-name="quotedblright" unicode="&#x201d;" horiz-adv-x="402" 
d="M241 677h116l-23 -131l-69 -103h-65l82 103h-64zM86 677h116l-23 -131l-69 -103h-65l82 103h-64z" />
    <glyph glyph-name="quotedblbase" unicode="&#x201e;" horiz-adv-x="357" 
d="M206 130h116l-23 -130l-69 -103h-65l82 103h-64zM51 130h116l-23 -130l-69 -103h-65l82 103h-64z" />
    <glyph glyph-name="dagger" unicode="&#x2020;" horiz-adv-x="434" 
d="M298 472h106l-19 -110h-106l-100 -565h-143l100 565h-106l19 110h107l36 205h142z" />
    <glyph glyph-name="daggerdbl" unicode="&#x2021;" horiz-adv-x="482" 
d="M432 362h-98l-44 -251h98l-19 -110h-98l-36 -204h-143l36 204h-98l19 110h98l44 251h-97l19 110h98l36 205h143l-36 -205h98z" />
    <glyph glyph-name="bullet" unicode="&#x2022;" horiz-adv-x="292" 
d="M67 428h180l-32 -180h-180z" />
    <glyph glyph-name="ellipsis" unicode="&#x2026;" horiz-adv-x="738" 
d="M61 150h150l-26 -150h-150zM307 150h150l-26 -150h-150zM553 150h150l-26 -150h-150z" />
    <glyph glyph-name="perthousand" unicode="&#x2030;" horiz-adv-x="1224" 
d="M390 503q-14 -81 -66.5 -130.5t-123.5 -49.5q-73 0 -116.5 50.5t-29.5 129.5q14 81 68.5 130.5t125.5 49.5q72 0 114 -50t28 -130zM165 503q-7 -37 5.5 -57t38.5 -20q25 0 44.5 20t26.5 57q6 37 -6.5 57t-37.5 20q-26 0 -45 -20t-26 -57zM660 353q73 0 114.5 -49.5
t27.5 -129.5q-14 -82 -67 -131t-124 -49q-73 0 -116 50t-29 130q14 81 68.5 130t125.5 49zM691 174q7 37 -5.5 57t-37.5 20q-26 0 -45 -20t-26 -57q-7 -38 5.5 -58t37.5 -20q26 0 45 20t26 58zM1028 353q73 0 114.5 -49.5t27.5 -129.5q-14 -82 -67 -131t-124 -49
q-73 0 -116 50t-29 130q14 81 68.5 130t125.5 49zM1059 174q7 37 -5.5 57t-37.5 20q-26 0 -45 -20t-26 -57q-7 -38 5.5 -58t37.5 -20q26 0 45 20t26 58zM546 677h117l-353 -677h-117z" />
    <glyph glyph-name="guilsinglleft" unicode="&#x2039;" horiz-adv-x="340" 
d="M295 376l-132 -135l85 -135l-99 -69l-104 166l14 77l162 165z" />
    <glyph glyph-name="guilsinglright" unicode="&#x203a;" horiz-adv-x="340" 
d="M191 445l104 -165l-13 -77l-163 -166l-74 69l132 135l-84 135z" />
    <glyph glyph-name="fraction" unicode="&#x2044;" horiz-adv-x="115" 
d="M198 677h117l-353 -677h-117z" />
    <glyph glyph-name="Euro" unicode="&#x20ac;" horiz-adv-x="541" 
d="M399 575q-71 0 -114 -114h169l-65 -100h-329l18 100h69q41 112 107.5 167t140.5 55q37 0 65 -13.5t37 -27.5l9 -13l-52 -81q-14 27 -55 27zM416 316l-64 -100h-110q1 -114 75 -114q19 0 35 7t22 13l7 7l25 -86l-14 -13.5t-39.5 -22t-63.5 -13.5q-73 0 -126 56t-57 166
h-71l18 100h363z" />
    <glyph glyph-name="uni20BA" unicode="&#x20ba;" horiz-adv-x="546" 
d="M383 297h138q-27 -150 -146.5 -223.5t-301.5 -73.5l44 254l-92 -32l19 106l92 33l9 47l-93 -32l19 106l92 32l29 163h138l-19 -111l127 44l-19 -106l-127 -45l-8 -47l127 44l-19 -106l-127 -45l-30 -172q127 50 148 164z" />
    <glyph glyph-name="uni20BD" unicode="&#x20bd;" horiz-adv-x="538" 
d="M390 677q81 0 133.5 -49.5t35.5 -142.5q-16 -93 -81 -142t-146 -49h-67l-13 -71h180l-18 -100h-179l-22 -123h-138l21 123h-61l18 100h61l80 454h196zM421 485q14 84 -55 84h-53l-29 -167h52q71 0 85 83z" />
    <glyph glyph-name="Bitcoin" unicode="&#x20bf;" horiz-adv-x="552" 
d="M534 466q-7 -37 -30 -64t-43 -36l-20 -9q4 -1 10 -4t20.5 -13.5t25 -24t17 -36.5t1.5 -50q-10 -54 -50 -90t-98 -51l-17 -94h-100l15 83h-34l-15 -83h-100l15 83h-106l19 108h67l54 306h-67l19 109h106l14 83h100l-14 -83h34l15 83h100l-18 -98q95 -32 80 -119zM379 240
q5 31 -15 43t-58 12h-37l-19 -110h36q83 0 93 55zM392 447q4 24 -9.5 34t-42.5 10h-36l-16 -87h37q59 0 67 43z" />
    <glyph glyph-name="uni2113" unicode="&#x2113;" horiz-adv-x="535" 
d="M366 683q68 0 106.5 -44.5t23.5 -130.5q-30 -172 -225 -290l-4 -24q-7 -43 6.5 -66.5t42.5 -23.5q12 0 24 4t18 8l5 5l23 -77q-4 -6 -12.5 -14t-40 -22t-68.5 -14q-59 0 -106 40t-42 110l-56 -17l-26 89q43 9 99 32l46 260q15 86 66.5 130.5t119.5 44.5zM383 495
q14 77 -18 77q-31 0 -45 -77l-26 -151q74 67 89 151z" />
    <glyph glyph-name="Sound" unicode="&#x2117;" horiz-adv-x="806" 
d="M465 527q53 0 84 -34t21 -92t-50 -91.5t-92 -33.5h-53l-23 -126h-104l66 377h151zM465 401q8 45 -42 45h-18l-16 -89h19q50 0 57 44zM457 683q143 0 225.5 -101t57.5 -244q-25 -142 -143.5 -243t-261.5 -101q-142 0 -225.5 100.5t-58.5 243.5q26 143 144.5 244t261.5 101
zM696 346q10 62 -3 117q-14 55 -47 92q-69 83 -189 83q-61 0 -123 -24q-59 -24 -110 -66q-51 -44 -83 -99q-34 -55 -45 -118q-12 -61 3 -117q12 -52 46 -92q69 -83 190 -83q61 0 123 24q57 22 109 66q50 43 84 98q34 57 45 119z" />
    <glyph glyph-name="trademark" unicode="&#x2122;" horiz-adv-x="580" 
d="M252 677l-11 -60h-59l-39 -217h-77l38 217h-59l10 60h197zM455 677h100l-22 -277h-77l15 172l-65 -176h-68l-2 176l-48 -172h-66l75 277h97l7 -133z" />
    <glyph glyph-name="uni2126" unicode="&#x2126;" horiz-adv-x="706" 
d="M665 406q-16 -89 -57.5 -164.5t-97.5 -125.5h95l-21 -116h-241l21 116q5 3 12.5 9t29 29.5t39.5 52.5t38 81t31 112q13 77 -16 122t-88 45q-60 0 -105 -45t-58 -122q-11 -64 -9.5 -112t10.5 -81t20 -53t20 -29l8 -9l-20 -116h-241l20 116h95q-38 50 -52.5 123t0.5 167
q22 125 115 201t217 76t190.5 -76t44.5 -201z" />
    <glyph glyph-name="estimated" unicode="&#x212e;" horiz-adv-x="709" 
d="M403 677q137 0 214 -92t50 -247l-3 -14h-457l-39 -220q54 -45 137 -45q61 0 119 24t85 47l27 24l37 -40q-4 -5 -12 -12.5t-35 -27.5t-56.5 -35t-74 -27.5t-90.5 -12.5q-137 0 -214 92.5t-49 246.5q27 157 127 248t234 91zM507 383l33 190q-56 45 -137 45t-152 -45
l-34 -190h290z" />
    <glyph glyph-name="oneseventh" unicode="&#x2150;" horiz-adv-x="620" 
d="M391 360h194l-13 -75q-3 -3 -8.5 -10t-21.5 -32.5t-29.5 -55.5t-29.5 -80.5t-26 -106.5h-95q13 75 40 144.5t47 101.5l20 32h-93zM153 317h-95l46 260l-33 -8l13 78l133 33zM398 677h117l-353 -677h-117z" />
    <glyph glyph-name="oneninth" unicode="&#x2151;" horiz-adv-x="618" 
d="M480 363q56 0 83 -40t16 -104q-8 -48 -32 -89.5t-51.5 -66.5t-54.5 -43t-45 -25l-17 -7l-22 74q48 18 83 51h-6q-45 0 -72.5 32.5t-16.5 92.5q9 53 47.5 89t87.5 36zM490 238q10 49 -18 49q-27 0 -34 -49q-10 -49 17 -49q25 0 35 49zM153 317h-95l46 260l-33 -8l13 78
l133 33zM398 677h117l-353 -677h-117z" />
    <glyph glyph-name="onetenth" unicode="&#x2152;" horiz-adv-x="801" 
d="M664 363q54 0 83 -47.5t13 -135.5q-16 -91 -54.5 -137t-93.5 -46q-52 0 -81 47.5t-13 135.5q16 91 54 137t92 46zM664 180q19 106 -6 106t-44 -106t6 -106t44 106zM360 252l14 78l132 33l-64 -363h-94l46 260zM153 317h-95l46 260l-33 -8l13 78l133 33zM398 677h117
l-353 -677h-117z" />
    <glyph glyph-name="onethird" unicode="&#x2153;" horiz-adv-x="590" 
d="M153 317h-95l46 260l-33 -8l13 78l133 33zM398 677h117l-353 -677h-117zM553 261q-4 -21 -15.5 -39.5t-21.5 -25.5l-9 -8q4 -3 9 -9.5t11.5 -28t2.5 -46.5q-9 -50 -42.5 -78.5t-83.5 -28.5q-28 0 -51.5 8.5t-33.5 17.5l-10 9l42 66q16 -24 46 -24q34 0 40 37
q3 17 -3.5 28t-18.5 11h-38l14 77h30q31 0 37 31q2 12 -3.5 20t-19.5 8q-12 0 -24.5 -6t-18.5 -12l-6 -6l-19 65q36 36 92 36q47 0 74.5 -28.5t19.5 -73.5z" />
    <glyph glyph-name="twothirds" unicode="&#x2154;" horiz-adv-x="670" 
d="M633 261q-4 -21 -15.5 -39.5t-21.5 -25.5l-10 -8q4 -3 9.5 -9.5t12 -28t2.5 -46.5q-9 -50 -43 -78.5t-84 -28.5q-28 0 -51.5 8.5t-33.5 17.5l-9 9l42 66q16 -24 46 -24q34 0 40 37q3 17 -3.5 28t-18.5 11h-38l14 77h30q31 0 37 31q4 28 -23 28q-12 0 -24.5 -6t-18.5 -12
l-6 -6l-19 65q36 36 92 36q47 0 74 -28.5t20 -73.5zM265 394l-14 -77h-174l-32 62q6 4 15.5 11.5t35.5 30t46.5 44t39.5 50.5t23 53q2 14 -5.5 24t-23.5 10q-12 0 -24 -5.5t-18 -10.5l-7 -6l-19 65q46 35 100 35q51 0 75.5 -30.5t16.5 -73.5q-8 -47 -40 -92.5t-60 -67.5
l-28 -22h93zM478 677h117l-353 -677h-117z" />
    <glyph glyph-name="onefifth" unicode="&#x2155;" horiz-adv-x="610" 
d="M561 282h-95l-11 -47q50 2 76.5 -30.5t16.5 -88.5q-10 -55 -46 -87t-87 -32q-26 0 -50.5 8.5t-36.5 17.5l-12 9l42 65q17 -23 50 -23q38 0 45 42q3 16 -4.5 28.5t-26.5 12.5l-40 -7l-32 38l40 172h185zM153 317h-95l46 260l-33 -8l13 78l133 33zM398 677h117l-353 -677
h-117z" />
    <glyph glyph-name="twofifths" unicode="&#x2156;" horiz-adv-x="690" 
d="M641 282h-95l-11 -47q50 2 76 -30.5t16 -88.5q-10 -55 -45.5 -87t-86.5 -32q-26 0 -50.5 8.5t-36.5 17.5l-12 9l42 65q16 -23 49 -23q39 0 46 42q3 16 -4.5 28.5t-26.5 12.5l-40 -7l-32 38l39 172h186zM265 394l-14 -77h-174l-32 62q6 4 15.5 11.5t35.5 30t46.5 44
t39.5 50.5t23 53q2 14 -5.5 24t-23.5 10q-12 0 -24 -5.5t-18 -10.5l-7 -6l-19 65q46 35 100 35q51 0 75.5 -30.5t16.5 -73.5q-8 -47 -40 -92.5t-60 -67.5l-28 -22h93zM478 677h117l-353 -677h-117z" />
    <glyph glyph-name="threefifths" unicode="&#x2157;" horiz-adv-x="671" 
d="M622 282h-95l-11 -47q50 2 76 -30.5t16 -88.5q-10 -55 -46 -87t-87 -32q-26 0 -50.5 8.5t-36.5 17.5l-11 9l42 65q16 -23 49 -23q39 0 46 42q3 16 -4.5 28.5t-26.5 12.5l-40 -7l-32 38l39 172h186zM266 421q-9 -50 -45 -78.5t-86 -28.5q-28 0 -50.5 9t-30.5 17l-9 9
l42 65q16 -23 46 -23q34 0 40 37q3 17 -3.5 28t-18.5 11h-38l14 77h30q31 0 37 31q4 27 -23 27q-12 0 -24 -6t-19 -12l-6 -5l-19 65q41 36 97 36q47 0 71.5 -28t17.5 -74q-4 -21 -15.5 -39.5t-21.5 -26.5l-10 -7q4 -3 9.5 -9.5t12 -28t2.5 -46.5zM459 677h117l-353 -677
h-117z" />
    <glyph glyph-name="fourfifths" unicode="&#x2158;" horiz-adv-x="685" 
d="M636 282h-95l-11 -47q50 2 76.5 -30.5t16.5 -88.5q-10 -55 -47 -87t-88 -32q-26 0 -50 8.5t-36 17.5l-11 9l42 65q17 -23 50 -23q38 0 45 42q3 16 -6 28.5t-29 12.5q-10 0 -19 -1.5t-13 -3.5l-4 -2l-32 38l40 172h185zM142 317l15 86h-112l12 70l138 204h105l-35 -197h33
l-14 -77h-32l-16 -86h-94zM137 470h37l15 85zM473 677h117l-353 -677h-117z" />
    <glyph glyph-name="onesixth" unicode="&#x2159;" horiz-adv-x="582" 
d="M462 256q42 -3 67 -36t15 -93q-11 -60 -47.5 -95t-85.5 -35q-52 0 -83 38t-19 106q8 47 32.5 88t53.5 66t56.5 43.5t46.5 25.5l18 8l22 -75q-43 -14 -76 -41zM451 127q4 24 -0.5 39t-15.5 15q-12 0 -22 -15t-14 -39t0.5 -39t16.5 -15q11 0 21 15t14 39zM153 317h-94
l46 260l-34 -8l14 78l132 33zM398 677h117l-353 -677h-117z" />
    <glyph glyph-name="fivesixths" unicode="&#x215a;" horiz-adv-x="639" 
d="M519 256q42 -3 67 -36t15 -93q-11 -60 -47 -95t-85 -35q-52 0 -83.5 38t-19.5 106q8 47 32.5 88t53.5 66t56.5 43.5t45.5 25.5l19 8l22 -75q-43 -14 -76 -41zM508 127q4 24 -0.5 39t-15.5 15q-12 0 -22 -15t-14 -39t0.5 -39t16.5 -15q11 0 21 15t14 39zM276 433
q-10 -55 -47.5 -87t-91.5 -32q-26 0 -49 9t-33 17l-10 9l42 65q16 -23 49 -23q20 0 31.5 12.5t14.5 29.5q6 41 -31 41l-41 -7l-31 38l39 172h185l-13 -78h-95l-11 -47q50 2 76 -30.5t16 -88.5zM454 677h117l-353 -677h-117z" />
    <glyph glyph-name="oneeigth" unicode="&#x215b;" horiz-adv-x="629" 
d="M592 265q-8 -46 -50 -74q37 -31 28 -83q-9 -54 -47 -82.5t-87 -28.5q-50 0 -83 29t-24 82q9 52 57 83q-32 28 -24 74q9 46 45 72t83 26q48 0 79 -26t23 -72zM478 112q4 18 -2 29t-19 11q-27 0 -35 -40q-6 -39 21 -39q13 0 22.5 10.5t12.5 28.5zM498 257q3 13 -1.5 21.5
t-15.5 8.5q-21 0 -28 -30q-5 -29 18 -29q22 0 27 29zM153 317h-94l46 260l-34 -8l14 78l132 33zM398 677h117l-353 -677h-117z" />
    <glyph glyph-name="threeeigths" unicode="&#x215c;" horiz-adv-x="687" 
d="M650 265q-8 -46 -50 -74q37 -31 28 -83q-10 -54 -47.5 -82.5t-85.5 -28.5q-50 0 -83.5 29t-24.5 82q9 52 57 83q-32 28 -24 74q8 45 45.5 71.5t81.5 26.5q46 0 78.5 -26.5t24.5 -71.5zM536 112q3 18 -2.5 29t-18.5 11q-28 0 -35 -40q-6 -39 21 -39q13 0 22.5 10.5
t12.5 28.5zM556 257q5 30 -17 30q-23 0 -28 -30q-5 -29 17 -29q23 0 28 29zM266 421q-9 -50 -45 -78.5t-86 -28.5q-28 0 -50.5 9t-30.5 17l-9 9l42 65q16 -23 46 -23q34 0 40 37q3 17 -3.5 28t-18.5 11h-38l14 77h30q31 0 37 31q4 27 -23 27q-12 0 -24 -6t-19 -12l-6 -5
l-19 65q41 36 97 36q47 0 71.5 -28t17.5 -74q-4 -21 -15.5 -39.5t-21.5 -26.5l-10 -7q4 -3 9.5 -9.5t12 -28t2.5 -46.5zM456 677h117l-353 -677h-117z" />
    <glyph glyph-name="fiveeigths" unicode="&#x215d;" horiz-adv-x="687" 
d="M650 265q-8 -46 -50 -74q37 -31 28 -83q-10 -54 -48 -82.5t-86 -28.5q-50 0 -83 29t-24 82q9 52 57 83q-32 28 -24 74q9 46 46.5 72t81.5 26q45 0 77.5 -26.5t24.5 -71.5zM536 112q4 18 -2 29t-19 11q-27 0 -35 -40q-6 -39 21 -39q13 0 22.5 10.5t12.5 28.5zM556 257
q3 13 -1.5 21.5t-15.5 8.5q-21 0 -28 -30q-5 -29 18 -29q22 0 27 29zM276 433q-10 -55 -47.5 -87t-91.5 -32q-26 0 -49 9t-33 17l-10 9l42 65q16 -23 49 -23q20 0 31.5 12.5t14.5 29.5q6 41 -31 41l-41 -7l-31 38l39 172h185l-13 -78h-95l-11 -47q50 2 76 -30.5t16 -88.5z
M456 677h117l-353 -677h-117z" />
    <glyph glyph-name="seveneigths" unicode="&#x215e;" horiz-adv-x="629" 
d="M592 265q-8 -46 -50 -74q37 -31 28 -83q-9 -54 -47 -82.5t-87 -28.5q-50 0 -83 29t-24 82q9 52 57 83q-32 28 -24 74q9 46 46 72t81 26q46 0 78.5 -26.5t24.5 -71.5zM478 112q4 18 -2 29t-19 11q-27 0 -35 -40q-6 -39 21 -39q13 0 22.5 10.5t12.5 28.5zM498 257
q3 13 -1.5 21.5t-15.5 8.5q-21 0 -28 -30q-5 -29 18 -29q22 0 27 29zM168 317h-94q13 75 40 144.5t47 101.5l20 32h-93l15 82h194l-13 -75q-3 -3 -8.5 -10t-21.5 -32.5t-30 -55.5t-30 -80.5t-26 -106.5zM398 677h117l-353 -677h-117z" />
    <glyph glyph-name="numeratorone" unicode="&#x215f;" horiz-adv-x="550" 
d="M153 317h-94l46 260l-34 -8l14 78l132 33zM398 677h117l-353 -677h-117z" />
    <glyph glyph-name="zerothirds" unicode="&#x2189;" horiz-adv-x="645" 
d="M294 497q-16 -90 -57 -136.5t-96 -46.5q-56 0 -80.5 46.5t-8.5 136.5t57 136.5t96 46.5t80 -46.5t9 -136.5zM148 497q-19 -106 6 -106t44 106q19 105 -6 105t-44 -105zM608 261q-4 -21 -15.5 -39.5t-20.5 -25.5l-10 -8q4 -3 9 -9.5t11.5 -28t2.5 -46.5q-8 -50 -44 -78.5
t-86 -28.5q-28 0 -50.5 8.5t-30.5 17.5l-9 9l42 66q16 -24 46 -24q33 0 39 37q3 17 -3 28t-19 11h-38l14 77h30q16 0 25.5 9t11.5 22q2 12 -3.5 20t-19.5 8q-12 0 -24 -6t-18 -12l-6 -6l-19 65q40 36 96 36q47 0 72 -28.5t17 -73.5zM453 677h117l-353 -677h-117z" />
    <glyph glyph-name="ArrowL" unicode="&#x2190;" horiz-adv-x="564" 
d="M504 397l-21 -116h-226l54 -135h-174l-77 193l146 193h174l-102 -135h226z" />
    <glyph glyph-name="ArrowU" unicode="&#x2191;" horiz-adv-x="537" 
d="M303 560l174 -111l-31 -174l-121 78l-40 -226h-116l40 226l-149 -78l31 174z" />
    <glyph glyph-name="ArrowR" unicode="&#x2192;" horiz-adv-x="564" 
d="M426 532l78 -193l-146 -193h-174l102 135h-226l20 116h227l-55 135h174z" />
    <glyph glyph-name="ArrowD" unicode="&#x2193;" horiz-adv-x="537" 
d="M328 326l149 78l-31 -174l-213 -112l-173 112l31 174l121 -78l40 226h116z" />
    <glyph glyph-name="ArrowNW" unicode="&#x2196;" horiz-adv-x="543" 
d="M483 428l-158 -40l132 -160l-97 -82l-132 160l-67 -151l-101 123l96 215l225 58z" />
    <glyph glyph-name="ArrowNE" unicode="&#x2197;" horiz-adv-x="534" 
d="M455 493l19 -215l-144 -123l-14 151l-188 -160l-68 82l188 160l-143 40l144 123z" />
    <glyph glyph-name="ArrowSE" unicode="&#x2198;" horiz-adv-x="543" 
d="M381 520l102 -123l-96 -215l-226 -58l-101 123l158 41l-132 160l97 82l131 -160z" />
    <glyph glyph-name="ArrowSW" unicode="&#x2199;" horiz-adv-x="534" 
d="M474 448l-188 -160l144 -41l-145 -123l-205 58l-20 215l145 123l14 -150l188 160z" />
    <glyph glyph-name="WhiteArrowL" unicode="&#x21e6;" 
d="M447 683q144 0 230.5 -101.5t61.5 -243.5q-25 -143 -140 -243.5t-257 -100.5q-143 0 -230 101t-62 243q26 144 140.5 244.5t256.5 100.5zM694 338q10 62 -3 117q-13 54 -47 95t-84 64q-51 24 -113 24q-61 0 -120 -24q-58 -22 -107 -64q-47 -40 -81 -95q-34 -57 -44 -117
q-11 -60 3 -116q13 -54 47 -95q35 -43 84 -65q54 -23 113 -23q60 0 121 23q58 23 106 65q50 43 81 95q34 56 44 116zM497 532l-101 -135h226l-21 -116h-226l54 -135h-174l-77 193l145 193h174z" />
    <glyph glyph-name="WhiteArrowUp" unicode="&#x21e7;" 
d="M447 683q144 0 230.5 -101.5t61.5 -243.5q-25 -143 -140 -243.5t-257 -100.5q-143 0 -230 101t-62 243q26 144 140.5 244.5t256.5 100.5zM694 338q10 62 -3 117q-13 54 -47 95t-84 64q-51 24 -113 24q-61 0 -120 -24q-58 -22 -107 -64q-47 -40 -81 -95q-34 -57 -44 -117
q-11 -60 3 -116q13 -54 47 -95q35 -43 84 -65q54 -23 113 -23q60 0 121 23q58 23 106 65q50 43 81 95q34 56 44 116zM221 449l213 111l173 -111l-30 -174l-122 78l-40 -226h-116l40 226l-149 -78z" />
    <glyph glyph-name="WhiteArrowR" unicode="&#x21e8;" 
d="M447 683q144 0 230.5 -101.5t61.5 -243.5q-25 -143 -140 -243.5t-257 -100.5q-143 0 -230 101t-62 243q26 144 140.5 244.5t256.5 100.5zM694 338q10 62 -3 117q-13 54 -47 95t-84 64q-51 24 -113 24q-61 0 -120 -24q-58 -22 -107 -64q-47 -40 -81 -95q-34 -57 -44 -117
q-11 -60 3 -116q13 -54 47 -95q35 -43 84 -65q54 -23 113 -23q60 0 121 23q58 23 106 65q50 43 81 95q34 56 44 116zM360 532h174l78 -193l-146 -193h-174l102 135h-226l20 116h226z" />
    <glyph glyph-name="WhiteArrowD" unicode="&#x21e9;" 
d="M447 683q144 0 230.5 -101.5t61.5 -243.5q-25 -143 -140 -243.5t-257 -100.5q-143 0 -230 101t-62 243q26 144 140.5 244.5t256.5 100.5zM694 338q10 62 -3 117q-13 54 -47 95t-84 64q-51 24 -113 24q-61 0 -120 -24q-58 -22 -107 -64q-47 -40 -81 -95q-34 -57 -44 -117
q-11 -60 3 -116q13 -54 47 -95q35 -43 84 -65q54 -23 113 -23q60 0 121 23q58 23 106 65q50 43 81 95q34 56 44 116zM490 552l-39 -226l148 78l-30 -174l-213 -112l-174 112l31 174l121 -78l40 226h116z" />
    <glyph glyph-name="partialdiff" unicode="&#x2202;" horiz-adv-x="520" 
d="M251 683l46 -24q137 -81 175 -210q21 -73 7 -155q-27 -151 -93.5 -225.5t-166.5 -74.5q-81 0 -138.5 50t-42.5 132q14 85 93 139.5t173 54.5h39q-3 41 -20.5 77.5t-40.5 58t-46 37.5t-39 23l-16 6zM230 104q34 0 58.5 38t44.5 136q-62 -1 -103.5 -30t-49.5 -72
q-5 -29 8 -50.5t42 -21.5z" />
    <glyph glyph-name="uni2206" unicode="&#x2206;" horiz-adv-x="579" 
d="M458 474l86 -363l-19 -111h-490l19 111l214 363h190zM207 111h184l-54 212z" />
    <glyph glyph-name="product" unicode="&#x220f;" horiz-adv-x="613" 
d="M154 677h424l-119 -677h-150l99 561h-124l-99 -561h-150z" />
    <glyph glyph-name="summation" unicode="&#x2211;" horiz-adv-x="546" 
d="M511 677l-21 -116h-193l87 -223l-165 -222h193l-21 -116h-356l20 116l166 222l-87 223l20 116h357z" />
    <glyph glyph-name="minus" unicode="&#x2212;" horiz-adv-x="350" 
d="M64 295h241l-20 -110h-240z" />
    <glyph glyph-name="uni2215" unicode="&#x2215;" horiz-adv-x="530" 
d="M383 677h117l-353 -677h-117z" />
    <glyph glyph-name="uni2219" unicode="&#x2219;" horiz-adv-x="302" 
d="M77 428h180l-32 -180h-180z" />
    <glyph glyph-name="radical" unicode="&#x221a;" horiz-adv-x="707" 
d="M503 677h169l-21 -116h-81l-222 -561h-186l-53 264h-74l20 116h188l46 -243z" />
    <glyph glyph-name="infinity" unicode="&#x221e;" horiz-adv-x="748" 
d="M538 520q84 0 134.5 -52t37.5 -130q-14 -79 -76 -130t-145 -51q-88 0 -133 63q-63 -63 -149 -63q-84 0 -133.5 52t-35.5 129q14 79 75 130.5t144 51.5q86 0 134 -63q63 63 147 63zM307 338q5 30 -9 50.5t-42 20.5t-49 -20.5t-26 -50.5t8.5 -50t41.5 -20t49.5 20t26.5 50z
M567 338q5 30 -9 50.5t-42 20.5t-49.5 -20.5t-26.5 -50.5t9 -50t42 -20t49.5 20t26.5 50z" />
    <glyph glyph-name="integral" unicode="&#x222b;" horiz-adv-x="662" 
d="M530 683q26 0 50.5 -8.5t35.5 -16.5l11 -8l-53 -81q-12 14 -35 14q-44 0 -66 -81l-146 -530q-26 -95 -70.5 -138t-109.5 -43q-37 0 -65 8t-38 16l-9 8l53 82q15 -14 41 -14q38 0 60 81l146 530q49 181 195 181z" />
    <glyph glyph-name="approxequal" unicode="&#x2248;" horiz-adv-x="424" 
d="M154 195q22 0 54 -16t55 -16q20 0 42 8t35 16l12 8l-19 -111q-45 -32 -90 -32q-22 0 -54 16t-55 16q-20 0 -42 -8t-34 -16l-13 -8l19 111q45 32 90 32zM290 316q20 0 42 8t34 16l13 8l-19 -111q-45 -32 -90 -32q-22 0 -54 16t-55 16q-20 0 -42 -8t-35 -16l-12 -8l19 111
q45 32 90 32q22 0 54 -16t55 -16z" />
    <glyph glyph-name="notequal" unicode="&#x2260;" horiz-adv-x="378" 
d="M313 223h-84l-24 -49h100l-20 -111h-134l-31 -65h-58l31 65h-48l19 111h83l24 49h-98l20 110h132l31 63h58l-31 -63h50z" />
    <glyph glyph-name="lessequal" unicode="&#x2264;" horiz-adv-x="458" 
d="M35 21l19 110h271l-19 -110h-271zM423 454l-170 -93l137 -93l-65 -101l-271 194l340 195z" />
    <glyph glyph-name="greaterequal" unicode="&#x2265;" horiz-adv-x="442" 
d="M35 21l19 110h271l-19 -110h-271zM67 167l-30 101l171 93l-138 93l66 102l271 -195z" />
    <glyph glyph-name="COne" unicode="&#x2460;" 
d="M341 434l12 65l126 31l-68 -385h-84l52 299zM447 683q144 0 230.5 -101.5t61.5 -243.5q-25 -143 -140 -243.5t-257 -100.5q-143 0 -230 101t-62 243q26 144 140.5 244.5t256.5 100.5zM694 338q10 62 -3 117q-13 54 -47 95t-84 64q-51 24 -113 24q-61 0 -120 -24
q-58 -22 -107 -64q-47 -40 -81 -95q-34 -57 -44 -117q-11 -60 3 -116q13 -54 47 -95q35 -43 84 -65q54 -23 113 -23q60 0 121 23q58 23 106 65q50 43 81 95q34 56 44 116z" />
    <glyph glyph-name="CTwo" unicode="&#x2461;" 
d="M418 534q53 0 82.5 -32t21.5 -78q-8 -44 -47.5 -97.5t-75.5 -84.5l-36 -32h117l-11 -65h-179l-31 59l75 68.5t63 72.5t41 79q4 20 -6 32.5t-32 12.5q-13 0 -27 -4.5t-21 -9.5l-7 -5l-15 52q39 32 88 32zM447 683q144 0 230.5 -101.5t61.5 -243.5q-25 -143 -140 -243.5
t-257 -100.5q-143 0 -230 101t-62 243q26 144 140.5 244.5t256.5 100.5zM694 338q10 62 -3 117q-13 54 -47 95t-84 64q-51 24 -113 24q-61 0 -120 -24q-58 -22 -107 -64q-47 -40 -81 -95q-34 -57 -44 -117q-11 -60 3 -116q13 -54 47 -95q35 -43 84 -65q54 -23 113 -23
q60 0 121 23q58 23 106 65q50 43 81 95q34 56 44 116z" />
    <glyph glyph-name="CThree" unicode="&#x2462;" 
d="M417 534q50 0 78.5 -29t20.5 -76q-5 -28 -20.5 -48.5t-29.5 -26.5l-13 -7q6 -3 13.5 -8.5t18.5 -30t5 -56.5q-9 -48 -46.5 -79t-83.5 -31q-28 0 -51.5 8t-32.5 16l-10 8l34 52q20 -19 51 -19q22 0 37 14.5t20 39.5q8 54 -35 54h-31l11 65h23q47 0 55 44q3 20 -6 32.5
t-28 12.5q-12 0 -25 -4.5t-20 -9.5l-6 -5l-16 52q35 32 87 32zM447 683q144 0 230.5 -101.5t61.5 -243.5q-25 -143 -140 -243.5t-257 -100.5q-143 0 -230 101t-62 243q26 144 140.5 244.5t256.5 100.5zM694 338q10 62 -3 117q-13 54 -47 95t-84 64q-51 24 -113 24
q-61 0 -120 -24q-58 -22 -107 -64q-47 -40 -81 -95q-34 -57 -44 -117q-11 -60 3 -116q13 -54 47 -95q35 -43 84 -65q54 -23 113 -23q60 0 121 23q58 23 106 65q50 43 81 95q34 56 44 116z" />
    <glyph glyph-name="CFour" unicode="&#x2463;" 
d="M404 530h101l-40 -222h38l-12 -65h-37l-17 -98h-84l17 98h-127l11 65zM381 308l22 121l-81 -121h59zM447 683q144 0 230.5 -101.5t61.5 -243.5q-25 -143 -140 -243.5t-257 -100.5q-143 0 -230 101t-62 243q26 144 140.5 244.5t256.5 100.5zM694 338q10 62 -3 117
q-13 54 -47 95t-84 64q-51 24 -113 24q-61 0 -120 -24q-58 -22 -107 -64q-47 -40 -81 -95q-34 -57 -44 -117q-11 -60 3 -116q13 -54 47 -95q35 -43 84 -65q54 -23 113 -23q60 0 121 23q58 23 106 65q50 43 81 95q34 56 44 116z" />
    <glyph glyph-name="CFive" unicode="&#x2464;" 
d="M302 350l42 180h188l-12 -65h-107l-18 -77h11q48 0 78 -31.5t19 -91.5t-50.5 -91.5t-89.5 -31.5q-29 0 -53 8t-34 16l-9 8l34 52q22 -19 56 -19q25 0 41 16t21 42q10 58 -45 58q-20 0 -39 -6zM447 683q144 0 230.5 -101.5t61.5 -243.5q-25 -143 -140 -243.5t-257 -100.5
q-143 0 -230 101t-62 243q26 144 140.5 244.5t256.5 100.5zM694 338q10 62 -3 117q-13 54 -47 95t-84 64q-51 24 -113 24q-61 0 -120 -24q-58 -22 -107 -64q-47 -40 -81 -95q-34 -57 -44 -117q-11 -60 3 -116q13 -54 47 -95q35 -43 84 -65q54 -23 113 -23q60 0 121 23
q58 23 106 65q50 43 81 95q34 56 44 116z" />
    <glyph glyph-name="CSix" unicode="&#x2465;" 
d="M412 413q47 0 76 -37.5t18 -97.5q-11 -61 -51.5 -98.5t-86.5 -37.5q-54 0 -86 40t-20 112q9 49 34.5 92.5t55.5 70.5t59 47t48 28l19 9l18 -64q-54 -17 -101 -65q6 1 17 1zM424 278q5 33 -2.5 52.5t-26.5 19.5t-33.5 -19.5t-20.5 -52.5q-5 -33 2.5 -53t26.5 -20t33.5 20
t20.5 53zM447 683q144 0 230.5 -101.5t61.5 -243.5q-25 -143 -140 -243.5t-257 -100.5q-143 0 -230 101t-62 243q26 144 140.5 244.5t256.5 100.5zM694 338q10 62 -3 117q-13 54 -47 95t-84 64q-51 24 -113 24q-61 0 -120 -24q-58 -22 -107 -64q-47 -40 -81 -95
q-34 -57 -44 -117q-11 -60 3 -116q13 -54 47 -95q35 -43 84 -65q54 -23 113 -23q60 0 121 23q58 23 106 65q50 43 81 95q34 56 44 116z" />
    <glyph glyph-name="CSeven" unicode="&#x2466;" 
d="M318 461l13 69h198l-13 -69q-10 -12 -26.5 -35t-51.5 -104.5t-51 -176.5h-84q16 95 48.5 174t56.5 111l24 31h-114zM447 683q144 0 230.5 -101.5t61.5 -243.5q-25 -143 -140 -243.5t-257 -100.5q-143 0 -230 101t-62 243q26 144 140.5 244.5t256.5 100.5zM694 338
q10 62 -3 117q-13 54 -47 95t-84 64q-51 24 -113 24q-61 0 -120 -24q-58 -22 -107 -64q-47 -40 -81 -95q-34 -57 -44 -117q-11 -60 3 -116q13 -54 47 -95q35 -43 84 -65q54 -23 113 -23q60 0 121 23q58 23 106 65q50 43 81 95q34 56 44 116z" />
    <glyph glyph-name="CEight" unicode="&#x2467;" 
d="M427 534q49 0 82 -27t25 -73q-10 -58 -68 -87q53 -30 42 -94q-10 -55 -50 -83t-89 -28q-50 0 -85 30t-25 85q11 64 74 94q-47 30 -37 83q8 47 46 73.5t85 26.5zM427 261q4 26 -5 41t-28 15t-34 -15t-19 -41q-4 -25 5 -40.5t28 -15.5q20 0 34.5 15.5t18.5 40.5zM450 426
q4 19 -4 31.5t-25 12.5q-16 0 -28.5 -12.5t-16.5 -31.5q-3 -20 5 -32.5t24 -12.5q17 0 29 12.5t16 32.5zM447 683q144 0 230.5 -101.5t61.5 -243.5q-25 -143 -140 -243.5t-257 -100.5q-143 0 -230 101t-62 243q26 144 140.5 244.5t256.5 100.5zM694 338q10 62 -3 117
q-13 54 -47 95t-84 64q-51 24 -113 24q-61 0 -120 -24q-58 -22 -107 -64q-47 -40 -81 -95q-34 -57 -44 -117q-11 -60 3 -116q13 -54 47 -95q35 -43 84 -65q54 -23 113 -23q60 0 121 23q58 23 106 65q50 43 81 95q34 56 44 116z" />
    <glyph glyph-name="CNine" unicode="&#x2468;" 
d="M431 534q51 0 83 -40t19 -112q-9 -49 -33.5 -92.5t-53.5 -70.5t-56.5 -47t-45.5 -28l-19 -9l-18 63q59 22 107 79q-18 -4 -27 -4q-49 0 -78.5 35t-18.5 96q11 62 51.5 96t89.5 34zM455 404q11 66 -30 66t-53 -66q-11 -67 30 -67t53 67zM447 683q144 0 230.5 -101.5
t61.5 -243.5q-25 -143 -140 -243.5t-257 -100.5q-143 0 -230 101t-62 243q26 144 140.5 244.5t256.5 100.5zM694 338q10 62 -3 117q-13 54 -47 95t-84 64q-51 24 -113 24q-61 0 -120 -24q-58 -22 -107 -64q-47 -40 -81 -95q-34 -57 -44 -117q-11 -60 3 -116q13 -54 47 -95
q35 -43 84 -65q54 -23 113 -23q60 0 121 23q58 23 106 65q50 43 81 95q34 56 44 116z" />
    <glyph glyph-name="CZero" unicode="&#x24ea;" 
d="M429 534q53 0 80.5 -47t9.5 -149q-18 -103 -58 -149.5t-91 -46.5q-53 0 -81 47t-10 149q18 103 58.5 149.5t91.5 46.5zM444 338l7 49l-104 -146q3 -43 28 -43q45 0 69 140zM348 293l103 145q-5 39 -27 39q-45 0 -69 -139zM447 683q144 0 230.5 -101.5t61.5 -243.5
q-25 -143 -140 -243.5t-257 -100.5q-143 0 -230 101t-62 243q26 144 140.5 244.5t256.5 100.5zM694 338q10 62 -3 117q-13 54 -47 95t-84 64q-51 24 -113 24q-61 0 -120 -24q-58 -22 -107 -64q-47 -40 -81 -95q-34 -57 -44 -117q-11 -60 3 -116q13 -54 47 -95q35 -43 84 -65
q54 -23 113 -23q60 0 121 23q58 23 106 65q50 43 81 95q34 56 44 116z" />
    <glyph glyph-name="lozenge" unicode="&#x25ca;" horiz-adv-x="592" 
d="M449 677l108 -339l-227 -338h-188l-107 338l226 339h188zM258 125l135 213l-60 214l-135 -214z" />
    <glyph glyph-name="BCOne" unicode="&#x278a;" 
d="M447 683q144 0 230.5 -101.5t61.5 -243.5q-25 -143 -140 -243.5t-257 -100.5q-143 0 -230 101t-62 243q26 144 140.5 244.5t256.5 100.5zM411 145l68 385l-126 -31l-12 -65l38 10l-52 -299h84z" />
    <glyph glyph-name="BCTwo" unicode="&#x278b;" 
d="M447 683q144 0 230.5 -101.5t61.5 -243.5q-25 -143 -140 -243.5t-257 -100.5q-143 0 -230 101t-62 243q26 144 140.5 244.5t256.5 100.5zM522 424q8 46 -21.5 78t-82.5 32q-22 0 -44 -8t-33 -16l-11 -8l15 -52q25 19 55 19q22 0 32 -12.5t6 -32.5q-6 -33 -41 -79
t-63 -72.5l-75 -68.5l31 -59h179l11 65h-117l15.5 13t35 33t46 49.5t39 57.5t23.5 61z" />
    <glyph glyph-name="BCThree" unicode="&#x278c;" 
d="M447 683q144 0 230.5 -101.5t61.5 -243.5q-25 -143 -140 -243.5t-257 -100.5q-143 0 -230 101t-62 243q26 144 140.5 244.5t256.5 100.5zM516 429q8 47 -20.5 76t-78.5 29q-23 0 -45 -8t-32 -16l-10 -8l16 -52q23 19 51 19q19 0 28 -12.5t6 -32.5q-8 -44 -55 -44h-23
l-11 -65h31q43 0 35 -54q-5 -25 -20 -39.5t-37 -14.5q-14 0 -26.5 4.5t-18.5 9.5l-6 5l-34 -52q30 -32 94 -32q46 0 83.5 31t46.5 79q6 32 -3.5 56t-21.5 32l-12 7q2 1 5.5 2.5t13 8t17.5 15t16 23.5t11 33z" />
    <glyph glyph-name="BCFour" unicode="&#x278d;" 
d="M381 308h-59l81 121zM447 683q144 0 230.5 -101.5t61.5 -243.5q-25 -143 -140 -243.5t-257 -100.5q-143 0 -230 101t-62 243q26 144 140.5 244.5t256.5 100.5zM503 308h-38l40 222h-101l-150 -222l-11 -65h127l-17 -98h84l17 98h37z" />
    <glyph glyph-name="BCFive" unicode="&#x278e;" 
d="M447 683q144 0 230.5 -101.5t61.5 -243.5q-25 -143 -140 -243.5t-257 -100.5q-143 0 -230 101t-62 243q26 144 140.5 244.5t256.5 100.5zM520 465l12 65h-188l-42 -180l33 -33q20 6 39 6q55 0 45 -58q-5 -26 -21 -42t-41 -16q-15 0 -29 4.5t-20 9.5l-7 5l-34 -52
q30 -32 96 -32q50 0 89.5 31.5t50.5 91.5t-19 91.5t-78 31.5h-11l18 77h107z" />
    <glyph glyph-name="BCSix" unicode="&#x278f;" 
d="M395 350q19 0 26.5 -19.5t2.5 -52.5q-6 -33 -20.5 -53t-33.5 -20t-26.5 20t-2.5 53q6 33 20.5 52.5t33.5 19.5zM447 683q144 0 230.5 -101.5t61.5 -243.5q-25 -143 -140 -243.5t-257 -100.5q-143 0 -230 101t-62 243q26 144 140.5 244.5t256.5 100.5zM506 278
q11 60 -18 97.5t-76 37.5q-11 0 -17 -1q21 21 46 37.5t40 22.5l15 5l-18 64q-8 -3 -20.5 -9t-46 -27.5t-61 -47.5t-53.5 -70t-35 -93q-12 -72 20 -112t86 -40q46 0 86.5 37.5t51.5 98.5z" />
    <glyph glyph-name="BCSeven" unicode="&#x2790;" 
d="M447 683q144 0 230.5 -101.5t61.5 -243.5q-25 -143 -140 -243.5t-257 -100.5q-143 0 -230 101t-62 243q26 144 140.5 244.5t256.5 100.5zM516 461l13 69h-198l-13 -69h114q-4 -4 -10.5 -12t-24 -37.5t-33.5 -63t-33.5 -88.5t-27.5 -115h84q10 60 27.5 114.5t34.5 89.5
t32.5 61.5t24.5 38.5z" />
    <glyph glyph-name="BCEight" unicode="&#x2791;" 
d="M421 470q17 0 25 -12.5t4 -31.5q-4 -20 -16 -32.5t-29 -12.5q-16 0 -24 12.5t-5 32.5q4 19 16.5 31.5t28.5 12.5zM394 317q19 0 28 -15t5 -41q-4 -25 -18.5 -40.5t-34.5 -15.5q-19 0 -28 15.5t-5 40.5q4 26 19 41t34 15zM447 683q144 0 230.5 -101.5t61.5 -243.5
q-25 -143 -140 -243.5t-257 -100.5q-143 0 -230 101t-62 243q26 144 140.5 244.5t256.5 100.5zM534 434q8 46 -25 73t-82 27q-47 0 -85 -26.5t-46 -73.5q-10 -53 37 -83q-63 -30 -74 -94q-10 -55 25 -85t85 -30q49 0 89 28t50 83q11 64 -42 94q58 29 68 87z" />
    <glyph glyph-name="BCNine" unicode="&#x2792;" 
d="M447 683q144 0 230.5 -101.5t61.5 -243.5q-25 -143 -140 -243.5t-257 -100.5q-143 0 -230 101t-62 243q26 144 140.5 244.5t256.5 100.5zM533 382q13 72 -19 112t-83 40q-49 0 -89.5 -34t-51.5 -96q-11 -61 18.5 -96t78.5 -35q9 0 27 4q-21 -25 -48 -45t-43 -27l-16 -7
l18 -63q7 3 19 9t44.5 27.5t58.5 47.5t51.5 70t34.5 93zM425 470q41 0 30 -66q-12 -67 -53 -67t-30 67q12 66 53 66z" />
    <glyph glyph-name="BlackArrowR" unicode="&#x27a1;" 
d="M447 683q144 0 230.5 -101.5t61.5 -243.5q-25 -143 -140 -243.5t-257 -100.5q-143 0 -230 101t-62 243q26 144 140.5 244.5t256.5 100.5zM466 146l146 193l-78 193h-174l54 -135h-226l-20 -116h226l-102 -135h174z" />
    <glyph glyph-name="WhiteArrowNE" unicode="&#x2b00;" 
d="M447 683q144 0 230.5 -101.5t61.5 -243.5q-25 -143 -140 -243.5t-257 -100.5q-143 0 -230 101t-62 243q26 144 140.5 244.5t256.5 100.5zM694 338q10 62 -3 117q-13 54 -47 95t-84 64q-51 24 -113 24q-61 0 -120 -24q-58 -22 -107 -64q-47 -40 -81 -95q-34 -57 -44 -117
q-11 -60 3 -116q13 -54 47 -95q35 -43 84 -65q54 -23 113 -23q60 0 121 23q58 23 106 65q50 43 81 95q34 56 44 116zM372 551l205 -58l20 -215l-145 -123l-14 151l-188 -160l-68 82l188 160l-143 40z" />
    <glyph glyph-name="WhiteArrowNW" unicode="&#x2b01;" 
d="M447 683q144 0 230.5 -101.5t61.5 -243.5q-25 -143 -140 -243.5t-257 -100.5q-143 0 -230 101t-62 243q26 144 140.5 244.5t256.5 100.5zM694 338q10 62 -3 117q-13 54 -47 95t-84 64q-51 24 -113 24q-61 0 -120 -24q-58 -22 -107 -64q-47 -40 -81 -95q-34 -57 -44 -117
q-11 -60 3 -116q13 -54 47 -95q35 -43 84 -65q54 -23 113 -23q60 0 121 23q58 23 106 65q50 43 81 95q34 56 44 116zM267 493l226 58l101 -123l-157 -40l131 -160l-96 -82l-132 160l-67 -151l-101 123z" />
    <glyph glyph-name="WhiteArrowSE" unicode="&#x2b02;" 
d="M447 683q144 0 230.5 -101.5t61.5 -243.5q-25 -143 -140 -243.5t-257 -100.5q-143 0 -230 101t-62 243q26 144 140.5 244.5t256.5 100.5zM694 338q10 62 -3 117q-13 54 -47 95t-84 64q-51 24 -113 24q-61 0 -120 -24q-58 -22 -107 -64q-47 -40 -81 -95q-34 -57 -44 -117
q-11 -60 3 -116q13 -54 47 -95q35 -43 84 -65q54 -23 113 -23q60 0 121 23q58 23 106 65q50 43 81 95q34 56 44 116zM451 370l67 150l101 -123l-95 -215l-226 -58l-101 123l157 41l-131 160l96 82z" />
    <glyph glyph-name="WhiteArrowSW" unicode="&#x2b03;" 
d="M447 683q144 0 230.5 -101.5t61.5 -243.5q-25 -143 -140 -243.5t-257 -100.5q-143 0 -230 101t-62 243q26 144 140.5 244.5t256.5 100.5zM694 338q10 62 -3 117q-13 54 -47 95t-84 64q-51 24 -113 24q-61 0 -120 -24q-58 -22 -107 -64q-47 -40 -81 -95q-34 -57 -44 -117
q-11 -60 3 -116q13 -54 47 -95q35 -43 84 -65q54 -23 113 -23q60 0 121 23q58 23 106 65q50 43 81 95q34 56 44 116zM351 370l188 160l68 -82l-188 -160l143 -41l-145 -123l-205 58l-20 215l145 123z" />
    <glyph glyph-name="BlackArrowL" unicode="&#x2b05;" 
d="M447 683q144 0 230.5 -101.5t61.5 -243.5q-25 -143 -140 -243.5t-257 -100.5q-143 0 -230 101t-62 243q26 144 140.5 244.5t256.5 100.5zM601 281l21 116h-226l101 135h-174l-145 -193l77 -193h174l-54 135h226z" />
    <glyph glyph-name="BlackArrowU" unicode="&#x2b06;" 
d="M447 683q144 0 230.5 -101.5t61.5 -243.5q-25 -143 -140 -243.5t-257 -100.5q-143 0 -230 101t-62 243q26 144 140.5 244.5t256.5 100.5zM577 275l30 174l-173 111l-213 -111l-31 -174l149 78l-40 -226h116l40 226z" />
    <glyph glyph-name="BlackArrowD" unicode="&#x2b07;" 
d="M447 683q144 0 230.5 -101.5t61.5 -243.5q-25 -143 -140 -243.5t-257 -100.5q-143 0 -230 101t-62 243q26 144 140.5 244.5t256.5 100.5zM569 230l30 174l-148 -78l39 226h-116l-40 -226l-121 78l-31 -174l174 -112z" />
    <glyph glyph-name="BlackArrowNE" unicode="&#x2b08;" 
d="M447 683q144 0 230.5 -101.5t61.5 -243.5q-25 -143 -140 -243.5t-257 -100.5q-143 0 -230 101t-62 243q26 144 140.5 244.5t256.5 100.5zM452 155l145 123l-20 215l-205 58l-145 -123l143 -40l-188 -160l68 -82l188 160z" />
    <glyph glyph-name="BlackArrowNW" unicode="&#x2b09;" 
d="M447 683q144 0 230.5 -101.5t61.5 -243.5q-25 -143 -140 -243.5t-257 -100.5q-143 0 -230 101t-62 243q26 144 140.5 244.5t256.5 100.5zM568 228l-131 160l157 40l-101 123l-226 -58l-95 -215l101 -123l67 151l132 -160z" />
    <glyph glyph-name="BlackArrowSE" unicode="&#x2b0a;" 
d="M447 683q144 0 230.5 -101.5t61.5 -243.5q-25 -143 -140 -243.5t-257 -100.5q-143 0 -230 101t-62 243q26 144 140.5 244.5t256.5 100.5zM524 182l95 215l-101 123l-67 -150l-132 160l-96 -82l131 -160l-157 -41l101 -123z" />
    <glyph glyph-name="BlackArrowSW" unicode="&#x2b0b;" 
d="M447 683q144 0 230.5 -101.5t61.5 -243.5q-25 -143 -140 -243.5t-257 -100.5q-143 0 -230 101t-62 243q26 144 140.5 244.5t256.5 100.5zM562 247l-143 41l188 160l-68 82l-188 -160l-14 150l-145 -123l20 -215l205 -58z" />
    <glyph glyph-name="sc.f" unicode="&#xa730;" horiz-adv-x="416" 
d="M377 451h-135l-21 -121h97l-19 -111h-98l-38 -219h-143l99 562h277z" />
    <glyph glyph-name="sc.s" unicode="&#xa731;" horiz-adv-x="361" 
d="M215 425q-4 -23 9 -50t34 -53t41 -54t31.5 -63.5t5.5 -70.5q-10 -61 -61.5 -100.5t-117.5 -39.5q-46 0 -85 14t-56 28l-16 14l59 91q30 -37 82 -37q47 0 53 36q4 22 -9 48t-33.5 52t-41 55t-31.5 66.5t-4 75.5q11 61 62 96t118 35q42 0 74.5 -13.5t44.5 -26.5l12 -14
l-51 -79q-19 22 -62 22q-52 0 -58 -32z" />
    <glyph glyph-name="sc.q" unicode="&#xa7af;" horiz-adv-x="471" 
d="M277 568q87 0 138 -67.5t29 -190.5l-10 -58q-17 -100 -64.5 -163t-112.5 -85q3 -44 42 -44l-19 -105h-12q-73 0 -112.5 40.5t-34.5 113.5q-57 24 -84 86.5t-11 156.5l10 58q22 125 89 191.5t152 66.5zM296 281q13 68 11.5 107t-11.5 54t-30 15q-30 0 -52.5 -39
t-39.5 -137q-13 -68 -11 -107.5t11.5 -54.5t29.5 -15q30 0 52.5 39.5t39.5 137.5z" />
    <glyph glyph-name="BCZero" unicode="&#x1f10c;" 
d="M375 198q-25 0 -28 43l104 146l-7 -49q-24 -140 -69 -140zM424 477q22 0 27 -39l-103 -145l7 45q24 139 69 139zM447 683q144 0 230.5 -101.5t61.5 -243.5q-25 -143 -140 -243.5t-257 -100.5q-143 0 -230 101t-62 243q26 144 140.5 244.5t256.5 100.5zM519 338
q18 102 -9.5 149t-80.5 47q-51 0 -91.5 -46.5t-58.5 -149.5q-18 -102 10 -149t81 -47q51 0 91 46.5t58 149.5z" />
    <glyph glyph-name="a.ss01" horiz-adv-x="535" 
d="M362 474h128l-84 -474h-125l-10 44q-3 -6 -10 -14t-33.5 -22t-60.5 -14q-66 0 -100 53.5t-16 156.5l10 58q18 106 65 162t113 56q30 0 55 -12.5t35 -25.5l10 -12zM311 237q22 127 -33 127q-27 0 -47.5 -34.5t-30.5 -92.5q-11 -57 -2.5 -92t35.5 -35t47.5 34.5t30.5 92.5z
" />
    <glyph glyph-name="f.ss01" horiz-adv-x="376" 
d="M180 485l-1 -5h105l-21 -116h-104l-95 -537l-149 -36l101 573h-56l21 116h55l4 22q16 87 67 134t118 47q34 0 60.5 -8.5t36.5 -16.5l9 -8l-58 -89q-10 6 -26 6q-23 0 -41.5 -20.5t-25.5 -61.5z" />
    <glyph glyph-name="g.ss01" horiz-adv-x="611" 
d="M566 557l-17 -96q-44 0 -69 -23q58 -48 44 -121q-14 -80 -73 -122t-143 -42q-27 0 -54 6q-6 -16 2 -27t39 -11h19q83 0 128.5 -46t31.5 -125q-14 -83 -75.5 -121t-152.5 -38q-92 0 -151.5 39t-46.5 115q11 64 81 100q-14 25 -8 55q8 51 60 90q-67 46 -53 127
q14 79 75 121t144 42q26 0 59 -7q25 40 68 62t92 22zM268 -17h-28q-25 0 -47 8q-15 -16 -19 -35q-4 -26 17.5 -40.5t61.5 -14.5q89 0 96 41q4 21 -16.5 31t-64.5 10zM382 317q4 28 -8 44t-37 16t-43 -16t-23 -44q-5 -29 7.5 -45t37.5 -16t43 16t23 45z" />
    <glyph glyph-name="t.ss01" horiz-adv-x="351" 
d="M196 369l-31 -175q-7 -43 2.5 -66.5t34.5 -23.5q12 0 21.5 5t13.5 10l4 5l36 -77q-5 -6 -14 -15t-40 -23.5t-65 -14.5q-62 0 -106.5 45t-33.5 113l75 424l146 37l-24 -133h91l-20 -111h-90z" />
    <glyph glyph-name="y.ss01" horiz-adv-x="610" 
d="M418 474h147l-220 -501q-46 -104 -119.5 -143t-180.5 -39l19 110q103 0 140 86l3 7h-31l-36 480h147l15 -286z" />
    <glyph glyph-name="sc.ae" horiz-adv-x="733" 
d="M668 451h-127l-19 -104h102l-19 -111h-102l-23 -125h128l-19 -111h-271l15 83h-99l-44 -83h-145l313 562h330zM349 178l32 181l-96 -181h64z" />
    <glyph glyph-name="sc.oe" horiz-adv-x="694" 
d="M629 451h-128l-18 -104h102l-19 -111h-102l-23 -125h128l-19 -111h-271l3 16q-38 -22 -80 -22q-83 0 -127 69t-23 189l11 58q21 121 85.5 189.5t147.5 68.5q48 0 78 -27l4 21h271zM335 281q30 176 -36 176q-67 0 -99 -176q-30 -177 36 -177q67 0 99 177z" />
    <glyph glyph-name="sc.eth" horiz-adv-x="540" 
d="M352 562q76 0 116 -69t20 -183l-11 -58q-20 -116 -76 -184t-131 -68h-225l40 226h-31l20 110h30l40 226h208zM340 281q16 99 8.5 134.5t-40.5 35.5h-41l-20 -115h38l-20 -110h-37l-21 -115h41q33 0 54 36.5t38 133.5z" />
    <glyph glyph-name="sc.oslash" horiz-adv-x="520" 
d="M411 531q85 -69 58 -221l-10 -58q-22 -125 -89 -191.5t-151 -66.5q-33 0 -64 11l-30 -62h-58l42 88q-85 69 -58 221l10 58q22 125 89 191.5t152 66.5q33 0 64 -11l30 62h58zM199 281q-10 -58 -11 -89l126 258q-10 7 -23 7q-30 0 -52.5 -39t-39.5 -137zM321 281
q9 48 11 88l-126 -258q12 -7 23 -7q30 0 52.5 39.5t39.5 137.5z" />
    <glyph glyph-name="sc.germandbls" horiz-adv-x="545" 
d="M498 421q-6 -33 -33 -78t-30 -60q-4 -24 25 -86.5t22 -103.5q-8 -46 -48 -72.5t-97 -26.5q-32 0 -60.5 9t-41.5 19l-13 9l53 82q17 -9 38 -9q27 0 33 28q3 19 -22 69.5t-20 77.5q3 17 21.5 49t22.5 56q13 73 -33 73q-47 0 -61 -83l-66 -374h-143l68 386q15 86 75 134
t139 48q77 0 129 -43t42 -104z" />
    <glyph glyph-name="sc.thorn" horiz-adv-x="528" 
d="M346 457q72 0 110 -46.5t23 -129.5q-15 -85 -64 -130.5t-118 -45.5h-91l-18 -105h-143l99 562h143l-19 -105h78zM336 281q11 65 -50 65h-37l-23 -130h37q62 0 73 65z" />
    <glyph glyph-name="ampersand.ss01" horiz-adv-x="456" 
d="M50 33l13 76h269l-14 -76h-268zM406 388q-13 -74 -45 -129l35 -51l-71 -54l-27 35q-38 -34 -99 -34q-64 0 -108 36.5t-33 100.5q6 33 29 62t43 41l20 12q-26 58 -19 98q11 59 51 89.5t92 30.5q53 0 87.5 -31t24.5 -89q-6 -34 -34.5 -62.5t-54.5 -40.5l-26 -11l41 -63
q5 14 9 29t5 23l2 8h78zM212 230q14 0 25 4t15 8l3 3q-43 57 -70 98q-23 -18 -29 -51q-5 -28 10.5 -45t45.5 -17zM241 450q42 21 49 62q6 37 -23 37q-31 0 -37 -37q-4 -25 11 -62z" />
    <glyph glyph-name="ln.zero" horiz-adv-x="499" 
d="M314 677q43 0 77.5 -17.5t61.5 -57.5t33 -105.5t-9 -161.5q-31 -178 -103.5 -259.5t-163.5 -81.5q-94 0 -144 82t-19 259q32 179 104 260.5t163 81.5zM328 335q40 228 -26 228t-106 -228t26 -228t106 228z" />
    <glyph glyph-name="ln.one" horiz-adv-x="285" 
d="M80 617l220 54l-119 -671h-146l92 520l-67 -17z" />
    <glyph glyph-name="ln.two" horiz-adv-x="481" 
d="M493 485q-9 -49 -40.5 -105.5t-71 -101.5t-77.5 -83.5t-64 -60.5l-25 -21h205l-20 -113h-312l-53 102l95.5 86.5t90.5 91.5t86.5 110t39.5 96q6 34 -11.5 55.5t-56.5 21.5q-23 0 -47 -8.5t-36 -16.5l-12 -8l-26 91l21.5 15.5t53.5 25t78 15.5q94 0 145 -55.5t37 -136.5z
" />
    <glyph glyph-name="ln.three" horiz-adv-x="484" 
d="M471 495q-9 -50 -36.5 -85.5t-50.5 -46.5l-23 -11q4 -2 9 -5.5t20 -17t22.5 -31t15 -47t-1.5 -65.5q-15 -84 -81 -138t-146 -54q-49 0 -90 14t-57 28l-17 13l59 92q36 -34 90 -34q37 0 64 25.5t34 68.5q8 43 -8 68.5t-52 25.5h-55l20 114h40q82 0 96 77q6 34 -10 55.5
t-49 21.5q-22 0 -44.5 -8.5t-33.5 -16.5l-12 -8l-26 91q7 6 19 15.5t51.5 25t80.5 15.5q86 0 136 -50.5t36 -131.5z" />
    <glyph glyph-name="ln.four" horiz-adv-x="502" 
d="M492 671l-69 -388h65l-20 -114h-65l-30 -169h-146l30 169h-222l20 114l261 388h176zM277 283l37 212l-141 -212h104z" />
    <glyph glyph-name="ln.five" horiz-adv-x="506" 
d="M476 557h-186l-31 -135q12 2 18 2q84 0 135.5 -55.5t33.5 -159.5q-18 -105 -87.5 -160t-155.5 -55q-51 0 -93 14t-58 28l-17 13l59 92q39 -34 98 -34q44 0 71.5 27.5t36.5 74.5q8 47 -12 74t-67 27q-30 0 -68 -10l-56 56l72 315h327z" />
    <glyph glyph-name="ln.six" horiz-adv-x="480" 
d="M302 467q80 0 131 -66t32 -171q-19 -106 -89 -171t-152 -65q-94 0 -149.5 70t-33.5 194q11 63 37.5 120.5t60.5 99.5t72 78.5t74.5 60t65.5 40.5t47 25l18 7l32 -111q-11 -3 -28.5 -10.5t-64.5 -37t-83 -66.5q15 3 30 3zM322 230q10 58 -3.5 92t-46.5 34
q-32 0 -57.5 -34.5t-35.5 -91.5q-11 -57 2.5 -91.5t46.5 -34.5q32 0 57.5 34.5t36.5 91.5z" />
    <glyph glyph-name="ln.seven" horiz-adv-x="394" 
d="M84 671h345l-22 -122q-7 -7 -18 -21.5t-42 -65t-58.5 -109t-58.5 -154t-49 -199.5h-146q18 104 48.5 199t60 156t56.5 107t44 66l17 21h-198z" />
    <glyph glyph-name="ln.eight" horiz-adv-x="531" 
d="M518 503q-18 -101 -118 -151q92 -55 74 -164q-17 -96 -87.5 -145t-155.5 -49q-39 0 -76 12t-66.5 35.5t-44 63.5t-5.5 89q21 113 130 164q-37 23 -55 61t-9 84q14 81 80 127.5t148 46.5q85 0 142 -47t43 -127zM333 202q8 44 -8 70.5t-49 26.5q-34 0 -59.5 -26t-33.5 -71
q-7 -45 9 -71.5t49 -26.5t59 27t33 71zM373 488q6 35 -8 56.5t-42 21.5q-29 0 -50.5 -21.5t-27.5 -56.5q-7 -35 7.5 -56.5t42.5 -21.5t50 21.5t28 56.5z" />
    <glyph glyph-name="ln.nine" horiz-adv-x="478" 
d="M285 677q89 0 144 -69.5t33 -195.5q-15 -86 -58 -162t-93 -123t-98 -82t-80 -49l-32 -15l-33 111q12 4 31.5 13t69 44.5t86.5 79.5q-23 -6 -48 -6q-85 0 -135.5 61t-31.5 166q19 107 89 167t156 60zM326 450q10 56 -4 86t-48 30q-33 0 -57.5 -30t-34.5 -86t4 -86t48 -30
q33 0 57.5 30t34.5 86z" />
    <glyph glyph-name="ln.zeroalt" horiz-adv-x="488" 
d="M309 677q92 0 140 -82t17 -260q-32 -179 -102 -260t-159 -81q-92 0 -140.5 82t-17.5 259q32 180 102.5 261t159.5 81zM334 335q9 49 12 86l-181 -255q8 -74 49 -74q77 0 120 243zM168 257l179 253q-8 69 -48 69q-37 0 -68 -62.5t-52 -181.5q-8 -47 -11 -78z" />
    <glyph glyph-name="zero.zero" horiz-adv-x="523" 
d="M296 486q41 0 78 -14t66 -42t41 -77.5t1 -112.5q-22 -124 -93.5 -185t-159.5 -61q-91 0 -150 62t-38 184q22 124 94.5 185t160.5 61zM176 240q-11 -65 5 -106l121 248q-5 1 -15 1q-37 0 -68 -38t-43 -105zM348 240q12 66 -6 105l-120 -247q8 -2 15 -2q37 0 68 38t43 106z
" />
    <glyph glyph-name="braceleft.uc" horiz-adv-x="482" 
d="M327 752q36 0 66 -10.5t42 -21.5l12 -10l-53 -82q-10 8 -40 8q-26 0 -48 -22t-28 -60q-10 -53 -2.5 -101t2.5 -78q-7 -42 -64 -69q47 -28 40 -70q-5 -30 -29.5 -78t-34.5 -101q-6 -38 8 -59.5t39 -21.5q13 0 24 2t15 4l5 2l24 -82q-5 -5 -14 -12t-41.5 -18.5t-68.5 -11.5
q-63 0 -108.5 40t-34.5 103q9 55 35.5 114t31.5 84q9 49 -47 49h-21l19 111h21q56 0 65 49q4 24 -1.5 84t4.5 114q11 64 65.5 104t116.5 40z" />
    <glyph glyph-name="braceright.uc" horiz-adv-x="392" 
d="M288 410q-9 -49 47 -49h20l-19 -111h-21q-57 0 -64 -49q-5 -26 0.5 -84.5t-3.5 -113.5q-12 -64 -64 -103.5t-113 -39.5q-38 0 -69.5 10.5t-43.5 21.5l-13 10l53 82q12 -8 37 -8q27 0 50 21.5t29 59.5q10 53 2.5 101t-2.5 78q7 43 65 70q-48 27 -41 69q6 30 30.5 77.5
t33.5 101.5q7 38 -9 60t-44 22q-12 0 -21.5 -2t-13.5 -4l-3 -2l-24 82q4 5 13 12t40.5 18.5t68.5 11.5q66 0 111 -40t34 -104q-9 -54 -35.5 -113.5t-30.5 -84.5z" />
    <glyph glyph-name="parenleft.uc" horiz-adv-x="416" 
d="M371 641l-16 -14t-37 -40.5t-49.5 -67.5t-46 -93.5t-34.5 -119.5q-11 -66 -8.5 -119.5t14 -94t24.5 -68t24 -40.5l10 -14l-71 -110q-2 2 -6.5 5.5t-16.5 17t-24 28.5t-27 39t-27 50t-23 60.5t-16 71t-4.5 82t8.5 92.5q15 88 51 166t76 127t78 85.5t63 51.5l25 16z" />
    <glyph glyph-name="parenright.uc" horiz-adv-x="315" 
d="M135 752q2 -2 6.5 -6t16.5 -17.5t23.5 -28.5t26.5 -39.5t27 -50.5t23 -61t16.5 -71.5t5 -81t-8.5 -90.5q-16 -88 -52 -166.5t-76 -127.5t-78 -85t-63 -51l-25 -16l-32 110l16 14t37 40.5t49.5 67.5t46 94t34.5 120q15 110 0.5 184.5t-40.5 112.5l-25 38z" />
    <glyph glyph-name="bracketleft.uc" horiz-adv-x="495" 
d="M430 635h-117l-116 -659h117l-19 -110h-260l155 880h260z" />
    <glyph glyph-name="bracketright.uc" horiz-adv-x="395" 
d="M100 746h260l-155 -880h-260l19 110h117l117 659h-117z" />
    <glyph glyph-name="exclamdown.uc" horiz-adv-x="339" 
d="M174 671h150l-26 -150h-150zM76 111l94 361h89l-33 -361l-21 -117h-150z" />
    <glyph glyph-name="questiondown.uc" horiz-adv-x="444" 
d="M391 671l-27 -150h-150l27 150h150zM273 478q62 0 102.5 -35.5t31.5 -89.5q-7 -43 -41.5 -80t-71.5 -57.5t-68.5 -44t-35.5 -42.5q-2 -13 9.5 -22t36.5 -9q22 0 45 7t35 14l11 7l25 -84q-6 -6 -17 -15t-50.5 -24t-84.5 -15q-65 0 -111 37t-37 91q7 40 41 76t71 57.5
t69 46.5t36 44q4 28 -40 28q-20 0 -37.5 -5.5t-25.5 -10.5l-7 -6l-23 78q6 6 16.5 15t46 24t74.5 15z" />
    <glyph glyph-name="colon.uc" horiz-adv-x="304" 
d="M35 67l26 150h150l-26 -150h-150zM119 546h150l-26 -150h-150z" />
    <glyph glyph-name="semicolon.uc" horiz-adv-x="355" 
d="M-25 -103l133 300h150l-178 -300h-105zM170 546h150l-27 -150h-150z" />
    <glyph glyph-name="plus.uc" horiz-adv-x="383" 
d="M257 391h91l-19 -111h-92l-16 -92h-111l16 92h-91l19 111h92l16 91h111z" />
    <glyph glyph-name="minus.uc" horiz-adv-x="350" 
d="M64 391h241l-20 -111h-240z" />
    <glyph glyph-name="equal.uc" horiz-adv-x="358" 
d="M35 158l19 111h241l-20 -111h-240zM83 429h240l-20 -111h-240z" />
    <glyph glyph-name="divide.uc" horiz-adv-x="410" 
d="M310 552l-23 -128h-127l22 128h128zM101 88l22 128h128l-23 -128h-127zM54 375h321l-19 -110h-321z" />
    <glyph glyph-name="multiply.uc" horiz-adv-x="369" 
d="M334 416l-86 -96l52 -96l-93 -60l-38 69l-62 -69l-72 60l86 96l-52 96l93 60l38 -68l62 68z" />
    <glyph glyph-name="guilsinglleft.uc" horiz-adv-x="340" 
d="M295 472l-132 -135l85 -135l-99 -70l-104 166l14 77l162 166z" />
    <glyph glyph-name="guilsinglright.uc" horiz-adv-x="340" 
d="M191 541l104 -166l-13 -77l-163 -166l-74 70l132 135l-84 135z" />
    <glyph glyph-name="guillemotleft.uc" horiz-adv-x="541" 
d="M496 472l-132 -135l85 -135l-99 -70l-104 166l14 77l162 166zM295 472l-132 -135l85 -135l-99 -70l-104 166l14 77l162 166z" />
    <glyph glyph-name="guillemotright.uc" horiz-adv-x="541" 
d="M295 375l-13 -77l-163 -166l-74 70l132 135l-84 135l98 69zM392 541l104 -166l-13 -77l-163 -166l-74 70l132 135l-84 135z" />
    <glyph glyph-name="less.uc" horiz-adv-x="439" 
d="M394 501l-199 -164l142 -164l-69 -107l-223 271l318 270z" />
    <glyph glyph-name="greater.uc" horiz-adv-x="439" 
d="M172 607l222 -270l-318 -271l-31 107l200 164l-142 164z" />
    <glyph glyph-name="emdash.uc" horiz-adv-x="558" 
d="M64 391h449l-20 -111h-448z" />
    <glyph glyph-name="endash.uc" horiz-adv-x="413" 
d="M64 391h304l-20 -111h-303z" />
    <glyph glyph-name="logicalnot.uc" horiz-adv-x="454" 
d="M64 391h345l-32 -180h-111l12 69h-233z" />
    <glyph glyph-name="hyphen.uc" horiz-adv-x="350" 
d="M64 391h241l-20 -111h-240z" />
    <glyph glyph-name="plusminus.uc" horiz-adv-x="408" 
d="M281 457h92l-20 -111h-91l-16 -91h-111l16 91h-91l19 111h92l16 91h111zM35 95l19 111h255l-19 -111h-255z" />
    <glyph glyph-name="notequal.uc" horiz-adv-x="378" 
d="M313 318h-84l-24 -49h100l-20 -111h-134l-31 -64h-58l31 64h-48l19 111h83l24 49h-98l20 111h132l31 63h58l-31 -63h50z" />
    <glyph glyph-name="approxequal.uc" horiz-adv-x="424" 
d="M154 291q22 0 54 -16.5t55 -16.5q20 0 42 8t35 16l12 9l-19 -111q-45 -32 -90 -32q-22 0 -54 16t-55 16q-20 0 -42 -8t-34 -16l-13 -8l19 110q45 33 90 33zM290 411q20 0 42 8t34 16l13 8l-19 -110q-45 -32 -90 -32q-22 0 -54 16t-55 16q-20 0 -42 -8t-35 -16l-12 -8
l19 110q45 32 90 32q22 0 54 -16t55 -16z" />
    <glyph glyph-name="lessequal.uc" horiz-adv-x="458" 
d="M35 116l19 111h271l-19 -111h-271zM423 550l-170 -93l137 -93l-65 -102l-271 195l340 194z" />
    <glyph glyph-name="greaterequal.uc" horiz-adv-x="442" 
d="M35 116l19 111h271l-19 -111h-271zM67 262l-30 102l171 93l-138 93l66 101l271 -194z" />
    <glyph glyph-name="at.uc" horiz-adv-x="829" 
d="M475 683q142 0 225 -105t59 -240q-34 -194 -159 -194q-30 0 -53.5 7t-36.5 17t-22 20.5t-12 17.5l-2 7q-1 -3 -3 -7.5t-11.5 -16.5t-21.5 -21t-34 -16.5t-48 -7.5q-60 0 -101.5 53.5t-26.5 140.5q16 95 78.5 144.5t143.5 49.5q40 0 79 -12t59 -24l19 -12l-34 -190
q-8 -46 7.5 -75.5t39.5 -29.5q67 0 94 149q22 126 -48.5 216t-198.5 90q-127 0 -228 -89t-124 -217q-22 -123 51.5 -214t193.5 -91q33 0 71.5 6.5t60.5 13.5l22 7l16 -34q-78 -32 -177 -32q-61 0 -118 27t-97.5 72t-60 110t-7.5 135q26 151 141 248t264 97zM451 338l14 79
q-10 15 -31 15q-25 0 -46.5 -27.5t-28.5 -66.5q-17 -94 29 -94t63 94z" />
    <glyph glyph-name="zero.numr" horiz-adv-x="303" 
d="M190 680q56 0 82 -46.5t10 -136.5q-16 -91 -54.5 -137t-93.5 -46q-56 0 -82.5 47t-10.5 136q15 91 54.5 137t94.5 46zM187 497q19 105 -7 105q-25 0 -44 -105q-19 -106 7 -106q25 0 44 106z" />
    <glyph glyph-name="one.numr" horiz-adv-x="158" 
d="M61 647l132 33l-64 -363h-94l46 260l-34 -8z" />
    <glyph glyph-name="two.numr" horiz-adv-x="267" 
d="M290 576q-8 -47 -40 -92.5t-60 -67.5l-28 -22h93l-14 -77h-174l-32 62q6 4 15.5 11.5t35.5 30t46.5 44t39.5 50.5t23 53q2 14 -5.5 24t-23.5 10q-12 0 -24 -5.5t-18 -10.5l-7 -6l-19 65q43 35 93 35q52 0 79.5 -30.5t19.5 -73.5z" />
    <glyph glyph-name="three.numr" horiz-adv-x="266" 
d="M279 578q-4 -21 -15.5 -39.5t-21.5 -26.5l-10 -7q4 -3 9.5 -9.5t12 -28t2.5 -46.5q-9 -50 -42 -78.5t-83 -28.5q-28 0 -52 9t-34 17l-10 9l42 65q16 -23 46 -23q34 0 40 37q3 17 -3.5 28t-18.5 11h-38l14 77h30q31 0 37 31q4 27 -23 27q-12 0 -24 -6t-19 -12l-6 -5
l-19 65q39 36 89 36q48 0 76 -28.5t21 -73.5z" />
    <glyph glyph-name="four.numr" horiz-adv-x="275" 
d="M290 677l-35 -197h33l-14 -77h-32l-16 -86h-94l15 86h-112l12 70l138 204h105zM164 470l15 85l-52 -85h37z" />
    <glyph glyph-name="five.numr" horiz-adv-x="278" 
d="M280 599h-95l-11 -47q50 2 76 -30.5t16 -88.5t-46 -87.5t-89 -31.5q-26 0 -50 9t-35 17l-11 9l42 65q16 -23 49 -23q20 0 31.5 12.5t14.5 29.5q6 41 -31 41l-41 -7l-31 38l39 172h185z" />
    <glyph glyph-name="six.numr" horiz-adv-x="262" 
d="M192 573q42 -3 67 -36t15 -93t-46 -95t-85 -35q-53 0 -84.5 38.5t-19.5 105.5q8 47 32.5 88t53.5 66t56.5 43.5t46.5 26.5l18 7l22 -75q-43 -14 -76 -41zM181 444q4 24 -0.5 39t-15.5 15q-26 0 -36 -54q-4 -25 0.5 -39.5t16.5 -14.5t21.5 15t13.5 39z" />
    <glyph glyph-name="seven.numr" horiz-adv-x="223" 
d="M63 677h195l-13 -75q-3 -3 -8.5 -10t-21.5 -32.5t-30 -55.5t-30 -80.5t-26 -106.5h-94q13 75 40 144.5t47 101.5l20 32h-93z" />
    <glyph glyph-name="eight.numr" horiz-adv-x="288" 
d="M301 582q-8 -46 -50 -74q37 -31 28 -83q-10 -54 -48.5 -82.5t-87.5 -28.5q-50 0 -82.5 28.5t-22.5 82.5q9 52 57 83q-32 27 -24 74q8 45 45.5 71.5t82.5 26.5t77.5 -26.5t24.5 -71.5zM187 429q3 18 -2.5 29t-18.5 11q-28 0 -35 -40q-7 -39 21 -39t35 39zM207 574
q5 30 -17 30q-23 0 -28 -30q-5 -29 17 -29q23 0 28 29z" />
    <glyph glyph-name="nine.numr" horiz-adv-x="260" 
d="M173 680q53 0 81.5 -40t17.5 -104q-9 -48 -32.5 -89.5t-51.5 -66.5t-54.5 -43.5t-43.5 -25.5l-18 -7l-22 75q47 18 82 51h-5q-45 0 -72.5 32t-16.5 93q9 54 45.5 89.5t89.5 35.5zM183 555q7 49 -18 49t-35 -49q-7 -49 18 -49t35 49z" />
    <glyph glyph-name="zero.dnom" horiz-adv-x="303" 
d="M190 363q56 0 82 -46.5t10 -136.5q-16 -91 -54.5 -137t-93.5 -46q-56 0 -82.5 47t-10.5 136q15 91 54.5 137t94.5 46zM187 180q19 106 -7 106q-25 0 -44 -106t7 -106q25 0 44 106z" />
    <glyph glyph-name="one.dnom" horiz-adv-x="158" 
d="M61 330l132 33l-64 -363h-94l46 260l-34 -8z" />
    <glyph glyph-name="two.dnom" horiz-adv-x="267" 
d="M290 259q-8 -47 -40 -92.5t-60 -67.5l-28 -22h93l-14 -77h-174l-32 63q6 4 15.5 11.5l35.5 29.5t46.5 43.5t39.5 50.5t23 53q2 14 -5.5 24.5t-23.5 10.5q-12 0 -24 -5.5t-18 -10.5l-7 -6l-19 64q43 35 93 35q52 0 79.5 -30.5t19.5 -73.5z" />
    <glyph glyph-name="three.dnom" horiz-adv-x="266" 
d="M279 261q-4 -21 -15.5 -39.5t-21.5 -25.5l-10 -8q4 -3 9.5 -9.5t12 -28t2.5 -46.5q-9 -50 -42 -78.5t-83 -28.5q-28 0 -52 8.5t-34 17.5l-10 9l42 66q16 -24 46 -24q34 0 40 37q3 17 -3.5 28t-18.5 11h-38l14 77h30q31 0 37 31q4 28 -23 28q-12 0 -24.5 -6t-18.5 -12
l-6 -6l-19 65q39 36 89 36q48 0 76 -28.5t21 -73.5z" />
    <glyph glyph-name="four.dnom" horiz-adv-x="275" 
d="M290 360l-35 -197h33l-14 -77h-32l-16 -86h-94l15 86h-112l12 70l138 204h105zM164 153l15 85l-52 -85h37z" />
    <glyph glyph-name="five.dnom" horiz-adv-x="278" 
d="M280 282h-95l-11 -47q50 2 76 -30.5t16 -88.5t-46 -87.5t-89 -31.5q-26 0 -50 8.5t-35 17.5l-11 9l42 65q16 -23 49 -23q20 0 31.5 12.5t14.5 29.5q6 41 -31 41l-41 -7l-31 38l39 172h185z" />
    <glyph glyph-name="six.dnom" horiz-adv-x="262" 
d="M192 256q42 -3 67 -36t15 -93t-46 -95t-85 -35q-53 0 -84.5 38.5t-19.5 105.5q8 47 32.5 88t53.5 66t56.5 43.5t46.5 25.5l18 8l22 -75q-43 -14 -76 -41zM181 127q4 24 -0.5 39t-15.5 15q-26 0 -36 -54q-4 -24 0.5 -39t16.5 -15q11 0 21 15t14 39z" />
    <glyph glyph-name="seven.dnom" horiz-adv-x="223" 
d="M63 360h195l-13 -75q-3 -3 -8.5 -10t-21.5 -32.5t-30 -55.5t-30 -80.5t-26 -106.5h-94q13 75 40 144.5t47 101.5l20 32h-93z" />
    <glyph glyph-name="eight.dnom" horiz-adv-x="288" 
d="M301 265q-8 -46 -50 -74q37 -31 28 -83q-10 -54 -48.5 -82.5t-87.5 -28.5q-50 0 -82.5 29t-22.5 82q9 52 57 83q-32 27 -24 74q8 45 45.5 71.5t82.5 26.5t77.5 -26.5t24.5 -71.5zM187 112q3 18 -2.5 29t-18.5 11q-28 0 -35 -40q-7 -39 21 -39t35 39zM207 257q5 30 -17 30
q-23 0 -28 -30q-5 -29 17 -29q23 0 28 29z" />
    <glyph glyph-name="nine.dnom" horiz-adv-x="260" 
d="M173 363q53 0 81.5 -40t17.5 -104q-9 -48 -32.5 -89.5t-51.5 -66.5t-54.5 -43t-43.5 -25l-18 -7l-22 74q47 18 82 51h-5q-45 0 -72.5 32t-16.5 93q9 54 45.5 89.5t89.5 35.5zM183 238q7 49 -18 49t-35 -49q-7 -49 18 -49t35 49z" />
    </font>
</defs>
</svg>
