<?xml version="1.0" standalone="no"?>
<!DOCTYPE svg PUBLIC "-//W3C//DTD SVG 1.1//EN" "http://www.w3.org/Graphics/SVG/1.1/DTD/svg11.dtd" >
<svg>
<metadata>
Created by FontForge 20090622 at Tue Apr  7 20:05:12 2020
 By deploy user
Copyright (c) 2020 by Vintage Type Company. All rights reserved.
</metadata>
<defs>
<font id="VTCFellbaumGroteskItalic-Roman" horiz-adv-x="806" >
  <font-face 
    font-family="VTC Fellbaum Grotesk Italic"
    font-weight="400"
    font-stretch="normal"
    units-per-em="1000"
    panose-1="0 0 0 0 0 0 0 0 0 0"
    ascent="750"
    descent="-250"
    x-height="474"
    cap-height="677"
    bbox="-155 -209 1384 883"
    underline-thickness="50"
    underline-position="-50"
    unicode-range="U+000D-U+1F10C"
  />
<missing-glyph horiz-adv-x="669" 
d="M181 683h428l-121 -689h-428zM458 617h-148l41 -187zM247 570l-82 -463l133 231zM211 60h149l-42 186zM422 107l82 463l-133 -232z" />
    <glyph glyph-name="db.01" unicode="&#x3a;&#x29;" horiz-adv-x="794" 
d="M458 686q143 0 226.5 -101.5t58.5 -244.5q-26 -143 -145 -244.5t-262 -101.5t-226.5 101.5t-58.5 244.5q26 143 145 244.5t262 101.5zM678 340q10 57 -3 109q-12 49 -44 89q-31 38 -79 60q-49 23 -105 23t-113 -23q-56 -22 -100 -60q-45 -38 -76 -89q-32 -53 -42 -109
q-9 -57 3 -110q12 -50 45 -89q32 -39 78 -60q47 -22 106 -22t113 22q53 21 100 60q46 40 76 89q31 54 41 110zM544 325l6 33h89l-12 -65h-26q-24 -71 -82 -119q-72 -63 -162 -63q-89 0 -141 63q-41 48 -39 119h-27l12 65h89l-6 -33q-11 -62 25.5 -105.5t97.5 -43.5
q62 0 113.5 43.5t62.5 105.5zM314 315q-22 0 -29 36t2 79q8 47 27 81.5t41 34.5t29 -36t-2 -80v-3q-3 1 -9 1q-13 0 -23 -8.5t-12 -21.5q-2 -12 5 -21t19 -9q2 0 2 1q-22 -54 -50 -54zM471 315q-22 0 -29 36t2 79q8 47 27 81.5t41 34.5t29 -36t-2 -80v-3q-3 1 -9 1
q-13 0 -23 -8.5t-12 -21.5q-2 -12 5 -21t19 -9q2 0 2 1q-22 -54 -50 -54z" />
    <glyph glyph-name="db.02" unicode="&#x3c;&#x33;" horiz-adv-x="582" 
d="M439 558q49 0 76.5 -34.5t18.5 -84.5q-8 -48 -42 -98.5t-76.5 -88t-83.5 -68.5t-69 -47l-28 -16q-9 6 -23.5 17t-50 45.5t-61.5 70t-43 86.5t-9 99q8 50 48 84.5t89 34.5q86 0 111 -89q58 89 143 89z" />
    <glyph glyph-name="db.03" unicode="&#x3c;&#x3c;&#x33;" horiz-adv-x="571" 
d="M503 520q30 -39 21 -92q-10 -57 -58 -120q-33 -43 -93 -93q-28 -23 -59 -44t-47 -30.5t-19 -10.5l-16 -9l-13 9q-3 1 -15 10.5t-35.5 30.5t-43.5 44q-39 45 -61 93q-26 62 -15 120q9 53 53 92q44 38 98 38q66 0 100 -52q52 52 118 52q53 0 85 -38zM468 428q5 32 -12 53
q-16 21 -48 21q-29 0 -53 -17q-22 -15 -41 -43l-35 -54l-16 54q-8 27 -25 43q-18 17 -48 17q-31 0 -55 -21q-25 -22 -30 -53q-15 -82 66 -172q26 -31 73 -69q57 35 98 69q111 92 126 172z" />
    <glyph glyph-name="db.04" unicode="db&#x2e;&#x30;&#x31;" horiz-adv-x="779" 
d="M633 461l101 -123l-144 -122l-91 111l-118 -100l92 -111l-144 -122l-101 122l131 111l-83 100l-130 -111l-101 122l144 123l91 -111l118 100l-92 111l144 122l101 -122l-131 -111l83 -100z" />
    <glyph glyph-name="db.05" unicode="db&#x2e;&#x30;&#x32;" horiz-adv-x="779" 
d="M559 190l-80 98l-56 -48l80 -98l-174 -148l-123 148l116 98l-39 48l-116 -98l-122 148l175 149l80 -98l56 47l-80 98l174 149l123 -149l-116 -98l39 -47l116 98l122 -149zM597 406l-79 -68l56 -67l79 67zM182 271l79 67l-56 68l-79 -68zM436 602l-79 -68l55 -67l79 67z
M343 75l79 67l-55 68l-79 -68zM378 271l79 67l-56 68l-79 -68z" />
    <glyph glyph-name="db.06" unicode="db&#x2e;&#x30;&#x33;" horiz-adv-x="663" 
d="M588 409h-158l-24 -141h157l-31 -173h-173l28 157h-141l-28 -157h-173l30 173h158l25 141h-158l31 173h173l-28 -157h141l28 157h173z" />
    <glyph glyph-name="db.07" unicode="db&#x2e;&#x30;&#x34;" horiz-adv-x="663" 
d="M581 372h-139l-11 -67h138l-37 -210h-210l25 138h-68l-24 -138h-210l37 210h139l12 67h-139l37 210h210l-25 -139h68l24 139h210zM208 152l16 95h-95l-17 -95h96zM257 429l16 96h-95l-17 -96h96zM371 291l17 95h-96l-16 -95h95zM502 247h-95l-17 -95h95zM455 525l-16 -96
h95l17 96h-96z" />
    <glyph glyph-name="db.08" unicode="db&#x2e;&#x30;&#x37;" horiz-adv-x="812" 
d="M765 421q-9 -50 -68 -83q48 -32 39 -82q-7 -39 -32.5 -60.5t-61.5 -21.5t-64 20.5t-58.5 58t-47.5 52.5l-45 -39q11 -20 42 -57t46 -68.5t9 -66.5q-7 -36 -32.5 -58t-63.5 -22q-50 0 -74 53q-40 -53 -92 -53q-38 0 -55.5 22.5t-11.5 57.5t32 66.5t70.5 69t62.5 56.5
l-32 39q-22 -15 -66 -52.5t-79 -58t-71 -20.5t-54 21.5t-11 60.5q8 51 68 82q-48 32 -39 83q7 38 33 60t61 22q36 0 64 -20.5t58.5 -58t47.5 -52.5l45 38q-11 20 -42.5 57.5t-46 69t-8.5 66.5q6 36 31.5 58t64.5 22q51 0 73 -53q42 53 92 53q39 0 56.5 -22t11.5 -58
q-6 -35 -32 -66.5t-70.5 -69t-62.5 -57.5l32 -38q22 15 66 52.5t79 58t71 20.5q35 0 53.5 -21.5t11.5 -60.5z" />
    <glyph glyph-name="db.09" unicode="db&#x2e;&#x30;&#x38;" horiz-adv-x="810" 
d="M763 414q-7 -41 -44 -76q25 -32 17 -75q-8 -48 -43 -77q-34 -28 -78 -28q-54 0 -102 50q39 -57 29 -112q-8 -44 -41 -73q-34 -29 -81 -29q-44 0 -70 31q-39 -31 -81 -31q-48 0 -72 29q-23 29 -15 73q10 55 69 112q-67 -50 -120 -50q-43 0 -68 28q-24 28 -16 77
q8 43 44 75q-25 34 -17 76q8 48 43 76q33 28 78 28q55 0 102 -49q-39 57 -29 111q8 45 40 73q34 30 82 30q42 0 70 -31q39 31 81 31q48 0 72 -30q23 -29 15 -73q-9 -53 -69 -111q64 49 120 49q44 0 68 -27q24 -28 16 -77zM327 580q-3 -18 4 -37.5t14.5 -30.5t27.5 -36
q28 -34 40 -54l5 -9l9 9q18 20 58 54q28 24 40 35.5t26 31t17 37.5q8 44 -37 44q-30 0 -56 -35l-34 -43l-17 43q-15 35 -44 35q-45 0 -53 -44zM459 338l-45 55l-64 -55l45 -54zM142 218q18 0 39 10t35.5 21.5l40.5 33.5q48 39 63 48l11 7l-8 7q-21 18 -46 49q-27 33 -47 49
t-46 16q-43 0 -51 -45q-5 -31 25 -50l39 -26l-48 -25q-37 -21 -43 -50q-8 -45 36 -45zM483 96q3 18 -4 37.5t-15.5 31.5t-27.5 35q-37 51 -39 55l-5 9l-9 -9q-13 -15 -58 -55q-28 -24 -40 -35.5t-26 -31t-17 -37.5q-8 -43 37 -43q30 0 56 34l33 44l18 -44q15 -34 44 -34
q45 0 53 43zM703 414q8 45 -35 45q-18 0 -39 -10t-35.5 -21.5l-40.5 -33.5q-36 -31 -63 -49l-11 -7l8 -7q14 -12 46 -48q19 -23 29.5 -33.5t28 -21t35.5 -10.5q43 0 51 45q4 30 -26 50l-38 25l47 26q39 20 43 50z" />
    <glyph glyph-name="db.10" unicode="db&#x2e;&#x30;&#x39;" horiz-adv-x="796" 
d="M733 524q22 -28 16.5 -59t-35.5 -56t-68 -33t-90.5 -7.5t-77.5 -3.5l-10 -54q23 -3 77 -2.5t88.5 -7.5t55.5 -33q21 -24 16 -56t-37 -59q-43 -36 -100 -20q5 -60 -38 -97q-33 -27 -63 -26.5t-51 25.5t-22.5 61.5t8 89.5t10.5 78h-54q-7 -23 -16.5 -77t-23.5 -90.5
t-44 -61.5q-29 -25 -60 -25.5t-54 26.5q-30 36 -4 97q-62 -16 -92 20q-22 28 -16.5 59t34.5 56q30 25 67.5 33t91.5 7.5t78 2.5l9 54q-24 4 -76.5 3.5t-88 7.5t-56.5 33q-21 24 -15.5 55.5t37.5 59.5q43 36 100 20q-5 59 37 96q34 28 64 27.5t51 -25.5t22 -61.5t-8.5 -90
t-10.5 -77.5h55q7 23 16.5 77t23.5 90.5t44 61.5t60 25.5t54 -27.5q30 -37 3 -96q63 16 93 -20z" />
    <glyph glyph-name="db.11" unicode="db&#x2e;&#x31;&#x30;" horiz-adv-x="795" 
d="M728 529q28 -34 20 -75t-45 -72q-44 -38 -121 -44q73 -4 106 -43q25 -31 19 -72t-46 -75q-37 -31 -81 -31q-9 -46 -45 -76q-39 -33 -81 -33q-39 0 -66 32q-31 39 -24 113q-19 -75 -63 -113q-38 -32 -77 -32q-42 0 -70 33q-24 30 -18 76q-44 0 -69 31q-28 32 -20 75
q6 39 44 72q47 39 121 43q-74 6 -106 44q-25 33 -19 72q8 42 47 75q34 29 80 31q9 44 45 75q40 34 81 34q40 -2 66 -32q31 -39 24 -114q18 75 63 114q38 31 78 32q41 0 69 -34q24 -30 18 -75q45 -2 70 -31zM332 274l3 12l-11 -2q-12 -1 -74 -4q-33 0 -49.5 -1t-38 -7
t-36.5 -19q-36 -30 -10 -63q17 -22 58 -11l50 13l-21 -49q-17 -39 1 -60q27 -32 62 -1q15 13 25 33.5t14 37t10 48.5q7 44 17 73zM270 396q49 0 73 -3l11 -2v11q1 25 9 73q17 92 -6 120q-27 30 -63 -2q-25 -21 -22 -59l4 -49l-46 13q-38 9 -62 -11q-37 -32 -12 -63
q10 -13 30.5 -19t35 -7t48.5 -2zM352 300h77l13 77h-77zM638 253q-10 13 -30 19t-36 7t-48 1q-62 3 -73 4l-11 2v-12q-1 -25 -9 -73q-6 -34 -7.5 -49t1 -36t13.5 -34q24 -30 62 1q25 21 22 60l-4 49l47 -13q36 -11 61 11q38 33 12 63zM669 424q35 31 9 63q-16 20 -57 11
l-51 -13l21 49q17 38 -1 59q-26 32 -62 2q-15 -13 -25 -33.5t-14 -37.5t-10 -49q-7 -39 -16 -73l-4 -11l12 2q25 3 73 3q34 1 49.5 2t38 7t37.5 19z" />
    <glyph glyph-name="db.12" unicode="db&#x2e;&#x31;&#x31;" horiz-adv-x="704" 
d="M489 382l170 86l-134 -267h-440l-40 267l140 -86l189 210zM64 85l12 69h441l-12 -69h-441z" />
    <glyph glyph-name="db.13" unicode="db&#x2e;&#x31;&#x32;" horiz-adv-x="704" 
d="M623 488l36 -35l-132 -263h-443l-39 263l49 35l106 -65l152 169h48l93 -169zM494 249l76 151l-108 -54l-98 179l-161 -179l-88 54l22 -151h357zM81 85l10 59h413l-11 -59h-412z" />
    <glyph glyph-name="db.14" unicode="db&#x2e;&#x31;&#x33;" horiz-adv-x="623" 
d="M167 683h411l-122 -689l-189 95l-222 -95z" />
    <glyph glyph-name="db.15" unicode="db&#x2e;&#x31;&#x34;" horiz-adv-x="636" 
d="M166 683h425l-122 -688l-195 98l-229 -98zM427 85l95 540h-308l-95 -540l167 72z" />
    <glyph glyph-name="db.16" unicode="db&#x2e;&#x31;&#x35;" horiz-adv-x="1429" 
d="M1264 382h120l-9 -54h-121l-310 -264l-116 140l-165 -140l-115 140l-165 -140l-217 264h-121l9 54h121l311 264l115 -140l165 140l115 -140l165 140zM753 570l-120 -102l84 -102l120 102zM397 140l120 102l-93 113l132 113l-84 102l-252 -215zM500 355l61 -75l89 75
l-62 75zM677 140l120 102l-84 102l-120 -102zM780 355l62 -75l88 75l-62 75zM957 140l253 215l-177 215l-120 -102l93 -113l-133 -113z" />
    <glyph glyph-name="db.17" unicode="db&#x2e;&#x31;&#x36;" horiz-adv-x="1429" 
d="M1264 382h120l-9 -54h-121l-310 -264l-116 140l-165 -140l-115 140l-165 -140l-217 264h-121l9 54h121l311 264l115 -140l165 140l115 -140l165 140zM424 355l132 113l-84 102l-252 -215l177 -215l120 102zM677 140l120 102l-84 102l-120 -102zM717 366l120 102l-84 102
l-120 -102zM957 140l253 215l-177 215l-120 -102l93 -113l-133 -113z" />
    <glyph glyph-name="db.18" unicode="db&#x2e;&#x31;&#x37;" horiz-adv-x="590" 
d="M355 461q-35 23 -60 57t-30 53q-12 40 5 75t44 37q24 3 42.5 -14.5t28.5 -45.5q1 -1 4 -20t10.5 -40.5t19.5 -40.5q18 -31 48 -57t59 -37q8 -3 6 -9t-11 -6q-35 -2 -82 10.5t-84 37.5zM535 351q11 -2 9.5 -12t-13.5 -13q-327 -85 -389 -85q-47 0 -74.5 28.5t-20.5 69.5
q8 41 45.5 70t83.5 29q56 0 359 -87zM494 265q6 0 8.5 -3t0 -7t-7.5 -5q-32 -10 -72 -37t-69 -58q-19 -19 -33.5 -40t-24.5 -39.5t-12 -21.5q-19 -28 -44 -45.5t-48 -14.5q-25 2 -29.5 36.5t20.5 75.5q12 20 49 53.5t80 56.5q90 51 182 49z" />
    <glyph glyph-name="db.19" unicode="db&#x2e;&#x31;&#x38;" horiz-adv-x="590" 
d="M236 216q35 -23 60 -57t29 -53q11 -40 -5.5 -75t-42.5 -37q-48 -5 -71 60q-1 3 -4.5 21.5t-10.5 39.5t-19 40q-18 31 -48.5 58t-58.5 37q-11 3 -5 11q3 4 10 4q94 2 166 -49zM96 413q-6 0 -8 3t0.5 6.5t7.5 5.5q33 11 73 37t68 57q18 19 33 41t24.5 39.5t11.5 20.5
q46 66 92 60q26 -2 30.5 -36.5t-21.5 -75.5q-11 -19 -48 -53t-80 -57q-46 -25 -97.5 -37.5t-85.5 -10.5zM449 438q46 0 73.5 -29.5t20.5 -69.5q-7 -41 -44.5 -69.5t-84.5 -28.5q-60 0 -359 85q-7 2 -8.5 7.5t2 11t10.5 6.5q338 87 390 87z" />
    <glyph glyph-name="db.20" unicode="db&#x2e;&#x30;&#x35;" horiz-adv-x="779" 
d="M566 543l-165 -140l-115 140l164 140zM213 134l165 140l115 -140l-164 -140zM210 478l115 -140l-165 -140l-115 140zM619 478l115 -140l-165 -140l-115 140z" />
    <glyph glyph-name="db.21" unicode="db&#x2e;&#x30;&#x36;" horiz-adv-x="779" 
d="M580 526l-185 -158l-130 158l185 157zM435 599l-86 -73l61 -73l86 73zM199 151l185 157l130 -157l-185 -157zM344 78l86 73l-61 73l-86 -73zM230 496l129 -158l-185 -157l-129 157zM129 338l60 -73l86 73l-60 73zM605 496l129 -158l-185 -157l-129 157zM504 338l60 -73
l86 73l-60 73z" />
    <glyph glyph-name="fi" unicode="fi" horiz-adv-x="512" 
d="M374 114q-4 -23 10 -35t44 -12l-12 -73q-73 0 -109 34.5t-25 96.5l48 276h-124l-64 -363q-17 -93 -49.5 -137t-85.5 -44q-20 0 -40.5 7.5t-30.5 15.5l-11 7l27 57q16 -15 36 -15q40 0 60 109l64 363h-64l13 73h64l5 28q16 91 70 136t126 45q24 0 48 -7.5t36 -15.5l13 -7
l-27 -58q-23 15 -59 15q-45 0 -74.5 -27.5t-39.5 -80.5l-4 -28h218z" />
    <glyph glyph-name="fl" unicode="fl" horiz-adv-x="588" 
d="M444 114q-4 -23 12 -35t42 -12l-12 -73q-66 0 -105.5 35.5t-28.5 95.5l49 276h-135l-64 -363q-17 -93 -49.5 -137t-85.5 -44q-20 0 -40.5 7.5t-30.5 15.5l-11 7l27 57q16 -15 36 -15q40 0 60 109l64 363h-64l13 73h64l5 28q15 90 68 135.5t118 45.5q44 0 82 -23l85 17z
M413 474l23 126q-23 10 -49 10q-38 0 -66.5 -28t-37.5 -80l-4 -28h134z" />
    <glyph glyph-name="ffi" unicode="ffi" horiz-adv-x="766" 
d="M658 114q-4 -23 10.5 -35t44.5 -12l-13 -73q-72 0 -108.5 34.5t-25.5 96.5l49 276h-125l-65 -363q-16 -93 -48.5 -137t-85.5 -44q-20 0 -40.5 7.5t-30.5 15.5l-11 7l27 57q16 -15 36 -15q40 0 60 109l64 363h-130l-64 -363q-17 -93 -49.5 -137t-85.5 -44q-20 0 -40.5 7.5
t-30.5 15.5l-11 7l27 57q16 -15 36 -15q40 0 60 109l64 363h-64l13 73h64l5 28q16 91 72 136t134 45q58 0 106 -28q46 28 108 28q24 0 48 -7.5t36 -15.5l13 -7l-27 -58q-23 15 -59 15q-45 0 -74.5 -27.5t-39.5 -80.5l-5 -28h219zM414 502q10 61 37 102q-26 6 -48 6
q-45 0 -78 -28t-42 -80l-4 -28h130z" />
    <glyph glyph-name="ffl" unicode="ffl" horiz-adv-x="812" 
d="M668 114q-4 -23 12 -35t42 -12l-12 -73q-66 0 -105.5 35.5t-28.5 95.5l48 276h-134l-65 -363q-16 -93 -48.5 -137t-85.5 -44q-20 0 -40.5 7.5t-30.5 15.5l-11 7l27 57q16 -15 36 -15q40 0 60 109l64 363h-130l-64 -363q-17 -93 -49.5 -137t-85.5 -44q-20 0 -40.5 7.5
t-30.5 15.5l-11 7l27 57q16 -15 36 -15q40 0 60 109l64 363h-64l13 73h64l5 28q16 91 72 136t134 45q58 0 106 -28q46 28 108 28q41 0 81 -21l76 15zM414 502q10 61 37 102q-26 6 -48 6q-45 0 -78 -28t-42 -80l-4 -28h130zM637 474l23 130q-20 6 -39 6q-45 0 -74.5 -27.5
t-39.5 -80.5l-5 -28h135z" />
    <glyph glyph-name="fj" unicode="fj" horiz-adv-x="557" 
d="M279 474h233l-89 -502q-18 -102 -72 -141.5t-144 -39.5l13 72q91 0 108 98l77 440h-139l-64 -363q-17 -93 -49.5 -137t-85.5 -44q-20 0 -40.5 7.5t-30.5 15.5l-11 7l27 57q16 -15 36 -15q40 0 60 109l64 363h-64l13 73h64l5 28q16 91 70 136t126 45q24 0 48 -7.5
t36 -15.5l13 -7l-27 -58q-23 15 -59 15q-45 0 -74.5 -27.5t-39.5 -80.5z" />
    <glyph glyph-name="tt" unicode="tt" horiz-adv-x="628" 
d="M480 407l-40 -228q-9 -51 2.5 -81.5t38.5 -30.5q14 0 26.5 7.5t18.5 15.5l5 8l23 -51q-3 -6 -9 -15t-31.5 -23.5t-58.5 -14.5q-55 0 -90 48.5t-21 123.5l42 241h-174l-40 -228q-9 -51 2.5 -81.5t38.5 -30.5q15 0 27.5 7.5t17.5 15.5l5 8l24 -51q-1 -2 -3 -5.5t-10.5 -13
t-18.5 -16.5t-28 -12.5t-39 -5.5q-55 0 -90 48.5t-22 123.5l43 241h-74l13 73q46 0 68.5 24.5t33.5 85.5l89 23l-24 -133h101q46 0 68.5 24.5t33.5 85.5l89 23l-24 -133h90l-12 -73h-91z" />
    <glyph glyph-name="ft" unicode="ft" horiz-adv-x="602" 
d="M459 401l-39 -222q-9 -51 2.5 -81.5t38.5 -30.5q15 0 27.5 7.5t17.5 15.5l5 8l24 -51q-1 -2 -3 -5.5t-10.5 -13t-18.5 -16.5t-28 -12.5t-39 -5.5q-55 0 -90 48.5t-22 123.5l42 235h-135l-64 -363q-17 -93 -49.5 -137t-85.5 -44q-20 0 -40.5 7.5t-31.5 15.5l-10 7l27 57
q16 -15 36 -15q40 0 60 109l64 363h-64l13 73h64l5 28q15 90 69 135.5t120 45.5q49 0 89 -27l75 21l-36 -203h90l-12 -73h-91zM333 474q32 0 46.5 25t29.5 98q-26 13 -54 13q-39 0 -68 -26.5t-39 -81.5l-4 -28h89z" />
    <glyph glyph-name=".notdef" horiz-adv-x="669" 
d="M181 683h428l-121 -689h-428zM458 617h-148l41 -187zM247 570l-82 -463l133 231zM211 60h149l-42 186zM422 107l82 463l-133 -232z" />
    <glyph glyph-name=".null" horiz-adv-x="0" 
 />
    <glyph glyph-name="nonmarkingreturn" horiz-adv-x="333" 
 />
    <glyph glyph-name="NULL" horiz-adv-x="200" 
 />
    <glyph glyph-name="CR" unicode="&#xd;" horiz-adv-x="200" 
 />
    <glyph glyph-name="space" unicode=" " horiz-adv-x="200" 
 />
    <glyph glyph-name="exclam" unicode="!" horiz-adv-x="243" 
d="M50 0l17 99h99l-17 -99h-99zM169 677h99l-21 -117l-86 -362h-53l41 362z" />
    <glyph glyph-name="quotedbl" unicode="&#x22;" horiz-adv-x="278" 
d="M35 474l9 203h87l-63 -203h-33zM156 677h87l-63 -203h-33z" />
    <glyph glyph-name="numbersign" unicode="#" horiz-adv-x="589" 
d="M512 396h-96l-34 -121h89l-11 -66h-97l-60 -209h-73l60 209h-65l-60 -209h-73l60 209h-87l12 66h94l34 121h-97l12 66h104l59 209h74l-60 -209h65l59 209h74l-60 -209h89zM308 275l35 121h-65l-34 -121h64z" />
    <glyph glyph-name="dollar" unicode="$" horiz-adv-x="414" 
d="M295 598q27 -4 49 -15t31 -21l9 -9l-37 -57q-31 32 -73 32q-29 0 -48.5 -17.5t-24.5 -42.5q-4 -26 17 -58.5t48 -60t46.5 -67.5t12.5 -80q-9 -48 -38.5 -80t-73.5 -44l-15 -84h-64l14 78q-37 2 -66.5 14.5t-40.5 23.5l-11 11l39 60q40 -39 96 -39q27 0 45.5 16t23.5 44
q4 25 -9 51t-33.5 49.5l-41.5 48t-33 55.5t-6 63q7 45 40 79t79 46l15 83h64z" />
    <glyph glyph-name="percent" unicode="%" horiz-adv-x="696" 
d="M330 503q-15 -83 -59.5 -131.5t-102.5 -48.5q-57 0 -85 48.5t-13 131.5q15 84 59.5 132t102.5 48t85.5 -48t12.5 -132zM143 503q-9 -49 1 -80.5t36 -31.5t47.5 31.5t29.5 80.5q9 49 -1 81t-36 32q-27 0 -48 -31.5t-29 -81.5zM527 353q58 0 86 -48t13 -131
q-15 -84 -59.5 -132t-102.5 -48t-85.5 48t-12.5 132q15 83 59.5 131t101.5 48zM553 174q9 49 -1 80.5t-36 31.5t-47.5 -31.5t-30.5 -80.5q-8 -50 2 -81.5t36 -31.5t47.5 32t29.5 81zM486 677h77l-353 -677h-77z" />
    <glyph glyph-name="ampersand" unicode="&#x26;" horiz-adv-x="477" 
d="M403 152l54 -81l-59 -68q-4 5 -19.5 29t-24.5 36q-58 -74 -151 -74q-76 0 -119.5 50t-29.5 130q18 104 128 180q-38 94 -26 166q14 77 63 120t109 43t94 -43t21 -120q-11 -60 -56.5 -109t-95.5 -80q19 -36 64 -107q13 51 24 111h73q-21 -116 -49 -183zM250 520
q-10 -62 15 -132q70 50 84 132q7 39 -2 64.5t-32 25.5q-22 0 -40 -26t-25 -64zM220 67q58 0 95 59q-71 107 -102 165q-54 -54 -65 -117q-8 -42 13 -74.5t59 -32.5z" />
    <glyph glyph-name="quotesingle" unicode="'" horiz-adv-x="86" 
d="M35 474l9 203h87l-63 -203h-33z" />
    <glyph glyph-name="parenleft" unicode="(" horiz-adv-x="317" 
d="M140 237q-15 -112 -6.5 -195t27.5 -131l19 -48l-47 -72q-3 3 -8 9t-18 28t-24.5 46t-23.5 64t-18 82t-5.5 99.5t11.5 117.5q14 82 44.5 158.5t63.5 126.5t64.5 88t51.5 56l20 17l21 -73l-14.5 -17.5t-34.5 -50t-46 -79.5t-43.5 -102.5t-33.5 -123.5z" />
    <glyph glyph-name="parenright" unicode=")" horiz-adv-x="297" 
d="M164 683q3 -3 8 -9t18 -28t24.5 -46t23.5 -64t18 -82t5.5 -99.5t-11.5 -117.5q-14 -82 -44.5 -158.5t-63.5 -126.5t-64.5 -88t-51.5 -56l-20 -17l-21 72l14.5 18t34.5 50.5t46 79t43.5 102.5t33.5 124q15 112 6.5 194.5t-27.5 130.5l-19 48z" />
    <glyph glyph-name="asterisk" unicode="*" horiz-adv-x="334" 
d="M289 608l-87 -50l70 -49l-25 -31l-67 47l-16 -86h-36l15 86l-84 -47l-14 31l88 49l-71 50l25 30l68 -47l15 86h36l-15 -86l85 47z" />
    <glyph glyph-name="plus" unicode="+" horiz-adv-x="339" 
d="M212 276h92l-13 -72h-92l-16 -92h-73l16 92h-91l13 72h91l16 92h73z" />
    <glyph glyph-name="comma" unicode="," horiz-adv-x="231" 
d="M98 113h98l-117 -197h-69z" />
    <glyph glyph-name="hyphen" unicode="-" horiz-adv-x="343" 
d="M58 276h240l-13 -72h-240z" />
    <glyph glyph-name="period" unicode="." horiz-adv-x="186" 
d="M52 99h99l-17 -99h-99z" />
    <glyph glyph-name="slash" unicode="/" horiz-adv-x="397" 
d="M298 683h74l-273 -689h-74z" />
    <glyph glyph-name="zero" unicode="0" horiz-adv-x="433" 
d="M254 486q78 0 118 -61.5t18 -184.5q-22 -124 -78 -185t-133 -61q-78 0 -117.5 61.5t-18.5 184.5q22 124 78.5 185t132.5 61zM297 240q14 81 0.5 127t-50.5 46q-36 0 -66 -46.5t-44 -126.5q-14 -81 -0.5 -127t49.5 -46q37 0 67 46t44 127z" />
    <glyph glyph-name="one" unicode="1" horiz-adv-x="249" 
d="M55 447l159 39l-85 -486h-94l68 388l-61 -15z" />
    <glyph glyph-name="two" unicode="2" horiz-adv-x="382" 
d="M344 351q-4 -25 -16.5 -51.5t-23.5 -44.5t-37 -48t-38 -42l-48 -47l-46 -45h167l-13 -73h-233l-21 73l48.5 51l45.5 47.5l37 39.5t33 39t23.5 34t18.5 35t9 32q5 26 -5.5 44t-40.5 18q-19 0 -39 -9t-31 -18l-10 -9l-18 60q5 5 14.5 13.5t41 22t65.5 13.5q55 0 91.5 -37
t25.5 -98z" />
    <glyph glyph-name="three" unicode="3" horiz-adv-x="371" 
d="M334 347q-5 -28 -18 -53.5t-28 -42t-29 -29.5t-23 -18l-10 -6q3 -2 9 -5t20 -15t23.5 -26t15.5 -37.5t2 -48.5q-9 -53 -42.5 -101t-74.5 -78t-80.5 -53t-66.5 -33l-27 -10l-20 68l21 8t47.5 24.5t62.5 42t54 60t34 79.5q8 45 -9 76t-46 21l-42 -15l-17 57q78 31 110 61.5
t40 74.5q5 26 -9 45.5t-42 19.5q-24 0 -47 -9t-34 -18l-11 -9l-17 60l16.5 13.5t42.5 22t64 13.5q62 0 101.5 -39.5t29.5 -99.5z" />
    <glyph glyph-name="four" unicode="4" horiz-adv-x="433" 
d="M328 140h70l-13 -73h-70l-48 -270h-94l48 270h-165l-21 73l271 340h82zM234 140l34 193l-150 -193h116z" />
    <glyph glyph-name="five" unicode="5" horiz-adv-x="402" 
d="M354 407h-137l-40 -175q21 7 40 7q67 0 102 -47t23 -115q-9 -53 -47 -101.5t-86 -80.5t-94.5 -57t-78.5 -36l-31 -11l-20 68l26.5 11t59 30t76.5 47t64.5 60t36.5 70q6 37 -14 63t-58 26q-19 0 -37 -6t-27 -12l-8 -7l-35 43l68 296h230z" />
    <glyph glyph-name="six" unicode="6" horiz-adv-x="425" 
d="M257 413q65 0 102.5 -56t20.5 -154q-16 -94 -66.5 -151.5t-126.5 -57.5q-85 0 -125 66.5t-19 185.5q12 68 36.5 128t54 102.5t62 78t63.5 57.5t55.5 37.5t39.5 21.5l15 6l21 -73q-5 -2 -14.5 -6.5t-37 -23t-53 -41t-56.5 -61.5t-54 -85q37 26 82 26zM286 203q11 57 -2 97
t-45 40t-59 -39.5t-37 -97.5q-10 -57 3 -96.5t45 -39.5t58.5 39.5t36.5 96.5z" />
    <glyph glyph-name="seven" unicode="7" horiz-adv-x="398" 
d="M363 480l-13 -78l-22.5 -29.5t-54 -82t-73 -129t-69 -166.5t-52.5 -198h-94q18 104 53.5 205t72.5 170t71.5 123.5t56.5 80.5l22 26h-216l14 78h304z" />
    <glyph glyph-name="eight" unicode="8" horiz-adv-x="459" 
d="M420 495q-16 -94 -89 -140q66 -54 45 -168q-15 -89 -70.5 -141t-125.5 -52q-72 0 -114.5 53t-26.5 140q19 113 104 168q-55 46 -39 140q14 81 62.5 131.5t117.5 50.5q72 0 110.5 -52t25.5 -130zM283 192q10 58 -4.5 92t-47.5 34q-34 0 -60.5 -34t-36.5 -92t4.5 -92
t47.5 -34q34 0 60.5 34t36.5 92zM326 498q9 49 -4 77.5t-41 28.5t-51 -28.5t-32 -77.5t4 -78t41 -29q29 0 52 29t31 78z" />
    <glyph glyph-name="nine" unicode="9" horiz-adv-x="427" 
d="M236 486q83 0 126 -67.5t23 -184.5q-13 -72 -38 -136t-55 -107.5t-63 -79.5t-63.5 -57.5t-55 -36.5t-39.5 -21l-15 -5l-21 72q6 2 15.5 6.5t38 23.5t55 42.5t58.5 66.5t55 93q-40 -28 -86 -28q-65 0 -103 56t-21 154q16 93 66.5 151t122.5 58zM284 277q10 57 -3 96.5
t-44 39.5q-32 0 -59 -39.5t-37 -96.5q-10 -58 2.5 -97.5t44.5 -39.5t59 39.5t37 97.5z" />
    <glyph glyph-name="colon" unicode=":" horiz-adv-x="253" 
d="M35 0l17 99h99l-17 -99h-99zM120 480h98l-17 -99h-99z" />
    <glyph glyph-name="semicolon" unicode=";" horiz-adv-x="261" 
d="M-25 -84l88 197h98l-117 -197h-69zM127 480h99l-18 -99h-98z" />
    <glyph glyph-name="less" unicode="&#x3c;" horiz-adv-x="351" 
d="M306 376l-164 -135l116 -134l-45 -70l-168 204l240 205z" />
    <glyph glyph-name="equal" unicode="=" horiz-adv-x="344" 
d="M35 101l13 73h240l-13 -73h-240zM69 295h240l-12 -72h-241z" />
    <glyph glyph-name="greater" unicode="&#x3e;" horiz-adv-x="351" 
d="M138 446l168 -205l-241 -204l-20 70l164 134l-117 135z" />
    <glyph glyph-name="question" unicode="?" horiz-adv-x="399" 
d="M235 683q59 0 90 -35.5t22 -87.5q-6 -34 -28 -64t-49.5 -51.5l-55 -41t-48 -41t-24.5 -43.5q-4 -20 8 -37t33 -17q16 0 32.5 8.5t24.5 16.5l8 9l15 -51q-4 -6 -13 -15.5t-38.5 -25t-62.5 -15.5q-50 0 -77.5 35.5t-19.5 84.5q6 35 28 65t49.5 51l55 40.5t48 41t24.5 44.5
q4 24 -9 40t-42 16q-20 0 -41 -9t-31 -19l-11 -9l-16 56q6 6 16.5 15t44 24t67.5 15zM58 0l17 99h99l-18 -99h-98z" />
    <glyph glyph-name="at" unicode="@" horiz-adv-x="799" 
d="M460 597q94 0 165.5 -49t102.5 -128t16 -167q-34 -194 -169 -194q-42 0 -73.5 17.5t-41.5 34.5l-11 17q-1 -3 -3.5 -7.5t-12 -16.5t-20.5 -21t-29 -16.5t-38 -7.5q-56 0 -85 52t-13 142q34 194 184 194q30 0 56 -14t37 -28l11 -14l-32 -182q-9 -52 17.5 -78.5t68.5 -26.5
t68.5 35.5t40.5 113.5q22 125 -48.5 215.5t-198.5 90.5q-127 0 -228 -89t-124 -217q-22 -123 51.5 -214.5t193.5 -91.5q33 0 71.5 7t60.5 14l22 7l16 -35q-78 -32 -177 -32q-61 0 -118 27t-97.5 72.5t-60 110.5t-7.5 135q26 151 140.5 247.5t264.5 96.5zM426 253l18 103
q-8 25 -29 25q-25 0 -48.5 -35.5t-32.5 -92.5q-11 -63 -4.5 -95.5t27.5 -32.5t39.5 33.5t29.5 94.5z" />
    <glyph glyph-name="A" unicode="A" horiz-adv-x="449" 
d="M382 677l32 -677h-101l-4 162h-127l-62 -162h-95l271 677h86zM210 234h97l-7 235z" />
    <glyph glyph-name="B" unicode="B" horiz-adv-x="436" 
d="M415 494q-8 -42 -30.5 -75t-40.5 -45l-19 -12q2 -1 4.5 -2.5t11 -8.5t15 -15t15.5 -22t12.5 -30t6 -38.5t-3.5 -47.5q-18 -98 -71.5 -148t-136.5 -50h-153l119 677h131q173 0 140 -183zM287 197q9 54 -5 87t-48 33h-55l-42 -241h55q34 0 59.5 33t35.5 88zM317 497
q8 49 -6 76t-50 27h-32l-36 -207h32q35 0 59 27.5t33 76.5z" />
    <glyph glyph-name="C" unicode="C" horiz-adv-x="381" 
d="M303 683q24 0 44.5 -6t32.5 -14.5t20.5 -17.5t11.5 -15l4 -6l-41 -62q-2 5 -6.5 12.5t-23 20t-41.5 12.5q-52 0 -92 -70.5t-63 -198.5q-21 -122 -2.5 -195t67.5 -73q24 0 45.5 10t30.5 20l9 10l18 -62q-3 -6 -11 -15t-38 -24t-68 -15q-85 0 -133.5 80.5t-21.5 235.5
l10 57q28 155 98 235.5t150 80.5z" />
    <glyph glyph-name="D" unicode="D" horiz-adv-x="454" 
d="M283 677q91 0 126.5 -73t5.5 -237l-10 -57q-29 -165 -89.5 -237.5t-152.5 -72.5h-138l119 677h139zM312 338q22 129 10.5 195.5t-53.5 66.5h-40l-92 -524h39q42 0 77.5 67.5t58.5 194.5z" />
    <glyph glyph-name="E" unicode="E" horiz-adv-x="360" 
d="M381 600h-152l-34 -194h115l-13 -77h-115l-45 -253h152l-14 -76h-250l119 677h251z" />
    <glyph glyph-name="F" unicode="F" horiz-adv-x="394" 
d="M405 600h-176l-38 -216h146l-13 -76h-146l-55 -308h-98l119 677h275z" />
    <glyph glyph-name="G" unicode="G" horiz-adv-x="420" 
d="M217 333l13 77h151l-53 -302l-5 -12.5t-16 -27t-28.5 -34.5t-43.5 -27.5t-60 -12.5q-88 0 -127 79t-11 237l10 57q27 151 90.5 233.5t148.5 82.5q24 0 43.5 -6t31 -14t20 -16t11.5 -14l3 -6l-38 -59q-2 4 -7 10.5t-22.5 17.5t-39.5 11q-47 0 -84.5 -64.5t-59.5 -186.5
l-6 -35q-21 -122 -9.5 -186.5t49.5 -64.5q19 0 34 12.5t21 25.5l6 12l38 213h-60z" />
    <glyph glyph-name="H" unicode="H" horiz-adv-x="430" 
d="M367 677h98l-119 -677h-99l54 306h-124l-54 -306h-98l119 677h99l-52 -294h124z" />
    <glyph glyph-name="I" unicode="I" horiz-adv-x="208" 
d="M144 677h99l-120 -677h-98z" />
    <glyph glyph-name="J" unicode="J" horiz-adv-x="440" 
d="M317 677h98l-82 -465q-20 -112 -64.5 -165t-121.5 -53q-35 0 -65.5 11t-43.5 23l-13 11l42 66q35 -35 81 -35q32 0 53.5 36t34.5 115z" />
    <glyph glyph-name="K" unicode="K" horiz-adv-x="467" 
d="M482 677l-173 -235l59 -442h-104l-43 323l-53 -73l-45 -250h-98l119 677h99l-43 -245l179 245h103z" />
    <glyph glyph-name="L" unicode="L" horiz-adv-x="332" 
d="M137 76h150l-14 -76h-248l119 677h99z" />
    <glyph glyph-name="M" unicode="M" horiz-adv-x="588" 
d="M478 677h110l-74 -677h-96l54 447l-162 -453h-80l-3 448l-103 -442h-89l164 677h110l11 -419z" />
    <glyph glyph-name="N" unicode="N" horiz-adv-x="481" 
d="M386 677h95l-120 -683h-96l-69 434l-75 -428h-96l119 677h96l69 -434z" />
    <glyph glyph-name="O" unicode="O" horiz-adv-x="428" 
d="M280 683q47 0 79.5 -29.5t48 -100t-6.5 -186.5l-10 -57q-29 -163 -93.5 -239.5t-139.5 -76.5t-112.5 76.5t-8.5 239.5l10 57q29 163 93.5 239.5t139.5 76.5zM300 356q21 119 11.5 185t-45.5 66t-69 -66.5t-54 -184.5l-6 -35q-21 -120 -11 -185.5t46 -65.5t68.5 66.5
t53.5 184.5z" />
    <glyph glyph-name="P" unicode="P" horiz-adv-x="420" 
d="M305 677q77 0 114 -49.5t21 -140.5q-15 -91 -70 -140t-132 -49h-52l-53 -298h-98l119 677h151zM342 487q9 55 -5.5 84t-47.5 29h-50l-40 -226h50q33 0 58.5 29.5t34.5 83.5z" />
    <glyph glyph-name="Q" unicode="Q" horiz-adv-x="428" 
d="M280 683q47 0 79.5 -29.5t48 -100t-6.5 -186.5l-10 -57q-23 -132 -70.5 -207t-107.5 -99q3 -44 47 -44h5l-14 -76h-4q-65 0 -99.5 31t-34.5 87q-54 21 -77 96.5t1 211.5l10 57q29 163 93.5 239.5t139.5 76.5zM300 356q21 119 11.5 185t-45.5 66t-69 -66.5t-54 -184.5
l-6 -35q-21 -120 -11 -185.5t46 -65.5t68.5 66.5t53.5 184.5z" />
    <glyph glyph-name="R" unicode="R" horiz-adv-x="431" 
d="M289 677q79 0 116.5 -46t20.5 -139q-24 -135 -126 -172l42 -320h-96l-41 308h-27l-55 -308h-98l119 677h145zM327 492q9 51 -3.5 79.5t-44.5 28.5h-50l-38 -216h50q31 0 54 29t32 79z" />
    <glyph glyph-name="S" unicode="S" horiz-adv-x="423" 
d="M283 677q43 0 75.5 -13.5t43.5 -27.5l11 -13l-39 -60q-35 37 -82 37q-34 0 -57 -22.5t-28 -51.5q-6 -34 8.5 -72.5t38.5 -73.5l47.5 -71.5t37 -78.5t6.5 -82q-12 -70 -65 -115t-123 -45q-44 0 -79.5 15t-49.5 30l-13 15l42 66q5 -6 13.5 -14t34.5 -22t52 -14q74 0 90 86
q5 29 -10 63t-39 67.5l-48 70.5t-37 83t-5 92q12 64 59.5 107.5t115.5 43.5z" />
    <glyph glyph-name="T" unicode="T" horiz-adv-x="347" 
d="M38 677h324l-14 -77h-112l-106 -600h-98l105 600h-112z" />
    <glyph glyph-name="U" unicode="U" horiz-adv-x="410" 
d="M336 677h99l-82 -465q-20 -112 -72.5 -165t-126.5 -53q-75 0 -108 53t-13 165l82 465h99l-78 -438q-15 -92 -7.5 -130.5t39.5 -38.5t53.5 39t37.5 130z" />
    <glyph glyph-name="V" unicode="V" horiz-adv-x="451" 
d="M331 677h95l-276 -677h-87l-38 677h101l18 -478z" />
    <glyph glyph-name="W" unicode="W" horiz-adv-x="549" 
d="M499 677h95l-242 -677h-87l-1 418l-149 -418h-86l-4 677h101l-10 -442l147 442h99l-9 -442z" />
    <glyph glyph-name="X" unicode="X" horiz-adv-x="536" 
d="M511 677l-183 -330l70 -347h-105l-46 225l-120 -225h-102l189 341l-68 336h106l43 -214l113 214h103z" />
    <glyph glyph-name="Y" unicode="Y" horiz-adv-x="367" 
d="M300 677h102l-204 -370l-55 -307h-98l54 308l-74 369h105l44 -237z" />
    <glyph glyph-name="Z" unicode="Z" horiz-adv-x="446" 
d="M147 677h274l-15 -82l-268 -519h177l-14 -76h-276l14 82l269 518h-174z" />
    <glyph glyph-name="bracketleft" unicode="[" horiz-adv-x="436" 
d="M190 677h211l-13 -73h-117l-129 -734h117l-13 -73h-211z" />
    <glyph glyph-name="backslash" unicode="\" horiz-adv-x="204" 
d="M124 683l30 -689h-74l-30 689h74z" />
    <glyph glyph-name="bracketright" unicode="]" horiz-adv-x="376" 
d="M130 677h211l-155 -880h-211l13 73h117l129 734h-117z" />
    <glyph glyph-name="asciicircum" unicode="^" horiz-adv-x="297" 
d="M196 621l66 -93h-67l-37 55l-55 -55h-68l99 93h62z" />
    <glyph glyph-name="underscore" unicode="_" horiz-adv-x="371" 
d="M48 67h288l-13 -73h-288z" />
    <glyph glyph-name="grave" unicode="`" horiz-adv-x="189" 
d="M122 621l32 -93h-67l-52 93h87z" />
    <glyph glyph-name="a" unicode="a" horiz-adv-x="438" 
d="M339 117q-4 -23 11.5 -36.5t42.5 -13.5l-13 -73q-45 0 -75 23.5t-25 53.5q-1 -3 -3.5 -8.5t-12.5 -18.5t-22.5 -23t-33.5 -18.5t-45 -8.5q-62 0 -94 44t-21 109q13 75 77 121.5t154 46.5q8 40 -8 66t-49 26q-20 0 -40.5 -9.5t-30.5 -18.5l-10 -9l-37 56q6 6 17.5 15
t46.5 24t69 15q66 0 107.5 -47.5t28.5 -120.5zM255 174l12 68q-109 0 -125 -92q-6 -36 6 -59.5t37 -23.5q51 0 70 107z" />
    <glyph glyph-name="b" unicode="b" horiz-adv-x="412" 
d="M273 480q52 0 78 -60.5t9 -157.5l-10 -58q-18 -102 -63 -156t-113 -54q-62 0 -101.5 56.5t-21.5 153.5l77 440h-60l12 69h158l-48 -270q33 37 83 37zM262 237q13 73 6 121.5t-32 48.5q-24 0 -48 -48t-38 -122q-13 -73 -6 -121.5t32 -48.5t49 48.5t37 121.5z" />
    <glyph glyph-name="c" unicode="c" horiz-adv-x="409" 
d="M266 480q29 0 53.5 -11t34.5 -23l10 -11l-30 -59q-24 31 -63 31q-43 0 -76.5 -47.5t-46.5 -122.5q-13 -76 5 -123t66 -47q15 0 30.5 6t23.5 12l8 6l28 -58q-4 -4 -11.5 -10.5t-34 -17.5t-58.5 -11q-79 0 -124.5 64.5t-31.5 149.5l10 58q18 101 74.5 157.5t132.5 56.5z
" />
    <glyph glyph-name="d" unicode="d" horiz-adv-x="482" 
d="M331 114q-4 -22 11.5 -34.5t43.5 -12.5l-13 -73q-49 0 -82.5 23.5t-28.5 53.5q-1 -3 -3 -8.5t-10.5 -18.5t-19.5 -23t-30 -18.5t-42 -8.5q-62 0 -92.5 58.5t-12.5 155.5l10 58q38 214 158 214q21 0 39.5 -11t26.5 -23l8 -11l37 209h-70l12 69h164zM262 237q13 66 7.5 118
t-31.5 52t-50 -49.5t-37 -120.5q-13 -67 -6.5 -118.5t33.5 -51.5q26 0 48.5 49t35.5 121z" />
    <glyph glyph-name="e" unicode="e" horiz-adv-x="395" 
d="M243 480q62 0 90 -61.5t11 -156.5l-9 -52h-194q-12 -65 5 -104t54 -39q21 0 43 11.5t33 23.5l11 11l28 -61q-5 -6 -14.5 -16t-43 -26t-70.5 -16q-72 0 -113 57t-24 153l10 58q18 106 67 162t116 56zM256 273q11 57 5 95.5t-31 38.5t-46.5 -37.5t-32.5 -96.5h105z" />
    <glyph glyph-name="f" unicode="f" horiz-adv-x="451" 
d="M283 502l-4 -28h111l-13 -73h-111l-64 -363q-17 -93 -49.5 -137t-85.5 -44q-20 0 -40.5 7.5t-30.5 15.5l-11 7l27 57q16 -15 36 -15q40 0 60 109l64 363h-64l13 73h64l5 28q15 87 52.5 134t91.5 47q21 0 39 -7.5t25 -15.5l8 -7l-27 -58q-12 15 -31 15q-46 0 -65 -108z
" />
    <glyph glyph-name="g" unicode="g" horiz-adv-x="491" 
d="M342 474h104l-13 -73h-33l-75 -429q-18 -96 -57 -138.5t-103 -42.5q-53 0 -90.5 36.5t-26.5 104.5h70q-6 -31 7.5 -50t36.5 -19q49 0 68 109l14 72q-3 -6 -8.5 -14t-26 -22t-44.5 -14q-52 0 -80.5 55t-10.5 155l10 58q40 218 152 218q23 0 42 -12.5t26 -25.5l7 -12z
M286 237q13 68 8 119t-31 51q-27 0 -52 -49.5t-37 -120.5q-12 -67 -4.5 -118.5t33.5 -51.5t48 48.5t35 121.5z" />
    <glyph glyph-name="h" unicode="h" horiz-adv-x="459" 
d="M359 114q-4 -21 12.5 -34t42.5 -13l-13 -73q-69 0 -106 40.5t-26 103.5l30 169q8 44 -2 72t-33 28q-24 0 -43.5 -28t-27.5 -72l-54 -307h-94l113 644h-60l12 69h154l-45 -257q34 24 74 24q58 0 86 -47t11 -140z" />
    <glyph glyph-name="i" unicode="i" horiz-adv-x="285" 
d="M136 636h104l-16 -93h-104zM207 474l-64 -360q-4 -23 10.5 -35t44.5 -12l-13 -73q-72 0 -108.5 34.5t-25.5 96.5l49 276h-55l13 73h149z" />
    <glyph glyph-name="j" unicode="j" horiz-adv-x="429" 
d="M189 401l12 73h149l-88 -502q-18 -102 -72.5 -141.5t-144.5 -39.5l13 72q91 0 108 98l78 440h-55zM279 636h105l-17 -93h-103z" />
    <glyph glyph-name="k" unicode="k" horiz-adv-x="464" 
d="M417 371q-13 -79 -106 -135l22 -123q7 -46 49 -46l-12 -73q-112 0 -134 131q-5 33 -9 70l-57 -18l-31 -177h-94l113 644h-60l12 69h155l-56 -314l5.5 8t16 18t26 23t35 18t43.5 8q42 0 66 -30.5t16 -72.5zM322 364q3 15 -2.5 26t-19.5 11q-35 0 -72.5 -53t-46.5 -109
q129 53 141 125z" />
    <glyph glyph-name="l" unicode="l" horiz-adv-x="291" 
d="M140 114q-4 -23 12.5 -35t42.5 -12l-13 -73q-66 0 -105.5 35.5t-28.5 95.5l91 519h-60l12 69h155z" />
    <glyph glyph-name="m" unicode="m" horiz-adv-x="663" 
d="M563 114q-4 -21 12.5 -34t42.5 -13l-13 -73q-69 0 -105.5 40.5t-25.5 103.5l29 169q9 44 0 72t-35 28t-44.5 -27t-26.5 -73l-54 -307h-94l54 307q8 45 -2 72.5t-37 27.5q-52 0 -71 -100l-54 -307h-94l71 404h-49l13 70h75l26 -55q44 61 112 61q69 0 96 -56q42 56 108 56
q58 0 86 -47t12 -140z" />
    <glyph glyph-name="n" unicode="n" horiz-adv-x="459" 
d="M359 114q-4 -21 12.5 -34t42.5 -13l-13 -73q-69 0 -105.5 40.5t-25.5 103.5l30 169q8 45 -2 72.5t-34 27.5t-43.5 -27.5t-27.5 -72.5l-54 -307h-94l71 404h-49l13 70h75l26 -55q44 61 112 61q58 0 86 -47t12 -140z" />
    <glyph glyph-name="o" unicode="o" horiz-adv-x="418" 
d="M248 480q66 0 101.5 -55t17.5 -159l-10 -58q-38 -214 -186 -214q-61 0 -99.5 56t-20.5 158l10 58q19 106 69 160t118 54zM268 237q14 77 6 123.5t-35 46.5q-28 0 -51.5 -46t-37.5 -124q-14 -77 -6 -123.5t35 -46.5q28 0 51.5 46t37.5 124z" />
    <glyph glyph-name="p" unicode="p" horiz-adv-x="472" 
d="M325 480q59 0 85.5 -57.5t8.5 -160.5l-10 -58q-37 -210 -150 -210q-24 0 -43.5 12.5t-26.5 25.5l-7 12l-43 -247h-94l106 604h-44l13 73h95l21 -44q3 6 10 14t30 22t49 14zM321 237q13 73 6 121.5t-31 48.5q-27 0 -50 -47t-36 -123q-13 -73 -6 -121.5t31 -48.5
q25 0 49 48t37 122z" />
    <glyph glyph-name="q" unicode="q" horiz-adv-x="440" 
d="M395 474l-107 -603h55l-13 -74h-148l13 74l30 173q-3 -6 -9.5 -14t-28.5 -22t-46 -14q-53 0 -79.5 53t-8.5 157l10 58q19 105 60 161.5t97 56.5q23 0 41 -12.5t25 -25.5l7 -12l23 44h79zM265 237q13 66 6.5 118t-32.5 52q-27 0 -50.5 -49.5t-35.5 -120.5
q-14 -67 -7.5 -118.5t33.5 -51.5q26 0 49.5 49t36.5 121z" />
    <glyph glyph-name="r" unicode="r" horiz-adv-x="397" 
d="M284 480q19 0 36 -5t24 -11l8 -5l-34 -72q-14 20 -41 20q-32 0 -55.5 -35.5t-33.5 -92.5l-49 -279h-94l71 404h-49l13 70h75l27 -58q44 64 102 64z" />
    <glyph glyph-name="s" unicode="s" horiz-adv-x="406" 
d="M193 362q-4 -20 10 -44t35.5 -48l43 -50t34 -57.5t7.5 -62.5q-9 -50 -45.5 -78t-89.5 -28q-28 0 -53 8.5t-40.5 20.5t-27.5 24t-17 21l-5 8l39 60q4 -8 12 -19.5t32.5 -30.5t48.5 -19q51 0 59 48q4 22 -17.5 54t-49.5 61.5t-48 70t-14 76.5q9 51 46.5 77t91.5 26
q35 0 64 -13.5t41 -26.5l11 -14l-37 -56q-28 37 -74 37q-49 0 -57 -45z" />
    <glyph glyph-name="t" unicode="t" horiz-adv-x="361" 
d="M212 407l-40 -228q-19 -112 45 -112q14 0 25.5 7.5t15.5 15.5l5 8l24 -51q-1 -2 -2.5 -5.5t-9 -13t-17 -16.5t-26 -12.5t-36.5 -5.5q-60 0 -97 45.5t-23 126.5l43 241h-74l13 73h39q27 0 39 22t24 88l89 23l-24 -133h91l-13 -73h-91z" />
    <glyph glyph-name="u" unicode="u" horiz-adv-x="445" 
d="M339 125q-5 -27 12.5 -42.5t44.5 -15.5l-13 -73q-26 0 -48 5.5t-34.5 13t-21.5 15.5t-12 14l-3 5q-1 -2 -2.5 -5.5t-8.5 -13t-16.5 -16.5t-27.5 -12.5t-40 -5.5q-61 0 -95 50.5t-19 136.5l39 220h-49l13 73h142l-43 -250q-28 -157 26 -157q28 0 46.5 37t32.5 120l44 250
h94z" />
    <glyph glyph-name="v" unicode="v" horiz-adv-x="432" 
d="M272 510q64 0 93.5 -37.5t18.5 -104.5l-33 -184q-17 -97 -60 -143.5t-114 -46.5q-61 0 -97.5 51t-22.5 136l39 220h-51l13 73h145l-44 -250q-28 -157 26 -157q30 0 47.5 37t31.5 120l30 166q4 22 -6.5 35t-28.5 13z" />
    <glyph glyph-name="w" unicode="w" horiz-adv-x="628" 
d="M467 510q69 0 96.5 -37t15.5 -105l-32 -184q-17 -92 -58.5 -141t-104.5 -49q-31 0 -54.5 16t-31.5 32l-9 17q-4 -7 -11.5 -18t-38 -29t-69.5 -18q-61 0 -92.5 53t-16.5 137l39 220h-55l12 70h149l-44 -250q-28 -157 21 -157q51 0 77 157l45 250h93l-44 -250
q-28 -157 26 -157q52 0 80 157l29 166q4 24 -6 36t-29 12z" />
    <glyph glyph-name="x" unicode="x" horiz-adv-x="464" 
d="M306 125q14 -58 53 -58l-13 -73q-55 0 -85 33t-46 98l-4 15l-79 -140h-87l140 247l-39 154h-50l13 73h110l35 -138l78 138h87l-139 -245z" />
    <glyph glyph-name="y" unicode="y" horiz-adv-x="447" 
d="M286 510q70 0 97 -35t14 -109l-69 -394q-16 -92 -55 -136.5t-107 -44.5q-56 0 -93 46t-25 118h77q-6 -39 5 -65.5t36 -26.5q47 0 67 109l14 81q-2 -4 -6.5 -9.5t-23 -14.5t-42.5 -9q-54 0 -89.5 52t-20.5 136l35 196h-55l12 70h149l-39 -224q-14 -68 -6 -112.5t36 -44.5
q57 0 86 157l24 140q9 48 -33 48z" />
    <glyph glyph-name="z" unicode="z" horiz-adv-x="376" 
d="M318 401l-165 -328h133l-13 -73h-228l15 84l160 317h-123l12 73h222z" />
    <glyph glyph-name="braceleft" unicode="{" horiz-adv-x="425" 
d="M287 683q32 0 58 -14t35 -28l10 -14l-35 -54q-22 34 -59 34q-45 0 -62 -93q-9 -53 -4 -115.5t-1 -92.5q-8 -44 -48 -69q32 -26 24 -69q-5 -31 -32 -93t-37 -115q-16 -93 29 -93q17 0 34.5 8.5t26.5 16.5l10 8l16 -53q-4 -6 -12 -15.5t-37 -25t-61 -15.5q-56 0 -85 43
t-19 101q10 54 37 116t31 87q5 27 -7 45t-38 18h-21l13 72h21q26 0 44 18t23 44q4 24 -1 87t5 117q10 60 48.5 102t93.5 42z" />
    <glyph glyph-name="bar" unicode="|" horiz-adv-x="339" 
d="M200 677h94l-155 -880h-94z" />
    <glyph glyph-name="braceright" unicode="}" horiz-adv-x="355" 
d="M317 539q-10 -54 -37 -116t-31 -88q-5 -26 6.5 -44t38.5 -18h20l-13 -72h-20q-27 0 -44.5 -18t-22.5 -45q-5 -25 0 -86.5t-4 -116.5q-10 -60 -48.5 -102t-93.5 -42q-32 0 -58 14t-36 28l-9 14l35 53q22 -33 59 -33q45 0 62 93q9 53 4 115t0 93q8 44 49 69q-32 25 -24 69
q5 31 32 93t36 115q17 93 -29 93q-16 0 -34 -8.5t-27 -16.5l-10 -9l-15 54q5 6 14 15.5t39.5 25t62.5 15.5q56 0 82 -42.5t16 -101.5z" />
    <glyph glyph-name="asciitilde" unicode="~" horiz-adv-x="299" 
d="M217 612h47q-14 -73 -77 -73q-13 0 -28.5 5t-27 10t-22.5 7.5t-17.5 -2.5t-9.5 -20h-47q12 73 77 73q13 0 28.5 -5t27 -10t22.5 -7.5t17.5 2.5t9.5 20z" />
    <glyph glyph-name="uni00A0" unicode="&#xa0;" horiz-adv-x="200" 
 />
    <glyph glyph-name="exclamdown" unicode="&#xa1;" horiz-adv-x="318" 
d="M169 474h99l-18 -99h-98zM71 -86l86 361h53l-41 -361l-21 -117h-98z" />
    <glyph glyph-name="cent" unicode="&#xa2;" horiz-adv-x="363" 
d="M251 599q27 -2 48.5 -13.5t30.5 -21.5l8 -11l-35 -54q-19 29 -59 29q-44 0 -76 -50t-44 -122q-14 -75 2.5 -123.5t63.5 -48.5q16 0 31 6t22 12l7 5l17 -57q-32 -33 -102 -37l-13 -77h-65l16 88q-47 22 -66.5 83t-3.5 149q15 89 55.5 150t96.5 83l16 88h64z" />
    <glyph glyph-name="sterling" unicode="&#xa3;" horiz-adv-x="467" 
d="M321 683q24 0 45.5 -6.5t34.5 -15.5t23 -18t14 -15l4 -7l-34 -52q-4 5 -11.5 12t-30.5 19t-46 12q-30 0 -54 -23.5t-30 -60.5q-10 -51 10 -133h135l-12 -66h-113q2 -32 -3 -57q-18 -108 -71 -181q7 -2 38.5 -14.5t54.5 -12.5q22 0 44.5 8t33.5 16l11 7l-12 -71
q-40 -30 -90 -30q-25 0 -60 15t-60 15q-24 0 -54.5 -12t-62.5 -12l12 71q90 0 125 201q6 28 4 57h-74l12 66h54q-1 6 -5.5 26.5t-5.5 29l-3 24.5t-1.5 28.5t2.5 24.5q11 65 61 110t115 45z" />
    <glyph glyph-name="currency" unicode="&#xa4;" horiz-adv-x="456" 
d="M358 517q-7 -41 -30 -79l37 -51l-57 -44l-29 41q-39 -28 -79 -28t-70 28l-44 -41l-41 44l55 51q-9 35 -2 79q8 44 29 78l-36 51l56 44l30 -41q39 28 79 28q41 0 69 -28l44 41l42 -44l-55 -51q9 -35 2 -78zM285 517q7 38 -4 65t-37 27t-46.5 -27t-27.5 -65q-6 -39 4.5 -66
t36.5 -27q27 0 47 27t27 66z" />
    <glyph glyph-name="yen" unicode="&#xa5;" horiz-adv-x="475" 
d="M450 677l-171 -322h102l-11 -66h-118l-7 -44h117l-12 -66h-117l-32 -179h-91l32 179h-117l12 66h117l7 44h-117l12 66h104l-58 322h98l39 -236l124 236h87z" />
    <glyph glyph-name="brokenbar" unicode="&#xa6;" horiz-adv-x="339" 
d="M200 677h94l-68 -386h-94zM45 -203l68 386h94l-68 -386h-94z" />
    <glyph glyph-name="section" unicode="&#xa7;" horiz-adv-x="481" 
d="M235 564q-4 -24 23.5 -49t62 -45t60 -52.5t19.5 -68.5q-12 -65 -95 -108q62 -54 49 -121q-9 -54 -55 -90t-112 -36q-42 0 -77.5 13.5t-49.5 26.5l-15 14l40 61q4 -5 12.5 -12.5t36.5 -19.5t57 -12q63 0 71 50q4 21 -14 43.5t-45 44l-54 44.5t-43 54t-10 64q10 57 98 92
q-60 49 -50 103q9 52 55.5 87.5t108.5 35.5q38 0 70 -13.5t45 -27.5l13 -13l-39 -59q-37 42 -89 42q-31 0 -50 -13.5t-23 -34.5zM308 342q3 21 -15 39t-56 44q-43 -20 -49 -54q-3 -14 1 -25.5t19.5 -26t22 -20t32.5 -24.5q38 31 45 67z" />
    <glyph glyph-name="dieresis" unicode="&#xa8;" horiz-adv-x="296" 
d="M182 608h79l-14 -79h-78zM35 529l14 79h79l-14 -79h-79z" />
    <glyph glyph-name="copyright" unicode="&#xa9;" 
d="M436 530q25 0 45 -9.5t27 -19.5l7 -10l-25 -40q-16 26 -52 26q-37 0 -66.5 -37t-40.5 -102q-12 -63 4.5 -101t49.5 -38q16 0 32 5.5t24 11.5l8 5l12 -41q-31 -34 -92 -34q-57 0 -90 51.5t-17 140.5q16 90 66 141t108 51zM457 683q143 0 225.5 -101t57.5 -244
q-25 -142 -143.5 -243t-261.5 -101q-142 0 -225.5 100.5t-58.5 243.5q26 143 144.5 244t261.5 101zM696 346q10 62 -3 117q-14 55 -47 92q-69 83 -189 83q-61 0 -123 -24q-59 -24 -110 -66q-51 -44 -83 -99q-34 -55 -45 -118q-12 -61 3 -117q12 -52 46 -92q69 -83 190 -83
q61 0 123 24q57 22 109 66q50 43 84 98q34 57 45 119z" />
    <glyph glyph-name="ordfeminine" unicode="&#xaa;" horiz-adv-x="422" 
d="M260 671q69 0 103 -45t20 -123l-58 -330h-76l-10 44q-4 -6 -11.5 -14t-33.5 -22t-56 -14q-47 0 -73.5 39.5t-16.5 98.5q13 76 81 134t160 58q17 101 -55 101q-21 0 -41.5 -8t-30.5 -16l-11 -9l-17 56q6 6 17.5 14t44.5 22t64 14zM262 347l16 90q-49 0 -87 -36t-47 -88
q-7 -34 5.5 -53.5t37.5 -19.5q27 0 47 28.5t28 78.5zM35 17l13 73h225l-13 -73h-225z" />
    <glyph glyph-name="guillemotleft" unicode="&#xab;" horiz-adv-x="448" 
d="M403 378l-135 -137l86 -137l-64 -45l-91 144l13 77l142 144zM249 378l-135 -137l86 -137l-64 -45l-91 144l14 77l141 144z" />
    <glyph glyph-name="logicalnot" unicode="&#xac;" horiz-adv-x="400" 
d="M48 282h317l-30 -167h-72l16 94h-244z" />
    <glyph glyph-name="uni00AD" unicode="&#xad;" horiz-adv-x="200" 
 />
    <glyph glyph-name="registered" unicode="&#xae;" horiz-adv-x="524" 
d="M273 583q64 0 53 -57q-3 -17 -13 -30t-19 -17l-9 -4l14 -101h-36l-13 94h-14l-16 -94h-39l37 209h55zM288 526q2 12 -3 20.5t-17 8.5h-16l-11 -59h17q24 0 30 30zM291 683q85 0 134.5 -60t34.5 -145t-86 -145t-156 -60t-134.5 60t-34.5 145t86 145t156 60zM425 484
q12 70 -28 117q-39 47 -106 47q-34 0 -70 -14t-63 -38q-28 -23 -49 -56q-19 -32 -25 -68q-12 -69 27 -118q40 -46 107 -46q37 0 70 13t63 38q32 28 48 57q20 32 26 68z" />
    <glyph glyph-name="macron" unicode="&#xaf;" horiz-adv-x="290" 
d="M45 604h210l-10 -59h-210z" />
    <glyph glyph-name="degree" unicode="&#xb0;" horiz-adv-x="339" 
d="M194 683q58 0 88 -39.5t19 -101.5q-10 -61 -54.5 -101t-102.5 -40q-57 0 -87 40t-19 101q10 61 54.5 101t101.5 40zM239 542q7 38 -8.5 61t-46.5 23q-32 0 -55 -23t-29 -61q-7 -38 8 -61t47 -23q31 0 54 23t30 61z" />
    <glyph glyph-name="plusminus" unicode="&#xb1;" horiz-adv-x="363" 
d="M236 343h92l-13 -73h-91l-17 -92h-72l16 92h-92l13 73h92l16 91h72zM35 57l13 72h229l-13 -72h-229z" />
    <glyph glyph-name="twosuperior" unicode="&#xb2;" horiz-adv-x="263" 
d="M164 680q43 0 61 -32t11 -71q-6 -37 -29.5 -78t-42.5 -64.5t-52 -59.5h85l-10 -58h-140l-22 42l36 40t61 83.5t45 94.5q4 19 -2 31.5t-21 12.5q-12 0 -24 -6.5t-18 -13.5l-6 -7l-14 49q34 37 82 37z" />
    <glyph glyph-name="threesuperior" unicode="&#xb3;" horiz-adv-x="255" 
d="M228 586q-10 -56 -49 -81q33 -31 24 -87q-9 -48 -38 -76t-70 -28q-20 0 -37.5 8t-25.5 16l-7 8l32 49q10 -24 37 -24q31 0 41 53q4 25 -2 38.5t-17 13.5h-32l10 58h32q24 0 32 47q3 17 -1.5 29t-16.5 12q-11 0 -21 -6.5t-15 -13.5l-5 -6l-15 51q34 33 72 33
q40 0 59 -27.5t13 -66.5z" />
    <glyph glyph-name="acute" unicode="&#xb4;" horiz-adv-x="222" 
d="M100 621h87l-85 -93h-67z" />
    <glyph glyph-name="mu" unicode="&#xb5;" horiz-adv-x="503" 
d="M364 474h94l-84 -474h-78l-8 44q-3 -6 -9.5 -14t-26.5 -22t-40 -14q-11 0 -20 4.5t-12 9.5l-3 5l-38 -216h-94l119 677h94l-46 -261q-26 -146 27 -146t79 146z" />
    <glyph glyph-name="paragraph" unicode="&#xb6;" horiz-adv-x="585" 
d="M269 677h165l-155 -880h-99l87 489h-67q-76 0 -113.5 53.5t-21.5 142.5t72 142t132 53zM476 677h49l-155 -880h-49z" />
    <glyph glyph-name="periodcentered" unicode="&#xb7;" horiz-adv-x="206" 
d="M62 388h99l-17 -99h-99z" />
    <glyph glyph-name="cedilla" unicode="&#xb8;" horiz-adv-x="266" 
d="M147 -48q40 0 64.5 -25.5t17.5 -63.5q-7 -36 -36 -54t-73 -18q-24 0 -45.5 7t-30.5 14l-9 7l21 32q18 -21 54 -21q21 0 34 13t16 32q3 18 -4.5 31.5t-25.5 13.5q-19 0 -34 -19h-37l50 78h38l-19 -29q6 2 19 2z" />
    <glyph glyph-name="onesuperior" unicode="&#xb9;" horiz-adv-x="183" 
d="M52 654l106 26l-64 -363h-69l51 287l-34 -9z" />
    <glyph glyph-name="ordmasculine" unicode="&#xba;" horiz-adv-x="438" 
d="M273 671q68 0 99.5 -60t13.5 -163l-10 -58q-18 -103 -70.5 -163t-121.5 -60q-68 0 -99.5 60t-13.5 163l10 58q18 103 70.5 163t121.5 60zM287 419q15 80 7.5 129.5t-34.5 49.5t-51.5 -49t-38.5 -130q-15 -80 -7.5 -129.5t34.5 -49.5q28 0 52 49t38 130zM45 17l13 73h225
l-13 -73h-225z" />
    <glyph glyph-name="guillemotright" unicode="&#xbb;" horiz-adv-x="448" 
d="M249 280l-14 -77l-141 -144l-49 45l134 137l-86 137l65 46zM312 424l91 -144l-14 -77l-141 -144l-49 45l134 137l-86 137z" />
    <glyph glyph-name="onequarter" unicode="&#xbc;" horiz-adv-x="550" 
d="M413 677h77l-353 -677h-77zM419 360h59l-34 -197h32l-10 -57h-32l-19 -106h-69l19 106h-92l9 50zM379 152l15 87l-53 -87h38zM168 317h-69l51 287l-34 -9l10 59l106 26z" />
    <glyph glyph-name="onehalf" unicode="&#xbd;" horiz-adv-x="571" 
d="M413 677h77l-353 -677h-77zM437 363q43 0 61 -32t11 -71q-6 -37 -30 -78.5t-42.5 -64t-52.5 -59.5h85l-10 -58h-140l-22 42l36 40t61 83.5t46 94.5q7 44 -24 44q-12 0 -24 -7t-18 -13l-5 -7l-15 49q34 37 83 37zM168 317h-69l51 287l-34 -9l10 59l106 26z" />
    <glyph glyph-name="threequarters" unicode="&#xbe;" horiz-adv-x="568" 
d="M431 677h77l-353 -677h-77zM438 360h59l-35 -197h33l-10 -57h-33l-19 -106h-69l19 106h-92l9 50zM397 152l15 87l-53 -87h38zM238 418q-9 -48 -38 -76t-70 -28q-20 0 -37.5 8t-24.5 16l-8 8l32 49q10 -24 37 -24q31 0 41 53q4 25 -2 38.5t-17 13.5h-32l10 58h32
q24 0 32 47q3 17 -1.5 29t-16.5 12q-11 0 -21 -6.5t-15 -13.5l-5 -6l-15 51q34 33 72 33q40 0 59 -27.5t13 -66.5q-10 -56 -49 -81q33 -31 24 -87z" />
    <glyph glyph-name="questiondown" unicode="&#xbf;" horiz-adv-x="389" 
d="M250 282q50 0 77.5 -35.5t19.5 -85.5q-7 -42 -39 -78.5t-66 -58t-64.5 -49.5t-35.5 -55q-4 -24 9 -40.5t42 -16.5q20 0 41 9.5t32 18.5l10 9l16 -55q-6 -6 -16.5 -15t-44 -24t-67.5 -15q-59 0 -90 35.5t-22 87.5q7 41 39 77.5t66.5 58.5t64.5 50t35 55q3 21 -8.5 37.5
t-32.5 16.5q-16 0 -32.5 -8.5t-24.5 -17.5l-8 -9l-15 52q4 6 13 15.5t38.5 25t62.5 15.5zM341 474l-17 -99h-99l18 99h98z" />
    <glyph glyph-name="Agrave" unicode="&#xc0;" horiz-adv-x="449" 
d="M382 677l32 -677h-101l-4 162h-127l-62 -162h-95l271 677h86zM210 234h97l-7 235zM340 821l32 -93h-67l-52 93h87z" />
    <glyph glyph-name="Aacute" unicode="&#xc1;" horiz-adv-x="449" 
d="M382 677l32 -677h-101l-4 162h-127l-62 -162h-95l271 677h86zM210 234h97l-7 235zM369 821h87l-85 -93h-67z" />
    <glyph glyph-name="Acircumflex" unicode="&#xc2;" horiz-adv-x="449" 
d="M382 677l32 -677h-101l-4 162h-127l-62 -162h-95l271 677h86zM210 234h97l-7 235zM389 821l66 -93h-67l-37 55l-55 -55h-68l99 93h62z" />
    <glyph glyph-name="Atilde" unicode="&#xc3;" horiz-adv-x="449" 
d="M382 677l32 -677h-101l-4 162h-127l-62 -162h-95l271 677h86zM210 234h97l-7 235zM412 812h47q-14 -73 -77 -73q-13 0 -28.5 5t-27 10t-22.5 7.5t-17.5 -2.5t-9.5 -20h-47q12 73 77 73q13 0 28.5 -5t27 -10t22.5 -7.5t17.5 2.5t9.5 20z" />
    <glyph glyph-name="Adieresis" unicode="&#xc4;" horiz-adv-x="449" 
d="M382 677l32 -677h-101l-4 162h-127l-62 -162h-95l271 677h86zM210 234h97l-7 235zM383 808h79l-14 -79h-78zM236 729l14 79h79l-14 -79h-79z" />
    <glyph glyph-name="Aring" unicode="&#xc5;" horiz-adv-x="449" 
d="M382 677l32 -677h-101l-4 162h-127l-62 -162h-95l271 677h86zM210 234h97l-7 235zM378 883q35 0 53 -25.5t11 -62.5q-6 -37 -33 -62.5t-63 -25.5q-35 0 -53 25.5t-11 62.5q6 37 33 62.5t63 25.5zM391 795q3 18 -3.5 30t-18.5 12t-22.5 -12t-13.5 -30t3.5 -30t18.5 -12
t22.5 12t13.5 30z" />
    <glyph glyph-name="AE" unicode="&#xc6;" horiz-adv-x="636" 
d="M618 600h-152l-35 -194h115l-13 -77h-115l-45 -253h152l-13 -76h-251l29 162h-94l-71 -162h-100l310 677h296zM303 234l50 286l-126 -286h76z" />
    <glyph glyph-name="Ccedilla" unicode="&#xc7;" horiz-adv-x="381" 
d="M303 683q24 0 44.5 -6t32.5 -14.5t20.5 -17.5t11.5 -15l4 -6l-41 -62q-2 5 -6.5 12.5t-23 20t-41.5 12.5q-52 0 -92 -70.5t-63 -198.5q-21 -122 -2.5 -195t67.5 -73q24 0 45.5 10t30.5 20l9 10l18 -62q-3 -6 -11 -15t-38 -24t-68 -15q-85 0 -133.5 80.5t-21.5 235.5
l10 57q28 155 98 235.5t150 80.5zM168 -48q40 0 64.5 -25.5t17.5 -63.5q-7 -36 -36 -54t-73 -18q-24 0 -45.5 7t-30.5 14l-9 7l21 32q18 -21 54 -21q21 0 34 13t16 32q3 18 -4.5 31.5t-25.5 13.5q-19 0 -34 -19h-37l50 78h38l-19 -29q6 2 19 2z" />
    <glyph glyph-name="Egrave" unicode="&#xc8;" horiz-adv-x="360" 
d="M381 600h-152l-34 -194h115l-13 -77h-115l-45 -253h152l-14 -76h-250l119 677h251zM290 821l32 -93h-67l-52 93h87z" />
    <glyph glyph-name="Eacute" unicode="&#xc9;" horiz-adv-x="360" 
d="M381 600h-152l-34 -194h115l-13 -77h-115l-45 -253h152l-14 -76h-250l119 677h251zM293 821h87l-85 -93h-67z" />
    <glyph glyph-name="Ecircumflex" unicode="&#xca;" horiz-adv-x="360" 
d="M381 600h-152l-34 -194h115l-13 -77h-115l-45 -253h152l-14 -76h-250l119 677h251zM324 821l66 -93h-67l-37 55l-55 -55h-68l99 93h62z" />
    <glyph glyph-name="Edieresis" unicode="&#xcb;" horiz-adv-x="360" 
d="M381 600h-152l-34 -194h115l-13 -77h-115l-45 -253h152l-14 -76h-250l119 677h251zM320 808h79l-14 -79h-78zM173 729l14 79h79l-14 -79h-79z" />
    <glyph glyph-name="Igrave" unicode="&#xcc;" horiz-adv-x="208" 
d="M144 677h99l-120 -677h-98zM197 821l32 -93h-67l-52 93h87z" />
    <glyph glyph-name="Iacute" unicode="&#xcd;" horiz-adv-x="208" 
d="M144 677h99l-120 -677h-98zM226 821h87l-85 -93h-67z" />
    <glyph glyph-name="Icircumflex" unicode="&#xce;" horiz-adv-x="208" 
d="M144 677h99l-120 -677h-98zM249 821l66 -93h-67l-37 55l-55 -55h-68l99 93h62z" />
    <glyph glyph-name="Idieresis" unicode="&#xcf;" horiz-adv-x="208" 
d="M144 677h99l-120 -677h-98zM245 808h79l-14 -79h-78zM98 729l14 79h79l-14 -79h-79z" />
    <glyph glyph-name="Eth" unicode="&#xd0;" horiz-adv-x="454" 
d="M283 677q91 0 126.5 -73t5.5 -237l-10 -57q-29 -165 -89.5 -237.5t-152.5 -72.5h-138l54 306h-46l14 77h45l52 294h139zM312 338q22 129 10.5 195.5t-53.5 66.5h-40l-38 -217h64l-13 -77h-64l-41 -230h39q42 0 77.5 67.5t58.5 194.5z" />
    <glyph glyph-name="Ntilde" unicode="&#xd1;" horiz-adv-x="481" 
d="M386 677h95l-120 -683h-96l-69 434l-75 -428h-96l119 677h96l69 -434zM401 812h47q-14 -73 -77 -73q-13 0 -28.5 5t-27 10t-22.5 7.5t-17.5 -2.5t-9.5 -20h-47q12 73 77 73q13 0 28.5 -5t27 -10t22.5 -7.5t17.5 2.5t9.5 20z" />
    <glyph glyph-name="Ograve" unicode="&#xd2;" horiz-adv-x="428" 
d="M280 683q47 0 79.5 -29.5t48 -100t-6.5 -186.5l-10 -57q-29 -163 -93.5 -239.5t-139.5 -76.5t-112.5 76.5t-8.5 239.5l10 57q29 163 93.5 239.5t139.5 76.5zM300 356q21 119 11.5 185t-45.5 66t-69 -66.5t-54 -184.5l-6 -35q-21 -120 -11 -185.5t46 -65.5t68.5 66.5
t53.5 184.5zM283 821l32 -93h-67l-52 93h87z" />
    <glyph glyph-name="Oacute" unicode="&#xd3;" horiz-adv-x="428" 
d="M280 683q47 0 79.5 -29.5t48 -100t-6.5 -186.5l-10 -57q-29 -163 -93.5 -239.5t-139.5 -76.5t-112.5 76.5t-8.5 239.5l10 57q29 163 93.5 239.5t139.5 76.5zM300 356q21 119 11.5 185t-45.5 66t-69 -66.5t-54 -184.5l-6 -35q-21 -120 -11 -185.5t46 -65.5t68.5 66.5
t53.5 184.5zM293 821h87l-85 -93h-67z" />
    <glyph glyph-name="Ocircumflex" unicode="&#xd4;" horiz-adv-x="428" 
d="M280 683q47 0 79.5 -29.5t48 -100t-6.5 -186.5l-10 -57q-29 -163 -93.5 -239.5t-139.5 -76.5t-112.5 76.5t-8.5 239.5l10 57q29 163 93.5 239.5t139.5 76.5zM300 356q21 119 11.5 185t-45.5 66t-69 -66.5t-54 -184.5l-6 -35q-21 -120 -11 -185.5t46 -65.5t68.5 66.5
t53.5 184.5zM336 821l66 -93h-67l-37 55l-55 -55h-68l99 93h62z" />
    <glyph glyph-name="Otilde" unicode="&#xd5;" horiz-adv-x="428" 
d="M280 683q47 0 79.5 -29.5t48 -100t-6.5 -186.5l-10 -57q-29 -163 -93.5 -239.5t-139.5 -76.5t-112.5 76.5t-8.5 239.5l10 57q29 163 93.5 239.5t139.5 76.5zM300 356q21 119 11.5 185t-45.5 66t-69 -66.5t-54 -184.5l-6 -35q-21 -120 -11 -185.5t46 -65.5t68.5 66.5
t53.5 184.5zM359 812h47q-14 -73 -77 -73q-13 0 -28.5 5t-27 10t-22.5 7.5t-17.5 -2.5t-9.5 -20h-47q12 73 77 73q13 0 28.5 -5t27 -10t22.5 -7.5t17.5 2.5t9.5 20z" />
    <glyph glyph-name="Odieresis" unicode="&#xd6;" horiz-adv-x="428" 
d="M280 683q47 0 79.5 -29.5t48 -100t-6.5 -186.5l-10 -57q-29 -163 -93.5 -239.5t-139.5 -76.5t-112.5 76.5t-8.5 239.5l10 57q29 163 93.5 239.5t139.5 76.5zM300 356q21 119 11.5 185t-45.5 66t-69 -66.5t-54 -184.5l-6 -35q-21 -120 -11 -185.5t46 -65.5t68.5 66.5
t53.5 184.5zM320 808h79l-14 -79h-78zM173 729l14 79h79l-14 -79h-79z" />
    <glyph glyph-name="multiply" unicode="&#xd7;" horiz-adv-x="344" 
d="M309 331l-95 -106l58 -107l-62 -39l-48 88l-79 -88l-48 39l95 107l-58 106l62 39l48 -88l80 88z" />
    <glyph glyph-name="Oslash" unicode="&#xd8;" horiz-adv-x="492" 
d="M467 753l-61 -125q54 -81 22 -261l-10 -57q-29 -166 -88.5 -241t-137.5 -75q-49 0 -82 27l-47 -98h-38l61 125q-54 81 -22 262l10 57q56 316 227 316q49 0 81 -28l47 98h38zM165 321q-15 -85 -14 -140l184 379q-12 47 -41 47q-36 0 -69 -66.5t-54 -184.5zM328 356
q14 77 14 140l-185 -379q12 -47 42 -47q36 0 69 66.5t54 184.5z" />
    <glyph glyph-name="Ugrave" unicode="&#xd9;" horiz-adv-x="410" 
d="M336 677h99l-82 -465q-20 -112 -72.5 -165t-126.5 -53q-75 0 -108 53t-13 165l82 465h99l-78 -438q-15 -92 -7.5 -130.5t39.5 -38.5t53.5 39t37.5 130zM287 821l32 -93h-67l-52 93h87z" />
    <glyph glyph-name="Uacute" unicode="&#xda;" horiz-adv-x="410" 
d="M336 677h99l-82 -465q-20 -112 -72.5 -165t-126.5 -53q-75 0 -108 53t-13 165l82 465h99l-78 -438q-15 -92 -7.5 -130.5t39.5 -38.5t53.5 39t37.5 130zM303 821h87l-85 -93h-67z" />
    <glyph glyph-name="Ucircumflex" unicode="&#xdb;" horiz-adv-x="410" 
d="M336 677h99l-82 -465q-20 -112 -72.5 -165t-126.5 -53q-75 0 -108 53t-13 165l82 465h99l-78 -438q-15 -92 -7.5 -130.5t39.5 -38.5t53.5 39t37.5 130zM332 821l66 -93h-67l-37 55l-55 -55h-68l99 93h62z" />
    <glyph glyph-name="Udieresis" unicode="&#xdc;" horiz-adv-x="410" 
d="M336 677h99l-82 -465q-20 -112 -72.5 -165t-126.5 -53q-75 0 -108 53t-13 165l82 465h99l-78 -438q-15 -92 -7.5 -130.5t39.5 -38.5t53.5 39t37.5 130zM326 808h79l-14 -79h-78zM179 729l14 79h79l-14 -79h-79z" />
    <glyph glyph-name="Yacute" unicode="&#xdd;" horiz-adv-x="367" 
d="M300 677h102l-204 -370l-55 -307h-98l54 308l-74 369h105l44 -237zM236 821h87l-85 -93h-67z" />
    <glyph glyph-name="Thorn" unicode="&#xde;" horiz-adv-x="435" 
d="M282 534q68 0 103.5 -49t18.5 -147q-17 -99 -65.5 -147t-117.5 -48h-72l-26 -143h-98l119 677h99l-25 -143h64zM306 338q21 119 -41 119h-61l-42 -238h61q60 0 83 119z" />
    <glyph glyph-name="germandbls" unicode="&#xdf;" horiz-adv-x="441" 
d="M412 501q-8 -43 -38 -89.5t-34 -70.5q-4 -25 6.5 -50.5t25 -45.5t23.5 -54.5t2 -74.5q-10 -51 -48 -86.5t-94 -35.5q-28 0 -53.5 9t-36.5 18l-11 9l40 61q23 -24 58 -24q21 0 34.5 16.5t18.5 42.5q5 27 -13 64.5t-35 77t-11 73.5q5 28 35 74t37 86q10 45 1 77t-37 32
t-47 -30.5t-28 -78.5l-88 -501h-94l88 501q16 89 61 135.5t112 46.5q65 0 103 -48.5t23 -133.5z" />
    <glyph glyph-name="agrave" unicode="&#xe0;" horiz-adv-x="438" 
d="M339 117q-4 -23 11.5 -36.5t42.5 -13.5l-13 -73q-45 0 -75 23.5t-25 53.5q-1 -3 -3.5 -8.5t-12.5 -18.5t-22.5 -23t-33.5 -18.5t-45 -8.5q-62 0 -94 44t-21 109q13 75 77 121.5t154 46.5q8 40 -8 66t-49 26q-20 0 -40.5 -9.5t-30.5 -18.5l-10 -9l-37 56q6 6 17.5 15
t46.5 24t69 15q66 0 107.5 -47.5t28.5 -120.5zM255 174l12 68q-109 0 -125 -92q-6 -36 6 -59.5t37 -23.5q51 0 70 107zM263 621l32 -93h-67l-52 93h87z" />
    <glyph glyph-name="aacute" unicode="&#xe1;" horiz-adv-x="438" 
d="M339 117q-4 -23 11.5 -36.5t42.5 -13.5l-13 -73q-45 0 -75 23.5t-25 53.5q-1 -3 -3.5 -8.5t-12.5 -18.5t-22.5 -23t-33.5 -18.5t-45 -8.5q-62 0 -94 44t-21 109q13 75 77 121.5t154 46.5q8 40 -8 66t-49 26q-20 0 -40.5 -9.5t-30.5 -18.5l-10 -9l-37 56q6 6 17.5 15
t46.5 24t69 15q66 0 107.5 -47.5t28.5 -120.5zM255 174l12 68q-109 0 -125 -92q-6 -36 6 -59.5t37 -23.5q51 0 70 107zM268 621h87l-85 -93h-67z" />
    <glyph glyph-name="acircumflex" unicode="&#xe2;" horiz-adv-x="438" 
d="M339 117q-4 -23 11.5 -36.5t42.5 -13.5l-13 -73q-45 0 -75 23.5t-25 53.5q-1 -3 -3.5 -8.5t-12.5 -18.5t-22.5 -23t-33.5 -18.5t-45 -8.5q-62 0 -94 44t-21 109q13 75 77 121.5t154 46.5q8 40 -8 66t-49 26q-20 0 -40.5 -9.5t-30.5 -18.5l-10 -9l-37 56q6 6 17.5 15
t46.5 24t69 15q66 0 107.5 -47.5t28.5 -120.5zM255 174l12 68q-109 0 -125 -92q-6 -36 6 -59.5t37 -23.5q51 0 70 107zM304 621l66 -93h-67l-37 55l-55 -55h-68l99 93h62z" />
    <glyph glyph-name="atilde" unicode="&#xe3;" horiz-adv-x="438" 
d="M339 117q-4 -23 11.5 -36.5t42.5 -13.5l-13 -73q-45 0 -75 23.5t-25 53.5q-1 -3 -3.5 -8.5t-12.5 -18.5t-22.5 -23t-33.5 -18.5t-45 -8.5q-62 0 -94 44t-21 109q13 75 77 121.5t154 46.5q8 40 -8 66t-49 26q-20 0 -40.5 -9.5t-30.5 -18.5l-10 -9l-37 56q6 6 17.5 15
t46.5 24t69 15q66 0 107.5 -47.5t28.5 -120.5zM255 174l12 68q-109 0 -125 -92q-6 -36 6 -59.5t37 -23.5q51 0 70 107zM332 612h47q-14 -73 -77 -73q-13 0 -28.5 5t-27 10t-22.5 7.5t-17.5 -2.5t-9.5 -20h-47q12 73 77 73q13 0 28.5 -5t27 -10t22.5 -7.5t17.5 2.5t9.5 20z
" />
    <glyph glyph-name="adieresis" unicode="&#xe4;" horiz-adv-x="438" 
d="M339 117q-4 -23 11.5 -36.5t42.5 -13.5l-13 -73q-45 0 -75 23.5t-25 53.5q-1 -3 -3.5 -8.5t-12.5 -18.5t-22.5 -23t-33.5 -18.5t-45 -8.5q-62 0 -94 44t-21 109q13 75 77 121.5t154 46.5q8 40 -8 66t-49 26q-20 0 -40.5 -9.5t-30.5 -18.5l-10 -9l-37 56q6 6 17.5 15
t46.5 24t69 15q66 0 107.5 -47.5t28.5 -120.5zM255 174l12 68q-109 0 -125 -92q-6 -36 6 -59.5t37 -23.5q51 0 70 107zM293 608h79l-14 -79h-78zM146 529l14 79h79l-14 -79h-79z" />
    <glyph glyph-name="aring" unicode="&#xe5;" horiz-adv-x="438" 
d="M339 117q-4 -23 11.5 -36.5t42.5 -13.5l-13 -73q-45 0 -75 23.5t-25 53.5q-1 -3 -3.5 -8.5t-12.5 -18.5t-22.5 -23t-33.5 -18.5t-45 -8.5q-62 0 -94 44t-21 109q13 75 77 121.5t154 46.5q8 40 -8 66t-49 26q-20 0 -40.5 -9.5t-30.5 -18.5l-10 -9l-37 56q6 6 17.5 15
t46.5 24t69 15q66 0 107.5 -47.5t28.5 -120.5zM255 174l12 68q-109 0 -125 -92q-6 -36 6 -59.5t37 -23.5q51 0 70 107zM286 683q35 0 53 -25.5t11 -62.5q-6 -37 -33 -62.5t-63 -25.5q-35 0 -53 25.5t-11 62.5q6 37 33 62.5t63 25.5zM299 595q3 18 -3.5 30t-18.5 12
t-22.5 -12t-13.5 -30t3.5 -30t18.5 -12t22.5 12t13.5 30z" />
    <glyph glyph-name="ae" unicode="&#xe6;" horiz-adv-x="612" 
d="M462 480q66 0 90.5 -60.5t6.5 -157.5l-9 -52h-188q-12 -68 2.5 -105.5t54.5 -37.5q21 0 42 11.5t31 23.5l11 11l18 -61q-4 -6 -12.5 -16t-40 -26t-69.5 -16q-21 0 -40 7.5t-30.5 18t-20 21.5t-12.5 19l-3 7q-1 -3 -4 -8t-14 -17.5t-24 -22t-35.5 -17.5t-47.5 -8
q-58 0 -94.5 39.5t-25.5 100.5q15 85 80.5 133t158.5 48q7 41 -6.5 66.5t-46.5 25.5q-20 0 -41.5 -9.5t-32.5 -18.5l-12 -9l-18 62q6 5 17 13t42.5 21.5t60.5 13.5q73 0 110 -44q46 44 102 44zM262 174l14 81q-55 0 -89.5 -30.5t-41.5 -74.5q-6 -35 5.5 -59t35.5 -24
q57 0 76 107zM478 273q23 134 -29 134q-51 0 -76 -134h105z" />
    <glyph glyph-name="ccedilla" unicode="&#xe7;" horiz-adv-x="409" 
d="M266 480q29 0 53.5 -11t34.5 -23l10 -11l-30 -59q-24 31 -63 31q-43 0 -76.5 -47.5t-46.5 -122.5q-13 -76 5 -123t66 -47q15 0 30.5 6t23.5 12l8 6l28 -58q-4 -4 -11.5 -10.5t-34 -17.5t-58.5 -11q-79 0 -124.5 64.5t-31.5 149.5l10 58q18 101 74.5 157.5t132.5 56.5z
M165 -48q40 0 64.5 -25.5t17.5 -63.5q-7 -36 -36 -54t-73 -18q-24 0 -45.5 7t-30.5 14l-9 7l21 32q18 -21 54 -21q21 0 34 13t16 32q3 18 -4.5 31.5t-25.5 13.5q-19 0 -34 -19h-37l50 78h38l-19 -29q6 2 19 2z" />
    <glyph glyph-name="egrave" unicode="&#xe8;" horiz-adv-x="395" 
d="M243 480q62 0 90 -61.5t11 -156.5l-9 -52h-194q-12 -65 5 -104t54 -39q21 0 43 11.5t33 23.5l11 11l28 -61q-5 -6 -14.5 -16t-43 -26t-70.5 -16q-72 0 -113 57t-24 153l10 58q18 106 67 162t116 56zM256 273q11 57 5 95.5t-31 38.5t-46.5 -37.5t-32.5 -96.5h105zM248 621
l32 -93h-67l-52 93h87z" />
    <glyph glyph-name="eacute" unicode="&#xe9;" horiz-adv-x="395" 
d="M243 480q62 0 90 -61.5t11 -156.5l-9 -52h-194q-12 -65 5 -104t54 -39q21 0 43 11.5t33 23.5l11 11l28 -61q-5 -6 -14.5 -16t-43 -26t-70.5 -16q-72 0 -113 57t-24 153l10 58q18 106 67 162t116 56zM256 273q11 57 5 95.5t-31 38.5t-46.5 -37.5t-32.5 -96.5h105zM263 621
h87l-85 -93h-67z" />
    <glyph glyph-name="ecircumflex" unicode="&#xea;" horiz-adv-x="395" 
d="M243 480q62 0 90 -61.5t11 -156.5l-9 -52h-194q-12 -65 5 -104t54 -39q21 0 43 11.5t33 23.5l11 11l28 -61q-5 -6 -14.5 -16t-43 -26t-70.5 -16q-72 0 -113 57t-24 153l10 58q18 106 67 162t116 56zM256 273q11 57 5 95.5t-31 38.5t-46.5 -37.5t-32.5 -96.5h105zM287 621
l66 -93h-67l-37 55l-55 -55h-68l99 93h62z" />
    <glyph glyph-name="edieresis" unicode="&#xeb;" horiz-adv-x="395" 
d="M243 480q62 0 90 -61.5t11 -156.5l-9 -52h-194q-12 -65 5 -104t54 -39q21 0 43 11.5t33 23.5l11 11l28 -61q-5 -6 -14.5 -16t-43 -26t-70.5 -16q-72 0 -113 57t-24 153l10 58q18 106 67 162t116 56zM256 273q11 57 5 95.5t-31 38.5t-46.5 -37.5t-32.5 -96.5h105zM283 608
h79l-14 -79h-78zM136 529l14 79h79l-14 -79h-79z" />
    <glyph glyph-name="igrave" unicode="&#xec;" horiz-adv-x="285" 
d="M136 636h104l-16 -93h-104zM207 474l-64 -360q-4 -23 10.5 -35t44.5 -12l-13 -73q-72 0 -108.5 34.5t-25.5 96.5l49 276h-55l13 73h149zM192 786l32 -93h-67l-52 93h87z" />
    <glyph glyph-name="iacute" unicode="&#xed;" horiz-adv-x="285" 
d="M136 636h104l-16 -93h-104zM207 474l-64 -360q-4 -23 10.5 -35t44.5 -12l-13 -73q-72 0 -108.5 34.5t-25.5 96.5l49 276h-55l13 73h149zM221 786h87l-85 -93h-67z" />
    <glyph glyph-name="icircumflex" unicode="&#xee;" horiz-adv-x="285" 
d="M136 636h104l-16 -93h-104zM207 474l-64 -360q-4 -23 10.5 -35t44.5 -12l-13 -73q-72 0 -108.5 34.5t-25.5 96.5l49 276h-55l13 73h149zM238 786l66 -93h-67l-37 55l-55 -55h-68l99 93h62z" />
    <glyph glyph-name="idieresis" unicode="&#xef;" horiz-adv-x="285" 
d="M136 636h104l-16 -93h-104zM207 474l-64 -360q-4 -23 10.5 -35t44.5 -12l-13 -73q-72 0 -108.5 34.5t-25.5 96.5l49 276h-55l13 73h149zM235 773h79l-14 -79h-78zM88 694l14 79h79l-14 -79h-79z" />
    <glyph glyph-name="eth" unicode="&#xf0;" horiz-adv-x="472" 
d="M427 597l-6 -69l-55 -5q28 -110 -10 -319q-16 -94 -64.5 -152t-116.5 -58q-72 0 -106.5 59t-17.5 151l10 58q18 100 61 159t104 59q33 0 59 -21q-2 25 -8 55l-106 -10l6 69l76 7q-8 13 -16.5 23t-12.5 13l-5 4l41 63q5 -2 14 -8t30.5 -30.5t37.5 -56.5zM268 237
q6 36 7.5 72.5t-7 67t-28.5 30.5q-59 0 -89 -170q-14 -81 -7 -125.5t35 -44.5q59 0 89 170z" />
    <glyph glyph-name="ntilde" unicode="&#xf1;" horiz-adv-x="459" 
d="M359 114q-4 -21 12.5 -34t42.5 -13l-13 -73q-69 0 -105.5 40.5t-25.5 103.5l30 169q8 45 -2 72.5t-34 27.5t-43.5 -27.5t-27.5 -72.5l-54 -307h-94l71 404h-49l13 70h75l26 -55q44 61 112 61q58 0 86 -47t12 -140zM334 612h47q-14 -73 -77 -73q-13 0 -28.5 5t-27 10
t-22.5 7.5t-17.5 -2.5t-9.5 -20h-47q12 73 77 73q13 0 28.5 -5t27 -10t22.5 -7.5t17.5 2.5t9.5 20z" />
    <glyph glyph-name="ograve" unicode="&#xf2;" horiz-adv-x="418" 
d="M248 480q66 0 101.5 -55t17.5 -159l-10 -58q-38 -214 -186 -214q-61 0 -99.5 56t-20.5 158l10 58q19 106 69 160t118 54zM268 237q14 77 6 123.5t-35 46.5q-28 0 -51.5 -46t-37.5 -124q-14 -77 -6 -123.5t35 -46.5q28 0 51.5 46t37.5 124zM253 621l32 -93h-67l-52 93h87z
" />
    <glyph glyph-name="oacute" unicode="&#xf3;" horiz-adv-x="418" 
d="M248 480q66 0 101.5 -55t17.5 -159l-10 -58q-38 -214 -186 -214q-61 0 -99.5 56t-20.5 158l10 58q19 106 69 160t118 54zM268 237q14 77 6 123.5t-35 46.5q-28 0 -51.5 -46t-37.5 -124q-14 -77 -6 -123.5t35 -46.5q28 0 51.5 46t37.5 124zM259 621h87l-85 -93h-67z" />
    <glyph glyph-name="ocircumflex" unicode="&#xf4;" horiz-adv-x="418" 
d="M248 480q66 0 101.5 -55t17.5 -159l-10 -58q-38 -214 -186 -214q-61 0 -99.5 56t-20.5 158l10 58q19 106 69 160t118 54zM268 237q14 77 6 123.5t-35 46.5q-28 0 -51.5 -46t-37.5 -124q-14 -77 -6 -123.5t35 -46.5q28 0 51.5 46t37.5 124zM296 621l66 -93h-67l-37 55
l-55 -55h-68l99 93h62z" />
    <glyph glyph-name="otilde" unicode="&#xf5;" horiz-adv-x="418" 
d="M248 480q66 0 101.5 -55t17.5 -159l-10 -58q-38 -214 -186 -214q-61 0 -99.5 56t-20.5 158l10 58q19 106 69 160t118 54zM268 237q14 77 6 123.5t-35 46.5q-28 0 -51.5 -46t-37.5 -124q-14 -77 -6 -123.5t35 -46.5q28 0 51.5 46t37.5 124zM321 612h47q-14 -73 -77 -73
q-13 0 -28.5 5t-27 10t-22.5 7.5t-17.5 -2.5t-9.5 -20h-47q12 73 77 73q13 0 28.5 -5t27 -10t22.5 -7.5t17.5 2.5t9.5 20z" />
    <glyph glyph-name="odieresis" unicode="&#xf6;" horiz-adv-x="418" 
d="M248 480q66 0 101.5 -55t17.5 -159l-10 -58q-38 -214 -186 -214q-61 0 -99.5 56t-20.5 158l10 58q19 106 69 160t118 54zM268 237q14 77 6 123.5t-35 46.5q-28 0 -51.5 -46t-37.5 -124q-14 -77 -6 -123.5t35 -46.5q28 0 51.5 46t37.5 124zM292 608h79l-14 -79h-78z
M145 529l14 79h79l-14 -79h-79z" />
    <glyph glyph-name="divide" unicode="&#xf7;" horiz-adv-x="404" 
d="M274 394l-15 -84h-84l15 84h84zM130 56l15 83h84l-15 -83h-84zM48 261h321l-13 -73h-321z" />
    <glyph glyph-name="oslash" unicode="&#xf8;" horiz-adv-x="434" 
d="M389 550l-52 -105q58 -60 37 -183l-10 -58q-17 -98 -66.5 -154t-117.5 -56q-32 0 -57 12l-40 -83h-38l50 103q-58 56 -37 178l10 58q18 99 67 158.5t118 59.5q31 0 56 -14l41 84h39zM158 237q-11 -65 -10 -102l125 257q-9 15 -26 15q-59 0 -89 -170zM276 237q11 60 9 101
l-125 -256q9 -15 27 -15q58 0 89 170z" />
    <glyph glyph-name="ugrave" unicode="&#xf9;" horiz-adv-x="451" 
d="M339 125q-5 -27 12.5 -42.5t44.5 -15.5l-13 -73q-26 0 -48 5.5t-34.5 13t-21.5 15.5t-12 14l-3 5q-1 -2 -2.5 -5.5t-8.5 -13t-16.5 -16.5t-27.5 -12.5t-40 -5.5q-61 0 -95 50.5t-19 136.5l39 220h-49l13 73h142l-43 -250q-28 -157 26 -157q28 0 46.5 37t32.5 120l44 250
h94zM265 621l32 -93h-67l-52 93h87z" />
    <glyph glyph-name="uacute" unicode="&#xfa;" horiz-adv-x="451" 
d="M339 125q-5 -27 12.5 -42.5t44.5 -15.5l-13 -73q-26 0 -48 5.5t-34.5 13t-21.5 15.5t-12 14l-3 5q-1 -2 -2.5 -5.5t-8.5 -13t-16.5 -16.5t-27.5 -12.5t-40 -5.5q-61 0 -95 50.5t-19 136.5l39 220h-49l13 73h142l-43 -250q-28 -157 26 -157q28 0 46.5 37t32.5 120l44 250
h94zM274 621h87l-85 -93h-67z" />
    <glyph glyph-name="ucircumflex" unicode="&#xfb;" horiz-adv-x="451" 
d="M339 125q-5 -27 12.5 -42.5t44.5 -15.5l-13 -73q-26 0 -48 5.5t-34.5 13t-21.5 15.5t-12 14l-3 5q-1 -2 -2.5 -5.5t-8.5 -13t-16.5 -16.5t-27.5 -12.5t-40 -5.5q-61 0 -95 50.5t-19 136.5l39 220h-49l13 73h142l-43 -250q-28 -157 26 -157q28 0 46.5 37t32.5 120l44 250
h94zM308 621l66 -93h-67l-37 55l-55 -55h-68l99 93h62z" />
    <glyph glyph-name="udieresis" unicode="&#xfc;" horiz-adv-x="451" 
d="M339 125q-5 -27 12.5 -42.5t44.5 -15.5l-13 -73q-26 0 -48 5.5t-34.5 13t-21.5 15.5t-12 14l-3 5q-1 -2 -2.5 -5.5t-8.5 -13t-16.5 -16.5t-27.5 -12.5t-40 -5.5q-61 0 -95 50.5t-19 136.5l39 220h-49l13 73h142l-43 -250q-28 -157 26 -157q28 0 46.5 37t32.5 120l44 250
h94zM296 608h79l-14 -79h-78zM149 529l14 79h79l-14 -79h-79z" />
    <glyph glyph-name="yacute" unicode="&#xfd;" horiz-adv-x="447" 
d="M286 510q70 0 97 -35t14 -109l-69 -394q-16 -92 -55 -136.5t-107 -44.5q-56 0 -93 46t-25 118h77q-6 -39 5 -65.5t36 -26.5q47 0 67 109l14 81q-2 -4 -6.5 -9.5t-23 -14.5t-42.5 -9q-54 0 -89.5 52t-20.5 136l35 196h-55l12 70h149l-39 -224q-14 -68 -6 -112.5t36 -44.5
q57 0 86 157l24 140q9 48 -33 48zM259 621h87l-85 -93h-67z" />
    <glyph glyph-name="thorn" unicode="&#xfe;" horiz-adv-x="472" 
d="M326 480q55 0 83.5 -57.5t10.5 -160.5l-10 -58q-18 -104 -60 -157t-97 -53q-22 0 -40.5 9t-25.5 19l-7 9l-41 -234h-94l158 898l98 24l-48 -277q28 38 73 38zM324 250q13 68 6 112.5t-34 44.5t-49 -43.5t-34 -113.5l-6 -34q-26 -149 29 -149q27 0 48.5 40t33.5 109z" />
    <glyph glyph-name="ydieresis" unicode="&#xff;" horiz-adv-x="447" 
d="M286 510q70 0 97 -35t14 -109l-69 -394q-16 -92 -55 -136.5t-107 -44.5q-56 0 -93 46t-25 118h77q-6 -39 5 -65.5t36 -26.5q47 0 67 109l14 81q-2 -4 -6.5 -9.5t-23 -14.5t-42.5 -9q-54 0 -89.5 52t-20.5 136l35 196h-55l12 70h149l-39 -224q-14 -68 -6 -112.5t36 -44.5
q57 0 86 157l24 140q9 48 -33 48zM289 608h79l-14 -79h-78zM142 529l14 79h79l-14 -79h-79z" />
    <glyph glyph-name="Amacron" unicode="&#x100;" horiz-adv-x="449" 
d="M382 677l32 -677h-101l-4 162h-127l-62 -162h-95l271 677h86zM210 234h97l-7 235zM251 804h210l-10 -59h-210z" />
    <glyph glyph-name="amacron" unicode="&#x101;" horiz-adv-x="438" 
d="M339 117q-4 -23 11.5 -36.5t42.5 -13.5l-13 -73q-45 0 -75 23.5t-25 53.5q-1 -3 -3.5 -8.5t-12.5 -18.5t-22.5 -23t-33.5 -18.5t-45 -8.5q-62 0 -94 44t-21 109q13 75 77 121.5t154 46.5q8 40 -8 66t-49 26q-20 0 -40.5 -9.5t-30.5 -18.5l-10 -9l-37 56q6 6 17.5 15
t46.5 24t69 15q66 0 107.5 -47.5t28.5 -120.5zM255 174l12 68q-109 0 -125 -92q-6 -36 6 -59.5t37 -23.5q51 0 70 107zM163 604h210l-10 -59h-210z" />
    <glyph glyph-name="Abreve" unicode="&#x102;" horiz-adv-x="449" 
d="M382 677l32 -677h-101l-4 162h-127l-62 -162h-95l271 677h86zM210 234h97l-7 235zM423 818h47q-8 -44 -40.5 -70.5t-82.5 -26.5t-73 26.5t-15 70.5h47q-2 -15 11.5 -26.5t40.5 -11.5t44.5 11.5t20.5 26.5z" />
    <glyph glyph-name="abreve" unicode="&#x103;" horiz-adv-x="438" 
d="M339 117q-4 -23 11.5 -36.5t42.5 -13.5l-13 -73q-45 0 -75 23.5t-25 53.5q-1 -3 -3.5 -8.5t-12.5 -18.5t-22.5 -23t-33.5 -18.5t-45 -8.5q-62 0 -94 44t-21 109q13 75 77 121.5t154 46.5q8 40 -8 66t-49 26q-20 0 -40.5 -9.5t-30.5 -18.5l-10 -9l-37 56q6 6 17.5 15
t46.5 24t69 15q66 0 107.5 -47.5t28.5 -120.5zM255 174l12 68q-109 0 -125 -92q-6 -36 6 -59.5t37 -23.5q51 0 70 107zM342 618h47q-8 -44 -40.5 -70.5t-82.5 -26.5t-73 26.5t-15 70.5h47q-2 -15 11.5 -26.5t40.5 -11.5t44.5 11.5t20.5 26.5z" />
    <glyph glyph-name="Aogonek" unicode="&#x104;" horiz-adv-x="449" 
d="M382 677l32 -677h-101l-4 162h-127l-62 -162h-95l271 677h86zM210 234h97l-7 235zM293 -170q10 0 19.5 5t14.5 11l5 5l10 -32q-21 -28 -73 -28q-32 0 -54 17.5t-16 49.5q5 27 33 57.5t54 46.5l26 17h35l-18.5 -18t-32.5 -42t-25 -56q-6 -33 22 -33z" />
    <glyph glyph-name="aogonek" unicode="&#x105;" horiz-adv-x="438" 
d="M339 117q-4 -23 11.5 -36.5t42.5 -13.5l-13 -73q-45 0 -75 23.5t-25 53.5q-1 -3 -3.5 -8.5t-12.5 -18.5t-22.5 -23t-33.5 -18.5t-45 -8.5q-62 0 -94 44t-21 109q13 75 77 121.5t154 46.5q8 40 -8 66t-49 26q-20 0 -40.5 -9.5t-30.5 -18.5l-10 -9l-37 56q6 6 17.5 15
t46.5 24t69 15q66 0 107.5 -47.5t28.5 -120.5zM255 174l12 68q-109 0 -125 -92q-6 -36 6 -59.5t37 -23.5q51 0 70 107zM319 -170q10 0 19.5 5t14.5 11l5 5l10 -32q-21 -28 -73 -28q-32 0 -54 17.5t-16 49.5q5 27 33 57.5t54 46.5l26 17h35l-18.5 -18t-32.5 -42t-25 -56
q-6 -33 22 -33z" />
    <glyph glyph-name="Cacute" unicode="&#x106;" horiz-adv-x="381" 
d="M303 683q24 0 44.5 -6t32.5 -14.5t20.5 -17.5t11.5 -15l4 -6l-41 -62q-2 5 -6.5 12.5t-23 20t-41.5 12.5q-52 0 -92 -70.5t-63 -198.5q-21 -122 -2.5 -195t67.5 -73q24 0 45.5 10t30.5 20l9 10l18 -62q-3 -6 -11 -15t-38 -24t-68 -15q-85 0 -133.5 80.5t-21.5 235.5
l10 57q28 155 98 235.5t150 80.5zM317 821h87l-85 -93h-67z" />
    <glyph glyph-name="cacute" unicode="&#x107;" horiz-adv-x="409" 
d="M266 480q29 0 53.5 -11t34.5 -23l10 -11l-30 -59q-24 31 -63 31q-43 0 -76.5 -47.5t-46.5 -122.5q-13 -76 5 -123t66 -47q15 0 30.5 6t23.5 12l8 6l28 -58q-4 -4 -11.5 -10.5t-34 -17.5t-58.5 -11q-79 0 -124.5 64.5t-31.5 149.5l10 58q18 101 74.5 157.5t132.5 56.5z
M267 621h87l-85 -93h-67z" />
    <glyph glyph-name="Ccaron" unicode="&#x10c;" horiz-adv-x="381" 
d="M303 683q24 0 44.5 -6t32.5 -14.5t20.5 -17.5t11.5 -15l4 -6l-41 -62q-2 5 -6.5 12.5t-23 20t-41.5 12.5q-52 0 -92 -70.5t-63 -198.5q-21 -122 -2.5 -195t67.5 -73q24 0 45.5 10t30.5 20l9 10l18 -62q-3 -6 -11 -15t-38 -24t-68 -15q-85 0 -133.5 80.5t-21.5 235.5
l10 57q28 155 98 235.5t150 80.5zM370 820h67l-98 -93h-63l-66 93h68l36 -55z" />
    <glyph glyph-name="ccaron" unicode="&#x10d;" horiz-adv-x="409" 
d="M266 480q29 0 53.5 -11t34.5 -23l10 -11l-30 -59q-24 31 -63 31q-43 0 -76.5 -47.5t-46.5 -122.5q-13 -76 5 -123t66 -47q15 0 30.5 6t23.5 12l8 6l28 -58q-4 -4 -11.5 -10.5t-34 -17.5t-58.5 -11q-79 0 -124.5 64.5t-31.5 149.5l10 58q18 101 74.5 157.5t132.5 56.5z
M328 620h67l-98 -93h-63l-66 93h68l36 -55z" />
    <glyph glyph-name="Dcaron" unicode="&#x10e;" horiz-adv-x="454" 
d="M283 677q91 0 126.5 -73t5.5 -237l-10 -57q-29 -165 -89.5 -237.5t-152.5 -72.5h-138l119 677h139zM312 338q22 129 10.5 195.5t-53.5 66.5h-40l-92 -524h39q42 0 77.5 67.5t58.5 194.5zM362 820h67l-98 -93h-63l-66 93h68l36 -55z" />
    <glyph glyph-name="dcaron" unicode="&#x10f;" horiz-adv-x="476" 
d="M331 114q-4 -22 11.5 -34.5t43.5 -12.5l-13 -73q-49 0 -82.5 23.5t-28.5 53.5q-1 -3 -3 -8.5t-10.5 -18.5t-19.5 -23t-30 -18.5t-42 -8.5q-62 0 -92.5 58.5t-12.5 155.5l10 58q38 214 158 214q21 0 39.5 -11t26.5 -23l8 -11l37 209h-70l12 69h164zM262 237q13 66 7.5 118
t-31.5 52t-50 -49.5t-37 -120.5q-13 -67 -6.5 -118.5t33.5 -51.5q26 0 48.5 49t35.5 121zM471 677h87l-17 -99l-54 -89h-49l64 89h-48z" />
    <glyph glyph-name="Dcroat" unicode="&#x110;" horiz-adv-x="454" 
d="M283 677q91 0 126.5 -73t5.5 -237l-10 -57q-29 -165 -89.5 -237.5t-152.5 -72.5h-138l54 306h-46l14 77h45l52 294h139zM312 338q22 129 10.5 195.5t-53.5 66.5h-40l-38 -217h64l-13 -77h-64l-41 -230h39q42 0 77.5 67.5t58.5 194.5z" />
    <glyph glyph-name="dcroat" unicode="&#x111;" horiz-adv-x="511" 
d="M418 604h48l-12 -73h-49l-74 -417q-4 -22 11.5 -34.5t43.5 -12.5l-13 -73q-49 0 -82.5 23.5t-28.5 53.5q-1 -3 -3 -8.5t-10.5 -18.5t-19.5 -23t-30 -18.5t-42 -8.5q-62 0 -92.5 58.5t-12.5 155.5l10 58q38 214 158 214q21 0 39.5 -11t26.5 -23l8 -11l17 96h-71l13 73h71
l16 91l98 24zM262 237q13 66 7.5 118t-31.5 52t-50 -49.5t-37 -120.5q-13 -67 -6.5 -118.5t33.5 -51.5q26 0 48.5 49t35.5 121z" />
    <glyph glyph-name="Emacron" unicode="&#x112;" horiz-adv-x="360" 
d="M381 600h-152l-34 -194h115l-13 -77h-115l-45 -253h152l-14 -76h-250l119 677h251zM186 804h210l-10 -59h-210z" />
    <glyph glyph-name="emacron" unicode="&#x113;" horiz-adv-x="395" 
d="M243 480q62 0 90 -61.5t11 -156.5l-9 -52h-194q-12 -65 5 -104t54 -39q21 0 43 11.5t33 23.5l11 11l28 -61q-5 -6 -14.5 -16t-43 -26t-70.5 -16q-72 0 -113 57t-24 153l10 58q18 106 67 162t116 56zM256 273q11 57 5 95.5t-31 38.5t-46.5 -37.5t-32.5 -96.5h105zM152 604
h210l-10 -59h-210z" />
    <glyph glyph-name="Edotaccent" unicode="&#x116;" horiz-adv-x="360" 
d="M381 600h-152l-34 -194h115l-13 -77h-115l-45 -253h152l-14 -76h-250l119 677h251zM248 816h93l-15 -84h-93z" />
    <glyph glyph-name="edotaccent" unicode="&#x117;" horiz-adv-x="395" 
d="M243 480q62 0 90 -61.5t11 -156.5l-9 -52h-194q-12 -65 5 -104t54 -39q21 0 43 11.5t33 23.5l11 11l28 -61q-5 -6 -14.5 -16t-43 -26t-70.5 -16q-72 0 -113 57t-24 153l10 58q18 106 67 162t116 56zM256 273q11 57 5 95.5t-31 38.5t-46.5 -37.5t-32.5 -96.5h105zM203 616
h93l-15 -84h-93z" />
    <glyph glyph-name="Eogonek" unicode="&#x118;" horiz-adv-x="360" 
d="M381 600h-152l-34 -194h115l-13 -77h-115l-45 -253h152l-14 -76h-250l119 677h251zM213 -170q10 0 19.5 5t14.5 11l5 5l10 -32q-21 -28 -73 -28q-32 0 -54 17.5t-16 49.5q5 27 33 57.5t54 46.5l26 17h35l-18.5 -18t-32.5 -42t-25 -56q-6 -33 22 -33z" />
    <glyph glyph-name="eogonek" unicode="&#x119;" horiz-adv-x="395" 
d="M243 480q62 0 90 -61.5t11 -156.5l-9 -52h-194q-12 -65 5 -104t54 -39q21 0 43 11.5t33 23.5l11 11l28 -61q-5 -6 -14.5 -16t-43 -26t-70.5 -16q-72 0 -113 57t-24 153l10 58q18 106 67 162t116 56zM256 273q11 57 5 95.5t-31 38.5t-46.5 -37.5t-32.5 -96.5h105z
M153 -170q10 0 19.5 5t14.5 11l5 5l10 -32q-21 -28 -73 -28q-32 0 -54 17.5t-16 49.5q5 27 33 57.5t54 46.5l26 17h35l-18.5 -18t-32.5 -42t-25 -56q-6 -33 22 -33z" />
    <glyph glyph-name="Ecaron" unicode="&#x11a;" horiz-adv-x="360" 
d="M381 600h-152l-34 -194h115l-13 -77h-115l-45 -253h152l-14 -76h-250l119 677h251zM343 820h67l-98 -93h-63l-66 93h68l36 -55z" />
    <glyph glyph-name="ecaron" unicode="&#x11b;" horiz-adv-x="395" 
d="M243 480q62 0 90 -61.5t11 -156.5l-9 -52h-194q-12 -65 5 -104t54 -39q21 0 43 11.5t33 23.5l11 11l28 -61q-5 -6 -14.5 -16t-43 -26t-70.5 -16q-72 0 -113 57t-24 153l10 58q18 106 67 162t116 56zM256 273q11 57 5 95.5t-31 38.5t-46.5 -37.5t-32.5 -96.5h105zM307 620
h67l-98 -93h-63l-66 93h68l36 -55z" />
    <glyph glyph-name="Gbreve" unicode="&#x11e;" horiz-adv-x="420" 
d="M217 333l13 77h151l-53 -302l-5 -12.5t-16 -27t-28.5 -34.5t-43.5 -27.5t-60 -12.5q-88 0 -127 79t-11 237l10 57q27 151 90.5 233.5t148.5 82.5q24 0 43.5 -6t31 -14t20 -16t11.5 -14l3 -6l-38 -59q-2 4 -7 10.5t-22.5 17.5t-39.5 11q-47 0 -84.5 -64.5t-59.5 -186.5
l-6 -35q-21 -122 -9.5 -186.5t49.5 -64.5q19 0 34 12.5t21 25.5l6 12l38 213h-60zM365 818h47q-8 -44 -40.5 -70.5t-82.5 -26.5t-73 26.5t-15 70.5h47q-2 -15 11.5 -26.5t40.5 -11.5t44.5 11.5t20.5 26.5z" />
    <glyph glyph-name="gbreve" unicode="&#x11f;" horiz-adv-x="491" 
d="M342 474h104l-13 -73h-33l-75 -429q-18 -96 -57 -138.5t-103 -42.5q-53 0 -90.5 36.5t-26.5 104.5h70q-6 -31 7.5 -50t36.5 -19q49 0 68 109l14 72q-3 -6 -8.5 -14t-26 -22t-44.5 -14q-52 0 -80.5 55t-10.5 155l10 58q40 218 152 218q23 0 42 -12.5t26 -25.5l7 -12z
M286 237q13 68 8 119t-31 51q-27 0 -52 -49.5t-37 -120.5q-12 -67 -4.5 -118.5t33.5 -51.5t48 48.5t35 121.5zM369 618h47q-8 -44 -40.5 -70.5t-82.5 -26.5t-73 26.5t-15 70.5h47q-2 -15 11.5 -26.5t40.5 -11.5t44.5 11.5t20.5 26.5z" />
    <glyph glyph-name="uni0122" unicode="&#x122;" horiz-adv-x="420" 
d="M217 333l13 77h151l-53 -302l-5 -12.5t-16 -27t-28.5 -34.5t-43.5 -27.5t-60 -12.5q-88 0 -127 79t-11 237l10 57q27 151 90.5 233.5t148.5 82.5q24 0 43.5 -6t31 -14t20 -16t11.5 -14l3 -6l-38 -59q-2 4 -7 10.5t-22.5 17.5t-39.5 11q-47 0 -84.5 -64.5t-59.5 -186.5
l-6 -35q-21 -122 -9.5 -186.5t49.5 -64.5q19 0 34 12.5t21 25.5l6 12l38 213h-60zM161 -48q40 0 64.5 -25.5t17.5 -63.5q-7 -36 -36 -54t-73 -18q-24 0 -45.5 7t-30.5 14l-9 7l21 32q18 -21 54 -21q21 0 34 13t16 32q3 18 -4.5 31.5t-25.5 13.5q-19 0 -34 -19h-37l50 78h38
l-19 -29q6 2 19 2z" />
    <glyph glyph-name="uni0123" unicode="&#x123;" horiz-adv-x="491" 
d="M342 474h104l-13 -73h-33l-75 -429q-18 -96 -57 -138.5t-103 -42.5q-53 0 -90.5 36.5t-26.5 104.5h70q-6 -31 7.5 -50t36.5 -19q49 0 68 109l14 72q-3 -6 -8.5 -14t-26 -22t-44.5 -14q-52 0 -80.5 55t-10.5 155l10 58q40 218 152 218q23 0 42 -12.5t26 -25.5l7 -12z
M286 237q13 68 8 119t-31 51q-27 0 -52 -49.5t-37 -120.5q-12 -67 -4.5 -118.5t33.5 -51.5t48 48.5t35 121.5zM369 687l-63 -90h48l-18 -98h-87l17 98l54 90h49z" />
    <glyph glyph-name="Imacron" unicode="&#x12a;" horiz-adv-x="208" 
d="M144 677h99l-120 -677h-98zM108 804h210l-10 -59h-210z" />
    <glyph glyph-name="imacron" unicode="&#x12b;" horiz-adv-x="285" 
d="M207 474l-64 -360q-4 -23 10.5 -35t44.5 -12l-13 -73q-72 0 -108.5 34.5t-25.5 96.5l49 276h-55l13 73h149zM50 604h210l-10 -59h-210z" />
    <glyph glyph-name="Iogonek" unicode="&#x12e;" horiz-adv-x="208" 
d="M144 677h99l-120 -677h-98zM64 -170q10 0 19.5 5t14.5 11l5 5l10 -32q-21 -28 -73 -28q-32 0 -54 17.5t-16 49.5q5 27 33 57.5t54 46.5l26 17h35l-18.5 -18t-32.5 -42t-25 -56q-6 -33 22 -33z" />
    <glyph glyph-name="iogonek" unicode="&#x12f;" horiz-adv-x="285" 
d="M136 636h104l-16 -93h-104zM207 474l-64 -360q-4 -23 10.5 -35t44.5 -12l-13 -73q-72 0 -108.5 34.5t-25.5 96.5l49 276h-55l13 73h149zM127 -170q10 0 19.5 5t14.5 11l5 5l10 -32q-21 -28 -73 -28q-32 0 -54 17.5t-16 49.5q5 27 33 57.5t54 46.5l26 17h35l-18.5 -18
t-32.5 -42t-25 -56q-6 -33 22 -33z" />
    <glyph glyph-name="Idotaccent" unicode="&#x130;" horiz-adv-x="208" 
d="M144 677h99l-120 -677h-98zM170 816h93l-15 -84h-93z" />
    <glyph glyph-name="dotlessi" unicode="&#x131;" horiz-adv-x="285" 
d="M207 474l-64 -360q-4 -23 10.5 -35t44.5 -12l-13 -73q-72 0 -108.5 34.5t-25.5 96.5l49 276h-55l13 73h149z" />
    <glyph glyph-name="uni0136" unicode="&#x136;" horiz-adv-x="467" 
d="M482 677l-173 -235l59 -442h-104l-43 323l-53 -73l-45 -250h-98l119 677h99l-43 -245l179 245h103zM301 -48q40 0 64.5 -25.5t17.5 -63.5q-7 -36 -36 -54t-73 -18q-24 0 -45.5 7t-30.5 14l-9 7l21 32q18 -21 54 -21q21 0 34 13t16 32q3 18 -4.5 31.5t-25.5 13.5
q-19 0 -34 -19h-37l50 78h38l-19 -29q6 2 19 2z" />
    <glyph glyph-name="uni0137" unicode="&#x137;" horiz-adv-x="464" 
d="M417 371q-13 -79 -106 -135l22 -123q7 -46 49 -46l-12 -73q-112 0 -134 131q-5 33 -9 70l-57 -18l-31 -177h-94l113 644h-60l12 69h155l-56 -314l5.5 8t16 18t26 23t35 18t43.5 8q42 0 66 -30.5t16 -72.5zM322 364q3 15 -2.5 26t-19.5 11q-35 0 -72.5 -53t-46.5 -109
q129 53 141 125zM133 -48q40 0 64.5 -25.5t17.5 -63.5q-7 -36 -36 -54t-73 -18q-24 0 -45.5 7t-30.5 14l-9 7l21 32q18 -21 54 -21q21 0 34 13t16 32q3 18 -4.5 31.5t-25.5 13.5q-19 0 -34 -19h-37l50 78h38l-19 -29q6 2 19 2z" />
    <glyph glyph-name="Lacute" unicode="&#x139;" horiz-adv-x="332" 
d="M137 76h150l-14 -76h-248l119 677h99zM230 821h87l-85 -93h-67z" />
    <glyph glyph-name="lacute" unicode="&#x13a;" horiz-adv-x="284" 
d="M140 114q-4 -23 12.5 -35t42.5 -12l-13 -73q-66 0 -105.5 35.5t-28.5 95.5l91 519h-60l12 69h155zM212 843h87l-85 -93h-67z" />
    <glyph glyph-name="uni013B" unicode="&#x13b;" horiz-adv-x="332" 
d="M137 76h150l-14 -76h-248l119 677h99zM149 -48q40 0 64.5 -25.5t17.5 -63.5q-7 -36 -36 -54t-73 -18q-24 0 -45.5 7t-30.5 14l-9 7l21 32q18 -21 54 -21q21 0 34 13t16 32q3 18 -4.5 31.5t-25.5 13.5q-19 0 -34 -19h-37l50 78h38l-19 -29q6 2 19 2z" />
    <glyph glyph-name="uni013C" unicode="&#x13c;" horiz-adv-x="284" 
d="M140 114q-4 -23 12.5 -35t42.5 -12l-13 -73q-66 0 -105.5 35.5t-28.5 95.5l91 519h-60l12 69h155zM176 -48q40 0 64.5 -25.5t17.5 -63.5q-7 -36 -36 -54t-73 -18q-24 0 -45.5 7t-30.5 14l-9 7l21 32q18 -21 54 -21q21 0 34 13t16 32q3 18 -4.5 31.5t-25.5 13.5
q-19 0 -34 -19h-37l50 78h38l-19 -29q6 2 19 2z" />
    <glyph glyph-name="Lcaron" unicode="&#x13d;" horiz-adv-x="332" 
d="M137 76h150l-14 -76h-248l119 677h99zM295 677h87l-17 -99l-54 -89h-49l64 89h-48z" />
    <glyph glyph-name="lcaron" unicode="&#x13e;" horiz-adv-x="284" 
d="M140 114q-4 -23 12.5 -35t42.5 -12l-13 -73q-66 0 -105.5 35.5t-28.5 95.5l91 519h-60l12 69h155zM284 677h87l-17 -99l-54 -89h-49l64 89h-48z" />
    <glyph glyph-name="Lslash" unicode="&#x141;" horiz-adv-x="332" 
d="M153 314l-42 -238h150l-14 -76h-248l52 295l-68 -13l-1 75l83 15l53 305h99l-50 -286l94 18l1 -75z" />
    <glyph glyph-name="lslash" unicode="&#x142;" horiz-adv-x="319" 
d="M139 114q-4 -23 12 -35t42 -12l-12 -73q-66 0 -105.5 35.5t-28.5 95.5l30 172l-83 -15l-1 75l98 18l47 269h-60l12 69h154l-56 -320l84 16l2 -75l-100 -19z" />
    <glyph glyph-name="Nacute" unicode="&#x143;" horiz-adv-x="481" 
d="M386 677h95l-120 -683h-96l-69 434l-75 -428h-96l119 677h96l69 -434zM343 821h87l-85 -93h-67z" />
    <glyph glyph-name="nacute" unicode="&#x144;" horiz-adv-x="459" 
d="M359 114q-4 -21 12.5 -34t42.5 -13l-13 -73q-69 0 -105.5 40.5t-25.5 103.5l30 169q8 45 -2 72.5t-34 27.5t-43.5 -27.5t-27.5 -72.5l-54 -307h-94l71 404h-49l13 70h75l26 -55q44 61 112 61q58 0 86 -47t12 -140zM287 621h87l-85 -93h-67z" />
    <glyph glyph-name="uni0145" unicode="&#x145;" horiz-adv-x="481" 
d="M386 677h95l-120 -683h-96l-69 434l-75 -428h-96l119 677h96l69 -434zM301 -48q40 0 64.5 -25.5t17.5 -63.5q-7 -36 -36 -54t-73 -18q-24 0 -45.5 7t-30.5 14l-9 7l21 32q18 -21 54 -21q21 0 34 13t16 32q3 18 -4.5 31.5t-25.5 13.5q-19 0 -34 -19h-37l50 78h38l-19 -29
q6 2 19 2z" />
    <glyph glyph-name="uni0146" unicode="&#x146;" horiz-adv-x="459" 
d="M359 114q-4 -21 12.5 -34t42.5 -13l-13 -73q-69 0 -105.5 40.5t-25.5 103.5l30 169q8 45 -2 72.5t-34 27.5t-43.5 -27.5t-27.5 -72.5l-54 -307h-94l71 404h-49l13 70h75l26 -55q44 61 112 61q58 0 86 -47t12 -140zM133 -48q40 0 64.5 -25.5t17.5 -63.5q-7 -36 -36 -54
t-73 -18q-24 0 -45.5 7t-30.5 14l-9 7l21 32q18 -21 54 -21q21 0 34 13t16 32q3 18 -4.5 31.5t-25.5 13.5q-19 0 -34 -19h-37l50 78h38l-19 -29q6 2 19 2z" />
    <glyph glyph-name="Ncaron" unicode="&#x147;" horiz-adv-x="481" 
d="M386 677h95l-120 -683h-96l-69 434l-75 -428h-96l119 677h96l69 -434zM388 820h67l-98 -93h-63l-66 93h68l36 -55z" />
    <glyph glyph-name="ncaron" unicode="&#x148;" horiz-adv-x="459" 
d="M359 114q-4 -21 12.5 -34t42.5 -13l-13 -73q-69 0 -105.5 40.5t-25.5 103.5l30 169q8 45 -2 72.5t-34 27.5t-43.5 -27.5t-27.5 -72.5l-54 -307h-94l71 404h-49l13 70h75l26 -55q44 61 112 61q58 0 86 -47t12 -140zM331 620h67l-98 -93h-63l-66 93h68l36 -55z" />
    <glyph glyph-name="Omacron" unicode="&#x14c;" horiz-adv-x="428" 
d="M280 683q47 0 79.5 -29.5t48 -100t-6.5 -186.5l-10 -57q-29 -163 -93.5 -239.5t-139.5 -76.5t-112.5 76.5t-8.5 239.5l10 57q29 163 93.5 239.5t139.5 76.5zM300 356q21 119 11.5 185t-45.5 66t-69 -66.5t-54 -184.5l-6 -35q-21 -120 -11 -185.5t46 -65.5t68.5 66.5
t53.5 184.5zM197 804h210l-10 -59h-210z" />
    <glyph glyph-name="omacron" unicode="&#x14d;" horiz-adv-x="418" 
d="M248 480q66 0 101.5 -55t17.5 -159l-10 -58q-38 -214 -186 -214q-61 0 -99.5 56t-20.5 158l10 58q19 106 69 160t118 54zM268 237q14 77 6 123.5t-35 46.5q-28 0 -51.5 -46t-37.5 -124q-14 -77 -6 -123.5t35 -46.5q28 0 51.5 46t37.5 124zM155 604h210l-10 -59h-210z" />
    <glyph glyph-name="Ohungarumlaut" unicode="&#x150;" horiz-adv-x="428" 
d="M280 683q47 0 79.5 -29.5t48 -100t-6.5 -186.5l-10 -57q-29 -163 -93.5 -239.5t-139.5 -76.5t-112.5 76.5t-8.5 239.5l10 57q29 163 93.5 239.5t139.5 76.5zM300 356q21 119 11.5 185t-45.5 66t-69 -66.5t-54 -184.5l-6 -35q-21 -120 -11 -185.5t46 -65.5t68.5 66.5
t53.5 184.5zM237 821h87l-66 -93h-67zM359 821h87l-81 -93h-68z" />
    <glyph glyph-name="ohungarumlaut" unicode="&#x151;" horiz-adv-x="418" 
d="M248 480q66 0 101.5 -55t17.5 -159l-10 -58q-38 -214 -186 -214q-61 0 -99.5 56t-20.5 158l10 58q19 106 69 160t118 54zM268 237q14 77 6 123.5t-35 46.5q-28 0 -51.5 -46t-37.5 -124q-14 -77 -6 -123.5t35 -46.5q28 0 51.5 46t37.5 124zM196 621h87l-66 -93h-67z
M318 621h87l-81 -93h-68z" />
    <glyph glyph-name="OE" unicode="&#x152;" horiz-adv-x="613" 
d="M595 600h-152l-34 -194h115l-14 -77h-115l-44 -253h152l-14 -76h-250l7 43q-42 -49 -96 -49q-71 0 -105.5 79.5t-6.5 236.5l10 57q28 158 85 237t127 79q62 0 88 -61l10 55h250zM301 356q21 119 11.5 185t-45.5 66t-69 -66.5t-54 -184.5l-6 -35q-21 -120 -11.5 -185.5
t45.5 -65.5t69 66t54 185z" />
    <glyph glyph-name="oe" unicode="&#x153;" horiz-adv-x="608" 
d="M458 480q66 0 90 -60t7 -158l-9 -52h-188q-12 -68 2.5 -105.5t53.5 -37.5q22 0 43 11.5t31 23.5l10 11l18 -61q-2 -2 -5 -6t-14 -14t-23.5 -17.5t-33.5 -14t-44 -6.5q-69 0 -110 52q-46 -52 -110 -52q-70 0 -106 57.5t-19 152.5l10 58q18 100 66.5 159t119.5 59
q65 0 99 -53q50 53 112 53zM268 237q31 170 -28 170t-89 -170q-31 -170 28 -170q60 0 89 170zM474 273q23 134 -29 134q-53 0 -76 -134h105z" />
    <glyph glyph-name="Racute" unicode="&#x154;" horiz-adv-x="431" 
d="M289 677q79 0 116.5 -46t20.5 -139q-24 -135 -126 -172l42 -320h-96l-41 308h-27l-55 -308h-98l119 677h145zM327 492q9 51 -3.5 79.5t-44.5 28.5h-50l-38 -216h50q31 0 54 29t32 79zM304 821h87l-85 -93h-67z" />
    <glyph glyph-name="racute" unicode="&#x155;" horiz-adv-x="397" 
d="M284 480q19 0 36 -5t24 -11l8 -5l-34 -72q-14 20 -41 20q-32 0 -55.5 -35.5t-33.5 -92.5l-49 -279h-94l71 404h-49l13 70h75l27 -58q44 64 102 64zM249 621h87l-85 -93h-67z" />
    <glyph glyph-name="uni0156" unicode="&#x156;" horiz-adv-x="431" 
d="M289 677q79 0 116.5 -46t20.5 -139q-24 -135 -126 -172l42 -320h-96l-41 308h-27l-55 -308h-98l119 677h145zM327 492q9 51 -3.5 79.5t-44.5 28.5h-50l-38 -216h50q31 0 54 29t32 79zM283 -48q40 0 64.5 -25.5t17.5 -63.5q-7 -36 -36 -54t-73 -18q-24 0 -45.5 7t-30.5 14
l-9 7l21 32q18 -21 54 -21q21 0 34 13t16 32q3 18 -4.5 31.5t-25.5 13.5q-19 0 -34 -19h-37l50 78h38l-19 -29q6 2 19 2z" />
    <glyph glyph-name="uni0157" unicode="&#x157;" horiz-adv-x="397" 
d="M284 480q19 0 36 -5t24 -11l8 -5l-34 -72q-14 20 -41 20q-32 0 -55.5 -35.5t-33.5 -92.5l-49 -279h-94l71 404h-49l13 70h75l27 -58q44 64 102 64zM132 -48q40 0 64.5 -25.5t17.5 -63.5q-7 -36 -36 -54t-73 -18q-24 0 -45.5 7t-30.5 14l-9 7l21 32q18 -21 54 -21
q21 0 34 13t16 32q3 18 -4.5 31.5t-25.5 13.5q-19 0 -34 -19h-37l50 78h38l-19 -29q6 2 19 2z" />
    <glyph glyph-name="Rcaron" unicode="&#x158;" horiz-adv-x="431" 
d="M289 677q79 0 116.5 -46t20.5 -139q-24 -135 -126 -172l42 -320h-96l-41 308h-27l-55 -308h-98l119 677h145zM327 492q9 51 -3.5 79.5t-44.5 28.5h-50l-38 -216h50q31 0 54 29t32 79zM354 820h67l-98 -93h-63l-66 93h68l36 -55z" />
    <glyph glyph-name="rcaron" unicode="&#x159;" horiz-adv-x="397" 
d="M284 480q19 0 36 -5t24 -11l8 -5l-34 -72q-14 20 -41 20q-32 0 -55.5 -35.5t-33.5 -92.5l-49 -279h-94l71 404h-49l13 70h75l27 -58q44 64 102 64zM291 620h67l-98 -93h-63l-66 93h68l36 -55z" />
    <glyph glyph-name="Sacute" unicode="&#x15a;" horiz-adv-x="423" 
d="M283 677q43 0 75.5 -13.5t43.5 -27.5l11 -13l-39 -60q-35 37 -82 37q-34 0 -57 -22.5t-28 -51.5q-6 -34 8.5 -72.5t38.5 -73.5l47.5 -71.5t37 -78.5t6.5 -82q-12 -70 -65 -115t-123 -45q-44 0 -79.5 15t-49.5 30l-13 15l42 66q5 -6 13.5 -14t34.5 -22t52 -14q74 0 90 86
q5 29 -10 63t-39 67.5l-48 70.5t-37 83t-5 92q12 64 59.5 107.5t115.5 43.5zM299 821h87l-85 -93h-67z" />
    <glyph glyph-name="sacute" unicode="&#x15b;" horiz-adv-x="408" 
d="M193 362q-4 -20 10 -44t35.5 -48l43 -50t34 -57.5t7.5 -62.5q-9 -50 -45.5 -78t-89.5 -28q-28 0 -53 8.5t-40.5 20.5t-27.5 24t-17 21l-5 8l39 60q4 -8 12 -19.5t32.5 -30.5t48.5 -19q51 0 59 48q4 22 -17.5 54t-49.5 61.5t-48 70t-14 76.5q9 51 46.5 77t91.5 26
q35 0 64 -13.5t41 -26.5l11 -14l-37 -56q-28 37 -74 37q-49 0 -57 -45zM275 621h87l-85 -93h-67z" />
    <glyph glyph-name="uni015E" unicode="&#x15e;" horiz-adv-x="423" 
d="M283 677q43 0 75.5 -13.5t43.5 -27.5l11 -13l-39 -60q-35 37 -82 37q-34 0 -57 -22.5t-28 -51.5q-6 -34 8.5 -72.5t38.5 -73.5l47.5 -71.5t37 -78.5t6.5 -82q-12 -70 -65 -115t-123 -45q-44 0 -79.5 15t-49.5 30l-13 15l42 66q5 -6 13.5 -14t34.5 -22t52 -14q74 0 90 86
q5 29 -10 63t-39 67.5l-48 70.5t-37 83t-5 92q12 64 59.5 107.5t115.5 43.5zM162 -48q40 0 64.5 -25.5t17.5 -63.5q-7 -36 -36 -54t-73 -18q-24 0 -45.5 7t-30.5 14l-9 7l21 32q18 -21 54 -21q21 0 34 13t16 32q3 18 -4.5 31.5t-25.5 13.5q-19 0 -34 -19h-37l50 78h38
l-19 -29q6 2 19 2z" />
    <glyph glyph-name="uni015F" unicode="&#x15f;" horiz-adv-x="408" 
d="M193 362q-4 -20 10 -44t35.5 -48l43 -50t34 -57.5t7.5 -62.5q-9 -50 -45.5 -78t-89.5 -28q-28 0 -53 8.5t-40.5 20.5t-27.5 24t-17 21l-5 8l39 60q4 -8 12 -19.5t32.5 -30.5t48.5 -19q51 0 59 48q4 22 -17.5 54t-49.5 61.5t-48 70t-14 76.5q9 51 46.5 77t91.5 26
q35 0 64 -13.5t41 -26.5l11 -14l-37 -56q-28 37 -74 37q-49 0 -57 -45zM179 -48q40 0 64.5 -25.5t17.5 -63.5q-7 -36 -36 -54t-73 -18q-24 0 -45.5 7t-30.5 14l-9 7l21 32q18 -21 54 -21q21 0 34 13t16 32q3 18 -4.5 31.5t-25.5 13.5q-19 0 -34 -19h-37l50 78h38l-19 -29
q6 2 19 2z" />
    <glyph glyph-name="Scaron" unicode="&#x160;" horiz-adv-x="423" 
d="M283 677q43 0 75.5 -13.5t43.5 -27.5l11 -13l-39 -60q-35 37 -82 37q-34 0 -57 -22.5t-28 -51.5q-6 -34 8.5 -72.5t38.5 -73.5l47.5 -71.5t37 -78.5t6.5 -82q-12 -70 -65 -115t-123 -45q-44 0 -79.5 15t-49.5 30l-13 15l42 66q5 -6 13.5 -14t34.5 -22t52 -14q74 0 90 86
q5 29 -10 63t-39 67.5l-48 70.5t-37 83t-5 92q12 64 59.5 107.5t115.5 43.5zM331 820h67l-98 -93h-63l-66 93h68l36 -55z" />
    <glyph glyph-name="scaron" unicode="&#x161;" horiz-adv-x="408" 
d="M193 362q-4 -20 10 -44t35.5 -48l43 -50t34 -57.5t7.5 -62.5q-9 -50 -45.5 -78t-89.5 -28q-28 0 -53 8.5t-40.5 20.5t-27.5 24t-17 21l-5 8l39 60q4 -8 12 -19.5t32.5 -30.5t48.5 -19q51 0 59 48q4 22 -17.5 54t-49.5 61.5t-48 70t-14 76.5q9 51 46.5 77t91.5 26
q35 0 64 -13.5t41 -26.5l11 -14l-37 -56q-28 37 -74 37q-49 0 -57 -45zM312 620h67l-98 -93h-63l-66 93h68l36 -55z" />
    <glyph glyph-name="uni0162" unicode="&#x162;" horiz-adv-x="347" 
d="M38 677h324l-14 -77h-112l-106 -600h-98l105 600h-112zM66 -48q40 0 64.5 -25.5t17.5 -63.5q-7 -36 -36 -54t-73 -18q-24 0 -45.5 7t-30.5 14l-9 7l21 32q18 -21 54 -21q21 0 34 13t16 32q3 18 -4.5 31.5t-25.5 13.5q-19 0 -34 -19h-37l50 78h38l-19 -29q6 2 19 2z" />
    <glyph glyph-name="uni0163" unicode="&#x163;" horiz-adv-x="361" 
d="M212 407l-40 -228q-19 -112 45 -112q14 0 25.5 7.5t15.5 15.5l5 8l24 -51q-1 -2 -2.5 -5.5t-9 -13t-17 -16.5t-26 -12.5t-36.5 -5.5q-60 0 -97 45.5t-23 126.5l43 241h-74l13 73h39q27 0 39 22t24 88l89 23l-24 -133h91l-13 -73h-91zM165 -48q40 0 64.5 -25.5t17.5 -63.5
q-7 -36 -36 -54t-73 -18q-24 0 -45.5 7t-30.5 14l-9 7l21 32q18 -21 54 -21q21 0 34 13t16 32q3 18 -4.5 31.5t-25.5 13.5q-19 0 -34 -19h-37l50 78h38l-19 -29q6 2 19 2z" />
    <glyph glyph-name="Tcaron" unicode="&#x164;" horiz-adv-x="347" 
d="M38 677h324l-14 -77h-112l-106 -600h-98l105 600h-112zM266 820h67l-98 -93h-63l-66 93h68l36 -55z" />
    <glyph glyph-name="tcaron" unicode="&#x165;" horiz-adv-x="361" 
d="M212 407l-40 -228q-19 -112 45 -112q14 0 25.5 7.5t15.5 15.5l5 8l24 -51q-1 -2 -2.5 -5.5t-9 -13t-17 -16.5t-26 -12.5t-36.5 -5.5q-60 0 -97 45.5t-23 126.5l43 241h-74l13 73h39q27 0 39 22t24 88l89 23l-24 -133h91l-13 -73h-91zM334 677h87l-17 -99l-54 -89h-49
l64 89h-48z" />
    <glyph glyph-name="Umacron" unicode="&#x16a;" horiz-adv-x="410" 
d="M336 677h99l-82 -465q-20 -112 -72.5 -165t-126.5 -53q-75 0 -108 53t-13 165l82 465h99l-78 -438q-15 -92 -7.5 -130.5t39.5 -38.5t53.5 39t37.5 130zM188 804h210l-10 -59h-210z" />
    <glyph glyph-name="umacron" unicode="&#x16b;" horiz-adv-x="451" 
d="M339 125q-5 -27 12.5 -42.5t44.5 -15.5l-13 -73q-26 0 -48 5.5t-34.5 13t-21.5 15.5t-12 14l-3 5q-1 -2 -2.5 -5.5t-8.5 -13t-16.5 -16.5t-27.5 -12.5t-40 -5.5q-61 0 -95 50.5t-19 136.5l39 220h-49l13 73h142l-43 -250q-28 -157 26 -157q28 0 46.5 37t32.5 120l44 250
h94zM163 604h210l-10 -59h-210z" />
    <glyph glyph-name="Uring" unicode="&#x16e;" horiz-adv-x="410" 
d="M336 677h99l-82 -465q-20 -112 -72.5 -165t-126.5 -53q-75 0 -108 53t-13 165l82 465h99l-78 -438q-15 -92 -7.5 -130.5t39.5 -38.5t53.5 39t37.5 130zM320 883q35 0 53 -25.5t11 -62.5q-6 -37 -33 -62.5t-63 -25.5q-35 0 -53 25.5t-11 62.5q6 37 33 62.5t63 25.5z
M333 795q3 18 -3.5 30t-18.5 12t-22.5 -12t-13.5 -30t3.5 -30t18.5 -12t22.5 12t13.5 30z" />
    <glyph glyph-name="uring" unicode="&#x16f;" horiz-adv-x="451" 
d="M339 125q-5 -27 12.5 -42.5t44.5 -15.5l-13 -73q-26 0 -48 5.5t-34.5 13t-21.5 15.5t-12 14l-3 5q-1 -2 -2.5 -5.5t-8.5 -13t-16.5 -16.5t-27.5 -12.5t-40 -5.5q-61 0 -95 50.5t-19 136.5l39 220h-49l13 73h142l-43 -250q-28 -157 26 -157q28 0 46.5 37t32.5 120l44 250
h94zM280 683q35 0 53 -25.5t11 -62.5q-6 -37 -33 -62.5t-63 -25.5q-35 0 -53 25.5t-11 62.5q6 37 33 62.5t63 25.5zM293 595q3 18 -3.5 30t-18.5 12t-22.5 -12t-13.5 -30t3.5 -30t18.5 -12t22.5 12t13.5 30z" />
    <glyph glyph-name="Uhungarumlaut" unicode="&#x170;" horiz-adv-x="410" 
d="M336 677h99l-82 -465q-20 -112 -72.5 -165t-126.5 -53q-75 0 -108 53t-13 165l82 465h99l-78 -438q-15 -92 -7.5 -130.5t39.5 -38.5t53.5 39t37.5 130zM239 821h87l-66 -93h-67zM361 821h87l-81 -93h-68z" />
    <glyph glyph-name="uhungarumlaut" unicode="&#x171;" horiz-adv-x="451" 
d="M339 125q-5 -27 12.5 -42.5t44.5 -15.5l-13 -73q-26 0 -48 5.5t-34.5 13t-21.5 15.5t-12 14l-3 5q-1 -2 -2.5 -5.5t-8.5 -13t-16.5 -16.5t-27.5 -12.5t-40 -5.5q-61 0 -95 50.5t-19 136.5l39 220h-49l13 73h142l-43 -250q-28 -157 26 -157q28 0 46.5 37t32.5 120l44 250
h94zM201 621h87l-66 -93h-67zM323 621h87l-81 -93h-68z" />
    <glyph glyph-name="Uogonek" unicode="&#x172;" horiz-adv-x="410" 
d="M336 677h99l-82 -465q-20 -112 -72.5 -165t-126.5 -53q-75 0 -108 53t-13 165l82 465h99l-78 -438q-15 -92 -7.5 -130.5t39.5 -38.5t53.5 39t37.5 130zM117 -170q10 0 19.5 5t14.5 11l5 5l10 -32q-21 -28 -73 -28q-32 0 -54 17.5t-16 49.5q5 27 33 57.5t54 46.5l26 17h35
l-18.5 -18t-32.5 -42t-25 -56q-6 -33 22 -33z" />
    <glyph glyph-name="uogonek" unicode="&#x173;" horiz-adv-x="451" 
d="M339 125q-5 -27 12.5 -42.5t44.5 -15.5l-13 -73q-26 0 -48 5.5t-34.5 13t-21.5 15.5t-12 14l-3 5q-1 -2 -2.5 -5.5t-8.5 -13t-16.5 -16.5t-27.5 -12.5t-40 -5.5q-61 0 -95 50.5t-19 136.5l39 220h-49l13 73h142l-43 -250q-28 -157 26 -157q28 0 46.5 37t32.5 120l44 250
h94zM327 -170q10 0 19.5 5t14.5 11l5 5l10 -32q-21 -28 -73 -28q-32 0 -54 17.5t-16 49.5q5 27 33 57.5t54 46.5l26 17h35l-18.5 -18t-32.5 -42t-25 -56q-6 -33 22 -33z" />
    <glyph glyph-name="Ydieresis" unicode="&#x178;" horiz-adv-x="367" 
d="M300 677h102l-204 -370l-55 -307h-98l54 308l-74 369h105l44 -237zM263 808h79l-14 -79h-78zM116 729l14 79h79l-14 -79h-79z" />
    <glyph glyph-name="Zacute" unicode="&#x179;" horiz-adv-x="446" 
d="M147 677h274l-15 -82l-268 -519h177l-14 -76h-276l14 82l269 518h-174zM309 821h87l-85 -93h-67z" />
    <glyph glyph-name="zacute" unicode="&#x17a;" horiz-adv-x="376" 
d="M318 401l-165 -328h133l-13 -73h-228l15 84l160 317h-123l12 73h222zM245 621h87l-85 -93h-67z" />
    <glyph glyph-name="Zdotaccent" unicode="&#x17b;" horiz-adv-x="446" 
d="M147 677h274l-15 -82l-268 -519h177l-14 -76h-276l14 82l269 518h-174zM257 816h93l-15 -84h-93z" />
    <glyph glyph-name="zdotaccent" unicode="&#x17c;" horiz-adv-x="376" 
d="M318 401l-165 -328h133l-13 -73h-228l15 84l160 317h-123l12 73h222zM191 616h93l-15 -84h-93z" />
    <glyph glyph-name="Zcaron" unicode="&#x17d;" horiz-adv-x="446" 
d="M147 677h274l-15 -82l-268 -519h177l-14 -76h-276l14 82l269 518h-174zM351 820h67l-98 -93h-63l-66 93h68l36 -55z" />
    <glyph glyph-name="zcaron" unicode="&#x17e;" horiz-adv-x="376" 
d="M318 401l-165 -328h133l-13 -73h-228l15 84l160 317h-123l12 73h222zM287 620h67l-98 -93h-63l-66 93h68l36 -55z" />
    <glyph glyph-name="florin" unicode="&#x192;" horiz-adv-x="548" 
d="M450 683q22 0 40 -7.5t26 -15.5l7 -7l-35 -54q-14 18 -40 18q-50 0 -81 -115l-11 -42h108l-12 -66h-114l-117 -422q-49 -181 -168 -181q-24 0 -43.5 7.5t-27.5 15.5l-7 7l35 54q15 -18 43 -18q46 0 77 115l117 422h-60l11 66h67l11 42q51 181 174 181z" />
    <glyph glyph-name="uni0218" unicode="&#x218;" horiz-adv-x="423" 
d="M283 677q43 0 75.5 -13.5t43.5 -27.5l11 -13l-39 -60q-35 37 -82 37q-34 0 -57 -22.5t-28 -51.5q-6 -34 8.5 -72.5t38.5 -73.5l47.5 -71.5t37 -78.5t6.5 -82q-12 -70 -65 -115t-123 -45q-44 0 -79.5 15t-49.5 30l-13 15l42 66q5 -6 13.5 -14t34.5 -22t52 -14q74 0 90 86
q5 29 -10 63t-39 67.5l-48 70.5t-37 83t-5 92q12 64 59.5 107.5t115.5 43.5zM109 -39h87l-85 -93h-67z" />
    <glyph glyph-name="uni0219" unicode="&#x219;" horiz-adv-x="408" 
d="M193 362q-4 -20 10 -44t35.5 -48l43 -50t34 -57.5t7.5 -62.5q-9 -50 -45.5 -78t-89.5 -28q-28 0 -53 8.5t-40.5 20.5t-27.5 24t-17 21l-5 8l39 60q4 -8 12 -19.5t32.5 -30.5t48.5 -19q51 0 59 48q4 22 -17.5 54t-49.5 61.5t-48 70t-14 76.5q9 51 46.5 77t91.5 26
q35 0 64 -13.5t41 -26.5l11 -14l-37 -56q-28 37 -74 37q-49 0 -57 -45zM134 -39h87l-85 -93h-67z" />
    <glyph glyph-name="uni021A" unicode="&#x21a;" horiz-adv-x="347" 
d="M38 677h324l-14 -77h-112l-106 -600h-98l105 600h-112zM34 -39h87l-85 -93h-67z" />
    <glyph glyph-name="uni021B" unicode="&#x21b;" horiz-adv-x="361" 
d="M212 407l-40 -228q-19 -112 45 -112q14 0 25.5 7.5t15.5 15.5l5 8l24 -51q-1 -2 -2.5 -5.5t-9 -13t-17 -16.5t-26 -12.5t-36.5 -5.5q-60 0 -97 45.5t-23 126.5l43 241h-74l13 73h39q27 0 39 22t24 88l89 23l-24 -133h91l-13 -73h-91zM130 -39h87l-85 -93h-67z" />
    <glyph glyph-name="sc.g" unicode="&#x262;" horiz-adv-x="378" 
d="M181 271l13 72h142l-44 -244q-1 -4 -4 -11t-14 -25.5t-25 -32t-39.5 -25t-55.5 -11.5q-70 0 -109 70t-18 188l10 58q21 121 81.5 189.5t138.5 68.5q32 0 57 -11.5t34 -22.5l10 -12l-35 -55q-22 28 -64 28q-47 0 -81.5 -59.5t-51.5 -154.5q-17 -89 -8.5 -151.5t45.5 -62.5
q12 0 22.5 9.5t14.5 19.5l5 9l29 166h-53z" />
    <glyph glyph-name="sc.i" unicode="&#x26a;" horiz-adv-x="208" 
d="M119 562h94l-99 -562h-94z" />
    <glyph glyph-name="sc.n" unicode="&#x274;" horiz-adv-x="405" 
d="M325 562h90l-101 -568h-89l-60 322l-56 -316h-89l99 562h89l61 -321z" />
    <glyph glyph-name="sc.r" unicode="&#x280;" horiz-adv-x="386" 
d="M241 562q170 0 140 -171q-22 -121 -112 -156l32 -235h-89l-30 221h-1h-28l-39 -221h-94l99 562h122zM287 391q17 98 -46 98h-41l-34 -195h40q64 0 81 97z" />
    <glyph glyph-name="sc.x" unicode="&#x28e;" horiz-adv-x="435" 
d="M415 562l-160 -266l73 -296h-102l-42 171l-102 -171h-97l171 286l-68 276h102l37 -152l91 152h97z" />
    <glyph glyph-name="sc.y" unicode="&#x28f;" horiz-adv-x="427" 
d="M309 562h98l-191 -319l-43 -243h-93l43 245l-78 317h104l42 -211z" />
    <glyph glyph-name="sc.b" unicode="&#x299;" horiz-adv-x="412" 
d="M388 412q-7 -39 -29 -69t-41 -41l-18 -10q2 -1 4.5 -2t10.5 -6.5t13.5 -12.5l14 -18t12 -24.5t6 -32.5t-2.5 -41q-14 -77 -64 -116t-129 -39h-120l99 562h125q67 0 99.5 -39t19.5 -111zM265 164q17 92 -46 92h-35l-32 -183h35q62 0 78 91zM294 409q13 80 -42 80h-27
l-28 -161h27q55 0 70 81z" />
    <glyph glyph-name="sc.h" unicode="&#x29c;" horiz-adv-x="401" 
d="M323 562h93l-99 -562h-94l44 245h-110l-43 -245h-94l99 562h94l-43 -245h109z" />
    <glyph glyph-name="sc.l" unicode="&#x29f;" horiz-adv-x="287" 
d="M122 73h135l-13 -73h-229l99 562h94z" />
    <glyph glyph-name="circumflex" unicode="&#x2c6;" horiz-adv-x="297" 
d="M196 621l66 -93h-67l-37 55l-55 -55h-68l99 93h62z" />
    <glyph glyph-name="caron" unicode="&#x2c7;" horiz-adv-x="297" 
d="M195 620h67l-98 -93h-63l-66 93h68l36 -55z" />
    <glyph glyph-name="uni02C9" unicode="&#x2c9;" horiz-adv-x="290" 
d="M45 604h210l-10 -59h-210z" />
    <glyph glyph-name="breve" unicode="&#x2d8;" horiz-adv-x="283" 
d="M201 618h47q-8 -44 -40.5 -70.5t-82.5 -26.5t-73 26.5t-15 70.5h47q-2 -15 11.5 -26.5t40.5 -11.5t44.5 11.5t20.5 26.5z" />
    <glyph glyph-name="dotaccent" unicode="&#x2d9;" horiz-adv-x="178" 
d="M50 616h93l-15 -84h-93z" />
    <glyph glyph-name="ring" unicode="&#x2da;" horiz-adv-x="234" 
d="M133 683q35 0 53 -25.5t11 -62.5q-6 -37 -33 -62.5t-63 -25.5q-35 0 -53 25.5t-11 62.5q6 37 33 62.5t63 25.5zM146 595q3 18 -3.5 30t-18.5 12t-22.5 -12t-13.5 -30t3.5 -30t18.5 -12t22.5 12t13.5 30z" />
    <glyph glyph-name="ogonek" unicode="&#x2db;" horiz-adv-x="220" 
d="M131 -170q10 0 19.5 5t14.5 11l5 5l10 -32q-21 -28 -73 -28q-32 0 -54 17.5t-16 49.5q5 27 33 57.5t54 46.5l26 17h35l-18.5 -18t-32.5 -42t-25 -56q-6 -33 22 -33z" />
    <glyph glyph-name="tilde" unicode="&#x2dc;" horiz-adv-x="299" 
d="M217 612h47q-14 -73 -77 -73q-13 0 -28.5 5t-27 10t-22.5 7.5t-17.5 -2.5t-9.5 -20h-47q12 73 77 73q13 0 28.5 -5t27 -10t22.5 -7.5t17.5 2.5t9.5 20z" />
    <glyph glyph-name="hungarumlaut" unicode="&#x2dd;" horiz-adv-x="325" 
d="M81 621h87l-66 -93h-67zM203 621h87l-81 -93h-68z" />
    <glyph glyph-name="pi" unicode="&#x3c0;" horiz-adv-x="503" 
d="M385 401l-45 -258q-14 -76 30 -76q14 0 26 5.5t16 11.5l5 5l15 -51q-4 -5 -11 -12.5t-33 -19.5t-56 -12q-49 0 -73.5 40t-12.5 109l46 258h-92l-71 -401h-94l71 401h-70l13 73h419l-13 -73h-70z" />
    <glyph glyph-name="sc.a" unicode="&#x1d00;" horiz-adv-x="395" 
d="M342 562l43 -562h-97l-6 115h-124l-47 -115h-91l241 562h81zM183 178h96l-11 209z" />
    <glyph glyph-name="sc.c" unicode="&#x1d04;" horiz-adv-x="364" 
d="M262 568q32 0 57.5 -11.5t34.5 -22.5l10 -12l-35 -55q-20 28 -64 28t-83.5 -57t-56.5 -157q-18 -101 3 -157.5t70 -56.5q16 0 32 5.5t24 10.5l7 5l16 -55l-11 -10.5t-33.5 -17.5t-57.5 -11q-80 0 -124.5 72t-24.5 186l10 58q21 119 80.5 188.5t145.5 69.5z" />
    <glyph glyph-name="sc.d" unicode="&#x1d05;" horiz-adv-x="396" 
d="M245 562q85 0 114 -59.5t6 -192.5l-11 -58q-23 -133 -73 -192.5t-135 -59.5h-126l99 562h126zM266 281q36 208 -25 208h-41l-73 -416h41q60 0 98 208z" />
    <glyph glyph-name="sc.e" unicode="&#x1d07;" horiz-adv-x="331" 
d="M328 489h-128l-25 -142h102l-13 -73h-102l-35 -201h127l-12 -73h-222l99 562h222z" />
    <glyph glyph-name="sc.j" unicode="&#x1d0a;" horiz-adv-x="329" 
d="M215 562h94l-73 -411q-13 -75 -52 -116t-101 -41q-27 0 -51.5 9t-35.5 18l-11 9l40 62q19 -25 55 -25q47 0 63 87z" />
    <glyph glyph-name="sc.k" unicode="&#x1d0b;" horiz-adv-x="437" 
d="M417 562l-141 -193l49 -369h-89l-33 270l-55 -74l-34 -196h-94l99 562h94l-36 -203l144 203h96z" />
    <glyph glyph-name="sc.m" unicode="&#x1d0d;" horiz-adv-x="488" 
d="M382 562h106l-62 -562h-94l46 337l-123 -343h-75l-2 325l-74 -319h-89l136 562h109l3 -333z" />
    <glyph glyph-name="sc.o" unicode="&#x1d0f;" horiz-adv-x="374" 
d="M234 568q72 0 104.5 -68t11.5 -190l-11 -58q-22 -124 -73.5 -191t-122.5 -67q-72 0 -103.5 68t-10.5 190l10 58q22 124 73 191t122 67zM251 281q18 103 11 158.5t-35 55.5t-54 -56t-45 -158q-18 -103 -11.5 -158.5t34.5 -55.5t55 56t45 158z" />
    <glyph glyph-name="sc.p" unicode="&#x1d18;" horiz-adv-x="390" 
d="M250 562q156 0 124 -174q-31 -173 -185 -173h-32l-38 -215h-94l99 562h126zM281 388q17 101 -39 101h-37l-35 -201h36q57 0 75 100z" />
    <glyph glyph-name="sc.t" unicode="&#x1d1b;" horiz-adv-x="339" 
d="M58 562h271l-12 -73h-89l-87 -489h-93l86 489h-89z" />
    <glyph glyph-name="sc.u" unicode="&#x1d1c;" horiz-adv-x="371" 
d="M287 562h94l-72 -408q-13 -74 -55.5 -117t-109.5 -43q-66 0 -99.5 44t-20.5 116l72 408h94l-72 -408q-8 -43 2 -65t31 -22q22 0 39.5 22t24.5 65z" />
    <glyph glyph-name="sc.v" unicode="&#x1d20;" horiz-adv-x="418" 
d="M301 562h92l-232 -562h-82l-34 562h97l14 -372z" />
    <glyph glyph-name="sc.w" unicode="&#x1d21;" horiz-adv-x="556" 
d="M473 562h93l-222 -562h-84l-5 347l-128 -347h-84l-23 562h98l6 -362l128 362h87v-362z" />
    <glyph glyph-name="sc.z" unicode="&#x1d22;" horiz-adv-x="341" 
d="M321 562l-12 -73l-212 -416h138l-13 -73h-237l13 73l211 416h-130l13 73h229z" />
    <glyph glyph-name="endash" unicode="&#x2013;" horiz-adv-x="406" 
d="M58 276h303l-13 -72h-303z" />
    <glyph glyph-name="emdash" unicode="&#x2014;" horiz-adv-x="551" 
d="M58 276h448l-13 -72h-448z" />
    <glyph glyph-name="quoteleft" unicode="&#x2018;" horiz-adv-x="220" 
d="M170 677l-63 -90h48l-18 -98h-87l17 98l54 90h49z" />
    <glyph glyph-name="quoteright" unicode="&#x2019;" horiz-adv-x="220" 
d="M83 677h87l-17 -99l-54 -89h-49l64 89h-48z" />
    <glyph glyph-name="quotesinglbase" unicode="&#x201a;" horiz-adv-x="165" 
d="M43 99h87l-17 -99l-54 -90h-49l64 90h-48z" />
    <glyph glyph-name="quotedblleft" unicode="&#x201c;" horiz-adv-x="337" 
d="M116 677h49l-63 -90h48l-18 -98h-87l17 98zM292 677l-64 -90h48l-17 -98h-87l17 98l54 90h49z" />
    <glyph glyph-name="quotedblright" unicode="&#x201d;" horiz-adv-x="337" 
d="M205 677h87l-17 -99l-54 -89h-49l64 89h-48zM61 578l17 99h87l-17 -99l-54 -89h-49l64 89h-48z" />
    <glyph glyph-name="quotedblbase" unicode="&#x201e;" horiz-adv-x="292" 
d="M170 99h87l-17 -99l-54 -90h-49l64 90h-48zM26 0l17 99h87l-17 -99l-54 -90h-49l64 90h-48z" />
    <glyph glyph-name="dagger" unicode="&#x2020;" horiz-adv-x="379" 
d="M243 472h106l-13 -72h-106l-106 -603h-94l106 603h-106l13 72h106l36 205h94z" />
    <glyph glyph-name="daggerdbl" unicode="&#x2021;" horiz-adv-x="449" 
d="M406 400h-106l-57 -326h106l-13 -73h-106l-36 -204h-94l36 204h-106l13 73h106l57 326h-106l13 72h106l36 205h94l-36 -205h106z" />
    <glyph glyph-name="bullet" unicode="&#x2022;" horiz-adv-x="219" 
d="M56 398h118l-21 -119h-118z" />
    <glyph glyph-name="ellipsis" unicode="&#x2026;" horiz-adv-x="558" 
d="M52 99h99l-17 -99h-99zM238 99h99l-17 -99h-99zM424 99h99l-17 -99h-99z" />
    <glyph glyph-name="perthousand" unicode="&#x2030;" horiz-adv-x="958" 
d="M315 503q-15 -83 -59.5 -131.5t-102.5 -48.5q-57 0 -85 48.5t-13 131.5q15 84 59.5 132t102.5 48t85.5 -48t12.5 -132zM128 503q-9 -49 1 -80.5t36 -31.5t47.5 31.5t29.5 80.5q9 49 -1 81t-36 32q-27 0 -48 -31.5t-29 -81.5zM512 353q58 0 86 -48t13 -131
q-15 -84 -59.5 -132t-102.5 -48t-85.5 48t-12.5 132q15 83 59.5 131t101.5 48zM538 174q9 49 -1 80.5t-36 31.5t-47.5 -31.5t-30.5 -80.5q-8 -50 2 -81.5t36 -31.5t47.5 32t29.5 81zM805 353q58 0 85.5 -48t12.5 -131q-15 -84 -59.5 -132t-102.5 -48t-85.5 48t-12.5 132
q15 83 59.5 131t102.5 48zM830 174q9 49 -1 80.5t-36 31.5t-47.5 -31.5t-30.5 -80.5q-8 -50 2 -81.5t36 -31.5q27 0 48 31.5t29 81.5zM471 677h77l-353 -677h-77z" />
    <glyph glyph-name="guilsinglleft" unicode="&#x2039;" horiz-adv-x="294" 
d="M249 378l-135 -137l86 -137l-64 -45l-91 144l14 77l141 144z" />
    <glyph glyph-name="guilsinglright" unicode="&#x203a;" horiz-adv-x="294" 
d="M158 424l91 -144l-14 -77l-141 -144l-49 45l134 137l-86 137z" />
    <glyph glyph-name="fraction" unicode="&#x2044;" horiz-adv-x="75" 
d="M198 677h77l-353 -677h-77z" />
    <glyph glyph-name="Euro" unicode="&#x20ac;" horiz-adv-x="483" 
d="M251 65q21 0 42 10.5t31 20.5l10 11l17 -56q-5 -6 -14 -15.5t-38 -25.5t-61 -16q-64 0 -105.5 64.5t-33.5 192.5h-64l12 65h295l-42 -65h-111q-16 -186 62 -186zM348 683q21 0 39.5 -6.5t29 -15.5t18 -18t10.5 -15l3 -7l-34 -52q-1 2 -2 5t-6 10t-11.5 13t-18.5 10.5
t-27 4.5q-38 0 -71.5 -50t-57.5 -136h158l-42 -65h-282l12 65h63q36 129 95.5 193t123.5 64z" />
    <glyph glyph-name="uni20BA" unicode="&#x20ba;" horiz-adv-x="437" 
d="M321 297h91q-19 -107 -73.5 -175.5t-124 -95t-155.5 -26.5l58 334l-92 -32l12 70l93 32l8 47l-92 -32l12 70l93 33l27 155h91l-22 -122l128 45l-13 -70l-127 -45l-8 -47l127 44l-12 -70l-128 -44l-50 -283q128 43 157 212z" />
    <glyph glyph-name="uni20BD" unicode="&#x20bd;" horiz-adv-x="439" 
d="M330 677q76 0 110 -43.5t19 -129.5t-64.5 -129.5t-125.5 -43.5h-54l-16 -94h145l-11 -66h-146l-30 -171h-91l30 171h-61l12 66h61l78 440h144zM368 504q8 45 -4 73.5t-43 28.5h-57l-36 -204h57q31 0 53 28.5t30 73.5z" />
    <glyph glyph-name="Bitcoin" unicode="&#x20bf;" horiz-adv-x="457" 
d="M439 468q-6 -34 -29 -62t-44 -38l-20 -11q4 -1 10 -3t21 -12t25 -23.5t16 -38t1 -54.5q-9 -54 -45 -90t-89 -50l-17 -92h-65l14 83h-34l-15 -83h-65l14 83h-92l12 71h68l67 381h-67l12 71h93l14 83h66l-15 -83h35l14 83h66l-16 -93q82 -28 65 -122zM329 231q7 41 -10 62
t-52 21h-42l-29 -166h41q77 0 92 83zM346 457q7 34 -6 53t-41 19h-36l-26 -144h37q28 0 47 18.5t25 53.5z" />
    <glyph glyph-name="uni2113" unicode="&#x2113;" horiz-adv-x="445" 
d="M222 248l-15 -81q-17 -100 27 -100q15 0 29 6.5t21 12.5l6 6l14 -51l-13.5 -13t-35.5 -21t-55 -13q-53 0 -77.5 42.5t-11.5 115.5l3 20l-62 -35l-17 58q41 21 94 58l45 255q15 87 55 131t94 44q52 0 73.5 -43.5t6.5 -131.5q-24 -132 -181 -260zM267 508l-28 -162
q76 80 91 162q18 102 -13 102t-50 -102z" />
    <glyph glyph-name="Sound" unicode="&#x2117;" 
d="M436 527q56 0 81.5 -28.5t15.5 -83.5q-20 -111 -136 -111h-21l-27 -154h-69l67 377h89zM464 415q11 59 -36 59h-22l-21 -117h22q47 0 57 58zM457 683q143 0 225.5 -101t57.5 -244q-25 -142 -143.5 -243t-261.5 -101q-142 0 -225.5 100.5t-58.5 243.5q26 143 144.5 244
t261.5 101zM696 346q10 62 -3 117q-14 55 -47 92q-69 83 -189 83q-61 0 -123 -24q-59 -24 -110 -66q-51 -44 -83 -99q-34 -55 -45 -118q-12 -61 3 -117q12 -52 46 -92q69 -83 190 -83q61 0 123 24q57 22 109 66q50 43 84 98q34 57 45 119z" />
    <glyph glyph-name="trademark" unicode="&#x2122;" horiz-adv-x="463" 
d="M222 677l-7 -39h-60l-42 -238h-50l41 238h-59l7 39h170zM383 677h55l-23 -277h-50l17 180l-67 -184h-29l-2 184l-49 -180h-43l75 277h54l3 -159z" />
    <glyph glyph-name="uni2126" unicode="&#x2126;" horiz-adv-x="605" 
d="M564 419q-18 -103 -72 -199t-115 -144h118l-14 -76h-189l13 76q5 4 13 12.5t31 39t42.5 67.5t41.5 99t34 132q14 78 -15 129.5t-87 51.5t-104.5 -51.5t-60.5 -129.5q-18 -124 -9.5 -201.5t27.5 -112.5l20 -36l-13 -76h-190l13 76h119q-45 48 -65 144t-2 199
q20 115 99 189.5t180 74.5t153 -74.5t32 -189.5z" />
    <glyph glyph-name="estimated" unicode="&#x212e;" horiz-adv-x="669" 
d="M627 345h-491l-34 -195q24 -51 70 -81t109 -30q39 0 76.5 10.5t63.5 25.5t46.5 30t30.5 25l10 11l25 -26q-4 -5 -11.5 -12.5t-33 -27.5t-53 -35t-71.5 -27.5t-90 -12.5q-129 0 -193 98.5t-39 240.5q25 145 123.5 242t227.5 97q130 0 194.5 -94t39.5 -239zM169 531
l-26 -147h397l27 150q-54 105 -181 105q-126 0 -217 -108z" />
    <glyph glyph-name="oneseventh" unicode="&#x2150;" horiz-adv-x="555" 
d="M398 677h77l-353 -677h-77zM351 360h169l-10 -53q-4 -4 -10 -11t-24 -34t-33.5 -59t-33 -87t-28.5 -116h-69q32 183 121 299h-93zM153 317h-69l51 287l-34 -9l10 59l106 26z" />
    <glyph glyph-name="oneninth" unicode="&#x2151;" horiz-adv-x="531" 
d="M398 677h77l-353 -677h-77zM422 363q44 0 62.5 -36.5t5.5 -107.5q-8 -47 -26.5 -88t-39.5 -66t-40.5 -43.5t-31.5 -25.5l-13 -8l-16 54q39 20 68 63q-12 -2 -18 -2q-41 0 -60 36q-20 36 -9 94q10 58 43 94t75 36zM425 233q14 73 -13 73t-39 -73t13 -73q27 0 39 73z
M153 317h-69l51 287l-34 -9l10 59l106 26z" />
    <glyph glyph-name="onetenth" unicode="&#x2152;" horiz-adv-x="689" 
d="M398 677h77l-353 -677h-77zM582 363q40 0 61 -40.5t3 -142.5t-53.5 -142.5t-75.5 -40.5t-61 40.5t-3 142.5t53.5 142.5t75.5 40.5zM578 180q21 125 -6 125q-13 0 -27 -33.5t-24 -91.5q-21 -125 6 -125q13 0 27 33.5t24 91.5zM324 278l11 59l105 26l-64 -363h-68l50 287z
M153 317h-69l51 287l-34 -9l10 59l106 26z" />
    <glyph glyph-name="onethird" unicode="&#x2153;" horiz-adv-x="510" 
d="M398 677h77l-353 -677h-77zM153 317h-69l51 287l-34 -9l10 59l106 26zM399 363q41 0 60 -27.5t12 -66.5q-9 -52 -48 -81q34 -29 23 -87q-8 -48 -37 -76t-70 -28q-20 0 -37.5 8t-25.5 16l-8 8l32 49q10 -23 38 -23q15 0 26 15t15 37q4 25 -2 39t-18 14h-31l10 57h31
q24 0 32 47q7 41 -17 41q-11 0 -21 -6.5t-15 -12.5l-5 -6l-15 50q33 33 71 33z" />
    <glyph glyph-name="twothirds" unicode="&#x2154;" horiz-adv-x="545" 
d="M433 677h77l-353 -677h-77zM435 363q40 0 59 -27.5t12 -66.5q-9 -54 -48 -81q34 -29 24 -87q-9 -48 -38 -76t-70 -28q-20 0 -37.5 8t-24.5 16l-8 8l32 49q10 -23 37 -23q31 0 41 52q4 26 -2 39.5t-18 13.5h-31l10 57h32q24 0 32 47q3 17 -1.5 29t-16.5 12q-11 0 -21 -6.5
t-15 -12.5l-5 -6l-15 50q34 33 72 33zM217 375l-10 -58h-140l-22 42l36 40t61 83.5t45 94.5q4 19 -2 31.5t-21 12.5q-12 0 -24 -6.5t-18 -13.5l-6 -7l-14 49q34 37 82 37q43 0 61 -32t11 -71q-6 -37 -29.5 -78t-42.5 -64.5t-52 -59.5h85z" />
    <glyph glyph-name="onefifth" unicode="&#x2155;" horiz-adv-x="525" 
d="M398 677h77l-353 -677h-77zM480 302h-69l-16 -67q46 3 62.5 -32t7.5 -87q-10 -58 -40.5 -88.5t-77.5 -30.5q-22 0 -40 8t-25 16l-6 8l32 49q12 -23 39 -23q39 0 49 61q2 15 2 28.5t-6.5 23t-18.5 9.5q-7 0 -14.5 -3.5t-11.5 -6.5l-4 -3l-25 33l37 163h135zM153 317h-69
l51 287l-34 -9l10 59l106 26z" />
    <glyph glyph-name="twofifths" unicode="&#x2156;" horiz-adv-x="560" 
d="M433 677h77l-353 -677h-77zM515 302h-69l-15 -67q45 3 61.5 -32t7.5 -87q-10 -57 -40.5 -88t-77.5 -31q-22 0 -40 8t-24 16l-7 8l32 49q12 -23 39 -23q38 0 50 61q4 25 -1.5 43t-22.5 18q-7 0 -14.5 -3.5t-11.5 -6.5l-4 -3l-25 33l38 163h134zM217 375l-10 -58h-140
l-22 42l36 40t61 83.5t45 94.5q4 19 -2 31.5t-21 12.5q-12 0 -24 -6.5t-18 -13.5l-6 -7l-14 49q34 37 82 37q43 0 61 -32t11 -71q-6 -37 -29.5 -78t-42.5 -64.5t-52 -59.5h85z" />
    <glyph glyph-name="threefifths" unicode="&#x2157;" horiz-adv-x="542" 
d="M415 677h77l-353 -677h-77zM496 302h-68l-16 -67q46 3 62.5 -32t7.5 -87q-10 -58 -41 -88.5t-78 -30.5q-22 0 -39.5 8t-23.5 16l-7 8l32 49q12 -23 39 -23q39 0 49 61q11 61 -24 61q-7 0 -14.5 -3.5t-11.5 -6.5l-4 -3l-24 33l37 163h135zM223 418q-9 -48 -38 -76t-70 -28
q-20 0 -37.5 8t-25.5 16l-7 8l32 49q10 -24 37 -24q31 0 41 53q4 25 -2 38.5t-17 13.5h-32l10 58h32q24 0 32 47q3 17 -1.5 29t-16.5 12q-11 0 -21 -6.5t-15 -13.5l-5 -6l-15 51q34 33 72 33q40 0 59 -27.5t13 -66.5q-10 -56 -49 -81q33 -31 24 -87z" />
    <glyph glyph-name="fourfifths" unicode="&#x2158;" horiz-adv-x="550" 
d="M424 677h77l-354 -677h-76zM505 302h-68l-16 -67q46 3 62.5 -32t7.5 -87q-10 -58 -41 -88.5t-78 -30.5q-22 0 -40 8t-24 16l-7 8l32 49q13 -23 39 -23q38 0 50 61q11 61 -24 61q-7 0 -14.5 -3.5t-11.5 -6.5l-4 -3l-24 33l37 163h134zM118 317l19 105h-92l9 51l138 204h59
l-35 -197h33l-11 -58h-32l-19 -105h-69zM113 469h38l15 87z" />
    <glyph glyph-name="onesixth" unicode="&#x2159;" horiz-adv-x="510" 
d="M398 677h77l-353 -677h-77zM392 257q38 0 55.5 -37t7.5 -93q-10 -57 -41 -93.5t-73 -36.5q-44 0 -63.5 39.5t-7.5 104.5q8 45 28 85.5t43 66t44.5 44.5t36.5 27l14 9l16 -54q-41 -24 -72 -63q2 0 6 0.5t6 0.5zM387 127q14 73 -13 73t-39 -73q-13 -73 13 -73q27 0 39 73z
M153 317h-69l51 287l-34 -9l10 59l106 26z" />
    <glyph glyph-name="fivesixths" unicode="&#x215a;" horiz-adv-x="524" 
d="M412 677h77l-353 -677h-77zM406 257q38 0 55.5 -37t7.5 -93q-10 -57 -41 -93.5t-74 -36.5q-44 0 -63 39.5t-7 104.5q8 45 28 85.5t43 66t44.5 44.5t36.5 27l14 9l16 -54q-41 -24 -72 -63q2 0 6 0.5t6 0.5zM362 54q21 0 36 57q16 61 1 83q-4 6 -11 6q-12 0 -23 -22
t-16.5 -48.5t-2.5 -50t16 -25.5zM234 433q-10 -57 -40.5 -88t-77.5 -31q-22 0 -40 8t-24 16l-7 8l32 49q12 -24 39 -24q39 0 49 62q6 22 0 41.5t-23 19.5q-7 0 -14.5 -3t-11.5 -7l-4 -3l-25 33l38 163h134l-10 -58h-69l-15 -67q45 3 61.5 -32t7.5 -87z" />
    <glyph glyph-name="oneeigth" unicode="&#x215b;" horiz-adv-x="542" 
d="M398 677h77l-353 -677h-77zM505 265q-9 -47 -42 -74q28 -30 19 -86q-9 -50 -42 -79t-74 -29q-40 0 -63 29t-14 79q9 55 48 86q-23 27 -15 74q8 44 39.5 71t69.5 27t60 -27t14 -71zM414 109q9 52 -19 52t-37 -52q-4 -23 0.5 -38.5t17.5 -15.5q28 0 38 54zM435 260
q4 19 -0.5 32t-13.5 13q-10 0 -18.5 -12.5t-12.5 -32.5q-3 -17 1.5 -29t13.5 -12q10 0 18.5 12t11.5 29zM153 317h-69l51 287l-34 -9l10 59l106 26z" />
    <glyph glyph-name="threeeigths" unicode="&#x215c;" horiz-adv-x="557" 
d="M413 677h77l-353 -677h-77zM520 265q-8 -45 -41 -74q29 -32 18 -86q-9 -50 -42 -79t-73 -29q-41 0 -64 29t-14 79q9 55 49 86q-24 29 -15 74q7 44 38.5 71t69.5 27t60 -27t14 -71zM429 109q9 52 -18 52q-29 0 -38 -52q-10 -54 19 -54q27 0 37 54zM451 260q3 20 -1 32.5
t-14 12.5t-18.5 -13t-11.5 -32q-3 -17 1 -29t14 -12q9 0 17.5 12t12.5 29zM223 418q-9 -48 -38 -76t-70 -28q-20 0 -37.5 8t-25.5 16l-7 8l32 49q10 -24 37 -24q31 0 41 53q4 25 -2 38.5t-17 13.5h-32l10 58h32q24 0 32 47q3 17 -1.5 29t-16.5 12q-11 0 -21 -6.5t-15 -13.5
l-5 -6l-15 51q34 33 72 33q40 0 59 -27.5t13 -66.5q-10 -56 -49 -81q33 -31 24 -87z" />
    <glyph glyph-name="fiveeigths" unicode="&#x215d;" horiz-adv-x="558" 
d="M414 677h77l-353 -677h-77zM521 265q-9 -47 -42 -74q28 -30 19 -86q-9 -50 -42 -79t-74 -29q-40 0 -63.5 29t-14.5 79q11 55 49 86q-23 27 -15 74q8 44 39.5 71t69.5 27t60 -27t14 -71zM430 109q9 52 -19 52t-37 -52q-4 -23 0.5 -38.5t17.5 -15.5q28 0 38 54zM451 260
q4 19 -0.5 32t-13.5 13q-10 0 -18.5 -12.5t-12.5 -32.5q-3 -17 1.5 -29t13.5 -12q10 0 18.5 12t11.5 29zM234 433q-10 -57 -40.5 -88t-77.5 -31q-22 0 -40 8t-24 16l-7 8l32 49q12 -24 39 -24t44 43q17 45 1 69q-7 11 -19 11q-7 0 -14.5 -3t-11.5 -7l-4 -3l-25 33l38 163
h134l-10 -58h-69l-15 -67q45 3 61.5 -32t7.5 -87z" />
    <glyph glyph-name="seveneigths" unicode="&#x215e;" horiz-adv-x="542" 
d="M398 677h77l-353 -677h-77zM505 265q-9 -47 -42 -74q28 -30 19 -86q-9 -50 -42 -79t-74 -29q-40 0 -63 29t-14 79q9 55 48 86q-23 27 -15 74q8 44 39.5 71t69.5 27t60 -27t14 -71zM414 109q9 52 -19 52t-37 -52q-4 -23 0.5 -38.5t17.5 -15.5q28 0 38 54zM435 260
q4 19 -0.5 32t-13.5 13q-10 0 -18.5 -12.5t-12.5 -32.5q-3 -17 1.5 -29t13.5 -12q10 0 18.5 12t11.5 29zM154 317h-69q33 185 121 299h-93l11 61h169l-9 -53q-4 -4 -10 -11t-24 -34t-33.5 -59t-33.5 -87t-29 -116z" />
    <glyph glyph-name="numeratorone" unicode="&#x215f;" horiz-adv-x="510" 
d="M398 677h77l-353 -677h-77zM153 317h-69l51 287l-34 -9l10 59l106 26z" />
    <glyph glyph-name="zerothirds" unicode="&#x2189;" horiz-adv-x="519" 
d="M407 677h77l-353 -677h-77zM118 314q-40 0 -61.5 40.5t-3.5 142.5t54 142.5t76 40.5t61 -40.5t3 -142.5t-53.5 -142.5t-75.5 -40.5zM122 497q-21 -125 6 -125q13 0 27 33.5t24 91.5q21 125 -6 125q-13 0 -27 -33.5t-24 -91.5zM408 363q41 0 60 -27.5t12 -66.5
q-9 -52 -48 -81q34 -29 23 -87q-8 -48 -37 -76t-70 -28q-20 0 -38 8t-26 16l-7 8l32 49q10 -23 38 -23q15 0 26 15t15 37q4 25 -2 39t-18 14h-31l10 57h31q24 0 32 47q7 41 -17 41q-11 0 -21 -6.5t-15 -12.5l-5 -6l-15 50q33 33 71 33z" />
    <glyph glyph-name="ArrowL" unicode="&#x2190;" horiz-adv-x="500" 
d="M440 377l-13 -77h-238l62 -155h-114l-77 193l146 194h113l-116 -155h237z" />
    <glyph glyph-name="ArrowU" unicode="&#x2191;" horiz-adv-x="526" 
d="M293 525l173 -111l-20 -114l-139 89l-42 -237h-76l42 237l-171 -89l20 114z" />
    <glyph glyph-name="ArrowR" unicode="&#x2192;" horiz-adv-x="500" 
d="M363 532l77 -194l-145 -193h-114l117 155h-238l13 77h238l-62 155h114z" />
    <glyph glyph-name="ArrowD" unicode="&#x2193;" horiz-adv-x="526" 
d="M296 287l170 90l-20 -114l-213 -111l-173 111l20 114l139 -90l42 238h76z" />
    <glyph glyph-name="ArrowNW" unicode="&#x2196;" horiz-adv-x="508" 
d="M448 448l-181 -47l138 -168l-64 -54l-138 168l-77 -172l-66 80l96 215l225 58z" />
    <glyph glyph-name="ArrowNE" unicode="&#x2197;" horiz-adv-x="473" 
d="M393 470l20 -215l-95 -80l-16 172l-198 -168l-44 54l198 168l-165 47l95 80z" />
    <glyph glyph-name="ArrowSE" unicode="&#x2198;" horiz-adv-x="508" 
d="M381 502l67 -80l-96 -216l-226 -57l-66 80l181 46l-138 168l63 54l138 -168z" />
    <glyph glyph-name="ArrowSW" unicode="&#x2199;" horiz-adv-x="473" 
d="M413 443l-198 -168l165 -46l-95 -80l-205 57l-20 216l95 80l15 -173l198 168z" />
    <glyph glyph-name="WhiteArrowL" unicode="&#x21e6;" 
d="M450 683q144 0 229.5 -101t60.5 -244t-141 -243.5t-258 -100.5q-143 0 -229 101t-61 243q26 144 141.5 244.5t257.5 100.5zM695 338q11 62 -3 117q-14 56 -47 95q-34 41 -84 64q-51 24 -112 24q-63 0 -121 -24q-58 -22 -107 -64q-47 -40 -81 -95q-34 -57 -44 -117
q-11 -60 3 -116q14 -55 48 -95q33 -42 83 -65q54 -23 113 -23q60 0 121 23q58 23 106 65q49 40 81 95q34 56 44 116zM468 532l-116 -155h237l-13 -77h-238l62 -155h-113l-78 193l146 194h113z" />
    <glyph glyph-name="WhiteArrowUp" unicode="&#x21e7;" 
d="M450 683q144 0 229.5 -101t60.5 -244t-141 -243.5t-258 -100.5q-143 0 -229 101t-61 243q26 144 141.5 244.5t257.5 100.5zM695 338q11 62 -3 117q-14 56 -47 95q-34 41 -84 64q-51 24 -112 24q-63 0 -121 -24q-58 -22 -107 -64q-47 -40 -81 -95q-34 -57 -44 -117
q-11 -60 3 -116q14 -55 48 -95q33 -42 83 -65q54 -23 113 -23q60 0 121 23q58 23 106 65q49 40 81 95q34 56 44 116zM216 414l213 111l173 -111l-20 -114l-139 89l-42 -237h-76l41 237l-170 -89z" />
    <glyph glyph-name="WhiteArrowR" unicode="&#x21e8;" 
d="M450 683q144 0 229.5 -101t60.5 -244t-141 -243.5t-258 -100.5q-143 0 -229 101t-61 243q26 144 141.5 244.5t257.5 100.5zM695 338q11 62 -3 117q-14 56 -47 95q-34 41 -84 64q-51 24 -112 24q-63 0 -121 -24q-58 -22 -107 -64q-47 -40 -81 -95q-34 -57 -44 -117
q-11 -60 3 -116q14 -55 48 -95q33 -42 83 -65q54 -23 113 -23q60 0 121 23q58 23 106 65q49 40 81 95q34 56 44 116zM391 532h114l77 -194l-145 -193h-114l117 155h-238l14 77h237z" />
    <glyph glyph-name="WhiteArrowD" unicode="&#x21e9;" 
d="M450 683q144 0 229.5 -101t60.5 -244t-141 -243.5t-258 -100.5q-143 0 -229 101t-61 243q26 144 141.5 244.5t257.5 100.5zM695 338q11 62 -3 117q-14 56 -47 95q-34 41 -84 64q-51 24 -112 24q-63 0 -121 -24q-58 -22 -107 -64q-47 -40 -81 -95q-34 -57 -44 -117
q-11 -60 3 -116q14 -55 48 -95q33 -42 83 -65q54 -23 113 -23q60 0 121 23q58 23 106 65q49 40 81 95q34 56 44 116zM467 525l-42 -238l171 90l-20 -114l-213 -111l-174 111l20 114l140 -90l41 238h77z" />
    <glyph glyph-name="partialdiff" unicode="&#x2202;" horiz-adv-x="434" 
d="M239 677q3 -1 7 -3t17.5 -10.5t25.5 -18.5t29.5 -27t29 -36.5t25.5 -47t18.5 -58t7 -70t-7.5 -83.5q-58 -329 -228 -329q-65 0 -101 43t-23 118q11 61 54.5 110.5t99 75.5t110.5 29q3 50 -7 92t-27 67t-34 43t-29 25l-13 7zM172 67q78 0 123 243q-61 -4 -106.5 -50.5
t-55.5 -104.5q-8 -42 2.5 -65t36.5 -23z" />
    <glyph glyph-name="uni2206" unicode="&#x2206;" horiz-adv-x="457" 
d="M343 474l79 -401l-13 -73h-374l13 73l220 401h75zM143 73h184l-48 250z" />
    <glyph glyph-name="product" unicode="&#x220f;" horiz-adv-x="510" 
d="M154 677h321l-119 -677h-99l106 600h-124l-105 -600h-99z" />
    <glyph glyph-name="summation" unicode="&#x2211;" horiz-adv-x="490" 
d="M455 677l-14 -77h-193l80 -262l-172 -262h193l-14 -76h-300l13 76l173 262l-80 262l13 77h301z" />
    <glyph glyph-name="minus" unicode="&#x2212;" horiz-adv-x="343" 
d="M58 276h240l-13 -72h-240z" />
    <glyph glyph-name="uni2215" unicode="&#x2215;" horiz-adv-x="490" 
d="M383 677h77l-353 -677h-77z" />
    <glyph glyph-name="uni2219" unicode="&#x2219;" horiz-adv-x="229" 
d="M66 398h118l-21 -119h-118z" />
    <glyph glyph-name="radical" unicode="&#x221a;" horiz-adv-x="609" 
d="M443 677h131l-14 -77h-72l-238 -600h-95l-62 304h-58l13 76h136l45 -243z" />
    <glyph glyph-name="infinity" unicode="&#x221e;" horiz-adv-x="627" 
d="M463 494q66 0 102 -42.5t23 -113.5q-13 -70 -63 -113t-117 -43q-77 0 -111 62q-55 -62 -133 -62q-67 0 -102.5 43t-22.5 113q13 71 63 113.5t117 42.5q78 0 111 -61q54 61 133 61zM267 338q6 36 -8.5 60t-44.5 24t-52.5 -24t-28.5 -60q-6 -35 8.5 -59t43.5 -24t52 24
t30 59zM494 338q6 36 -8.5 60t-43.5 24t-52 -24t-30 -60q-6 -35 8.5 -59t44.5 -24q29 0 52 24t29 59z" />
    <glyph glyph-name="integral" unicode="&#x222b;" horiz-adv-x="618" 
d="M510 683q22 0 40 -7.5t26 -15.5l7 -7l-35 -54q-14 18 -40 18q-50 0 -81 -115l-146 -530q-26 -95 -66 -138t-102 -43q-22 0 -41.5 7.5t-27.5 15.5l-9 7l35 54q15 -18 43 -18q25 0 43 27.5t34 87.5l146 530q50 181 174 181z" />
    <glyph glyph-name="approxequal" unicode="&#x2248;" horiz-adv-x="411" 
d="M147 195q23 0 55 -16t54 -16q20 0 42.5 8t35.5 16l12 8l-13 -73q-45 -32 -90 -32q-22 0 -54 16t-55 16q-20 0 -42 -8t-34 -16l-13 -8l13 73q45 32 89 32zM276 278q20 0 42.5 8t35.5 16l12 8l-13 -73q-45 -32 -89 -32q-23 0 -55 16t-54 16q-20 0 -42.5 -8t-34.5 -16
l-13 -8l13 73q45 32 89 32q23 0 55 -16t54 -16z" />
    <glyph glyph-name="notequal" unicode="&#x2260;" horiz-adv-x="364" 
d="M307 223h-94l-24 -49h109l-13 -73h-132l-50 -103h-38l50 103h-70l13 73h93l23 49h-108l13 72h131l49 101h38l-49 -101h71z" />
    <glyph glyph-name="lessequal" unicode="&#x2264;" horiz-adv-x="414" 
d="M379 435l-204 -112l164 -113l-43 -67l-248 180l311 179zM35 35l13 73h240l-13 -73h-240z" />
    <glyph glyph-name="greaterequal" unicode="&#x2265;" horiz-adv-x="401" 
d="M55 143l-20 67l204 113l-164 112l43 67l248 -179zM37 35l13 73h241l-13 -73h-241z" />
    <glyph glyph-name="COne" unicode="&#x2460;" 
d="M450 683q144 0 229.5 -101t60.5 -244t-141 -243.5t-258 -100.5q-143 0 -229 101t-61 243q26 144 141.5 244.5t257.5 100.5zM695 338q11 62 -3 117q-14 56 -47 95q-34 41 -84 64q-51 24 -112 24q-63 0 -121 -24q-58 -22 -107 -64q-47 -40 -81 -95q-34 -57 -44 -117
q-11 -60 3 -116q14 -55 48 -95q33 -42 83 -65q54 -23 113 -23q60 0 121 23q58 23 106 65q49 40 81 95q34 56 44 116zM355 464l7 43l96 23l-68 -384h-55l58 328z" />
    <glyph glyph-name="CTwo" unicode="&#x2461;" 
d="M450 683q144 0 229.5 -101t60.5 -244t-141 -243.5t-258 -100.5q-143 0 -229 101t-61 243q26 144 141.5 244.5t257.5 100.5zM695 338q11 62 -3 117q-14 56 -47 95q-34 41 -84 64q-51 24 -112 24q-63 0 -121 -24q-58 -22 -107 -64q-47 -40 -81 -95q-34 -57 -44 -117
q-11 -60 3 -116q14 -55 48 -95q33 -42 83 -65q54 -23 113 -23q60 0 121 23q58 23 106 65q49 40 81 95q34 56 44 116zM421 534q37 0 61.5 -30.5t16.5 -75.5q-3 -17 -10 -36t-13.5 -33t-20 -34l-20 -30t-24 -31t-22 -26l-23.5 -27l-20 -22h106l-7 -43h-141l-19 36q1 2 20.5 24
t23.5 27l21 25.5t22.5 28.5l19 26.5t19 29.5l14 27t13 30t6.5 28q4 25 -4 43.5t-30 18.5q-12 0 -25 -5.5t-20 -10.5l-7 -6l-10 34q30 32 73 32z" />
    <glyph glyph-name="CThree" unicode="&#x2462;" 
d="M450 683q144 0 229.5 -101t60.5 -244t-141 -243.5t-258 -100.5q-143 0 -229 101t-61 243q26 144 141.5 244.5t257.5 100.5zM695 338q11 62 -3 117q-14 56 -47 95q-34 41 -84 64q-51 24 -112 24q-63 0 -121 -24q-58 -22 -107 -64q-47 -40 -81 -95q-34 -57 -44 -117
q-11 -60 3 -116q14 -55 48 -95q33 -42 83 -65q54 -23 113 -23q60 0 121 23q58 23 106 65q49 40 81 95q34 56 44 116zM419 534q40 0 60.5 -27t12.5 -68q-6 -33 -22 -55.5t-29 -29.5l-13 -6q5 -3 13 -9t18.5 -31.5t4.5 -58.5q-9 -52 -37.5 -79.5t-66.5 -27.5q-23 0 -41 7
t-25 13l-6 7l23 35q17 -19 44 -19q43 0 55 71q5 31 -3 50.5t-28 19.5h-24l7 43h24q18 0 31.5 17t18.5 47q4 26 -4.5 42t-25.5 16q-10 0 -20.5 -4.5t-15.5 -9.5l-6 -5l-10 34q26 28 65 28z" />
    <glyph glyph-name="CFour" unicode="&#x2463;" 
d="M428 530h49l-39 -222h37l-8 -43h-37l-21 -119h-55l21 119h-104l8 43zM383 308l21 121l-81 -121h60zM450 683q144 0 229.5 -101t60.5 -244t-141 -243.5t-258 -100.5q-143 0 -229 101t-61 243q26 144 141.5 244.5t257.5 100.5zM695 338q11 62 -3 117q-14 56 -47 95
q-34 41 -84 64q-51 24 -112 24q-63 0 -121 -24q-58 -22 -107 -64q-47 -40 -81 -95q-34 -57 -44 -117q-11 -60 3 -116q14 -55 48 -95q33 -42 83 -65q54 -23 113 -23q60 0 121 23q58 23 106 65q49 40 81 95q34 56 44 116z" />
    <glyph glyph-name="CFive" unicode="&#x2464;" 
d="M374 530h130l-8 -42h-77l-23 -100q2 0 5.5 0.5t5.5 0.5q40 0 60.5 -33t10.5 -90q-11 -56 -43.5 -90t-77.5 -34q-20 0 -37 7t-24 13l-7 7l21 34q21 -18 46 -18q24 0 41.5 21t24.5 60q7 35 -2 57.5t-34 22.5q-16 0 -31 -10l-21 22zM450 683q144 0 229.5 -101t60.5 -244
t-141 -243.5t-258 -100.5q-143 0 -229 101t-61 243q26 144 141.5 244.5t257.5 100.5zM695 338q11 62 -3 117q-14 56 -47 95q-34 41 -84 64q-51 24 -112 24q-63 0 -121 -24q-58 -22 -107 -64q-47 -40 -81 -95q-34 -57 -44 -117q-11 -60 3 -116q14 -55 48 -95q33 -42 83 -65
q54 -23 113 -23q60 0 121 23q58 23 106 65q49 40 81 95q34 56 44 116z" />
    <glyph glyph-name="CSix" unicode="&#x2465;" 
d="M414 414q39 0 56 -36.5t6 -99.5t-41.5 -99.5t-72.5 -36.5q-43 0 -64 40t-9 112q9 49 29.5 92.5t43.5 70.5t45 47t37 28l14 9l12 -42q-54 -31 -96 -97q19 12 40 12zM422 278q8 41 1.5 67.5t-25.5 26.5t-34.5 -26t-23.5 -68q-7 -41 -0.5 -67.5t25.5 -26.5t34.5 26t22.5 68z
M450 683q144 0 229.5 -101t60.5 -244t-141 -243.5t-258 -100.5q-143 0 -229 101t-61 243q26 144 141.5 244.5t257.5 100.5zM695 338q11 62 -3 117q-14 56 -47 95q-34 41 -84 64q-51 24 -112 24q-63 0 -121 -24q-58 -22 -107 -64q-47 -40 -81 -95q-34 -57 -44 -117
q-11 -60 3 -116q14 -55 48 -95q33 -42 83 -65q54 -23 113 -23q60 0 121 23q58 23 106 65q49 40 81 95q34 56 44 116z" />
    <glyph glyph-name="CSeven" unicode="&#x2466;" 
d="M342 485l8 45h168l-8 -45q-4 -6 -12 -16.5t-28.5 -45t-38.5 -71.5t-37 -93.5t-29 -112.5h-55q11 60 29.5 117t38 95.5t37.5 68.5t29 44l11 14h-113zM450 683q144 0 229.5 -101t60.5 -244t-141 -243.5t-258 -100.5q-143 0 -229 101t-61 243q26 144 141.5 244.5
t257.5 100.5zM695 338q11 62 -3 117q-14 56 -47 95q-34 41 -84 64q-51 24 -112 24q-63 0 -121 -24q-58 -22 -107 -64q-47 -40 -81 -95q-34 -57 -44 -117q-11 -60 3 -116q14 -55 48 -95q33 -42 83 -65q54 -23 113 -23q60 0 121 23q58 23 106 65q49 40 81 95q34 56 44 116z
" />
    <glyph glyph-name="CEight" unicode="&#x2467;" 
d="M429 534q39 0 61.5 -28.5t15.5 -71.5q-10 -56 -53 -84q38 -30 27 -97q-9 -53 -41.5 -82t-72.5 -29q-42 0 -66.5 29t-15.5 82q11 67 62 97q-34 29 -24 84q8 44 38 72t69 28zM426 258q5 31 -3.5 50.5t-27.5 19.5t-34.5 -19.5t-20.5 -50.5q-12 -73 30 -73q21 0 36 20.5
t20 52.5zM450 429q5 26 -2 44t-24 18t-30 -18t-18 -44q-4 -25 3.5 -41.5t23.5 -16.5t29 17t18 41zM450 683q144 0 229.5 -101t60.5 -244t-141 -243.5t-258 -100.5q-143 0 -229 101t-61 243q26 144 141.5 244.5t257.5 100.5zM695 338q11 62 -3 117q-14 56 -47 95
q-34 41 -84 64q-51 24 -112 24q-63 0 -121 -24q-58 -22 -107 -64q-47 -40 -81 -95q-34 -57 -44 -117q-11 -60 3 -116q14 -55 48 -95q33 -42 83 -65q54 -23 113 -23q60 0 121 23q58 23 106 65q49 40 81 95q34 56 44 116z" />
    <glyph glyph-name="CNine" unicode="&#x2468;" 
d="M427 534q43 0 63.5 -39.5t7.5 -112.5q-10 -58 -29.5 -104.5t-40 -72t-39.5 -42.5t-31 -23l-12 -5l-12 42l14.5 9t33 31t40.5 58q-17 -12 -40 -12q-41 0 -62 37t-10 98q11 63 43.5 99.5t73.5 36.5zM447 398q7 38 0.5 66t-24.5 28t-34.5 -27.5t-23.5 -66.5
q-6 -39 0.5 -66.5t24.5 -27.5t34.5 27.5t22.5 66.5zM450 683q144 0 229.5 -101t60.5 -244t-141 -243.5t-258 -100.5q-143 0 -229 101t-61 243q26 144 141.5 244.5t257.5 100.5zM695 338q11 62 -3 117q-14 56 -47 95q-34 41 -84 64q-51 24 -112 24q-63 0 -121 -24
q-58 -22 -107 -64q-47 -40 -81 -95q-34 -57 -44 -117q-11 -60 3 -116q14 -55 48 -95q33 -42 83 -65q54 -23 113 -23q60 0 121 23q58 23 106 65q49 40 81 95q34 56 44 116z" />
    <glyph glyph-name="CZero" unicode="&#x24ea;" 
d="M450 683q144 0 229.5 -101t60.5 -244t-141 -243.5t-258 -100.5q-143 0 -229 101t-61 243q26 144 141.5 244.5t257.5 100.5zM695 338q11 62 -3 117q-14 56 -47 95q-34 41 -84 64q-51 24 -112 24q-63 0 -121 -24q-58 -22 -107 -64q-47 -40 -81 -95q-34 -57 -44 -117
q-11 -60 3 -116q14 -55 48 -95q33 -42 83 -65q54 -23 113 -23q60 0 121 23q58 23 106 65q49 40 81 95q34 56 44 116zM428 534q44 0 60 -47.5t0 -148.5q-34 -196 -124 -196q-44 0 -61 49.5t0 146.5q35 196 125 196zM433 338q13 70 10.5 111.5t-20.5 41.5q-39 0 -65 -153
q-27 -153 11 -153q37 0 64 153z" />
    <glyph glyph-name="lozenge" unicode="&#x25ca;" horiz-adv-x="503" 
d="M361 677l107 -339l-227 -338h-99l-107 338l226 339h100zM210 101l159 237l-76 238l-159 -238z" />
    <glyph glyph-name="BCOne" unicode="&#x278a;" 
d="M450 683q144 0 229.5 -101t60.5 -244t-141 -243.5t-258 -100.5q-143 0 -229 101t-61 243q26 144 141.5 244.5t257.5 100.5zM390 146l68 384l-96 -23l-7 -43l38 10l-58 -328h55z" />
    <glyph glyph-name="BCTwo" unicode="&#x278b;" 
d="M450 683q144 0 229.5 -101t60.5 -244t-141 -243.5t-258 -100.5q-143 0 -229 101t-61 243q26 144 141.5 244.5t257.5 100.5zM499 428q8 45 -16.5 75.5t-61.5 30.5q-19 0 -37.5 -8t-27.5 -16l-8 -8l10 -34q25 22 52 22q22 0 30 -18.5t4 -43.5q-2 -14 -6.5 -28t-13 -30
l-14 -27t-19 -29.5l-19 -26.5t-22.5 -28.5l-21 -25.5t-23.5 -27t-20.5 -24l19 -36h141l7 43h-106q3 3 18 19.5t20.5 23l19.5 23t21.5 26.5l19.5 26.5t18.5 29.5l14.5 29t13 31.5t8 30.5z" />
    <glyph glyph-name="BCThree" unicode="&#x278c;" 
d="M450 683q144 0 229.5 -101t60.5 -244t-141 -243.5t-258 -100.5q-143 0 -229 101t-61 243q26 144 141.5 244.5t257.5 100.5zM492 439q8 41 -12.5 68t-60.5 27q-17 0 -33.5 -7t-23.5 -14l-8 -7l10 -34q19 19 42 19q17 0 25.5 -16t4.5 -42q-5 -30 -18.5 -47t-31.5 -17h-24
l-7 -43h24q20 0 28 -19.5t3 -50.5q-12 -71 -55 -71q-12 0 -23 4.5t-16 9.5l-5 5l-23 -35q21 -27 72 -27q38 0 66.5 27.5t37.5 79.5q3 22 1 39t-8 28.5t-12.5 18.5t-11.5 10l-5 3q2 1 5.5 2.5t13 8.5t17.5 16t16 26t12 38z" />
    <glyph glyph-name="BCFour" unicode="&#x278d;" 
d="M383 308h-60l81 121zM450 683q144 0 229.5 -101t60.5 -244t-141 -243.5t-258 -100.5q-143 0 -229 101t-61 243q26 144 141.5 244.5t257.5 100.5zM475 308h-37l39 222h-49l-149 -222l-8 -43h104l-21 -119h55l21 119h37z" />
    <glyph glyph-name="BCFive" unicode="&#x278e;" 
d="M450 683q144 0 229.5 -101t60.5 -244t-141 -243.5t-258 -100.5q-143 0 -229 101t-61 243q26 144 141.5 244.5t257.5 100.5zM496 488l8 42h-130l-40 -172l21 -22q15 10 31 10q25 0 34 -22.5t2 -57.5q-7 -39 -24.5 -60t-41.5 -21q-11 0 -22.5 4.5t-17.5 8.5l-6 5l-21 -34
q23 -27 68 -27t77.5 34t43.5 90q10 57 -10.5 90t-60.5 33q-2 0 -5.5 -0.5t-5.5 -0.5l23 100h77z" />
    <glyph glyph-name="BCSix" unicode="&#x278f;" 
d="M398 372q19 0 25.5 -26.5t-1.5 -67.5q-7 -42 -22.5 -68t-34.5 -26t-25.5 26.5t0.5 67.5q8 42 23.5 68t34.5 26zM450 683q144 0 229.5 -101t60.5 -244t-141 -243.5t-258 -100.5q-143 0 -229 101t-61 243q26 144 141.5 244.5t257.5 100.5zM476 278q11 63 -6 99.5t-56 36.5
q-21 0 -40 -12q19 29 43 53.5t39 34.5l14 9l-12 42q-6 -3 -15.5 -9t-35 -27.5t-46.5 -47.5t-42 -70t-30 -93q-12 -72 9 -112t64 -40q42 0 72.5 36.5t41.5 99.5z" />
    <glyph glyph-name="BCSeven" unicode="&#x2790;" 
d="M450 683q144 0 229.5 -101t60.5 -244t-141 -243.5t-258 -100.5q-143 0 -229 101t-61 243q26 144 141.5 244.5t257.5 100.5zM510 485l8 45h-168l-8 -45h113l-11.5 -14.5t-28 -43t-38.5 -70t-37 -94t-30 -117.5h55q16 89 52.5 174t64.5 125z" />
    <glyph glyph-name="BCEight" unicode="&#x2791;" 
d="M424 491q17 0 24 -18t2 -44q-5 -24 -18 -41t-29 -17t-23.5 16.5t-3.5 41.5q5 26 18 44t30 18zM395 328q19 0 27.5 -19.5t3.5 -50.5q-5 -32 -20 -52.5t-36 -20.5q-42 0 -30 73q5 31 20.5 50.5t34.5 19.5zM450 683q144 0 229.5 -101t60.5 -244t-141 -243.5t-258 -100.5
q-143 0 -229 101t-61 243q26 144 141.5 244.5t257.5 100.5zM506 434q7 43 -15.5 71.5t-61.5 28.5t-69 -28t-38 -72q-10 -55 24 -84q-51 -30 -62 -97q-9 -53 15.5 -82t66.5 -29q40 0 72.5 29t41.5 82q11 67 -27 97q43 28 53 84z" />
    <glyph glyph-name="BCNine" unicode="&#x2792;" 
d="M423 492q18 0 24.5 -28t-0.5 -66q-6 -39 -22.5 -66.5t-34.5 -27.5t-24.5 27.5t-0.5 66.5q7 39 23.5 66.5t34.5 27.5zM450 683q144 0 229.5 -101t60.5 -244t-141 -243.5t-258 -100.5q-143 0 -229 101t-61 243q26 144 141.5 244.5t257.5 100.5zM498 382q13 73 -7.5 112.5
t-63.5 39.5q-41 0 -73.5 -36.5t-43.5 -99.5q-11 -61 10 -98t62 -37q23 0 40 12q-17 -33 -39 -57.5t-35 -32.5l-14 -8l12 -42q5 2 13 5.5t30 22t40.5 43t38.5 71.5t30 105z" />
    <glyph glyph-name="BlackArrowR" unicode="&#x27a1;" 
d="M450 683q144 0 229.5 -101t60.5 -244t-141 -243.5t-258 -100.5q-143 0 -229 101t-61 243q26 144 141.5 244.5t257.5 100.5zM437 145l145 193l-77 194h-114l62 -155h-237l-14 -77h238l-117 -155h114z" />
    <glyph glyph-name="WhiteArrowNE" unicode="&#x2b00;" 
d="M450 683q144 0 229.5 -101t60.5 -244t-141 -243.5t-258 -100.5q-143 0 -229 101t-61 243q26 144 141.5 244.5t257.5 100.5zM695 338q11 62 -3 117q-14 56 -47 95q-34 41 -84 64q-51 24 -112 24q-63 0 -121 -24q-58 -22 -107 -64q-47 -40 -81 -95q-34 -57 -44 -117
q-11 -60 3 -116q14 -55 48 -95q33 -42 83 -65q54 -23 113 -23q60 0 121 23q58 23 106 65q49 40 81 95q34 56 44 116zM346 528l205 -58l20 -215l-95 -80l-16 172l-197 -168l-45 54l198 168l-165 47z" />
    <glyph glyph-name="WhiteArrowNW" unicode="&#x2b01;" 
d="M450 683q144 0 229.5 -101t60.5 -244t-141 -243.5t-258 -100.5q-143 0 -229 101t-61 243q26 144 141.5 244.5t257.5 100.5zM695 338q11 62 -3 117q-14 56 -47 95q-34 41 -84 64q-51 24 -112 24q-63 0 -121 -24q-58 -22 -107 -64q-47 -40 -81 -95q-34 -57 -44 -117
q-11 -60 3 -116q14 -55 48 -95q33 -42 83 -65q54 -23 113 -23q60 0 121 23q58 23 106 65q49 40 81 95q34 56 44 116zM287 470l226 58l66 -80l-181 -47l138 -168l-63 -54l-139 168l-76 -172l-67 80z" />
    <glyph glyph-name="WhiteArrowSE" unicode="&#x2b02;" 
d="M450 683q144 0 229.5 -101t60.5 -244t-141 -243.5t-258 -100.5q-143 0 -229 101t-61 243q26 144 141.5 244.5t257.5 100.5zM695 338q11 62 -3 117q-14 56 -47 95q-34 41 -84 64q-51 24 -112 24q-63 0 -121 -24q-58 -22 -107 -64q-47 -40 -81 -95q-34 -57 -44 -117
q-11 -60 3 -116q14 -55 48 -95q33 -42 83 -65q54 -23 113 -23q60 0 121 23q58 23 106 65q49 40 81 95q34 56 44 116zM457 329l77 173l66 -80l-96 -216l-225 -57l-66 80l181 46l-139 168l64 54z" />
    <glyph glyph-name="WhiteArrowSW" unicode="&#x2b03;" 
d="M450 683q144 0 229.5 -101t60.5 -244t-141 -243.5t-258 -100.5q-143 0 -229 101t-61 243q26 144 141.5 244.5t257.5 100.5zM695 338q11 62 -3 117q-14 56 -47 95q-34 41 -84 64q-51 24 -112 24q-63 0 -121 -24q-58 -22 -107 -64q-47 -40 -81 -95q-34 -57 -44 -117
q-11 -60 3 -116q14 -55 48 -95q33 -42 83 -65q54 -23 113 -23q60 0 121 23q58 23 106 65q49 40 81 95q34 56 44 116zM331 329l198 168l44 -54l-197 -168l164 -46l-94 -80l-206 57l-19 216l94 80z" />
    <glyph glyph-name="BlackArrowL" unicode="&#x2b05;" 
d="M450 683q144 0 229.5 -101t60.5 -244t-141 -243.5t-258 -100.5q-143 0 -229 101t-61 243q26 144 141.5 244.5t257.5 100.5zM576 300l13 77h-237l116 155h-113l-146 -194l78 -193h113l-62 155h238z" />
    <glyph glyph-name="BlackArrowU" unicode="&#x2b06;" 
d="M450 683q144 0 229.5 -101t60.5 -244t-141 -243.5t-258 -100.5q-143 0 -229 101t-61 243q26 144 141.5 244.5t257.5 100.5zM582 300l20 114l-173 111l-213 -111l-20 -114l170 89l-41 -237h76l42 237z" />
    <glyph glyph-name="BlackArrowD" unicode="&#x2b07;" 
d="M450 683q144 0 229.5 -101t60.5 -244t-141 -243.5t-258 -100.5q-143 0 -229 101t-61 243q26 144 141.5 244.5t257.5 100.5zM576 263l20 114l-171 -90l42 238h-77l-41 -238l-140 90l-20 -114l174 -111z" />
    <glyph glyph-name="BlackArrowNE" unicode="&#x2b08;" 
d="M450 683q144 0 229.5 -101t60.5 -244t-141 -243.5t-258 -100.5q-143 0 -229 101t-61 243q26 144 141.5 244.5t257.5 100.5zM476 175l95 80l-20 215l-205 58l-95 -80l165 -47l-198 -168l45 -54l197 168z" />
    <glyph glyph-name="BlackArrowNW" unicode="&#x2b09;" 
d="M450 683q144 0 229.5 -101t60.5 -244t-141 -243.5t-258 -100.5q-143 0 -229 101t-61 243q26 144 141.5 244.5t257.5 100.5zM536 233l-138 168l181 47l-66 80l-226 -58l-96 -215l67 -80l76 172l139 -168z" />
    <glyph glyph-name="BlackArrowSE" unicode="&#x2b0a;" 
d="M450 683q144 0 229.5 -101t60.5 -244t-141 -243.5t-258 -100.5q-143 0 -229 101t-61 243q26 144 141.5 244.5t257.5 100.5zM504 206l96 216l-66 80l-77 -173l-138 168l-64 -54l139 -168l-181 -46l66 -80z" />
    <glyph glyph-name="BlackArrowSW" unicode="&#x2b0b;" 
d="M450 683q144 0 229.5 -101t60.5 -244t-141 -243.5t-258 -100.5q-143 0 -229 101t-61 243q26 144 141.5 244.5t257.5 100.5zM540 229l-164 46l197 168l-44 54l-198 -168l-16 173l-94 -80l19 -216l206 -57z" />
    <glyph glyph-name="sc.f" unicode="&#xa730;" horiz-adv-x="367" 
d="M334 489h-134l-28 -159h97l-13 -73h-97l-45 -257h-94l99 562h228z" />
    <glyph glyph-name="sc.s" unicode="&#xa731;" horiz-adv-x="312" 
d="M232 568q35 0 61 -13.5t35 -26.5l9 -14l-33 -52q-24 33 -65 33q-22 0 -38.5 -14.5t-20.5 -38.5q-6 -32 12 -73t42 -75.5t41 -82.5t9 -92q-10 -60 -52.5 -92.5t-105.5 -32.5q-36 0 -67.5 14t-44.5 28l-14 14l38 60q3 -5 9.5 -12t29 -19t47.5 -12t44 15.5t24 42.5
q6 33 -12 75t-42.5 76t-41.5 81.5t-9 90.5q10 56 50 88t95 32z" />
    <glyph glyph-name="sc.q" unicode="&#xa7af;" horiz-adv-x="379" 
d="M234 568q72 0 104.5 -68t11.5 -190l-11 -58q-18 -103 -57 -167t-93 -83q5 -42 52 -42h5l-12 -69h-5q-61 0 -95 29.5t-35 81.5q-49 20 -68.5 84.5t-1.5 165.5l10 58q22 124 73 191t122 67zM251 281q18 103 11 158.5t-35 55.5t-54 -56t-45 -158q-18 -103 -11.5 -158.5
t34.5 -55.5t55 56t45 158z" />
    <glyph glyph-name="BCZero" unicode="&#x1f10c;" 
d="M423 491q18 0 20.5 -41.5t-10.5 -111.5q-27 -153 -64 -153q-38 0 -11 153q26 153 65 153zM450 683q144 0 229.5 -101t60.5 -244t-141 -243.5t-258 -100.5q-143 0 -229 101t-61 243q26 144 141.5 244.5t257.5 100.5zM488 338q16 101 0 148.5t-60 47.5q-90 0 -125 -196
q-17 -97 0 -146.5t61 -49.5q90 0 124 196z" />
    <glyph glyph-name="a.ss01" horiz-adv-x="439" 
d="M316 474h78l-84 -474h-76l-10 44q-3 -6 -9.5 -14t-28.5 -22t-46 -14q-55 0 -80 53.5t-7 156.5l10 58q39 218 157 218q23 0 41 -12.5t25 -25.5l6 -12zM267 250q13 68 6 112.5t-34 44.5t-49.5 -43.5t-34.5 -113.5l-6 -34q-13 -68 -5 -108.5t35 -40.5t48.5 40t33.5 109z" />
    <glyph glyph-name="f.ss01" horiz-adv-x="327" 
d="M200 683q26 0 46.5 -8.5t27.5 -16.5l8 -8l-38 -58q-12 18 -39 18q-52 0 -68 -94l-7 -36h105l-13 -73h-104l-105 -592l-98 -24l109 616h-56l13 73h55l7 36q14 80 55.5 123.5t101.5 43.5z" />
    <glyph glyph-name="g.ss01" horiz-adv-x="538" 
d="M481 485q-48 0 -69 -39q48 -45 34 -129q-13 -76 -61.5 -120t-110.5 -44q-28 0 -52 9q-30 -65 37 -65h19q70 0 109 -43t27 -110q-13 -71 -69.5 -112t-134.5 -41q-80 0 -127 39t-35 109q12 67 85 109q-13 26 -7 65q8 45 50 80q-41 44 -28 124q14 76 62.5 119.5t110.5 43.5
q19 0 39 -5q20 38 55.5 60t77.5 22zM215 7q-28 0 -45 8q-20 -30 -26 -67q-7 -40 12.5 -62.5t60.5 -22.5q40 0 68 20.5t33 51.5q6 32 -13.5 52t-61.5 20h-28zM352 317q9 35 0 65t-38 30q-28 0 -46.5 -28t-25.5 -67q-7 -40 1.5 -68t36.5 -28q29 0 47 28t25 68z" />
    <glyph glyph-name="t.ss01" horiz-adv-x="298" 
d="M156 407l-42 -240q-8 -44 1.5 -72t34.5 -28q13 0 24.5 6.5t16.5 12.5l5 6l15 -50q-3 -5 -9.5 -13t-29 -21.5t-49.5 -13.5q-54 0 -85.5 47t-17.5 126l74 422l99 24l-24 -133h84l-12 -73h-85z" />
    <glyph glyph-name="y.ss01" horiz-adv-x="526" 
d="M384 474h97l-220 -501q-46 -104 -90.5 -143t-125.5 -39l13 72q39 0 58.5 24t47.5 86l26 60l-33 441h97l14 -286z" />
    <glyph glyph-name="sc.ae" horiz-adv-x="634" 
d="M576 489h-128l-25 -142h103l-13 -73h-102l-36 -201h128l-13 -73h-222l21 115h-87l-62 -115h-95l313 562h231zM300 178l32 181l-97 -181h65z" />
    <glyph glyph-name="sc.oe" horiz-adv-x="604" 
d="M546 489h-128l-25 -142h102l-12 -73h-103l-35 -201h128l-13 -73h-222l6 31q-39 -37 -83 -37q-67 0 -97.5 68.5t-9.5 189.5l11 58q21 122 73.5 190t119.5 68q46 0 73 -41l6 35h222zM288 281q17 106 9 160t-39 54t-59 -55.5t-46 -158.5q-17 -106 -9 -160t39 -54t59 55.5
t46 158.5z" />
    <glyph glyph-name="sc.eth" horiz-adv-x="446" 
d="M270 562q85 0 114 -59.5t6 -192.5l-11 -58q-23 -133 -73 -192.5t-135 -59.5h-126l43 245h-30l12 72h31l43 245h126zM291 281q36 208 -25 208h-41l-30 -172h38l-13 -72h-38l-30 -172h41q60 0 98 208z" />
    <glyph glyph-name="sc.oslash" horiz-adv-x="457" 
d="M412 619l-47 -97q49 -70 24 -212l-10 -58q-22 -124 -73.5 -191t-122.5 -67q-40 0 -66 19l-34 -70h-38l47 96q-49 68 -24 213l11 58q22 124 72.5 191t121.5 67q38 0 67 -20l34 71h38zM167 281q-12 -74 -13 -113l143 293q-9 34 -31 34q-28 0 -54 -56t-45 -158zM290 281
q12 74 13 113l-143 -293q9 -34 30 -34q29 0 55 55.5t45 158.5z" />
    <glyph glyph-name="sc.germandbls" horiz-adv-x="447" 
d="M399 415q-6 -33 -32.5 -75t-29.5 -57q-4 -24 24.5 -89t21.5 -106q-8 -42 -38 -68t-76 -26q-28 0 -52 9t-34 19l-10 9l35 54q22 -18 45 -18q33 0 39 35q3 19 -19.5 84.5t-17.5 92.5q3 17 22.5 55t23.5 62q17 99 -28 99q-46 0 -66 -109l-68 -386h-94l68 386q16 89 59 135.5
t108 46.5t97.5 -44.5t21.5 -108.5z" />
    <glyph glyph-name="sc.thorn" horiz-adv-x="430" 
d="M248 457q76 0 111.5 -46.5t21.5 -129.5q-15 -83 -67 -129.5t-128 -46.5h-29l-18 -105h-94l99 562h94l-19 -105h29zM287 281q8 47 -5.5 75t-44.5 28h-30l-37 -206h30q32 0 55.5 28t31.5 75z" />
    <glyph glyph-name="ampersand.ss01" horiz-adv-x="404" 
d="M180 154q-51 0 -81 34t-20 89q12 71 87 123q-26 66 -17 113q9 53 42.5 82.5t74.5 29.5t64 -29.5t14 -82.5q-13 -71 -103 -129q11 -23 43 -73q7 25 17 76h49q-14 -78 -33 -125l37 -55l-40 -47q-6 8 -16 23l-14 21q-40 -50 -104 -50zM213 513q-8 -40 10 -90q48 38 57 90
q5 27 -1.5 44.5t-21.5 17.5t-27 -17.5t-17 -44.5zM143 277q-5 -29 9 -51t40 -22q39 0 65 40q-49 75 -70 113q-37 -37 -44 -80zM50 59l9 50h268l-9 -50h-268z" />
    <glyph glyph-name="ln.zero" horiz-adv-x="400" 
d="M268 677q78 0 106.5 -83t-0.5 -259q-60 -341 -216 -341q-78 0 -107 83t0 258q60 342 217 342zM278 335q22 121 18 194t-36 73t-62 -71.5t-51 -195.5q-46 -267 19 -267q32 0 61.5 72t50.5 195z" />
    <glyph glyph-name="ln.one" horiz-adv-x="234" 
d="M82 630l167 41l-118 -671h-96l101 571l-67 -16z" />
    <glyph glyph-name="ln.two" horiz-adv-x="397" 
d="M272 677q64 0 107 -53t29 -131q-6 -35 -18 -69t-34 -71l-36.5 -61.5t-47 -64.5l-43 -53t-48.5 -55.5t-40 -44.5h186l-13 -74h-247l-32 63l33 38t35.5 41.5l33.5 40.5t35 43.5l31 42t31.5 45.5l26 43.5t23.5 46.5t16 43.5t12 45.5q7 43 -6 75t-52 32q-21 0 -44 -9.5
t-35 -18.5l-12 -10l-17 59q6 6 16.5 15.5t43.5 25t66 15.5z" />
    <glyph glyph-name="ln.three" horiz-adv-x="405" 
d="M391 511q-6 -36 -20 -65.5t-29.5 -46t-29.5 -28t-24 -15.5l-9 -4l5 -2.5t11.5 -8.5t15.5 -15.5t16 -23t12.5 -31.5t6 -41t-3.5 -51q-16 -89 -65.5 -137t-116.5 -48q-40 0 -71 12t-43 24l-11 11l39 60q31 -33 77 -33q75 0 97 124q9 54 -5.5 88.5t-49.5 34.5h-42l13 74h42
q31 0 54.5 30t32.5 81q8 46 -7.5 74t-44.5 28q-18 0 -36.5 -8t-27.5 -16l-9 -9l-17 60q5 5 14 13t38.5 21.5t60.5 13.5q68 0 104 -47t23 -119z" />
    <glyph glyph-name="ln.four" horiz-adv-x="404" 
d="M394 671l-68 -388h64l-13 -75h-64l-37 -208h-96l36 208h-181l13 75l262 388h84zM230 283l37 212l-141 -212h104z" />
    <glyph glyph-name="ln.five" horiz-adv-x="420" 
d="M397 596h-135l-39 -174q10 2 18 2q70 0 105.5 -57.5t17.5 -157.5q-17 -98 -74.5 -156.5t-135.5 -58.5q-35 0 -65 12t-42 24l-12 11l37 58q36 -31 81 -31q42 0 72.5 37t42.5 104q11 62 -5 101t-58 39q-26 0 -55 -18l-36 39l69 301h36h191z" />
    <glyph glyph-name="ln.six" horiz-adv-x="387" 
d="M260 467q69 0 98.5 -63.5t10.5 -173.5t-72.5 -173t-126.5 -63q-74 0 -111.5 69t-15.5 195q11 63 33 120.5t49 99.5t56.5 78.5t57 60t49.5 40.5t36 25l13 7l21 -73q-11 -6 -28.5 -18.5t-62 -56.5t-77.5 -95q32 21 70 21zM275 230q13 72 1.5 118t-44.5 46
q-32 0 -59.5 -45.5t-40.5 -118.5q-13 -71 -1.5 -117.5t43.5 -46.5q33 0 60.5 46t40.5 118z" />
    <glyph glyph-name="ln.seven" horiz-adv-x="364" 
d="M104 671h295l-15 -80q-8 -10 -21 -28t-49.5 -78.5t-67.5 -125t-64.5 -163t-50.5 -196.5h-96q18 104 51 203.5t67 166.5t65 119.5t50 76.5l20 25h-198z" />
    <glyph glyph-name="ln.eight" horiz-adv-x="441" 
d="M427 503q-16 -97 -93 -147q69 -52 48 -169q-17 -93 -73 -143t-127 -50q-72 0 -115 51t-27 142q20 116 108 169q-59 49 -41 147q13 77 65.5 125.5t119.5 48.5q69 0 108.5 -49t26.5 -125zM288 196q9 53 -6 87t-48 34t-60 -34t-36 -87q-10 -57 2.5 -92.5t49.5 -35.5
t62.5 35.5t35.5 92.5zM329 494q8 45 -4 76.5t-41 31.5t-52 -31.5t-31 -76.5q-8 -43 5 -72.5t41 -29.5t51 29.5t31 72.5z" />
    <glyph glyph-name="ln.nine" horiz-adv-x="389" 
d="M246 677q75 0 111 -68.5t13 -196.5q-18 -101 -51.5 -182.5t-69 -126t-69 -74t-54.5 -39.5l-21 -9l-21 73q3 2 9.5 5.5t24.5 17.5t36 31.5t41 49t42 67.5q-30 -22 -70 -22q-72 0 -108 64.5t-17 172.5q20 111 75.5 174t128.5 63zM282 440q12 66 0 115t-43 49
q-32 0 -60.5 -48t-40.5 -116q-12 -65 0 -114.5t43 -49.5q32 0 60.5 48t40.5 116z" />
    <glyph glyph-name="ln.zeroalt" horiz-adv-x="398" 
d="M266 677q74 0 105.5 -89.5t2.5 -252.5q-29 -165 -87 -253t-130 -88q-73 0 -105 89.5t-3 251.5q29 165 87 253.5t130 88.5zM283 335q11 59 13 91l-173 -245q-3 -118 41 -118q33 0 64.5 71t54.5 201zM301 490q3 118 -41 118q-33 0 -65 -71.5t-55 -201.5q-8 -42 -13 -90z
" />
    <glyph glyph-name="zero.zero" horiz-adv-x="433" 
d="M252 486q78 0 119 -62.5t20 -183.5q-22 -123 -78 -184.5t-132 -61.5q-78 0 -119 62.5t-20 183.5q22 123 78 184.5t132 61.5zM130 240q-14 -85 3 -132l145 299q-14 12 -30 12q-37 0 -70.5 -49.5t-47.5 -129.5zM302 240q15 80 -2 132l-146 -299q14 -12 31 -12q37 0 70 49.5
t47 129.5z" />
    <glyph glyph-name="braceleft.uc" horiz-adv-x="426" 
d="M288 752q32 0 58 -14t36 -28l9 -14l-35 -54q-22 33 -59 33q-45 0 -62 -93q-9 -53 -4 -115t-1 -92q-8 -44 -48 -69q32 -26 24 -70q-5 -30 -32 -92t-37 -115q-15 -93 29 -93q17 0 34.5 8t27.5 16l9 9l16 -54q-6 -6 -16 -15t-42 -24.5t-64 -15.5q-55 0 -78.5 41.5
t-13.5 101.5q10 54 37 116.5t31 87.5q5 26 -7 44t-38 18h-21l13 73h21q26 0 44 18t23 44q4 24 -1 87t5 117q10 60 48.5 102t93.5 42z" />
    <glyph glyph-name="braceright.uc" horiz-adv-x="336" 
d="M297 608q-10 -54 -37 -116t-31 -88q-5 -26 6.5 -44t38.5 -18h20l-13 -73h-20q-27 0 -44.5 -18t-22.5 -44q-5 -25 0 -87t-4 -117q-10 -60 -48.5 -101.5t-93.5 -41.5q-32 0 -58 14t-36 28l-9 13l35 54q22 -33 59 -33q45 0 62 93q9 53 4 115t0 92q8 45 49 70q-32 25 -24 69
q5 31 32 92.5t36 114.5q17 93 -29 93q-16 0 -34 -8.5t-27 -16.5l-10 -8l-15 54l16 15.5t42 25t64 15.5q55 0 78.5 -42t13.5 -102z" />
    <glyph glyph-name="parenleft.uc" horiz-adv-x="357" 
d="M140 306q-15 -112 -6.5 -195t27.5 -131l19 -48l-47 -72q-3 3 -8 9t-18 28t-24.5 46t-23.5 64t-18 82t-5.5 99.5t11.5 117.5q14 82 44.5 158.5t63.5 126.5t64.5 88t51.5 55l20 18l21 -73l-14.5 -17.5t-34.5 -50t-46 -79.5t-43.5 -102.5t-33.5 -123.5z" />
    <glyph glyph-name="parenright.uc" horiz-adv-x="257" 
d="M124 752q3 -3 8 -9t18 -28t24.5 -46t23.5 -64t18 -82t5.5 -99.5t-11.5 -117.5q-14 -82 -44.5 -158.5t-63.5 -126.5t-64.5 -88t-51.5 -55l-20 -18l-21 72l14.5 17.5t34.5 50t46 79.5t43.5 103t33.5 124q15 112 6.5 194.5t-27.5 130.5l-19 48z" />
    <glyph glyph-name="bracketleft.uc" horiz-adv-x="446" 
d="M190 746h211l-13 -73h-117l-129 -735h117l-13 -72h-211z" />
    <glyph glyph-name="bracketright.uc" horiz-adv-x="346" 
d="M100 746h211l-155 -880h-211l13 72h117l129 735h-117z" />
    <glyph glyph-name="exclamdown.uc" horiz-adv-x="288" 
d="M174 671h99l-18 -99h-98zM76 111l86 361h53l-41 -361l-21 -117h-98z" />
    <glyph glyph-name="questiondown.uc" horiz-adv-x="384" 
d="M250 478q50 0 77.5 -35.5t19.5 -84.5q-7 -42 -39 -78.5t-66 -58t-64.5 -49.5t-35.5 -55q-4 -24 9 -40.5t42 -16.5q20 0 41 9t32 19l10 9l16 -55q-6 -6 -16.5 -15t-44 -24t-67.5 -15q-59 0 -90 35.5t-22 87.5q7 41 39 77.5t66.5 58.5t64.5 50t35 55q3 21 -8.5 37.5
t-32.5 16.5q-16 0 -32.5 -9t-24.5 -17l-8 -9l-15 52q4 6 13 15t38.5 24.5t62.5 15.5zM341 671l-17 -99h-99l18 99h98z" />
    <glyph glyph-name="colon.uc" horiz-adv-x="253" 
d="M35 66l17 98h99l-17 -98h-99zM120 546h98l-17 -99h-99z" />
    <glyph glyph-name="semicolon.uc" horiz-adv-x="261" 
d="M-25 -18l88 197h98l-117 -197h-69zM127 546h99l-18 -99h-98z" />
    <glyph glyph-name="plus.uc" horiz-adv-x="339" 
d="M212 372h92l-13 -73h-92l-16 -92h-73l16 92h-91l13 73h91l16 91h73z" />
    <glyph glyph-name="minus.uc" horiz-adv-x="343" 
d="M58 372h240l-13 -73h-240z" />
    <glyph glyph-name="equal.uc" horiz-adv-x="344" 
d="M35 196l13 73h240l-13 -73h-240zM69 391h240l-12 -73h-241z" />
    <glyph glyph-name="divide.uc" horiz-adv-x="404" 
d="M274 489l-15 -84h-84l15 84h84zM130 151l15 84h84l-15 -84h-84zM48 356h321l-13 -72h-321z" />
    <glyph glyph-name="multiply.uc" horiz-adv-x="344" 
d="M309 426l-95 -106l58 -106l-62 -40l-48 89l-79 -89l-48 40l95 106l-58 106l62 40l48 -88l80 88z" />
    <glyph glyph-name="guilsinglleft.uc" horiz-adv-x="294" 
d="M249 474l-135 -137l86 -137l-64 -46l-91 144l14 77l141 144z" />
    <glyph glyph-name="guilsinglright.uc" horiz-adv-x="294" 
d="M158 519l91 -144l-14 -77l-141 -144l-49 46l134 137l-86 137z" />
    <glyph glyph-name="guillemotleft.uc" horiz-adv-x="448" 
d="M403 474l-135 -137l86 -137l-64 -46l-91 144l13 77l142 144zM249 474l-135 -137l86 -137l-64 -46l-91 144l14 77l141 144z" />
    <glyph glyph-name="guillemotright.uc" horiz-adv-x="448" 
d="M249 375l-14 -77l-141 -144l-49 46l134 137l-86 137l65 45zM312 519l91 -144l-14 -77l-141 -144l-49 46l134 137l-86 137z" />
    <glyph glyph-name="less.uc" horiz-adv-x="351" 
d="M306 471l-164 -134l116 -135l-45 -70l-168 205l240 204z" />
    <glyph glyph-name="greater.uc" horiz-adv-x="351" 
d="M138 541l168 -204l-241 -205l-20 70l164 135l-117 134z" />
    <glyph glyph-name="emdash.uc" horiz-adv-x="551" 
d="M58 372h448l-13 -73h-448z" />
    <glyph glyph-name="endash.uc" horiz-adv-x="406" 
d="M58 372h303l-13 -73h-303z" />
    <glyph glyph-name="logicalnot.uc" horiz-adv-x="420" 
d="M58 377h317l-30 -166h-72l16 93h-244z" />
    <glyph glyph-name="hyphen.uc" horiz-adv-x="343" 
d="M58 372h240l-13 -73h-240z" />
    <glyph glyph-name="plusminus.uc" horiz-adv-x="363" 
d="M236 438h92l-13 -73h-91l-17 -91h-72l16 91h-92l13 73h92l16 91h72zM35 152l13 73h229l-13 -73h-229z" />
    <glyph glyph-name="notequal.uc" horiz-adv-x="364" 
d="M307 318h-94l-24 -49h109l-13 -73h-132l-50 -102h-38l50 102h-70l13 73h93l23 49h-108l13 73h131l49 101h38l-49 -101h71z" />
    <glyph glyph-name="approxequal.uc" horiz-adv-x="411" 
d="M147 291q23 0 55 -16.5t54 -16.5q20 0 42.5 8t35.5 16l12 9l-13 -73q-45 -32 -90 -32q-22 0 -54 16t-55 16q-20 0 -42 -8t-34 -16l-13 -8l13 72q45 33 89 33zM276 373q20 0 42.5 8t35.5 16l12 8l-13 -72q-45 -32 -89 -32q-23 0 -55 16t-54 16q-20 0 -42.5 -8t-34.5 -16
l-13 -8l13 72q45 32 89 32q23 0 55 -16t54 -16z" />
    <glyph glyph-name="lessequal.uc" horiz-adv-x="414" 
d="M379 531l-204 -113l164 -113l-43 -66l-248 179l311 179zM35 131l13 72h240l-13 -72h-240z" />
    <glyph glyph-name="greaterequal.uc" horiz-adv-x="401" 
d="M55 239l-20 66l204 113l-164 113l43 66l248 -179zM37 131l13 72h241l-13 -72h-241z" />
    <glyph glyph-name="at.uc" horiz-adv-x="829" 
d="M475 683q142 0 225 -105t59 -240q-17 -94 -59.5 -144t-109.5 -50q-27 0 -49.5 7t-36 17t-23 20.5t-13.5 17.5l-4 7q-1 -3 -3.5 -7.5t-12 -16.5t-20.5 -21t-29 -16.5t-38 -7.5q-56 0 -85 52t-13 142q34 194 184 194q30 0 56 -14t37 -28l11 -13l-32 -183q-9 -52 17.5 -78.5
t68.5 -26.5t68.5 35.5t40.5 113.5q22 126 -48.5 216t-198.5 90q-127 0 -228 -89t-124 -217q-22 -123 51.5 -214t193.5 -91q33 0 71.5 6.5t60.5 13.5l22 7l16 -34q-78 -32 -177 -32q-61 0 -118 27t-97.5 72t-60 110t-7.5 135q26 151 141 248t264 97zM441 338l18 103
q-8 26 -29 26q-25 0 -48.5 -35.5t-32.5 -93.5q-11 -62 -4.5 -95t27.5 -33t39.5 33.5t29.5 94.5z" />
    <glyph glyph-name="zero.numr" horiz-adv-x="258" 
d="M161 680q41 0 66.5 -41t8.5 -142q-33 -183 -120 -183q-41 0 -66.5 41t-7.5 142q32 183 119 183zM167 497q21 125 -6 125q-13 0 -27 -33.5t-24 -91.5q-21 -125 6 -125q13 0 27 33.5t24 91.5z" />
    <glyph glyph-name="one.numr" horiz-adv-x="133" 
d="M62 654l106 26l-64 -363h-69l51 287l-34 -9z" />
    <glyph glyph-name="two.numr" horiz-adv-x="223" 
d="M174 680q43 0 61 -32t11 -71q-6 -37 -29.5 -78t-42.5 -64.5t-52 -59.5h85l-10 -58h-140l-22 42l36 40t61 83.5t45 94.5q4 19 -2 31.5t-21 12.5q-12 0 -24 -6.5t-18 -13.5l-6 -7l-14 49q34 37 82 37z" />
    <glyph glyph-name="three.numr" horiz-adv-x="225" 
d="M238 586q-10 -56 -49 -81q33 -31 24 -87q-9 -48 -38 -76t-70 -28q-20 0 -37.5 8t-25.5 16l-7 8l32 49q10 -24 37 -24q31 0 41 53q4 25 -2 38.5t-17 13.5h-32l10 58h32q24 0 32 47q3 17 -1.5 29t-16.5 12q-11 0 -21 -6.5t-15 -13.5l-5 -6l-15 51q34 33 72 33
q40 0 59 -27.5t13 -66.5z" />
    <glyph glyph-name="four.numr" horiz-adv-x="226" 
d="M241 677l-35 -197h33l-11 -58h-32l-19 -105h-69l19 105h-92l9 51l138 204h59zM141 469l15 87l-53 -87h38z" />
    <glyph glyph-name="five.numr" horiz-adv-x="234" 
d="M239 619h-69l-15 -67q45 3 61.5 -32t7.5 -87q-10 -57 -40.5 -88t-77.5 -31q-22 0 -40 8t-24 16l-7 8l32 49q12 -24 39 -24t44 43q17 45 1 69q-7 11 -19 11q-7 0 -14.5 -3t-11.5 -7l-4 -3l-25 33l38 163h134z" />
    <glyph glyph-name="six.numr" horiz-adv-x="213" 
d="M161 574q38 0 55.5 -37t7.5 -93q-10 -57 -41 -93.5t-73 -36.5q-43 0 -62.5 39.5t-8.5 104.5q8 45 28 85.5t43 66t44.5 44.5t35.5 28l15 8l16 -54q-40 -24 -72 -63q2 0 6 0.5t6 0.5zM118 371q21 0 35 57q17 62 1 84q-5 5 -11 5q-21 0 -35 -57q-17 -62 -1 -84q5 -5 11 -5z
" />
    <glyph glyph-name="seven.numr" horiz-adv-x="208" 
d="M74 677h169l-10 -53q-4 -4 -10 -11t-24 -34t-33.5 -59t-33 -87t-28.5 -116h-69q32 183 121 299h-93z" />
    <glyph glyph-name="eight.numr" horiz-adv-x="241" 
d="M254 582q-8 -47 -41 -74q28 -31 19 -86q-9 -50 -42.5 -79t-73.5 -29q-41 0 -64 29t-14 79q11 55 49 86q-23 27 -15 74q8 44 39.5 71t68.5 27q38 0 60 -27t14 -71zM164 426q9 52 -19 52t-37 -52q-4 -23 0.5 -39t17.5 -16t23.5 16t14.5 39zM185 577q3 19 -1 32t-14 13
q-9 0 -18 -13t-12 -32q-3 -17 1.5 -29t13.5 -12t18 12t12 29z" />
    <glyph glyph-name="nine.numr" horiz-adv-x="215" 
d="M156 680q44 0 62.5 -36t6.5 -108q-8 -47 -27 -88t-39.5 -66t-40.5 -43.5t-32 -26.5l-13 -7l-16 54q40 20 68 63q-10 -2 -18 -2q-30 0 -48 20.5t-21 49.5t0 60q10 58 43 94t75 36zM160 550q12 73 -14 73q-27 0 -39 -73t14 -73q27 0 39 73z" />
    <glyph glyph-name="zero.dnom" horiz-adv-x="258" 
d="M161 363q41 0 66.5 -41t8.5 -142q-33 -183 -120 -183q-41 0 -66.5 41t-7.5 142q32 183 119 183zM167 180q21 125 -6 125q-13 0 -27 -33.5t-24 -91.5q-21 -125 6 -125q13 0 27 33.5t24 91.5z" />
    <glyph glyph-name="one.dnom" horiz-adv-x="133" 
d="M62 337l106 26l-64 -363h-69l51 287l-34 -9z" />
    <glyph glyph-name="two.dnom" horiz-adv-x="223" 
d="M174 363q43 0 61 -32t11 -71q-6 -37 -29.5 -78t-42.5 -64.5t-52 -59.5h85l-10 -58h-140l-22 42l36 40t61 83.5t45 94.5q4 19 -2 31.5t-21 12.5q-12 0 -24 -7t-18 -13l-6 -7l-14 49q34 37 82 37z" />
    <glyph glyph-name="three.dnom" horiz-adv-x="225" 
d="M238 269q-9 -53 -49 -81q34 -29 24 -87q-9 -48 -38 -76t-70 -28q-20 0 -37.5 8t-25.5 16l-7 8l32 49q10 -23 37 -23q31 0 41 52q4 25 -2 39t-17 14h-32l10 57h32q24 0 32 47q3 17 -1.5 29t-16.5 12q-11 0 -21 -6.5t-15 -12.5l-5 -6l-15 50q34 33 72 33q40 0 59 -27.5
t13 -66.5z" />
    <glyph glyph-name="four.dnom" horiz-adv-x="226" 
d="M241 360l-35 -197h33l-11 -57h-32l-19 -106h-69l19 106h-92l9 50l138 204h59zM141 152l15 87l-53 -87h38z" />
    <glyph glyph-name="five.dnom" horiz-adv-x="234" 
d="M239 302h-69l-15 -67q45 3 61.5 -32t7.5 -87q-10 -57 -40.5 -88t-77.5 -31q-22 0 -40 8t-24 16l-7 8l32 49q12 -23 39 -23q28 0 44 43q17 45 1 69q-7 10 -19 10q-7 0 -14.5 -3.5t-11.5 -6.5l-4 -3l-25 33l38 163h134z" />
    <glyph glyph-name="six.dnom" horiz-adv-x="213" 
d="M161 257q38 0 55.5 -37t7.5 -93q-10 -57 -41 -93.5t-73 -36.5q-43 0 -62.5 39.5t-8.5 104.5q8 45 28 85.5t43 66t44.5 44.5t35.5 27l15 9l16 -54q-40 -24 -72 -63q2 0 6 0.5t6 0.5zM157 127q12 73 -14 73q-25 0 -39 -73q-12 -73 14 -73t39 73z" />
    <glyph glyph-name="seven.dnom" horiz-adv-x="208" 
d="M74 360h169l-10 -53q-4 -4 -10 -11t-24 -34t-33.5 -59t-33 -87t-28.5 -116h-69q32 183 121 299h-93z" />
    <glyph glyph-name="eight.dnom" horiz-adv-x="241" 
d="M254 265q-8 -47 -41 -74q28 -31 19 -86q-9 -50 -42.5 -79t-73.5 -29q-41 0 -64 29t-14 79q11 55 49 86q-23 27 -15 74q8 44 39.5 71t68.5 27q38 0 60 -27t14 -71zM164 109q9 52 -19 52t-37 -52q-4 -23 0.5 -38.5t17.5 -15.5q28 0 38 54zM185 260q3 20 -1 32.5t-14 12.5
q-9 0 -18 -13t-12 -32q-3 -17 1.5 -29t13.5 -12t18 12t12 29z" />
    <glyph glyph-name="nine.dnom" horiz-adv-x="215" 
d="M156 363q44 0 62.5 -36t6.5 -108q-8 -47 -27 -88t-39.5 -66t-40.5 -43.5t-32 -25.5l-13 -8l-16 54q40 20 68 63q-10 -2 -18 -2q-41 0 -60 36q-18 36 -9 94q10 58 43 94t75 36zM160 233q12 73 -14 73q-27 0 -39 -73t14 -73q27 0 39 73z" />
    </font>
</defs>
</svg>
