<?xml version="1.0" standalone="no"?>
<!DOCTYPE svg PUBLIC "-//W3C//DTD SVG 1.1//EN" "http://www.w3.org/Graphics/SVG/1.1/DTD/svg11.dtd" >
<svg>
<metadata>
Created by FontForge 20090622 at Tue Apr  7 05:17:26 2020
 By deploy user
Copyright (c) 2020 by Vintage Type Company. All rights reserved.
</metadata>
<defs>
<font id="VTCFellbaumGrotesk-Thin" horiz-adv-x="809" >
  <font-face 
    font-family="VTC Fellbaum Grotesk"
    font-weight="250"
    font-stretch="normal"
    units-per-em="1000"
    panose-1="0 0 0 0 0 0 0 0 0 0"
    ascent="750"
    descent="-250"
    x-height="474"
    cap-height="677"
    bbox="-110 -210 1385 878"
    underline-thickness="50"
    underline-position="-50"
    unicode-range="U+000D-U+1F10C"
  />
<missing-glyph horiz-adv-x="506" 
d="M60 683h386v-689h-386v689zM342 633h-178l89 -225zM125 593v-509l100 254zM164 43h178l-89 226zM381 84v509l-101 -255z" />
    <glyph glyph-name="db.01" unicode="&#x3a;&#x29;" horiz-adv-x="802" 
d="M401 686q143 0 244.5 -101.5t101.5 -244.5t-101.5 -244.5t-244.5 -101.5t-244.5 101.5t-101.5 244.5t101.5 244.5t244.5 101.5zM606 134q40 40 63 92q23 55 23 114q0 58 -23 113q-24 54 -63 92q-39 40 -92 63q-55 23 -113 23q-59 0 -113 -23q-52 -22 -93 -63
q-40 -38 -62 -92q-23 -55 -23 -113q0 -59 23 -114q21 -51 62 -92t93 -62q54 -23 113 -23q58 0 113 23q53 21 92 62zM555 325v28h84v-55h-31q-10 -78 -69 -130t-138 -52t-138 52t-70 130h-31v55h84v-28q0 -64 45.5 -109t109.5 -45t109 45t45 109zM322 320q-19 0 -31 34
q-11 31 -11 76q0 44 11 77q12 34 31 34q20 0 32 -34q11 -33 11 -77v-2h-4q-13 0 -21.5 -8.5t-8.5 -21.5q0 -11 8 -19.5t19 -9.5q-1 -4 -2.5 -9t-1.5 -6q-12 -34 -32 -34zM479 320q-19 0 -31 34q-11 31 -11 76q0 44 11 77q12 34 31 34q20 0 32 -34q11 -33 11 -77v-2h-4
q-13 0 -21.5 -8.5t-8.5 -21.5q0 -11 8 -19.5t19 -9.5q-1 -4 -2.5 -9t-1.5 -6q-12 -34 -32 -34z" />
    <glyph glyph-name="db.02" unicode="&#x3c;&#x33;" horiz-adv-x="596" 
d="M425 558q49 0 82.5 -34.5t33.5 -84.5q0 -48 -25 -98.5t-61 -88t-71.5 -68.5t-60.5 -47l-25 -16q-10 6 -26.5 17t-58 45.5t-73.5 70t-58.5 86.5t-26.5 99q0 50 33.5 84.5t82.5 34.5q85 0 127 -89q42 89 127 89z" />
    <glyph glyph-name="db.03" unicode="&#x3c;&#x3c;&#x33;" horiz-adv-x="586" 
d="M404 558q54 0 90.5 -37t36.5 -92q0 -59 -37 -120q-29 -48 -77 -94q-25 -23 -52.5 -44.5t-41.5 -30.5l-17 -11l-13 -8l-12 8q-3 1 -17.5 10.5t-42 31t-52.5 44.5q-48 46 -77 94q-37 61 -37 120q0 55 37 92t90 37q67 0 111 -56q44 56 111 56zM384 251q99 95 99 178
q0 35 -23 58t-56 23q-59 0 -89 -65l-22 -46l-22 46q-30 65 -89 65q-33 0 -56 -23t-23 -58q0 -83 99 -178q29 -28 91 -73q54 37 91 73z" />
    <glyph glyph-name="db.04" unicode="db&#x2e;&#x30;&#x31;" horiz-adv-x="799" 
d="M622 216l-111 111l-100 -100l111 -111l-122 -122l-123 122l111 111l-100 100l-111 -111l-122 122l122 123l111 -111l100 100l-111 111l123 122l122 -122l-111 -111l100 -100l111 111l122 -123z" />
    <glyph glyph-name="db.05" unicode="db&#x2e;&#x30;&#x32;" horiz-adv-x="799" 
d="M599 194l-100 99l-55 -54l100 -100l-144 -145l-145 145l100 100l-55 54l-100 -99l-145 144l145 145l100 -100l55 55l-100 100l145 145l144 -145l-100 -100l55 -55l100 100l145 -145zM599 413l-75 -75l75 -75l75 75zM200 263l75 75l-75 75l-75 -75zM325 538l75 -75l74 75
l-74 75zM474 139l-74 75l-75 -75l75 -75zM400 263l74 75l-74 75l-75 -75z" />
    <glyph glyph-name="db.06" unicode="db&#x2e;&#x30;&#x33;" horiz-adv-x="597" 
d="M385 268h157v-173h-173v157h-141v-157h-173v173h157v141h-157v173h173v-157h141v157h173v-173h-157v-141z" />
    <glyph glyph-name="db.07" unicode="db&#x2e;&#x30;&#x34;" horiz-adv-x="597" 
d="M542 300v-205h-205v141h-77v-141h-205v205h141v77h-141v205h205v-141h77v141h205v-205h-141v-77h141zM104 427h106v106h-106v-106zM210 144v106h-106v-106h106zM352 285v106h-106v-106h106zM493 533h-106v-106h106v106zM387 144h106v106h-106v-106z" />
    <glyph glyph-name="db.08" unicode="db&#x2e;&#x30;&#x37;" horiz-adv-x="799" 
d="M691 338q53 -31 53 -82q0 -39 -22 -60.5t-58 -21.5q-35 0 -66.5 20.5t-69 58t-57.5 52.5l-38 -39q14 -19 52 -56.5t58.5 -69t20.5 -66.5q0 -36 -21.5 -58t-60.5 -22q-51 0 -82 53q-33 -53 -83 -53q-39 0 -60.5 22t-21.5 58q0 35 20.5 66.5t58.5 69t52 56.5l-38 39
q-20 -15 -57.5 -52.5t-69 -58t-66.5 -20.5q-36 0 -58 21.5t-22 60.5q0 51 53 82q-53 33 -53 83q0 38 22.5 60t57.5 22t66.5 -20.5t69 -58t57.5 -52.5l38 38q-15 20 -52.5 57.5t-58 69t-20.5 66.5q0 36 21.5 58t60.5 22q51 0 82 -53q33 53 83 53q39 0 60.5 -22t21.5 -58
q0 -35 -20.5 -66.5t-58 -69t-52.5 -57.5l38 -38q20 15 57.5 52.5t69 58t66.5 20.5q36 0 58 -21.5t22 -60.5q0 -50 -53 -83z" />
    <glyph glyph-name="db.09" unicode="db&#x2e;&#x30;&#x38;" horiz-adv-x="799" 
d="M744 415q0 -42 -33 -77q33 -33 33 -76q0 -47 -29 -74q-27 -27 -70 -27q-41 0 -83 27q-18 12 -62 54q-26 26 -32 31l-3 -3q4 -5 31 -32q42 -44 54 -62q27 -42 27 -83q0 -44 -27 -71q-28 -28 -74 -28q-44 0 -76 33q-33 -33 -77 -33q-46 0 -74 28q-27 27 -27 71q0 41 27 83
q12 18 54 62q27 26 31 32l-3 3l-32 -31q-44 -42 -62 -54q-42 -27 -83 -27q-43 0 -70 27q-29 27 -29 74q0 43 33 76q-33 35 -33 77q0 47 29 74q27 27 70 27q41 0 83 -27q18 -12 62 -54q27 -27 32 -31l3 3q-4 5 -31 32q-42 44 -54 62q-27 41 -27 83q0 43 27 70q27 29 74 29
q43 0 76 -33q35 33 77 33q47 0 74 -29q27 -27 27 -70q0 -42 -27 -83q-12 -18 -54 -62q-27 -27 -31 -32l3 -3q6 4 32 31q44 42 62 54q42 27 83 27q43 0 70 -27q29 -27 29 -74zM318 328l14 10l-14 11q-24 18 -55 49q-22 22 -35.5 34t-34 22.5t-39.5 10.5q-23 0 -35 -12
q-13 -13 -13 -38q0 -33 37 -55l37 -22l-37 -22q-37 -21 -37 -54q0 -26 13 -38q12 -12 35 -12q28 0 51.5 16.5t57.5 50.5q41 38 55 49zM526 93q0 28 -16.5 51.5t-50.5 57.5q-31 31 -49 55l-11 14l-10 -14q-18 -24 -49 -55q-22 -22 -34 -35.5t-22.5 -34t-10.5 -39.5
q0 -23 12 -35q13 -13 38 -13q33 0 55 37l22 37l21 -37q22 -37 55 -37q25 0 38 13q12 12 12 35zM338 338l62 -61l61 61l-61 62zM459 475q22 22 34 35.5t22.5 34t10.5 39.5q0 22 -12 35q-15 13 -38 13q-33 0 -55 -37l-21 -37l-22 37q-22 37 -55 37q-23 0 -38 -13
q-12 -13 -12 -35q0 -28 16.5 -51.5t50.5 -57.5q31 -31 49 -55l11 -14l10 14q18 24 49 55zM656 316l-37 22l37 22q37 22 37 55q0 25 -13 38q-12 12 -35 12q-28 0 -51.5 -16.5t-57.5 -50.5q-31 -31 -55 -49l-14 -11l14 -10q14 -11 55 -49q22 -22 35.5 -34t34 -22.5t39.5 -10.5
q23 0 35 12q13 12 13 38q0 33 -37 54z" />
    <glyph glyph-name="db.10" unicode="db&#x2e;&#x30;&#x39;" horiz-adv-x="768" 
d="M687 268q25 -25 25.5 -56t-26.5 -59q-36 -36 -96 -20q15 -61 -21 -97q-28 -27 -58.5 -26.5t-55.5 25.5t-33 61.5t-8 90.5t-3 77h-54q-4 -25 -3.5 -78t-7.5 -89.5t-33 -61.5t-55.5 -25.5t-58.5 26.5q-36 36 -21 97q-60 -16 -96 20q-27 28 -27 59t25 56q26 25 62.5 33
t89.5 7.5t77 2.5v54q-24 4 -77 3.5t-90 7.5t-62 33t-25 55.5t27 59.5q36 36 96 20q-15 60 21 96q29 28 58.5 27.5t55.5 -25.5q25 -25 33 -61.5t7.5 -89.5t3.5 -78h54q3 23 3 77t8 90.5t33 61.5t55 25.5t59 -27.5q36 -36 21 -96q60 16 96 -20q27 -28 26.5 -59t-25.5 -56
t-61.5 -33t-89.5 -7.5t-78 -3.5v-54q24 -3 77.5 -2.5t90 -7.5t61.5 -33z" />
    <glyph glyph-name="db.11" unicode="db&#x2e;&#x31;&#x30;" horiz-adv-x="770" 
d="M684 291q31 -31 31 -69q0 -41 -32 -73q-31 -31 -78 -31q0 -47 -30 -77q-33 -33 -73 -33q-40 2 -69 31q-30 30 -39 78q-6 32 -6 82q0 30 -1 45h-4q-1 -15 -1 -45q0 -50 -6 -82q-9 -48 -39 -78q-29 -29 -69 -31q-40 0 -73 33q-30 30 -30 77q-47 0 -78 31q-32 32 -32 73
q0 38 31 69q28 29 78 39q26 5 82 5q30 0 44 1v4q-28 2 -44 2q-56 0 -82 5q-48 9 -78 39q-31 31 -31 69q0 41 32 73q33 31 78 31q0 47 30 77q34 34 73 32q38 0 69 -31q30 -28 39 -77q6 -32 6 -82q0 -31 1 -45h4q1 14 1 45q0 50 6 82q9 49 39 77q31 31 69 31q39 2 73 -32
q30 -30 30 -77q45 0 78 -31q32 -32 32 -73q0 -38 -31 -69q-30 -30 -78 -39q-26 -5 -82 -5q-16 0 -44 -2v-4q14 -1 44 -1q56 0 82 -5q50 -10 78 -39zM335 273l2 18l-17 -3q-33 -4 -74 -4q-31 0 -49 -1t-39.5 -8t-35.5 -20q-16 -18 -16 -34q0 -19 17 -36q23 -23 65 -13l42 11
l-11 -42q-11 -41 12 -64q18 -18 37 -18q17 0 33 16q14 14 20.5 36.5t7.5 38t2 50.5q0 49 4 73zM320 389l17 -3l-2 18q-4 24 -4 73q-1 34 -2 49.5t-7.5 38.5t-20.5 36q-14 15 -33 17q-19 0 -37 -18q-23 -23 -12 -65l11 -41l-42 10q-41 10 -65 -12q-17 -19 -17 -36
q0 -18 16 -34q14 -14 36 -20.5t39 -7.5t49 -1q62 -3 74 -4zM429 295v87h-88v-87h88zM435 404l-2 -18l17 3q12 1 74 4q32 0 49 1t39 7.5t36 20.5q16 16 16 34q0 17 -17 36q-24 22 -65 12l-42 -10l11 41q11 42 -12 65q-18 18 -37 18q-19 -2 -33 -17q-14 -13 -20.5 -36
t-7.5 -38.5t-2 -49.5q0 -49 -4 -73zM647 185q17 17 17 36q0 16 -16 34q-14 13 -35.5 20t-39.5 8t-49 1q-41 0 -74 4l-17 3l2 -18q4 -24 4 -73q1 -35 2 -50.5t7.5 -38t20.5 -36.5q16 -16 33 -16q19 0 37 18q23 23 12 64l-11 42l42 -11q40 -10 65 13z" />
    <glyph glyph-name="db.12" unicode="db&#x2e;&#x31;&#x31;" horiz-adv-x="724" 
d="M514 382l155 86l-87 -267h-440l-87 267l155 -86l152 210zM142 85v69h440v-69h-440z" />
    <glyph glyph-name="db.13" unicode="db&#x2e;&#x31;&#x32;" horiz-adv-x="724" 
d="M633 485l36 -30l-86 -264h-442l-86 264l36 30l124 -68l126 175h41l127 -175zM546 242l55 168l-106 -59l-133 183l-133 -183l-106 59l55 -168h368zM159 85v50h406v-50h-406z" />
    <glyph glyph-name="db.14" unicode="db&#x2e;&#x31;&#x33;" horiz-adv-x="521" 
d="M55 683h411v-689l-206 95l-205 -95v689z" />
    <glyph glyph-name="db.15" unicode="db&#x2e;&#x31;&#x34;" horiz-adv-x="533" 
d="M55 683h423v-689l-212 98l-211 -98v689zM428 72v561h-323v-561l161 75z" />
    <glyph glyph-name="db.16" unicode="db&#x2e;&#x31;&#x35;" horiz-adv-x="1440" 
d="M1264 365h121v-53h-121l-264 -264l-140 140l-140 -140l-140 140l-140 -140l-264 264h-121v53h121l264 265l140 -140l140 140l140 -140l140 140zM720 554l-102 -102l102 -103l102 103zM440 124l102 102l-113 113l113 113l-102 102l-215 -215zM505 339l75 -75l75 75l-75 75
zM720 124l102 102l-102 102l-102 -102zM785 339l75 -75l75 75l-75 75zM1000 124l215 215l-215 215l-102 -102l113 -113l-113 -113z" />
    <glyph glyph-name="db.17" unicode="db&#x2e;&#x31;&#x36;" horiz-adv-x="1440" 
d="M1264 365h121v-53h-121l-264 -264l-140 140l-140 -140l-140 140l-140 -140l-264 264h-121v53h121l264 265l140 -140l140 140l140 -140l140 140zM542 226l-113 113l113 113l-102 102l-215 -215l215 -215zM720 124l102 102l-102 102l-102 -102zM720 349l102 103l-102 102
l-102 -102zM1000 124l215 215l-215 215l-102 -102l113 -113l-113 -113z" />
    <glyph glyph-name="db.18" unicode="db&#x2e;&#x31;&#x37;" horiz-adv-x="608" 
d="M341 461q-39 23 -70 57t-39 53q-18 41 -7.5 75.5t35.5 36.5q47 5 82 -60q2 -3 8.5 -20.5t17.5 -39.5t26 -41q23 -31 58 -57t66 -37q5 -2 6.5 -5.5t-1 -6.5t-8.5 -3q-35 -2 -84 10.5t-90 37.5zM515 265q4 0 7 -2t3.5 -4.5t-1.5 -5t-6 -3.5q-30 -10 -65.5 -37t-58.5 -58
q-15 -19 -26 -40t-18 -40t-8 -21q-35 -65 -82 -60q-25 2 -35.5 36.5t7.5 75.5q8 19 38.5 53t70.5 57q40 25 88.5 37.5t85.5 11.5zM541 351q11 -2 11 -12t-11 -13q-312 -85 -374 -85q-47 0 -79.5 28.5t-32.5 69.5t33 70t79 29q55 0 374 -87z" />
    <glyph glyph-name="db.19" unicode="db&#x2e;&#x31;&#x38;" horiz-adv-x="608" 
d="M93 413q-4 0 -7 2t-3.5 4t1.5 5t6 4q31 11 66 37t58 57q15 19 26 41t17.5 39.5t8.5 20.5q35 66 82 60q25 -2 35.5 -36.5t-7.5 -75.5q-8 -19 -39 -53t-70 -57q-41 -25 -90 -37.5t-84 -10.5zM442 438q46 0 78.5 -29t32.5 -70t-32.5 -69.5t-78.5 -28.5q-60 0 -375 85
q-11 3 -11 13t11 12q322 87 375 87zM267 216q40 -23 70.5 -57t38.5 -53q18 -41 7.5 -75.5t-35.5 -36.5q-47 -6 -82 60q-1 2 -8 21t-18 40t-26 40q-23 31 -58.5 58t-65.5 37q-5 1 -6.5 5t1 7t8.5 3q37 1 85.5 -11.5t88.5 -37.5z" />
    <glyph glyph-name="db.20" unicode="db&#x2e;&#x30;&#x35;" horiz-adv-x="799" 
d="M539 543l-139 -140l-140 140l140 140zM260 134l140 140l139 -140l-139 -140zM195 478l140 -140l-140 -140l-140 140zM604 478l140 -140l-140 -140l-140 140z" />
    <glyph glyph-name="db.21" unicode="db&#x2e;&#x30;&#x36;" horiz-adv-x="799" 
d="M553 529l-153 -153l-154 153l154 154zM400 610l-82 -81l82 -81l81 81zM246 148l154 153l153 -153l-153 -154zM400 66l81 82l-81 81l-82 -81zM209 492l153 -154l-153 -153l-154 153zM209 257l81 81l-81 81l-81 -81zM590 492l154 -154l-154 -153l-153 153zM509 338l81 -81
l81 81l-81 81z" />
    <glyph glyph-name="fi" unicode="fi" horiz-adv-x="465" 
d="M172 480h218v-480h-71v425h-147v-425h-71v425h-56v55h56v36q0 81 44.5 124t110.5 43q29 0 55.5 -8.5t38.5 -16.5l13 -8l-21 -44q-28 22 -79 22q-41 0 -66 -28t-25 -84v-36z" />
    <glyph glyph-name="fl" unicode="fl" horiz-adv-x="480" 
d="M337 665l68 18v-683h-71v425h-162v-425h-71v425h-56v55h56v36q0 81 44.5 124t110.5 43q43 0 81 -18zM334 480v131q-29 17 -71 17q-41 0 -66 -28t-25 -84v-36h162z" />
    <glyph glyph-name="ffi" unicode="ffi" horiz-adv-x="642" 
d="M379 480h218v-480h-71v425h-147v-425h-71v425h-136v-425h-71v425h-56v55h56v36q0 80 46 123.5t112 43.5q61 0 107 -31q40 31 97 31q29 0 55.5 -8.5t38.5 -16.5l12 -8l-20 -44q-28 22 -80 22q-41 0 -65.5 -27.5t-24.5 -84.5v-36zM308 516q0 58 24 98q-30 14 -66 14
q-41 0 -67.5 -28t-26.5 -84v-36h136v36z" />
    <glyph glyph-name="ffl" unicode="ffl" horiz-adv-x="656" 
d="M543 665l68 18v-683h-70v425h-162v-425h-71v425h-136v-425h-71v425h-56v55h56v36q0 80 46 123.5t112 43.5q61 0 107 -31q40 31 97 31q44 0 80 -18zM308 516q0 58 24 98q-30 14 -66 14q-41 0 -67.5 -28t-26.5 -84v-36h136v36zM541 480v131q-29 17 -72 17
q-41 0 -65.5 -27.5t-24.5 -84.5v-36h162z" />
    <glyph glyph-name="fj" unicode="fj" horiz-adv-x="435" 
d="M172 480h218v-509q0 -94 -39.5 -137.5t-122.5 -43.5v55q91 0 91 106v474h-147v-425h-71v425h-56v55h56v36q0 81 44.5 124t110.5 43q29 0 55.5 -8.5t38.5 -16.5l13 -8l-21 -44q-28 22 -79 22q-41 0 -66 -28t-25 -84v-36z" />
    <glyph glyph-name="tt" unicode="tt" horiz-adv-x="559" 
d="M429 480h85v-55h-85v-425h-71v425h-158v-425h-71v425h-84v55h84v221l71 18v-239h158v221l71 18v-239z" />
    <glyph glyph-name="ft" unicode="ft" horiz-adv-x="513" 
d="M383 480h85v-55h-85v-425h-71v425h-140v-425h-71v425h-56v55h56v36q0 82 31.5 124.5t83.5 42.5q22 0 41 -8.5t27 -16.5l9 -8l-20 -44q-21 22 -48 22q-53 0 -53 -112v-36h140v103l71 18v-121z" />
    <glyph glyph-name="cw.the" unicode="cw&#x2e;the" horiz-adv-x="767" 
d="M650 450q41 0 57 -45.5t4 -118.5l-5 -27h-131q-11 -60 -0.5 -96t40.5 -36q16 0 31.5 8t22.5 16l7 8l16 -35q-3 -4 -9 -10.5t-27 -17t-46 -10.5q-49 0 -74.5 45t-13.5 112l8 43q29 164 120 164zM660 295q19 114 -18 114q-19 0 -36 -32.5t-25 -81.5h79zM198 550l-17 -100
h67l-7 -41h-68l-34 -198q-7 -39 2 -61.5t31 -22.5q11 0 21.5 5.5t16.5 11.5l5 5l14 -29q-2 -4 -6.5 -9.5t-22 -15t-39.5 -9.5q-40 0 -62.5 35.5t-12.5 92.5l34 195h-55l7 41q34 0 51.5 20t25.5 67zM449 162q-3 -18 9.5 -26.5t31.5 -8.5l-7 -41q-101 0 -83 100l24 134
q7 43 0 66t-25 23t-33 -23.5t-22 -65.5l-41 -230h-53l83 468h-42l7 39h94l-29 -169q20 22 49 22q37 0 55.5 -37t7.5 -104z" />
    <glyph glyph-name="cw.of" unicode="cw&#x2e;of" horiz-adv-x="527" 
d="M409 457l-2 -7h84l-7 -41h-84l-44 -252q-14 -76 -39 -102.5t-81 -26.5l7 41q26 0 38.5 20t21.5 71l44 249h-47l7 41h47l3 17q25 135 99 135q14 0 25.5 -6t16.5 -12l4 -6l-16 -32q-13 15 -29 15q-31 0 -48 -104zM252 290l-7 -43q-29 -161 -123 -161q-43 0 -64.5 41
t-7.5 120l8 43q14 80 46 120t76 40q45 0 65.5 -40t6.5 -120zM195 268q26 141 -19 141q-43 0 -69 -141t19 -141t69 141z" />
    <glyph glyph-name="cw.for" unicode="cw&#x2e;for" horiz-adv-x="746" 
d="M320 450l-7 -41h-83l-45 -252q-13 -76 -38.5 -102.5t-81.5 -26.5l7 41q26 0 39 20t21 71l44 249h-47l7 41h48l3 17q23 135 99 135q13 0 24.5 -6t15.5 -12l5 -6l-15 -32q-13 15 -29 15q-30 0 -49 -104l-1 -7h83zM428 450q45 0 65.5 -40t6.5 -120l-8 -43
q-28 -161 -122 -161q-43 0 -64.5 41t-7.5 120l7 43q14 80 46.5 120t76.5 40zM443 268q26 141 -19 141t-69 -141q-26 -141 19 -141q43 0 69 141zM702 450q13 0 24 -4t16 -8l4 -3l-19 -41q-10 15 -33 15q-52 0 -71 -109l-37 -209h-53l55 316h-36l7 39h52l19 -41q28 45 72 45z
" />
    <glyph glyph-name="cw.by" unicode="cw&#x2e;by" horiz-adv-x="570" 
d="M216 450q39 0 57 -45t5 -119l-7 -43q-13 -72 -44 -114.5t-79 -42.5q-49 0 -69.5 40.5t-7.5 116.5l56 315h-41l6 39h95l-31 -176q20 29 60 29zM222 268q12 66 5 103.5t-30 37.5q-47 0 -71 -141q-12 -66 -6.5 -103.5t27.5 -37.5q23 0 43 37.5t32 103.5zM474 473
q40 0 58 -25.5t10 -69.5l-54 -309q-24 -136 -106 -136q-39 0 -59 34t-10 90h41q-6 -35 1.5 -58.5t26.5 -23.5q37 0 53 95l12 66q-16 -30 -58 -30q-38 0 -56.5 37.5t-6.5 102.5l28 160h-41l7 39h94l-7 -39l-22 -128q-23 -131 20 -131q44 0 67 131l20 118q8 36 -25 36z" />
    <glyph glyph-name="cw.and" unicode="cw&#x2e;and" horiz-adv-x="911" 
d="M258 163q-3 -17 8.5 -26.5t32.5 -9.5l-7 -41q-28 0 -45.5 11.5t-20.5 22.5l-4 12q-3 -5 -8.5 -12.5t-25 -20.5t-41.5 -13q-39 0 -63.5 32t-15.5 83q10 55 54.5 90t111.5 35q6 38 -7 60.5t-40 22.5q-16 0 -30 -6.5t-20 -13.5l-6 -7l-15 32q31 36 78 36t75.5 -32t17.5 -94z
M215 221l13 71q-38 0 -69 -26t-38 -63q-5 -29 5 -49.5t32 -20.5q41 0 57 88zM774 163q-3 -17 9 -26.5t32 -9.5l-7 -41q-30 0 -48.5 11.5t-21.5 22.5l-4 12q-3 -5 -8 -12.5t-23 -20.5t-38 -13q-39 0 -57.5 43.5t-6.5 116.5l8 43q14 81 43 121t64 40q16 0 28.5 -8.5
t17.5 -17.5l4 -8l25 142h-53l7 39h106zM742 268q25 141 -16 141q-20 0 -38 -39t-30 -102q-11 -61 -6.5 -101t24.5 -40t37.5 39t28.5 102zM528 162q-3 -18 9.5 -26.5t31.5 -8.5l-7 -41q-101 0 -83 100l24 134q7 43 0 66t-25 23t-33 -23.5t-22 -65.5l-41 -230h-53l56 316h-37
l7 39h52l18 -38q25 43 66 43q38 0 56.5 -36.5t6.5 -104.5z" />
    <glyph glyph-name="cw.with" unicode="cw&#x2e;with" horiz-adv-x="1077" 
d="M513 498l9 52h59l-9 -52h-59zM734 550l-18 -100h68l-7 -41h-68l-35 -198q-7 -39 2.5 -61.5t31.5 -22.5q11 0 21.5 5.5t16.5 11.5l5 5l14 -29q-2 -4 -6.5 -10t-22 -15.5t-39.5 -9.5q-40 0 -62.5 36t-12.5 93l34 195h-55l7 41q34 0 51 20t25 67zM458 406l7 39h95l-50 -283
q-3 -15 9.5 -25t31.5 -10l-7 -42q-46 0 -69 26t-15 73l40 222h-42zM345 473q84 0 69 -93l-27 -152q-25 -143 -104 -143q-23 0 -39 12.5t-20 24.5l-5 12q-1 -2 -2.5 -5.5t-8 -11.5t-14.5 -14.5t-22.5 -12t-31.5 -5.5q-41 0 -58.5 41.5t-6.5 101.5l31 178h-41l7 39h94
l-33 -187q-23 -131 14 -131t60 131l33 187h53l-33 -187q-23 -131 17 -131q39 0 62 131l25 138q7 36 -26 36zM986 162q-3 -18 9.5 -26.5t31.5 -8.5l-8 -42q-100 0 -82 101l23 134q7 43 0.5 66t-24.5 23t-33.5 -23.5t-22.5 -65.5l-40 -230h-53l82 468h-41l7 40h94l-30 -170
q22 22 50 22q37 0 55.5 -36.5t7.5 -103.5z" />
    <glyph glyph-name="cw.in" unicode="cw&#x2e;in" horiz-adv-x="462" 
d="M120 498l9 52h60l-10 -52h-59zM167 446l-50 -283q-2 -15 10.5 -25.5t31.5 -10.5l-8 -41q-46 0 -68.5 26t-14.5 72l39 222h-41l7 40h94zM396 163q-3 -19 9 -27.5t32 -8.5l-8 -41q-100 0 -82 100l23 134q7 43 0.5 66t-24.5 23q-39 0 -55 -89l-41 -230h-53l55 316h-36l7 40
h52l18 -38q25 42 66 42q37 0 55.5 -36.5t7.5 -103.5z" />
    <glyph glyph-name=".notdef" horiz-adv-x="506" 
d="M60 683h386v-689h-386v689zM342 633h-178l89 -225zM125 593v-509l100 254zM164 43h178l-89 226zM381 84v509l-101 -255z" />
    <glyph glyph-name=".null" horiz-adv-x="0" 
 />
    <glyph glyph-name="nonmarkingreturn" horiz-adv-x="333" 
 />
    <glyph glyph-name="NULL" horiz-adv-x="200" 
 />
    <glyph glyph-name="CR" unicode="&#xd;" horiz-adv-x="200" 
 />
    <glyph glyph-name="space" unicode=" " horiz-adv-x="200" 
 />
    <glyph glyph-name="exclam" unicode="!" horiz-adv-x="204" 
d="M75 0v74h74v-74h-74zM75 677h74v-117l-17 -362h-40l-17 362v117z" />
    <glyph glyph-name="quotedbl" unicode="&#x22;" horiz-adv-x="206" 
d="M52 474l-27 203h66l-27 -203h-12zM115 677h66l-27 -203h-11z" />
    <glyph glyph-name="numbersign" unicode="#" horiz-adv-x="499" 
d="M439 412h-95l-17 -153h92v-50h-97l-23 -209h-55l23 209h-65l-23 -209h-55l23 209h-87v50h92l17 153h-99v50h104l23 209h55l-22 -209h64l23 209h55l-22 -209h89v-50zM272 259l17 153h-65l-17 -153h65z" />
    <glyph glyph-name="dollar" unicode="$" horiz-adv-x="372" 
d="M141 478q0 -27 17.5 -56.5t42.5 -56.5l50.5 -55t43 -60.5t17.5 -63.5q0 -43 -26 -72.5t-70 -38.5v-81h-48v78q-32 2 -59 13t-38 21l-11 10l21 45q39 -36 96 -36q67 0 67 61q0 30 -27 69t-59 71t-59 75.5t-27 83.5t24.5 69t63.5 40v83h48v-78q30 -1 54 -11t33 -20l9 -9
l-20 -44q-26 31 -75 31q-33 0 -50.5 -19t-17.5 -49z" />
    <glyph glyph-name="percent" unicode="%" horiz-adv-x="635" 
d="M285 503q0 -83 -31.5 -131.5t-81.5 -48.5t-81 48.5t-31 131.5q0 84 31 132t81 48q51 0 82 -48t31 -132zM115 503q0 -58 15.5 -93.5t41.5 -35.5q27 0 42.5 35.5t15.5 93.5q0 59 -15.5 94t-42.5 35q-26 0 -41.5 -35t-15.5 -94zM463 353q50 0 81 -48t31 -131q0 -84 -31 -132
t-81 -48t-81 48t-31 132q0 83 31 131t81 48zM463 45q27 0 42 35t15 94q0 58 -15 93t-42 35q-26 0 -41.5 -35t-15.5 -93q0 -59 15.5 -94t41.5 -35zM401 677h58l-233 -677h-58z" />
    <glyph glyph-name="ampersand" unicode="&#x26;" horiz-adv-x="506" 
d="M372 148l74 -94l-35 -51l-62 77q-41 -86 -132 -86q-68 0 -112.5 49t-44.5 125q0 102 94 182q-53 99 -53 177q0 77 33 116.5t87 39.5t87 -39.5t33 -116.5q0 -54 -35.5 -105t-73.5 -80q31 -53 95 -137q6 48 6 130h55q0 -118 -16 -187zM221 628q-22 0 -35.5 -27.5
t-13.5 -73.5q0 -66 36 -140q63 60 63 140q0 46 -13.5 73.5t-36.5 27.5zM222 49q62 0 89 79q-82 100 -128 172q-52 -54 -52 -126q0 -55 25 -90t66 -35z" />
    <glyph glyph-name="quotesingle" unicode="'" horiz-adv-x="116" 
d="M25 677h66l-27 -203h-12z" />
    <glyph glyph-name="parenleft" unicode="(" horiz-adv-x="298" 
d="M233 628q-4 -7 -10.5 -20t-23 -54t-29.5 -84.5t-23.5 -107t-10.5 -125.5t10 -124.5t24 -108.5t28.5 -83t24.5 -56l10 -19l-26 -55q-6 7 -15.5 20t-34 57t-43 92.5t-34 123.5t-15.5 153t14.5 152t35.5 125t42 91t35 59l15 19z" />
    <glyph glyph-name="parenright" unicode=")" horiz-adv-x="298" 
d="M91 683q6 -7 15.5 -20t34 -57t43 -92.5t34 -123.5t15.5 -153t-14.5 -152t-35.5 -125t-42 -91t-35 -59l-15 -19l-26 55q4 7 10.5 20t23 54t29.5 84.5t23.5 107t10.5 125.5t-10 124.5t-24 108.5t-28.5 83t-24.5 56l-10 19z" />
    <glyph glyph-name="asterisk" unicode="*" horiz-adv-x="312" 
d="M267 611l-85 -53l85 -53l-14 -23l-83 51v-94h-28v94l-83 -51l-14 23l85 53l-85 53l14 24l83 -52v94h28v-94l83 52z" />
    <glyph glyph-name="plus" unicode="+" horiz-adv-x="358" 
d="M206 267h92v-55h-92v-91h-55v91h-91v55h91v92h55v-92z" />
    <glyph glyph-name="comma" unicode="," horiz-adv-x="184" 
d="M65 113h74l-62 -148h-52z" />
    <glyph glyph-name="hyphen" unicode="-" horiz-adv-x="360" 
d="M60 267h240v-55h-240v55z" />
    <glyph glyph-name="period" unicode="." horiz-adv-x="164" 
d="M45 74h74v-74h-74v74z" />
    <glyph glyph-name="slash" unicode="/" horiz-adv-x="328" 
d="M211 683h57l-152 -689h-56z" />
    <glyph glyph-name="zero" unicode="0" horiz-adv-x="391" 
d="M196 486q72 0 111 -63.5t39 -182.5t-39 -182.5t-111 -63.5q-73 0 -112 63.5t-39 182.5t39 182.5t112 63.5zM196 49q36 0 57.5 51.5t21.5 139.5t-21.5 139.5t-57.5 51.5q-37 0 -58.5 -51.5t-21.5 -139.5t21.5 -139.5t58.5 -51.5z" />
    <glyph glyph-name="one" unicode="1" horiz-adv-x="220" 
d="M45 453l130 33v-486h-71v412l-59 -15v56z" />
    <glyph glyph-name="two" unicode="2" horiz-adv-x="302" 
d="M257 351q0 -72 -38 -143t-107 -153h145v-55h-186l-26 55q141 182 141 296q0 33 -16 56.5t-44 23.5q-16 0 -30.5 -7.5t-21.5 -15.5l-6 -8l-21 45q3 5 10 11.5t31 18t51 11.5q49 0 83.5 -38.5t34.5 -96.5z" />
    <glyph glyph-name="three" unicode="3" horiz-adv-x="334" 
d="M203 211q3 -2 9 -6.5t21 -19t26 -31t20.5 -42t9.5 -51.5q0 -47 -22.5 -92t-55 -76t-65 -55t-54.5 -36l-23 -11l-24 52q7 3 18.5 9t41.5 27t53 46t41.5 65.5t18.5 84.5q0 46 -25.5 82t-52.5 26l-40 -14l-20 43q73 26 99.5 59.5t26.5 79.5q0 33 -17 56.5t-51 23.5
q-19 0 -36.5 -7.5t-25.5 -15.5l-9 -8l-21 45q4 5 12 11.5t34.5 18t54.5 11.5q56 0 93 -38t37 -95q0 -28 -7.5 -53t-18.5 -40.5t-22 -27t-19 -16.5z" />
    <glyph glyph-name="four" unicode="4" horiz-adv-x="410" 
d="M294 140h71v-55h-71v-288h-70v288h-153l-26 55l211 340h38v-340zM224 140v193l-117 -193h117z" />
    <glyph glyph-name="five" unicode="5" horiz-adv-x="354" 
d="M182 239q55 0 91 -39.5t36 -102.5q0 -36 -13 -72.5t-34.5 -66t-47 -56.5t-51 -47t-47 -34.5t-34.5 -22.5l-13 -7l-24 52l21 13.5t46 35.5t58.5 55t46.5 69.5t21 80.5t-18.5 63t-49.5 24q-20 0 -38.5 -8t-27.5 -16l-8 -8l-32 32l16 296h190v-55h-120l-11 -196q20 10 43 10
z" />
    <glyph glyph-name="six" unicode="6" horiz-adv-x="386" 
d="M203 413q62 0 100 -55t38 -155q0 -92 -38.5 -150.5t-104.5 -58.5q-74 0 -113.5 65.5t-39.5 186.5q0 70 11 132t29 105.5t39.5 80t42.5 59t39 38t29 21.5l11 7l25 -55q-5 -3 -13 -9t-30.5 -28.5t-42 -51t-40 -78t-31.5 -106.5q30 52 89 52zM198 49q33 0 52.5 43.5
t19.5 110.5t-20 111t-52 44t-51.5 -44t-19.5 -111t19.5 -110.5t51.5 -43.5z" />
    <glyph glyph-name="seven" unicode="7" horiz-adv-x="372" 
d="M327 480v-59q-7 -11 -18 -31.5t-39 -86.5t-50 -135t-39.5 -171t-17.5 -200h-71q0 104 17.5 207t42 175t49.5 129t43 85l17 28h-216v59h282z" />
    <glyph glyph-name="eight" unicode="8" horiz-adv-x="392" 
d="M273 355q74 -52 74 -171q0 -93 -42 -141.5t-109 -48.5t-109 48.5t-42 141.5q0 119 74 171q-63 47 -63 148q0 81 39 127.5t101 46.5t101 -46.5t39 -127.5q0 -101 -63 -148zM196 622q-31 0 -50 -34.5t-19 -89.5q0 -53 20 -84.5t49 -31.5t49 31.5t20 84.5q0 55 -19 89.5
t-50 34.5zM196 49q37 0 58.5 38.5t21.5 100.5t-21.5 100.5t-58.5 38.5t-58.5 -38.5t-21.5 -100.5t21.5 -100.5t58.5 -38.5z" />
    <glyph glyph-name="nine" unicode="9" horiz-adv-x="386" 
d="M187 486q74 0 114 -65.5t40 -186.5q0 -70 -11 -132t-29 -105.5t-39.5 -80t-42.5 -59t-39 -38t-29 -21.5l-11 -7l-26 55q5 3 13 9t31 28.5t42 51t40 77.5t32 106q-31 -51 -89 -51q-63 0 -100.5 54.5t-37.5 155.5q0 93 38 151t104 58zM187 122q32 0 52 44t20 111
t-19.5 110.5t-52.5 43.5q-32 0 -51.5 -43.5t-19.5 -110.5t19.5 -111t51.5 -44z" />
    <glyph glyph-name="colon" unicode=":" horiz-adv-x="194" 
d="M60 0v74h74v-74h-74zM60 480h74v-75h-74v75z" />
    <glyph glyph-name="semicolon" unicode=";" horiz-adv-x="184" 
d="M25 -35l40 148h74l-62 -148h-52zM65 480h74v-75h-74v75z" />
    <glyph glyph-name="less" unicode="&#x3c;" horiz-adv-x="329" 
d="M279 393l-158 -152l158 -151l-25 -53l-204 204l204 205z" />
    <glyph glyph-name="equal" unicode="=" horiz-adv-x="385" 
d="M85 119v55h240v-55h-240zM85 277h240v-54h-240v54z" />
    <glyph glyph-name="greater" unicode="&#x3e;" horiz-adv-x="329" 
d="M75 446l204 -205l-204 -204l-25 53l158 151l-158 152z" />
    <glyph glyph-name="question" unicode="?" horiz-adv-x="324" 
d="M169 247q16 0 29.5 6.5t19.5 12.5l5 6l18 -39q-3 -5 -9.5 -11.5t-28.5 -18t-46 -11.5q-44 0 -73 29.5t-29 72.5q0 35 23 74.5t50.5 68.5t50.5 63t23 60q0 29 -16.5 48.5t-44.5 19.5q-19 0 -35.5 -7.5t-23.5 -14.5l-7 -8l-20 42q4 5 11.5 12t31.5 19t49 12q54 0 88 -33
t34 -90q0 -32 -23 -69t-50.5 -65t-50.5 -63.5t-23 -65.5q0 -22 13.5 -36t33.5 -14zM106 0v74h75v-74h-75z" />
    <glyph glyph-name="at" unicode="@" horiz-adv-x="819" 
d="M470 597q94 0 165.5 -49t102.5 -128t16 -167q-34 -194 -169 -194q-42 0 -73.5 17.5t-41.5 34.5l-11 17q-1 -3 -3.5 -7.5t-11.5 -16.5t-19 -21t-26 -16.5t-34 -7.5q-53 0 -77.5 51.5t-8.5 142.5q17 97 58.5 145.5t98.5 48.5q30 0 51.5 -17.5t28.5 -34.5l7 -17l-30 -169
q-11 -58 18 -87t81 -29q46 0 74 39.5t43 120.5q22 125 -48.5 215.5t-198.5 90.5q-127 0 -228 -89t-124 -217q-22 -123 51.5 -214.5t193.5 -91.5q33 0 71.5 7t60.5 14l22 7l16 -35q-78 -32 -177 -32q-61 0 -118 27t-97.5 72.5t-60 110.5t-7.5 135q26 151 140.5 247.5
t264.5 96.5zM454 356q0 5 -0.5 11.5t-7 18t-18.5 11.5q-25 0 -49 -40t-35 -104q-12 -72 -6.5 -108t26.5 -36t40.5 37t31.5 107z" />
    <glyph glyph-name="A" unicode="A" horiz-adv-x="451" 
d="M245 677l151 -677h-76l-37 179h-119l-37 -179h-72l151 677h3h33h3zM175 234h97l-48 235z" />
    <glyph glyph-name="B" unicode="B" horiz-adv-x="387" 
d="M243 362q4 -2 10 -6t21 -18.5t27 -32t21.5 -48t9.5 -64.5q0 -93 -38 -143t-110 -50h-129v677h106q148 0 148 -178q0 -27 -7 -50.5t-16.5 -39t-19 -26.5t-16.5 -16zM129 619v-235h37q35 0 52 33t17 85t-17 84.5t-52 32.5h-37zM184 58q34 0 54 38t20 95q0 56 -20.5 95.5
t-53.5 39.5h-55v-268h55z" />
    <glyph glyph-name="C" unicode="C" horiz-adv-x="379" 
d="M327 95l22 -47q-1 -2 -3.5 -5.5t-12 -13t-20.5 -16.5t-31 -13t-42 -6q-80 0 -132.5 81t-52.5 235v57q0 154 50.5 235t126.5 81q35 0 63.5 -14.5t39.5 -29.5l11 -15l-22 -47q-3 5 -9 13t-27 21.5t-44 13.5q-57 0 -86 -77.5t-29 -209.5q0 -127 31 -207t89 -80q24 0 43.5 11
t27.5 22z" />
    <glyph glyph-name="D" unicode="D" horiz-adv-x="387" 
d="M169 677q163 0 163 -310v-57q0 -164 -42 -237t-122 -73h-113v677h114zM168 58q90 0 90 280q0 140 -23.5 210.5t-65.5 70.5h-40v-561h39z" />
    <glyph glyph-name="E" unicode="E" horiz-adv-x="336" 
d="M281 619h-152v-213h115v-58h-115v-290h152v-58h-226v677h226v-58z" />
    <glyph glyph-name="F" unicode="F" horiz-adv-x="336" 
d="M281 619h-152v-235h122v-57h-122v-327h-74v677h226v-58z" />
    <glyph glyph-name="G" unicode="G" horiz-adv-x="390" 
d="M206 410h129v-294q-1 -5 -3 -13t-11.5 -29t-22 -37.5t-35.5 -29.5t-50 -13q-72 0 -115 78.5t-43 237.5v57q0 157 47 236.5t125 79.5q28 0 51.5 -11.5t33.5 -23.5l9 -11l-21 -45q-20 33 -65 33q-52 0 -79 -79t-27 -208q0 -287 85 -287q20 0 33 17.5t17 34.5l3 17v232h-61
v58z" />
    <glyph glyph-name="H" unicode="H" horiz-adv-x="383" 
d="M253 677h75v-677h-75v316h-124v-316h-74v677h74v-304h124v304z" />
    <glyph glyph-name="I" unicode="I" horiz-adv-x="184" 
d="M55 677h74v-677h-74v677z" />
    <glyph glyph-name="J" unicode="J" horiz-adv-x="364" 
d="M234 677h75v-477q0 -206 -141 -206q-32 0 -60.5 11t-40.5 23l-12 11l23 50q33 -38 84 -38q38 0 55 36.5t17 112.5v477z" />
    <glyph glyph-name="K" unicode="K" horiz-adv-x="403" 
d="M212 442l136 -442h-78l-109 351l-32 -57v-294h-74v677h74v-245l137 245h77z" />
    <glyph glyph-name="L" unicode="L" horiz-adv-x="334" 
d="M129 58h150v-58h-224v677h74v-619z" />
    <glyph glyph-name="M" unicode="M" horiz-adv-x="551" 
d="M451 677l45 -677h-74l-30 475l-88 -481h-60l-87 477l-30 -471h-72l45 677h77l101 -419l98 419h75z" />
    <glyph glyph-name="N" unicode="N" horiz-adv-x="400" 
d="M273 677h72v-683h-72l-146 448v-442h-72v677h72l146 -449v449z" />
    <glyph glyph-name="O" unicode="O" horiz-adv-x="416" 
d="M208 683q153 0 153 -316v-57q0 -316 -153 -316t-153 316v57q0 316 153 316zM208 51q37 0 57.5 76t20.5 211t-20.5 211t-57.5 76t-58 -76t-21 -211q0 -134 21 -210.5t58 -76.5z" />
    <glyph glyph-name="P" unicode="P" horiz-adv-x="381" 
d="M168 677q72 0 115 -45t43 -135t-43 -135.5t-115 -45.5h-39v-316h-74v677h74h39zM173 374q35 0 57 33.5t22 89.5q0 55 -22 88.5t-57 33.5h-44v-245h44z" />
    <glyph glyph-name="Q" unicode="Q" horiz-adv-x="416" 
d="M361 310q0 -268 -112 -309q11 -41 49 -41h5v-57h-5q-106 0 -124 95q-119 34 -119 312v57q0 316 153 316t153 -316v-57zM208 51q37 0 57.5 76t20.5 211t-20.5 211t-57.5 76t-58 -76t-21 -211q0 -134 21 -210.5t58 -76.5z" />
    <glyph glyph-name="R" unicode="R" horiz-adv-x="380" 
d="M221 335l104 -335h-73l-101 327h-22v-327h-74v677h108q75 0 116.5 -44t41.5 -131q0 -137 -100 -167zM169 384q36 0 56.5 31t20.5 87t-20.5 86.5t-56.5 30.5h-40v-235h40z" />
    <glyph glyph-name="S" unicode="S" horiz-adv-x="399" 
d="M134 536q0 -38 33 -93t72 -102.5t72 -106t33 -103.5q0 -61 -41 -102t-109 -41q-41 0 -75.5 15t-48.5 30l-15 15l23 50q5 -6 14 -15t38 -23.5t59 -14.5q80 0 80 91q0 40 -32.5 95.5t-72 102.5t-72 103.5t-32.5 99.5q0 62 39.5 101t105.5 39q34 0 63.5 -13.5t41.5 -27.5
l13 -13l-21 -45q-39 41 -92 41q-35 0 -55.5 -23.5t-20.5 -59.5z" />
    <glyph glyph-name="T" unicode="T" horiz-adv-x="409" 
d="M55 677h299v-58h-112v-619h-75v619h-112v58z" />
    <glyph glyph-name="U" unicode="U" horiz-adv-x="381" 
d="M252 677h74v-465q0 -218 -135 -218q-136 0 -136 218v465h74v-456q0 -91 15 -130.5t47 -39.5t46.5 39t14.5 131v456z" />
    <glyph glyph-name="V" unicode="V" horiz-adv-x="463" 
d="M336 677h72l-157 -677h-39l-157 677h76l103 -478z" />
    <glyph glyph-name="W" unicode="W" horiz-adv-x="600" 
d="M473 677h72l-123 -677h-39l-83 462l-83 -462h-39l-123 677h76l68 -442l69 442h68l69 -442z" />
    <glyph glyph-name="X" unicode="X" horiz-adv-x="445" 
d="M256 356l134 -356h-79l-92 243l-87 -243h-77l131 346l-125 331h79l82 -218l78 218h77z" />
    <glyph glyph-name="Y" unicode="Y" horiz-adv-x="437" 
d="M304 677h78l-127 -335v-342h-75v345l-125 332h80l85 -237z" />
    <glyph glyph-name="Z" unicode="Z" horiz-adv-x="362" 
d="M58 677h249v-64l-177 -555h177v-58h-252v63l177 556h-174v58z" />
    <glyph glyph-name="bracketleft" unicode="[" horiz-adv-x="308" 
d="M248 622h-117v-770h117v-55h-188v880h188v-55z" />
    <glyph glyph-name="backslash" unicode="\" horiz-adv-x="328" 
d="M116 683l152 -689h-57l-151 689h56z" />
    <glyph glyph-name="bracketright" unicode="]" horiz-adv-x="308" 
d="M60 677h188v-880h-188v55h117v770h-117v55z" />
    <glyph glyph-name="asciicircum" unicode="^" horiz-adv-x="282" 
d="M165 621l82 -93h-52l-54 64l-53 -64h-53l82 93h48z" />
    <glyph glyph-name="underscore" unicode="_" horiz-adv-x="398" 
d="M55 49h288v-55h-288v55z" />
    <glyph glyph-name="grave" unicode="`" horiz-adv-x="187" 
d="M103 621l49 -93h-49l-68 93h68z" />
    <glyph glyph-name="a" unicode="a" horiz-adv-x="337" 
d="M237 474h55v-474h-53l-18 44q-1 -2 -2 -5.5t-7 -12t-13 -15t-20.5 -12t-28.5 -5.5q-105 0 -105 210v58q0 107 27.5 162.5t77.5 55.5q23 0 41 -12.5t24 -25.5l6 -12zM227 216v34q0 73 -14.5 124t-40.5 51t-41 -51.5t-15 -123.5v-34q0 -71 14.5 -119t41.5 -48
q26 0 40.5 47.5t14.5 119.5z" />
    <glyph glyph-name="b" unicode="b" horiz-adv-x="337" 
d="M187 480q105 0 105 -218v-58q0 -210 -105 -210q-22 0 -40 12.5t-25 25.5l-6 12l-18 -44h-53v701l71 18v-289q2 6 6.5 14t23 22t41.5 14zM221 216v34q0 73 -14.5 124t-40.5 51q-27 0 -41.5 -51t-14.5 -124v-34q0 -72 14.5 -119.5t41.5 -47.5q26 0 40.5 47.5t14.5 119.5z
" />
    <glyph glyph-name="c" unicode="c" horiz-adv-x="328" 
d="M202 49q17 0 32 8t22 16l6 8l21 -45q-3 -5 -9 -12t-28.5 -18.5t-50.5 -11.5q-68 0 -109 57t-41 153v58q0 97 39.5 157.5t106.5 60.5q29 0 52 -12.5t31 -25.5l9 -12l-21 -45q-26 40 -66 40q-38 0 -59 -55t-21 -133q0 -84 22.5 -136t63.5 -52z" />
    <glyph glyph-name="d" unicode="d" horiz-adv-x="337" 
d="M221 701l71 18v-719h-53l-18 44q-1 -2 -2.5 -5.5t-8 -12t-14.5 -15t-21.5 -12t-28.5 -5.5q-101 0 -101 210v58q0 218 101 218q23 0 41.5 -12.5t26.5 -25.5l7 -12v271zM227 216v34q0 73 -14.5 124t-40.5 51t-41 -51.5t-15 -123.5v-34q0 -71 14.5 -119t41.5 -48
q26 0 40.5 47.5t14.5 119.5z" />
    <glyph glyph-name="e" unicode="e" horiz-adv-x="329" 
d="M284 262v-36h-168q0 -177 76 -177q20 0 37.5 11.5t24.5 23.5l8 11l21 -46q-3 -6 -9 -15t-31.5 -24.5t-58.5 -15.5q-64 0 -101.5 53.5t-37.5 156.5v58q0 105 32 161.5t92 56.5q115 0 115 -218zM116 273h105q0 70 -13.5 111t-38.5 41t-39 -41t-14 -111z" />
    <glyph glyph-name="f" unicode="f" horiz-adv-x="338" 
d="M172 516v-36h104v-55h-104v-425h-71v425h-56v55h56v36q0 82 31.5 124.5t83.5 42.5q22 0 41 -8.5t27 -16.5l9 -8l-20 -44q-21 22 -48 22q-53 0 -53 -112z" />
    <glyph glyph-name="g" unicode="g" horiz-adv-x="337" 
d="M237 474h55v-502q0 -181 -117 -181q-53 0 -81.5 35.5t-28.5 105.5h46q0 -38 14.5 -62t40.5 -24q55 0 55 126v72q-1 -2 -2.5 -5.5t-7.5 -12t-13.5 -15t-21 -12t-28.5 -5.5q-49 0 -76 52.5t-27 157.5v58q0 218 103 218q23 0 41.5 -12.5t24.5 -25.5l7 -12zM227 216v34
q0 79 -14 127t-41 48t-41.5 -48.5t-14.5 -126.5v-34q0 -77 14.5 -122t41.5 -45q55 0 55 167z" />
    <glyph glyph-name="h" unicode="h" horiz-adv-x="337" 
d="M190 480q45 0 73.5 -48t28.5 -139v-293h-71v267q0 158 -52 158q-53 0 -53 -158v-267h-71v701l71 18v-281q26 42 74 42z" />
    <glyph glyph-name="i" unicode="i" horiz-adv-x="168" 
d="M49 0v474h71v-474h-71zM45 614h78v-71h-78v71z" />
    <glyph glyph-name="j" unicode="j" horiz-adv-x="256" 
d="M132 614h79v-71h-79v71zM136 -47v521h71v-502q0 -94 -39.5 -137.5t-122.5 -43.5v55q91 0 91 107z" />
    <glyph glyph-name="k" unicode="k" horiz-adv-x="337" 
d="M194 317l98 -317h-69l-72 241l-35 -62v-179h-71v701l71 18v-420l93 175h74z" />
    <glyph glyph-name="l" unicode="l" horiz-adv-x="166" 
d="M45 701l71 18v-719h-71v701z" />
    <glyph glyph-name="m" unicode="m" horiz-adv-x="513" 
d="M362 480q106 0 106 -187v-293h-70v282q0 143 -53 143q-50 0 -53 -127v-298h-71v282q0 143 -52 143q-53 0 -53 -143v-282h-71v474h55l14 -39q24 45 72 45q64 0 90 -73q24 73 86 73z" />
    <glyph glyph-name="n" unicode="n" horiz-adv-x="337" 
d="M186 480q106 0 106 -187v-293h-71v282q0 143 -52 143q-53 0 -53 -143v-282h-71v474h55l14 -39q24 45 72 45z" />
    <glyph glyph-name="o" unicode="o" horiz-adv-x="349" 
d="M175 480q62 0 95.5 -57.5t33.5 -160.5v-58q0 -102 -33.5 -156t-95.5 -54q-63 0 -96.5 53.5t-33.5 156.5v58q0 103 33.5 160.5t96.5 57.5zM175 49q29 0 44 53t15 135t-15 135t-44 53t-44 -52.5t-15 -135.5t15 -135.5t44 -52.5z" />
    <glyph glyph-name="p" unicode="p" horiz-adv-x="337" 
d="M186 480q106 0 106 -218v-58q0 -210 -106 -210q-21 0 -38.5 12.5t-24.5 25.5l-7 12v-247h-71v677h55l16 -44q3 6 8 14t23 22t39 14zM221 216v34q0 73 -14.5 124t-40.5 51q-27 0 -41.5 -51t-14.5 -124v-34q0 -72 14.5 -119.5t41.5 -47.5q26 0 40.5 47.5t14.5 119.5z" />
    <glyph glyph-name="q" unicode="q" horiz-adv-x="337" 
d="M237 474h55v-677h-71v247q-3 -6 -8 -14t-23 -22t-39 -14q-106 0 -106 210v58q0 218 106 218q21 0 38.5 -12.5t24.5 -25.5l7 -12zM227 216v34q0 73 -14.5 124t-40.5 51t-41 -51.5t-15 -123.5v-34q0 -71 14.5 -119t41.5 -48q26 0 40.5 47.5t14.5 119.5z" />
    <glyph glyph-name="r" unicode="r" horiz-adv-x="308" 
d="M196 480q19 0 36 -5t24 -11l7 -5l-26 -54q-19 20 -50 20q-33 0 -52 -40.5t-19 -117.5v-267h-71v474h55l15 -41q29 47 81 47z" />
    <glyph glyph-name="s" unicode="s" horiz-adv-x="319" 
d="M119 371q0 -22 16 -47t38.5 -48.5l45.5 -48.5t39 -56.5t16 -63.5q0 -50 -32.5 -81.5t-85.5 -31.5q-30 0 -58 13t-40 25l-13 13l21 45q36 -41 85 -41q55 0 55 63q0 29 -24 62.5t-53.5 60.5t-53.5 65.5t-24 76.5q0 45 32 74t82 29q26 0 48.5 -11.5t32.5 -22.5l9 -12
l-19 -42q-25 33 -66 33q-24 0 -37.5 -15.5t-13.5 -38.5z" />
    <glyph glyph-name="t" unicode="t" horiz-adv-x="330" 
d="M200 480h85v-55h-85v-425h-71v425h-84v55h84v221l71 18v-239z" />
    <glyph glyph-name="u" unicode="u" horiz-adv-x="332" 
d="M216 474h71v-474h-55l-14 39q-24 -45 -72 -45q-106 0 -106 187v293h71v-282q0 -143 53 -143q52 0 52 143v282z" />
    <glyph glyph-name="v" unicode="v" horiz-adv-x="373" 
d="M258 474h70l-123 -474h-37l-123 474h73l72 -292z" />
    <glyph glyph-name="w" unicode="w" horiz-adv-x="478" 
d="M366 474h67l-107 -474h-42l-46 277l-46 -277h-42l-105 474h73l53 -273l51 273h40l49 -273z" />
    <glyph glyph-name="x" unicode="x" horiz-adv-x="377" 
d="M224 253l108 -253h-69l-73 171l-80 -171h-65l114 243l-98 231h69l63 -149l70 149h65z" />
    <glyph glyph-name="y" unicode="y" horiz-adv-x="372" 
d="M256 474h71l-208 -677h-71l103 334l-106 343h74l70 -247z" />
    <glyph glyph-name="z" unicode="z" horiz-adv-x="301" 
d="M256 474v-55l-138 -364h138v-55h-211v55l139 364h-131v55h203z" />
    <glyph glyph-name="braceleft" unicode="{" horiz-adv-x="376" 
d="M240 -152q17 0 31 7t20 15l6 7l19 -41q-3 -5 -9 -12.5t-28.5 -20t-50.5 -12.5q-58 0 -91 39t-33 105q0 54 16 116.5t16 86.5q0 28 -15 49.5t-40 21.5h-21v55h21q25 0 40 22t15 49q0 25 -16 87.5t-16 116.5q0 66 33 105t91 39q28 0 50 -11.5t30 -22.5l8 -11l-19 -41
q-19 28 -57 28q-65 0 -65 -98q0 -53 16 -121.5t16 -99.5q0 -24 -11.5 -41t-23.5 -23l-11 -5q2 -1 5 -2t11 -7t14 -13t11 -19.5t5 -27.5q0 -31 -16 -99.5t-16 -121.5q0 -99 65 -99z" />
    <glyph glyph-name="bar" unicode="|" horiz-adv-x="181" 
d="M55 677h71v-880h-71v880z" />
    <glyph glyph-name="braceright" unicode="}" horiz-adv-x="376" 
d="M295 264h21v-55h-21q-25 0 -40.5 -21.5t-15.5 -49.5q0 -24 16 -86.5t16 -116.5q0 -66 -33 -105t-90 -39q-28 0 -50 11.5t-30 22.5l-8 11l19 41q19 -29 57 -29q31 0 48 25.5t17 73.5q0 53 -16 121.5t-16 99.5q0 24 11.5 41t23.5 23l11 5q-2 1 -5 2t-11 7t-14 13t-11 19.5
t-5 27.5q0 31 16 99.5t16 121.5q0 98 -65 98q-17 0 -31 -7t-20 -14l-6 -7l-19 41q3 5 9 12.5t28.5 20t50.5 12.5q57 0 90 -39t33 -105q0 -54 -16 -116.5t-16 -87.5q0 -27 15.5 -49t40.5 -22z" />
    <glyph glyph-name="asciitilde" unicode="~" horiz-adv-x="238" 
d="M167 603h36q0 -23 -13 -39t-40 -16q-17 0 -39 10t-31.5 10t-9.5 -20h-35q0 23 12.5 39t39.5 16q12 0 25 -4t22 -8.5t17 -6.5t12 2t4 17z" />
    <glyph glyph-name="uni00A0" unicode="&#xa0;" horiz-adv-x="200" 
 />
    <glyph glyph-name="exclamdown" unicode="&#xa1;" horiz-adv-x="204" 
d="M55 474h74v-75h-74v75zM72 275h40l17 -361v-117h-74v117z" />
    <glyph glyph-name="cent" unicode="&#xa2;" horiz-adv-x="370" 
d="M226 167q17 0 32.5 6.5t22.5 12.5l7 7l20 -43q-3 -4 -8.5 -10t-27.5 -16t-50 -11v-77h-48v85q-51 19 -82.5 80t-31.5 155t31.5 155t82.5 80v86h48v-78q25 -1 47 -11.5t31 -21.5l10 -10l-21 -43q-25 33 -65 33q-44 0 -69.5 -52.5t-25.5 -137.5q0 -84 26.5 -136.5
t70.5 -52.5z" />
    <glyph glyph-name="sterling" unicode="&#xa3;" horiz-adv-x="420" 
d="M279 48q19 0 39.5 7.5t31.5 14.5l10 8v-54q-38 -30 -81 -30q-21 0 -52.5 15t-53.5 15q-20 0 -53 -12t-60 -12v54q42 0 65.5 42t23.5 151q0 46 -12 99h-68v49h54l-12 37.5t-13 42.5t-7 32t-4 38q0 63 40 100.5t101 37.5q33 0 61.5 -13t40.5 -26l13 -13l-19 -40
q-35 38 -87 38q-35 0 -58.5 -22.5t-23.5 -63.5q0 -54 32 -148h137v-49h-121q15 -58 15 -99q0 -88 -43 -169q21 0 52 -15t52 -15z" />
    <glyph glyph-name="currency" unicode="&#xa4;" horiz-adv-x="428" 
d="M326 517q0 -43 -11 -76l53 -60l-37 -33l-40 46q-32 -38 -77 -38t-77 38l-40 -46l-37 33l53 60q-11 33 -11 76q0 41 11 76l-53 59l37 33l40 -45q32 37 77 37t77 -37l40 45l37 -33l-53 -59q11 -35 11 -76zM214 407q27 0 42 30t15 80q0 49 -15 79t-42 30t-42 -30t-15 -79
q0 -50 15 -80t42 -30z" />
    <glyph glyph-name="yen" unicode="&#xa5;" horiz-adv-x="422" 
d="M362 677l-119 -338h112v-50h-112v-44h112v-50h-112v-195h-68v195h-111v50h111v44h-111v50h116l-120 338h74l81 -236l81 236h66z" />
    <glyph glyph-name="brokenbar" unicode="&#xa6;" horiz-adv-x="181" 
d="M55 677h71v-386h-71v386zM55 -203v386h71v-386h-71z" />
    <glyph glyph-name="section" unicode="&#xa7;" horiz-adv-x="383" 
d="M246 235q77 -68 77 -127q0 -53 -36 -83.5t-96 -30.5q-37 0 -68.5 11.5t-44.5 22.5l-14 12l22 47q4 -4 12 -11t33.5 -18t52.5 -11q33 0 52 16.5t19 46.5q0 21 -20 45.5t-48.5 48l-57.5 48.5t-49 55t-20 59q0 65 79 94q-67 61 -67 116q0 47 36.5 77t95.5 30q33 0 60 -11
t38 -22l10 -11l-21 -45q-29 35 -81 35q-32 0 -51 -15t-19 -41q0 -25 28.5 -56t62.5 -56t62.5 -59t28.5 -64q0 -70 -76 -103zM215 262q39 30 39 69q0 16 -13.5 35t-27 30.5l-42.5 35.5q-42 -26 -42 -61q0 -18 14 -38t28.5 -33.5t43.5 -37.5z" />
    <glyph glyph-name="dieresis" unicode="&#xa8;" horiz-adv-x="244" 
d="M35 529v60h59v-60h-59zM149 589h60v-60h-60v60z" />
    <glyph glyph-name="copyright" unicode="&#xa9;" 
d="M415 490q-36 0 -59 -43t-23 -109q0 -67 22.5 -109.5t62.5 -42.5q17 0 31.5 6t20.5 12l6 7l15 -31q-25 -34 -78 -34q-56 0 -94 49.5t-38 142.5t38 142.5t94 49.5q23 0 42.5 -9.5t27.5 -19.5l8 -10l-15 -31q-24 30 -61 30zM405 683q143 0 243.5 -101t100.5 -244
q0 -142 -100.5 -243t-243.5 -101t-244 100.5t-101 243.5t101 244t244 101zM616 127q40 38 65 95q23 57 23 116q0 60 -23 117q-25 57 -65 95q-39 41 -95 64q-55 24 -116 24t-117 -24q-56 -23 -95 -64q-40 -38 -65 -95q-23 -57 -23 -117q0 -59 23 -116q25 -57 65 -95
q41 -42 95 -65q57 -23 117 -23q59 0 116 23q54 23 95 65z" />
    <glyph glyph-name="ordfeminine" unicode="&#xaa;" horiz-adv-x="344" 
d="M82 25v55h180v-55h-180zM166 671q58 0 95.5 -45.5t37.5 -122.5v-330h-53l-18 44q-1 -2 -2 -5.5t-6.5 -12t-13.5 -15t-22.5 -12t-32.5 -5.5q-44 0 -75 37t-31 100q0 79 51 136t132 57q0 50 -17 80.5t-51 30.5q-18 0 -34.5 -6.5t-23.5 -13.5l-8 -6l-23 48q4 5 12 11.5
t32.5 18t50.5 11.5zM228 347v105q-49 0 -80.5 -40.5t-31.5 -98.5q0 -40 16 -65.5t40 -25.5q56 0 56 125z" />
    <glyph glyph-name="guillemotleft" unicode="&#xab;" horiz-adv-x="399" 
d="M209 389l-120 -148l120 -148l-43 -34l-116 144v77l116 144zM349 389l-119 -148l119 -148l-43 -34l-116 144v77l116 144z" />
    <glyph glyph-name="logicalnot" unicode="&#xac;" horiz-adv-x="419" 
d="M60 282h299v-167h-55v112h-244v55z" />
    <glyph glyph-name="uni00AD" unicode="&#xad;" horiz-adv-x="200" 
 />
    <glyph glyph-name="registered" unicode="&#xae;" horiz-adv-x="510" 
d="M311 529q0 -17 -8 -28.5t-16 -14.5l-8 -4l32 -108h-27l-29 101h-14v-101h-29v209h45q25 0 39.5 -14t14.5 -40zM257 496q25 0 25 33t-25 33h-16v-66h16zM255 683q85 0 145 -60t60 -145t-60 -145t-145 -60t-145 60t-60 145t60 145t145 60zM375 357q50 50 50 121
q0 72 -50 120q-50 50 -120 50t-120 -50t-50 -120q0 -69 50 -121q49 -49 120 -49t120 49z" />
    <glyph glyph-name="macron" unicode="&#xaf;" horiz-adv-x="253" 
d="M35 593h183v-44h-183v44z" />
    <glyph glyph-name="degree" unicode="&#xb0;" horiz-adv-x="333" 
d="M166 683q51 0 84 -40t33 -101t-33 -101t-84 -40q-50 0 -83 40t-33 101t33 101t83 40zM166 444q32 0 51 29t19 69t-19 69t-51 29t-50.5 -29t-18.5 -69t18.5 -69t50.5 -29z" />
    <glyph glyph-name="plusminus" unicode="&#xb1;" horiz-adv-x="358" 
d="M206 334h92v-55h-92v-92h-55v92h-91v55h91v95h55v-95zM73 83v55h212v-55h-212z" />
    <glyph glyph-name="twosuperior" unicode="&#xb2;" horiz-adv-x="234" 
d="M189 585q0 -89 -79 -220h75v-48h-116l-22 32q10 15 24 39.5t37.5 87t23.5 109.5q0 46 -27 46q-10 0 -20 -6.5t-15 -12.5l-5 -7l-20 42q24 33 67 33q29 0 53 -25.5t24 -69.5z" />
    <glyph glyph-name="threesuperior" unicode="&#xb3;" horiz-adv-x="243" 
d="M158 505q40 -37 40 -87q0 -45 -22 -75q-24 -29 -62 -29q-42 0 -69 32l20 42q15 -26 42 -26q14 0 24 15t10 45q0 22 -8.5 40.5t-20.5 18.5h-31v49h31q24 0 24 51q0 50 -27 50q-17 0 -38 -27l-20 43q28 33 61 33q35 0 58 -26.5t23 -67.5q0 -54 -35 -81z" />
    <glyph glyph-name="acute" unicode="&#xb4;" horiz-adv-x="187" 
d="M84 621h68l-68 -93h-49z" />
    <glyph glyph-name="mu" unicode="&#xb5;" horiz-adv-x="337" 
d="M221 474h71v-474h-55l-16 44q-1 -2 -2.5 -5.5t-7.5 -12t-13.5 -15t-19 -12t-24.5 -5.5q-11 0 -20.5 4.5t-13.5 9.5l-4 5v-216h-71v677h71v-279q0 -76 12.5 -111t40.5 -35q52 0 52 146v279z" />
    <glyph glyph-name="paragraph" unicode="&#xb6;" horiz-adv-x="494" 
d="M45 482q0 89 46.5 142t122.5 53h141v-880h-74v489h-67q-76 0 -122.5 53.5t-46.5 142.5zM397 677h37v-880h-37v880z" />
    <glyph glyph-name="periodcentered" unicode="&#xb7;" horiz-adv-x="174" 
d="M50 376h74v-75h-74v75z" />
    <glyph glyph-name="cedilla" unicode="&#xb8;" horiz-adv-x="230" 
d="M118 -48q32 0 54.5 -21t22.5 -56q0 -36 -26 -60t-64 -24q-21 0 -38.5 6.5t-24.5 12.5l-7 6l11 25q24 -21 54 -21q42 0 42 55q0 24 -9 38.5t-24 14.5q-12 0 -21 -6t-12 -12l-4 -5h-28l35 74h28l-15 -32q12 5 26 5z" />
    <glyph glyph-name="onesuperior" unicode="&#xb9;" horiz-adv-x="179" 
d="M45 660l89 23v-366h-57v302l-32 -8v49z" />
    <glyph glyph-name="ordmasculine" unicode="&#xba;" horiz-adv-x="349" 
d="M175 671q61 0 95 -59.5t34 -163.5v-58q0 -104 -34 -163.5t-95 -59.5t-95.5 59t-34.5 164v58q0 105 34.5 164t95.5 59zM175 222q28 0 43.5 53t15.5 144t-15.5 144t-43.5 53t-43.5 -53t-15.5 -144t15.5 -144t43.5 -53zM85 25v55h179v-55h-179z" />
    <glyph glyph-name="guillemotright" unicode="&#xbb;" horiz-adv-x="399" 
d="M233 424l116 -144v-77l-116 -144l-43 34l119 148l-119 148zM209 280v-77l-116 -144l-43 34l119 148l-119 148l43 35z" />
    <glyph glyph-name="onequarter" unicode="&#xbc;" horiz-adv-x="506" 
d="M144 317h-57v302l-32 -8v49l89 23v-366zM326 677h58l-234 -677h-58zM418 163h33v-48h-33v-115h-54v115h-96v35l104 210h46v-197zM367 163v99l-49 -99h49z" />
    <glyph glyph-name="onehalf" unicode="&#xbd;" horiz-adv-x="502" 
d="M447 268q0 -88 -78 -220h74v-48h-115l-23 32q10 15 24 39.5t37.5 87t23.5 109.5q0 46 -26 46q-10 0 -20.5 -6.5t-15.5 -13.5l-5 -6l-20 42q24 33 67 33q29 0 53 -25.5t24 -69.5zM144 317h-57v302l-32 -8v49l89 23v-366zM326 677h58l-234 -677h-58z" />
    <glyph glyph-name="threequarters" unicode="&#xbe;" horiz-adv-x="536" 
d="M186 343q-24 -29 -62 -29q-42 0 -69 32l20 42q15 -26 42 -26q14 0 24 15t10 45q0 22 -8.5 40.5t-20.5 18.5h-31v49h31q24 0 24 51q0 50 -27 50q-17 0 -38 -27l-20 43q28 33 61 33q35 0 58 -26.5t23 -67.5q0 -54 -35 -81q40 -37 40 -87q0 -45 -22 -75zM356 677h58
l-234 -677h-58zM448 163h33v-48h-33v-115h-54v115h-96v35l104 210h46v-197zM397 163v99l-49 -99h49z" />
    <glyph glyph-name="questiondown" unicode="&#xbf;" horiz-adv-x="324" 
d="M183 -154q19 0 35.5 7.5t23.5 14.5l7 8l20 -42q-4 -5 -11.5 -12t-31.5 -19t-49 -12q-54 0 -88 33t-34 90q0 32 23 69t50.5 65t50.5 63.5t23 65.5q0 21 -13.5 35.5t-33.5 14.5q-16 0 -29.5 -6.5t-19.5 -12.5l-5 -6l-18 39q3 5 9.5 11.5t28.5 18t46 11.5q45 0 73.5 -29.5
t28.5 -73.5q0 -35 -23 -74.5t-50.5 -68t-50.5 -62.5t-23 -60q0 -30 16.5 -49t44.5 -19zM218 474v-75h-75v75h75z" />
    <glyph glyph-name="Agrave" unicode="&#xc0;" horiz-adv-x="451" 
d="M245 677l151 -677h-76l-37 179h-119l-37 -179h-72l151 677h3h33h3zM175 234h97l-48 235zM202 821l49 -93h-49l-68 93h68z" />
    <glyph glyph-name="Aacute" unicode="&#xc1;" horiz-adv-x="451" 
d="M245 677l151 -677h-76l-37 179h-119l-37 -179h-72l151 677h3h33h3zM175 234h97l-48 235zM248 821h68l-68 -93h-49z" />
    <glyph glyph-name="Acircumflex" unicode="&#xc2;" horiz-adv-x="451" 
d="M245 677l151 -677h-76l-37 179h-119l-37 -179h-72l151 677h3h33h3zM175 234h97l-48 235zM249 821l82 -93h-52l-54 64l-53 -64h-53l82 93h48z" />
    <glyph glyph-name="Atilde" unicode="&#xc3;" horiz-adv-x="451" 
d="M245 677l151 -677h-76l-37 179h-119l-37 -179h-72l151 677h3h33h3zM175 234h97l-48 235zM273 803h36q0 -23 -13 -39t-40 -16q-17 0 -39 10t-31.5 10t-9.5 -20h-35q0 23 12.5 39t39.5 16q12 0 25 -4t22 -8.5t17 -6.5t12 2t4 17z" />
    <glyph glyph-name="Adieresis" unicode="&#xc4;" horiz-adv-x="451" 
d="M245 677l151 -677h-76l-37 179h-119l-37 -179h-72l151 677h3h33h3zM175 234h97l-48 235zM138 729v60h59v-60h-59zM252 789h60v-60h-60v60z" />
    <glyph glyph-name="Aring" unicode="&#xc5;" horiz-adv-x="451" 
d="M245 677l151 -677h-76l-37 179h-119l-37 -179h-72l151 677h3h33h3zM175 234h97l-48 235zM225 878q29 0 48.5 -23.5t19.5 -59.5t-19.5 -59.5t-48.5 -23.5t-48.5 23t-19.5 60t19.5 60t48.5 23zM225 747q13 0 21 13t8 35t-8 35t-21 13t-21 -13t-8 -35t8 -35t21 -13z" />
    <glyph glyph-name="AE" unicode="&#xc6;" horiz-adv-x="548" 
d="M493 619h-152v-213h115v-58h-115v-290h152v-58h-226v179h-90l-47 -179h-75l190 677h248v-58zM267 234v286l-75 -286h75z" />
    <glyph glyph-name="Ccedilla" unicode="&#xc7;" horiz-adv-x="379" 
d="M327 95l22 -47q-1 -2 -3.5 -5.5t-12 -13t-20.5 -16.5t-31 -13t-42 -6q-80 0 -132.5 81t-52.5 235v57q0 154 50.5 235t126.5 81q35 0 63.5 -14.5t39.5 -29.5l11 -15l-22 -47q-3 5 -9 13t-27 21.5t-44 13.5q-57 0 -86 -77.5t-29 -209.5q0 -127 31 -207t89 -80q24 0 43.5 11
t27.5 22zM243 -48q32 0 54.5 -21t22.5 -56q0 -36 -26 -60t-64 -24q-21 0 -38.5 6.5t-24.5 12.5l-7 6l11 25q24 -21 54 -21q42 0 42 55q0 24 -9 38.5t-24 14.5q-12 0 -21 -6t-13 -12l-3 -5h-28l35 74h28l-15 -32q12 5 26 5z" />
    <glyph glyph-name="Egrave" unicode="&#xc8;" horiz-adv-x="336" 
d="M281 619h-152v-213h115v-58h-115v-290h152v-58h-226v677h226v-58zM155 821l49 -93h-49l-68 93h68z" />
    <glyph glyph-name="Eacute" unicode="&#xc9;" horiz-adv-x="336" 
d="M281 619h-152v-213h115v-58h-115v-290h152v-58h-226v677h226v-58zM181 821h68l-68 -93h-49z" />
    <glyph glyph-name="Ecircumflex" unicode="&#xca;" horiz-adv-x="336" 
d="M281 619h-152v-213h115v-58h-115v-290h152v-58h-226v677h226v-58zM192 821l82 -93h-52l-54 64l-53 -64h-53l82 93h48z" />
    <glyph glyph-name="Edieresis" unicode="&#xcb;" horiz-adv-x="336" 
d="M281 619h-152v-213h115v-58h-115v-290h152v-58h-226v677h226v-58zM81 729v60h59v-60h-59zM195 789h60v-60h-60v60z" />
    <glyph glyph-name="Igrave" unicode="&#xcc;" horiz-adv-x="184" 
d="M55 677h74v-677h-74v677zM71 821l49 -93h-49l-68 93h68z" />
    <glyph glyph-name="Iacute" unicode="&#xcd;" horiz-adv-x="184" 
d="M55 677h74v-677h-74v677zM114 821h68l-68 -93h-49z" />
    <glyph glyph-name="Icircumflex" unicode="&#xce;" horiz-adv-x="184" 
d="M55 677h74v-677h-74v677zM116 821l82 -93h-52l-54 64l-53 -64h-53l82 93h48z" />
    <glyph glyph-name="Idieresis" unicode="&#xcf;" horiz-adv-x="184" 
d="M55 677h74v-677h-74v677zM5 729v60h59v-60h-59zM119 789h60v-60h-60v60z" />
    <glyph glyph-name="Eth" unicode="&#xd0;" horiz-adv-x="438" 
d="M165 677q163 0 163 -310v-57q0 -164 -42 -237t-122 -73h-113v316h-46v57h46v304h114zM164 58q90 0 90 280q0 140 -23.5 210.5t-65.5 70.5h-40v-246h65v-57h-65v-258h39z" />
    <glyph glyph-name="Ntilde" unicode="&#xd1;" horiz-adv-x="400" 
d="M273 677h72v-683h-72l-146 448v-442h-72v677h72l146 -449v449zM248 803h36q0 -23 -13 -39t-40 -16q-17 0 -39 10t-31.5 10t-9.5 -20h-35q0 23 12.5 39t39.5 16q12 0 25 -4t22 -8.5t17 -6.5t12 2t4 17z" />
    <glyph glyph-name="Ograve" unicode="&#xd2;" horiz-adv-x="416" 
d="M208 683q153 0 153 -316v-57q0 -316 -153 -316t-153 316v57q0 316 153 316zM208 51q37 0 57.5 76t20.5 211t-20.5 211t-57.5 76t-58 -76t-21 -211q0 -134 21 -210.5t58 -76.5zM191 821l49 -93h-49l-68 93h68z" />
    <glyph glyph-name="Oacute" unicode="&#xd3;" horiz-adv-x="416" 
d="M208 683q153 0 153 -316v-57q0 -316 -153 -316t-153 316v57q0 316 153 316zM208 51q37 0 57.5 76t20.5 211t-20.5 211t-57.5 76t-58 -76t-21 -211q0 -134 21 -210.5t58 -76.5zM217 821h68l-68 -93h-49z" />
    <glyph glyph-name="Ocircumflex" unicode="&#xd4;" horiz-adv-x="416" 
d="M208 683q153 0 153 -316v-57q0 -316 -153 -316t-153 316v57q0 316 153 316zM208 51q37 0 57.5 76t20.5 211t-20.5 211t-57.5 76t-58 -76t-21 -211q0 -134 21 -210.5t58 -76.5zM232 821l82 -93h-52l-54 64l-53 -64h-53l82 93h48z" />
    <glyph glyph-name="Otilde" unicode="&#xd5;" horiz-adv-x="416" 
d="M208 683q153 0 153 -316v-57q0 -316 -153 -316t-153 316v57q0 316 153 316zM208 51q37 0 57.5 76t20.5 211t-20.5 211t-57.5 76t-58 -76t-21 -211q0 -134 21 -210.5t58 -76.5zM256 803h36q0 -23 -13 -39t-40 -16q-17 0 -39 10t-31.5 10t-9.5 -20h-35q0 23 12.5 39
t39.5 16q12 0 25 -4t22 -8.5t17 -6.5t12 2t4 17z" />
    <glyph glyph-name="Odieresis" unicode="&#xd6;" horiz-adv-x="416" 
d="M208 683q153 0 153 -316v-57q0 -316 -153 -316t-153 316v57q0 316 153 316zM208 51q37 0 57.5 76t20.5 211t-20.5 211t-57.5 76t-58 -76t-21 -211q0 -134 21 -210.5t58 -76.5zM121 729v60h59v-60h-59zM235 789h60v-60h-60v60z" />
    <glyph glyph-name="multiply" unicode="&#xd7;" horiz-adv-x="343" 
d="M283 336l-80 -111l80 -111l-41 -30l-70 97l-71 -97l-41 30l80 111l-80 111l41 29l71 -97l70 97z" />
    <glyph glyph-name="Oslash" unicode="&#xd8;" horiz-adv-x="416" 
d="M311 624q50 -79 50 -257v-57q0 -316 -153 -316q-49 0 -83 33l-32 -104h-29l41 130q-50 79 -50 257v57q0 316 153 316q49 0 82 -33l33 103h28zM129 338q0 -102 12 -169l122 392q-22 64 -55 64q-37 0 -58 -76t-21 -211zM208 51q37 0 57.5 76t20.5 211q0 98 -11 170
l-122 -392q20 -65 55 -65z" />
    <glyph glyph-name="Ugrave" unicode="&#xd9;" horiz-adv-x="381" 
d="M252 677h74v-465q0 -218 -135 -218q-136 0 -136 218v465h74v-456q0 -91 15 -130.5t47 -39.5t46.5 39t14.5 131v456zM174 821l49 -93h-49l-68 93h68z" />
    <glyph glyph-name="Uacute" unicode="&#xda;" horiz-adv-x="381" 
d="M252 677h74v-465q0 -218 -135 -218q-136 0 -136 218v465h74v-456q0 -91 15 -130.5t47 -39.5t46.5 39t14.5 131v456zM206 821h68l-68 -93h-49z" />
    <glyph glyph-name="Ucircumflex" unicode="&#xdb;" horiz-adv-x="381" 
d="M252 677h74v-465q0 -218 -135 -218q-136 0 -136 218v465h74v-456q0 -91 15 -130.5t47 -39.5t46.5 39t14.5 131v456zM214 821l82 -93h-52l-54 64l-53 -64h-53l82 93h48z" />
    <glyph glyph-name="Udieresis" unicode="&#xdc;" horiz-adv-x="381" 
d="M252 677h74v-465q0 -218 -135 -218q-136 0 -136 218v465h74v-456q0 -91 15 -130.5t47 -39.5t46.5 39t14.5 131v456zM103 729v60h59v-60h-59zM217 789h60v-60h-60v60z" />
    <glyph glyph-name="Yacute" unicode="&#xdd;" horiz-adv-x="437" 
d="M304 677h78l-127 -335v-342h-75v345l-125 332h80l85 -237zM237 821h68l-68 -93h-49z" />
    <glyph glyph-name="Thorn" unicode="&#xde;" horiz-adv-x="381" 
d="M169 534q72 0 114.5 -51t42.5 -145t-42.5 -144.5t-114.5 -50.5h-40v-143h-74v677h74v-143h40zM171 201q81 0 81 137q0 138 -81 138h-42v-275h42z" />
    <glyph glyph-name="germandbls" unicode="&#xdf;" horiz-adv-x="415" 
d="M253 327q0 -25 16.5 -54t37 -52.5t37 -56t16.5 -63.5q0 -49 -28 -78t-77 -29q-28 0 -52.5 9t-35.5 18l-11 9l22 46q29 -27 64 -27q22 0 34.5 15.5t12.5 40.5q0 20 -16.5 49t-37 54.5t-37 58.5t-16.5 60q0 37 27.5 86t27.5 91q0 124 -56 124q-55 0 -55 -133v-495h-71v495
q0 88 31 138t95 50q127 0 127 -179q0 -36 -27.5 -93.5t-27.5 -83.5z" />
    <glyph glyph-name="agrave" unicode="&#xe0;" horiz-adv-x="337" 
d="M237 474h55v-474h-53l-18 44q-1 -2 -2 -5.5t-7 -12t-13 -15t-20.5 -12t-28.5 -5.5q-105 0 -105 210v58q0 107 27.5 162.5t77.5 55.5q23 0 41 -12.5t24 -25.5l6 -12zM227 216v34q0 73 -14.5 124t-40.5 51t-41 -51.5t-15 -123.5v-34q0 -71 14.5 -119t41.5 -48
q26 0 40.5 47.5t14.5 119.5zM174 621l49 -93h-49l-68 93h68z" />
    <glyph glyph-name="aacute" unicode="&#xe1;" horiz-adv-x="337" 
d="M237 474h55v-474h-53l-18 44q-1 -2 -2 -5.5t-7 -12t-13 -15t-20.5 -12t-28.5 -5.5q-105 0 -105 210v58q0 107 27.5 162.5t77.5 55.5q23 0 41 -12.5t24 -25.5l6 -12zM227 216v34q0 73 -14.5 124t-40.5 51t-41 -51.5t-15 -123.5v-34q0 -71 14.5 -119t41.5 -48
q26 0 40.5 47.5t14.5 119.5zM185 621h68l-68 -93h-49z" />
    <glyph glyph-name="acircumflex" unicode="&#xe2;" horiz-adv-x="337" 
d="M237 474h55v-474h-53l-18 44q-1 -2 -2 -5.5t-7 -12t-13 -15t-20.5 -12t-28.5 -5.5q-105 0 -105 210v58q0 107 27.5 162.5t77.5 55.5q23 0 41 -12.5t24 -25.5l6 -12zM227 216v34q0 73 -14.5 124t-40.5 51t-41 -51.5t-15 -123.5v-34q0 -71 14.5 -119t41.5 -48
q26 0 40.5 47.5t14.5 119.5zM196 621l82 -93h-52l-54 64l-53 -64h-53l82 93h48z" />
    <glyph glyph-name="atilde" unicode="&#xe3;" horiz-adv-x="337" 
d="M237 474h55v-474h-53l-18 44q-1 -2 -2 -5.5t-7 -12t-13 -15t-20.5 -12t-28.5 -5.5q-105 0 -105 210v58q0 107 27.5 162.5t77.5 55.5q23 0 41 -12.5t24 -25.5l6 -12zM227 216v34q0 73 -14.5 124t-40.5 51t-41 -51.5t-15 -123.5v-34q0 -71 14.5 -119t41.5 -48
q26 0 40.5 47.5t14.5 119.5zM221 603h36q0 -23 -13 -39t-40 -16q-17 0 -39 10t-31.5 10t-9.5 -20h-35q0 23 12.5 39t39.5 16q12 0 25 -4t22 -8.5t17 -6.5t12 2t4 17z" />
    <glyph glyph-name="adieresis" unicode="&#xe4;" horiz-adv-x="337" 
d="M237 474h55v-474h-53l-18 44q-1 -2 -2 -5.5t-7 -12t-13 -15t-20.5 -12t-28.5 -5.5q-105 0 -105 210v58q0 107 27.5 162.5t77.5 55.5q23 0 41 -12.5t24 -25.5l6 -12zM227 216v34q0 73 -14.5 124t-40.5 51t-41 -51.5t-15 -123.5v-34q0 -71 14.5 -119t41.5 -48
q26 0 40.5 47.5t14.5 119.5zM89 529v60h59v-60h-59zM203 589h60v-60h-60v60z" />
    <glyph glyph-name="aring" unicode="&#xe5;" horiz-adv-x="337" 
d="M237 474h55v-474h-53l-18 44q-1 -2 -2 -5.5t-7 -12t-13 -15t-20.5 -12t-28.5 -5.5q-105 0 -105 210v58q0 107 27.5 162.5t77.5 55.5q23 0 41 -12.5t24 -25.5l6 -12zM227 216v34q0 73 -14.5 124t-40.5 51t-41 -51.5t-15 -123.5v-34q0 -71 14.5 -119t41.5 -48
q26 0 40.5 47.5t14.5 119.5zM177 678q29 0 48.5 -23.5t19.5 -59.5t-19.5 -59.5t-48.5 -23.5t-48.5 23t-19.5 60t19.5 60t48.5 23zM177 547q13 0 21 13t8 35t-8 35t-21 13t-21 -13t-8 -35t8 -35t21 -13z" />
    <glyph glyph-name="ae" unicode="&#xe6;" horiz-adv-x="512" 
d="M467 262v-36h-168q0 -177 76 -177q20 0 37.5 11.5t25.5 23.5l7 11l22 -46l-3 -6t-10.5 -13.5t-19 -16.5t-28.5 -13t-38 -6q-46 0 -79 30l-5 -24h-38l-18 44q-1 -2 -2.5 -5.5t-7.5 -12t-14 -15t-22.5 -12t-31.5 -5.5q-46 0 -75.5 39t-29.5 101q0 78 51 129.5t132 51.5
q0 110 -67 110q-17 0 -34.5 -7.5t-26.5 -15.5l-8 -8l-20 43q4 5 11.5 12t33 19t52.5 12q63 0 97 -47q32 47 86 47q115 0 115 -218zM228 174v96q-54 0 -83 -36t-29 -84q0 -45 15 -73t41 -28q56 0 56 125zM300 273h104q0 70 -13.5 111t-38.5 41t-38.5 -41t-13.5 -111z" />
    <glyph glyph-name="ccedilla" unicode="&#xe7;" horiz-adv-x="328" 
d="M202 49q17 0 32 8t22 16l6 8l21 -45q-3 -5 -9 -12t-28.5 -18.5t-50.5 -11.5q-68 0 -109 57t-41 153v58q0 97 39.5 157.5t106.5 60.5q29 0 52 -12.5t31 -25.5l9 -12l-21 -45q-26 40 -66 40q-38 0 -59 -55t-21 -133q0 -84 22.5 -136t63.5 -52zM182 -48q32 0 54.5 -21
t22.5 -56q0 -36 -26 -60t-64 -24q-21 0 -38.5 6.5t-24.5 12.5l-7 6l11 25q24 -21 54 -21q42 0 42 55q0 24 -9 38.5t-24 14.5q-12 0 -21 -6t-12 -12l-4 -5h-28l35 74h28l-15 -32q12 5 26 5z" />
    <glyph glyph-name="egrave" unicode="&#xe8;" horiz-adv-x="329" 
d="M284 262v-36h-168q0 -177 76 -177q20 0 37.5 11.5t24.5 23.5l8 11l21 -46q-3 -6 -9 -15t-31.5 -24.5t-58.5 -15.5q-64 0 -101.5 53.5t-37.5 156.5v58q0 105 32 161.5t92 56.5q115 0 115 -218zM116 273h105q0 70 -13.5 111t-38.5 41t-39 -41t-14 -111zM152 621l49 -93h-49
l-68 93h68z" />
    <glyph glyph-name="eacute" unicode="&#xe9;" horiz-adv-x="329" 
d="M284 262v-36h-168q0 -177 76 -177q20 0 37.5 11.5t24.5 23.5l8 11l21 -46q-3 -6 -9 -15t-31.5 -24.5t-58.5 -15.5q-64 0 -101.5 53.5t-37.5 156.5v58q0 105 32 161.5t92 56.5q115 0 115 -218zM116 273h105q0 70 -13.5 111t-38.5 41t-39 -41t-14 -111zM184 621h68l-68 -93
h-49z" />
    <glyph glyph-name="ecircumflex" unicode="&#xea;" horiz-adv-x="329" 
d="M284 262v-36h-168q0 -177 76 -177q20 0 37.5 11.5t24.5 23.5l8 11l21 -46q-3 -6 -9 -15t-31.5 -24.5t-58.5 -15.5q-64 0 -101.5 53.5t-37.5 156.5v58q0 105 32 161.5t92 56.5q115 0 115 -218zM116 273h105q0 70 -13.5 111t-38.5 41t-39 -41t-14 -111zM188 621l82 -93h-52
l-54 64l-53 -64h-53l82 93h48z" />
    <glyph glyph-name="edieresis" unicode="&#xeb;" horiz-adv-x="329" 
d="M284 262v-36h-168q0 -177 76 -177q20 0 37.5 11.5t24.5 23.5l8 11l21 -46q-3 -6 -9 -15t-31.5 -24.5t-58.5 -15.5q-64 0 -101.5 53.5t-37.5 156.5v58q0 105 32 161.5t92 56.5q115 0 115 -218zM116 273h105q0 70 -13.5 111t-38.5 41t-39 -41t-14 -111zM77 529v60h59v-60
h-59zM191 589h60v-60h-60v60z" />
    <glyph glyph-name="igrave" unicode="&#xec;" horiz-adv-x="168" 
d="M49 0v474h71v-474h-71zM45 614h78v-71h-78v71zM61 751l49 -93h-49l-68 93h68z" />
    <glyph glyph-name="iacute" unicode="&#xed;" horiz-adv-x="168" 
d="M49 0v474h71v-474h-71zM45 614h78v-71h-78v71zM108 751h68l-68 -93h-49z" />
    <glyph glyph-name="icircumflex" unicode="&#xee;" horiz-adv-x="168" 
d="M49 0v474h71v-474h-71zM45 614h78v-71h-78v71zM108 751l82 -93h-52l-54 64l-53 -64h-53l82 93h48z" />
    <glyph glyph-name="idieresis" unicode="&#xef;" horiz-adv-x="168" 
d="M49 0v474h71v-474h-71zM45 614h78v-71h-78v71zM-3 659v60h59v-60h-59zM111 719h60v-60h-60v60z" />
    <glyph glyph-name="eth" unicode="&#xf0;" horiz-adv-x="367" 
d="M262 529q42 -109 42 -267v-58q0 -97 -32 -153.5t-97 -56.5q-66 0 -98 56.5t-32 153.5v58q0 102 28.5 160t86.5 58q29 0 53 -19q-5 23 -18 62l-94 -10l-5 52l75 8q-13 22 -27.5 37.5t-22.5 19.5l-8 5l23 48q6 -2 16.5 -7.5t38 -32t48.5 -64.5l78 8l5 -52zM175 49
q28 0 43.5 49t15.5 139q0 188 -59 188q-28 0 -43.5 -49t-15.5 -139t15.5 -139t43.5 -49z" />
    <glyph glyph-name="ntilde" unicode="&#xf1;" horiz-adv-x="337" 
d="M186 480q106 0 106 -187v-293h-71v282q0 143 -52 143q-53 0 -53 -143v-282h-71v474h55l14 -39q24 45 72 45zM221 603h36q0 -23 -13 -39t-40 -16q-17 0 -39 10t-31.5 10t-9.5 -20h-35q0 23 12.5 39t39.5 16q12 0 25 -4t22 -8.5t17 -6.5t12 2t4 17z" />
    <glyph glyph-name="ograve" unicode="&#xf2;" horiz-adv-x="349" 
d="M175 480q62 0 95.5 -57.5t33.5 -160.5v-58q0 -102 -33.5 -156t-95.5 -54q-63 0 -96.5 53.5t-33.5 156.5v58q0 103 33.5 160.5t96.5 57.5zM175 49q29 0 44 53t15 135t-15 135t-44 53t-44 -52.5t-15 -135.5t15 -135.5t44 -52.5zM158 621l49 -93h-49l-68 93h68z" />
    <glyph glyph-name="oacute" unicode="&#xf3;" horiz-adv-x="349" 
d="M175 480q62 0 95.5 -57.5t33.5 -160.5v-58q0 -102 -33.5 -156t-95.5 -54q-63 0 -96.5 53.5t-33.5 156.5v58q0 103 33.5 160.5t96.5 57.5zM175 49q29 0 44 53t15 135t-15 135t-44 53t-44 -52.5t-15 -135.5t15 -135.5t44 -52.5zM191 621h68l-68 -93h-49z" />
    <glyph glyph-name="ocircumflex" unicode="&#xf4;" horiz-adv-x="349" 
d="M175 480q62 0 95.5 -57.5t33.5 -160.5v-58q0 -102 -33.5 -156t-95.5 -54q-63 0 -96.5 53.5t-33.5 156.5v58q0 103 33.5 160.5t96.5 57.5zM175 49q29 0 44 53t15 135t-15 135t-44 53t-44 -52.5t-15 -135.5t15 -135.5t44 -52.5zM198 621l82 -93h-52l-54 64l-53 -64h-53
l82 93h48z" />
    <glyph glyph-name="otilde" unicode="&#xf5;" horiz-adv-x="349" 
d="M175 480q62 0 95.5 -57.5t33.5 -160.5v-58q0 -102 -33.5 -156t-95.5 -54q-63 0 -96.5 53.5t-33.5 156.5v58q0 103 33.5 160.5t96.5 57.5zM175 49q29 0 44 53t15 135t-15 135t-44 53t-44 -52.5t-15 -135.5t15 -135.5t44 -52.5zM222 603h36q0 -23 -13 -39t-40 -16
q-17 0 -39 10t-31.5 10t-9.5 -20h-35q0 23 12.5 39t39.5 16q12 0 25 -4t22 -8.5t17 -6.5t12 2t4 17z" />
    <glyph glyph-name="odieresis" unicode="&#xf6;" horiz-adv-x="349" 
d="M175 480q62 0 95.5 -57.5t33.5 -160.5v-58q0 -102 -33.5 -156t-95.5 -54q-63 0 -96.5 53.5t-33.5 156.5v58q0 103 33.5 160.5t96.5 57.5zM175 49q29 0 44 53t15 135t-15 135t-44 53t-44 -52.5t-15 -135.5t15 -135.5t44 -52.5zM87 529v60h59v-60h-59zM201 589h60v-60h-60
v60z" />
    <glyph glyph-name="divide" unicode="&#xf7;" horiz-adv-x="441" 
d="M252 364v-63h-63v63h63zM189 85v63h63v-63h-63zM60 252h321v-55h-321v55z" />
    <glyph glyph-name="oslash" unicode="&#xf8;" horiz-adv-x="349" 
d="M254 445q50 -55 50 -183v-58q0 -102 -33.5 -156t-95.5 -54q-32 0 -57 14l-26 -85h-29l32 103q-50 52 -50 178v58q0 103 33.5 160.5t96.5 57.5q33 0 56 -16l27 86h29zM116 237q0 -67 9 -113l85 272q-14 29 -35 29q-29 0 -44 -52.5t-15 -135.5zM175 49q29 0 44 53t15 135
q0 67 -10 113l-84 -272q14 -29 35 -29z" />
    <glyph glyph-name="ugrave" unicode="&#xf9;" horiz-adv-x="332" 
d="M216 474h71v-474h-55l-14 39q-24 -45 -72 -45q-106 0 -106 187v293h71v-282q0 -143 53 -143q52 0 52 143v282zM150 621l49 -93h-49l-68 93h68z" />
    <glyph glyph-name="uacute" unicode="&#xfa;" horiz-adv-x="332" 
d="M216 474h71v-474h-55l-14 39q-24 -45 -72 -45q-106 0 -106 187v293h71v-282q0 -143 53 -143q52 0 52 143v282zM181 621h68l-68 -93h-49z" />
    <glyph glyph-name="ucircumflex" unicode="&#xfb;" horiz-adv-x="332" 
d="M216 474h71v-474h-55l-14 39q-24 -45 -72 -45q-106 0 -106 187v293h71v-282q0 -143 53 -143q52 0 52 143v282zM190 621l82 -93h-52l-54 64l-53 -64h-53l82 93h48z" />
    <glyph glyph-name="udieresis" unicode="&#xfc;" horiz-adv-x="332" 
d="M216 474h71v-474h-55l-14 39q-24 -45 -72 -45q-106 0 -106 187v293h71v-282q0 -143 53 -143q52 0 52 143v282zM79 529v60h59v-60h-59zM193 589h60v-60h-60v60z" />
    <glyph glyph-name="yacute" unicode="&#xfd;" horiz-adv-x="372" 
d="M256 474h71l-208 -677h-71l103 334l-106 343h74l70 -247zM204 621h68l-68 -93h-49z" />
    <glyph glyph-name="thorn" unicode="&#xfe;" horiz-adv-x="337" 
d="M185 480q107 0 107 -218v-58q0 -210 -107 -210q-22 0 -39.5 9t-23.5 19l-6 9v-234h-71v904l71 18v-277q2 4 6.5 10.5t22.5 17t40 10.5zM221 216v34q0 73 -14.5 124t-40.5 51q-27 0 -41.5 -51t-14.5 -124v-34q0 -72 14.5 -119.5t41.5 -47.5q26 0 40.5 47.5t14.5 119.5z
" />
    <glyph glyph-name="ydieresis" unicode="&#xff;" horiz-adv-x="372" 
d="M256 474h71l-208 -677h-71l103 334l-106 343h74l70 -247zM103 529v60h59v-60h-59zM217 589h60v-60h-60v60z" />
    <glyph glyph-name="Amacron" unicode="&#x100;" horiz-adv-x="451" 
d="M245 677l151 -677h-76l-37 179h-119l-37 -179h-72l151 677h3h33h3zM175 234h97l-48 235zM134 793h183v-44h-183v44z" />
    <glyph glyph-name="amacron" unicode="&#x101;" horiz-adv-x="337" 
d="M237 474h55v-474h-53l-18 44q-1 -2 -2 -5.5t-7 -12t-13 -15t-20.5 -12t-28.5 -5.5q-105 0 -105 210v58q0 107 27.5 162.5t77.5 55.5q23 0 41 -12.5t24 -25.5l6 -12zM227 216v34q0 73 -14.5 124t-40.5 51t-41 -51.5t-15 -123.5v-34q0 -71 14.5 -119t41.5 -48
q26 0 40.5 47.5t14.5 119.5zM87 593h183v-44h-183v44z" />
    <glyph glyph-name="Abreve" unicode="&#x102;" horiz-adv-x="451" 
d="M245 677l151 -677h-76l-37 179h-119l-37 -179h-72l151 677h3h33h3zM175 234h97l-48 235zM283 818h36q0 -37 -26.5 -59.5t-67.5 -22.5t-67.5 22.5t-26.5 59.5h35q0 -14 16 -26t43 -12t42.5 12t15.5 26z" />
    <glyph glyph-name="abreve" unicode="&#x103;" horiz-adv-x="337" 
d="M237 474h55v-474h-53l-18 44q-1 -2 -2 -5.5t-7 -12t-13 -15t-20.5 -12t-28.5 -5.5q-105 0 -105 210v58q0 107 27.5 162.5t77.5 55.5q23 0 41 -12.5t24 -25.5l6 -12zM227 216v34q0 73 -14.5 124t-40.5 51t-41 -51.5t-15 -123.5v-34q0 -71 14.5 -119t41.5 -48
q26 0 40.5 47.5t14.5 119.5zM235 618h36q0 -37 -26.5 -59.5t-67.5 -22.5t-67.5 22.5t-26.5 59.5h35q0 -14 16 -26t43 -12t42.5 12t15.5 26z" />
    <glyph glyph-name="Aogonek" unicode="&#x104;" horiz-adv-x="451" 
d="M245 677l151 -677h-76l-37 179h-119l-37 -179h-72l151 677h3h33h3zM175 234h97l-48 235zM361 -159l12 -25q-16 -25 -55 -25q-33 0 -56 19t-23 54q0 29 20.5 57.5t41.5 42.5l21 15h26q-6 -6 -15 -16t-24.5 -39t-15.5 -56q0 -48 34 -48q10 0 18.5 5t12.5 11z" />
    <glyph glyph-name="aogonek" unicode="&#x105;" horiz-adv-x="337" 
d="M237 474h55v-474h-53l-18 44q-1 -2 -2 -5.5t-7 -12t-13 -15t-20.5 -12t-28.5 -5.5q-105 0 -105 210v58q0 107 27.5 162.5t77.5 55.5q23 0 41 -12.5t24 -25.5l6 -12zM227 216v34q0 73 -14.5 124t-40.5 51t-41 -51.5t-15 -123.5v-34q0 -71 14.5 -119t41.5 -48
q26 0 40.5 47.5t14.5 119.5zM282 -159l12 -25q-16 -25 -55 -25q-33 0 -56 19t-23 54q0 29 21 57.5t41 42.5l21 15h26q-6 -6 -15 -16t-24.5 -39t-15.5 -56q0 -48 34 -48q10 0 18.5 5t11.5 11z" />
    <glyph glyph-name="Cacute" unicode="&#x106;" horiz-adv-x="379" 
d="M327 95l22 -47q-1 -2 -3.5 -5.5t-12 -13t-20.5 -16.5t-31 -13t-42 -6q-80 0 -132.5 81t-52.5 235v57q0 154 50.5 235t126.5 81q35 0 63.5 -14.5t39.5 -29.5l11 -15l-22 -47q-3 5 -9 13t-27 21.5t-44 13.5q-57 0 -86 -77.5t-29 -209.5q0 -127 31 -207t89 -80q24 0 43.5 11
t27.5 22zM220 821h68l-68 -93h-49z" />
    <glyph glyph-name="cacute" unicode="&#x107;" horiz-adv-x="328" 
d="M202 49q17 0 32 8t22 16l6 8l21 -45q-3 -5 -9 -12t-28.5 -18.5t-50.5 -11.5q-68 0 -109 57t-41 153v58q0 97 39.5 157.5t106.5 60.5q29 0 52 -12.5t31 -25.5l9 -12l-21 -45q-26 40 -66 40q-38 0 -59 -55t-21 -133q0 -84 22.5 -136t63.5 -52zM170 621h68l-68 -93h-49z" />
    <glyph glyph-name="Ccaron" unicode="&#x10c;" horiz-adv-x="379" 
d="M327 95l22 -47q-1 -2 -3.5 -5.5t-12 -13t-20.5 -16.5t-31 -13t-42 -6q-80 0 -132.5 81t-52.5 235v57q0 154 50.5 235t126.5 81q35 0 63.5 -14.5t39.5 -29.5l11 -15l-22 -47q-3 5 -9 13t-27 21.5t-44 13.5q-57 0 -86 -77.5t-29 -209.5q0 -127 31 -207t89 -80q24 0 43.5 11
t27.5 22zM257 820h52l-82 -93h-48l-82 93h53l53 -64z" />
    <glyph glyph-name="ccaron" unicode="&#x10d;" horiz-adv-x="328" 
d="M202 49q17 0 32 8t22 16l6 8l21 -45q-3 -5 -9 -12t-28.5 -18.5t-50.5 -11.5q-68 0 -109 57t-41 153v58q0 97 39.5 157.5t106.5 60.5q29 0 52 -12.5t31 -25.5l9 -12l-21 -45q-26 40 -66 40q-38 0 -59 -55t-21 -133q0 -84 22.5 -136t63.5 -52zM229 620h52l-82 -93h-48
l-82 93h53l53 -64z" />
    <glyph glyph-name="Dcaron" unicode="&#x10e;" horiz-adv-x="387" 
d="M169 677q163 0 163 -310v-57q0 -164 -42 -237t-122 -73h-113v677h114zM168 58q90 0 90 280q0 140 -23.5 210.5t-65.5 70.5h-40v-561h39zM232 820h52l-82 -93h-48l-82 93h53l53 -64z" />
    <glyph glyph-name="dcaron" unicode="&#x10f;" horiz-adv-x="337" 
d="M221 701l71 18v-719h-53l-18 44q-1 -2 -2.5 -5.5t-8 -12t-14.5 -15t-21.5 -12t-28.5 -5.5q-101 0 -101 210v58q0 218 101 218q23 0 41.5 -12.5t26.5 -25.5l7 -12v271zM227 216v34q0 73 -14.5 124t-40.5 51t-41 -51.5t-15 -123.5v-34q0 -71 14.5 -119t41.5 -48
q26 0 40.5 47.5t14.5 119.5zM337 677h71v-99l-38 -89h-33l48 89h-48v99z" />
    <glyph glyph-name="Dcroat" unicode="&#x110;" horiz-adv-x="438" 
d="M165 677q163 0 163 -310v-57q0 -164 -42 -237t-122 -73h-113v316h-46v57h46v304h114zM164 58q90 0 90 280q0 140 -23.5 210.5t-65.5 70.5h-40v-246h65v-57h-65v-258h39z" />
    <glyph glyph-name="dcroat" unicode="&#x111;" horiz-adv-x="341" 
d="M292 604h49v-55h-49v-549h-53l-18 44q-1 -2 -2.5 -5.5t-8 -12t-14.5 -15t-21.5 -12t-28.5 -5.5q-101 0 -101 210v58q0 218 101 218q23 0 41.5 -12.5t26.5 -25.5l7 -12v119h-71v55h71v97l71 18v-115zM227 216v34q0 73 -14.5 124t-40.5 51t-41 -51.5t-15 -123.5v-34
q0 -71 14.5 -119t41.5 -48q26 0 40.5 47.5t14.5 119.5z" />
    <glyph glyph-name="Emacron" unicode="&#x112;" horiz-adv-x="336" 
d="M281 619h-152v-213h115v-58h-115v-290h152v-58h-226v677h226v-58zM77 793h183v-44h-183v44z" />
    <glyph glyph-name="emacron" unicode="&#x113;" horiz-adv-x="329" 
d="M284 262v-36h-168q0 -177 76 -177q20 0 37.5 11.5t24.5 23.5l8 11l21 -46q-3 -6 -9 -15t-31.5 -24.5t-58.5 -15.5q-64 0 -101.5 53.5t-37.5 156.5v58q0 105 32 161.5t92 56.5q115 0 115 -218zM116 273h105q0 70 -13.5 111t-38.5 41t-39 -41t-14 -111zM73 593h183v-44
h-183v44z" />
    <glyph glyph-name="Edotaccent" unicode="&#x116;" horiz-adv-x="336" 
d="M281 619h-152v-213h115v-58h-115v-290h152v-58h-226v677h226v-58zM133 801h71v-63h-71v63z" />
    <glyph glyph-name="edotaccent" unicode="&#x117;" horiz-adv-x="329" 
d="M284 262v-36h-168q0 -177 76 -177q20 0 37.5 11.5t24.5 23.5l8 11l21 -46q-3 -6 -9 -15t-31.5 -24.5t-58.5 -15.5q-64 0 -101.5 53.5t-37.5 156.5v58q0 105 32 161.5t92 56.5q115 0 115 -218zM116 273h105q0 70 -13.5 111t-38.5 41t-39 -41t-14 -111zM129 601h71v-63h-71
v63z" />
    <glyph glyph-name="Eogonek" unicode="&#x118;" horiz-adv-x="336" 
d="M281 619h-152v-213h115v-58h-115v-290h152v-58h-226v677h226v-58zM289 -159l12 -25q-16 -25 -55 -25q-33 0 -56 19t-23 54q0 29 20.5 57.5t41.5 42.5l21 15h26q-6 -6 -15 -16t-24.5 -39t-15.5 -56q0 -48 34 -48q10 0 18.5 5t12.5 11z" />
    <glyph glyph-name="eogonek" unicode="&#x119;" horiz-adv-x="329" 
d="M284 262v-36h-168q0 -177 76 -177q20 0 37.5 11.5t24.5 23.5l8 11l21 -46q-3 -6 -9 -15t-31.5 -24.5t-58.5 -15.5q-64 0 -101.5 53.5t-37.5 156.5v58q0 105 32 161.5t92 56.5q115 0 115 -218zM116 273h105q0 70 -13.5 111t-38.5 41t-39 -41t-14 -111zM213 -159l12 -25
q-16 -25 -55 -25q-33 0 -56 19t-23 54q0 29 20.5 57.5t41.5 42.5l21 15h26q-6 -6 -15 -16t-24.5 -39t-15.5 -56q0 -48 34 -48q10 0 18.5 5t12.5 11z" />
    <glyph glyph-name="Ecaron" unicode="&#x11a;" horiz-adv-x="336" 
d="M281 619h-152v-213h115v-58h-115v-290h152v-58h-226v677h226v-58zM222 820h52l-82 -93h-48l-82 93h53l53 -64z" />
    <glyph glyph-name="ecaron" unicode="&#x11b;" horiz-adv-x="329" 
d="M284 262v-36h-168q0 -177 76 -177q20 0 37.5 11.5t24.5 23.5l8 11l21 -46q-3 -6 -9 -15t-31.5 -24.5t-58.5 -15.5q-64 0 -101.5 53.5t-37.5 156.5v58q0 105 32 161.5t92 56.5q115 0 115 -218zM116 273h105q0 70 -13.5 111t-38.5 41t-39 -41t-14 -111zM218 620h52l-82 -93
h-48l-82 93h53l53 -64z" />
    <glyph glyph-name="Gbreve" unicode="&#x11e;" horiz-adv-x="390" 
d="M206 410h129v-294q-1 -5 -3 -13t-11.5 -29t-22 -37.5t-35.5 -29.5t-50 -13q-72 0 -115 78.5t-43 237.5v57q0 157 47 236.5t125 79.5q28 0 51.5 -11.5t33.5 -23.5l9 -11l-21 -45q-20 33 -65 33q-52 0 -79 -79t-27 -208q0 -287 85 -287q20 0 33 17.5t17 34.5l3 17v232h-61
v58zM272 818h36q0 -37 -26.5 -59.5t-67.5 -22.5t-67.5 22.5t-26.5 59.5h35q0 -14 16 -26t43 -12t42.5 12t15.5 26z" />
    <glyph glyph-name="gbreve" unicode="&#x11f;" horiz-adv-x="337" 
d="M237 474h55v-502q0 -181 -117 -181q-53 0 -81.5 35.5t-28.5 105.5h46q0 -38 14.5 -62t40.5 -24q55 0 55 126v72q-1 -2 -2.5 -5.5t-7.5 -12t-13.5 -15t-21 -12t-28.5 -5.5q-49 0 -76 52.5t-27 157.5v58q0 218 103 218q23 0 41.5 -12.5t24.5 -25.5l7 -12zM227 216v34
q0 79 -14 127t-41 48t-41.5 -48.5t-14.5 -126.5v-34q0 -77 14.5 -122t41.5 -45q55 0 55 167zM234 618h36q0 -37 -26.5 -59.5t-67.5 -22.5t-67.5 22.5t-26.5 59.5h35q0 -14 16 -26t43 -12t42.5 12t15.5 26z" />
    <glyph glyph-name="uni0122" unicode="&#x122;" horiz-adv-x="390" 
d="M206 410h129v-294q-1 -5 -3 -13t-11.5 -29t-22 -37.5t-35.5 -29.5t-50 -13q-72 0 -115 78.5t-43 237.5v57q0 157 47 236.5t125 79.5q28 0 51.5 -11.5t33.5 -23.5l9 -11l-21 -45q-20 33 -65 33q-52 0 -79 -79t-27 -208q0 -287 85 -287q20 0 33 17.5t17 34.5l3 17v232h-61
v58zM215 -48q32 0 54.5 -21t22.5 -56q0 -36 -26 -60t-64 -24q-21 0 -38.5 6.5t-24.5 12.5l-7 6l11 25q24 -21 54 -21q42 0 42 55q0 24 -9 38.5t-24 14.5q-12 0 -21 -6t-13 -12l-3 -5h-28l35 74h28l-15 -32q12 5 26 5z" />
    <glyph glyph-name="uni0123" unicode="&#x123;" horiz-adv-x="337" 
d="M237 474h55v-502q0 -181 -117 -181q-53 0 -81.5 35.5t-28.5 105.5h46q0 -38 14.5 -62t40.5 -24q55 0 55 126v72q-1 -2 -2.5 -5.5t-7.5 -12t-13.5 -15t-21 -12t-28.5 -5.5q-49 0 -76 52.5t-27 157.5v58q0 218 103 218q23 0 41.5 -12.5t24.5 -25.5l7 -12zM227 216v34
q0 79 -14 127t-41 48t-41.5 -48.5t-14.5 -126.5v-34q0 -77 14.5 -122t41.5 -45q55 0 55 167zM208 687l-48 -90h48v-98h-71v98l38 90h33z" />
    <glyph glyph-name="Imacron" unicode="&#x12a;" horiz-adv-x="184" 
d="M55 677h74v-677h-74v677zM1 793h183v-44h-183v44z" />
    <glyph glyph-name="imacron" unicode="&#x12b;" horiz-adv-x="168" 
d="M49 0v474h71v-474h-71zM-7 593h183v-44h-183v44z" />
    <glyph glyph-name="Iogonek" unicode="&#x12e;" horiz-adv-x="184" 
d="M55 677h74v-677h-74v677zM138 -159l12 -25q-16 -25 -55 -25q-33 0 -56 19t-23 54q0 29 21 57.5t41 42.5l21 15h26q-6 -6 -15 -16t-24.5 -39t-15.5 -56q0 -48 34 -48q10 0 18.5 5t11.5 11z" />
    <glyph glyph-name="iogonek" unicode="&#x12f;" horiz-adv-x="168" 
d="M49 0v474h71v-474h-71zM45 614h78v-71h-78v71zM132 -159l12 -25q-16 -25 -55 -25q-33 0 -56 19t-23 54q0 29 21 57.5t41 42.5l21 15h26q-6 -6 -15 -16t-24.5 -39t-15.5 -56q0 -48 34 -48q10 0 18.5 5t11.5 11z" />
    <glyph glyph-name="Idotaccent" unicode="&#x130;" horiz-adv-x="184" 
d="M55 677h74v-677h-74v677zM57 801h71v-63h-71v63z" />
    <glyph glyph-name="dotlessi" unicode="&#x131;" horiz-adv-x="168" 
d="M49 0v474h71v-474h-71z" />
    <glyph glyph-name="uni0136" unicode="&#x136;" horiz-adv-x="403" 
d="M212 442l136 -442h-78l-109 351l-32 -57v-294h-74v677h74v-245l137 245h77zM309 -48q32 0 54.5 -21t22.5 -56q0 -36 -26 -60t-64 -24q-21 0 -38.5 6.5t-24.5 12.5l-7 6l11 25q24 -21 54 -21q42 0 42 55q0 24 -9 38.5t-24 14.5q-12 0 -21 -6t-13 -12l-3 -5h-28l35 74h28
l-15 -32q12 5 26 5z" />
    <glyph glyph-name="uni0137" unicode="&#x137;" horiz-adv-x="337" 
d="M194 317l98 -317h-69l-72 241l-35 -62v-179h-71v701l71 18v-420l93 175h74zM260 -48q32 0 54.5 -21t22.5 -56q0 -36 -26 -60t-64 -24q-21 0 -38.5 6.5t-24.5 12.5l-7 6l11 25q24 -21 54 -21q42 0 42 55q0 24 -9 38.5t-24 14.5q-12 0 -21 -6t-12 -12l-4 -5h-28l35 74h28
l-15 -32q12 5 26 5z" />
    <glyph glyph-name="Lacute" unicode="&#x139;" horiz-adv-x="334" 
d="M129 58h150v-58h-224v677h74v-619zM113 821h68l-68 -93h-49z" />
    <glyph glyph-name="lacute" unicode="&#x13a;" horiz-adv-x="166" 
d="M45 701l71 18v-719h-71v701zM104 821h68l-68 -93h-49z" />
    <glyph glyph-name="uni013B" unicode="&#x13b;" horiz-adv-x="334" 
d="M129 58h150v-58h-224v677h74v-619zM175 -48q32 0 54.5 -21t22.5 -56q0 -36 -26 -60t-64 -24q-21 0 -38.5 6.5t-24.5 12.5l-7 6l11 25q24 -21 54 -21q42 0 42 55q0 24 -9 38.5t-24 14.5q-12 0 -21 -6t-13 -12l-3 -5h-28l35 74h28l-15 -32q12 5 26 5z" />
    <glyph glyph-name="uni013C" unicode="&#x13c;" horiz-adv-x="166" 
d="M45 701l71 18v-719h-71v701zM86 -48q32 0 54.5 -21t22.5 -56q0 -36 -26 -60t-64 -24q-21 0 -38.5 6.5t-24.5 12.5l-7 6l11 25q24 -21 54 -21q42 0 42 55q0 24 -9 38.5t-24 14.5q-12 0 -21 -6t-12 -12l-4 -5h-28l35 74h28l-15 -32q12 5 26 5z" />
    <glyph glyph-name="Lcaron" unicode="&#x13d;" horiz-adv-x="334" 
d="M129 58h150v-58h-224v677h74v-619zM147 820h52l-82 -93h-48l-82 93h53l53 -64z" />
    <glyph glyph-name="lcaron" unicode="&#x13e;" horiz-adv-x="166" 
d="M45 701l71 18v-719h-71v701zM166 677h71v-99l-38 -89h-33l48 89h-48v99z" />
    <glyph glyph-name="Lslash" unicode="&#x141;" horiz-adv-x="362" 
d="M102 58h150v-58h-224v309l-67 -13l-11 56l78 15v310h74v-295l93 18l11 -57l-104 -20v-265z" />
    <glyph glyph-name="lslash" unicode="&#x142;" horiz-adv-x="188" 
d="M185 398l11 -57l-93 -18v-323h-71v309l-81 -16l-11 57l92 18v333l71 18v-338z" />
    <glyph glyph-name="Nacute" unicode="&#x143;" horiz-adv-x="400" 
d="M273 677h72v-683h-72l-146 448v-442h-72v677h72l146 -449v449zM207 821h68l-68 -93h-49z" />
    <glyph glyph-name="nacute" unicode="&#x144;" horiz-adv-x="337" 
d="M186 480q106 0 106 -187v-293h-71v282q0 143 -52 143q-53 0 -53 -143v-282h-71v474h55l14 -39q24 45 72 45zM183 621h68l-68 -93h-49z" />
    <glyph glyph-name="uni0145" unicode="&#x145;" horiz-adv-x="400" 
d="M273 677h72v-683h-72l-146 448v-442h-72v677h72l146 -449v449zM313 -48q32 0 54.5 -21t22.5 -56q0 -36 -26 -60t-64 -24q-21 0 -38.5 6.5t-24.5 12.5l-7 6l11 25q24 -21 54 -21q42 0 42 55q0 24 -9 38.5t-24 14.5q-12 0 -21 -6t-13 -12l-3 -5h-28l35 74h28l-15 -32
q12 5 26 5z" />
    <glyph glyph-name="uni0146" unicode="&#x146;" horiz-adv-x="337" 
d="M186 480q106 0 106 -187v-293h-71v282q0 143 -52 143q-53 0 -53 -143v-282h-71v474h55l14 -39q24 45 72 45zM260 -48q32 0 54.5 -21t22.5 -56q0 -36 -26 -60t-64 -24q-21 0 -38.5 6.5t-24.5 12.5l-7 6l11 25q24 -21 54 -21q42 0 42 55q0 24 -9 38.5t-24 14.5
q-12 0 -21 -6t-12 -12l-4 -5h-28l35 74h28l-15 -32q12 5 26 5z" />
    <glyph glyph-name="Ncaron" unicode="&#x147;" horiz-adv-x="400" 
d="M273 677h72v-683h-72l-146 448v-442h-72v677h72l146 -449v449zM254 820h52l-82 -93h-48l-82 93h53l53 -64z" />
    <glyph glyph-name="ncaron" unicode="&#x148;" horiz-adv-x="337" 
d="M186 480q106 0 106 -187v-293h-71v282q0 143 -52 143q-53 0 -53 -143v-282h-71v474h55l14 -39q24 45 72 45zM231 620h52l-82 -93h-48l-82 93h53l53 -64z" />
    <glyph glyph-name="Omacron" unicode="&#x14c;" horiz-adv-x="416" 
d="M208 683q153 0 153 -316v-57q0 -316 -153 -316t-153 316v57q0 316 153 316zM208 51q37 0 57.5 76t20.5 211t-20.5 211t-57.5 76t-58 -76t-21 -211q0 -134 21 -210.5t58 -76.5zM117 793h183v-44h-183v44z" />
    <glyph glyph-name="omacron" unicode="&#x14d;" horiz-adv-x="349" 
d="M175 480q62 0 95.5 -57.5t33.5 -160.5v-58q0 -102 -33.5 -156t-95.5 -54q-63 0 -96.5 53.5t-33.5 156.5v58q0 103 33.5 160.5t96.5 57.5zM175 49q29 0 44 53t15 135t-15 135t-44 53t-44 -52.5t-15 -135.5t15 -135.5t44 -52.5zM83 593h183v-44h-183v44z" />
    <glyph glyph-name="Ohungarumlaut" unicode="&#x150;" horiz-adv-x="416" 
d="M208 683q153 0 153 -316v-57q0 -316 -153 -316t-153 316v57q0 316 153 316zM208 51q37 0 57.5 76t20.5 211t-20.5 211t-57.5 76t-58 -76t-21 -211q0 -134 21 -210.5t58 -76.5zM145 821h69l-49 -93h-49zM249 821h68l-65 -93h-48z" />
    <glyph glyph-name="ohungarumlaut" unicode="&#x151;" horiz-adv-x="349" 
d="M175 480q62 0 95.5 -57.5t33.5 -160.5v-58q0 -102 -33.5 -156t-95.5 -54q-63 0 -96.5 53.5t-33.5 156.5v58q0 103 33.5 160.5t96.5 57.5zM175 49q29 0 44 53t15 135t-15 135t-44 53t-44 -52.5t-15 -135.5t15 -135.5t44 -52.5zM118 621h69l-49 -93h-49zM222 621h68
l-65 -93h-48z" />
    <glyph glyph-name="OE" unicode="&#x152;" horiz-adv-x="568" 
d="M513 619h-152v-213h115v-58h-115v-290h152v-58h-227v58q-31 -64 -88 -64q-63 0 -103 79t-40 237v57q0 158 40 237t103 79q57 0 88 -64v58h227v-58zM293 321v35q0 118 -23 193.5t-59 75.5t-59 -75.5t-23 -193.5v-35q0 -119 23 -194.5t59 -75.5t59 75.5t23 194.5z" />
    <glyph glyph-name="oe" unicode="&#x153;" horiz-adv-x="517" 
d="M472 262v-36h-167q0 -177 75 -177q20 0 37.5 11.5t24.5 23.5l8 11l22 -46q-3 -6 -9 -15t-31.5 -24.5t-58.5 -15.5q-65 0 -102 54q-33 -54 -96 -54t-96.5 53.5t-33.5 156.5v58q0 103 33.5 160.5t96.5 57.5q59 0 93 -53q30 53 89 53q115 0 115 -218zM175 49q29 0 44 53
t15 135t-15 135t-44 53t-44 -52.5t-15 -135.5t15 -135.5t44 -52.5zM305 273h105q0 70 -14 111t-39 41t-38.5 -41t-13.5 -111z" />
    <glyph glyph-name="Racute" unicode="&#x154;" horiz-adv-x="380" 
d="M221 335l104 -335h-73l-101 327h-22v-327h-74v677h108q75 0 116.5 -44t41.5 -131q0 -137 -100 -167zM169 384q36 0 56.5 31t20.5 87t-20.5 86.5t-56.5 30.5h-40v-235h40zM181 821h68l-68 -93h-49z" />
    <glyph glyph-name="racute" unicode="&#x155;" horiz-adv-x="308" 
d="M196 480q19 0 36 -5t24 -11l7 -5l-26 -54q-19 20 -50 20q-33 0 -52 -40.5t-19 -117.5v-267h-71v474h55l15 -41q29 47 81 47zM152 621h68l-68 -93h-49z" />
    <glyph glyph-name="uni0156" unicode="&#x156;" horiz-adv-x="380" 
d="M221 335l104 -335h-73l-101 327h-22v-327h-74v677h108q75 0 116.5 -44t41.5 -131q0 -137 -100 -167zM169 384q36 0 56.5 31t20.5 87t-20.5 86.5t-56.5 30.5h-40v-235h40zM292 -48q32 0 54.5 -21t22.5 -56q0 -36 -26 -60t-64 -24q-21 0 -38.5 6.5t-24.5 12.5l-7 6l11 25
q24 -21 54 -21q42 0 42 55q0 24 -9 38.5t-24 14.5q-12 0 -21 -6t-12 -12l-4 -5h-28l35 74h28l-15 -32q12 5 26 5z" />
    <glyph glyph-name="uni0157" unicode="&#x157;" horiz-adv-x="308" 
d="M196 480q19 0 36 -5t24 -11l7 -5l-26 -54q-19 20 -50 20q-33 0 -52 -40.5t-19 -117.5v-267h-71v474h55l15 -41q29 47 81 47zM83 -48q32 0 54.5 -21t22.5 -56q0 -36 -26 -60t-64 -24q-21 0 -38.5 6.5t-24.5 12.5l-7 6l11 25q24 -21 54 -21q42 0 42 55q0 24 -9 38.5
t-24 14.5q-12 0 -21 -6t-13 -12l-3 -5h-28l35 74h28l-15 -32q12 5 26 5z" />
    <glyph glyph-name="Rcaron" unicode="&#x158;" horiz-adv-x="380" 
d="M221 335l104 -335h-73l-101 327h-22v-327h-74v677h108q75 0 116.5 -44t41.5 -131q0 -137 -100 -167zM169 384q36 0 56.5 31t20.5 87t-20.5 86.5t-56.5 30.5h-40v-235h40zM231 820h52l-82 -93h-48l-82 93h53l53 -64z" />
    <glyph glyph-name="rcaron" unicode="&#x159;" horiz-adv-x="308" 
d="M196 480q19 0 36 -5t24 -11l7 -5l-26 -54q-19 20 -50 20q-33 0 -52 -40.5t-19 -117.5v-267h-71v474h55l15 -41q29 47 81 47zM208 620h52l-82 -93h-48l-82 93h53l53 -64z" />
    <glyph glyph-name="Sacute" unicode="&#x15a;" horiz-adv-x="399" 
d="M134 536q0 -38 33 -93t72 -102.5t72 -106t33 -103.5q0 -61 -41 -102t-109 -41q-41 0 -75.5 15t-48.5 30l-15 15l23 50q5 -6 14 -15t38 -23.5t59 -14.5q80 0 80 91q0 40 -32.5 95.5t-72 102.5t-72 103.5t-32.5 99.5q0 62 39.5 101t105.5 39q34 0 63.5 -13.5t41.5 -27.5
l13 -13l-21 -45q-39 41 -92 41q-35 0 -55.5 -23.5t-20.5 -59.5zM189 821h68l-68 -93h-49z" />
    <glyph glyph-name="sacute" unicode="&#x15b;" horiz-adv-x="319" 
d="M119 371q0 -22 16 -47t38.5 -48.5l45.5 -48.5t39 -56.5t16 -63.5q0 -50 -32.5 -81.5t-85.5 -31.5q-30 0 -58 13t-40 25l-13 13l21 45q36 -41 85 -41q55 0 55 63q0 29 -24 62.5t-53.5 60.5t-53.5 65.5t-24 76.5q0 45 32 74t82 29q26 0 48.5 -11.5t32.5 -22.5l9 -12
l-19 -42q-25 33 -66 33q-24 0 -37.5 -15.5t-13.5 -38.5zM154 621h68l-68 -93h-49z" />
    <glyph glyph-name="uni015E" unicode="&#x15e;" horiz-adv-x="399" 
d="M134 536q0 -38 33 -93t72 -102.5t72 -106t33 -103.5q0 -61 -41 -102t-109 -41q-41 0 -75.5 15t-48.5 30l-15 15l23 50q5 -6 14 -15t38 -23.5t59 -14.5q80 0 80 91q0 40 -32.5 95.5t-72 102.5t-72 103.5t-32.5 99.5q0 62 39.5 101t105.5 39q34 0 63.5 -13.5t41.5 -27.5
l13 -13l-21 -45q-39 41 -92 41q-35 0 -55.5 -23.5t-20.5 -59.5zM208 -48q32 0 54.5 -21t22.5 -56q0 -36 -26 -60t-64 -24q-21 0 -38.5 6.5t-24.5 12.5l-7 6l11 25q24 -21 54 -21q42 0 42 55q0 24 -9 38.5t-24 14.5q-12 0 -21 -6t-12 -12l-4 -5h-28l35 74h28l-15 -32
q12 5 26 5z" />
    <glyph glyph-name="uni015F" unicode="&#x15f;" horiz-adv-x="319" 
d="M119 371q0 -22 16 -47t38.5 -48.5l45.5 -48.5t39 -56.5t16 -63.5q0 -50 -32.5 -81.5t-85.5 -31.5q-30 0 -58 13t-40 25l-13 13l21 45q36 -41 85 -41q55 0 55 63q0 29 -24 62.5t-53.5 60.5t-53.5 65.5t-24 76.5q0 45 32 74t82 29q26 0 48.5 -11.5t32.5 -22.5l9 -12
l-19 -42q-25 33 -66 33q-24 0 -37.5 -15.5t-13.5 -38.5zM167 -48q32 0 54.5 -21t22.5 -56q0 -36 -26 -60t-64 -24q-21 0 -38.5 6.5t-24.5 12.5l-7 6l11 25q24 -21 54 -21q42 0 42 55q0 24 -9 38.5t-24 14.5q-12 0 -21 -6t-13 -12l-3 -5h-28l35 74h28l-15 -32q12 5 26 5z" />
    <glyph glyph-name="Scaron" unicode="&#x160;" horiz-adv-x="399" 
d="M134 536q0 -38 33 -93t72 -102.5t72 -106t33 -103.5q0 -61 -41 -102t-109 -41q-41 0 -75.5 15t-48.5 30l-15 15l23 50q5 -6 14 -15t38 -23.5t59 -14.5q80 0 80 91q0 40 -32.5 95.5t-72 102.5t-72 103.5t-32.5 99.5q0 62 39.5 101t105.5 39q34 0 63.5 -13.5t41.5 -27.5
l13 -13l-21 -45q-39 41 -92 41q-35 0 -55.5 -23.5t-20.5 -59.5zM248 820h52l-82 -93h-48l-82 93h53l53 -64z" />
    <glyph glyph-name="scaron" unicode="&#x161;" horiz-adv-x="319" 
d="M119 371q0 -22 16 -47t38.5 -48.5l45.5 -48.5t39 -56.5t16 -63.5q0 -50 -32.5 -81.5t-85.5 -31.5q-30 0 -58 13t-40 25l-13 13l21 45q36 -41 85 -41q55 0 55 63q0 29 -24 62.5t-53.5 60.5t-53.5 65.5t-24 76.5q0 45 32 74t82 29q26 0 48.5 -11.5t32.5 -22.5l9 -12
l-19 -42q-25 33 -66 33q-24 0 -37.5 -15.5t-13.5 -38.5zM202 620h52l-82 -93h-48l-82 93h53l53 -64z" />
    <glyph glyph-name="uni0162" unicode="&#x162;" horiz-adv-x="409" 
d="M55 677h299v-58h-112v-619h-75v619h-112v58zM205 -48q32 0 54.5 -21t22.5 -56q0 -36 -26 -60t-64 -24q-21 0 -38.5 6.5t-24.5 12.5l-7 6l11 25q24 -21 54 -21q42 0 42 55q0 24 -9 38.5t-24 14.5q-12 0 -21 -6t-13 -12l-3 -5h-28l35 74h28l-15 -32q12 5 26 5z" />
    <glyph glyph-name="uni0163" unicode="&#x163;" horiz-adv-x="330" 
d="M200 480h85v-55h-85v-425h-71v425h-84v55h84v221l71 18v-239zM167 -48q32 0 54.5 -21t22.5 -56q0 -36 -26 -60t-64 -24q-21 0 -38.5 6.5t-24.5 12.5l-7 6l11 25q24 -21 54 -21q42 0 42 55q0 24 -9 38.5t-24 14.5q-12 0 -21 -6t-13 -12l-3 -5h-28l35 74h28l-15 -32
q12 5 26 5z" />
    <glyph glyph-name="Tcaron" unicode="&#x164;" horiz-adv-x="409" 
d="M55 677h299v-58h-112v-619h-75v619h-112v58zM258 820h52l-82 -93h-48l-82 93h53l53 -64z" />
    <glyph glyph-name="tcaron" unicode="&#x165;" horiz-adv-x="330" 
d="M200 480h85v-55h-85v-425h-71v425h-84v55h84v221l71 18v-239zM273 700h71v-99l-38 -89h-33l48 89h-48v99z" />
    <glyph glyph-name="Umacron" unicode="&#x16a;" horiz-adv-x="381" 
d="M252 677h74v-465q0 -218 -135 -218q-136 0 -136 218v465h74v-456q0 -91 15 -130.5t47 -39.5t46.5 39t14.5 131v456zM99 793h183v-44h-183v44z" />
    <glyph glyph-name="umacron" unicode="&#x16b;" horiz-adv-x="332" 
d="M216 474h71v-474h-55l-14 39q-24 -45 -72 -45q-106 0 -106 187v293h71v-282q0 -143 53 -143q52 0 52 143v282zM75 593h183v-44h-183v44z" />
    <glyph glyph-name="Uring" unicode="&#x16e;" horiz-adv-x="381" 
d="M252 677h74v-465q0 -218 -135 -218q-136 0 -136 218v465h74v-456q0 -91 15 -130.5t47 -39.5t46.5 39t14.5 131v456zM190 878q29 0 48.5 -23.5t19.5 -59.5t-19.5 -59.5t-48.5 -23.5t-48.5 23t-19.5 60t19.5 60t48.5 23zM190 747q13 0 21 13t8 35t-8 35t-21 13t-21 -13
t-8 -35t8 -35t21 -13z" />
    <glyph glyph-name="uring" unicode="&#x16f;" horiz-adv-x="332" 
d="M216 474h71v-474h-55l-14 39q-24 -45 -72 -45q-106 0 -106 187v293h71v-282q0 -143 53 -143q52 0 52 143v282zM166 678q29 0 48.5 -23.5t19.5 -59.5t-19.5 -59.5t-48.5 -23.5t-48.5 23t-19.5 60t19.5 60t48.5 23zM166 547q13 0 21 13t8 35t-8 35t-21 13t-21 -13t-8 -35
t8 -35t21 -13z" />
    <glyph glyph-name="Uhungarumlaut" unicode="&#x170;" horiz-adv-x="381" 
d="M252 677h74v-465q0 -218 -135 -218q-136 0 -136 218v465h74v-456q0 -91 15 -130.5t47 -39.5t46.5 39t14.5 131v456zM133 821h69l-49 -93h-49zM237 821h68l-65 -93h-48z" />
    <glyph glyph-name="uhungarumlaut" unicode="&#x171;" horiz-adv-x="332" 
d="M216 474h71v-474h-55l-14 39q-24 -45 -72 -45q-106 0 -106 187v293h71v-282q0 -143 53 -143q52 0 52 143v282zM113 621h69l-49 -93h-49zM217 621h68l-65 -93h-48z" />
    <glyph glyph-name="Uogonek" unicode="&#x172;" horiz-adv-x="381" 
d="M252 677h74v-465q0 -218 -135 -218q-136 0 -136 218v465h74v-456q0 -91 15 -130.5t47 -39.5t46.5 39t14.5 131v456zM220 -159l12 -25q-16 -25 -55 -25q-33 0 -56 19t-23 54q0 29 21 57.5t41 42.5l21 15h26q-6 -6 -15 -16t-24.5 -39t-15.5 -56q0 -48 34 -48q10 0 18.5 5
t11.5 11z" />
    <glyph glyph-name="uogonek" unicode="&#x173;" horiz-adv-x="332" 
d="M216 474h71v-474h-55l-14 39q-24 -45 -72 -45q-106 0 -106 187v293h71v-282q0 -143 53 -143q52 0 52 143v282zM272 -159l12 -25q-16 -25 -55 -25q-33 0 -56 19t-23 54q0 29 21 57.5t41 42.5l21 15h26q-6 -6 -15 -16t-24.5 -39t-15.5 -56q0 -48 34 -48q10 0 18.5 5
t11.5 11z" />
    <glyph glyph-name="Ydieresis" unicode="&#x178;" horiz-adv-x="437" 
d="M304 677h78l-127 -335v-342h-75v345l-125 332h80l85 -237zM131 729v60h59v-60h-59zM245 789h60v-60h-60v60z" />
    <glyph glyph-name="Zacute" unicode="&#x179;" horiz-adv-x="362" 
d="M58 677h249v-64l-177 -555h177v-58h-252v63l177 556h-174v58zM190 821h68l-68 -93h-49z" />
    <glyph glyph-name="zacute" unicode="&#x17a;" horiz-adv-x="301" 
d="M256 474v-55l-138 -364h138v-55h-211v55l139 364h-131v55h203zM156 621h68l-68 -93h-49z" />
    <glyph glyph-name="Zdotaccent" unicode="&#x17b;" horiz-adv-x="362" 
d="M58 677h249v-64l-177 -555h177v-58h-252v63l177 556h-174v58zM146 801h71v-63h-71v63z" />
    <glyph glyph-name="zdotaccent" unicode="&#x17c;" horiz-adv-x="301" 
d="M256 474v-55l-138 -364h138v-55h-211v55l139 364h-131v55h203zM115 601h71v-63h-71v63z" />
    <glyph glyph-name="Zcaron" unicode="&#x17d;" horiz-adv-x="362" 
d="M58 677h249v-64l-177 -555h177v-58h-252v63l177 556h-174v58zM242 820h52l-82 -93h-48l-82 93h53l53 -64z" />
    <glyph glyph-name="zcaron" unicode="&#x17e;" horiz-adv-x="301" 
d="M256 474v-55l-138 -364h138v-55h-211v55l139 364h-131v55h203zM210 620h52l-82 -93h-48l-82 93h53l53 -64z" />
    <glyph glyph-name="florin" unicode="&#x192;" horiz-adv-x="469" 
d="M335 683q22 0 40.5 -7.5t26.5 -15.5l7 -7l-19 -41q-18 21 -43 21q-54 0 -67 -131l-4 -42h108v-49h-113l-44 -439q-17 -181 -122 -181q-21 0 -39.5 7.5t-27.5 15.5l-8 7l19 41q19 -22 47 -22q50 0 63 132l43 439h-61v49h66l4 42q18 181 124 181z" />
    <glyph glyph-name="uni0218" unicode="&#x218;" horiz-adv-x="399" 
d="M134 536q0 -38 33 -93t72 -102.5t72 -106t33 -103.5q0 -61 -41 -102t-109 -41q-41 0 -75.5 15t-48.5 30l-15 15l23 50q5 -6 14 -15t38 -23.5t59 -14.5q80 0 80 91q0 40 -32.5 95.5t-72 102.5t-72 103.5t-32.5 99.5q0 62 39.5 101t105.5 39q34 0 63.5 -13.5t41.5 -27.5
l13 -13l-21 -45q-39 41 -92 41q-35 0 -55.5 -23.5t-20.5 -59.5zM173 -39h68l-68 -93h-49z" />
    <glyph glyph-name="uni0219" unicode="&#x219;" horiz-adv-x="319" 
d="M119 371q0 -22 16 -47t38.5 -48.5l45.5 -48.5t39 -56.5t16 -63.5q0 -50 -32.5 -81.5t-85.5 -31.5q-30 0 -58 13t-40 25l-13 13l21 45q36 -41 85 -41q55 0 55 63q0 29 -24 62.5t-53.5 60.5t-53.5 65.5t-24 76.5q0 45 32 74t82 29q26 0 48.5 -11.5t32.5 -22.5l9 -12
l-19 -42q-25 33 -66 33q-24 0 -37.5 -15.5t-13.5 -38.5zM145 -39h68l-68 -93h-49z" />
    <glyph glyph-name="uni021A" unicode="&#x21a;" horiz-adv-x="409" 
d="M55 677h299v-58h-112v-619h-75v619h-112v58zM173 -39h68l-68 -93h-49z" />
    <glyph glyph-name="uni021B" unicode="&#x21b;" horiz-adv-x="330" 
d="M200 480h85v-55h-85v-425h-71v425h-84v55h84v221l71 18v-239zM131 -39h68l-68 -93h-49z" />
    <glyph glyph-name="sc.g" unicode="&#x262;" horiz-adv-x="348" 
d="M178 343h120v-238q-1 -5 -3 -12t-10 -26.5t-19.5 -34t-32.5 -26.5t-46 -12q-64 0 -100.5 67.5t-36.5 190.5v58q0 124 42 191t110 67q25 0 45 -10t27 -20l8 -11l-19 -41q-19 27 -56 27q-86 0 -86 -232t69 -232q15 0 25 14t13 28l3 14v184h-53v54z" />
    <glyph glyph-name="sc.i" unicode="&#x26a;" horiz-adv-x="171" 
d="M50 562h71v-562h-71v562z" />
    <glyph glyph-name="sc.n" unicode="&#x274;" horiz-adv-x="352" 
d="M235 562h67v-568h-67l-118 346v-340h-67v562h67l118 -347v347z" />
    <glyph glyph-name="sc.r" unicode="&#x280;" horiz-adv-x="346" 
d="M296 400q0 -123 -87 -153l77 -247h-67l-74 239h-24v-239h-71v562h99q147 0 147 -162zM161 294q31 0 47.5 29.5t16.5 76.5q0 48 -16.5 77.5t-47.5 29.5h-40v-213h40z" />
    <glyph glyph-name="sc.x" unicode="&#x28e;" horiz-adv-x="420" 
d="M247 291l123 -291h-71l-88 208l-88 -208h-73l124 294l-113 268h71l78 -185l78 185h73z" />
    <glyph glyph-name="sc.y" unicode="&#x28f;" horiz-adv-x="413" 
d="M241 273v-273h-71v278l-120 284h78l80 -211l80 211h75z" />
    <glyph glyph-name="sc.b" unicode="&#x299;" horiz-adv-x="339" 
d="M208 292q3 -1 8.5 -4t19.5 -14t24.5 -25t19.5 -39.5t9 -54.5q0 -155 -142 -155h-97v562h102q58 0 90 -41t32 -109q0 -39 -16.5 -69t-33.5 -41zM121 507v-187h27q29 0 42 27.5t13 65.5t-13 66t-42 28h-27zM156 55q32 0 47 30t15 75q0 44 -15 74.5t-47 30.5h-35v-210h35z
" />
    <glyph glyph-name="sc.h" unicode="&#x29c;" horiz-adv-x="351" 
d="M230 562h71v-562h-71v253h-109v-253h-71v562h71v-254h109v254z" />
    <glyph glyph-name="sc.l" unicode="&#x29f;" horiz-adv-x="306" 
d="M121 55h135v-55h-206v562h71v-507z" />
    <glyph glyph-name="circumflex" unicode="&#x2c6;" horiz-adv-x="282" 
d="M165 621l82 -93h-52l-54 64l-53 -64h-53l82 93h48z" />
    <glyph glyph-name="caron" unicode="&#x2c7;" horiz-adv-x="282" 
d="M195 620h52l-82 -93h-48l-82 93h53l53 -64z" />
    <glyph glyph-name="uni02C9" unicode="&#x2c9;" horiz-adv-x="253" 
d="M35 593h183v-44h-183v44z" />
    <glyph glyph-name="breve" unicode="&#x2d8;" horiz-adv-x="258" 
d="M187 618h36q0 -37 -26.5 -59.5t-67.5 -22.5t-67.5 22.5t-26.5 59.5h35q0 -14 16 -26t43 -12t42.5 12t15.5 26z" />
    <glyph glyph-name="dotaccent" unicode="&#x2d9;" horiz-adv-x="141" 
d="M35 601h71v-63h-71v63z" />
    <glyph glyph-name="ring" unicode="&#x2da;" horiz-adv-x="206" 
d="M103 678q29 0 48.5 -23.5t19.5 -59.5t-19.5 -59.5t-48.5 -23.5t-48.5 23t-19.5 60t19.5 60t48.5 23zM103 547q13 0 21 13t8 35t-8 35t-21 13t-21 -13t-8 -35t8 -35t21 -13z" />
    <glyph glyph-name="ogonek" unicode="&#x2db;" horiz-adv-x="204" 
d="M157 -159l12 -25q-16 -25 -55 -25q-33 0 -56 19t-23 54q0 29 20.5 57.5t41.5 42.5l21 15h26q-6 -6 -15 -16t-24.5 -39t-15.5 -56q0 -48 34 -48q10 0 18.5 5t12.5 11z" />
    <glyph glyph-name="tilde" unicode="&#x2dc;" horiz-adv-x="238" 
d="M167 603h36q0 -23 -13 -39t-40 -16q-17 0 -39 10t-31.5 10t-9.5 -20h-35q0 23 12.5 39t39.5 16q12 0 25 -4t22 -8.5t17 -6.5t12 2t4 17z" />
    <glyph glyph-name="hungarumlaut" unicode="&#x2dd;" horiz-adv-x="271" 
d="M64 621h69l-49 -93h-49zM168 621h68l-65 -93h-48z" />
    <glyph glyph-name="pi" unicode="&#x3c0;" horiz-adv-x="481" 
d="M418 64l18 -38q-2 -4 -5.5 -9t-19 -14t-34.5 -9q-40 0 -70 34.5t-30 114.5v276h-92v-419h-71v419h-69v55h372v-55h-69v-300q0 -29 11.5 -49.5t29.5 -20.5q10 0 17 3.5t10 7.5z" />
    <glyph glyph-name="sc.a" unicode="&#x1d00;" horiz-adv-x="419" 
d="M227 562l142 -562h-73l-30 131h-117l-30 -131h-69l142 562h35zM160 178h95l-47 209z" />
    <glyph glyph-name="sc.c" unicode="&#x1d04;" horiz-adv-x="340" 
d="M226 49q17 0 30.5 6t19.5 13l5 6l19 -41q-3 -4 -8.5 -10.5t-27.5 -17.5t-49 -11q-71 0 -118 69t-47 189v58q0 123 43 190.5t117 67.5q26 0 48.5 -11.5t31.5 -22.5l10 -12l-19 -41q-22 32 -63 32q-48 0 -72.5 -60t-24.5 -172q0 -109 28.5 -170.5t76.5 -61.5z" />
    <glyph glyph-name="sc.d" unicode="&#x1d05;" horiz-adv-x="344" 
d="M153 562q141 0 141 -252v-58q0 -252 -141 -252h-103v562h103zM157 55q66 0 66 226t-66 226h-36v-452h36z" />
    <glyph glyph-name="sc.e" unicode="&#x1d07;" horiz-adv-x="299" 
d="M249 507h-128v-160h102v-55h-102v-237h128v-55h-199v562h199v-55z" />
    <glyph glyph-name="sc.j" unicode="&#x1d0a;" horiz-adv-x="307" 
d="M186 562h71v-411q0 -157 -110 -157q-27 0 -51.5 9t-35.5 18l-10 9l22 47q26 -28 66 -28q48 0 48 96v417z" />
    <glyph glyph-name="sc.k" unicode="&#x1d0b;" horiz-adv-x="360" 
d="M195 371l115 -371h-67l-89 298l-33 -60v-238h-71v562h71v-203l108 203h73z" />
    <glyph glyph-name="sc.m" unicode="&#x1d0d;" horiz-adv-x="466" 
d="M379 562l37 -562h-71l-16 369l-69 -375h-57l-64 356l-22 -350h-67l37 562h75l74 -333l71 333h72z" />
    <glyph glyph-name="sc.o" unicode="&#x1d0f;" horiz-adv-x="364" 
d="M182 568q132 0 132 -258v-58q0 -258 -132 -258t-132 258v58q0 258 132 258zM182 49q61 0 61 232t-61 232t-61 -232t61 -232z" />
    <glyph glyph-name="sc.p" unicode="&#x1d18;" horiz-adv-x="335" 
d="M153 562q63 0 97.5 -41t34.5 -124q0 -82 -34.5 -123t-97.5 -41h-32v-233h-71v562h103zM157 288q29 0 43 31t14 78q0 48 -14 79t-43 31h-36v-219h36z" />
    <glyph glyph-name="sc.t" unicode="&#x1d1b;" horiz-adv-x="349" 
d="M50 562h249v-55h-89v-507h-71v507h-89v55z" />
    <glyph glyph-name="sc.u" unicode="&#x1d1c;" horiz-adv-x="339" 
d="M218 562h71v-408q0 -73 -31.5 -116.5t-88.5 -43.5t-88 43.5t-31 116.5v408h71v-426q0 -43 13.5 -65t34.5 -22q22 0 35.5 22t13.5 65v426z" />
    <glyph glyph-name="sc.v" unicode="&#x1d20;" horiz-adv-x="402" 
d="M282 562h70l-133 -562h-36l-133 562h74l79 -372z" />
    <glyph glyph-name="sc.w" unicode="&#x1d21;" horiz-adv-x="574" 
d="M453 562h71l-123 -562h-40l-74 390l-75 -390h-40l-122 562h74l71 -353l63 353h62l62 -353z" />
    <glyph glyph-name="sc.z" unicode="&#x1d22;" horiz-adv-x="313" 
d="M263 507l-138 -452h138v-55h-213v55l138 452h-130v55h205v-55z" />
    <glyph glyph-name="endash" unicode="&#x2013;" horiz-adv-x="403" 
d="M50 267h303v-55h-303v55z" />
    <glyph glyph-name="emdash" unicode="&#x2014;" horiz-adv-x="548" 
d="M50 267h448v-55h-448v55z" />
    <glyph glyph-name="quoteleft" unicode="&#x2018;" horiz-adv-x="141" 
d="M106 677l-48 -90h48v-98h-71v98l38 90h33z" />
    <glyph glyph-name="quoteright" unicode="&#x2019;" horiz-adv-x="141" 
d="M35 677h71v-99l-38 -89h-33l48 89h-48v99z" />
    <glyph glyph-name="quotesinglbase" unicode="&#x201a;" horiz-adv-x="161" 
d="M45 99h71v-99l-38 -90h-33l48 90h-48v99z" />
    <glyph glyph-name="quotedblleft" unicode="&#x201c;" horiz-adv-x="251" 
d="M73 677h33l-48 -90h48v-98h-71v98zM216 677l-48 -90h48v-98h-71v98l38 90h33z" />
    <glyph glyph-name="quotedblright" unicode="&#x201d;" horiz-adv-x="251" 
d="M145 677h71v-99l-38 -89h-33l48 89h-48v99zM35 578v99h71v-99l-38 -89h-33l48 89h-48z" />
    <glyph glyph-name="quotedblbase" unicode="&#x201e;" horiz-adv-x="271" 
d="M155 99h71v-99l-38 -90h-33l48 90h-48v99zM45 0v99h71v-99l-38 -90h-33l48 90h-48z" />
    <glyph glyph-name="dagger" unicode="&#x2020;" horiz-adv-x="405" 
d="M238 472h112v-54h-112v-621h-71v621h-112v54h112v205h71v-205z" />
    <glyph glyph-name="daggerdbl" unicode="&#x2021;" horiz-adv-x="405" 
d="M350 418h-112v-362h112v-55h-112v-204h-71v204h-112v55h112v362h-112v54h112v205h71v-205h112v-54z" />
    <glyph glyph-name="bullet" unicode="&#x2022;" horiz-adv-x="209" 
d="M60 383h89v-89h-89v89z" />
    <glyph glyph-name="ellipsis" unicode="&#x2026;" horiz-adv-x="492" 
d="M45 74h74v-74h-74v74zM209 74h74v-74h-74v74zM373 74h74v-74h-74v74z" />
    <glyph glyph-name="perthousand" unicode="&#x2030;" horiz-adv-x="892" 
d="M285 503q0 -83 -31.5 -131.5t-81.5 -48.5t-81 48.5t-31 131.5q0 84 31 132t81 48q51 0 82 -48t31 -132zM115 503q0 -58 15.5 -93.5t41.5 -35.5q27 0 42.5 35.5t15.5 93.5q0 59 -15.5 94t-42.5 35q-26 0 -41.5 -35t-15.5 -94zM463 353q50 0 81 -48t31 -131q0 -84 -31 -132
t-81 -48t-81 48t-31 132q0 83 31 131t81 48zM463 45q27 0 42 35t15 94q0 58 -15 93t-42 35q-26 0 -41.5 -35t-15.5 -93q0 -59 15.5 -94t41.5 -35zM719 353q50 0 81.5 -48t31.5 -131q0 -84 -31 -132t-82 -48q-50 0 -81 48t-31 132q0 83 31 131t81 48zM719 45q27 0 42.5 35
t15.5 94q0 58 -15.5 93t-42.5 35q-26 0 -41.5 -35t-15.5 -93q0 -59 15.5 -94t41.5 -35zM401 677h58l-233 -677h-58z" />
    <glyph glyph-name="guilsinglleft" unicode="&#x2039;" horiz-adv-x="259" 
d="M209 389l-120 -148l120 -148l-43 -34l-116 144v77l116 144z" />
    <glyph glyph-name="guilsinglright" unicode="&#x203a;" horiz-adv-x="259" 
d="M93 424l116 -144v-77l-116 -144l-43 34l119 148l-119 148z" />
    <glyph glyph-name="fraction" unicode="&#x2044;" horiz-adv-x="72" 
d="M124 677h58l-234 -677h-58z" />
    <glyph glyph-name="Euro" unicode="&#x20ac;" horiz-adv-x="454" 
d="M374 81l20 -43q-3 -5 -10 -12.5t-32 -19.5t-55 -12q-71 0 -118 68.5t-57 204.5h-62v49h273l-23 -49h-119q9 -98 39 -159t75 -61q20 0 37.5 8.5t24.5 16.5zM342 410l-23 -49h-259v49h62q11 134 59.5 203.5t115.5 69.5q29 0 53 -11.5t34 -22.5l9 -11l-20 -42q-26 33 -66 33
q-47 0 -77 -60.5t-39 -158.5h151z" />
    <glyph glyph-name="uni20BA" unicode="&#x20ba;" horiz-adv-x="463" 
d="M334 297h69q0 -297 -256 -297v360l-87 -33v53l87 33v47l-87 -32v52l87 33v164h68v-139l120 44v-52l-120 -45v-47l120 44v-53l-120 -44v-322q119 37 119 234z" />
    <glyph glyph-name="uni20BD" unicode="&#x20bd;" horiz-adv-x="441" 
d="M243 348h-53v-103h146v-50h-146v-195h-69v195h-61v50h61v432h122q138 0 138 -164q0 -165 -138 -165zM190 623v-221h46q76 0 76 111q0 110 -76 110h-46z" />
    <glyph glyph-name="Bitcoin" unicode="&#x20bf;" horiz-adv-x="444" 
d="M287 357q4 -1 10.5 -3.5t23 -12.5t29.5 -23.5t23.5 -39.5t10.5 -57q0 -56 -27.5 -91.5t-76.5 -47.5v-88h-50v83h-34v-83h-50v83h-86v54h67v415h-67v54h86v83h50v-83h34v83h50v-90q81 -25 81 -121q0 -27 -7.5 -48.5t-18.5 -33.5t-22 -20t-19 -10zM196 546v-170h36
q27 0 43.5 23.5t16.5 61.5t-16.5 61.5t-43.5 23.5h-36zM238 131q34 0 55.5 26.5t21.5 69.5t-21.5 69.5t-55.5 26.5h-42v-192h42z" />
    <glyph glyph-name="uni2113" unicode="&#x2113;" horiz-adv-x="359" 
d="M246 49q13 0 24 6.5t16 12.5l4 7l18 -39q-2 -5 -7 -12t-23.5 -18.5t-41.5 -11.5q-46 0 -78.5 39t-32.5 119v31l-59 -40l-21 45q37 18 80 54v266q0 86 26 130.5t70 44.5q93 0 93 -175q0 -138 -118 -262v-79q0 -118 50 -118zM228 628q-32 0 -32 -120v-189q63 86 63 189
q0 120 -31 120z" />
    <glyph glyph-name="Sound" unicode="&#x2117;" 
d="M414 527q44 0 71.5 -26.5t27.5 -78.5t-27.5 -78.5t-71.5 -26.5h-21v-167h-52v377h73zM414 357q23 0 35.5 18.5t12.5 46.5t-12.5 46.5t-35.5 18.5h-21v-130h21zM405 683q143 0 243.5 -101t100.5 -244q0 -142 -100.5 -243t-243.5 -101t-244 100.5t-101 243.5t101 244
t244 101zM616 127q40 38 65 95q23 57 23 116q0 60 -23 117q-25 57 -65 95q-39 41 -95 64q-55 24 -116 24t-117 -24q-56 -23 -95 -64q-40 -38 -65 -95q-23 -57 -23 -117q0 -59 23 -116q25 -57 65 -95q41 -42 95 -65q57 -23 117 -23q59 0 116 23q54 23 95 65z" />
    <glyph glyph-name="trademark" unicode="&#x2122;" horiz-adv-x="478" 
d="M60 647v30h157v-30h-59v-247h-39v247h-59zM392 677l26 -277h-38l-15 171l-34 -175h-11l-34 175l-17 -171h-33l27 277h38l26 -151l31 151h34z" />
    <glyph glyph-name="uni2126" unicode="&#x2126;" horiz-adv-x="516" 
d="M466 419q0 -105 -36.5 -210.5t-86.5 -150.5h114v-58h-165v58q4 4 10.5 11.5t24 38t30.5 68.5t23.5 105t10.5 145q0 92 -36.5 145.5t-96.5 53.5t-97 -53.5t-37 -145.5q0 -78 10.5 -144.5t25 -106t29 -67.5t25.5 -39l10 -11v-58h-165v58h114q-50 45 -86.5 150t-36.5 211
q0 119 55 191.5t153 72.5t153 -72.5t55 -191.5z" />
    <glyph glyph-name="estimated" unicode="&#x212e;" horiz-adv-x="665" 
d="M332 678q121 0 202 -91t81 -233h-502v-170q32 -70 89 -112.5t130 -42.5q39 0 74 11t57.5 27t40 32t24.5 27l8 11l22 -19q-3 -5 -8.5 -13t-26.5 -28t-45 -35.5t-63.5 -28.5t-82.5 -13q-119 0 -200.5 100t-81.5 239q0 143 81 241t201 98zM552 384v124q-32 65 -88.5 102.5
t-131.5 37.5q-74 0 -131 -41t-88 -110v-113h439z" />
    <glyph glyph-name="oneseventh" unicode="&#x2150;" horiz-adv-x="528" 
d="M316 360h157v-43q-15 -23 -39 -89q-37 -109 -37 -218v-10h-57v10q0 115 41 229q15 41 32 70h-97v51zM144 317h-57v302l-32 -8v49l89 23v-366zM326 677h58l-234 -677h-58z" />
    <glyph glyph-name="oneninth" unicode="&#x2151;" horiz-adv-x="512" 
d="M374 363q38 0 60.5 -37t22.5 -107q0 -46 -10.5 -86.5t-25.5 -66t-29.5 -44.5t-25.5 -27l-10 -8l-21 45q34 26 55 74q-8 -3 -17 -3q-36 0 -59 35t-23 95q0 61 23 95.5t60 34.5zM374 151q27 0 27 82t-27 82q-26 0 -26 -82t26 -82zM144 317h-57v302l-32 -8v49l89 23v-366z
M326 677h58l-234 -677h-58z" />
    <glyph glyph-name="onetenth" unicode="&#x2152;" horiz-adv-x="665" 
d="M524 363q41 0 63.5 -48t22.5 -135t-22.5 -135t-63.5 -48q-42 0 -64.5 48t-22.5 135t22.5 135t64.5 48zM524 45q29 0 29 135t-29 135q-30 0 -30 -135t30 -135zM304 294v49l89 23v-366h-57v302zM144 317h-57v302l-32 -8v49l89 23v-366zM326 677h58l-234 -677h-58z" />
    <glyph glyph-name="onethird" unicode="&#x2153;" horiz-adv-x="500" 
d="M144 317h-57v302l-32 -8v49l89 23v-366zM326 677h58l-234 -677h-58zM405 188q4 -3 11 -9.5t18 -29t11 -48.5q0 -47 -22.5 -75.5t-61.5 -28.5q-20 0 -37.5 8t-24.5 16l-7 8l18 39q14 -23 41 -23q37 0 37 60q0 23 -7.5 41t-21.5 18h-31v49h31q11 0 17.5 14.5t6.5 36.5
q0 23 -9.5 37t-24.5 14q-9 0 -17 -6t-12 -12l-4 -6l-18 39q19 33 61 33q35 0 58 -26.5t23 -67.5q0 -25 -9 -45t-17 -28z" />
    <glyph glyph-name="twothirds" unicode="&#x2154;" horiz-adv-x="530" 
d="M435 188q4 -3 11 -9.5t18 -29t11 -48.5q0 -47 -22 -75.5t-62 -28.5q-20 0 -37.5 8t-24.5 16l-7 8l18 39q15 -23 42 -23q36 0 36 60q0 24 -7 41.5t-21 17.5h-32v49h32q23 0 23 51q0 23 -9.5 37t-24.5 14q-8 0 -16 -6t-12 -12l-4 -6l-19 39q19 33 61 33q35 0 58 -26.5
t23 -67.5q0 -25 -9 -45t-17 -28zM193 365v-48h-116l-22 32q10 15 25 39.5t40 87t25 109.5q0 18 -8 32t-22 14q-10 0 -19.5 -6.5t-13.5 -12.5l-4 -7l-20 42q20 33 64 33q31 0 55.5 -26.5t24.5 -68.5q0 -81 -84 -220h75zM356 677h58l-233 -677h-59z" />
    <glyph glyph-name="onefifth" unicode="&#x2155;" horiz-adv-x="505" 
d="M429 202q21 -31 21 -86t-23 -87q-24 -32 -64 -32q-17 0 -33 7.5t-24 14.5l-7 7l20 43q17 -24 40 -24q16 0 25.5 19t9.5 52q0 70 -32 70q-6 0 -12 -4t-9 -8l-3 -4l-25 27l9 163h116v-49h-62l-4 -76q38 -2 57 -33zM144 317h-57v302l-32 -8v49l89 23v-366zM326 677h58
l-234 -677h-58z" />
    <glyph glyph-name="twofifths" unicode="&#x2156;" horiz-adv-x="536" 
d="M193 365v-48h-116l-22 32q10 15 25 39.5t40 87t25 109.5q0 18 -8 32t-22 14q-10 0 -19.5 -6.5t-13.5 -12.5l-4 -7l-20 42q20 33 64 33q31 0 55.5 -26.5t24.5 -68.5q0 -81 -84 -220h75zM460 202q21 -31 21 -86t-23 -87q-24 -32 -64 -32q-17 0 -33 7.5t-23 14.5l-8 7l20 43
q17 -24 40 -24q15 0 24.5 19t9.5 52q0 70 -31 70q-6 0 -12 -4t-9 -8l-3 -4l-25 27l9 163h116v-49h-62l-4 -76q36 -2 57 -33zM357 677h58l-234 -677h-58z" />
    <glyph glyph-name="threefifths" unicode="&#x2157;" horiz-adv-x="533" 
d="M208 418q0 -47 -22.5 -75.5t-61.5 -28.5q-20 0 -37 8t-25 16l-7 8l18 39q14 -23 41 -23q37 0 37 60q0 59 -29 59h-31v49h31q24 0 24 51q0 23 -9.5 36.5t-24.5 13.5q-8 0 -16.5 -5.5t-12.5 -11.5l-4 -6l-18 39q19 33 61 33q35 0 58 -26.5t23 -67.5q0 -25 -8.5 -45
t-17.5 -28l-9 -8q4 -3 11 -9.5t18 -29t11 -48.5zM457 202q21 -31 21 -86t-23 -87q-24 -32 -64 -32q-17 0 -33 7.5t-24 14.5l-7 7l20 43q17 -24 40 -24q15 0 24.5 19t9.5 52q0 70 -31 70q-6 0 -12 -4t-9 -8l-3 -4l-25 27l8 163h117v-49h-62l-4 -76q36 -2 57 -33zM354 677h58
l-234 -677h-58z" />
    <glyph glyph-name="fourfifths" unicode="&#x2158;" horiz-adv-x="558" 
d="M482 202q21 -31 21 -86q0 -56 -24 -87q-23 -32 -63 -32q-17 0 -33.5 7.5t-24.5 14.5l-7 7l20 43q17 -24 40 -24q16 0 25.5 19t9.5 52q0 70 -32 70q-5 0 -11 -4t-9 -8l-4 -4l-25 27l9 163h117v-49h-63l-4 -76q37 -2 58 -33zM378 677h58l-233 -677h-58zM151 317v115h-96v35
l105 210h45v-197h33v-48h-33v-115h-54zM105 480h49v99z" />
    <glyph glyph-name="onesixth" unicode="&#x2159;" horiz-adv-x="493" 
d="M360 257q30 0 54 -29t24 -101q0 -63 -22 -96.5t-59 -33.5q-39 0 -61.5 36t-22.5 108q0 44 11 84t26.5 66t31.5 46t27 29l11 9l21 -46q-32 -30 -54 -74q8 2 13 2zM356 45q11 0 18.5 24t7.5 58t-7.5 58t-18.5 24q-12 0 -19.5 -24t-7.5 -58t7.5 -58t19.5 -24zM144 317h-57
v302l-32 -8v49l89 23v-366zM326 677h58l-234 -677h-58z" />
    <glyph glyph-name="fivesixths" unicode="&#x215a;" horiz-adv-x="508" 
d="M183 346q-24 -32 -64 -32q-17 0 -33 7t-24 15l-7 7l20 43q17 -24 40 -24q15 0 24.5 19t9.5 52q0 70 -31 70q-6 0 -12 -4t-9 -8l-3 -4l-25 27l9 163h116v-49h-62l-4 -76q36 -2 57 -33t21 -86t-23 -87zM375 257q30 0 54 -29t24 -101q0 -63 -22 -96.5t-59 -33.5
q-38 0 -60.5 36t-22.5 108q0 44 11 84t26.5 66t31 46t26.5 29l11 9l21 -46q-31 -30 -54 -74q8 2 13 2zM371 45q11 0 18.5 24t7.5 58t-7.5 58t-18.5 24q-12 0 -19.5 -24t-7.5 -58t7.5 -58t19.5 -24zM341 677h58l-234 -677h-58z" />
    <glyph glyph-name="oneeigth" unicode="&#x215b;" horiz-adv-x="523" 
d="M438 191q30 -30 30 -86q0 -51 -24 -80q-23 -28 -61 -28q-37 0 -60 28q-25 30 -25 80q0 56 30 86q-24 27 -24 74q0 44 22 70q22 28 57 28q36 0 58 -28t22 -70q0 -47 -25 -74zM383 315q-10 0 -16 -14.5t-6 -37.5q0 -21 6 -35t16 -14t16.5 14t6.5 35q0 52 -23 52zM402 60
q9 16 9 45t-9 46q-7 14 -19 14t-19 -14q-9 -16 -9 -46q0 -29 9 -45q8 -15 19 -15t19 15zM144 317h-57v302l-32 -8v49l89 23v-366zM326 677h58l-234 -677h-58z" />
    <glyph glyph-name="threeeigths" unicode="&#x215c;" horiz-adv-x="550" 
d="M208 418q0 -47 -22.5 -75.5t-61.5 -28.5q-20 0 -37 8t-25 16l-7 8l18 39q14 -23 41 -23q37 0 37 60q0 59 -29 59h-31v49h31q24 0 24 51q0 23 -9.5 36.5t-24.5 13.5q-8 0 -16.5 -5.5t-12.5 -11.5l-4 -6l-18 39q19 33 61 33q35 0 58 -26.5t23 -67.5q0 -25 -8.5 -45
t-17.5 -28l-9 -8q4 -3 11 -9.5t18 -29t11 -48.5zM465 191q30 -30 30 -86q0 -51 -24 -80q-23 -28 -61 -28q-37 0 -60 28q-25 30 -25 80q0 56 30 86q-24 27 -24 74q0 44 22 70q22 28 57 28q36 0 58 -28t22 -70q0 -47 -25 -74zM410 315q-10 0 -16 -14.5t-6 -37.5q0 -21 6 -35
t16 -14t16.5 14t6.5 35q0 22 -6.5 37t-16.5 15zM429 60q9 16 9 45t-9 46q-7 14 -19 14t-19 -14q-9 -16 -9 -46q0 -29 9 -45q7 -15 19 -15t19 15zM353 677h58l-234 -677h-58z" />
    <glyph glyph-name="fiveeigths" unicode="&#x215d;" horiz-adv-x="540" 
d="M183 346q-24 -32 -64 -32q-17 0 -33 7t-24 15l-7 7l20 43q17 -24 40 -24q15 0 24.5 19t9.5 52q0 70 -31 70q-6 0 -12 -4t-9 -8l-3 -4l-25 27l9 163h116v-49h-62l-4 -76q36 -2 57 -33t21 -86t-23 -87zM455 191q30 -28 30 -86q0 -51 -24 -80q-23 -28 -61 -28q-37 0 -60 28
q-24 29 -24 80q0 58 30 86q-25 27 -25 74q0 42 22 70t57 28q36 0 58 -28t22 -70q0 -47 -25 -74zM400 315q-10 0 -16 -14.5t-6 -37.5q0 -21 6 -35t16 -14t16.5 14t6.5 35q0 52 -23 52zM420 60q8 18 8 45q0 28 -8 46q-7 14 -20 14q-12 0 -19 -14q-9 -20 -9 -46q0 -25 9 -45
q7 -15 19 -15t20 15zM343 677h58l-234 -677h-58z" />
    <glyph glyph-name="seveneigths" unicode="&#x215e;" horiz-adv-x="514" 
d="M80 327q0 118 40 229q15 41 32 70h-97v51h157v-43q0 -1 -2.5 -5.5t-6 -12l-8.5 -18t-10.5 -25t-10.5 -29.5q-37 -107 -37 -217v-10h-57v10zM429 191q30 -30 30 -86q0 -51 -24 -80q-23 -28 -61 -28q-37 0 -60 28q-24 29 -24 80q0 58 30 86q-25 27 -25 74q0 42 22 70t57 28
q36 0 58 -28t22 -70q0 -47 -25 -74zM374 315q-10 0 -16 -14.5t-6 -37.5q0 -21 6 -35t16 -14t16.5 14t6.5 35q0 52 -23 52zM394 60q8 18 8 45q0 28 -8 46q-7 14 -20 14q-12 0 -19 -14q-9 -20 -9 -46q0 -25 9 -45q7 -15 19 -15t20 15zM317 677h58l-234 -677h-58z" />
    <glyph glyph-name="numeratorone" unicode="&#x215f;" horiz-adv-x="439" 
d="M144 317h-57v302l-32 -8v49l89 23v-366zM326 677h58l-234 -677h-58z" />
    <glyph glyph-name="zerothirds" unicode="&#x2189;" horiz-adv-x="529" 
d="M434 188q4 -3 11 -9.5t18 -29t11 -48.5q0 -47 -22 -75.5t-62 -28.5q-20 0 -37 8t-25 16l-7 8l19 39q14 -23 41 -23q17 0 27 16t10 44q0 23 -7.5 41t-21.5 18h-32v49h32q11 0 17.5 14.5t6.5 36.5q0 23 -10 37t-25 14q-8 0 -16 -6t-12 -12l-4 -6l-18 39q18 33 60 33
q35 0 58.5 -26.5t23.5 -67.5q0 -25 -9 -45t-18 -28zM228 497q0 -86 -23 -134.5t-64 -48.5t-63.5 48t-22.5 135q0 86 22.5 134.5t63.5 48.5t64 -48.5t23 -134.5zM112 497q0 -135 29 -135q30 0 30 135q0 134 -30 134q-29 0 -29 -134zM356 677h58l-234 -677h-58z" />
    <glyph glyph-name="ArrowL" unicode="&#x2190;" horiz-adv-x="466" 
d="M406 367v-57h-243l94 -165h-86l-111 193l111 194h86l-94 -165h243z" />
    <glyph glyph-name="ArrowU" unicode="&#x2191;" horiz-adv-x="506" 
d="M253 511l193 -111v-86l-164 95v-243h-58v243l-164 -95v86z" />
    <glyph glyph-name="ArrowR" unicode="&#x2192;" horiz-adv-x="466" 
d="M294 532l112 -194l-112 -193h-86l95 165h-243v57h243l-95 165h86z" />
    <glyph glyph-name="ArrowD" unicode="&#x2193;" horiz-adv-x="506" 
d="M282 268l164 95v-86l-193 -111l-193 111v86l164 -95v243h58v-243z" />
    <glyph glyph-name="ArrowNW" unicode="&#x2196;" horiz-adv-x="454" 
d="M394 458l-183 -50l171 -171l-40 -41l-172 172l-49 -184l-61 61l58 216l215 57z" />
    <glyph glyph-name="ArrowNE" unicode="&#x2197;" horiz-adv-x="454" 
d="M336 461l58 -216l-61 -61l-49 184l-172 -172l-41 41l172 171l-183 50l61 60z" />
    <glyph glyph-name="ArrowSE" unicode="&#x2198;" horiz-adv-x="454" 
d="M333 492l61 -60l-58 -216l-215 -58l-61 61l183 49l-172 172l41 41l172 -172z" />
    <glyph glyph-name="ArrowSW" unicode="&#x2199;" horiz-adv-x="454" 
d="M211 268l183 -49l-61 -61l-215 58l-58 216l61 60l49 -183l172 172l40 -41z" />
    <glyph glyph-name="WhiteArrowL" unicode="&#x21e6;" 
d="M405 683q143 0 243.5 -101t100.5 -244q0 -142 -100.5 -243t-243.5 -101t-244 100.5t-101 243.5t101 244t244 101zM616 127q40 38 65 95q23 57 23 116q0 60 -23 117q-25 57 -65 95q-39 41 -95 64q-55 24 -116 24t-117 -24q-56 -23 -95 -64q-40 -38 -65 -95
q-23 -57 -23 -117q0 -59 23 -116q25 -57 65 -95q41 -42 95 -65q57 -23 117 -23q59 0 116 23q54 23 95 65zM429 532l-95 -165h243v-57h-243l95 -165h-86l-111 193l111 194h86z" />
    <glyph glyph-name="WhiteArrowUp" unicode="&#x21e7;" 
d="M405 683q143 0 243.5 -101t100.5 -244q0 -142 -100.5 -243t-243.5 -101t-244 100.5t-101 243.5t101 244t244 101zM616 127q40 38 65 95q23 57 23 116q0 60 -23 117q-25 57 -65 95q-39 41 -95 64q-55 24 -116 24t-117 -24q-56 -23 -95 -64q-40 -38 -65 -95
q-23 -57 -23 -117q0 -59 23 -116q25 -57 65 -95q41 -42 95 -65q57 -23 117 -23q59 0 116 23q54 23 95 65zM211 400l194 111l193 -111v-86l-165 95v-243h-57v243l-165 -95v86z" />
    <glyph glyph-name="WhiteArrowR" unicode="&#x21e8;" 
d="M405 683q143 0 243.5 -101t100.5 -244q0 -142 -100.5 -243t-243.5 -101t-244 100.5t-101 243.5t101 244t244 101zM616 127q40 38 65 95q23 57 23 116q0 60 -23 117q-25 57 -65 95q-39 41 -95 64q-55 24 -116 24t-117 -24q-56 -23 -95 -64q-40 -38 -65 -95
q-23 -57 -23 -117q0 -59 23 -116q25 -57 65 -95q41 -42 95 -65q57 -23 117 -23q59 0 116 23q54 23 95 65zM380 532h86l111 -194l-111 -193h-86l95 165h-243v57h243z" />
    <glyph glyph-name="WhiteArrowD" unicode="&#x21e9;" 
d="M405 683q143 0 243.5 -101t100.5 -244q0 -142 -100.5 -243t-243.5 -101t-244 100.5t-101 243.5t101 244t244 101zM616 127q40 38 65 95q23 57 23 116q0 60 -23 117q-25 57 -65 95q-39 41 -95 64q-55 24 -116 24t-117 -24q-56 -23 -95 -64q-40 -38 -65 -95
q-23 -57 -23 -117q0 -59 23 -116q25 -57 65 -95q41 -42 95 -65q57 -23 117 -23q59 0 116 23q54 23 95 65zM433 511v-243l165 95v-86l-193 -111l-194 111v86l165 -95v243h57z" />
    <glyph glyph-name="partialdiff" unicode="&#x2202;" horiz-adv-x="366" 
d="M153 677q7 -4 18 -12.5t40 -40.5t51.5 -70.5t40.5 -104.5t18 -140q0 -172 -35 -243.5t-112 -71.5q-54 0 -91.5 41.5t-37.5 107.5q0 91 61 156.5t142 70.5q-5 45 -19.5 87t-32 69t-34 48t-27.5 30l-11 10zM175 49q39 0 57.5 60.5t18.5 213.5q-59 -10 -97 -59t-38 -118
q0 -42 16.5 -69.5t42.5 -27.5z" />
    <glyph glyph-name="uni2206" unicode="&#x2206;" horiz-adv-x="418" 
d="M223 474l150 -419v-55h-328v55l150 419h28zM117 55h184l-92 268z" />
    <glyph glyph-name="product" unicode="&#x220f;" horiz-adv-x="363" 
d="M45 677h273v-677h-75v619h-124v-619h-74v677z" />
    <glyph glyph-name="summation" unicode="&#x2211;" horiz-adv-x="364" 
d="M319 677v-58h-193l126 -281l-126 -280h193v-58h-274v58l126 280l-126 281v58h274z" />
    <glyph glyph-name="minus" unicode="&#x2212;" horiz-adv-x="360" 
d="M60 267h240v-55h-240v55z" />
    <glyph glyph-name="uni2215" unicode="&#x2215;" horiz-adv-x="412" 
d="M294 677h58l-234 -677h-58z" />
    <glyph glyph-name="uni2219" unicode="&#x2219;" horiz-adv-x="209" 
d="M60 383h89v-89h-89v89z" />
    <glyph glyph-name="radical" unicode="&#x221a;" horiz-adv-x="529" 
d="M367 677h112v-58h-69l-136 -619h-51l-122 323h-51v57h110l88 -243z" />
    <glyph glyph-name="infinity" unicode="&#x221e;" horiz-adv-x="603" 
d="M416 494q58 0 97.5 -43t39.5 -113t-39.5 -113t-97.5 -43q-72 0 -115 60q-41 -60 -114 -60q-58 0 -97.5 43t-39.5 113t39.5 113t97.5 43q74 0 114 -59q42 59 115 59zM193 237q31 0 52 27t21 74q0 48 -21 74.5t-52 26.5t-51.5 -26.5t-20.5 -74.5q0 -47 20.5 -74t51.5 -27z
M409 237q32 0 52.5 27t20.5 74q0 48 -20.5 74.5t-52.5 26.5q-31 0 -51.5 -26.5t-20.5 -74.5q0 -47 20.5 -74t51.5 -27z" />
    <glyph glyph-name="integral" unicode="&#x222b;" horiz-adv-x="479" 
d="M355 683q22 0 40.5 -7.5t26.5 -15.5l7 -7l-19 -41q-18 21 -43 21q-54 0 -67 -131l-53 -530q-17 -181 -122 -181q-21 0 -39.5 7.5t-27.5 15.5l-8 7l19 41q19 -22 47 -22q50 0 63 132l52 530q18 181 124 181z" />
    <glyph glyph-name="approxequal" unicode="&#x2248;" horiz-adv-x="402" 
d="M144 195q22 0 57 -16t57 -16q20 0 41 8t32 16l11 8v-55q-39 -32 -84 -32q-22 0 -57 16t-57 16q-20 0 -41 -8t-32 -16l-11 -8v55q39 32 84 32zM258 260q20 0 41 8t32 16l11 8v-55q-39 -32 -84 -32q-22 0 -57 16t-57 16q-20 0 -41 -8t-32 -16l-11 -8v55q39 32 84 32
q22 0 57 -16t57 -16z" />
    <glyph glyph-name="notequal" unicode="&#x2260;" horiz-adv-x="360" 
d="M300 223h-99l-15 -49h114v-55h-131l-37 -121h-29l37 121h-80v55h97l16 49h-113v54h130l37 119h29l-37 -119h81v-54z" />
    <glyph glyph-name="lessequal" unicode="&#x2264;" horiz-adv-x="424" 
d="M364 451l-211 -128l211 -129l-24 -51l-280 180l280 179zM98 53v55h240v-55h-240z" />
    <glyph glyph-name="greaterequal" unicode="&#x2265;" horiz-adv-x="424" 
d="M84 502l280 -179l-280 -180l-24 51l211 129l-211 128zM86 53v55h240v-55h-240z" />
    <glyph glyph-name="COne" unicode="&#x2460;" 
d="M405 683q143 0 243.5 -101t100.5 -244q0 -142 -100.5 -243t-243.5 -101t-244 100.5t-101 243.5t101 244t244 101zM616 127q40 38 65 95q23 57 23 116q0 60 -23 117q-25 57 -65 95q-39 41 -95 64q-55 24 -116 24t-117 -24q-56 -23 -95 -64q-40 -38 -65 -95
q-23 -57 -23 -117q0 -59 23 -116q25 -57 65 -95q41 -42 95 -65q57 -23 117 -23q59 0 116 23q54 23 95 65zM345 481v33l78 20v-388h-41v345z" />
    <glyph glyph-name="CTwo" unicode="&#x2461;" 
d="M405 683q143 0 243.5 -101t100.5 -244q0 -142 -100.5 -243t-243.5 -101t-244 100.5t-101 243.5t101 244t244 101zM616 127q40 38 65 95q23 57 23 116q0 60 -23 117q-25 57 -65 95q-39 41 -95 64q-55 24 -116 24t-117 -24q-56 -23 -95 -64q-40 -38 -65 -95
q-23 -57 -23 -117q0 -59 23 -116q25 -57 65 -95q41 -42 95 -65q57 -23 117 -23q59 0 116 23q54 23 95 65zM390 534q36 0 58.5 -25t22.5 -71q0 -106 -97 -260h93v-32h-113l-18 25q28 48 44.5 81.5t33 86.5t16.5 99q0 29 -11 46t-30 17q-12 0 -22.5 -5t-15.5 -10l-5 -5l-12 25
q22 28 56 28z" />
    <glyph glyph-name="CThree" unicode="&#x2462;" 
d="M405 683q143 0 243.5 -101t100.5 -244q0 -142 -100.5 -243t-243.5 -101t-244 100.5t-101 243.5t101 244t244 101zM616 127q40 38 65 95q23 57 23 116q0 60 -23 117q-25 57 -65 95q-39 41 -95 64q-55 24 -116 24t-117 -24q-56 -23 -95 -64q-40 -38 -65 -95
q-23 -57 -23 -117q0 -59 23 -116q25 -57 65 -95q41 -42 95 -65q57 -23 117 -23q59 0 116 23q54 23 95 65zM432 348q6 -4 15 -11t24 -32.5t15 -55.5q0 -49 -23 -78t-61 -29q-18 0 -34.5 7t-23.5 13l-7 7l13 26q21 -20 48 -20q46 0 46 78q0 29 -12 53.5t-32 24.5h-24v33h24
q18 0 28.5 19.5t10.5 49.5q0 31 -11 49.5t-31 18.5q-11 0 -21.5 -5t-15.5 -10l-4 -5l-12 25q21 28 56 28t57.5 -27t22.5 -68q0 -20 -5 -36.5t-12 -26t-14 -16.5t-12 -10z" />
    <glyph glyph-name="CFour" unicode="&#x2463;" 
d="M405 683q143 0 243.5 -101t100.5 -244q0 -142 -100.5 -243t-243.5 -101t-244 100.5t-101 243.5t101 244t244 101zM616 127q40 38 65 95q23 57 23 116q0 60 -23 117q-25 57 -65 95q-39 41 -95 64q-55 24 -116 24t-117 -24q-56 -23 -95 -64q-40 -38 -65 -95
q-23 -57 -23 -117q0 -59 23 -116q25 -57 65 -95q41 -42 95 -65q57 -23 117 -23q59 0 116 23q54 23 95 65zM439 530v-222h37v-32h-37v-130h-41v130h-94v32l111 222h24zM398 308v121l-60 -121h60z" />
    <glyph glyph-name="CFive" unicode="&#x2464;" 
d="M405 683q143 0 243.5 -101t100.5 -244q0 -142 -100.5 -243t-243.5 -101t-244 100.5t-101 243.5t101 244t244 101zM616 127q40 38 65 95q23 57 23 116q0 60 -23 117q-25 57 -65 95q-39 41 -95 64q-55 24 -116 24t-117 -24q-56 -23 -95 -64q-40 -38 -65 -95
q-23 -57 -23 -117q0 -59 23 -116q25 -57 65 -95q41 -42 95 -65q57 -23 117 -23q59 0 116 23q54 23 95 65zM402 389q36 0 57.5 -33t21.5 -91t-24 -90.5t-63 -32.5q-17 0 -32 6t-22 12l-6 6l13 26q15 -17 42 -17q24 0 37 24t13 66q0 38 -12 64.5t-35 26.5q-15 0 -27 -12
l-17 18l9 168h103v-32h-63l-6 -111q8 2 11 2z" />
    <glyph glyph-name="CSix" unicode="&#x2465;" 
d="M405 683q143 0 243.5 -101t100.5 -244q0 -142 -100.5 -243t-243.5 -101t-244 100.5t-101 243.5t101 244t244 101zM616 127q40 38 65 95q23 57 23 116q0 60 -23 117q-25 57 -65 95q-39 41 -95 64q-55 24 -116 24t-117 -24q-56 -23 -95 -64q-40 -38 -65 -95
q-23 -57 -23 -117q0 -59 23 -116q25 -57 65 -95q41 -42 95 -65q57 -23 117 -23q59 0 116 23q54 23 95 65zM404 414q35 0 56 -36.5t21 -99.5t-21.5 -99.5t-59.5 -36.5t-60.5 39.5t-22.5 112.5q0 46 11 88.5t26.5 70t30.5 48.5t26 31l11 9l15 -32q-46 -43 -73 -116
q16 21 40 21zM399 175q18 0 29.5 29t11.5 74t-11.5 74t-29.5 29t-29.5 -29t-11.5 -74t11.5 -74t29.5 -29z" />
    <glyph glyph-name="CSeven" unicode="&#x2466;" 
d="M405 683q143 0 243.5 -101t100.5 -244q0 -142 -100.5 -243t-243.5 -101t-244 100.5t-101 243.5t101 244t244 101zM616 127q40 38 65 95q23 57 23 116q0 60 -23 117q-25 57 -65 95q-39 41 -95 64q-55 24 -116 24t-117 -24q-56 -23 -95 -64q-40 -38 -65 -95
q-23 -57 -23 -117q0 -59 23 -116q25 -57 65 -95q41 -42 95 -65q57 -23 117 -23q59 0 116 23q54 23 95 65zM331 496v34h155v-34l-9 -17.5t-20.5 -48t-26 -75t-20.5 -96t-9 -113.5h-42q0 95 22.5 182.5t44.5 127.5l23 40h-118z" />
    <glyph glyph-name="CEight" unicode="&#x2467;" 
d="M405 683q143 0 243.5 -101t100.5 -244q0 -142 -100.5 -243t-243.5 -101t-244 100.5t-101 243.5t101 244t244 101zM616 127q40 38 65 95q23 57 23 116q0 60 -23 117q-25 57 -65 95q-39 41 -95 64q-55 24 -116 24t-117 -24q-56 -23 -95 -64q-40 -38 -65 -95
q-23 -57 -23 -117q0 -59 23 -116q25 -57 65 -95q41 -42 95 -65q57 -23 117 -23q59 0 116 23q54 23 95 65zM449 350q40 -28 40 -97q0 -53 -24 -82t-60 -29q-37 0 -61 29t-24 82q0 69 40 97q-34 26 -34 84q0 44 22 72t57 28q34 0 56 -28t22 -72q0 -58 -34 -84zM405 501
q-17 0 -27 -19t-10 -50q0 -30 10 -48.5t27 -18.5q16 0 26 18.5t10 48.5q0 31 -10 50t-26 19zM405 175q20 0 31 22t11 57t-11 57t-31 22t-31.5 -22t-11.5 -57q0 -36 11.5 -57.5t31.5 -21.5z" />
    <glyph glyph-name="CNine" unicode="&#x2468;" 
d="M405 683q143 0 243.5 -101t100.5 -244q0 -142 -100.5 -243t-243.5 -101t-244 100.5t-101 243.5t101 244t244 101zM616 127q40 38 65 95q23 57 23 116q0 60 -23 117q-25 57 -65 95q-39 41 -95 64q-55 24 -116 24t-117 -24q-56 -23 -95 -64q-40 -38 -65 -95
q-23 -57 -23 -117q0 -59 23 -116q25 -57 65 -95q41 -42 95 -65q57 -23 117 -23q59 0 116 23q54 23 95 65zM405 534q37 0 59.5 -39t22.5 -113q0 -54 -10 -99t-24.5 -71t-29 -44.5t-24.5 -25.5l-10 -7l-15 32q5 4 14 12t28 39t30 68q-15 -24 -43 -24q-35 0 -58 37t-23 99
q0 63 23.5 99.5t59.5 36.5zM405 295q18 0 29.5 29t11.5 74t-11.5 74t-29.5 29t-29.5 -29t-11.5 -74t11.5 -74t29.5 -29z" />
    <glyph glyph-name="CZero" unicode="&#x24ea;" 
d="M405 683q143 0 243.5 -101t100.5 -244q0 -142 -100.5 -243t-243.5 -101t-244 100.5t-101 243.5t101 244t244 101zM616 127q40 38 65 95q23 57 23 116q0 60 -23 117q-25 57 -65 95q-39 41 -95 64q-55 24 -116 24t-117 -24q-56 -23 -95 -64q-40 -38 -65 -95
q-23 -57 -23 -117q0 -59 23 -116q25 -57 65 -95q41 -42 95 -65q57 -23 117 -23q59 0 116 23q54 23 95 65zM405 534q41 0 60 -47.5t19 -148.5t-19 -148.5t-60 -47.5q-42 0 -61 47.5t-19 148.5t19 148.5t61 47.5zM405 175q17 0 27 45.5t10 117.5t-10 117.5t-27 45.5
q-18 0 -28 -45.5t-10 -117.5t10 -117.5t28 -45.5z" />
    <glyph glyph-name="lozenge" unicode="&#x25ca;" horiz-adv-x="529" 
d="M302 677l167 -339l-167 -338h-75l-167 338l167 339h75zM264 76l130 262l-130 263l-129 -263z" />
    <glyph glyph-name="BCOne" unicode="&#x278a;" 
d="M405 683q143 0 243.5 -101t100.5 -244q0 -142 -100.5 -243t-243.5 -101t-244 100.5t-101 243.5t101 244t244 101zM423 146v388l-78 -20v-33l37 10v-345h41z" />
    <glyph glyph-name="BCTwo" unicode="&#x278b;" 
d="M405 683q143 0 243.5 -101t100.5 -244q0 -142 -100.5 -243t-243.5 -101t-244 100.5t-101 243.5t101 244t244 101zM467 178h-93q97 154 97 260q0 46 -22.5 71t-58.5 25q-15 0 -29 -7t-21 -14l-6 -7l12 -25q17 20 43 20q19 0 30 -17t11 -46q0 -46 -16.5 -99t-33 -86.5
t-44.5 -81.5l18 -25h113v32z" />
    <glyph glyph-name="BCThree" unicode="&#x278c;" 
d="M405 683q143 0 243.5 -101t100.5 -244q0 -142 -100.5 -243t-243.5 -101t-244 100.5t-101 243.5t101 244t244 101zM402 142q38 0 61 29t23 78q0 30 -13.5 54.5t-26.5 34.5l-14 10q5 2 13 7.5t21.5 29t13.5 54.5q0 41 -22.5 68t-57.5 27q-16 0 -30 -7t-20 -14l-6 -7l12 -25
q16 20 41 20q20 0 31 -18.5t11 -49.5q0 -30 -10.5 -49.5t-28.5 -19.5h-24v-33h24q20 0 32 -24.5t12 -53.5q0 -78 -46 -78q-12 0 -24 5t-18 10l-6 5l-13 -26q24 -27 65 -27z" />
    <glyph glyph-name="BCFour" unicode="&#x278d;" 
d="M405 683q143 0 243.5 -101t100.5 -244q0 -142 -100.5 -243t-243.5 -101t-244 100.5t-101 243.5t101 244t244 101zM476 276v32h-37v222h-24l-111 -222v-32h94v-130h41v130h37zM398 308h-60l60 121v-121z" />
    <glyph glyph-name="BCFive" unicode="&#x278e;" 
d="M405 683q143 0 243.5 -101t100.5 -244q0 -142 -100.5 -243t-243.5 -101t-244 100.5t-101 243.5t101 244t244 101zM394 142q39 0 63 32.5t24 90.5t-21.5 91t-57.5 33q-3 0 -11 -2l6 111h63v32h-103l-9 -168l17 -18q12 12 27 12q23 0 35 -26.5t12 -64.5q0 -42 -13 -66
t-37 -24q-12 0 -22.5 4.5t-14.5 8.5l-5 4l-13 -26q21 -24 60 -24z" />
    <glyph glyph-name="BCSix" unicode="&#x278f;" 
d="M399 381q18 0 29.5 -29t11.5 -74t-11.5 -74t-29.5 -29t-29.5 29t-11.5 74t11.5 74t29.5 29zM405 683q143 0 243.5 -101t100.5 -244q0 -142 -100.5 -243t-243.5 -101t-244 100.5t-101 243.5t101 244t244 101zM400 142q38 0 59.5 36.5t21.5 99.5t-21 99.5t-56 36.5
q-24 0 -40 -21q12 32 30 61t30 42l13 13l-15 32q-4 -3 -11 -9.5t-25.5 -29.5t-32 -49.5t-25 -69.5t-11.5 -89q0 -73 22.5 -112.5t60.5 -39.5z" />
    <glyph glyph-name="BCSeven" unicode="&#x2790;" 
d="M405 683q143 0 243.5 -101t100.5 -244q0 -142 -100.5 -243t-243.5 -101t-244 100.5t-101 243.5t101 244t244 101zM486 496v34h-155v-34h118q-4 -6 -10 -16t-21.5 -45t-27.5 -73.5t-21.5 -97t-9.5 -118.5h42q0 89 21.5 176.5t42.5 130.5z" />
    <glyph glyph-name="BCEight" unicode="&#x2791;" 
d="M405 333q20 0 31 -22t11 -57t-11 -57t-31 -22t-31.5 21.5t-11.5 57.5q0 35 11.5 57t31.5 22zM405 365q-17 0 -27 18.5t-10 48.5q0 31 10 50t27 19q16 0 26 -19t10 -50q0 -30 -10 -48.5t-26 -18.5zM405 683q143 0 243.5 -101t100.5 -244q0 -142 -100.5 -243t-243.5 -101
t-244 100.5t-101 243.5t101 244t244 101zM405 142q36 0 60 29t24 82q0 69 -40 97q34 26 34 84q0 44 -22 72t-56 28q-35 0 -57 -28t-22 -72q0 -58 34 -84q-40 -28 -40 -97q0 -53 24 -82t61 -29z" />
    <glyph glyph-name="BCNine" unicode="&#x2792;" 
d="M405 501q18 0 29.5 -29t11.5 -74t-11.5 -74t-29.5 -29t-29.5 29t-11.5 74t11.5 74t29.5 29zM405 683q143 0 243.5 -101t100.5 -244q0 -142 -100.5 -243t-243.5 -101t-244 100.5t-101 243.5t101 244t244 101zM389 135q4 2 10.5 7t23.5 25t30 45t23.5 70.5t10.5 99.5
q0 74 -22.5 113t-59.5 39q-36 0 -59.5 -36.5t-23.5 -99.5q0 -62 23 -99t58 -37q28 0 43 24q-11 -37 -29 -67t-31 -41l-12 -11z" />
    <glyph glyph-name="BlackArrowR" unicode="&#x27a1;" 
d="M405 683q143 0 243.5 -101t100.5 -244q0 -142 -100.5 -243t-243.5 -101t-244 100.5t-101 243.5t101 244t244 101zM466 145l111 193l-111 194h-86l95 -165h-243v-57h243l-95 -165h86z" />
    <glyph glyph-name="WhiteArrowNE" unicode="&#x2b00;" 
d="M405 683q143 0 243.5 -101t100.5 -244q0 -142 -100.5 -243t-243.5 -101t-244 100.5t-101 243.5t101 244t244 101zM616 127q40 38 65 95q23 57 23 116q0 60 -23 117q-25 57 -65 95q-39 41 -95 64q-55 24 -116 24t-117 -24q-56 -23 -95 -64q-40 -38 -65 -95
q-23 -57 -23 -117q0 -59 23 -116q25 -57 65 -95q41 -42 95 -65q57 -23 117 -23q59 0 116 23q54 23 95 65zM311 518l216 -57l57 -216l-60 -61l-49 184l-172 -172l-41 41l172 171l-183 50z" />
    <glyph glyph-name="WhiteArrowNW" unicode="&#x2b01;" 
d="M405 683q143 0 243.5 -101t100.5 -244q0 -142 -100.5 -243t-243.5 -101t-244 100.5t-101 243.5t101 244t244 101zM616 127q40 38 65 95q23 57 23 116q0 60 -23 117q-25 57 -65 95q-39 41 -95 64q-55 24 -116 24t-117 -24q-56 -23 -95 -64q-40 -38 -65 -95
q-23 -57 -23 -117q0 -59 23 -116q25 -57 65 -95q41 -42 95 -65q57 -23 117 -23q59 0 116 23q54 23 95 65zM498 518l60 -60l-183 -50l172 -171l-41 -41l-172 172l-49 -184l-60 61l57 216z" />
    <glyph glyph-name="WhiteArrowSE" unicode="&#x2b02;" 
d="M405 683q143 0 243.5 -101t100.5 -244q0 -142 -100.5 -243t-243.5 -101t-244 100.5t-101 243.5t101 244t244 101zM616 127q40 38 65 95q23 57 23 116q0 60 -23 117q-25 57 -65 95q-39 41 -95 64q-55 24 -116 24t-117 -24q-56 -23 -95 -64q-40 -38 -65 -95
q-23 -57 -23 -117q0 -59 23 -116q25 -57 65 -95q41 -42 95 -65q57 -23 117 -23q59 0 116 23q54 23 95 65zM475 309l49 183l60 -60l-57 -216l-216 -58l-60 61l183 49l-172 172l41 41z" />
    <glyph glyph-name="WhiteArrowSW" unicode="&#x2b03;" 
d="M405 683q143 0 243.5 -101t100.5 -244q0 -142 -100.5 -243t-243.5 -101t-244 100.5t-101 243.5t101 244t244 101zM616 127q40 38 65 95q23 57 23 116q0 60 -23 117q-25 57 -65 95q-39 41 -95 64q-55 24 -116 24t-117 -24q-56 -23 -95 -64q-40 -38 -65 -95
q-23 -57 -23 -117q0 -59 23 -116q25 -57 65 -95q41 -42 95 -65q57 -23 117 -23q59 0 116 23q54 23 95 65zM547 440l-172 -172l183 -49l-60 -61l-216 58l-57 216l60 60l49 -183l172 172z" />
    <glyph glyph-name="BlackArrowL" unicode="&#x2b05;" 
d="M405 683q143 0 243.5 -101t100.5 -244q0 -142 -100.5 -243t-243.5 -101t-244 100.5t-101 243.5t101 244t244 101zM577 310v57h-243l95 165h-86l-111 -194l111 -193h86l-95 165h243z" />
    <glyph glyph-name="BlackArrowU" unicode="&#x2b06;" 
d="M405 683q143 0 243.5 -101t100.5 -244q0 -142 -100.5 -243t-243.5 -101t-244 100.5t-101 243.5t101 244t244 101zM598 314v86l-193 111l-194 -111v-86l165 95v-243h57v243z" />
    <glyph glyph-name="BlackArrowD" unicode="&#x2b07;" 
d="M405 683q143 0 243.5 -101t100.5 -244q0 -142 -100.5 -243t-243.5 -101t-244 100.5t-101 243.5t101 244t244 101zM598 277v86l-165 -95v243h-57v-243l-165 95v-86l194 -111z" />
    <glyph glyph-name="BlackArrowNE" unicode="&#x2b08;" 
d="M405 683q143 0 243.5 -101t100.5 -244q0 -142 -100.5 -243t-243.5 -101t-244 100.5t-101 243.5t101 244t244 101zM524 184l60 61l-57 216l-216 57l-60 -60l183 -50l-172 -171l41 -41l172 172z" />
    <glyph glyph-name="BlackArrowNW" unicode="&#x2b09;" 
d="M405 683q143 0 243.5 -101t100.5 -244q0 -142 -100.5 -243t-243.5 -101t-244 100.5t-101 243.5t101 244t244 101zM547 237l-172 171l183 50l-60 60l-216 -57l-57 -216l60 -61l49 184l172 -172z" />
    <glyph glyph-name="BlackArrowSE" unicode="&#x2b0a;" 
d="M405 683q143 0 243.5 -101t100.5 -244q0 -142 -100.5 -243t-243.5 -101t-244 100.5t-101 243.5t101 244t244 101zM527 216l57 216l-60 60l-49 -183l-172 172l-41 -41l172 -172l-183 -49l60 -61z" />
    <glyph glyph-name="BlackArrowSW" unicode="&#x2b0b;" 
d="M405 683q143 0 243.5 -101t100.5 -244q0 -142 -100.5 -243t-243.5 -101t-244 100.5t-101 243.5t101 244t244 101zM498 158l60 61l-183 49l172 172l-41 41l-172 -172l-49 183l-60 -60l57 -216z" />
    <glyph glyph-name="sc.f" unicode="&#xa730;" horiz-adv-x="305" 
d="M255 507h-134v-177h97v-55h-97v-275h-71v562h205v-55z" />
    <glyph glyph-name="sc.s" unicode="&#xa731;" horiz-adv-x="338" 
d="M132 442q0 -32 24.5 -75t53.5 -80t53.5 -84t24.5 -86q0 -56 -32 -89.5t-87 -33.5q-36 0 -65.5 13t-41.5 26l-12 13l21 45q4 -5 11 -12t28.5 -18.5t43.5 -11.5q64 0 64 72q0 28 -24.5 70.5t-54 81t-54 87t-24.5 87.5q0 52 36 86.5t86 34.5q32 0 55.5 -12t31.5 -24l8 -13
l-18 -39q-25 33 -66 33q-29 0 -45.5 -21t-16.5 -50z" />
    <glyph glyph-name="sc.q" unicode="&#xa7af;" horiz-adv-x="364" 
d="M314 252q0 -215 -94 -251q11 -41 47 -41h5v-52h-5q-44 0 -74 24.5t-40 65.5q-103 27 -103 254v58q0 258 132 258t132 -258v-58zM182 49q61 0 61 232t-61 232t-61 -232t61 -232z" />
    <glyph glyph-name="BCZero" unicode="&#x1f10c;" 
d="M405 683q143 0 243.5 -101t100.5 -244q0 -142 -100.5 -243t-243.5 -101t-244 100.5t-101 243.5t101 244t244 101zM405 142q41 0 60 47.5t19 148.5t-19 148.5t-60 47.5q-42 0 -61 -47.5t-19 -148.5t19 -148.5t61 -47.5zM405 501q17 0 27 -45.5t10 -117.5t-10 -117.5
t-27 -45.5q-18 0 -28 45.5t-10 117.5t10 117.5t28 45.5z" />
    <glyph glyph-name="a.ss01" horiz-adv-x="344" 
d="M169 480q58 0 94 -42.5t36 -125.5v-312h-53l-18 44q-1 -2 -2.5 -5.5t-7.5 -12t-14 -15t-22.5 -12t-31.5 -5.5q-46 0 -75.5 39t-29.5 101q0 78 51 129.5t132 51.5q0 50 -17.5 80t-49.5 30q-17 0 -34.5 -7.5t-26.5 -15.5l-8 -8l-20 43q4 5 11.5 12t33 19t52.5 12zM228 174
v96q-54 0 -83 -36t-29 -84q0 -45 15 -73t41 -28q56 0 56 125z" />
    <glyph glyph-name="f.ss01" horiz-adv-x="338" 
d="M172 516v-36h104v-55h-104v-616l-71 -18v634h-56v55h56v36q0 82 32.5 124.5t85.5 42.5q22 0 40.5 -8.5t26.5 -16.5l7 -8l-20 -44q-21 22 -48 22q-53 0 -53 -112z" />
    <glyph glyph-name="g.ss01" horiz-adv-x="401" 
d="M216 86q58 0 99 -43.5t41 -104.5q0 -67 -43.5 -107t-112.5 -40q-67 0 -111 39.5t-44 100.5q0 66 56 118q-21 24 -21 54q0 49 34 83q-44 46 -44 131q0 77 35 120t91 43q20 0 38 -6q18 83 97 83v-54q-47 0 -53 -56q44 -42 44 -130q0 -77 -34.5 -120.5t-91.5 -43.5
q-19 0 -40 7q-32 -74 40 -74h20zM196 429q-26 0 -40.5 -31.5t-14.5 -80.5q0 -50 14.5 -81.5t40.5 -31.5t40.5 31.5t14.5 81.5q0 49 -14.5 80.5t-40.5 31.5zM200 -154q38 0 61.5 23.5t23.5 63.5q0 37 -24.5 61t-64.5 24h-18q-20 0 -38 6q-24 -46 -24 -91q0 -40 23.5 -63.5
t60.5 -23.5z" />
    <glyph glyph-name="t.ss01" horiz-adv-x="323" 
d="M280 77l18 -38q-2 -5 -7.5 -12.5t-25.5 -20t-44 -12.5q-53 0 -83.5 47.5t-30.5 125.5v258h-62v55q38 0 53 22.5t15 88.5l65 22v-133h84v-55h-84v-258q0 -118 54 -118q13 0 25 7t17 14z" />
    <glyph glyph-name="y.ss01" horiz-adv-x="329" 
d="M214 474h70v-502q0 -85 -28 -133t-85 -48t-85.5 41.5t-28.5 110.5h46q0 -44 14.5 -70.5t40.5 -26.5q56 0 56 126v98q-1 -2 -2 -5.5t-6.5 -12t-13 -15t-20.5 -12t-29 -5.5q-48 0 -73 50t-25 138v266h71v-244q0 -155 49 -155t49 155v244z" />
    <glyph glyph-name="y.ss02" horiz-adv-x="381" 
d="M263 474h73l-131 -501q-27 -105 -59 -143.5t-101 -38.5v55q33 0 50.5 28.5t36.5 98.5l27 106l-99 395h73l65 -286z" />
    <glyph glyph-name="sc.ae" horiz-adv-x="498" 
d="M453 507h-128v-160h102v-55h-102v-237h128v-55h-199v131h-90l-47 -131h-72l214 562h194v-55zM254 178v206l-74 -206h74z" />
    <glyph glyph-name="sc.oe" horiz-adv-x="494" 
d="M449 507h-128v-160h102v-55h-102v-237h128v-55h-199v37q-29 -43 -76 -43q-59 0 -94 67.5t-35 190.5v58q0 123 35 190.5t94 67.5q47 0 76 -43v37h199v-55zM186 49q30 0 50 64t20 168t-20 168t-50 64t-50 -64t-20 -168t20 -168t50 -64z" />
    <glyph glyph-name="sc.eth" horiz-adv-x="364" 
d="M179 562q70 0 105 -60.5t35 -191.5v-58q0 -131 -35 -191.5t-105 -60.5h-104v253h-30v55h30v254h104zM182 55q67 0 67 226t-67 226h-36v-199h38v-55h-38v-198h36z" />
    <glyph glyph-name="sc.oslash" horiz-adv-x="354" 
d="M265 519q44 -63 44 -209v-58q0 -258 -132 -258q-40 0 -67 24l-24 -75h-28l30 99q-43 64 -43 210v58q0 258 132 258q41 0 67 -25l24 76h28zM116 281q0 -78 7 -128l96 311q-14 49 -42 49q-61 0 -61 -232zM177 49q61 0 61 232q0 78 -7 127l-97 -310q15 -49 43 -49z" />
    <glyph glyph-name="sc.germandbls" horiz-adv-x="366" 
d="M241 279q0 -33 40 -98.5t40 -98.5q0 -38 -25.5 -63t-68.5 -25q-24 0 -45 8t-30 16l-10 8l20 41q23 -18 50 -18q39 0 39 45q0 29 -34 94.5t-34 90.5q0 23 13 56t13 74q0 104 -47 104q-46 0 -46 -114v-399h-71v415q0 69 30.5 111t86.5 42t86.5 -42t30.5 -111
q0 -38 -19 -76.5t-19 -59.5z" />
    <glyph glyph-name="sc.thorn" horiz-adv-x="330" 
d="M144 457q65 0 103 -46.5t38 -129.5t-38 -129.5t-103 -46.5h-28v-105h-71v562h71v-105h28zM146 160q31 0 49.5 33.5t18.5 87.5t-18.5 87.5t-49.5 33.5h-30v-242h30z" />
    <glyph glyph-name="ampersand.ss01" horiz-adv-x="373" 
d="M64 273q0 70 64 125q-36 67 -36 121q0 53 22.5 80t59.5 27q38 0 60.5 -27t22.5 -80q0 -37 -24.5 -71.5t-50.5 -55.5q18 -33 65 -94q4 37 4 90h38q0 -75 -11 -129l50 -64l-24 -35l-42 53q-28 -59 -90 -59q-47 0 -77.5 33.5t-30.5 85.5zM174 588q-33 0 -33 -69
q0 -45 24 -96q43 40 43 96q0 69 -34 69zM148 364q-36 -38 -36 -87q0 -38 17.5 -62t45.5 -24q41 0 61 54q-57 70 -88 119zM60 71v38h268v-38h-268z" />
    <glyph glyph-name="ln.zero" horiz-adv-x="346" 
d="M173 677q72 0 105 -82.5t33 -259.5q0 -176 -33 -258.5t-105 -82.5t-105 82.5t-33 258.5q0 177 33 259.5t105 82.5zM173 50q31 0 48.5 80t17.5 205q0 126 -17.5 206t-48.5 80t-48 -79.5t-17 -206.5q0 -126 17 -205.5t48 -79.5z" />
    <glyph glyph-name="ln.one" horiz-adv-x="206" 
d="M35 642l136 35v-677h-72v602l-64 -16v56z" />
    <glyph glyph-name="ln.two" horiz-adv-x="310" 
d="M275 510q0 -181 -169 -454h162v-56h-198l-31 45q36 62 58 104.5t50 107t42 128t14 125.5q0 50 -19.5 79.5t-52.5 29.5q-20 0 -39 -8.5t-28 -17.5l-8 -9l-21 45q3 5 10.5 13t33 21.5t55.5 13.5q63 0 102 -44t39 -123z" />
    <glyph glyph-name="ln.three" horiz-adv-x="329" 
d="M200 352q4 -2 10 -6.5t22.5 -20.5t29 -34t22.5 -48.5t10 -63.5q0 -84 -40 -134.5t-107 -50.5q-32 0 -60 12t-40 24l-12 11l21 46q38 -37 84 -37q81 0 81 137q0 52 -21 94.5t-55 42.5h-42v56h42q31 0 49 34t18 86q0 54 -19.5 87t-53.5 33q-19 0 -37 -9t-26 -18l-8 -9
l-21 45q4 5 12 13t33 21.5t52 13.5q61 0 100.5 -47t39.5 -119q0 -34 -8.5 -63t-21 -45.5t-25 -29t-21.5 -17.5z" />
    <glyph glyph-name="ln.four" horiz-adv-x="370" 
d="M270 283h65v-56h-65v-227h-73v227h-162v56l193 388h42v-388zM197 283v212l-104 -212h104z" />
    <glyph glyph-name="ln.five" horiz-adv-x="325" 
d="M153 424q63 0 100 -56.5t37 -158.5q0 -101 -41.5 -158t-109.5 -57q-31 0 -57 10t-36 20l-11 11l21 46q28 -31 74 -31q42 0 65 43t23 116q0 66 -21 112t-62 46q-27 0 -47 -22l-29 31l16 295h13h60h107v-57h-110l-11 -192q12 2 19 2z" />
    <glyph glyph-name="ln.six" horiz-adv-x="355" 
d="M186 467q61 0 97.5 -63.5t36.5 -173.5t-37.5 -173t-102.5 -63q-67 0 -106 68t-39 196q0 81 19 155t45.5 122t53.5 84.5t46 52.5l19 17l25 -55q-9 -8 -23.5 -24t-48.5 -69t-55 -109q28 35 70 35zM177 50q33 0 52.5 50.5t19.5 129.5t-20 130t-52 51t-51.5 -51.5
t-19.5 -129.5t19.5 -129t51.5 -51z" />
    <glyph glyph-name="ln.seven" horiz-adv-x="341" 
d="M35 671h271v-61l-16 -30.5t-36 -83t-45.5 -130.5t-35.5 -167.5t-16 -198.5h-73q0 104 16.5 205.5t39.5 171.5t46 125t40 82l16 26h-207v61z" />
    <glyph glyph-name="ln.eight" horiz-adv-x="365" 
d="M261 356q69 -49 69 -169q0 -93 -41.5 -143t-106.5 -50q-64 0 -105.5 50t-41.5 143q0 120 69 169q-58 45 -58 147q0 77 38 125.5t98 48.5t98.5 -48.5t38.5 -125.5q0 -102 -58 -147zM182 620q-30 0 -47 -33.5t-17 -87.5q0 -52 18 -84t46 -32q29 0 47 32t18 84
q0 54 -17.5 87.5t-47.5 33.5zM182 50q35 0 55 38.5t20 99.5t-20 99.5t-55 38.5q-34 0 -54 -38.5t-20 -99.5t20 -99.5t54 -38.5z" />
    <glyph glyph-name="ln.nine" horiz-adv-x="357" 
d="M179 677q65 0 104 -67.5t39 -197.5q0 -94 -17.5 -172.5t-42.5 -124t-50.5 -77.5t-43.5 -44l-17 -12l-25 54q9 7 24 21.5t48.5 68.5t52.5 119q-26 -41 -75 -41q-61 0 -101 64t-40 172q0 110 40.5 173.5t103.5 63.5zM179 260q32 0 52 51t20 129q0 79 -20 130t-52 51
t-51.5 -51.5t-19.5 -129.5t19.5 -129t51.5 -51z" />
    <glyph glyph-name="ln.zeroalt" horiz-adv-x="351" 
d="M175 677q141 0 141 -342q0 -341 -141 -341q-140 0 -140 341q0 342 140 342zM107 237l132 246q-19 142 -64 142q-32 0 -51.5 -78.5t-19.5 -211.5q0 -53 3 -98zM175 46q32 0 52 79t20 210q0 54 -3 99l-132 -247q8 -67 24.5 -104t38.5 -37z" />
    <glyph glyph-name="zero.zero" horiz-adv-x="396" 
d="M198 486q72 0 112.5 -64t40.5 -182t-40.5 -182t-112.5 -64t-112.5 64t-40.5 182t40.5 182t112.5 64zM112 240q0 -86 26 -145l100 320q-18 20 -40 20q-38 0 -62 -56t-24 -139zM198 45q38 0 62 56.5t24 138.5q0 88 -27 144l-99 -319q17 -20 40 -20z" />
    <glyph glyph-name="braceleft.uc" horiz-adv-x="376" 
d="M240 -83q17 0 31 7.5t20 14.5l6 7l19 -41q-3 -5 -9 -12.5t-28.5 -20t-50.5 -12.5q-57 0 -90.5 38.5t-33.5 104.5q0 55 16 117t16 87q0 27 -15 49t-40 22h-21v55h21q25 0 40 22t15 49q0 25 -16 87.5t-16 116.5q0 66 33 105t91 39q28 0 50 -11.5t30 -22.5l8 -12l-19 -40
q-19 28 -57 28q-65 0 -65 -98q0 -53 16 -121.5t16 -99.5q0 -24 -11.5 -41.5t-23.5 -22.5l-11 -5q2 -1 5 -2t11 -7t14 -13t11 -20t5 -28q0 -30 -16 -99t-16 -122q0 -98 65 -98z" />
    <glyph glyph-name="braceright.uc" horiz-adv-x="376" 
d="M295 333h21v-55h-21q-25 0 -40.5 -22t-15.5 -49q0 -25 16 -87t16 -117q0 -66 -33 -104.5t-90 -38.5q-28 0 -50 11.5t-30 22.5l-8 11l19 41q19 -29 57 -29q31 0 48 25.5t17 72.5q0 53 -16 122t-16 99q0 24 11.5 41.5t23.5 22.5l11 6q-2 1 -5 2t-11 6.5t-14 12.5t-11 20
t-5 28q0 31 16 99.5t16 121.5q0 98 -65 98q-17 0 -31 -7t-20 -14l-6 -7l-19 40q3 5 9 12.5t28.5 20.5t50.5 13q57 0 90 -39t33 -105q0 -54 -16 -116.5t-16 -87.5q0 -27 15.5 -49t40.5 -22z" />
    <glyph glyph-name="parenleft.uc" horiz-adv-x="298" 
d="M233 697q-4 -7 -10.5 -20t-23 -54t-29.5 -84.5t-23.5 -107t-10.5 -125.5t10 -125t24 -108.5t28.5 -82.5t24.5 -56l10 -19l-26 -55q-6 7 -15.5 20t-34 57t-43 92.5t-34 123.5t-15.5 153t14.5 152t35.5 125t42 91t35 59l15 19z" />
    <glyph glyph-name="parenright.uc" horiz-adv-x="298" 
d="M91 752q6 -7 15.5 -20t34 -57t43 -92.5t34 -123.5t15.5 -153t-14.5 -152t-35.5 -125t-42 -91t-35 -59l-15 -19l-26 55q4 7 10.5 19.5t23 54t29.5 84.5t23.5 107t10.5 126t-10 124.5t-24 108.5t-28.5 83t-24.5 56l-10 19z" />
    <glyph glyph-name="bracketleft.uc" horiz-adv-x="308" 
d="M248 691h-117v-770h117v-55h-188v880h188v-55z" />
    <glyph glyph-name="bracketright.uc" horiz-adv-x="308" 
d="M60 746h188v-880h-188v55h117v770h-117v55z" />
    <glyph glyph-name="exclamdown.uc" horiz-adv-x="204" 
d="M55 671h74v-75h-74v75zM72 472h40l17 -361v-117h-74v117z" />
    <glyph glyph-name="questiondown.uc" horiz-adv-x="324" 
d="M183 43q19 0 35.5 7.5t23.5 15.5l7 7l20 -42q-4 -5 -11.5 -12t-31.5 -19t-49 -12q-54 0 -88 33t-34 90q0 32 23 69t50.5 65t50.5 63.5t23 65.5q0 21 -13.5 35.5t-33.5 14.5q-16 0 -29.5 -6t-19.5 -12l-5 -7l-18 39q3 4 9.5 11t28.5 18t46 11q45 0 73.5 -29t28.5 -73
q0 -35 -23 -74.5t-50.5 -68t-50.5 -62.5t-23 -60q0 -30 16.5 -49t44.5 -19zM218 671v-75h-75v75h75z" />
    <glyph glyph-name="colon.uc" horiz-adv-x="194" 
d="M60 66v74h74v-74h-74zM60 546h74v-75h-74v75z" />
    <glyph glyph-name="semicolon.uc" horiz-adv-x="184" 
d="M25 30l40 149h74l-62 -149h-52zM65 546h74v-75h-74v75z" />
    <glyph glyph-name="plus.uc" horiz-adv-x="358" 
d="M206 363h92v-55h-92v-92h-55v92h-91v55h91v91h55v-91z" />
    <glyph glyph-name="minus.uc" horiz-adv-x="360" 
d="M60 363h240v-55h-240v55z" />
    <glyph glyph-name="equal.uc" horiz-adv-x="360" 
d="M60 214v55h240v-55h-240zM60 373h240v-55h-240v55z" />
    <glyph glyph-name="divide.uc" horiz-adv-x="441" 
d="M252 460v-64h-63v64h63zM189 181v63h63v-63h-63zM60 348h321v-55h-321v55z" />
    <glyph glyph-name="multiply.uc" horiz-adv-x="343" 
d="M283 431l-80 -111l80 -111l-41 -30l-70 98l-71 -98l-41 30l80 111l-80 111l41 30l71 -98l70 98z" />
    <glyph glyph-name="guilsinglleft.uc" horiz-adv-x="259" 
d="M209 485l-120 -148l120 -149l-43 -34l-116 144v77l116 144z" />
    <glyph glyph-name="guilsinglright.uc" horiz-adv-x="259" 
d="M50 485l43 34l116 -144v-77l-116 -144l-43 34l119 149z" />
    <glyph glyph-name="guillemotleft.uc" horiz-adv-x="399" 
d="M209 485l-120 -148l120 -149l-43 -34l-116 144v77l116 144zM349 485l-119 -148l119 -149l-43 -34l-116 144v77l116 144z" />
    <glyph glyph-name="guillemotright.uc" horiz-adv-x="399" 
d="M233 519l116 -144v-77l-116 -144l-43 34l119 149l-119 148zM209 375v-77l-116 -144l-43 34l119 149l-119 148l43 34z" />
    <glyph glyph-name="less.uc" horiz-adv-x="329" 
d="M279 488l-158 -151l158 -152l-25 -53l-204 205l204 204z" />
    <glyph glyph-name="greater.uc" horiz-adv-x="329" 
d="M75 541l204 -204l-204 -205l-25 53l158 152l-158 151z" />
    <glyph glyph-name="emdash.uc" horiz-adv-x="568" 
d="M60 363h448v-55h-448v55z" />
    <glyph glyph-name="endash.uc" horiz-adv-x="423" 
d="M60 363h303v-55h-303v55z" />
    <glyph glyph-name="hyphen.uc" horiz-adv-x="360" 
d="M60 363h240v-55h-240v55z" />
    <glyph glyph-name="logicalnot.uc" horiz-adv-x="419" 
d="M60 377h299v-166h-55v111h-244v55z" />
    <glyph glyph-name="plusminus.uc" horiz-adv-x="358" 
d="M206 429h92v-55h-92v-91h-55v91h-91v55h91v96h55v-96zM73 179v55h212v-55h-212z" />
    <glyph glyph-name="notequal.uc" horiz-adv-x="360" 
d="M300 318h-99l-15 -49h114v-55h-131l-37 -120h-29l37 120h-80v55h97l16 49h-113v55h130l37 119h29l-37 -119h81v-55z" />
    <glyph glyph-name="approxequal.uc" horiz-adv-x="402" 
d="M144 291q22 0 57 -16.5t57 -16.5q20 0 41 8t32 16l11 9v-55q-39 -32 -84 -32q-22 0 -57 16t-57 16q-20 0 -41 -8t-32 -16l-11 -8v54q39 33 84 33zM258 355q20 0 41 8.5t32 16.5l11 8v-55q-39 -32 -84 -32q-22 0 -57 16t-57 16q-20 0 -41 -8t-32 -16l-11 -8v54
q39 33 84 33q22 0 57 -16.5t57 -16.5z" />
    <glyph glyph-name="lessequal.uc" horiz-adv-x="424" 
d="M364 547l-211 -129l211 -129l-24 -50l-280 179l280 179zM98 148v55h240v-55h-240z" />
    <glyph glyph-name="greaterequal.uc" horiz-adv-x="424" 
d="M84 597l280 -179l-280 -179l-24 50l211 129l-211 129zM86 148v55h240v-55h-240z" />
    <glyph glyph-name="at.uc" horiz-adv-x="819" 
d="M470 683q142 0 225 -105t59 -240q-17 -94 -59.5 -144t-109.5 -50q-26 0 -49 7t-36.5 17t-23 20.5t-13.5 17.5l-4 7q-1 -3 -3.5 -7.5t-11.5 -16.5t-19 -21t-26 -16.5t-34 -7.5q-53 0 -77.5 51.5t-8.5 142.5q17 97 58.5 145.5t98.5 48.5q30 0 51.5 -17t28.5 -34l7 -17
l-30 -170q-11 -57 18 -86.5t81 -29.5q88 0 117 160q22 126 -48.5 216t-198.5 90q-127 0 -228 -89t-124 -217q-22 -123 51.5 -214t193.5 -91q33 0 71.5 6.5t60.5 13.5l22 7l16 -34q-78 -32 -177 -32q-61 0 -118 27t-97.5 72t-60 110t-7.5 135q26 151 141 248t264 97zM454 441
q0 5 -0.5 12t-7 18.5t-18.5 11.5q-25 0 -49 -40.5t-35 -104.5q-12 -72 -6.5 -108t26.5 -36t40.5 37t31.5 107z" />
    <glyph glyph-name="zero.numr" horiz-adv-x="243" 
d="M121 680q41 0 64 -48.5t23 -134.5t-23 -134.5t-64 -48.5t-63.5 48t-22.5 135q0 86 22.5 134.5t63.5 48.5zM121 362q30 0 30 135q0 134 -30 134q-29 0 -29 -134q0 -135 29 -135z" />
    <glyph glyph-name="one.numr" horiz-adv-x="159" 
d="M35 660l89 23v-366h-57v302l-32 -8v49z" />
    <glyph glyph-name="two.numr" horiz-adv-x="217" 
d="M182 585q0 -81 -84 -220h75v-48h-116l-22 32q10 15 25 39.5t40 87t25 109.5q0 18 -8 32t-22 14q-10 0 -19.5 -6.5t-13.5 -12.5l-4 -7l-20 42q20 33 64 33q31 0 55.5 -26.5t24.5 -68.5z" />
    <glyph glyph-name="three.numr" horiz-adv-x="223" 
d="M148 505q4 -3 11 -9.5t18 -29t11 -48.5q0 -47 -22.5 -75.5t-61.5 -28.5q-20 0 -37 8t-25 16l-7 8l18 39q14 -23 41 -23q37 0 37 60q0 59 -29 59h-31v49h31q24 0 24 51q0 23 -9.5 36.5t-24.5 13.5q-8 0 -16.5 -5.5t-12.5 -11.5l-4 -6l-18 39q19 33 61 33q35 0 58 -26.5
t23 -67.5q0 -25 -8.5 -45t-17.5 -28z" />
    <glyph glyph-name="four.numr" horiz-adv-x="253" 
d="M185 480h33v-48h-33v-115h-54v115h-96v35l105 210h45v-197zM134 480v99l-49 -99h49z" />
    <glyph glyph-name="five.numr" horiz-adv-x="221" 
d="M165 519q21 -31 21 -86t-23 -87q-24 -32 -64 -32q-17 0 -33 7t-24 15l-7 7l20 43q17 -24 40 -24q15 0 24.5 19t9.5 52q0 70 -31 70q-6 0 -12 -4t-9 -8l-3 -4l-25 27l9 163h116v-49h-62l-4 -76q36 -2 57 -33z" />
    <glyph glyph-name="six.numr" horiz-adv-x="234" 
d="M122 574q30 0 53.5 -29t23.5 -101q0 -63 -21.5 -96.5t-59.5 -33.5t-60.5 36t-22.5 108q0 44 11 84t26.5 66t31 46t26.5 29l11 9l22 -46q-32 -31 -54 -74q8 2 13 2zM117 361q12 0 19 24t7 59t-7 58.5t-19 23.5t-19 -23.5t-7 -58.5t7 -59t19 -24z" />
    <glyph glyph-name="seven.numr" horiz-adv-x="227" 
d="M35 677h157v-43q0 -1 -2.5 -5.5t-6 -12l-8.5 -18t-10.5 -25t-10.5 -29.5q-37 -107 -37 -217v-10h-57v10q0 118 40 229q15 41 32 70h-97v51z" />
    <glyph glyph-name="eight.numr" horiz-adv-x="240" 
d="M175 508q30 -30 30 -86q0 -50 -25 -80q-23 -28 -60 -28q-38 0 -61 28q-24 28 -24 80q0 56 30 86q-25 27 -25 74q0 42 22 70t58 28q35 0 57 -28q22 -26 22 -70q0 -47 -24 -74zM120 631q-23 0 -23 -51q0 -21 6.5 -35t16.5 -14t16 14t6 35q0 51 -22 51zM139 377q9 17 9 45
q0 30 -9 46q-8 14 -19 14t-19 -14q-9 -16 -9 -46q0 -28 9 -45q7 -15 19 -15t19 15z" />
    <glyph glyph-name="nine.numr" horiz-adv-x="235" 
d="M118 680q38 0 60 -37t22 -107q0 -46 -10.5 -86.5t-25 -66t-29.5 -44.5t-25 -27l-11 -8l-21 44q35 27 55 74q-10 -2 -17 -2q-35 0 -58 35t-23 95q0 61 23 95.5t60 34.5zM118 468q26 0 26 82t-26 82t-26 -82t26 -82z" />
    <glyph glyph-name="zero.dnom" horiz-adv-x="243" 
d="M121 363q41 0 64 -48.5t23 -134.5t-23 -134.5t-64 -48.5t-63.5 48t-22.5 135t22.5 135t63.5 48zM121 45q30 0 30 135t-30 135q-29 0 -29 -135t29 -135z" />
    <glyph glyph-name="one.dnom" horiz-adv-x="159" 
d="M35 343l89 23v-366h-57v302l-32 -8v49z" />
    <glyph glyph-name="two.dnom" horiz-adv-x="217" 
d="M182 268q0 -81 -84 -220h75v-48h-116l-22 32q10 15 25 39.5t40 87t25 109.5q0 18 -8 32t-22 14q-10 0 -19.5 -6.5t-13.5 -13.5l-4 -6l-20 42q20 33 64 33q31 0 55.5 -26t24.5 -69z" />
    <glyph glyph-name="three.dnom" horiz-adv-x="223" 
d="M148 188q4 -3 11 -9.5t18 -29t11 -48.5q0 -47 -22.5 -75.5t-61.5 -28.5q-20 0 -37 8t-25 16l-7 8l18 39q14 -23 41 -23q37 0 37 60q0 59 -29 59h-31v49h31q11 0 17.5 14.5t6.5 36.5q0 23 -9.5 37t-24.5 14q-8 0 -16.5 -6t-12.5 -12l-4 -6l-18 39q19 33 61 33
q35 0 58 -26.5t23 -67.5q0 -25 -8.5 -45t-17.5 -28z" />
    <glyph glyph-name="four.dnom" horiz-adv-x="253" 
d="M185 163h33v-48h-33v-115h-54v115h-96v35l105 210h45v-197zM134 163v99l-49 -99h49z" />
    <glyph glyph-name="five.dnom" horiz-adv-x="221" 
d="M165 202q21 -31 21 -86t-23 -87q-24 -32 -64 -32q-17 0 -33 7.5t-24 14.5l-7 7l20 43q17 -24 40 -24q15 0 24.5 19t9.5 52q0 70 -31 70q-6 0 -12 -4t-9 -8l-3 -4l-25 27l9 163h116v-49h-62l-4 -76q36 -1 57 -33z" />
    <glyph glyph-name="six.dnom" horiz-adv-x="234" 
d="M122 257q30 0 53.5 -29t23.5 -101q0 -63 -21.5 -96.5t-59.5 -33.5t-60.5 36t-22.5 108q0 44 11 84t26.5 66t31 46t26.5 29l11 9l22 -46q-32 -30 -54 -74q8 2 13 2zM117 45q12 0 19 23.5t7 58.5t-7 58.5t-19 23.5t-19 -23.5t-7 -58.5t7 -58.5t19 -23.5z" />
    <glyph glyph-name="seven.dnom" horiz-adv-x="227" 
d="M35 360h157v-43q0 -1 -2.5 -5.5l-6.5 -12t-8.5 -18l-10 -24.5t-10.5 -29q-37 -109 -37 -218v-10h-57v10q0 118 40 229q15 41 32 70h-97v51z" />
    <glyph glyph-name="eight.dnom" horiz-adv-x="240" 
d="M175 191q30 -30 30 -86q0 -50 -25 -80q-23 -28 -60 -28q-38 0 -61 28q-24 28 -24 80q0 56 30 86q-25 27 -25 74q0 42 22 70t58 28q35 0 57 -28q22 -26 22 -70q0 -47 -24 -74zM120 315q-23 0 -23 -52q0 -21 6.5 -35t16.5 -14t16 14t6 35q0 23 -6 37.5t-16 14.5zM139 60
q9 16 9 45t-9 46q-7 14 -19 14t-19 -14q-9 -17 -9 -46t9 -45q7 -15 19 -15t19 15z" />
    <glyph glyph-name="nine.dnom" horiz-adv-x="235" 
d="M118 363q38 0 60 -37t22 -107q0 -46 -10.5 -86.5t-25 -66t-29.5 -44.5t-25 -27l-11 -8l-21 45q35 26 55 74q-7 -3 -17 -3q-35 0 -58 35t-23 95q0 61 23 95.5t60 34.5zM118 151q26 0 26 82t-26 82t-26 -82t26 -82z" />
    </font>
</defs>
</svg>
